<?xml version="1.0" encoding="UTF-8" standalone="no"?>
<!DOCTYPE svg PUBLIC "-//W3C//DTD SVG 1.1//EN" "http://www.w3.org/Graphics/SVG/1.1/DTD/svg11.dtd">
<svg width="1500" height="2100" viewBox="0 0 1500 2100" version="1.1" xmlns="http://www.w3.org/2000/svg" xmlns:xlink="http://www.w3.org/1999/xlink" xml:space="preserve" xmlns:serif="http://www.serif.com/" style="fill-rule:evenodd;clip-rule:evenodd;stroke-linejoin:round;stroke-miterlimit:2;">
    <path d="M1130,1933C1218.3,1932.75 1427.22,1918.35 1440,1765L1440,85C1437.14,71.038 1428.74,62.781 1415,60L85,60C71.263,62.781 62.855,71.038 60,85L60,1765C72.783,1918.35 281.698,1932.75 370,1933L1130,1933ZM86,1833L86,265L1414,265L1414,1833L86,1833ZM105.672,232.739C91.785,221.58 78.477,193.794 78,161C78.481,127.948 91.996,99.984 106,89L1394,89C1408,99.984 1421.52,127.948 1422,161C1421.52,194.052 1408,222.016 1394,233L106,233L105.672,232.739Z" style="fill:rgb(0,123,67);"/>
</svg>
