<?xml version="1.0" encoding="UTF-8" standalone="no"?>
<!DOCTYPE svg PUBLIC "-//W3C//DTD SVG 1.1//EN" "http://www.w3.org/Graphics/SVG/1.1/DTD/svg11.dtd">
<svg width="1500" height="2100" viewBox="0 0 1500 2100" version="1.1" xmlns="http://www.w3.org/2000/svg" xmlns:xlink="http://www.w3.org/1999/xlink" xml:space="preserve" xmlns:serif="http://www.serif.com/" style="fill-rule:evenodd;clip-rule:evenodd;stroke-linejoin:round;stroke-miterlimit:2;">
    <rect id="Card" x="0" y="0" width="1500" height="2100" style="fill:none;"/>
    <g id="Card1" serif:id="Card">
        <path id="Background" d="M85,60C71.263,62.781 62.855,71.038 60,85L60,1765C60.611,1789.61 73.299,1829.61 100,1853L100,1948L1400,1948L1400,1853C1426.7,1829.61 1439.39,1789.61 1440,1765L1440,85C1437.14,71.038 1428.74,62.781 1415,60L85,60ZM100,1707.29L100,559C100,556.802 100.658,554.655 101.89,552.835C101.89,552.835 307.637,248 750,248C1192.36,248 1398.11,552.835 1398.11,552.835C1399.34,554.655 1400,556.802 1400,559L1400,1707.29C1411.64,1720.67 1421.59,1745.22 1422,1773.5C1421.52,1806.55 1408,1834.52 1394,1845.5L106,1845.5C91.996,1834.52 78.481,1806.55 78,1773.5C78.412,1745.22 88.362,1720.67 100,1707.29ZM105.672,232.739C91.785,221.58 78.477,193.794 78,161C78.481,127.948 91.996,99.984 106,89L1394,89C1408,99.984 1421.52,127.948 1422,161C1421.52,194.052 1408,222.016 1394,233L106,233L105.672,232.739Z" style="fill:rgb(239,56,39);"/>
    </g>
</svg>
