<?xml version="1.0" encoding="UTF-8" standalone="no"?>
<!DOCTYPE svg PUBLIC "-//W3C//DTD SVG 1.1//EN" "http://www.w3.org/Graphics/SVG/1.1/DTD/svg11.dtd">
<svg width="1500" height="2100" viewBox="0 0 1500 2100" version="1.1" xmlns="http://www.w3.org/2000/svg" xmlns:xlink="http://www.w3.org/1999/xlink" xml:space="preserve" xmlns:serif="http://www.serif.com/" style="fill-rule:evenodd;clip-rule:evenodd;stroke-linejoin:round;stroke-miterlimit:2;">
    <rect id="Card" x="0" y="0" width="1500" height="2100" style="fill:none;"/>
    <g id="Card1" serif:id="Card">
        <path id="Type--Regular-" serif:id="Type (Regular)" d="M100,1707.29L100,559C100,556.802 100.658,554.655 101.89,552.835C101.89,552.835 307.637,248 750,248C1192.36,248 1398.11,552.835 1398.11,552.835C1399.34,554.655 1400,556.802 1400,559L1400,1707.29C1411.64,1720.67 1421.59,1745.22 1422,1773.5C1421.52,1806.55 1408,1834.52 1394,1845.5L106,1845.5C91.996,1834.52 78.481,1806.55 78,1773.5C78.412,1745.22 88.362,1720.67 100,1707.29ZM1388.24,1712.51C1389.44,1712.58 1390.56,1713.19 1391.26,1714.18C1405.33,1733.95 1410.29,1753.73 1410.29,1773.5C1410.29,1793.27 1405.33,1813.05 1391.26,1832.82C1390.51,1833.87 1389.29,1834.5 1388,1834.5L112,1834.5C110.706,1834.5 109.492,1833.87 108.741,1832.82C94.667,1813.05 89.714,1793.27 89.714,1773.5C89.714,1753.73 94.667,1733.95 108.741,1714.18C109.492,1713.13 110.706,1712.5 112,1712.5L1388,1712.5L1388.24,1712.51ZM1389,1701.5L1389,559C1389,559 1186,259 750,259C314,259 111,559 111,559L111,1701.5L1389,1701.5ZM105.672,232.739C91.785,221.58 78.477,193.794 78,161C78.481,127.948 91.996,99.984 106,89L1394,89C1408,99.984 1421.52,127.948 1422,161C1421.52,194.052 1408,222.016 1394,233L106,233L105.672,232.739ZM112,100L1388,100C1389.29,100 1390.51,100.626 1391.26,101.68C1405.33,121.453 1410.29,141.227 1410.29,161C1410.29,180.773 1405.33,200.547 1391.26,220.32C1390.51,221.374 1389.29,222 1388,222L112,222C110.706,222 109.492,221.374 108.741,220.32C94.667,200.547 89.714,180.773 89.714,161C89.714,141.227 94.667,121.453 108.741,101.68C109.492,100.626 110.706,100 112,100Z" style="fill:rgb(0,123,67);"/>
    </g>
</svg>
