<?xml version="1.0" encoding="UTF-8" standalone="no"?>
<!DOCTYPE svg PUBLIC "-//W3C//DTD SVG 1.1//EN" "http://www.w3.org/Graphics/SVG/1.1/DTD/svg11.dtd">
<svg width="2100" height="1500" viewBox="0 0 2100 1500" version="1.1" xmlns="http://www.w3.org/2000/svg" xmlns:xlink="http://www.w3.org/1999/xlink" xml:space="preserve" xmlns:serif="http://www.serif.com/" style="fill-rule:evenodd;clip-rule:evenodd;stroke-linejoin:round;stroke-miterlimit:2;">
    <g id="Card" transform="matrix(1.4,0,0,0.714286,0,0)">
        <rect x="0" y="0" width="1500" height="2100" style="fill:none;"/>
        <clipPath id="_clip1">
            <rect x="0" y="0" width="1500" height="2100"/>
        </clipPath>
        <g clip-path="url(#_clip1)">
            <g id="Pinline" transform="matrix(0.714286,0,0,1.4,0,0)">
                <path d="M304.5,925C257.035,925 218.5,963.535 218.5,1011L218.5,1500C218.5,1506.08 223.425,1511 229.5,1511L885.5,1511C891.575,1511 896.5,1506.08 896.5,1500L896.5,1011C896.5,963.535 857.965,925 810.5,925L304.5,925ZM304.5,936L810.5,936C851.894,936 885.5,969.606 885.5,1011L885.5,1500L229.5,1500L229.5,1011C229.5,969.606 263.106,936 304.5,936ZM1056.29,227.213C1044.65,213.833 1034.7,189.278 1034.29,161C1034.77,127.948 1048.28,99.984 1062.29,89L1984,89C1998,99.984 2011.52,127.948 2012,161C2011.59,189.276 2001.64,213.828 1990,227.213L1990,1272.79C2001.64,1286.17 2011.59,1310.72 2012,1339C2011.52,1372.05 1998,1400.02 1984,1411L1062.29,1411C1048.28,1400.02 1034.77,1372.05 1034.29,1339C1034.7,1310.72 1044.65,1286.17 1056.29,1272.79L1056.29,227.213ZM1978.24,1278.01C1979.44,1278.08 1980.56,1278.69 1981.26,1279.68C1995.33,1299.45 2000.29,1319.23 2000.29,1339C2000.29,1358.77 1995.33,1378.55 1981.26,1398.32C1980.51,1399.37 1979.29,1400 1978,1400L1068.29,1400C1066.99,1400 1065.78,1399.37 1065.03,1398.32C1050.95,1378.55 1046,1358.77 1046,1339C1046,1319.23 1050.95,1299.45 1065.03,1279.68C1065.78,1278.63 1066.99,1278 1068.29,1278L1978,1278L1978.24,1278.01ZM1067.29,233L1067.29,1267L1979,1267L1979,233L1067.29,233ZM1068.29,100L1978,100C1979.29,100 1980.51,100.626 1981.26,101.68C1995.33,121.453 2000.29,141.227 2000.29,161C2000.29,180.773 1995.33,200.547 1981.26,220.32C1980.51,221.374 1979.29,222 1978,222L1068.29,222C1066.99,222 1065.78,221.374 1065.03,220.32C1050.95,200.547 1046,180.773 1046,161C1046,141.227 1050.95,121.453 1065.03,101.68C1065.78,100.626 1066.99,100 1068.29,100Z" style="fill:rgb(239,56,39);"/>
            </g>
        </g>
    </g>
</svg>
