<?xml version="1.0" encoding="UTF-8" standalone="no"?>
<!DOCTYPE svg PUBLIC "-//W3C//DTD SVG 1.1//EN" "http://www.w3.org/Graphics/SVG/1.1/DTD/svg11.dtd">
<svg width="1500" height="2100" viewBox="0 0 1500 2100" version="1.1" xmlns="http://www.w3.org/2000/svg" xmlns:xlink="http://www.w3.org/1999/xlink" xml:space="preserve" xmlns:serif="http://www.serif.com/" style="fill-rule:evenodd;clip-rule:evenodd;stroke-linejoin:round;stroke-miterlimit:2;">
    <path id="Twins" d="M1155.09,1778C1175.83,1732.59 1221.64,1701 1274.79,1701C1347.36,1701 1406.29,1759.92 1406.29,1832.5C1406.29,1832.93 1406.28,1833.36 1406.28,1833.78C1406.28,1834.19 1406.29,1834.59 1406.29,1835C1406.29,1841.55 1405.72,1848.1 1404.43,1854.64C1393.88,1916.7 1339.82,1964 1274.79,1964C1223.62,1964 1179.24,1934.71 1157.51,1892L342.494,1892C320.761,1934.71 276.38,1964 225.214,1964C160.185,1964 106.117,1916.7 95.574,1854.64C94.279,1848.1 93.714,1841.55 93.714,1835C93.714,1834.59 93.716,1834.19 93.721,1833.78C93.716,1833.36 93.714,1832.93 93.714,1832.5C93.714,1759.92 152.637,1701 225.214,1701C278.355,1701 324.175,1732.59 344.906,1778L1155.09,1778Z" style="fill:rgb(0,117,190);"/>
</svg>
