<?xml version="1.0" encoding="UTF-8" standalone="no"?><!DOCTYPE svg PUBLIC "-//W3C//DTD SVG 1.1//EN" "http://www.w3.org/Graphics/SVG/1.1/DTD/svg11.dtd"><svg width="180" height="252" viewBox="0 0 180 252" version="1.1" xmlns="http://www.w3.org/2000/svg" xmlns:xlink="http://www.w3.org/1999/xlink" xml:space="preserve" xmlns:serif="http://www.serif.com/" style="fill-rule:evenodd;clip-rule:evenodd;stroke-linejoin:round;stroke-miterlimit:2;"><g id="Masks"><path id="Border" d="M0,252l0,-252l180,0l0,252l-180,0Zm163.8,-245.4l-0,1.92l10.44,0l-0,2.88l0.72,0l-0.72,2.52l-0,127.44l0.84,0l-0.84,2.52l-0,73.44l-6.12,6.12l0,10.532l-67.56,0c-2.252,-2.715 -5.637,-4.319 -10.446,-4.527l-0.114,-0.005c-4.87,0.188 -8.291,1.796 -10.56,4.532l-67.56,0l0,-10.532l-6.12,-6.12l0,-73.44l-0.84,-2.52l0.84,-0l0,-127.44l-0.72,-2.52l0.72,-0l0,-2.88l10.44,-0l0,-1.92l147.6,-0Z"/></g></svg>