<?xml version="1.0" encoding="UTF-8" standalone="no"?><!DOCTYPE svg PUBLIC "-//W3C//DTD SVG 1.1//EN" "http://www.w3.org/Graphics/SVG/1.1/DTD/svg11.dtd"><svg width="180" height="252" viewBox="0 0 180 252" version="1.1" xmlns="http://www.w3.org/2000/svg" xmlns:xlink="http://www.w3.org/1999/xlink" xml:space="preserve" xmlns:serif="http://www.serif.com/" style="fill-rule:evenodd;clip-rule:evenodd;stroke-linejoin:round;stroke-miterlimit:2;"><g id="Masks"><path id="Pinline" d="M100.56,233.972c-2.252,-2.715 -5.637,-4.319 -10.446,-4.527l-0.114,-0.005c-4.87,0.188 -8.291,1.796 -10.56,4.532l-67.56,0l0,-77.372l156.24,-0l0,77.372l-67.56,0Zm65.88,-1.652l-65.594,0c-2.442,-2.487 -5.91,-3.988 -10.675,-4.194l-0.169,-0.007l-0.053,0.002c-4.827,0.186 -8.333,1.691 -10.795,4.199l-65.594,0l0,-74.28l152.88,-0l0,74.28Zm-155.76,-10.08l-0,-63l-2.88,-3l-0,-3.48l-2.04,-6.72l-0,71.28l4.92,4.92Zm158.64,-0l-0,-63l2.88,-3l-0,-3.48l2.04,-6.72l-0,71.28l-4.92,4.92Zm-161.52,-63l-0,57.48l0.84,0.72l-0,-57.36l-0.84,-0.84Zm164.4,-0l-0,57.48l-0.84,0.72l-0,-57.36l0.84,-0.84Zm-165,-18.48l-0,-119.76l-1.44,-4.92l-0,124.68l1.44,-0Zm165.6,-0l-0,-119.76l1.44,-4.92l-0,124.68l-1.44,-0Zm-155.28,-130.68l-0,0.72l-1.32,-0l-0,-0.72l-8.88,-0l-0,0.72l-1.56,-0l-0,-2.4l10.44,-0l-0,-1.8l147.6,-0l-0,1.8l10.44,-0l-0,2.4l-1.56,-0l0,-0.72l-8.88,-0l-0,0.72l-1.32,-0l-0,-0.72l-144.96,-0Zm144.96,-1.68l-0,-0.48l-144.96,-0l-0,0.48l144.96,-0Z" style="fill:#007b43;"/></g></svg>