<?xml version="1.0" encoding="UTF-8" standalone="no"?>
<!DOCTYPE svg PUBLIC "-//W3C//DTD SVG 1.1//EN" "http://www.w3.org/Graphics/SVG/1.1/DTD/svg11.dtd">
<svg width="1500" height="2100" viewBox="0 0 1500 2100" version="1.1" xmlns="http://www.w3.org/2000/svg" xmlns:xlink="http://www.w3.org/1999/xlink" xml:space="preserve" xmlns:serif="http://www.serif.com/" style="fill-rule:evenodd;clip-rule:evenodd;stroke-linejoin:round;stroke-miterlimit:2;">
    <path d="M104,1839.3L100,1834.5C82.043,1813.39 73.471,1783.8 72.995,1764.64L73,86.449L73.105,86.063C74.962,79.218 79.304,74.923 86.053,73.103L86.437,73L1413.56,73L1413.95,73.103C1420.69,74.922 1425.04,79.217 1426.89,86.063L1427,86.449L1427,1765L1427,1765.08C1426.53,1783.85 1417.96,1813.4 1400,1834.5L1396,1839.3L1396,1944L104,1944L104,1839.3ZM1390,1324L110,1324L110,1938L1390,1938L1390,1324ZM1385,1329L115,1329L115,1933L1385,1933L1385,1329ZM1346,1363L154,1363L154,1899L1346,1899L1346,1363ZM1305,1400L195,1400L195,1862L1305,1862L1305,1400ZM1396,1829.61L1400,1824.81C1413.91,1805.53 1420.59,1781.05 1421,1764.95L1421,87.269C1419.73,82.99 1416.97,80.245 1412.75,79L87.251,79C83.031,80.245 80.268,82.99 79,87.268L78.994,1764.53C79.402,1780.93 86.08,1805.5 100,1824.8L104,1829.6L104,1318L1396,1318L1396,1829.61ZM1264,1437L236,1437L236,1825L1264,1825L1264,1437ZM1223,1474L277,1474L277,1788L1223,1788L1223,1474ZM1182,1511L318,1511L318,1751L1182,1751L1182,1511ZM1141,1548L359,1548L359,1714L1141,1714L1141,1548ZM1100,1585L400,1585L400,1677L1100,1677L1100,1585Z" style="fill:rgb(0,117,190);"/>
</svg>
