<?xml version="1.0" encoding="UTF-8" standalone="no"?>
<!DOCTYPE svg PUBLIC "-//W3C//DTD SVG 1.1//EN" "http://www.w3.org/Graphics/SVG/1.1/DTD/svg11.dtd">
<svg width="1500" height="2100" viewBox="0 0 1500 2100" version="1.1" xmlns="http://www.w3.org/2000/svg" xmlns:xlink="http://www.w3.org/1999/xlink" xml:space="preserve" xmlns:serif="http://www.serif.com/" style="fill-rule:evenodd;clip-rule:evenodd;stroke-linejoin:round;stroke-miterlimit:2;">
    <rect id="Card" x="0" y="0" width="1500" height="2100" style="fill:none;"/>
    <g id="Card1" serif:id="Card">
        <g id="Pinline">
            <path d="M100,1834.5C82.043,1813.39 73.471,1783.8 72.995,1764.64L73,86.449L73.105,86.063C74.962,79.218 79.304,74.923 86.053,73.103L86.437,73L1413.56,73L1413.95,73.103C1420.69,74.922 1425.04,79.217 1426.89,86.063L1427,86.449L1427,1765L1427,1765.08C1426.53,1783.85 1417.96,1813.4 1400,1834.5L1400,1948L100,1948L100,1834.5ZM1386,1934L1386,1328L114,1328L114,1934L1386,1934ZM1400,1824.81C1413.91,1805.53 1420.59,1781.05 1421,1764.95L1421,87.269C1419.73,82.99 1416.97,80.245 1412.75,79L87.251,79C83.031,80.245 80.268,82.99 79,87.268L78.994,1764.53C79.402,1780.93 86.08,1805.5 100,1824.8L100,1314L1400,1314L1400,1824.81ZM1402,178.5L98,178.5L98,1197.5L1402,1197.5L1402,178.5ZM104,184.5L104,1191.5L1396,1191.5L1396,184.5L104,184.5Z" style="fill:rgb(237,28,36);"/>
            <path d="M1414.91,73.384C1414.92,73.336 1414.93,73.286 1414.94,73.235C1415,72.737 1414.69,72.268 1414.21,72.138C1421.32,74.056 1425.9,78.583 1427.86,85.801L1427.96,86.178C1428,86.299 1428.01,86.409 1428,86.498L1428,1765L1428,1765.1L1428,1765.1C1427.53,1783.96 1418.96,1813.6 1401,1834.86L1401,1948C1401,1948.55 1400.55,1949 1400,1949L100,1949C99.448,1949 99,1948.55 99,1948L99,1834.86C81.046,1813.59 72.474,1783.91 71.995,1764.66C71.995,1764.66 71.995,1764.65 71.995,1764.64L72,86.449C72,86.714 72.105,86.969 72.293,87.156C72.48,87.344 72.735,87.449 73,87.449L72.995,1764.64C73.471,1783.8 82.043,1813.39 100,1834.5L100,1948L1400,1948L1400,1834.5C1417.96,1813.4 1426.53,1783.85 1427,1765.08L1427,1765L1427,86.449L1426.89,86.063C1425.13,79.547 1421.11,75.342 1414.91,73.384ZM1386,1934L1386,1328L114,1328L114,1934L1386,1934ZM1385,1933L115,1933C115,1906.35 115,1355.65 115,1329C154.408,1329 1345.59,1329 1385,1329C1385,1329 1385,1933 1385,1933L1385,1933ZM1400,1824.81C1413.91,1805.53 1420.59,1781.05 1421,1764.95L1421,87.269C1419.73,82.99 1416.97,80.245 1412.75,79L87.251,79C83.031,80.245 80.268,82.99 79,87.268L78.994,1764.53C79.402,1780.93 86.08,1805.5 100,1824.8L100,1314L1400,1314L1400,1824.81ZM1401,1821.62L1401,1314C1401,1313.45 1400.55,1313 1400,1313L100,1313C99.448,1313 99,1313.45 99,1314L99,1821.62C86.443,1802.93 80.383,1780.04 79.994,1764.52C79.994,1764.52 80,87.416 80,87.416C81.169,83.612 83.643,81.149 87.396,80.001C87.398,80 1412.6,80 1412.6,80C1416.36,81.148 1418.83,83.611 1420,87.413C1420,87.416 1420,1759.47 1420,1764.94C1419.61,1780.18 1413.55,1802.98 1401,1821.62ZM1427.08,1766L1427.07,1766L1427,1766.08L1427.08,1766ZM1403,178.5C1403,177.948 1402.55,177.5 1402,177.5L98,177.5C97.448,177.5 97,177.948 97,178.5L97,1197.5C97,1198.05 97.448,1198.5 98,1198.5L1402,1198.5C1402.55,1198.5 1403,1198.05 1403,1197.5L1403,178.5ZM1402,178.5L98,178.5L98,1197.5L1402,1197.5L1402,178.5ZM104,184.5L104,1191.5L1396,1191.5L1396,184.5L104,184.5ZM105,185.5C144.73,185.5 1355.27,185.5 1395,185.5C1395,220.368 1395,1155.63 1395,1190.5C1395,1190.5 105,1190.5 105,1190.5C105,1154.99 105,185.5 105,185.5L105,185.5ZM73,86.928L72.137,85.812C72.137,85.812 72.037,86.178 72.037,86.178L73,87.449L73,86.928ZM85.925,73.139C79.249,74.978 74.951,79.262 73.105,86.063L73,86.449L73,86.926L72.14,85.801C74.098,78.584 78.677,74.057 85.793,72.138L85.925,73.139ZM1413.26,73C1413.14,72.43 1413.18,71.861 1413.83,72.037C1413.89,72.052 1414.15,72.122 1414.2,72.135C1414.83,72.305 1414.75,72.811 1414.52,73.267C1414.33,73.21 1414.14,73.156 1413.95,73.103L1413.56,73L1413.26,73ZM86.304,73.036L86.166,72.037C86.166,72.037 85.802,72.136 85.802,72.136L85.93,73.138L86.053,73.103L86.304,73.036ZM86.437,73C86.437,73 1412.56,73 1412.56,73C1412.56,72.448 1413.01,72 1413.56,72L86.437,72L86.437,73Z"/>
        </g>
    </g>
</svg>
