<?xml version="1.0" encoding="UTF-8" standalone="no"?>
<!DOCTYPE svg PUBLIC "-//W3C//DTD SVG 1.1//EN" "http://www.w3.org/Graphics/SVG/1.1/DTD/svg11.dtd">
<svg width="1500" height="2100" viewBox="0 0 1500 2100" version="1.1" xmlns="http://www.w3.org/2000/svg" xmlns:xlink="http://www.w3.org/1999/xlink" xml:space="preserve" xmlns:serif="http://www.serif.com/" style="fill-rule:evenodd;clip-rule:evenodd;stroke-linejoin:round;stroke-miterlimit:2;">
    <path id="Border" d="M0,0L1500,0L1500,2100L0,2100L0,0ZM750,44.029C546.167,65.904 470.1,76.034 366.114,86.172C347.083,88.028 317.293,93.889 308.043,87.852C294.444,78.976 293.712,65.638 319.118,53.451C277.953,54.922 238.414,62.727 211.453,74.322C144.361,103.177 114.408,89.915 132,50C91.883,59.908 62.789,85.456 44.59,126.462C70.871,154.604 70.557,189.815 51.138,230.105C79.826,231.082 81.348,266.852 56,270.254C56.905,274.12 58.319,277.427 60,280.439L60,1765C60.581,1788.38 72.058,1825.64 96.093,1849.36C97.36,1850.62 102,1866 102,1866C97.358,1878.29 89.418,1891.71 79,1906C114.939,1951.64 225.683,1958.23 319,1945L358,1943L442.12,1943.4L452.624,1950.45C483.839,1940.28 570.546,1944.06 637.256,1944.4C638.351,1944.47 750,1944.5 750,1944.5C750,1944.5 861.649,1944.47 862.744,1944.4C929.454,1944.06 1016.16,1940.28 1047.38,1950.45L1057.88,1943.4L1142,1943L1181,1945C1274.32,1958.23 1385.06,1951.64 1421,1906C1410.58,1891.71 1402.64,1878.29 1398,1866C1398,1866 1402.64,1850.62 1403.91,1849.36C1427.94,1825.64 1439.42,1788.38 1440,1765L1440,280.439C1441.68,277.427 1443.1,274.12 1444,270.254C1418.65,266.852 1420.17,231.082 1448.86,230.105C1429.44,189.815 1429.13,154.604 1455.41,126.462C1437.21,85.456 1408.12,59.908 1368,50C1385.59,89.915 1355.64,103.177 1288.55,74.322C1261.59,62.727 1222.05,54.922 1180.88,53.451C1206.29,65.638 1205.56,78.976 1191.96,87.852C1182.71,93.889 1152.92,88.028 1133.89,86.172C1029.9,76.034 953.833,65.904 750,44.029Z"/>
</svg>
