<?xml version="1.0" encoding="UTF-8" standalone="no"?>
<!DOCTYPE svg PUBLIC "-//W3C//DTD SVG 1.1//EN" "http://www.w3.org/Graphics/SVG/1.1/DTD/svg11.dtd">
<svg width="1500" height="2100" viewBox="0 0 1500 2100" version="1.1" xmlns="http://www.w3.org/2000/svg" xmlns:xlink="http://www.w3.org/1999/xlink" xml:space="preserve" xmlns:serif="http://www.serif.com/" style="fill-rule:evenodd;clip-rule:evenodd;stroke-linejoin:round;stroke-miterlimit:2;">
    <path id="frame-mask" serif:id="frame mask" d="M60,280.845C90.068,344.826 106.031,452.605 115,561.392L115,648C98.336,1066.68 97.779,1105.75 70.118,1150.63C69.429,1151.75 70.373,1153.43 71.505,1153.23C98.289,1148.55 104.903,1175.34 78,1191C75.05,1192.72 70.321,1199.14 70.323,1201.71C70.325,1204.53 72.898,1204.7 75,1206C84.426,1211.81 90.713,1222.47 93.954,1234.74C93.791,1237.16 93.714,1239.58 93.714,1242C93.714,1249.38 94.432,1256.76 96.102,1264.13C94.027,1283.92 84.867,1301.61 68.971,1305.24C66.735,1305.75 65.802,1308.25 67,1309C79.317,1316.75 103.239,1361.88 97,1363L97,1575C97.264,1591.55 102.169,1604.62 108,1617C100.834,1631.21 95.918,1646.05 95,1662L95.975,1849.25C72.022,1825.52 60.58,1788.34 60,1765L60,280.845ZM1440,280.845L1440,1765C1439.42,1788.34 1427.98,1825.52 1404.03,1849.25L1405,1662C1404.08,1646.05 1399.17,1631.21 1392,1617C1397.83,1604.62 1402.74,1591.55 1403,1575L1403,1363C1396.76,1361.88 1420.68,1316.75 1433,1309C1434.2,1308.25 1433.27,1305.75 1431.03,1305.24C1415.13,1301.61 1405.97,1283.92 1403.9,1264.13C1405.57,1256.76 1406.29,1249.38 1406.29,1242C1406.29,1239.58 1406.21,1237.16 1406.05,1234.74C1409.29,1222.47 1415.57,1211.81 1425,1206C1427.1,1204.7 1429.67,1204.53 1429.68,1201.71C1429.68,1199.14 1424.95,1192.72 1422,1191C1395.1,1175.34 1401.71,1148.55 1428.5,1153.23C1429.63,1153.43 1430.57,1151.75 1429.88,1150.63C1402.22,1105.75 1401.66,1066.68 1385,648L1385,561.392C1393.97,452.605 1409.93,344.826 1440,280.845Z" style="fill:rgb(239,56,39);"/>
</svg>
