<?xml version="1.0" encoding="UTF-8" standalone="no"?>
<!DOCTYPE svg PUBLIC "-//W3C//DTD SVG 1.1//EN" "http://www.w3.org/Graphics/SVG/1.1/DTD/svg11.dtd">
<svg width="1500" height="2100" viewBox="0 0 1500 2100" version="1.1" xmlns="http://www.w3.org/2000/svg" xmlns:xlink="http://www.w3.org/1999/xlink" xml:space="preserve" xmlns:serif="http://www.serif.com/" style="fill-rule:evenodd;clip-rule:evenodd;stroke-linejoin:round;stroke-miterlimit:2;">
    <path id="text-mask" serif:id="text mask" d="M748.219,1325.25L751.781,1325.25C1259.33,1325.04 1374.15,1325.24 1374.56,1326.29C1374.83,1327 1374.93,1350.96 1374.78,1379.54L1374.5,1431.5L1370.1,1441.5C1353.98,1478.1 1348.4,1505.73 1352.04,1531C1354.34,1546.96 1362.25,1565.94 1368.02,1569.35L1371,1571.11L1371,1662.39L1368.57,1664.94C1364.66,1669.05 1359.27,1678.69 1357.47,1684.83C1356.55,1687.95 1355.44,1691.63 1355,1693C1348.4,1713.74 1352.03,1749.67 1363.65,1778.79L1366.17,1785.07L1365.76,1822.79C1365.12,1882.34 1358.17,1902.97 1322.84,1916.51C1284.82,1931.08 1316.1,1926.07 750,1925.5C183.898,1926.07 215.18,1931.08 177.158,1916.51C141.833,1902.97 134.884,1882.34 134.243,1822.79L133.834,1785.07L136.346,1778.79C147.971,1749.67 151.598,1713.74 145.001,1693C144.563,1691.63 143.452,1687.95 142.534,1684.83C140.726,1678.69 135.341,1669.05 131.434,1664.94L129,1662.39L129,1571.11L131.985,1569.35C137.753,1565.94 145.661,1546.96 147.96,1531C151.598,1505.73 146.025,1478.1 129.904,1441.5L125.501,1431.5L125.224,1379.54C125.07,1350.96 125.171,1327 125.441,1326.29C125.846,1325.24 240.671,1325.04 748.219,1325.25Z" style="fill:rgb(246,210,98);"/>
</svg>
