<?xml version="1.0" encoding="UTF-8" standalone="no"?>
<!DOCTYPE svg PUBLIC "-//W3C//DTD SVG 1.1//EN" "http://www.w3.org/Graphics/SVG/1.1/DTD/svg11.dtd">
<svg width="309" height="309" version="1.1" xmlns="http://www.w3.org/2000/svg" xmlns:xlink="http://www.w3.org/1999/xlink" xml:space="preserve" xmlns:serif="http://www.serif.com/" style="fill-rule:evenodd;clip-rule:evenodd;stroke-linejoin:round;stroke-miterlimit:2;">
    <g transform="matrix(1,0,0,1,-19.085,-19.085)">
        <g>
            <path d="M327.915,173.5C327.915,258.21 258.21,327.915 173.5,327.915C88.79,327.915 19.085,258.21 19.085,173.5C19.085,88.79 88.79,19.085 173.5,19.085C258.21,19.085 327.915,88.79 327.915,173.5Z" style="fill-rule:nonzero;"/>
            <path d="M262.289,173.5C262.283,222.204 222.204,262.279 173.5,262.279C124.796,262.279 84.717,222.204 84.711,173.5C84.711,173.497 84.711,173.494 84.711,173.491C84.711,124.783 124.792,84.702 173.5,84.702C222.208,84.702 262.289,124.783 262.289,173.491C262.289,173.494 262.289,173.497 262.289,173.5Z" style="fill:white;fill-rule:nonzero;"/>
            <path d="M132.543,132.543C152.552,112.534 173.5,34.527 173.5,34.527L173.5,173.5L132.543,132.543Z" style="fill-rule:nonzero;"/>
            <path d="M214.457,132.543C194.448,112.534 173.5,34.527 173.5,34.527L173.5,173.5L214.457,132.543Z" style="fill:white;fill-rule:nonzero;"/>
            <path d="M214.457,132.543C234.466,152.552 312.474,173.5 312.474,173.5L173.5,173.5L214.457,132.543Z" style="fill-rule:nonzero;"/>
            <path d="M214.457,214.458C234.466,194.448 312.474,173.5 312.474,173.5L173.5,173.5L214.457,214.458Z" style="fill:white;fill-rule:nonzero;"/>
            <path d="M214.457,214.457C194.448,234.466 173.5,312.474 173.5,312.474L173.5,173.5L214.457,214.457Z" style="fill-rule:nonzero;"/>
            <path d="M132.567,214.433C152.576,234.442 173.524,312.449 173.524,312.449L173.524,173.476L132.567,214.433Z" style="fill:white;fill-rule:nonzero;"/>
            <path d="M132.543,214.457C112.534,194.448 34.527,173.5 34.527,173.5L173.5,173.5L132.543,214.457Z" style="fill-rule:nonzero;"/>
            <path d="M132.543,132.543C112.534,152.552 34.526,173.5 34.526,173.5L173.5,173.5L132.543,132.543Z" style="fill:white;fill-rule:nonzero;"/>
        </g>
    </g>
</svg>
