<?xml version="1.0" encoding="UTF-8" standalone="no"?>
<!DOCTYPE svg PUBLIC "-//W3C//DTD SVG 1.1//EN" "http://www.w3.org/Graphics/SVG/1.1/DTD/svg11.dtd">
<svg width="327" height="327" version="1.1" xmlns="http://www.w3.org/2000/svg" xmlns:xlink="http://www.w3.org/1999/xlink" xml:space="preserve" xmlns:serif="http://www.serif.com/" style="fill-rule:evenodd;clip-rule:evenodd;stroke-linejoin:round;stroke-miterlimit:2;">
    <circle cx="163.5" cy="164.5" r="157.5" style="fill:white;"/>
    <path id="path3741" d="M163.499,0C253.798,0 327,73.201 327,163.5C327,253.799 253.798,327 163.5,327C73.201,327 0,253.799 0,163.5C0,73.201 73.201,0 163.5,0L163.499,0ZM162.794,23.441C157.134,24.671 153.813,29.595 149.92,33.452C123.414,63.278 89.733,85.293 55.661,105.452C45.898,109.504 45.606,122.049 49.364,130.396C71.038,135.668 93.98,131.812 115.506,137.62C125.123,143.771 124.635,156.462 122.096,166.177C115.409,175.5 102.718,179.698 98.324,190.632C103.401,200.932 110.762,210.603 116.913,220.268C113.984,229.543 110.43,241.301 119.655,248.183C119.216,244.816 117.981,236.562 118.896,234.807C119.812,233.053 123.091,230.841 124.683,232.075C126.047,235.597 132.835,252.137 137.033,262.144C134.709,261.21 131.459,260.631 127.972,259.29C124.358,257.9 120.504,255.747 118.094,254.778C122.292,265.859 131.566,272.395 141.085,278.594C140.597,282.255 139.621,289.528 139.083,293.141C129.419,292.507 117.752,288.747 130.736,274.591C127.808,277.521 122.023,282.401 119.506,285.908C112.102,296.231 130.102,300.707 136.203,305.832C141.427,300.951 150.604,297.68 149.968,288.991C150.652,266.244 160.805,245.352 163.1,222.752C164.613,245.45 172.326,269.74 175.84,289.143C177.337,297.405 184.139,300.805 189.313,305.588C196.928,301.586 211.401,294.456 210.193,291.4C207.272,284.014 200.589,280.645 195.219,274.787C206.837,288.406 197.768,293.079 188.15,293.078C187.083,293.079 185.938,289.265 185.252,285.527C184.775,282.934 184.576,280.39 183.992,277.813C194.926,273.567 203.566,265.903 207.471,254.676C202.785,256.531 193.316,260.192 188.581,262.046C194.487,252.137 194.817,239.036 205.006,230.688C208.553,227.784 206.322,251.199 208.496,247.163C215.074,234.96 212.841,229.488 209.326,219.725C215.477,209.963 222.506,200.688 227.68,190.339C222.457,179.991 210.84,175.305 203.859,166.372C201.126,156.658 200.637,143.966 210.156,137.67C231.78,131.763 254.933,136.031 276.689,130.493C279.134,129.871 279.437,128.203 279.892,125.623C280.907,119.874 282.175,112.616 278.007,110.09C249.422,92.761 220.261,75.872 195.61,53.075C184.724,44.045 176.328,32.476 165.297,23.592L162.794,23.441ZM168.86,200.053C175.987,209.23 183.211,218.407 190.826,227.243C188.287,235.199 185.652,243.107 182.82,250.965C175.987,234.662 171.057,217.626 168.86,200.053ZM156.901,199.809C154.704,217.382 149.921,234.418 143.232,250.77C140.353,243.204 137.571,235.589 134.739,228.023C134.718,227.952 149.676,209.328 156.901,199.809ZM178.622,178.136C189.069,181.113 199.124,185.311 208.496,190.827C204.25,198.101 199.856,205.276 195.414,212.452C188.629,201.615 182.918,190.144 178.622,178.136ZM147.186,178.136C142.94,190.193 136.616,200.66 129.879,211.497C125.437,204.321 121.608,198.052 117.313,190.827C126.734,185.36 136.74,181.113 147.186,178.136Z" style="fill-rule:nonzero;"/>
</svg>
