<?xml version="1.0" encoding="UTF-8" standalone="no"?><!DOCTYPE svg PUBLIC "-//W3C//DTD SVG 1.1//EN" "http://www.w3.org/Graphics/SVG/1.1/DTD/svg11.dtd"><svg width="279" height="279" viewBox="0 0 279 279" version="1.1" xmlns="http://www.w3.org/2000/svg" xmlns:xlink="http://www.w3.org/1999/xlink" xml:space="preserve" xmlns:serif="http://www.serif.com/" style="fill-rule:evenodd;clip-rule:evenodd;stroke-linejoin:round;stroke-miterlimit:2;"><g><circle cx="140.095" cy="138.516" r="131.5" style="fill:#fff;"/><path d="M139.5,0.034c76.992,-0 139.5,62.5 139.5,139.483c0,76.983 -62.508,139.483 -139.5,139.483c-76.992,0 -139.5,-62.5 -139.5,-139.483c-0,-76.983 62.508,-139.483 139.5,-139.483Zm-37.5,266.966c-4.295,-101.675 17.938,-186.705 78,-248l25,14c-70.498,77.005 -91.048,152.519 -77,227c-8.667,5.435 -17.333,7.768 -26,7Zm31,-12l-4,-36l20,18l-16,18Zm-36,-49c1.318,-17.926 3.047,-28.266 6,-41c-8.607,-43.687 -7.199,-110.045 8,-154l-29,3c-16.521,63.911 -7.094,143.655 15,192Zm14,-178l22,-1c-16.071,35.7 -25.951,71.914 -27,106c-5.264,-29.802 -2.658,-65.507 5,-105Zm28,1l20,5c-22.285,27.613 -37.023,61.694 -48,99c1.073,-38.6 9.967,-73.476 28,-104Z"/></g></svg>