<?xml version="1.0" encoding="UTF-8" standalone="no"?><!DOCTYPE svg PUBLIC "-//W3C//DTD SVG 1.1//EN" "http://www.w3.org/Graphics/SVG/1.1/DTD/svg11.dtd"><svg width="279" height="279" viewBox="0 0 279 279" version="1.1" xmlns="http://www.w3.org/2000/svg" xmlns:xlink="http://www.w3.org/1999/xlink" xml:space="preserve" xmlns:serif="http://www.serif.com/" style="fill-rule:evenodd;clip-rule:evenodd;stroke-linejoin:round;stroke-miterlimit:2;"><g><circle cx="140.095" cy="138.516" r="131.5" style="fill:#fff;"/><path d="M139.5,0c76.992,0 139.5,62.508 139.5,139.5c0,76.992 -62.508,139.5 -139.5,139.5c-76.992,0 -139.5,-62.508 -139.5,-139.5c0,-76.992 62.508,-139.5 139.5,-139.5Zm4.151,212.625c3.781,1.21 7.563,2.332 11.349,3.375c1.789,8.288 -3.594,22.475 -10.437,24.147c-8.915,-3.473 -17.679,-7.146 -26.296,-11.029c8.08,-6.187 16.557,-11.66 25.384,-16.493Zm-61.651,10.375c60.02,-48.295 121.558,-67.741 184,-70c-0.703,10.73 -3.452,18.731 -9,23c-61.516,6.076 -116.871,23.19 -159,64c-10.567,1.062 -16.74,-3.525 -16,-17Zm4.219,-9.665c-26.427,-14.191 -51.21,-30.581 -74.219,-49.335c-2.546,-14.645 -2.107,-27.585 1,-39c30.881,34.439 62.48,57.644 94.56,73.208c-7.137,4.668 -14.249,9.703 -21.341,15.127Zm2.781,-31.335c-30.525,-14.797 -53.012,-41.205 -69,-77c4.898,-13.667 16.181,-27.333 34,-41c1.666,41.201 11.182,73.374 29,96c-12.616,-39.352 -14.538,-75.495 -11,-110c16.767,-9.416 31.464,-13.66 45,-15c-18.025,45.006 -21.818,86.454 -14,125c2.457,-46.296 14.448,-88.78 37.095,-127c22.704,-2.883 41.276,-0.808 55.905,6c-42.022,38.354 -67.705,78.608 -75,121c28.062,-55.793 60.862,-90.742 97,-111c13.603,4.996 24.243,14.928 33,28c-54.032,20.935 -93.887,49.297 -114,88c33.44,-32.806 74.408,-56.577 124,-70c6.571,10.164 8.698,22.797 8,37c-43.893,4.239 -88.492,20.111 -134,51c-14.541,-7.467 -29.844,-8.07 -46,-1Z"/></g></svg>