<?xml version="1.0" encoding="UTF-8" standalone="no"?>
<!DOCTYPE svg PUBLIC "-//W3C//DTD SVG 1.1//EN" "http://www.w3.org/Graphics/SVG/1.1/DTD/svg11.dtd">
<svg width="279" height="279" version="1.1" xmlns="http://www.w3.org/2000/svg" xmlns:xlink="http://www.w3.org/1999/xlink" xml:space="preserve" xmlns:serif="http://www.serif.com/" style="fill-rule:evenodd;clip-rule:evenodd;stroke-linejoin:round;stroke-miterlimit:2;">
    <g transform="matrix(1,0,0,1,-24.4051,-23.9841)">
        <circle cx="164.5" cy="162.5" r="131.5" style="fill:white;"/>
        <path id="path38" d="M140.565,301.749C110.727,296.446 85.203,283.002 63.739,261.283C45.285,242.611 34.783,223.792 27.535,196.409C24.657,185.534 24.494,183.895 24.413,164.983C24.345,148.997 24.697,143.344 26.184,136.55C35.956,91.899 63.551,56.316 103.15,37.307C120.672,28.896 137.513,24.838 158.026,24.085C221.395,21.757 276.732,60.079 296.303,119.846C301.574,135.943 303.521,150.537 302.857,168.973C302.257,185.611 300.948,193.479 296.547,206.884C280.932,254.452 241.933,289.432 191.949,300.702C182.28,302.882 150.576,303.528 140.565,301.749ZM195.441,243.257C218.332,241.198 246.78,234.669 258.307,228.828C264.632,225.623 270.66,220.242 272.265,216.368C274.77,210.319 273.083,207.168 259.98,193.424C244.518,177.206 241.539,172.256 231.943,146.837C227.124,134.072 220.745,127.582 213.008,127.575C209.674,127.572 208.474,128.247 204.528,132.347C201.999,134.973 197.88,140.489 195.374,144.604C192.178,149.851 189.793,152.585 187.392,153.754L183.967,155.422L177.667,149.228C166.911,138.654 160.558,127.653 146.56,95.362C142.567,86.152 138.473,77.564 137.461,76.278C132.133,69.505 121.495,75.231 116.306,87.665C115.504,89.586 111.594,101.258 107.616,113.604C95.211,152.108 86.732,169.022 71.962,184.728C57.414,200.199 53.238,207.041 54.035,214.105C54.664,219.689 57.375,222.6 66.002,226.96C80.659,234.366 94.088,238.159 118.615,241.82C131.419,243.73 138.371,244.141 159.023,244.208C172.742,244.253 189.13,243.825 195.441,243.257Z" style="fill-rule:nonzero;"/>
    </g>
</svg>
