<?xml version="1.0" encoding="UTF-8" standalone="no"?>
<!DOCTYPE svg PUBLIC "-//W3C//DTD SVG 1.1//EN" "http://www.w3.org/Graphics/SVG/1.1/DTD/svg11.dtd">
<svg width="281" height="280" version="1.1" xmlns="http://www.w3.org/2000/svg" xmlns:xlink="http://www.w3.org/1999/xlink" xml:space="preserve" xmlns:serif="http://www.serif.com/" style="fill-rule:evenodd;clip-rule:evenodd;stroke-linejoin:round;stroke-miterlimit:2;">
    <g transform="matrix(1,0,0,1,-23.3866,-23.7509)">
        <g transform="matrix(1.45764,0,0,1.30573,7.52204,7.54161)">
            <ellipse cx="107" cy="119.5" rx="92" ry="102.5" style="fill:white;"/>
        </g>
        <path id="path20" d="M145.907,302.627C119.415,298.864 96.389,289.134 76.069,273.118C70.21,268.499 58.772,257.119 54.023,251.181C28.435,219.192 18.014,176.472 26.041,136.466C38.263,75.547 87.83,30.683 150.023,24.247C159.841,23.23 177.004,23.833 186.848,25.539C211.337,29.783 234.272,40.293 252.736,55.734C259.414,61.318 270.029,72.139 274.256,77.67C293.395,102.721 303.592,132.598 303.592,163.627C303.592,195.396 292.978,225.795 273.094,250.973C268.471,256.827 257.08,268.253 251.137,272.998C232.837,287.608 210.666,297.515 186.848,301.723C176.806,303.498 155.366,303.971 145.907,302.627ZM173.389,280.566C184.951,279.443 185.019,279.381 176.961,277.308C149.593,270.267 124.763,252.541 108.99,228.782C90.186,200.459 84.497,164.878 93.567,132.312C104.611,92.656 135.121,61.901 174.647,50.581C178.467,49.487 182.2,48.574 182.941,48.551C184.279,48.511 184.28,48.507 182.982,47.982C182.264,47.691 177.514,47.106 172.427,46.681C147.508,44.6 120.532,51.423 99.849,65.037C72.783,82.852 54.741,109.304 48.378,140.5C41.424,174.589 50.495,211.021 72.673,238.08C76.976,243.33 86.854,252.929 91.857,256.722C115.069,274.321 145.64,283.262 173.389,280.566L173.389,280.566Z" style="fill-rule:nonzero;"/>
    </g>
</svg>
