<?xml version="1.0" encoding="UTF-8" standalone="no"?>
<!DOCTYPE svg PUBLIC "-//W3C//DTD SVG 1.1//EN" "http://www.w3.org/Graphics/SVG/1.1/DTD/svg11.dtd">
<svg width="327" height="327" version="1.1" xmlns="http://www.w3.org/2000/svg" xmlns:xlink="http://www.w3.org/1999/xlink" xml:space="preserve" xmlns:serif="http://www.serif.com/" style="fill-rule:evenodd;clip-rule:evenodd;stroke-linejoin:round;stroke-miterlimit:2;">
    <circle cx="163" cy="164" r="158" style="fill:white;"/>
    <path id="path3771" d="M163.5,0C253.799,0 327,73.201 327,163.5C327,253.799 253.799,327 163.5,327C73.201,327 0,253.799 0,163.5C0,73.201 73.201,0 163.5,0ZM163.133,16.293C162.59,18.363 162.221,20.466 162.013,22.597C160.993,32.111 160.541,41.675 159.945,51.22C158.716,72.78 157.508,94.347 155.609,115.863C154.483,128.479 153.15,141.083 151.278,153.611C149.569,164.803 147.552,175.996 144.112,186.803C139.515,187.109 134.929,187.529 130.342,187.941C128.685,183.285 127.772,178.408 126.847,173.565C124.789,162.093 123.362,150.519 122.025,138.944C119.241,114.591 117.217,90.156 114.92,65.755C114.552,62.133 114.239,58.501 113.664,54.904C113.132,56.478 112.996,58.143 112.747,59.776C112.071,64.927 111.559,70.101 111.03,75.268C108.126,104.003 105.518,132.792 101.058,161.337C99.96,168.253 98.732,175.149 97.178,181.977C96.154,186.38 95.008,190.766 93.417,195.001C89.153,196.319 84.91,197.728 80.808,199.496C78.892,195.033 77.574,190.343 76.367,185.649C73.682,174.855 71.92,163.861 70.355,152.858C68.392,139.128 66.99,125.329 65.125,111.587C64.583,108.042 64.163,104.445 63.101,101.01L62.831,100.962C62.321,102.644 62.108,104.398 61.834,106.131C60.521,115.632 59.639,125.187 58.709,134.733C55.974,164.119 53.615,193.542 51.383,222.967C67.551,229.103 82.536,238.246 95.57,249.594C119.105,270.173 146.639,295.542 162.718,322.2C163.009,322.225 163.112,323.038 163.428,322.414C172.654,304.22 182.873,291.873 197.776,277.822C210.757,265.583 224.318,254.294 238.225,244.185C248.618,236.636 262.95,227.524 274.971,222.978C273.403,201.838 271.678,180.707 269.885,159.585C269.761,158.359 269.636,157.134 269.649,155.9L269.55,156.303C268.896,147.536 268.018,138.786 267.201,130.03C266.393,121.968 265.624,113.899 264.491,105.875C264.198,104.122 264.016,102.327 263.387,100.652C262.107,104.561 261.694,108.686 261.078,112.738C258.741,130.505 256.976,148.354 253.986,166.03C252.596,174.224 251.008,182.403 248.716,190.4C247.806,193.477 246.839,196.55 245.553,199.493C241.452,197.739 237.219,196.311 232.952,195.011C230.418,188.215 228.915,181.092 227.508,173.996C225.422,163.13 223.859,152.174 222.437,141.207C219.36,117.307 217.184,93.306 214.721,69.34C214.333,65.737 213.951,62.135 213.443,58.548C213.249,57.36 213.15,56.139 212.715,55.006C211.847,60.247 211.496,65.558 210.96,70.841C208.601,96.476 206.426,122.135 203.303,147.692C202.493,154.235 201.618,160.774 200.581,167.284C199.413,174.249 198.297,181.272 196.025,187.978C191.438,187.476 186.839,187.139 182.243,186.796C178.765,175.833 176.729,164.477 175.009,153.124C171.491,129.068 169.707,104.801 168.137,80.556C167.209,65.725 166.445,50.884 165.488,36.056C165.065,30.49 164.747,24.907 163.919,19.382C163.74,18.336 163.635,17.246 163.133,16.293L163.133,16.293Z" style="fill-rule:nonzero;"/>
</svg>
