<?xml version="1.0" encoding="UTF-8" standalone="no"?>
<!DOCTYPE svg PUBLIC "-//W3C//DTD SVG 1.1//EN" "http://www.w3.org/Graphics/SVG/1.1/DTD/svg11.dtd">
<svg width="327" height="327" version="1.1" xmlns="http://www.w3.org/2000/svg" xmlns:xlink="http://www.w3.org/1999/xlink" xml:space="preserve" xmlns:serif="http://www.serif.com/" style="fill-rule:evenodd;clip-rule:evenodd;stroke-linejoin:round;stroke-miterlimit:2;">
    <circle cx="163" cy="163" r="159" style="fill:white;"/>
    <path id="path3761" d="M163.499,0C253.799,0 327,73.201 327,163.5C327,253.799 253.799,327 163.5,327C73.201,327 0,253.799 0,163.5C0,73.201 73.201,0 163.5,0L163.499,0ZM165.704,142.204C116.293,144.573 81.162,155.175 37.967,180.611C57.65,195.998 78.882,213.916 97.511,230.534C120.845,251.35 133.627,267.893 147.107,284.49C152.692,291.368 156.938,298.207 164.001,305.439C197.148,256.136 241.141,215.296 289.033,180.483C260.567,163.685 229.28,151.312 196.838,145.028C179.608,142.457 189.955,143.695 165.704,142.204ZM157.284,80.03C151.207,80.941 145.028,81.332 139.052,82.763C105.593,90.78 77.673,114.557 66.497,147.273C98.874,136.309 131.957,124.641 166.769,126.371C199.275,125.795 229.985,137.271 260.374,147.273C249.283,113.806 219.342,88.545 184.849,82.198C169.664,79.545 178.808,80.699 157.284,80.03Z" style="fill-rule:nonzero;"/>
</svg>
