<?xml version="1.0" encoding="UTF-8" standalone="no"?>
<!DOCTYPE svg PUBLIC "-//W3C//DTD SVG 1.1//EN" "http://www.w3.org/Graphics/SVG/1.1/DTD/svg11.dtd">
<svg width="281" height="280" version="1.1" xmlns="http://www.w3.org/2000/svg" xmlns:xlink="http://www.w3.org/1999/xlink" xml:space="preserve" xmlns:serif="http://www.serif.com/" style="fill-rule:evenodd;clip-rule:evenodd;stroke-linejoin:round;stroke-miterlimit:2;">
    <g transform="matrix(1,0,0,1,-23.3866,-23.7509)">
        <g transform="matrix(1.16053,0,0,1.26449,6.81818,4.25062)">
            <ellipse cx="135" cy="126" rx="119" ry="109" style="fill:white;"/>
        </g>
        <path id="path20" d="M145.907,302.627C119.415,298.864 96.389,289.134 76.069,273.118C70.21,268.499 58.772,257.119 54.023,251.181C28.435,219.192 18.014,176.472 26.041,136.466C38.263,75.547 87.83,30.683 150.023,24.247C159.841,23.23 177.004,23.833 186.848,25.539C211.337,29.783 234.272,40.293 252.736,55.734C259.414,61.318 270.029,72.139 274.256,77.67C293.395,102.721 303.592,132.598 303.592,163.627C303.592,195.396 292.978,225.795 273.094,250.973C268.471,256.827 257.08,268.253 251.137,272.998C232.837,287.608 210.666,297.515 186.848,301.723C176.806,303.498 155.366,303.971 145.907,302.627ZM199.542,272.731C204.142,260.692 213.995,252.243 226.527,249.591C228.98,249.072 232.282,248.647 233.865,248.647C240.414,248.647 249.985,251.734 254.789,255.394L256.896,256.999L254.958,254.131C251.14,248.479 248.6,240.409 248.6,233.926C248.6,229.21 250.329,222.414 252.826,217.31C255.548,211.746 262.288,204.628 267.458,201.858C272.331,199.247 279.475,197.5 285.348,197.484L290.478,197.47L287.92,196.295C281.525,193.36 274.951,186.861 271.534,180.097C266.506,170.147 266.456,157.258 271.406,147.376C274.955,140.292 281.31,133.942 287.794,131.001L290.478,129.784L285.335,129.769C267.9,129.722 253.12,117.709 249.541,100.677C249.024,98.217 248.6,94.909 248.6,93.328C248.6,86.804 251.689,77.224 255.33,72.455L256.912,70.382L253.545,72.6C232.924,86.183 204.702,75.045 198.39,50.832C197.847,48.749 197.396,44.733 197.388,41.907L197.374,36.769L196.126,39.518C192.188,48.186 182.647,55.902 172.651,58.503C167.908,59.737 159.031,59.722 154.225,58.471C145.338,56.159 136.765,49.619 131.994,41.513L129.595,37.437L129.595,42.241C129.595,59.376 117.66,73.874 100.397,77.711C91.633,79.659 81.752,77.871 74.148,72.961L70.289,70.469L72.386,73.581C81.883,87.681 79.73,106.997 67.3,119.212C60.105,126.283 51.673,129.756 41.696,129.756L36.588,129.756L40.034,131.471C48.056,135.465 55.883,145.315 58.25,154.394C59.504,159.201 59.504,168.053 58.25,172.86C55.907,181.848 49.463,190.287 41.267,195.102L37.188,197.498L41.996,197.498C51.798,197.498 60.135,200.959 67.236,207.976C79.778,220.369 81.913,239.529 72.336,253.746L70.191,256.931L72.253,255.36C77.013,251.733 86.61,248.647 93.132,248.647C94.715,248.647 98.026,249.07 100.489,249.586C117.418,253.137 129.595,267.959 129.595,285.013L129.595,289.817L131.994,285.706C138.528,274.509 150.334,267.798 163.499,267.798C173.961,267.798 182.461,271.428 189.616,278.953C192.031,281.493 194.699,284.989 195.545,286.72L197.083,289.869L197.485,283.467C197.773,278.873 198.355,275.84 199.542,272.731L199.542,272.731ZM154.223,253.079C143.182,251.839 133.03,248.769 122.558,243.504C105.971,235.165 91.534,220.576 83.04,203.57C68.233,173.927 71.105,138.365 90.498,111.199C95.479,104.221 104.111,95.646 111.402,90.432C134.479,73.93 165.323,69.397 192.324,78.539C205.789,83.098 216.292,89.722 226.844,100.31C237.845,111.348 244.099,121.357 248.836,135.507C252.081,145.201 253.264,152.715 253.264,163.627C253.264,174.479 252.081,182.054 248.904,191.542C244.333,205.19 237.981,215.626 227.905,226.041C211.506,242.993 190.343,252.357 166.145,253.369C162.403,253.526 157.038,253.395 154.223,253.079ZM174.373,245.137C194.867,242.371 213.721,232.026 226.436,216.573C234.686,206.546 240.24,195.885 243.118,184.551C250.352,156.06 242.692,127.027 222.446,106.206C211.052,94.488 197.147,86.833 180.437,83.08C171.407,81.052 156.38,81.019 147.037,83.007C130.713,86.481 116.97,93.902 105.338,105.522C84.546,126.295 76.476,155.953 83.875,184.397C88.076,200.545 98.429,216.933 110.618,226.729C129.423,241.842 151.519,248.222 174.373,245.137L174.373,245.137Z" style="fill-rule:nonzero;"/>
    </g>
</svg>
