<?xml version="1.0" encoding="UTF-8" standalone="no"?><!DOCTYPE svg PUBLIC "-//W3C//DTD SVG 1.1//EN" "http://www.w3.org/Graphics/SVG/1.1/DTD/svg11.dtd"><svg width="1500" height="2100" viewBox="0 0 12500 17500" version="1.1" xmlns="http://www.w3.org/2000/svg" xmlns:xlink="http://www.w3.org/1999/xlink" xml:space="preserve" xmlns:serif="http://www.serif.com/" style="fill-rule:evenodd;clip-rule:evenodd;stroke-linejoin:round;stroke-miterlimit:2;"><path id="FRONT" d="M833.333,4265.86l0,-2449.36c-141.891,-109.75 -233.333,-281.692 -233.333,-474.817c0,-331.15 268.85,-600 600,-600l10416.7,0c116.7,91.534 229.325,324.567 233.333,600c-3.433,235.659 -86.367,440.284 -183.333,551.784l-0,12846.4c96.966,111.5 179.9,316.125 183.333,551.775c-4.008,275.434 -116.633,508.467 -233.333,600l-10733.3,0c-116.7,-91.533 -229.325,-324.566 -233.333,-600c3.433,-235.633 86.35,-440.233 183.333,-551.775l0,-147.725l-433.833,-433.833l433.833,-433.833l0,-291.709l91.65,167.834l0,122.725l1.134,-0l-0,37.966l-396.992,397l396.992,397l-0,37.967l-1.134,0l0,98.367l10650,-0l0,-12750l-10650,-0l0,2524.89c-31.148,-62.434 -61.911,-129.355 -91.65,-200.702Zm10735.3,10517.5c10.016,0.608 19.275,5.708 25.141,13.941c117.284,164.775 158.559,329.559 158.559,494.334c-0,164.775 -41.275,329.558 -158.559,494.333c-6.258,8.783 -16.375,14 -27.158,14l-10633.3,0c-10.784,0 -20.9,-5.217 -27.159,-14c-117.283,-164.775 -158.558,-329.558 -158.558,-494.333c0,-164.775 41.275,-329.559 158.558,-494.334c6.259,-8.783 16.375,-14 27.159,-14l10633.3,0l2.017,0.059Zm-10050,-13950.1c168.933,106.2 281.3,294.242 281.3,508.334c0,214.091 -112.367,402.133 -281.3,508.333l10048,0c10.783,0 20.9,-5.217 27.158,-14c117.284,-164.775 158.559,-329.558 158.559,-494.333c-0,-164.775 -41.275,-329.559 -158.559,-494.334c-6.258,-8.783 -16.375,-14 -27.158,-14l-10048,0Z" style="fill:#ef3827;"/></svg>