<?xml version="1.0" encoding="UTF-8" standalone="no"?>
<!DOCTYPE svg PUBLIC "-//W3C//DTD SVG 1.1//EN" "http://www.w3.org/Graphics/SVG/1.1/DTD/svg11.dtd">
<svg width="1500" height="2100" viewBox="0 0 1500 2100" version="1.1" xmlns="http://www.w3.org/2000/svg" xmlns:xlink="http://www.w3.org/1999/xlink" xml:space="preserve" xmlns:serif="http://www.serif.com/" style="fill-rule:evenodd;clip-rule:evenodd;stroke-linejoin:round;stroke-miterlimit:2;">
    <rect id="Card" x="0" y="0" width="1500" height="2100" style="fill:none;"/>
    <g id="Card1" serif:id="Card">
        <path id="type--short-" serif:id="type (short)" d="M94.8,1870.37C92.434,1862.57 91.091,1853.53 91,1843L91,1330C90.53,1316.05 86.247,1308.65 80.124,1300.23C74.407,1294.27 71.038,1286.37 71,1278.79C71,1278.77 71,1278.74 71,1278.71C71,1278.71 71,1236.98 71.001,1237.12C70.798,1214.08 81.035,1192.81 95.347,1179.36C106.044,1169.31 118.996,1163.6 131.762,1163.41C131.841,1163.41 131.921,1163.41 132,1163.41C132,1163.41 1368,1163.41 1368.24,1163.41C1381,1163.6 1393.96,1169.31 1404.65,1179.36C1418.96,1192.81 1429.2,1214.08 1429,1236.98C1429,1236.98 1429,1278.71 1429,1278.79C1428.96,1286.37 1425.59,1294.26 1419.88,1300.22C1413.75,1308.65 1409.47,1316.05 1409,1330L1409,1843C1408.51,1899.1 1372.48,1913.09 1335.05,1922.87C1278.98,1937.53 1240.46,1946.63 1113,1957C1100.15,1944.05 1077.13,1937.61 1045,1937L661.852,1937C665.116,1932.95 668.66,1929.28 672.476,1926L1221,1926C1300.97,1919.81 1363.02,1915.93 1388.6,1879L1388.6,1333C1386.81,1320.47 1379.41,1312.83 1366,1310.41L198,1310.41L197.687,1310.46C184.478,1312.95 177.173,1320.57 175.406,1333L175.406,1870L95,1870L94.8,1870.37ZM103,1294.41C94.852,1294.4 87.038,1286.4 87,1278.71L87,1236.98C86.731,1206.44 109.361,1179.74 132,1179.41L1368,1179.41C1390.64,1179.74 1413.27,1206.44 1413,1236.98L1413,1278.71C1412.96,1286.4 1405.15,1294.4 1397,1294.41L103,1294.41ZM140,208C139.376,208 138.753,208.005 138.133,207.96C115.877,206.349 95.922,195.181 80.139,182.025C67.339,171.355 57.345,159.495 51.107,151.248C46.957,145.784 43.292,140.259 39.9,134.7L43.876,128.061L43.874,128.057C45.22,125.863 59.352,103.844 81.552,85.797C97.113,73.147 116.546,62.603 138.133,61.04C138.753,60.995 139.376,61 140,61L140,61C245.925,61 1368.01,61 1368.24,61.002C1381,61.192 1393.96,66.906 1404.65,76.956C1418.96,90.404 1429.2,111.674 1429,134.571C1429,134.571 1429,176.307 1429,176.386C1428.96,184.204 1425.38,192.36 1419.33,198.38C1413.35,204.325 1405.19,207.996 1397.01,208C1397.01,208 1397,208 1397,208L140,208L140,208ZM140.182,196L140,196C139.666,196 139.332,196.016 139,195.992C89.794,192.428 54,134.5 54,134.5L54.101,134.334C56.185,130.938 91.329,76.461 139,73.008C139.332,72.984 139.666,73 140,73C147.629,73 154.932,74.415 161.67,77L161.67,77C161.725,77.021 161.78,77.042 161.833,77.063L161.939,77.104L162,77.128L162,77.128C184.807,86.032 201,108.375 201,134.5L200.999,134.897C200.836,160.852 184.691,183.013 162,191.872L162,191.872C155.224,194.518 147.869,195.977 140.182,196ZM185.452,77C202.233,90.468 213,111.22 213,134.5L212.999,134.973C212.853,158.063 202.116,178.628 185.451,192L1397,192C1405.15,191.996 1412.96,183.999 1413,176.307L1413,134.571C1413.27,104.037 1390.64,77.337 1368,77L185.452,77Z" style="fill:rgb(246,210,98);"/>
    </g>
</svg>
