<?xml version="1.0" encoding="UTF-8" standalone="no"?>
<!DOCTYPE svg PUBLIC "-//W3C//DTD SVG 1.1//EN" "http://www.w3.org/Graphics/SVG/1.1/DTD/svg11.dtd">
<svg width="1500" height="2100" viewBox="0 0 1500 2100" version="1.1" xmlns="http://www.w3.org/2000/svg" xmlns:xlink="http://www.w3.org/1999/xlink" xml:space="preserve" xmlns:serif="http://www.serif.com/" style="fill-rule:evenodd;clip-rule:evenodd;stroke-linejoin:round;stroke-miterlimit:2;">
    <rect id="Card" x="0" y="0" width="1500" height="2100" style="fill:none;"/>
    <g id="Card1" serif:id="Card">
        <path d="M179.406,1866L179.406,1333.29C180.98,1322.86 187.236,1316.52 198.369,1314.41L1365.63,1314.41C1376.76,1316.52 1383.02,1322.86 1384.59,1333.29L1384.6,1861.12L1346,1847C1339.44,1860.56 1328.08,1868.16 1314.33,1868.98L1314,1869C1300.1,1868.28 1288.61,1860.66 1282,1847L1200,1877C1210.65,1891.31 1217.66,1906.17 1220.23,1922L684.661,1922C689.256,1919.13 694.176,1916.72 699.411,1914.74C700.969,1914.15 702,1912.66 702,1911C702,1909.34 700.969,1907.85 699.411,1907.26C680.545,1900.14 665.77,1887.31 655.529,1868.12C654.834,1866.81 653.477,1866 652,1866L179.406,1866Z"/>
    </g>
</svg>
