<?xml version="1.0" encoding="UTF-8" standalone="no"?><!DOCTYPE svg PUBLIC "-//W3C//DTD SVG 1.1//EN" "http://www.w3.org/Graphics/SVG/1.1/DTD/svg11.dtd"><svg width="1500" height="2100" viewBox="0 0 1500 2100" version="1.1" xmlns="http://www.w3.org/2000/svg" xmlns:xlink="http://www.w3.org/1999/xlink" xml:space="preserve" xmlns:serif="http://www.serif.com/" style="fill-rule:evenodd;clip-rule:evenodd;stroke-linejoin:round;stroke-miterlimit:2;"><path id="Pinlines--Regular-" serif:id="Pinlines (Regular)" d="M1421,1149c0,-1.105 -0.895,-2 -2,-2l-1328,0c-1.105,0 -2,0.895 -2,2l0,857c0,1.105 0.895,2 2,2l1328,0c1.105,0 2,-0.895 2,-2l0,-857Zm-8,6l0,845c0,-0 -1316,0 -1316,0c0,0 0,-845 0,-845l1316,0Zm8,-1061c0,-1.105 -0.895,-2 -2,-2l-1328,0c-1.105,0 -2,0.895 -2,2l0,103c0,1.105 0.895,2 2,2l1328,0c1.105,0 2,-0.895 2,-2l0,-103Zm-8,6l0,91c0,0 -1316,0 -1316,0c0,0 0,-91 0,-91l1316,0Z" style="fill:#0075be;"/></svg>