<?xml version="1.0" encoding="UTF-8" standalone="no"?><!DOCTYPE svg PUBLIC "-//W3C//DTD SVG 1.1//EN" "http://www.w3.org/Graphics/SVG/1.1/DTD/svg11.dtd"><svg width="1500" height="2100" viewBox="0 0 1500 2100" version="1.1" xmlns="http://www.w3.org/2000/svg" xmlns:xlink="http://www.w3.org/1999/xlink" xml:space="preserve" xmlns:serif="http://www.serif.com/" style="fill-rule:evenodd;clip-rule:evenodd;stroke-linejoin:round;stroke-miterlimit:2;"><path id="Cover" d="M539.022,58l-212.231,0c60.791,16.826 142.895,16.2 212.231,0Zm634.187,0l-212.231,0c69.338,16.2 151.447,16.826 212.231,0Zm-1106.53,0c-2.851,3.838 -5.405,7.517 -7.684,11.052l-0,-11.052l7.684,0Zm1374.32,11.052c-2.277,-3.533 -4.833,-7.214 -7.684,-11.052l7.684,0l0,11.052Zm-819.04,-11.052c-6.902,3.097 -13.286,6.432 -18.96,10l-6,-10l24.96,0Zm281.04,0l-6,10c-5.674,-3.568 -12.058,-6.903 -18.96,-10l24.96,0Zm-649.093,0c-1.929,2.439 -3.843,5.063 -5.907,8c-51.43,2.717 -86.548,1.932 -119.544,-8l125.451,0Zm1117.64,0c-32.996,9.932 -68.114,10.717 -119.544,8c-2.064,-2.937 -3.978,-5.561 -5.907,-8l125.451,0Z"/></svg>