<?xml version="1.0" encoding="UTF-8" standalone="no"?>
<!DOCTYPE svg PUBLIC "-//W3C//DTD SVG 1.1//EN" "http://www.w3.org/Graphics/SVG/1.1/DTD/svg11.dtd">
<svg width="135" height="135" viewBox="0 0 135 135" version="1.1" xmlns="http://www.w3.org/2000/svg" xmlns:xlink="http://www.w3.org/1999/xlink" xml:space="preserve" xmlns:serif="http://www.serif.com/" style="fill-rule:evenodd;clip-rule:evenodd;stroke-linejoin:round;stroke-miterlimit:2;">
    <g transform="matrix(1,0,0,1,-745,-629)">
        <g transform="matrix(1,0,0,1,1177,-1730.64)">
            <g transform="matrix(0.874126,0,0,0.874126,-1525.78,2258.87)">
                <circle cx="1328.5" cy="192.5" r="71.5" style="fill:rgb(154,189,73);"/>
                <clipPath id="_clip1">
                    <circle cx="1328.5" cy="192.5" r="71.5"/>
                </clipPath>
                <g clip-path="url(#_clip1)">
                    <g transform="matrix(1.144,0,0,1.144,399,-604.296)">
                        <path d="M829,703C832.972,713.758 813.138,720.292 813,704C812.821,682.855 847.121,688.605 846.631,712.268C846.324,727.135 834.92,740.16 814.5,740.25C771.393,740.438 763.532,700.052 774,677C776.154,704.292 790.037,725.711 814.5,726.216C830.424,726.544 842.057,709.848 829,703ZM796,690C792.028,679.242 811.862,672.708 812,689C812.179,710.145 777.879,704.395 778.369,680.732C778.676,665.865 790.08,652.84 810.5,652.75C853.607,652.562 861.468,692.948 851,716C848.846,688.708 834.963,667.289 810.5,666.784C794.576,666.456 782.943,683.152 796,690Z"/>
                    </g>
                </g>
                <path d="M1328.5,115.28C1285.88,115.28 1251.28,149.881 1251.28,192.5C1251.28,235.119 1285.88,269.72 1328.5,269.72C1371.12,269.72 1405.72,235.119 1405.72,192.5C1405.72,149.881 1371.12,115.28 1328.5,115.28ZM1328.5,121C1367.96,121 1400,153.038 1400,192.5C1400,231.962 1367.96,264 1328.5,264C1289.04,264 1257,231.962 1257,192.5C1257,153.038 1289.04,121 1328.5,121Z"/>
            </g>
        </g>
    </g>
</svg>
