<?xml version="1.0" encoding="UTF-8" standalone="no"?><!DOCTYPE svg PUBLIC "-//W3C//DTD SVG 1.1//EN" "http://www.w3.org/Graphics/SVG/1.1/DTD/svg11.dtd"><svg width="1500" height="2100" viewBox="0 0 1500 2100" version="1.1" xmlns="http://www.w3.org/2000/svg" xmlns:xlink="http://www.w3.org/1999/xlink" xml:space="preserve" xmlns:serif="http://www.serif.com/" style="fill-rule:evenodd;clip-rule:evenodd;stroke-linejoin:round;stroke-miterlimit:2;"><path id="Border" d="M0,2100l0,-2100l1500,0l0,2100l-1500,0Zm1175,-170c86.302,-1.253 254.217,-31.646 265,-185l0,-1660c-2.855,-13.962 -11.263,-22.219 -25,-25l-1330,0c-13.737,2.781 -22.145,11.038 -25,25l0,1660c10.783,153.354 178.698,183.747 265,185l850,0Z"/><path id="bottom" d="M155,506l315,-0l-0,290c-0,-0 -45.195,38 -153,38c-107.805,-0 -162,-44 -162,-44l-0,-284Z" style="fill:%23000004;"/><path id="top" d="M155,473l315,-0l-0,-290c-0,-0 -45.195,-38 -153,-38c-107.805,-0 -162,44 -162,44l-0,284Z" style="fill:%23000004;"/><path id="outline" d="M123,166c-0,-0 72.386,-56 191,-56c118.614,-0 196,56 196,56l-0,644c-0,-0 -66,57 -193,57c-127,-0 -194,-57 -194,-57l-0,-644Zm12,6.214c17.341,-11.627 82.181,-50.214 179,-50.214c97.089,-0 165.567,38.752 184,50.43c-0,0 -0,631.695 -0,631.695c-15.909,11.626 -77.297,50.875 -181,50.875c-103.75,-0 -165.864,-39.277 -182,-50.923c-0,-0 -0,-631.862 -0,-631.862l0,-0.001Z" style="fill:%23000004;"/><g id="icon"><path id="symbol" d="M434.033,662.84c0,16.49 -5.978,27.749 -17.985,33.727c-3.487,1.744 -14.497,4.135 -32.98,7.125c-12.006,1.992 -17.984,6.625 -17.984,13.849l-0,30.34c-0,1.245 0.398,5.131 1.146,11.608l1.145,12.006c0,3.736 -0.896,9.864 -2.64,18.383c-4.733,0.997 -10.263,2.142 -16.49,3.388c-1.993,-7.523 -2.989,-12.604 -2.989,-15.394c-0,-1.246 0.299,-3.139 0.946,-5.63c0.598,-2.491 0.947,-4.384 0.947,-5.629c-0,-1.744 -1.544,-6.626 -4.683,-14.597l-5.829,-0c-0.747,1.245 -1.046,2.889 -0.797,4.882c0.996,4.235 1.395,7.871 1.146,10.861c-4.235,2.989 -10.113,7.024 -17.636,12.006c-1.744,-0.498 -2.391,-0.747 -1.893,-0.747l-0,-26.604c-0.498,-1.245 -1.744,-1.743 -3.736,-1.494l-4.484,-0l-4.484,35.222c-3.487,0.249 -7.772,0.249 -12.754,-0c-1.743,-8.22 -4.882,-20.476 -9.365,-36.717l-2.99,0c-2.74,8.768 -4.234,13.501 -4.483,14.248c-0,0.997 0.299,2.94 0.946,5.829c0.598,2.89 0.947,4.833 0.947,5.829c-0,0.747 -0.249,2.64 -0.747,5.63l-1.146,9.017c-0.498,0.498 -1.146,0.747 -1.893,0.747c-7.473,0 -12.505,-1.893 -14.996,-5.629c-2.491,-3.737 -3.487,-9.018 -2.989,-15.743l2.989,-44.987c0,-0.747 0.249,-1.743 0.747,-2.989c0.499,-1.245 0.748,-2.142 0.748,-2.64c-0,-1.993 -2.143,-5.978 -6.377,-12.007c-0.747,-0.249 -4.633,-1.145 -11.608,-2.64c-4.235,-0.996 -12.604,-2.74 -25.109,-5.231c-17.237,-3.238 -25.856,-17.088 -25.856,-41.599c0,-36.467 14.996,-66.857 44.987,-91.069c1.245,6.726 3.387,15.743 6.377,27.002c2.241,0.498 7.124,1.644 14.597,3.388c1.494,0.498 9.116,3.238 22.866,8.27c-7.024,-4.235 -16.141,-11.11 -27.35,-20.625c-4.235,-4.982 -6.377,-13.352 -6.377,-25.109c0,-2.74 4.733,-5.978 14.248,-9.764c8.469,-3.488 14.896,-5.48 19.131,-5.979c13.501,-1.743 23.863,-2.64 31.136,-2.64c31.237,0 56.495,8.021 75.725,24.013c-6.227,7.273 -16.988,14.995 -32.233,23.215c6.028,0.249 14.747,-2.092 26.255,-7.124c11.508,-4.982 16.39,-7.473 14.597,-7.473c1.993,0 6.028,3.986 12.006,12.007c4.484,5.978 8.121,11.358 10.861,16.141c7.971,14.248 13.351,29.642 16.141,46.132c0,5.779 0.1,9.864 0.399,12.355l-0,2.99l-0.15,-0.15Zm-143.578,6.726c0,-10.761 -4.683,-20.924 -14.049,-30.539c-9.366,-9.615 -19.429,-14.448 -30.19,-14.448c-9.515,0 -17.885,4.035 -25.109,12.056c-7.273,8.071 -10.86,16.989 -10.86,26.803c-0,8.569 4.135,14.099 12.355,16.59c5.231,1.494 12.604,2.391 22.119,2.64l20.625,-0c16.74,0.249 25.109,-4.135 25.109,-13.102m40.852,46.481l-0,-11.608c-1.744,-3.238 -3.488,-6.626 -5.231,-10.113c-1.495,-4.982 -4.235,-12.007 -8.27,-20.974l-4.135,43.84c-0,3.488 -0.748,5.231 -2.242,5.231c-0.997,0 -1.744,-0.249 -2.242,-0.747c-1.744,-26.503 -2.64,-37.962 -2.64,-34.475l-0,-13.102c-0.499,-0.747 -1.096,-1.146 -1.844,-1.146c-8.519,8.768 -12.753,22.867 -12.753,42.346c-0,10.761 0.996,17.387 2.989,19.878c1.993,-0.498 4.234,-1.395 6.725,-2.64c0.997,-0.499 3.886,-0.748 8.619,-0.748c4.733,0 10.512,1.495 17.237,4.484c2.491,0 3.737,-6.725 3.737,-20.226m84.742,-52.211c-0,-10.063 -3.737,-19.03 -11.259,-26.952c-7.523,-7.921 -16.142,-11.856 -25.856,-11.856c-10.512,-0 -20.326,4.782 -29.443,14.447c-9.117,9.615 -13.701,19.678 -13.701,30.19c0,8.768 4.235,13.103 12.754,13.103l43.093,-0c16.241,-0.249 24.362,-6.527 24.362,-18.882" style="fill:%23fff;fill-rule:nonzero;"/></g></svg>