<?xml version="1.0" encoding="UTF-8" standalone="no"?><!DOCTYPE svg PUBLIC "-//W3C//DTD SVG 1.1//EN" "http://www.w3.org/Graphics/SVG/1.1/DTD/svg11.dtd"><svg width="1500" height="2100" viewBox="0 0 1500 2100" version="1.1" xmlns="http://www.w3.org/2000/svg" xmlns:xlink="http://www.w3.org/1999/xlink" xml:space="preserve" xmlns:serif="http://www.serif.com/" style="fill-rule:evenodd;clip-rule:evenodd;stroke-linejoin:round;stroke-miterlimit:2;"><path id="Border" d="M0,2100l0,-2100l1500,0l0,2100l-1500,0Zm1175,-170c86.302,-1.253 254.217,-31.646 265,-185l0,-1660c-2.855,-13.962 -11.263,-22.219 -25,-25l-1330,0c-13.737,2.781 -22.145,11.038 -25,25l0,1660c10.783,153.354 178.698,183.747 265,185l850,0Z"/><path id="bottom" d="M155,506l315,-0l-0,290c-0,-0 -45.195,38 -153,38c-107.805,-0 -162,-44 -162,-44l-0,-284Z" style="fill:%23007b46;"/><path id="top" d="M155,473l315,-0l-0,-290c-0,-0 -45.195,-38 -153,-38c-107.805,-0 -162,44 -162,44l-0,284Z" style="fill:%23007b46;"/><path id="outline" d="M123,166c-0,-0 72.386,-56 191,-56c118.614,-0 196,56 196,56l-0,644c-0,-0 -66,57 -193,57c-127,-0 -194,-57 -194,-57l-0,-644Zm12,6.214c17.341,-11.627 82.181,-50.214 179,-50.214c97.089,-0 165.567,38.752 184,50.43c-0,0 -0,631.695 -0,631.695c-15.909,11.626 -77.297,50.875 -181,50.875c-103.75,-0 -165.864,-39.277 -182,-50.923c-0,-0 -0,-631.862 -0,-631.862l0,-0.001Z" style="fill:%23007b46;"/><g id="icon"><path id="symbol" d="M442.843,683.216c0,4.982 -1.943,9.466 -5.779,13.451c-3.836,3.986 -8.27,5.978 -13.252,5.978c-7.971,0 -13.799,-3.736 -17.536,-11.209l-17.536,-0.747c-3.736,-0 -11.11,1.644 -22.02,4.882c-11.707,3.238 -18.433,5.829 -20.177,7.822c-2.74,2.989 -4.981,9.963 -6.725,20.924c-1.495,8.967 -2.242,15.543 -2.242,19.778c0,6.725 1.046,11.657 3.188,14.746c2.143,3.089 6.477,5.729 13.053,7.822c6.576,2.092 10.661,3.288 12.156,3.537c0.996,-0 2.59,-0.1 4.882,-0.349l4.484,0c3.238,0 6.576,0.498 10.063,1.495c4.982,1.494 7.124,3.487 6.377,5.978c-3.487,-0.498 -9.565,0.249 -18.284,2.242l10.462,5.231c0,2.989 -4.234,4.483 -12.703,4.483c-2.242,0 -5.281,-0.498 -9.167,-1.494c-3.836,-0.997 -6.427,-1.495 -7.672,-1.495l-4.833,0c-0.249,2.491 -0.996,6.228 -2.241,11.209c-4.235,-0.249 -9.217,-2.74 -14.946,-7.472c-5.729,-4.733 -9.316,-7.075 -10.811,-7.075c-1.494,0 -3.637,2.392 -6.327,7.075c-2.74,4.732 -4.085,7.971 -4.085,9.714c-3.238,-1.743 -5.978,-4.982 -8.22,-9.714c-0.996,-3.239 -2.092,-6.477 -3.338,-9.715c-2.491,0.249 -7.074,5.48 -13.8,15.693l-1.893,-0c-0.498,-0.747 -2.391,-5.978 -5.58,-15.693c-7.722,-2.491 -14.945,-3.736 -21.671,-3.736c-3.238,-0 -8.22,0.747 -14.945,2.241l-10.462,-0.747c1.494,-1.494 5.828,-4.334 13.052,-8.569c8.469,-4.982 14.946,-7.473 19.429,-7.473c0.748,0 1.744,0.15 2.99,0.399c1.245,0.249 2.241,0.399 2.989,0.399c1.743,-0 4.533,-0.947 8.419,-2.79c3.836,-1.844 6.078,-3.537 6.726,-5.032c0.647,-1.495 0.946,-5.38 0.946,-11.558c0,-14.198 -3.736,-24.76 -11.209,-31.735c-6.476,-6.227 -17.188,-10.711 -32.133,-13.451c-3.986,14.199 -15.195,21.273 -33.578,21.273c-5.978,-0 -11.957,-3.587 -17.935,-10.811c-6.128,-7.373 -9.117,-13.949 -9.117,-19.927c0,-9.217 3.836,-16.789 11.558,-22.768c-6.227,-6.476 -9.316,-13.052 -9.316,-19.778c0,-6.227 1.943,-11.707 5.779,-16.44c3.836,-4.733 8.918,-7.473 15.145,-8.22c-0.498,-7.971 2.092,-13.451 7.822,-16.44c-2.74,-2.74 -4.086,-7.573 -4.086,-14.547c0,-8.22 2.74,-15.046 8.221,-20.526c5.48,-5.48 12.305,-8.22 20.525,-8.22c8.967,0 16.291,3.139 22.02,9.366c7.224,-24.66 22.767,-36.965 46.68,-36.965c12.455,-0 23.415,4.981 32.881,14.945c3.487,3.737 5.231,5.729 5.231,5.978c-2.99,0 -1.495,-0.548 4.483,-1.693c5.979,-1.096 10.313,-1.694 13.053,-1.694c9.714,-0 18.283,3.587 25.756,10.81c6.477,6.477 10.96,14.697 13.451,24.661c1.744,0.249 4.484,0.996 8.22,2.242c5.48,2.74 8.22,7.473 8.22,14.198c0,1.246 -0.996,3.637 -2.989,7.074c15.942,8.968 23.913,21.422 23.913,37.364c0,4.484 -1.743,10.712 -5.231,18.683c6.477,3.736 9.715,9.216 9.715,16.44m-153.841,16.44l0,-4.832c0,-5.73 -2.789,-10.961 -8.419,-15.693c-5.58,-4.733 -11.259,-7.075 -16.988,-7.075c-6.975,0 -13.451,1.595 -19.43,4.833c13.202,-0.747 28.148,6.875 44.788,22.767m-6.726,-46.282c-3.736,-4.234 -6.975,-8.569 -9.715,-13.052c-10.462,2.74 -15.693,5.829 -15.693,9.316c2.99,-0.249 7.324,0.299 13.053,1.694c5.729,1.395 9.814,2.042 12.355,2.042m22.767,-11.558l0,-16.44c-5.978,-0.996 -9.615,-1.494 -10.81,-1.494l-0,5.579l10.81,12.305m48.524,-10.461c-2.989,-1.246 -8.569,-3.737 -16.789,-7.473l-0,32.133c11.707,-6.726 17.287,-14.946 16.789,-24.66m20.525,44.089l-8.22,-10.063c-4.982,3.487 -10.013,7.024 -15.145,10.661c-5.131,3.587 -9.515,7.672 -13.252,12.156c11.21,-5.978 23.415,-10.213 36.567,-12.704" style="fill:%23fff;fill-rule:nonzero;"/></g></svg>