<?xml version="1.0" encoding="UTF-8" standalone="no"?><!DOCTYPE svg PUBLIC "-//W3C//DTD SVG 1.1//EN" "http://www.w3.org/Graphics/SVG/1.1/DTD/svg11.dtd"><svg width="1500" height="2100" viewBox="0 0 1500 2100" version="1.1" xmlns="http://www.w3.org/2000/svg" xmlns:xlink="http://www.w3.org/1999/xlink" xml:space="preserve" xmlns:serif="http://www.serif.com/" style="fill-rule:evenodd;clip-rule:evenodd;stroke-linejoin:round;stroke-miterlimit:2;"><path id="Border" d="M0,2100l0,-2100l1500,0l0,2100l-1500,0Zm1175,-170c86.302,-1.253 254.217,-31.646 265,-185l0,-1660c-2.855,-13.962 -11.263,-22.219 -25,-25l-1330,0c-13.737,2.781 -22.145,11.038 -25,25l0,1660c10.783,153.354 178.698,183.747 265,185l850,0Z"/><path id="bottom" d="M155,506l315,-0l-0,290c-0,-0 -45.195,38 -153,38c-107.805,-0 -162,-44 -162,-44l-0,-284Z" style="fill:%23e43a2b;"/><path id="top" d="M155,473l315,-0l-0,-290c-0,-0 -45.195,-38 -153,-38c-107.805,-0 -162,44 -162,44l-0,284Z" style="fill:%23e43a2b;"/><path id="outline" d="M123,166c-0,-0 72.386,-56 191,-56c118.614,-0 196,56 196,56l-0,644c-0,-0 -66,57 -193,57c-127,-0 -194,-57 -194,-57l-0,-644Zm12,6.214c17.341,-11.627 82.181,-50.214 179,-50.214c97.089,-0 165.567,38.752 184,50.43c-0,0 -0,631.695 -0,631.695c-15.909,11.626 -77.297,50.875 -181,50.875c-103.75,-0 -165.864,-39.277 -182,-50.923c-0,-0 -0,-631.862 -0,-631.862l0,-0.001Z" style="fill:%23e43a2b;"/><g id="icon"><path id="symbol" d="M423.489,717.562c-11.16,26.653 -33.379,39.955 -66.558,39.955c-6.078,-0 -12.704,0.747 -19.778,2.292c-10.662,2.291 -15.992,5.48 -15.992,9.515c-0,1.245 0.896,2.74 2.64,4.384c1.794,1.644 3.288,2.491 4.583,2.491c-6.327,-0 -2.042,0.199 12.953,0.548c14.996,0.399 24.362,0.548 28.148,0.548c-22.07,12.953 -58.986,18.881 -110.747,17.885c-16.989,-0.249 -31.586,-7.722 -43.741,-22.468c-11.957,-13.95 -17.885,-29.543 -17.885,-46.78c-0,-18.234 6.127,-33.777 18.483,-46.631c12.305,-12.803 27.599,-19.23 45.833,-19.23c4.035,0 9.465,0.897 16.191,2.641c6.726,1.793 11.209,2.64 13.501,2.64c9.366,-0 21.073,-3.886 35.023,-11.608c13.949,-7.722 20.575,-11.608 19.778,-11.608c-2.541,26.653 -11.409,44.538 -26.653,53.655c-10.911,6.327 -16.341,12.555 -16.341,18.633c-0,3.786 2.292,6.875 6.825,9.116c3.537,1.794 7.473,2.691 11.807,2.691c6.576,-0 13.053,-4.036 19.43,-12.156c6.327,-8.121 9.116,-15.494 8.369,-22.07c-0.747,-7.622 -0.249,-16.739 1.545,-27.4c0.498,-3.039 2.341,-6.776 5.529,-11.21c3.189,-4.433 6.029,-7.173 8.569,-8.17c0,2.292 -0.797,6.078 -2.491,11.409c-1.644,5.33 -2.491,9.266 -2.491,11.807c0,5.579 1.495,9.914 4.584,12.953c4.583,-1.794 8.618,-7.473 12.156,-17.138c3.039,-7.373 4.832,-14.447 5.33,-21.323c-10.661,-0.498 -20.874,-5.33 -30.638,-14.447c-9.765,-9.117 -14.647,-19.031 -14.647,-29.692c-0,-1.794 0.249,-3.537 0.747,-5.331c1.495,2.292 3.786,5.829 6.825,10.662c4.335,6.327 7.623,9.515 9.914,9.515c3.039,0 4.584,-3.188 4.584,-9.515c-0,-8.121 -2.143,-15.494 -6.477,-22.07c-4.832,-7.872 -11.06,-11.807 -18.632,-11.807c-3.537,-0 -8.868,1.893 -15.992,5.729c-7.124,3.786 -13.601,5.729 -19.429,5.729c-1.794,0 -9.665,-2.292 -23.614,-6.875c24.61,-4.035 36.915,-7.722 36.915,-11.01c0,-8.619 -16.888,-14.447 -50.616,-17.486c-3.288,-0.249 -9.366,-0.748 -18.283,-1.545c0.996,-1.245 8.22,-2.64 21.671,-4.184c11.409,-1.246 19.429,-1.894 23.963,-1.894c60.38,0 98.691,29.294 114.932,87.931c2.79,-2.292 4.185,-6.178 4.185,-11.558c-0,-6.925 -2.043,-15.693 -6.078,-26.255c-1.544,-4.085 -3.936,-10.262 -7.224,-18.532c20.775,26.503 31.187,51.612 31.187,75.326c-0,12.504 -2.94,23.813 -8.768,34.026c-3.787,6.875 -10.911,15.693 -21.323,26.404c-10.412,10.711 -17.486,18.981 -21.322,24.86c13.949,-3.787 23.116,-6.726 27.4,-8.768c9.615,-4.285 18.383,-10.761 26.255,-19.43c-0,3.288 -1.395,8.27 -4.185,14.846m-165.847,-149.556c-0,4.583 -2.541,7.473 -7.622,8.768l-9.914,1.544c-3.538,1.794 -8.769,8.769 -15.594,20.924c-0.747,-3.786 -1.893,-9.117 -3.437,-15.992c-2.292,0.25 -6.078,2.292 -11.409,6.078c-2.291,1.794 -5.978,4.434 -11.06,7.971c1.545,-9.116 6.577,-18.383 15.245,-27.799c9.117,-10.412 18.034,-15.593 26.653,-15.593c11.409,0 17.138,4.683 17.138,14.099m66.209,35.023c0,4.334 -2.341,7.921 -7.024,10.86c-4.683,2.939 -9.316,4.384 -13.9,4.384c-6.078,0 -11.558,-3.437 -16.34,-10.263c-5.829,-8.369 -11.807,-13.799 -17.885,-16.39c1.245,-1.245 2.789,-1.893 4.583,-1.893c2.292,-0 6.128,1.793 11.608,5.331c5.43,3.537 8.917,5.33 10.462,5.33c1.245,0 3.338,-1.793 6.277,-5.33c2.939,-3.538 6.128,-5.331 9.715,-5.331c8.369,-0 12.554,4.434 12.554,13.302" style="fill:%23fff;fill-rule:nonzero;"/></g></svg>