<?xml version="1.0" encoding="UTF-8" standalone="no"?><!DOCTYPE svg PUBLIC "-//W3C//DTD SVG 1.1//EN" "http://www.w3.org/Graphics/SVG/1.1/DTD/svg11.dtd"><svg width="1500" height="2100" viewBox="0 0 1500 2100" version="1.1" xmlns="http://www.w3.org/2000/svg" xmlns:xlink="http://www.w3.org/1999/xlink" xml:space="preserve" xmlns:serif="http://www.serif.com/" style="fill-rule:evenodd;clip-rule:evenodd;stroke-linejoin:round;stroke-miterlimit:2;"><path id="Border" d="M0,2100l0,-2100l1500,0l0,2100l-1500,0Zm1175,-170c86.302,-1.253 254.217,-31.646 265,-185l0,-1660c-2.855,-13.962 -11.263,-22.219 -25,-25l-1330,0c-13.737,2.781 -22.145,11.038 -25,25l0,1660c10.783,153.354 178.698,183.747 265,185l850,0Z"/><path id="bottom" d="M155,506l315,-0l-0,290c-0,-0 -45.195,38 -153,38c-107.805,-0 -162,-44 -162,-44l-0,-284Z" style="fill:%23007eb9;"/><path id="top" d="M155,473l315,-0l-0,-290c-0,-0 -45.195,-38 -153,-38c-107.805,-0 -162,44 -162,44l-0,284Z" style="fill:%23007eb9;"/><path id="outline" d="M123,166c-0,-0 72.386,-56 191,-56c118.614,-0 196,56 196,56l-0,644c-0,-0 -66,57 -193,57c-127,-0 -194,-57 -194,-57l-0,-644Zm12,6.214c17.341,-11.627 82.181,-50.214 179,-50.214c97.089,-0 165.567,38.752 184,50.43c-0,0 -0,631.695 -0,631.695c-15.909,11.626 -77.297,50.875 -181,50.875c-103.75,-0 -165.864,-39.277 -182,-50.923c-0,-0 -0,-631.862 -0,-631.862l0,-0.001Z" style="fill:%23007eb9;"/><g id="icon"><path id="symbol" d="M365.819,765.446c-14.309,14.562 -31.934,21.842 -52.872,21.842c-23.5,-0 -42.142,-8.041 -55.932,-24.133c-13.028,-15.325 -19.539,-34.859 -19.539,-58.607c-0,-25.537 11.111,-54.661 33.329,-87.352c18.124,-26.81 39.451,-50.307 63.972,-70.484c-3.578,16.348 -5.359,27.964 -5.359,34.86c-0,15.839 4.974,31.287 14.933,46.356c12.262,17.875 21.577,31.167 27.969,39.839c9.959,15.075 14.939,29.757 14.939,44.05c0.001,21.202 -7.147,39.078 -21.442,53.63m-0.385,-81.788c-3.829,-8.554 -8.301,-14.234 -13.41,-17.048c0.766,1.537 1.151,3.707 1.151,6.517c0,5.365 -1.53,13.022 -4.6,22.981l-4.974,15.325c0,8.938 4.46,13.41 13.403,13.41c9.446,-0 14.175,-6.263 14.175,-18.775c-0,-6.379 -1.913,-13.846 -5.745,-22.413" style="fill:%23fff;fill-rule:nonzero;"/></g></svg>