<?xml version="1.0" encoding="UTF-8" standalone="no"?><!DOCTYPE svg PUBLIC "-//W3C//DTD SVG 1.1//EN" "http://www.w3.org/Graphics/SVG/1.1/DTD/svg11.dtd"><svg width="1500" height="2100" viewBox="0 0 1500 2100" version="1.1" xmlns="http://www.w3.org/2000/svg" xmlns:xlink="http://www.w3.org/1999/xlink" xml:space="preserve" xmlns:serif="http://www.serif.com/" style="fill-rule:evenodd;clip-rule:evenodd;stroke-linejoin:round;stroke-miterlimit:2;"><path id="Border" d="M0,2100l0,-2100l1500,0l0,2100l-1500,0Zm1175,-170c86.302,-1.253 254.217,-31.646 265,-185l0,-1660c-2.855,-13.962 -11.263,-22.219 -25,-25l-1330,0c-13.737,2.781 -22.145,11.038 -25,25l0,1660c10.783,153.354 178.698,183.747 265,185l850,0Z"/><path id="bottom" d="M155,506l315,-0l-0,290c-0,-0 -45.195,38 -153,38c-107.805,-0 -162,-44 -162,-44l-0,-284Z" style="fill:%235e564b;"/><path id="top" d="M155,473l315,-0l-0,-290c-0,-0 -45.195,-38 -153,-38c-107.805,-0 -162,44 -162,44l-0,284Z" style="fill:%235e564b;"/><path id="outline" d="M123,166c-0,-0 72.386,-56 191,-56c118.614,-0 196,56 196,56l-0,644c-0,-0 -66,57 -193,57c-127,-0 -194,-57 -194,-57l-0,-644Zm12,6.214c17.341,-11.627 82.181,-50.214 179,-50.214c97.089,-0 165.567,38.752 184,50.43c-0,0 -0,631.695 -0,631.695c-15.909,11.626 -77.297,50.875 -181,50.875c-103.75,-0 -165.864,-39.277 -182,-50.923c-0,-0 -0,-631.862 -0,-631.862l0,-0.001Z" style="fill:%235e564b;"/><g id="icon"><path id="symbol" d="M454.957,688.098c-19.629,-11.06 -32.183,-16.589 -37.713,-16.589c-4.035,-0 -7.174,3.088 -9.416,9.266c-2.241,6.177 -6.775,9.216 -13.55,9.216c-2.79,0 -8.42,-0.996 -16.989,-2.989c-4.782,7.274 -7.174,11.957 -7.174,13.949c0,2.79 2.043,6.029 6.178,9.815c4.135,3.786 7.573,5.629 10.412,5.629c1.794,0 4.235,-0.348 7.324,-1.145c3.088,-0.748 5.131,-1.146 6.177,-1.146c3.089,-0 4.633,5.679 4.633,16.988c0,10.811 -2.491,27.4 -7.522,49.769c-6.527,-25.657 -13.451,-38.46 -20.725,-38.46c-0.996,-0 -3.089,0.747 -6.227,2.291c-3.139,1.495 -5.48,2.242 -6.975,2.242c-7.274,0 -13.8,-6.675 -19.629,-19.977c-11.558,1.744 -17.337,7.672 -17.337,17.735c0,5.032 2.342,9.068 6.975,12.057c4.633,3.039 6.975,5.181 6.975,6.426c-0,6.776 -9.914,17.238 -29.792,31.287c-10.562,7.522 -17.835,12.803 -21.871,15.842c3.488,-4.534 7.025,-10.412 10.562,-17.736c4.035,-8.27 6.028,-14.696 6.028,-19.23c0,-2.491 -2.889,-6.028 -8.668,-10.561c-5.779,-4.534 -8.669,-9.316 -8.669,-14.348c0,-4.285 1.495,-9.565 4.534,-15.843c-3.288,-3.786 -7.174,-5.679 -11.708,-5.679c-10.063,0 -15.095,3.288 -15.095,9.814c0,-4.533 0,-1.145 0,10.163c0.249,8.32 -6.028,12.455 -18.881,12.455c-9.815,0 -26.255,-2.291 -49.421,-6.775c26.155,-6.526 39.208,-14.099 39.208,-22.618c-0,0.996 -0.498,-1.993 -1.495,-9.067c-0.996,-7.772 4.534,-14.846 16.59,-21.123c-2.242,-11.558 -8.27,-17.337 -18.084,-17.337c-1.495,-0 -4.285,2.64 -8.27,7.921c-4.035,5.281 -7.772,7.921 -11.309,7.921c-6.028,0 -13.85,-6.526 -23.365,-19.628c-4.534,-6.527 -11.458,-16.191 -20.725,-29.045c5.779,3.039 11.558,6.028 17.337,9.067c7.523,3.537 13.601,5.281 18.084,5.281c3.538,0 6.975,-3.089 10.363,-9.266c3.387,-6.178 7.871,-9.267 13.401,-9.267c0.747,0 5.779,1.495 15.095,4.534c4.783,-7.274 7.174,-12.704 7.174,-16.241c0,-3.039 -1.843,-6.476 -5.48,-10.362c-3.637,-3.886 -6.975,-5.829 -10.014,-5.829c-1.245,-0 -3.188,0.398 -5.828,1.146c-2.641,0.747 -4.584,1.146 -5.829,1.146c-4.534,-0 -6.776,-5.68 -6.776,-16.989c0,-3.039 2.89,-20.226 8.669,-51.662c-0.249,3.786 1.395,10.811 4.882,21.123c4.285,12.555 9.316,18.882 15.095,18.882c0.997,-0 3.039,-0.748 6.028,-2.242c3.039,-1.495 5.381,-2.242 7.174,-2.242c5.779,0 10.562,3.288 14.348,9.814l5.68,10.163c5.28,0 9.664,-1.893 13.202,-5.629c3.537,-3.786 5.28,-8.32 5.28,-13.601c0,-5.53 -2.341,-9.764 -6.974,-12.654c-4.683,-2.889 -6.975,-5.081 -6.975,-6.576c0,-5.281 8.32,-14.198 24.909,-26.753c13.302,-10.063 22.02,-15.942 26.006,-17.735c-10.811,14.597 -16.241,25.258 -16.241,32.033c-0,3.538 2.142,7.274 6.427,11.309c5.28,4.783 8.319,8.171 9.067,10.163c2.491,5.779 2.241,13.701 -0.748,23.764c6.776,4.783 11.957,7.174 15.444,7.174c7.274,-0 10.911,-3.786 10.911,-11.309c-0,-0.747 -0.299,-3.139 -0.947,-7.174c-0.648,-4.035 -0.797,-6.277 -0.548,-6.775c0.996,-3.537 7.921,-5.281 20.725,-5.281c8.07,-0 24.76,2.242 50.167,6.775c-5.53,1.495 -13.849,3.787 -24.909,6.776c-10.064,3.039 -15.095,6.426 -15.095,10.163c-0,1.743 0.647,4.782 1.893,9.067c1.245,4.284 1.893,7.423 1.893,9.416c-0,3.537 -2.242,6.775 -6.775,9.814l-12.804,9.067c3.039,5.53 5.032,8.818 6.028,9.814c2.491,3.039 5.929,4.534 10.163,4.534c3.039,-0 5.779,-2.641 8.32,-7.921c2.491,-5.281 6.526,-7.922 12.056,-7.922c6.776,0 14.448,6.278 23.016,18.882c4.783,7.074 12.206,17.735 22.22,32.083m-83.696,-21.87c-0,-16.092 -5.928,-30.041 -17.736,-41.848c-11.807,-11.807 -25.756,-17.736 -41.847,-17.736c-16.341,0 -30.44,5.829 -42.247,17.536c-11.807,11.708 -17.835,25.707 -18.084,42.048c-0.249,16.091 5.729,29.991 17.935,41.648c12.205,11.708 26.354,17.536 42.445,17.536c17.088,0 31.386,-5.579 42.795,-16.789c11.458,-11.159 17.038,-25.308 16.789,-42.395m-5.68,-0c0,15.344 -5.131,28.048 -15.443,38.061c-10.313,10.064 -23.116,15.095 -38.461,15.095c-14.846,0 -27.549,-5.131 -38.061,-15.444c-10.562,-10.312 -15.843,-22.866 -15.843,-37.712c0,-14.597 5.331,-27.102 16.042,-37.514c10.711,-10.412 23.315,-15.643 37.912,-15.643c14.597,-0 27.201,5.281 37.912,15.842c10.662,10.562 16.042,23.017 16.042,37.315" style="fill:%23fff;fill-rule:nonzero;"/></g></svg>