<?xml version="1.0" encoding="UTF-8" standalone="no"?>
<!DOCTYPE svg PUBLIC "-//W3C//DTD SVG 1.1//EN" "http://www.w3.org/Graphics/SVG/1.1/DTD/svg11.dtd">
<svg width="1500" height="2100" viewBox="0 0 1500 2100" version="1.1" xmlns="http://www.w3.org/2000/svg" xmlns:xlink="http://www.w3.org/1999/xlink" xml:space="preserve" xmlns:serif="http://www.serif.com/" style="fill-rule:evenodd;clip-rule:evenodd;stroke-linejoin:round;stroke-miterlimit:2;">
    <rect id="Card" x="0" y="0" width="1500" height="2100" style="fill:none;"/>
    <g id="Card1" serif:id="Card">
        <path id="Crown" d="M332,167L322.333,167L322.333,157C322.333,133.846 304.938,114.724 282.518,112L166.482,112C144.062,114.724 126.667,133.846 126.667,157L126.667,167L117,167L117,112L107.5,112L107.5,106L94.495,106L91.577,93.072C98.031,94.129 106.646,95.096 117,95.938L117,79L107.5,79L107.5,68.5L88.738,68.5L82.492,56L74.447,56L69.5,37L70.92,37C97.575,45.554 156.563,51.5 225.05,51.5C293.536,51.5 352.524,45.554 379.18,37L379.5,37L375.103,56L366.358,56L361.362,68.5L342,68.5L342,79L332,79L332,96.028C342.402,95.201 351.105,94.25 357.694,93.209L355.128,106L342,106L342,112L332,112L332,167ZM308.613,112C313.967,115.77 318.619,120.47 322.333,125.865L322.333,112L308.613,112ZM126.667,112L126.667,125.865C130.381,120.47 135.033,115.769 140.387,112L126.667,112ZM322.333,79L322.333,96.728C299.939,98.222 271.435,99.202 240,99.437L240,79L322.333,79ZM126.667,96.653L126.667,79L208.5,79L208.5,99.423C177.185,99.164 148.848,98.164 126.667,96.653Z" style="fill:rgb(174,151,135);"/>
    </g>
</svg>
