<?xml version="1.0" encoding="UTF-8" standalone="no"?>
<!DOCTYPE svg PUBLIC "-//W3C//DTD SVG 1.1//EN" "http://www.w3.org/Graphics/SVG/1.1/DTD/svg11.dtd">
<svg width="1500" height="2100" viewBox="0 0 1500 2100" version="1.1" xmlns="http://www.w3.org/2000/svg" xmlns:xlink="http://www.w3.org/1999/xlink" xml:space="preserve" xmlns:serif="http://www.serif.com/" style="fill-rule:evenodd;clip-rule:evenodd;stroke-linejoin:round;stroke-miterlimit:2;">
    <path d="M1440,1765C1439.39,1789.61 1426.7,1829.61 1400,1853L1400,1308.21C1411.64,1294.83 1421.59,1270.28 1422,1242C1421.59,1213.72 1411.64,1189.17 1400,1175.79L1400,227.213C1411.64,213.828 1421.59,189.276 1422,161C1421.52,127.948 1408,99.984 1394,89L106,89C91.996,99.984 78.481,127.948 78,161C78.412,189.278 88.364,213.833 100,227.213L100,1175.79C88.362,1189.17 78.412,1213.72 78,1242C78.412,1270.28 88.362,1294.83 100,1308.21L100,1541L86,1541L86,1684.72L100,1684.72L100,1755L86,1755L86,1837.71C68.822,1814.64 60.493,1784.83 60,1765L60,85C62.855,71.038 71.263,62.781 85,60L1415,60C1428.74,62.781 1437.14,71.038 1440,85L1440,1765Z" style="fill:rgb(0,123,67);"/>
</svg>
