<?xml version="1.0" encoding="UTF-8" standalone="no"?>
<!DOCTYPE svg PUBLIC "-//W3C//DTD SVG 1.1//EN" "http://www.w3.org/Graphics/SVG/1.1/DTD/svg11.dtd">
<svg width="1500" height="2100" viewBox="0 0 1500 2100" version="1.1" xmlns="http://www.w3.org/2000/svg" xmlns:xlink="http://www.w3.org/1999/xlink" xml:space="preserve" xmlns:serif="http://www.serif.com/" style="fill-rule:evenodd;clip-rule:evenodd;stroke-linejoin:round;stroke-miterlimit:2;">
    <rect id="Card" x="0" y="0" width="1500" height="2100" style="fill:none;"/>
    <g id="Card1" serif:id="Card">
        <path id="PT" d="M86,1755L229,1755L295.604,1826.6L228.484,1898.72L86,1898.72L86,1755ZM1165,1822C1164.87,1796.66 1170.14,1777.15 1183,1760L1399,1760C1411.86,1777.15 1417.13,1796.66 1417,1822L1417,1822C1417.13,1847.34 1411.86,1866.85 1399,1884L1183,1884C1170.15,1866.85 1164.88,1847.34 1165,1822L1165,1822ZM86,1541L229,1541L295.604,1612.6L228.484,1684.72L86,1684.72L86,1541ZM1165,1614C1164.87,1588.66 1170.14,1569.15 1183,1552L1399,1552C1411.86,1569.15 1417.13,1588.66 1417,1614L1417,1614C1417.13,1639.34 1411.86,1658.85 1399,1676L1183,1676C1170.15,1658.85 1164.88,1639.34 1165,1614L1165,1614ZM1165,1416C1164.87,1390.66 1170.14,1371.15 1183,1354L1399,1354C1411.86,1371.15 1417.13,1390.66 1417,1416L1417,1416C1417.13,1441.34 1411.86,1460.85 1399,1478L1183,1478C1170.15,1460.85 1164.88,1441.34 1165,1416L1165,1416Z" style="fill:rgb(0,123,67);"/>
    </g>
</svg>
