<?xml version="1.0" encoding="UTF-8" standalone="no"?><!DOCTYPE svg PUBLIC "-//W3C//DTD SVG 1.1//EN" "http://www.w3.org/Graphics/SVG/1.1/DTD/svg11.dtd"><svg width="1500" height="2100" viewBox="0 0 1500 2100" version="1.1" xmlns="http://www.w3.org/2000/svg" xmlns:xlink="http://www.w3.org/1999/xlink" xml:space="preserve" xmlns:serif="http://www.serif.com/" style="fill-rule:evenodd;clip-rule:evenodd;stroke-linejoin:round;stroke-miterlimit:2;"><path id="path1" d="M1436.47,1606.5c-4.384,6.326 -9.641,13.777 -11.685,16.552c-4.222,5.742 -4.462,6.829 -5.269,23.828c-1.076,22.653 -2.043,22.005 -15.427,-10.354c-5.895,-14.25 -11.25,-30.085 -11.903,-30.303c-2.752,-0.914 -1.522,17.111 -1.687,28.773c-0.033,2.316 2.501,3.42 2.501,5.651c0,2.419 -0.671,3.743 -2.501,4.943l0.499,4.635l-0,145.421l2.501,2.351c3.551,3.334 3.562,6.645 0.019,7.992l-3.483,-2.055l-0.266,30.782c-0.266,23.46 0.7,22.783 -1.415,23.086c-5.689,0.81 -5.828,1.635 -6.158,36.259c-0.232,24.754 -0.011,32.381 1.002,34.204c1.841,3.315 31.335,31.447 33.783,32.227c1.857,0.589 24.473,-18.637 33.84,-28.77c2.307,-2.49 2.329,-2.782 2.873,-34.368c0.596,-34.395 0.21,-38.438 -3.75,-39.372l-2.445,-0.573c-0,-0 3.697,-271.414 1.219,-271.414c-0.705,-0 -7.868,14.179 -12.248,20.505Zm-1386.44,-20.74c-0.982,1.523 2.39,271.724 0.466,272.08c-4.522,0.84 -4.5,0.652 -4.5,36.641l0,34.238l15.521,15.168c20.948,20.475 17.479,20.04 34.68,4.35c7.864,-7.173 15.567,-14.381 17.119,-16.023l2.824,-2.978l0.075,-34.091c0.075,-35.996 -0.008,-36.694 -4.541,-37.339c-2.164,-0.307 -1.183,-2.499 -1.445,-26.952c-0.222,-20.322 1.471,-24.855 0.248,-25.872c-1.938,-1.608 0.112,-6.46 0.019,-8.986c-0.731,-19.886 0.269,-144.115 0,-152.001c-0.036,-1.07 -4.5,-0.708 -4.5,-2.5c0,-1.789 2.675,-3.814 3.5,-4.5c1.196,-0.99 2.278,-1.083 1.618,-39.398c-0.032,-1.866 -5.375,13.316 -8.054,20.648c-1.86,5.089 -3.683,9.701 -4.05,10.252c-0.368,0.548 -1.489,3.248 -2.49,6c-0.998,2.749 -2.595,6.799 -3.544,9c-0.949,2.198 -3.086,7.369 -4.755,11.487c-6.169,15.247 -8.715,13.02 -9.559,-8.352l-0.652,-16.548l-5.805,-8.794c-3.195,-4.838 -8.224,-12.506 -11.171,-17.044c-3.978,-6.119 -9.99,-20.056 -11.004,-18.486Zm18.654,251.121c4.297,4.886 8.79,10.061 9.986,11.501c2.917,3.51 3.72,3.33 7.252,-1.635c1.662,-2.34 6.109,-7.59 9.878,-11.673c9.06,-9.803 10.114,-9.462 9.491,3.093l-0.461,9.33l-4.166,3.447c-2.292,1.893 -7.384,6.81 -11.318,10.92l-7.144,7.473l-12.003,-11.272l-12,-11.276l-0.42,-8.145c-0.702,-13.677 0.288,-13.838 10.905,-1.763Zm1336.44,-1.136c4.166,4.264 8.572,9.214 9.795,11.002c3.082,4.515 4.147,4.174 10.766,-3.457c16.433,-18.956 17.46,-19.223 16.41,-4.294l-0.596,8.501l-11.228,10.883l-11.227,10.886l-11.771,-11.31l-11.775,-11.306l-0.63,-8.576c-0.949,-12.897 -0.237,-13.058 10.256,-2.329Zm-1362.93,-712.549c-0.848,0.851 -1.2,6.78 -1.2,20.314l-0,19.114l6,7.128c6.9,8.198 8.175,14.303 3.926,18.825c-1.56,1.662 -1.838,2.667 -1.121,4.062c3.993,7.792 4.74,31.653 1.091,34.953c-8.276,7.482 -8.423,24.293 -0.304,34.935l1.408,2.158c-0,-0 -1.874,297.721 -0.986,298.486c0.765,0.658 5.095,-14.149 7.397,-19.69c1.822,-4.391 7.05,-16.984 11.617,-27.986c11.955,-28.796 13.26,-29.344 13.819,-5.816l0.349,14.587l6.697,10.114c3.687,5.565 8.678,13.155 11.093,16.867c2.419,3.713 8.716,16.47 8.704,15.75c-0.964,-56 1.886,-49.856 -0.158,-52.56c-1.901,-2.512 -0.264,-3.91 -0.064,-7.001c1.16,-17.854 0.183,-36.674 0.027,-45.802c-0.071,-4.128 -0.001,-4.152 0.007,-6.637c0.19,-60.818 0.19,-91.168 0,-99.001c-0.091,-3.766 -2.879,-5.44 -1.019,-6.985c1.223,-1.012 0.53,-10.494 0.752,-30.372c-5.63,0.631 -13.578,-1.008 -20.312,-18.817l-11.565,-29.68l13.143,-9.646c4.268,14.342 11.14,27.796 19.582,36.999l636.315,-0.25c469.594,-0.184 638.179,-0.654 639.252,-1.373c13.522,-9.066 20.9,-37.277 21.952,-36.298c8.032,7.47 14.253,9.871 12.107,14.154c-5.839,11.654 -11.13,44.682 -29.709,46.917l-1,23.4l2.501,0.952c3.304,1.257 3.304,5.082 -0,9.409l-2.501,3.278l-0,93.172l2.25,0.319c3.416,0.487 3.547,5.085 0.262,8.992l-2.629,3.124l0.308,18.983c0.3,18.408 -0.621,19.027 1.561,20.475c3.06,2.028 1.19,5.67 -0.251,10.428c-0.651,2.15 -3.088,45.82 -0.545,45.82c1.148,0 2.74,-1.795 14.65,-19.356l9.394,-13.852l0.12,-15.147c0.217,-27.926 2.31,-27.75 13.398,1.125c1.324,3.45 3.091,7.725 3.919,9.499c0.829,1.778 3.911,9.053 6.848,16.166c4.289,10.389 9.201,28.616 10.05,25.968c0.599,-1.871 -0.333,-297.715 -0.333,-297.715l0.408,-3.158c8.141,-10.672 4.641,-26.821 0.03,-34.421c-2.528,-4.167 -0.769,-28.174 0.105,-34.489l1.95,-3.881l-2.246,-1.492c0.285,-4.503 0.312,-11.844 3.753,-18.668l6,-6.619l0,-19.357c0,-24.983 -1.031,-26.224 -11.418,-13.796c-2.247,2.685 -8.809,10.282 -14.584,16.878c-5.775,6.6 -12.975,15.068 -15.998,18.822c-0.819,1.016 -10.317,12.387 -7.583,16.442c7.384,10.95 16.638,27.55 14.333,30.339c-3.165,3.825 -12.752,15.496 -12.752,16.16c-0,1.489 -6.1,-19.025 -20.566,-38.949l-2.67,-3.499l-1275.39,0c-3.979,-3.436 -12.357,16.106 -24.374,41.92c-0.511,1.096 -11.357,-13.545 -13.236,-14.735c-3.098,-1.961 12.895,-27.502 16.656,-33.073c1.828,-2.709 -4.845,-7.934 -8.588,-12.612c-6.652,-8.321 -12.082,-14.617 -20.246,-23.501c-1.77,-1.924 -6.314,-7.09 -8.879,-10.259c-7.728,-9.555 -9.527,-12.521 -11.507,-10.541Zm1383.78,250.549c3.619,3.712 8.659,8.55 11.205,10.751l4.624,4.001l0.345,9.477c0.427,11.681 -0.795,12.581 -7.335,5.415c-5.76,-6.304 -11.809,-12.443 -14.689,-14.892l-2.351,-2.002l-10.223,10.924c-12.757,13.631 -13.867,13.702 -12.93,0.855c0.791,-10.8 -0.225,-9.098 12.604,-21.177c12.735,-11.988 10.684,-11.621 18.75,-3.352Zm-1335.64,1.121c4.492,4.328 9.585,9.165 11.321,10.751c3.821,3.488 5.906,20.843 2.651,22.092c-1.477,0.566 -15.768,-13.193 -20.561,-19.797l-1.751,-2.415l-10.748,11.25c-13.89,14.543 -13.725,14.543 -13.267,-0.221l0.247,-7.969l11.138,-10.736c13.324,-12.84 11.047,-12.521 20.97,-2.955Zm1340.67,-140.87c6.071,0 11,4.929 11,11c0,6.071 -4.929,11 -11,11c-6.071,0 -11,-4.929 -11,-11c0,-6.071 4.929,-11 11,-11Zm-1360,0c6.071,0 11,4.929 11,11c0,6.071 -4.929,11 -11,11c-6.071,0 -11,-4.929 -11,-11c0,-6.071 4.929,-11 11,-11Zm1380.43,-182.117c-2.591,3.435 -15.296,18.442 -28.429,33.585c-2.475,2.853 -7.511,8.752 -11.19,13.11c-3.675,4.357 -11.257,13.323 -16.841,19.923c-5.587,6.6 -13.151,15.563 -16.815,19.92c-3.66,4.354 -8.685,10.204 -11.167,12.998c-7.545,8.49 -9.299,10.88 -9.299,11.945c-0,1.631 7.676,2.321 21.851,1.965l13.256,-0.334l-0.005,0.006c2.025,-2.475 5.779,-6.525 8.34,-9c5.393,-5.205 15.998,-17.415 23.892,-27.502c4.86,-6.21 8.64,-10.613 19.477,-22.661c1.65,-1.838 5.58,-6.488 8.734,-10.339l5.734,-6.998l0.015,-19.05c0.022,-22.98 -1.249,-25.931 -7.553,-17.568Zm-1409.23,-2.682c-0.848,0.848 -1.2,6.735 -1.2,20.108l-0,18.907l5.22,6.642c2.872,3.652 6.697,8.216 8.501,10.143c4.849,5.172 16.309,18.574 30.203,35.322c6.765,8.156 12.851,15.037 13.526,15.296c0.671,0.259 3.829,3.6 7.016,7.425l4.794,1.956l15.12,-0.015c19.91,-0.019 20.632,2.686 8.132,-13.037c-3.679,-4.628 -10.432,-12.132 -24.12,-28.448c-3.69,-4.399 -7.267,-8.449 -7.946,-9c-0.679,-0.551 -2.97,-3.292 -5.089,-6.097c-2.122,-2.805 -7.905,-9.743 -12.855,-15.42c-11.246,-12.9 -27.127,-31.665 -33.206,-39.233c-4.744,-5.91 -6.019,-6.626 -8.096,-4.549Zm59.494,-808.95c-8.218,12.709 -28.585,34.433 -39.12,45.263c-2.436,2.503 -5.273,6.337 -6.915,7.987c-1.643,1.65 -5.622,6.304 -8.843,10.339l-5.857,7.343l0.27,19.657c0.345,24.979 0.506,25.103 12.873,10.016c4.62,-5.632 10.425,-12.536 12.9,-15.337c2.475,-2.801 7.65,-8.846 11.498,-13.433c3.851,-4.59 11.501,-13.605 17.002,-20.032c5.498,-6.431 14.498,-17.04 19.999,-23.576c5.501,-6.537 12.701,-15.023 16.001,-18.855c8.258,-9.6 8.499,-11.533 8.499,-12.129c0,-0.27 -8.006,-0.495 -17.79,-0.495l-17.786,-0l-2.731,3.252Zm1253.31,-7.693c0,0.667 4.218,6.268 16.829,21.025c10.215,11.955 18.446,21.626 28.875,33.937c13.601,16.046 17.059,20.153 24.84,29.479c4.361,5.227 8.535,10.132 9.274,10.905c0.742,0.772 5.437,6.304 10.44,12.296c13.113,15.713 13.166,15.675 13.515,-9.112l0.27,-19.418l-2.772,-4.016c-1.522,-2.209 -5.471,-7.028 -8.771,-10.706c-7.65,-8.532 -22.736,-26.269 -30.574,-35.948c-3.337,-4.125 -10.02,-11.55 -14.846,-16.5c-4.826,-4.95 -9.57,-10.237 -10.541,-11.749l0.23,-0.752l-18.383,-0c-10.113,-0 -18.386,0.251 -18.386,0.559Zm-1279,-123.834c-30.21,33.21 -30.078,33.022 -30.791,44.006c-0.607,9.364 2.471,16.114 9.878,21.641c5.865,4.38 5.85,4.212 1.342,15.885c-1.961,5.085 -4.024,10.433 -4.575,11.888c-1.661,4.35 -0.731,8.19 2.145,8.857c5.381,1.245 4.001,5.772 -4.935,16.152l-8.047,9.348l-0.008,19.125c-0.011,19.887 0.48,22.275 4.283,20.817c3.858,-1.482 35.953,-44.647 45.255,-51.987c2.591,-2.045 1.467,-1.405 0.852,-2.371c-6.314,-9.927 -9.462,-13.923 -17.391,-30.821c-2.391,-5.095 7.536,-10.705 14.457,-17.695c2.948,-2.977 3.535,-2.366 3.535,1.687c0,2.007 0.788,6.333 3.728,16.743c2.044,7.23 10.454,20.686 14.867,23.842l1.559,0.159l1271.54,0c-0,0 12.206,2.494 23.741,-34.499c4.299,-13.787 5.031,-9.027 16.566,4.559c3.699,4.356 -3.588,11.801 -15.2,32.706c-4.229,7.614 2.408,4.18 18.79,25.938c5.591,7.425 21.499,26.41 22.587,27.794c7.215,9.176 8.823,6.097 8.823,-16.909l0,-19.163l-7.541,-8.463c-9.412,-10.564 -11.047,-15.649 -5.456,-16.958c3.319,-0.776 3.709,-4.492 1.177,-11.272c-1.072,-2.877 -3.221,-8.67 -4.773,-12.874l-2.82,-7.646l6.558,-6.357c7.748,-7.511 9.308,-11.261 8.629,-20.748c-0.754,-10.508 -2.16,-12.507 -29.051,-41.337c-5.501,-5.898 -10.643,-11.636 -11.423,-12.75c-1.623,-2.321 -3.577,-2.595 -5.133,-0.723c-0.799,0.963 0.101,4.406 3.461,13.252c7.395,19.466 7.189,18.499 4.357,20.351c-1.342,0.882 -3.915,2.884 -5.715,4.455c-4.267,3.72 -3.074,0.964 -5.623,-5.99c-9.983,-27.225 -17.645,-27.366 -17.645,-27.366l-637.449,-1l-639.453,-1c-7.605,5.144 -16.711,23.708 -17.292,33.399c-0.314,5.24 -0.835,5.344 -7.128,0.484c-6.618,-5.112 -6.521,-4.617 -2.771,-14.059c11.175,-28.11 9.589,-30.334 -7.909,-11.1Zm4.052,39.525c5.19,8.332 -4.018,20.472 -14.927,14.84c-5.419,-2.798 -7.905,-13.406 -0.898,-18.42c4.085,-2.924 12.822,-1.634 14.825,1.58l1,2Zm1349.95,-4.249c5.519,0 10,4.481 10,10c0,5.519 -4.481,10 -10,10c-5.519,0 -10,-4.481 -10,-10c0,-5.519 4.481,-10 10,-10Zm-691.501,-81.874c-15.364,10.133 -14.239,9.829 -36.499,9.833c-10.725,0.004 -23.55,-0.458 -28.5,-1.02c-14.299,-1.631 -26.224,-2.873 -37.001,-3.863c-5.498,-0.502 -14.498,-1.417 -19.999,-2.032c-15.405,-1.718 -486.934,-1.013 -488.677,0.735c-2.659,2.655 0.907,4.729 19.278,11.22l18.398,6.502l141.776,0.255l141.773,0.259l4.526,6.99l4.522,6.994l11.704,0.011c34.556,0.038 566.04,0.064 567.87,0.03c1.511,-0.026 3.709,-2.156 7.256,-7.035l5.085,-6.99l142.245,-0.259l142.245,-0.255l18.398,-6.502c18.371,-6.491 21.937,-8.565 19.279,-11.22c-1.028,-1.028 -48.019,-1.339 -240.477,-1.579c-264.056,-0.334 -243.547,-0.746 -298.702,6.015c-5.888,0.72 -21.038,1.286 -34.5,1.286l-24,0l-4.5,-3.108c-8.051,-5.558 -19.826,-12.394 -21.18,-12.297c-0.724,0.053 -5.37,2.768 -10.32,6.03Zm-236.431,19.908c3.082,1.65 3.655,8.25 0.298,10.894c-3.491,2.745 -9.815,2.304 -12.022,-1.495c-4.154,-7.15 1.789,-13.644 10.724,-10.399l1,1Zm-21.818,0.164c3.45,3.99 1.78,11.803 -5.23,11.803c-8.315,0 -10.519,-8.515 -6.27,-12.216c3.698,-3.221 8.489,-3.071 11.5,0.413Zm43.434,-0.024c4.59,4.309 2.029,11.827 -4.024,11.827c-9.817,0 -10.147,-8.901 -6.025,-11.928c3.465,-2.545 7.146,-2.625 10.049,0.101Zm459.084,10.725c-0.971,0.686 -2.151,1.102 -3.489,1.102l-0.279,-0.001c-3.124,0 -5.773,-2.051 -6.673,-4.88c-0.209,-0.372 -0.327,-0.716 -0.327,-1.01c0,-0.19 0.007,-0.386 0.019,-0.586c-0.012,-0.172 -0.019,-0.347 -0.019,-0.524c0,-1.592 0.533,-3.061 1.43,-4.238c0.49,-0.809 1.096,-1.44 1.804,-1.724c0.099,-0.04 0.197,-0.079 0.293,-0.116c1.024,-0.587 2.21,-0.922 3.473,-0.922c3.863,0 7,3.137 7,7c0,2.476 -1.289,4.654 -3.232,5.899Zm37.411,-0.034c-2.367,-0.968 -3.179,-2.514 -3.179,-5.415l0,-0.45c0,-3.863 3.137,-7 7,-7c3.863,0 7,3.137 7,7c0,3.863 -3.137,7 -7,7c-1.409,0 -2.722,-0.417 -3.821,-1.135Zm-25.458,-8.961c0.217,-0.711 0.531,-1.432 0.957,-2.154c0.272,-0.464 0.982,-0.743 1.916,-0.866c1.009,-0.563 2.17,-0.884 3.406,-0.884c3.863,0 7,3.137 7,7c0,3.863 -3.137,7 -7,7c-3.863,0 -7,-3.137 -7,-7c0,-1.111 0.259,-2.162 0.721,-3.096Z" style="fill:#007b43;"/></svg>