<?xml version="1.0" encoding="UTF-8" standalone="no"?>
<!DOCTYPE svg PUBLIC "-//W3C//DTD SVG 1.1//EN" "http://www.w3.org/Graphics/SVG/1.1/DTD/svg11.dtd">
<svg width="1500" height="2100" viewBox="0 0 1500 2100" version="1.1" xmlns="http://www.w3.org/2000/svg" xmlns:xlink="http://www.w3.org/1999/xlink" xml:space="preserve" xmlns:serif="http://www.serif.com/" style="fill-rule:evenodd;clip-rule:evenodd;stroke-linejoin:round;stroke-miterlimit:2;">
    <rect id="Card" x="0" y="0" width="1500" height="2100" style="fill:none;"/>
    <g id="Card1" serif:id="Card">
        <path id="Background" d="M100,1853C73.299,1829.61 60.611,1789.61 60,1765L60,85C62.855,71.038 71.263,62.781 85,60L1415,60C1428.74,62.781 1437.14,71.038 1440,85L1440,1765C1439.39,1789.61 1426.7,1829.61 1400,1853L1400,1483.21C1411.64,1469.83 1421.59,1445.28 1422,1417C1421.59,1388.72 1411.64,1364.17 1400,1350.79L1400,559C1400,556.802 1399.34,554.655 1398.11,552.835C1398.11,552.835 1192.36,248 750,248C307.637,248 101.89,552.835 101.89,552.835C100.658,554.655 100,556.802 100,559L100,1350.79C88.362,1364.17 78.412,1388.72 78,1417C78.412,1445.28 88.362,1469.83 100,1483.21L100,1853ZM105.672,232.739C91.785,221.58 78.477,193.794 78,161C78.481,127.948 91.996,99.984 106,89L1394,89C1408,99.984 1421.52,127.948 1422,161C1421.52,194.052 1408,222.016 1394,233L106,233L105.672,232.739Z" style="fill:rgb(239,56,39);"/>
    </g>
</svg>
