<?xml version="1.0" encoding="UTF-8" standalone="no"?>
<!DOCTYPE svg PUBLIC "-//W3C//DTD SVG 1.1//EN" "http://www.w3.org/Graphics/SVG/1.1/DTD/svg11.dtd">
<svg width="1500" height="2100" viewBox="0 0 1500 2100" version="1.1" xmlns="http://www.w3.org/2000/svg" xmlns:xlink="http://www.w3.org/1999/xlink" xml:space="preserve" xmlns:serif="http://www.serif.com/" style="fill-rule:evenodd;clip-rule:evenodd;stroke-linejoin:round;stroke-miterlimit:2;">
    <rect id="Card" x="0" y="0" width="1500" height="2100" style="fill:none;"/>
    <g id="Card1" serif:id="Card">
        <path id="Textbox--Regular-" serif:id="Textbox (Regular)" d="M100,1350.79L100,559C100,556.802 100.658,554.655 101.89,552.835C101.89,552.835 307.637,248 750,248C1192.36,248 1398.11,552.835 1398.11,552.835C1399.34,554.655 1400,556.802 1400,559L1400,1350.79C1411.64,1364.17 1421.59,1388.72 1422,1417C1421.59,1445.28 1411.64,1469.83 1400,1483.21L1400,1948L100,1948L100,1483.21C88.362,1469.83 78.412,1445.28 78,1417C78.412,1388.72 88.362,1364.17 100,1350.79ZM1389,1489L1389,1937L111,1937L111,1489L1389,1489ZM1388.24,1356.01C1389.44,1356.08 1390.56,1356.69 1391.26,1357.68C1405.33,1377.45 1410.29,1397.23 1410.29,1417C1410.29,1436.77 1405.33,1456.55 1391.26,1476.32C1390.51,1477.37 1389.29,1478 1388,1478L112,1478C110.706,1478 109.492,1477.37 108.741,1476.32C94.667,1456.55 89.714,1436.77 89.714,1417C89.714,1397.23 94.667,1377.45 108.741,1357.68C109.492,1356.63 110.706,1356 112,1356L1388,1356L1388.24,1356.01ZM1389,1345L1389,559C1389,559 1186,259 750,259C314,259 111,559 111,559L111,1345L1389,1345ZM105.672,232.739C91.785,221.58 78.477,193.794 78,161C78.481,127.948 91.996,99.984 106,89L1394,89C1408,99.984 1421.52,127.948 1422,161C1421.52,194.052 1408,222.016 1394,233L106,233L105.672,232.739ZM112,100L1388,100C1389.29,100 1390.51,100.626 1391.26,101.68C1405.33,121.453 1410.29,141.227 1410.29,161C1410.29,180.773 1405.33,200.547 1391.26,220.32C1390.51,221.374 1389.29,222 1388,222L112,222C110.706,222 109.492,221.374 108.741,220.32C94.667,200.547 89.714,180.773 89.714,161C89.714,141.227 94.667,121.453 108.741,101.68C109.492,100.626 110.706,100 112,100Z" style="fill:rgb(0,123,67);"/>
    </g>
</svg>
