<?xml version="1.0" encoding="UTF-8" standalone="no"?><!DOCTYPE svg PUBLIC "-//W3C//DTD SVG 1.1//EN" "http://www.w3.org/Graphics/SVG/1.1/DTD/svg11.dtd"><svg width="1500" height="2100" viewBox="0 0 1500 2100" version="1.1" xmlns="http://www.w3.org/2000/svg" xmlns:xlink="http://www.w3.org/1999/xlink" xml:space="preserve" xmlns:serif="http://www.serif.com/" style="fill-rule:evenodd;clip-rule:evenodd;stroke-linejoin:round;stroke-miterlimit:2;"><path id="Pinline" d="M1500,0l0,2100l0,-2100Zm-1415,60c-13.737,2.781 -22.145,11.038 -25,25l0,1680c0.611,24.613 13.299,64.609 40,88l0,95l1300,0l0,-95c26.701,-23.391 39.389,-63.387 40,-88l0,-1680c-2.855,-13.962 -11.263,-22.219 -25,-25l-1330,0Zm1304,1390l-1278,-0l0,487.39l1278,-0l-0,-487.39Zm-1278,-1021c149.43,-191.984 356.04,-303.204 637.348,-308.967l1.652,-0.033c282.132,5.351 489.27,116.631 639,309l-0,877l-1278,-0l0,-877Z" style="fill:#007b43;"/></svg>