<?xml version="1.0" encoding="UTF-8" standalone="no"?><!DOCTYPE svg PUBLIC "-//W3C//DTD SVG 1.1//EN" "http://www.w3.org/Graphics/SVG/1.1/DTD/svg11.dtd"><svg width="1500" height="2100" viewBox="0 0 1500 2100" version="1.1" xmlns="http://www.w3.org/2000/svg" xmlns:xlink="http://www.w3.org/1999/xlink" xml:space="preserve" xmlns:serif="http://www.serif.com/" style="fill-rule:evenodd;clip-rule:evenodd;stroke-linejoin:round;stroke-miterlimit:2;"><path id="regular" d="M100,1311.79l0,-765.563c-23.484,-23.68 -38,-56.27 -38,-92.224c0,-41.407 19.252,-78.352 49.286,-102.365c-13.565,-24.506 -21.286,-52.676 -21.286,-82.635c0,-94.377 76.623,-171 171,-171c39.408,-0 75.72,13.359 104.647,35.791c25.566,-41.273 71.271,-68.791 123.353,-68.791c46.931,-0 88.684,22.344 115.2,56.976c10.85,-1.793 21.827,-3.407 32.934,-4.839c29.683,-27.395 69.335,-44.137 112.866,-44.137c43.531,-0 83.183,16.742 112.866,44.137c11.107,1.432 22.084,3.046 32.934,4.839c26.516,-34.632 68.269,-56.976 115.2,-56.976c52.082,-0 97.787,27.518 123.353,68.791c28.927,-22.432 65.239,-35.791 104.647,-35.791c94.377,-0 171,76.623 171,171c0,29.959 -7.721,58.129 -21.286,82.635c30.034,24.013 49.286,60.958 49.286,102.365c0,35.954 -14.516,68.544 -38,92.224l0,765.563c11.636,13.38 21.588,37.935 22,66.213c-0.412,28.276 -10.362,52.828 -22,66.213l0,503.787l-1300,0l0,-503.787c-11.638,-13.385 -21.588,-37.937 -22,-66.213c0.412,-28.276 10.362,-52.828 22,-66.213Zm1289,138.213l-1278,-0l0,487l1278,0l0,-487Zm-0.758,-132.993c1.202,0.073 2.313,0.685 3.017,1.673c14.074,19.773 19.027,39.547 19.027,59.32c0,19.773 -4.953,39.547 -19.027,59.32c-0.751,1.054 -1.965,1.68 -3.259,1.68l-1276,0c-1.294,0 -2.508,-0.626 -3.259,-1.68c-14.074,-19.773 -19.027,-39.547 -19.027,-59.32c-0,-19.773 4.953,-39.547 19.027,-59.32c0.751,-1.054 1.965,-1.68 3.259,-1.68l1276,0l0.242,0.007Zm0.758,-11.007l-1278,0l0,-877c149.43,-191.984 356.04,-303.204 637.348,-308.967l1.652,-0.033c282.132,5.351 489.27,116.631 639,309l0,877Zm-1288.9,-878.459l-13.417,-19.975c-6.227,14.225 -9.681,29.929 -9.681,46.434c0,25.974 8.555,49.965 23,69.308l0,-94.308c0,-0.49 0.033,-0.977 0.098,-1.459Zm1299.8,0l13.417,-19.975c6.227,14.225 9.681,29.929 9.681,46.434c0,25.974 -8.555,49.965 -23,69.308l0,-94.308c-0,-0.49 -0.033,-0.977 -0.098,-1.459Zm-19.094,-63.007c9.606,7.937 17.911,17.385 24.551,27.979l-14.311,21.308c-8.22,-10.317 -16.607,-20.396 -25.164,-30.234c5.407,-5.984 10.397,-12.35 14.924,-19.053Zm-1261.62,-0c-9.606,7.937 -17.911,17.385 -24.551,27.979l14.311,21.308c8.22,-10.317 16.607,-20.396 25.164,-30.234c-5.407,-5.984 -10.397,-12.35 -14.924,-19.053Zm56.207,-25.204c-15.985,2.437 -30.902,8.142 -44.047,16.411c3.888,5.798 8.157,11.323 12.769,16.537c10.187,-11.315 20.609,-22.298 31.278,-32.948Zm1149.2,-0c15.985,2.437 30.902,8.142 44.047,16.411c-3.888,5.798 -8.157,11.323 -12.769,16.537c-10.187,-11.315 -20.609,-22.298 -31.278,-32.948Zm-1149.66,-15.093l-67.703,-81.708c-1.473,8.603 -2.241,17.448 -2.241,26.471c0,26.73 6.737,51.899 18.604,73.896c15.289,-9.576 32.691,-16.084 51.34,-18.659Zm1150.11,0l67.703,-81.708c1.473,8.603 2.241,17.448 2.241,26.471c0,26.73 -6.737,51.899 -18.604,73.896c-15.289,-9.576 -32.691,-16.084 -51.34,-18.659Zm-154.916,-104.842c49.403,29.028 94.98,63.476 136.975,102.985l4.36,-5.263c9.177,-13.786 14.525,-30.332 14.525,-48.117c0,-48.017 -38.983,-87 -87,-87c-19.704,0 -37.886,6.564 -52.478,17.624l-16.382,19.771Zm-840.28,-0c-49.403,29.028 -94.98,63.476 -136.975,102.985l-4.36,-5.263c-9.177,-13.786 -14.525,-30.332 -14.525,-48.117c0,-48.017 38.983,-87 87,-87c19.704,0 37.886,6.564 52.478,17.624l16.382,19.771Zm927.546,-105.318l-47.295,57.079c9.158,-2.704 18.856,-4.156 28.889,-4.156c56.295,0 102,45.705 102,102c0,4.6 -0.305,9.13 -0.896,13.566l48.358,-58.361c-17.568,-58.622 -68.713,-102.789 -131.056,-110.128Zm-1014.81,-0l47.295,57.079c-9.158,-2.704 -18.856,-4.156 -28.889,-4.156c-56.295,0 -102,45.705 -102,102c0,4.6 0.305,9.13 0.896,13.566l-48.358,-58.361c17.568,-58.622 68.713,-102.789 131.056,-110.128Zm899.078,33.04c9.144,18.946 14.287,40.187 14.327,62.616c5.654,-7.9 12.405,-14.959 20.029,-20.954l62.79,-75.779c-36.728,0.04 -70.503,12.804 -97.146,34.117Zm-783.344,0c-9.144,18.946 -14.287,40.187 -14.327,62.616c-5.654,-7.9 -12.405,-14.959 -20.029,-20.954l-62.79,-75.779c36.728,0.04 70.503,12.804 97.146,34.117Zm11.727,10.38c8.78,8.588 16.556,18.211 23.127,28.666c-11.521,5.362 -22.854,10.99 -33.998,16.88c0.852,-16.133 4.651,-31.489 10.871,-45.546Zm759.89,-0c-8.78,8.588 -16.556,18.211 -23.127,28.666c11.521,5.362 22.854,10.99 33.998,16.88c-0.852,-16.133 -4.651,-31.489 -10.871,-45.546Zm-596.075,-20.947l-0.099,0.025c-13.046,-7.977 -28.376,-12.575 -44.771,-12.575c-36.595,0 -67.881,22.906 -80.292,55.151c-0.589,0.258 -1.169,0.513 -1.748,0.768c-8.222,-13.434 -18.246,-25.648 -29.733,-36.301c22.68,-38.082 64.268,-63.618 111.773,-63.618c7.549,0 14.948,0.645 22.144,1.882l22.726,54.668Zm432.26,0l0.099,0.025c13.046,-7.977 28.376,-12.575 44.771,-12.575c36.595,0 67.881,22.906 80.292,55.151c0.589,0.258 1.169,0.513 1.748,0.768c8.222,-13.434 18.246,-25.648 29.733,-36.301c-22.68,-38.082 -64.268,-63.618 -111.773,-63.618c-7.549,0 -14.948,0.645 -22.144,1.882l-22.726,54.668Zm-454.87,6.015c-27.921,7.853 -54.905,17.041 -80.972,27.522c12.784,-18.76 34.32,-31.087 58.712,-31.087c7.774,0 15.257,1.252 22.26,3.565Zm477.48,0c27.921,7.853 54.905,17.041 80.972,27.522c-12.784,-18.76 -34.32,-31.087 -58.712,-31.087c-7.774,0 -15.257,1.252 -22.26,3.565Zm-440.108,-9.58l-19.382,-46.623c22.73,7.403 42.718,20.908 58.027,38.577c-13.071,2.417 -25.951,5.1 -38.645,8.046Zm402.736,-0l19.382,-46.623c-22.73,7.403 -42.718,20.908 -58.027,38.577c13.071,2.417 25.951,5.1 38.645,8.046Zm-201.368,-44.985c31.383,0 60.549,9.563 84.739,25.929c-27.388,-2.726 -55.569,-4.378 -84.53,-4.927c-0.073,-0.001 -0.143,0.004 -0.209,0.016c-0.066,-0.012 -0.136,-0.017 -0.209,-0.016c-28.961,0.549 -57.142,2.201 -84.53,4.927c24.19,-16.366 53.356,-25.929 84.739,-25.929Z" style="fill:#007b43;"/></svg>