<?xml version="1.0" encoding="UTF-8" standalone="no"?>
<!DOCTYPE svg PUBLIC "-//W3C//DTD SVG 1.1//EN" "http://www.w3.org/Graphics/SVG/1.1/DTD/svg11.dtd">
<svg width="1500" height="2100" viewBox="0 0 1500 2100" version="1.1" xmlns="http://www.w3.org/2000/svg" xmlns:xlink="http://www.w3.org/1999/xlink" xml:space="preserve" xmlns:serif="http://www.serif.com/" style="fill-rule:evenodd;clip-rule:evenodd;stroke-linejoin:round;stroke-miterlimit:2;">
    <g id="Masks">
        <path id="Pinline" d="M109.555,233C108.983,234.743 106.986,236.3 106.263,236.818L106,237C106,237 103.194,235.879 103.194,235.879C103.194,235.879 105.672,236.739 105.672,236.739L103.166,235.857C88.667,224.205 74.499,195.299 74,161.058C74,161.019 74,160.981 74,160.942C74.503,126.42 88.904,97.325 103.531,85.853C104.236,85.3 105.105,85 106,85L1394,85C1394.89,85 1395.76,85.3 1396.47,85.853C1411.1,97.325 1425.5,126.42 1426,160.942C1426,160.981 1426,161.019 1426,161.058C1425.5,195.58 1411.1,224.675 1396.47,236.147C1395.76,236.7 1394.89,237 1394,237C1394,237 1351.44,237 1351.44,237C1362.91,262.637 1372.98,301.472 1380.99,350.042C1395.33,437.019 1403.46,555.768 1403,685.007C1403,685.007 1403,1704.34 1403,1704.34C1403.17,1704.56 1403.34,1704.79 1403.51,1705.02L1403.85,1705.5C1419.7,1728 1425.29,1750.5 1425.29,1773C1425.29,1795.67 1419.62,1818.35 1403.48,1841.02C1399.91,1846.03 1394.15,1849 1388,1849C1388,1849 914.924,1849 878.117,1849C851.77,1892.17 804.224,1921 750,1921C695.776,1921 648.23,1892.17 621.883,1849C621.883,1849 112,1849 112,1849C105.853,1849 100.086,1846.03 96.521,1841.02C80.383,1818.35 74.714,1795.67 74.714,1773C74.714,1750.33 80.383,1727.65 96.521,1704.98C96.677,1704.76 96.836,1704.55 97,1704.34C97,1704.34 97,685.028 97,685.028C96.536,555.767 104.668,437.019 119.009,350.042C127.018,301.472 137.088,262.637 148.558,237L148.558,237L106,237C108.209,237 110,235.209 110,233L109.555,233ZM1388.63,1829.11L1388,1830C1388,1830 869.406,1830 869.406,1830C867.924,1830 866.564,1830.82 865.871,1832.13C843.891,1873.67 800.228,1902 750,1902C699.772,1902 656.109,1873.67 634.129,1832.13C633.436,1830.82 632.076,1830 630.594,1830L112,1830C98.476,1811 93.714,1792 93.714,1773C93.714,1754 98.476,1735 112,1716C111.25,1717.05 113.294,1716 112,1716C112,1716 628.562,1716 628.562,1716C630.092,1716 631.488,1715.13 632.158,1713.75C653.418,1670.11 698.221,1640 750,1640C801.779,1640 846.582,1670.11 867.842,1713.75C868.512,1715.13 869.908,1716 871.438,1716L1388,1716C1386.7,1716 1388.75,1717.06 1388,1716C1388,1716 1388.3,1716.42 1388.32,1716.45C1401.6,1735.3 1406.29,1754.15 1406.29,1773C1406.29,1791.7 1401.67,1810.41 1388.63,1829.11ZM1383,1697L880.474,1697C854.675,1651.62 805.884,1621 750,1621C694.116,1621 645.325,1651.62 619.526,1697C619.526,1697 164.523,1697 117,1697C117,1697 117,685 117,685C117,684.988 117,684.976 117,684.964C116.54,556.985 124.543,439.41 138.743,353.296C147.359,301.042 158.076,260.59 170.786,237C170.786,237 1329.21,237 1329.21,237C1341.92,260.59 1352.64,301.042 1361.26,353.296C1375.46,439.41 1383.46,556.985 1383,684.964C1383,684.969 1383,684.974 1383,684.978C1383,684.978 1383,1627.84 1383,1697L1383,1697ZM1388,218L112,218C98.476,199 93.714,180 93.714,161C93.714,142 98.476,123 112,104L1388,104C1386.71,104 1388.75,105.054 1388,104C1401.52,123 1406.29,142 1406.29,161C1406.29,180 1401.52,199 1388,218Z" style="fill:rgb(0,123,67);"/>
    </g>
</svg>
