<?xml version="1.0" encoding="UTF-8" standalone="no"?><!DOCTYPE svg PUBLIC "-//W3C//DTD SVG 1.1//EN" "http://www.w3.org/Graphics/SVG/1.1/DTD/svg11.dtd"><svg width="69" height="94" viewBox="0 0 69 94" version="1.1" xmlns="http://www.w3.org/2000/svg" xmlns:xlink="http://www.w3.org/1999/xlink" xml:space="preserve" xmlns:serif="http://www.serif.com/" style="fill-rule:evenodd;clip-rule:evenodd;stroke-linejoin:round;stroke-miterlimit:2;"><path d="M29.604,2c1.078,0 2.153,0.058 3.195,0.172l11.093,1.568c13.742,2.32 22.592,15.174 22.592,32.752l-0,54.081c-0.001,0.788 -0.712,1.427 -1.589,1.427l-51.354,-0c-0.495,-0 -0.962,-0.207 -1.262,-0.561l-9.953,-11.718c-0.211,-0.249 -0.326,-0.553 -0.326,-0.866l0,-43.297c0,-20.072 11.093,-33.558 27.604,-33.558Z" style="fill:#a6a6a6;"/><path d="M29.604,0c-17.581,0 -29.604,14.185 -29.604,35.558l0,43.297c0,0.779 0.275,1.54 0.801,2.16l9.953,11.718c0.665,0.784 1.69,1.267 2.787,1.267l51.354,-0c2.038,-0 3.588,-1.594 3.589,-3.426l-0,-54.082c-0,-18.714 -9.629,-32.254 -24.259,-34.725l-0.026,-0.004c-0.027,-0.004 -11.15,-1.576 -11.15,-1.576c-1.145,-0.125 -2.293,-0.187 -3.445,-0.187Zm-0,2c1.078,0 2.153,0.058 3.195,0.172l11.093,1.568c13.742,2.32 22.592,15.174 22.592,32.752l-0,54.081c-0.001,0.788 -0.712,1.427 -1.589,1.427l-51.354,-0c-0.495,-0 -0.962,-0.207 -1.262,-0.561l-9.953,-11.718c-0.211,-0.249 -0.326,-0.553 -0.326,-0.866l0,-43.297c0,-20.072 11.093,-33.558 27.604,-33.558Z" style="fill:#fff;"/><path id="path20" d="M29.604,2c1.078,0 2.153,0.058 3.195,0.172l11.093,1.568c13.742,2.32 22.592,15.174 22.592,32.752l-0,54.081c-0.001,0.788 -0.712,1.427 -1.589,1.427l-51.354,-0c-0.495,-0 -0.962,-0.207 -1.262,-0.561l-9.953,-11.718c-0.211,-0.249 -0.326,-0.553 -0.326,-0.866l0,-43.297c0,-20.072 11.093,-33.558 27.604,-33.558Zm9.614,3.643c-14.408,-0 -24.088,12.168 -24.088,30.278l-0,53.225l48.177,0l0,-53.225c0,-18.11 -9.68,-30.278 -24.089,-30.278Zm9.168,60.417c0.877,0 1.588,0.639 1.588,1.427c0,0.789 -0.711,1.428 -1.588,1.428l-17.64,-0c-0.877,-0 -1.588,-0.639 -1.588,-1.428c0,-0.788 0.711,-1.427 1.588,-1.427l17.64,0Zm4.998,-12.558c0.878,0 1.589,0.639 1.589,1.427c-0.001,0.789 -0.712,1.427 -1.589,1.427l-27.635,0c-0.878,0 -1.589,-0.638 -1.589,-1.427c-0,-0.788 0.711,-1.427 1.589,-1.427l27.635,0Zm-5.809,-15.697c0.878,-0 1.589,0.638 1.589,1.427c-0.001,0.788 -0.712,1.427 -1.589,1.427l-16.018,-0c-0.877,-0 -1.588,-0.639 -1.588,-1.427c-0,-0.789 0.711,-1.427 1.588,-1.427l16.018,-0Zm5.809,-10.846c0.878,-0 1.589,0.639 1.589,1.427c-0.001,0.788 -0.712,1.427 -1.589,1.427l-27.635,-0c-0.878,-0 -1.589,-0.639 -1.589,-1.427c-0,-0.788 0.711,-1.427 1.589,-1.427l27.635,-0Z" style="fill:#737373;fill-rule:nonzero;"/><path d="M29.604,2c1.078,0 2.153,0.058 3.195,0.172l11.093,1.568c13.742,2.32 22.592,15.174 22.592,32.752l-0,54.081c-0.001,0.788 -0.712,1.427 -1.589,1.427l-51.354,-0c-0.495,-0 -0.962,-0.207 -1.262,-0.561l-9.953,-11.718c-0.211,-0.249 -0.326,-0.553 -0.326,-0.866l0,-43.297c0,-20.072 11.093,-33.558 27.604,-33.558Zm3.836,2.283l-0.907,-0.128c-0.956,-0.103 -1.941,-0.155 -2.929,-0.155c-15.442,0 -25.604,12.786 -25.604,31.558l0,43.044l9.13,10.749l-0,-53.43c-0,-16.897 8.044,-28.82 20.31,-31.638Zm5.778,1.36c-14.408,-0 -24.088,12.168 -24.088,30.278l-0,53.225l48.177,0l0,-53.225c0,-18.11 -9.68,-30.278 -24.089,-30.278Zm9.168,60.417c0.877,0 1.588,0.639 1.588,1.427c0,0.789 -0.711,1.428 -1.588,1.428l-17.64,-0c-0.877,-0 -1.588,-0.639 -1.588,-1.428c0,-0.788 0.711,-1.427 1.588,-1.427l17.64,0Zm4.998,-12.558c0.878,0 1.589,0.639 1.589,1.427c-0.001,0.789 -0.712,1.427 -1.589,1.427l-27.635,0c-0.878,0 -1.589,-0.638 -1.589,-1.427c-0,-0.788 0.711,-1.427 1.589,-1.427l27.635,0Zm-5.809,-15.697c0.878,-0 1.589,0.638 1.589,1.427c-0.001,0.788 -0.712,1.427 -1.589,1.427l-16.018,-0c-0.877,-0 -1.588,-0.639 -1.588,-1.427c-0,-0.789 0.711,-1.427 1.588,-1.427l16.018,-0Zm5.809,-10.846c0.878,-0 1.589,0.639 1.589,1.427c-0.001,0.788 -0.712,1.427 -1.589,1.427l-27.635,-0c-0.878,-0 -1.589,-0.639 -1.589,-1.427c-0,-0.788 0.711,-1.427 1.589,-1.427l27.635,-0Z"/></svg>