<?xml version="1.0" encoding="UTF-8" standalone="no"?><!DOCTYPE svg PUBLIC "-//W3C//DTD SVG 1.1//EN" "http://www.w3.org/Graphics/SVG/1.1/DTD/svg11.dtd"><svg width="180" height="252" viewBox="0 0 180 252" version="1.1" xmlns="http://www.w3.org/2000/svg" xmlns:xlink="http://www.w3.org/1999/xlink" xml:space="preserve" xmlns:serif="http://www.serif.com/" style="fill-rule:evenodd;clip-rule:evenodd;stroke-linejoin:round;stroke-miterlimit:2;"><g id="Masks"><path id="Pinline" d="M167.76,140.16c4.251,5.6 4.706,11.2 0.36,16.8l0,77.04l-67.68,0c-2.033,-2.483 -5.208,-4.175 -10.44,-4.44c-5.232,0.265 -8.407,1.957 -10.44,4.44l-67.68,0l0,-77.04c-4.346,-5.6 -3.891,-11.2 0.36,-16.8l155.52,0Zm-1.2,17.64l-153.12,0l-0,74.64l65.76,0c2.117,-2.502 5.698,-3.916 10.8,-4.2l0.119,0.007c5.039,0.299 8.581,1.711 10.681,4.193l65.76,0l0,-74.64Zm-153.24,-2.04l153.36,0c3.169,-4.52 3.175,-9.04 0,-13.56l-153.36,0c-3.175,4.52 -3.169,9.04 0,13.56Zm25.333,-15.96c-12.171,-3.817 -22.594,-8.911 -31.573,-16.2l0,2.88c7.654,6.016 16.326,9.976 24.6,13.32l6.973,0Zm102.694,0c12.171,-3.817 22.594,-8.911 31.573,-16.2l0,2.88c-7.654,6.016 -16.326,9.976 -24.6,13.32l-6.973,0Zm-17.147,-128.04c0.402,0.133 0.802,0.267 1.2,0.402l0,-0.402l-7.92,-2.88l50.52,0c0.455,2.719 2.12,4.254 4.92,4.68l0,11.28c-3.092,0.465 -4.77,1.997 -4.92,4.68l-7.44,0c-1.32,-1.363 -2.675,-2.439 -4.08,-3.12l-0.84,0c8.894,6.264 10.586,10.511 10.92,18.48l0,82.92l-2.16,1.2l0,-84.12c0.288,-7.615 -3.789,-13.864 -13.08,-18.48c-9.409,-5.735 -20.859,-10.45 -33.36,-14.64c-3.975,-1.23 -8.3,-2.47 -12,-2.64l-2.76,2.64l-13.2,12.48l-13.2,-12.48l-2.76,-2.64c-3.7,0.17 -8.025,1.41 -12,2.64l-0.293,0.098c-12.288,4.132 -23.552,8.777 -32.846,14.408l-0.221,0.134c-9.291,4.616 -13.368,10.865 -13.08,18.48l0,84.12l-2.16,-1.2l0,-82.92c0.334,-7.969 2.026,-12.216 10.92,-18.48l-0.84,0c-1.405,0.681 -2.76,1.757 -4.08,3.12l-7.44,0c-0.15,-2.683 -1.828,-4.215 -4.92,-4.68l0,-11.28c2.8,-0.426 4.465,-1.961 4.92,-4.68l50.52,0l-7.92,2.88l0,0.402c0.398,-0.135 0.798,-0.269 1.2,-0.402l0.115,-0.051c4.898,-2.185 15.048,-5.172 20.525,-4.989l27.12,0c5.52,-0.184 15.787,2.851 20.64,5.04Zm-115.2,112.8l0,-88.92l-1.92,-1.8l0,89.04l1.92,1.68Zm162,0l0,-88.92l1.92,-1.8l0,89.04l-1.92,1.68Zm-156,-89.16l-0.96,2.16c-2.957,-0.948 -5.34,-2.411 -6.96,-4.56l0,-4.44c1.001,3.39 4.14,6.031 7.92,6.84Zm150,0l0.96,2.16c2.957,-0.948 5.34,-2.411 6.96,-4.56l0,-4.44c-1.001,3.39 -4.14,6.031 -7.92,6.84Zm-39.019,-23.04c10.523,3.619 20.068,8.223 28.872,13.56l11.827,0c3.169,-4.52 3.175,-9.04 0,-13.56l-40.699,0Zm-71.962,0c-10.522,3.619 -20.067,8.223 -28.872,13.56l-11.827,0c-3.169,-4.52 -3.175,-9.04 0,-13.56l40.699,0Zm35.981,8.76l-9.84,-9.36l-3.24,-2.88l7.08,0c2.017,-1.16 9.983,-1.166 12,0l7.08,0l-3.24,2.88l-9.84,9.36Z" style="fill:#007b43;"/></g></svg>