<?xml version="1.0" encoding="UTF-8" standalone="no"?><!DOCTYPE svg PUBLIC "-//W3C//DTD SVG 1.1//EN" "http://www.w3.org/Graphics/SVG/1.1/DTD/svg11.dtd"><svg width="180" height="252" viewBox="0 0 180 252" version="1.1" xmlns="http://www.w3.org/2000/svg" xmlns:xlink="http://www.w3.org/1999/xlink" xml:space="preserve" xmlns:serif="http://www.serif.com/" style="fill-rule:evenodd;clip-rule:evenodd;stroke-linejoin:round;stroke-miterlimit:2;"><g id="Masks"><g id="Type"><path d="M13.32,155.76c-3.169,-4.52 -3.175,-9.04 -0,-13.56l153.36,0c3.175,4.52 3.169,9.04 0,13.56l-153.36,0Z" style="fill:#ef3827;"/><path d="M13.123,155.898c0.045,0.064 0.119,0.102 0.197,0.102l153.36,0c0.078,0 0.152,-0.038 0.197,-0.102c3.233,-4.612 3.239,-9.224 -0.001,-13.836c-0.045,-0.064 -0.118,-0.102 -0.196,-0.102l-153.36,0c-0.078,0 -0.151,0.038 -0.196,0.102c-3.24,4.612 -3.234,9.224 -0.001,13.836Zm0.197,-0.138c-3.169,-4.52 -3.175,-9.04 0,-13.56l153.36,0c3.175,4.52 3.169,9.04 0,13.56l-153.36,0Z"/></g></g></svg>