<?xml version="1.0" encoding="UTF-8" standalone="no"?>
<!DOCTYPE svg PUBLIC "-//W3C//DTD SVG 1.1//EN" "http://www.w3.org/Graphics/SVG/1.1/DTD/svg11.dtd">
<svg width="1500" height="2100" viewBox="0 0 1500 2100" version="1.1" xmlns="http://www.w3.org/2000/svg" xmlns:xlink="http://www.w3.org/1999/xlink" xml:space="preserve" xmlns:serif="http://www.serif.com/" style="fill-rule:evenodd;clip-rule:evenodd;stroke-linejoin:round;stroke-miterlimit:2;">
    <rect id="Card" x="0" y="0" width="1500" height="2100" style="fill:none;"/>
    <g id="Card1" serif:id="Card">
        <path d="M494.842,244L716.092,244C716.092,244 749.011,262.738 749.011,262.738C749.624,263.087 750.376,263.087 750.989,262.738L783.908,244C795.164,244 982.385,244 1005.16,244C1004.37,250.436 1003.66,257.042 1003.01,263.808C1002.95,264.431 1003.18,265.046 1003.64,265.47C1004.1,265.894 1004.74,266.079 1005.35,265.969C1098.46,249.331 1193.04,241.21 1289,241C1289,241 1440,241 1440,241C1441,241 1441.85,240.257 1441.98,239.262L1448.98,186.262C1449.13,185.173 1448.37,184.172 1447.28,184.019L1412.92,179.197C1412.92,179.197 1447.07,177.999 1447.07,177.999C1448.04,177.965 1448.85,177.235 1448.98,176.27L1454.98,132.27C1455.05,131.742 1454.91,131.206 1454.59,130.783C1454.26,130.359 1453.78,130.083 1453.25,130.016L1420.22,125.812C1420.22,125.812 1454.11,123.997 1454.11,123.997C1455.09,123.944 1455.89,123.185 1455.99,122.206L1458.93,93.802C1458.93,93.802 1485.55,61.266 1485.55,61.266C1486.04,60.668 1486.14,59.842 1485.81,59.144C1485.48,58.445 1484.77,58 1484,58L1400,58C1400,58 1400,33 1400,33C1400,31.895 1399.11,31 1398,31L1001,31C1000.08,31 999.282,31.625 999.06,32.515C994.909,49.12 987.571,61.911 976.747,70.584C966.56,78.745 953.309,83.237 936.843,83.93C940.149,76.493 943.499,69.199 946.823,61.822C947.08,61.251 947.056,60.593 946.757,60.044C946.457,59.494 945.918,59.116 945.3,59.023C905.422,52.979 869.296,49.484 837.031,48.603C837.031,48.603 837.987,40.227 837.987,40.227C838.087,39.35 837.601,38.512 836.79,38.163L750.79,1.163C750.286,0.946 749.714,0.946 749.21,1.163L663.21,38.163C662.399,38.512 661.913,39.35 662.013,40.227L662.969,48.603C630.704,49.484 594.578,52.979 554.7,59.023C554.082,59.116 553.543,59.494 553.243,60.044C552.944,60.593 552.92,61.251 553.177,61.822C556.501,69.199 559.851,76.493 563.157,83.93C546.691,83.237 533.44,78.745 523.253,70.584C512.429,61.911 505.091,49.12 500.94,32.515C500.718,31.625 499.918,31 499,31L102,31C100.895,31 100,31.895 100,33L100,58C100,58 16,58 16,58C15.227,58 14.524,58.445 14.193,59.144C13.862,59.842 13.963,60.668 14.452,61.266L41.072,93.802C41.072,93.802 44.011,122.206 44.011,122.206C44.112,123.185 44.91,123.944 45.893,123.997L79.776,125.812C79.776,125.812 46.747,130.016 46.747,130.016C46.218,130.083 45.738,130.359 45.413,130.783C45.088,131.206 44.946,131.742 45.018,132.27L51.018,176.27C51.15,177.235 51.957,177.965 52.93,177.999L87.081,179.197C87.081,179.197 52.722,184.019 52.722,184.019C51.634,184.172 50.873,185.173 51.017,186.262L58.017,239.262C58.149,240.257 58.997,241 60,241L210.998,241C306.959,241.21 401.544,249.331 494.648,265.969C495.264,266.079 495.896,265.894 496.356,265.47C496.816,265.046 497.051,264.431 496.991,263.808C496.339,257.042 495.628,250.436 494.842,244L494.842,244Z" style="fill:rgb(0,123,67);"/>
    </g>
</svg>
