<?xml version="1.0" encoding="UTF-8" standalone="no"?>
<!DOCTYPE svg PUBLIC "-//W3C//DTD SVG 1.1//EN" "http://www.w3.org/Graphics/SVG/1.1/DTD/svg11.dtd">
<svg width="1500" height="2100" viewBox="0 0 1500 2100" version="1.1" xmlns="http://www.w3.org/2000/svg" xmlns:xlink="http://www.w3.org/1999/xlink" xml:space="preserve" xmlns:serif="http://www.serif.com/" style="fill-rule:evenodd;clip-rule:evenodd;stroke-linejoin:round;stroke-miterlimit:2;">
    <rect id="Card" x="0" y="0" width="1500" height="2100" style="fill:none;"/>
    <g id="Card1" serif:id="Card">
        <path d="M1008.93,218L817.698,218L816.987,224.227C816.915,224.861 816.544,225.422 815.989,225.738L783.908,244L1005.16,244C1006.26,235.017 1007.5,226.347 1008.93,218ZM682.302,218L491.073,218C492.498,226.347 493.742,235.017 494.84,244L716.092,244L684.011,225.738C683.456,225.422 683.085,224.861 683.013,224.227L682.302,218ZM439.533,104L571.72,104C568.931,97.098 566.062,90.46 563.159,83.933C549.318,83.353 537.746,80.084 528.348,74.2C514.702,65.656 505.713,51.606 500.94,32.515C500.718,31.625 499.918,31 499,31L102,31C100.895,31 100,31.895 100,33L100,58L288,58C288.012,58 288.023,58 288.035,58C361.377,59.286 408.608,74.947 439.533,104ZM928.28,104L1060.47,104C1091.39,74.947 1138.62,59.286 1211.96,58C1211.98,58 1211.99,58 1212,58L1400,58L1400,33C1400,31.895 1399.11,31 1398,31L1001,31C1000.08,31 999.282,31.625 999.06,32.515C994.287,51.606 985.298,65.656 971.652,74.2C962.254,80.084 950.682,83.353 936.841,83.933C933.938,90.46 931.069,97.098 928.28,104Z" style="fill:rgb(0,123,67);"/>
    </g>
</svg>
