<?xml version="1.0" encoding="UTF-8" standalone="no"?>
<!DOCTYPE svg PUBLIC "-//W3C//DTD SVG 1.1//EN" "http://www.w3.org/Graphics/SVG/1.1/DTD/svg11.dtd">
<svg width="1500" height="2100" viewBox="0 0 1500 2100" version="1.1" xmlns="http://www.w3.org/2000/svg" xmlns:xlink="http://www.w3.org/1999/xlink" xml:space="preserve" xmlns:serif="http://www.serif.com/" style="fill-rule:evenodd;clip-rule:evenodd;stroke-linejoin:round;stroke-miterlimit:2;">
    <rect id="Card" x="0" y="0" width="1500" height="2100" style="fill:none;"/>
    <g id="Card1" serif:id="Card">
        <path d="M491.073,218C493.522,232.341 495.432,247.616 496.991,263.808C497.051,264.431 496.816,265.046 496.356,265.47C495.896,265.894 495.264,266.079 494.648,265.969C401.544,249.331 306.959,241.21 210.998,241L60,241C58.997,241 58.149,240.257 58.017,239.262L51.017,186.262C50.873,185.173 51.634,184.172 52.722,184.019L87.081,179.197L52.93,177.999C51.957,177.965 51.15,177.235 51.018,176.27L45.018,132.27C44.946,131.742 45.088,131.206 45.413,130.783C45.738,130.359 46.218,130.083 46.747,130.016L79.776,125.812L45.893,123.997C44.91,123.944 44.112,123.185 44.011,122.206L41.072,93.802L14.452,61.266C13.963,60.668 13.862,59.842 14.193,59.144C14.524,58.445 15.227,58 16,58L288.035,58C361.377,59.286 408.608,74.947 439.533,104L396.869,104L406.835,218L491.073,218ZM1060.47,104C1091.39,74.947 1138.62,59.286 1211.96,58L1484,58C1484.77,58 1485.48,58.445 1485.81,59.144C1486.14,59.842 1486.04,60.668 1485.55,61.266L1458.93,93.802L1455.99,122.206C1455.89,123.185 1455.09,123.944 1454.11,123.997L1420.22,125.812L1453.25,130.016C1453.78,130.083 1454.26,130.359 1454.59,130.783C1454.91,131.206 1455.05,131.742 1454.98,132.27L1448.98,176.27C1448.85,177.235 1448.04,177.965 1447.07,177.999L1412.92,179.197L1447.28,184.019C1448.37,184.172 1449.13,185.173 1448.98,186.262L1441.98,239.262C1441.85,240.257 1441,241 1440,241L1289,241C1193.04,241.21 1098.46,249.331 1005.35,265.969C1004.74,266.079 1004.1,265.894 1003.64,265.47C1003.18,265.046 1002.95,264.431 1003.01,263.808C1004.57,247.616 1006.48,232.341 1008.93,218L1388,218C1401.52,199 1406.29,180 1406.29,161C1406.29,142 1401.52,123 1388,104L1060.47,104Z" style="fill:rgb(0,123,67);"/>
    </g>
</svg>
