<?xml version="1.0" encoding="UTF-8" standalone="no"?><!DOCTYPE svg PUBLIC "-//W3C//DTD SVG 1.1//EN" "http://www.w3.org/Graphics/SVG/1.1/DTD/svg11.dtd"><svg width="1500" height="2100" viewBox="0 0 1500 2100" version="1.1" xmlns="http://www.w3.org/2000/svg" xmlns:xlink="http://www.w3.org/1999/xlink" xml:space="preserve" xmlns:serif="http://www.serif.com/" style="fill-rule:evenodd;clip-rule:evenodd;stroke-linejoin:round;stroke-miterlimit:2;"><path id="frame-mask" serif:id="frame mask" d="M749.225,1911.97c-32.708,-1.142 -62.775,13.6 -91.225,38.033l-472,0l-8,-10l-51,0l-52,-75l-0,-636l-30,-55l27,-39l151,0l37.892,37.892l-125.892,4.108l-19,29l-0,666l21,30l64,0l15,21l441,0l17,-14l152,0l17,14l441,0l15,-21l64,0l21,-30l0,-666l-19,-29l-125.892,-4.108l37.892,-37.892l155,-0l25,37l-28,49.667l-0,639.333l-56,79l-51,0l-8,10l-472,0c-28.675,-24.625 -58.983,-39.408 -92,-38l-0.775,-0.033Zm-356.225,-1665.97l-31,23l-214,0l-9,-22l-45,0l-14,-39c198.692,6.892 421.875,8.583 670,8l11.608,0.025c243.467,0.5 462.8,-1.242 658.392,-8.025l-14,39l-45,0l-9,22l-214,0l-31,-23l-714,0Zm-296,-108l-1,-9c-0,0 -4.6,0.142 -7,-2c-2.158,-1.925 -2,-4 -2,-4l-7,-1l-5,-20l-8,-2l-19,-54c168.817,22.458 412.692,31.725 702,33l6.775,-0.033c286.367,-1.384 529.725,-10.684 697.225,-32.967l-19,54l-8,2l-5,20l-9,1c-0,0 0.158,2.075 -2,4c-2.4,2.142 -7,2 -7,2l-1,9l-653,-1l-653,1Z" style="fill:#007b43;"/></svg>