<?xml version="1.0" encoding="UTF-8" standalone="no"?>
<!DOCTYPE svg PUBLIC "-//W3C//DTD SVG 1.1//EN" "http://www.w3.org/Graphics/SVG/1.1/DTD/svg11.dtd">
<svg width="1500" height="2100" viewBox="0 0 1500 2100" version="1.1" xmlns="http://www.w3.org/2000/svg" xmlns:xlink="http://www.w3.org/1999/xlink" xml:space="preserve" xmlns:serif="http://www.serif.com/" style="fill-rule:evenodd;clip-rule:evenodd;stroke-linejoin:round;stroke-miterlimit:2;">
    <path id="Back" d="M1385,45L115,45L115,2055L1385,2055L1385,45ZM1300.5,1007L199.5,1007L199.5,303L1300.5,303L1300.5,1007Z" style="fill:white;"/>
    <g id="Pinline" transform="matrix(1,0,0,1,-2.5,7)">
        <path d="M1318,281C1318,281 1318,138 1318,138L187,138L187,1948L1318,1948L1318,281ZM1303,1836L202,1836L202,1933L1303,1933L1303,1836ZM1303,1822L202,1822L202,1174L1303,1174L1303,1822ZM1303,1015L202,1015L202,1159L1303,1159L1303,1015ZM1303,1000L202,1000L202,296L1303,296L1303,1000ZM1303,153L202,153L202,281L1303,281L1303,153Z" style="fill:rgb(0,117,190);"/>
        <path d="M1318,281C1318,281 1318,138 1318,138L187,138L187,1948L1318,1948L1318,281ZM1316,281C1316,281 1316,1881.55 1316,1946C1316,1946 189,1946 189,1946C189,1880.07 189,205.926 189,140C240.372,140 1264.63,140 1316,140L1316,281ZM1305,1935L1305,1834L200,1834L200,1935L1305,1935ZM1303,1836L202,1836L202,1933L1303,1933L1303,1836ZM200,1824L1305,1824L1305,1172L200,1172L200,1824ZM1303,1822L202,1822L202,1174L1303,1174L1303,1822ZM1305,1161L1305,1013L200,1013L200,1161L1305,1161ZM1303,1015L202,1015L202,1159L1303,1159L1303,1015ZM200,1002L1305,1002L1305,294L200,294L200,1002ZM1303,1000L202,1000L202,296L1303,296L1303,1000ZM1305,283L1305,151L200,151L200,283L1305,283ZM1303,153L202,153L202,281L1303,281L1303,153Z"/>
    </g>
</svg>
