<?xml version="1.0" encoding="UTF-8" standalone="no"?>
<!DOCTYPE svg PUBLIC "-//W3C//DTD SVG 1.1//EN" "http://www.w3.org/Graphics/SVG/1.1/DTD/svg11.dtd">
<svg width="1500" height="2100" viewBox="0 0 1500 2100" version="1.1" xmlns="http://www.w3.org/2000/svg" xmlns:xlink="http://www.w3.org/1999/xlink" xml:space="preserve" xmlns:serif="http://www.serif.com/" style="fill-rule:evenodd;clip-rule:evenodd;stroke-linejoin:round;stroke-miterlimit:2;">
    <rect id="Card" x="0" y="0" width="1500" height="2100" style="fill:none;"/>
    <g id="Card1" serif:id="Card">
        <path d="M1309.76,1907.42L1310.91,1907L189.087,1907C238.414,1925.01 299.902,1934.58 370,1933L1130,1933C1199.55,1934.57 1260.63,1925.16 1309.76,1907.42ZM78.439,1826.2C66.359,1805.36 60.414,1781.66 60,1765L60,85C62.855,71.038 71.263,62.781 85,60L1415,60C1428.74,62.781 1437.14,71.038 1440,85L1440,1765C1439.59,1781.66 1433.64,1805.36 1421.56,1826.2C1419.47,1801.67 1410.41,1780.76 1400,1768.79L1400,227.213C1411.64,213.828 1421.59,189.276 1422,161C1421.52,127.948 1408,99.984 1394,89L106,89C91.996,99.984 78.481,127.948 78,161C78.412,189.278 88.364,213.833 100,227.213L100,1768.79C89.587,1780.76 80.526,1801.68 78.439,1826.2Z" style="fill:rgb(0,123,67);"/>
    </g>
</svg>
