<?xml version="1.0" encoding="UTF-8" standalone="no"?>
<!DOCTYPE svg PUBLIC "-//W3C//DTD SVG 1.1//EN" "http://www.w3.org/Graphics/SVG/1.1/DTD/svg11.dtd">
<svg width="1500" height="2100" viewBox="0 0 1500 2100" version="1.1" xmlns="http://www.w3.org/2000/svg" xmlns:xlink="http://www.w3.org/1999/xlink" xml:space="preserve" xmlns:serif="http://www.serif.com/" style="fill-rule:evenodd;clip-rule:evenodd;stroke-linejoin:round;stroke-miterlimit:2;">
    <rect id="Card" x="0" y="0" width="1500" height="2100" style="fill:none;"/>
    <g id="Card1" serif:id="Card">
        <path id="Type--Regular-" serif:id="Type (Regular)" d="M100,227.213C88.364,213.833 78.412,189.278 78,161C78.481,127.948 91.996,99.984 106,89L1394,89C1408,99.984 1421.52,127.948 1422,161C1421.59,189.276 1411.64,213.828 1400,227.213L1400,1768.79C1411.64,1782.17 1421.59,1806.72 1422,1835C1421.52,1868.05 1408,1896.02 1394,1907L106,1907C91.996,1896.02 78.481,1868.05 78,1835C78.412,1806.72 88.362,1782.17 100,1768.79L100,227.213ZM1388.24,1774.01C1389.44,1774.08 1390.56,1774.69 1391.26,1775.68C1405.33,1795.45 1410.29,1815.23 1410.29,1835C1410.29,1854.77 1405.33,1874.55 1391.26,1894.32C1390.51,1895.37 1389.29,1896 1388,1896L112,1896C110.706,1896 109.492,1895.37 108.741,1894.32C94.667,1874.55 89.714,1854.77 89.714,1835C89.714,1815.23 94.667,1795.45 108.741,1775.68C109.492,1774.63 110.706,1774 112,1774L1388,1774L1388.24,1774.01ZM111,233L111,1763L1389,1763L1389,233L111,233ZM112,100L1388,100C1389.29,100 1390.51,100.626 1391.26,101.68C1405.33,121.453 1410.29,141.227 1410.29,161C1410.29,180.773 1405.33,200.547 1391.26,220.32C1390.51,221.374 1389.29,222 1388,222L112,222C110.706,222 109.492,221.374 108.741,220.32C94.667,200.547 89.714,180.773 89.714,161C89.714,141.227 94.667,121.453 108.741,101.68C109.492,100.626 110.706,100 112,100Z" style="fill:rgb(239,56,39);"/>
    </g>
</svg>
