<?xml version="1.0" encoding="UTF-8" standalone="no"?>
<!DOCTYPE svg PUBLIC "-//W3C//DTD SVG 1.1//EN" "http://www.w3.org/Graphics/SVG/1.1/DTD/svg11.dtd">
<svg width="1500" height="2100" viewBox="0 0 1500 2100" version="1.1" xmlns="http://www.w3.org/2000/svg" xmlns:xlink="http://www.w3.org/1999/xlink" xml:space="preserve" xmlns:serif="http://www.serif.com/" style="fill-rule:evenodd;clip-rule:evenodd;stroke-linejoin:round;stroke-miterlimit:2;">
    <path d="M198.367,1314.41L1365.63,1314.41C1376.77,1316.52 1383.02,1322.87 1384.6,1333.29C1384.6,1347.16 1384.6,1849.1 1384.6,1877.73C1374.81,1891.24 1359.68,1899.88 1340.39,1905.9C1309.58,1915.5 1268.41,1918.32 1220.85,1922C1207.85,1922 378.15,1922 365.154,1922C317.471,1918.31 268.337,1915.47 231.163,1905.84C207.892,1899.82 189.37,1891.26 179.406,1877.72C179.406,1877.72 179.406,1333.29 179.406,1333.29C180.98,1322.87 187.237,1316.53 198.363,1314.41L198.367,1314.41Z" style="fill:rgb(0,123,67);"/>
</svg>
