<?xml version="1.0" encoding="UTF-8" standalone="no"?>
<!DOCTYPE svg PUBLIC "-//W3C//DTD SVG 1.1//EN" "http://www.w3.org/Graphics/SVG/1.1/DTD/svg11.dtd">
<svg width="1500" height="2100" viewBox="0 0 1500 2100" version="1.1" xmlns="http://www.w3.org/2000/svg" xmlns:xlink="http://www.w3.org/1999/xlink" xml:space="preserve" xmlns:serif="http://www.serif.com/" style="fill-rule:evenodd;clip-rule:evenodd;stroke-linejoin:round;stroke-miterlimit:2;">
    <path d="M100,1308.21C88.362,1294.83 78.412,1270.28 78,1242C78.481,1208.95 91.996,1180.98 106,1170L1394,1170L1394.33,1170.26C1408.21,1181.42 1421.52,1209.21 1422,1242C1421.59,1270.28 1411.64,1294.83 1400,1308.21L1400,1749.8L1452.2,1802L1400,1854.2L1400,1948L100,1948L100,1308.21ZM1389,1314L1389,1754.36L1436.64,1802L1389,1849.64L1389,1937L111,1937L111,1314L1389,1314ZM1388.24,1181.01C1389.44,1181.08 1390.56,1181.69 1391.26,1182.68C1405.33,1202.45 1410.29,1222.23 1410.29,1242C1410.29,1261.77 1405.33,1281.55 1391.26,1301.32C1390.51,1302.37 1389.29,1303 1388,1303L112,1303C110.706,1303 109.492,1302.37 108.741,1301.32C94.667,1281.55 89.714,1261.77 89.714,1242C89.714,1222.23 94.667,1202.45 108.741,1182.68C109.492,1181.63 110.706,1181 112,1181L1388,1181L1388.24,1181.01ZM89,207.446C78.397,194.906 72,178.694 72,161C72,121.262 104.262,89 144,89L1394,89C1408,99.984 1421.52,127.948 1422,161C1421.52,194.052 1408,222.016 1394,233L144,233C121.957,233 102.215,223.073 89,207.446L89,207.446ZM182.244,100C202.516,112.744 216,135.309 216,161C216,186.691 202.516,209.256 182.244,222L1388,222C1389.29,222 1390.51,221.374 1391.26,220.32C1405.33,200.547 1410.29,180.773 1410.29,161C1410.29,141.227 1405.33,121.453 1391.26,101.68C1390.51,100.626 1389.29,100 1388,100L182.244,100ZM144,100C177.667,100 205,127.333 205,161C205,194.667 177.667,222 144,222C110.333,222 83,194.667 83,161C83,127.333 110.333,100 144,100Z" style="fill:rgb(0,123,67);"/>
</svg>
