<?xml version="1.0" encoding="UTF-8" standalone="no"?>
<!DOCTYPE svg PUBLIC "-//W3C//DTD SVG 1.1//EN" "http://www.w3.org/Graphics/SVG/1.1/DTD/svg11.dtd">
<svg width="1500" height="2100" viewBox="0 0 1500 2100" version="1.1" xmlns="http://www.w3.org/2000/svg" xmlns:xlink="http://www.w3.org/1999/xlink" xml:space="preserve" xmlns:serif="http://www.serif.com/" style="fill-rule:evenodd;clip-rule:evenodd;stroke-linejoin:round;stroke-miterlimit:2;">
    <path id="Pinline--Back-" serif:id="Pinline (Back)" d="M358.074,1939.45C377.032,1939.36 400.005,1938.83 411.499,1938.17C461.869,1935.33 479.527,1934.92 584.666,1934.23C644.708,1933.83 694.189,1933.14 694.62,1932.71C694.944,1932.39 714.515,1932.25 749.748,1932.3C753.587,1932.74 757.932,1933.04 760.5,1933.03C776.43,1932.93 780.409,1933.01 792.499,1933.67C812.756,1934.78 830.993,1934.52 835.5,1933.05C835.986,1932.89 836.716,1932.74 837.677,1932.6C852.406,1932.67 868.12,1932.76 884.752,1932.85L885.146,1933.98C886.376,1937.52 887.948,1937.65 896.501,1934.9C898.706,1934.19 931.665,1933.69 973.892,1933.43C998.533,1933.6 1024.45,1933.79 1051.5,1934C1098.01,1934.36 1140.9,1934.68 1168.85,1934.88C1171.93,1935.66 1173.79,1935.69 1178.2,1934.95L1186.88,1935.01L1191.23,1935.04C1192.52,1936.62 1193.53,1936.96 1195.22,1936.41C1198.26,1935.41 1212.27,1935.87 1213.39,1937C1214.67,1938.27 1219.77,1937.11 1222.35,1935.04C1233.29,1935.01 1247.26,1934.97 1261.5,1934.92L1266.21,1934.91C1275.56,1935.33 1279.89,1935.3 1295.52,1934.89C1312.33,1934.91 1327.2,1934.98 1334.5,1935.09C1349.36,1935.31 1358.53,1935.01 1362.75,1934.16C1377.6,1931.19 1385.44,1946.38 1373.3,1954.6C1371.88,1955.56 1365.5,1956.24 1356.19,1956.64C1355.04,1956.49 1353.95,1956.33 1353,1956.16C1344.54,1954.7 1335.6,1954.71 1325.31,1956.2C1318.17,1957.23 1316.34,1957.17 1312.26,1955.81C1307.4,1954.18 1298.59,1954.22 1292.43,1955.9C1290.75,1956.36 1287.15,1956.38 1284.43,1955.93C1281.72,1955.48 1276.94,1955.09 1273.81,1955.06C1270.68,1955.03 1267.88,1954.62 1267.6,1954.15C1267.31,1953.69 1260.7,1953.04 1252.92,1952.7C1242.43,1952.26 1238.34,1951.71 1237.11,1950.6C1235.15,1948.83 1198.58,1949.2 1181.75,1951.18C1168.78,1952.7 1160.67,1952.01 1159.68,1952.25C1157.43,1952.8 1150.03,1953.09 1149.47,1952.29C1148.43,1950.79 1147.98,1950.77 1146.57,1951.94C1144.68,1953.51 1076.36,1952.81 1055,1951.02C1048.68,1950.48 1020.98,1950.06 993.458,1950.08C962.873,1950.09 939.154,1949.66 932.456,1948.97C924.353,1948.13 919.159,1948.12 912.499,1948.94C906.375,1949.7 867.821,1950.05 791.794,1950.04C704.018,1950.03 679.916,1950.29 679.294,1951.26C679.258,1951.32 679.208,1951.37 679.144,1951.42L672.559,1951.39L663.998,1951.36C647.345,1949.25 374.181,1948.77 371.531,1950.98C371.277,1951.19 370.801,1951.34 370.201,1951.43L367.844,1951.47C367.538,1951.44 367.23,1951.4 366.926,1951.35C359.235,1950 352.417,1949.86 348.743,1950.96C345.739,1951.86 344.524,1951.85 343.391,1950.91C338.194,1946.6 313.429,1951.52 306.334,1958.28C301.253,1963.13 296.569,1963.01 292.973,1957.96C290.809,1954.92 284.921,1953.7 283.5,1956C282.469,1957.67 273.814,1957.12 268.32,1955.03C267.453,1954.7 266.444,1954.4 265.319,1954.12C265.152,1953.83 265.008,1953.52 264.889,1953.2C264.075,1951.06 263.554,1950.85 260.73,1951.48C258.944,1951.88 254.436,1952.18 249.378,1952.35C246.071,1952.09 243.395,1951.75 242.7,1951.47C241.623,1951.04 240.428,1951.38 239.052,1952.51C236.125,1952.51 233.539,1952.44 231.787,1952.32C230.986,1951.97 230.171,1951.8 229.384,1951.82C228.409,1950.33 227.284,1951.01 220.399,1957.12C219.337,1958.06 218.271,1958.97 217.202,1959.87C214.383,1961.46 211.169,1963.78 209.501,1965.64C209.3,1965.86 209.09,1966.08 208.871,1966.3C205.374,1968.79 201.899,1970.99 198.508,1972.89C186.136,1978.26 168.697,1980.18 159.499,1975.93C155.841,1974.24 153.232,1973.55 150.772,1974.05L150.338,1973.76L142.504,1968.53L132.124,1968.51C114.461,1968.49 114.45,1959.24 132.112,1954.64C135.199,1953.84 139.628,1952.21 141.956,1951.03C144.281,1949.84 148.703,1948.46 151.777,1947.95C156.848,1947.13 159.979,1945.62 174.139,1937.17C177.96,1934.88 184.009,1936.51 185.824,1940.31C187.38,1943.57 190.369,1943.4 197.501,1939.65C200.576,1938.04 203.348,1937.55 209.501,1937.53C209.961,1937.53 210.418,1937.52 210.868,1937.51C211.042,1937.69 211.2,1937.88 211.343,1938.08C212.768,1940.12 212.811,1940.15 216.924,1937.15C217.794,1937.04 218.392,1936.92 218.595,1936.79C223.395,1933.66 233.344,1935.31 233.816,1939.32C234.191,1942.5 235.999,1942.76 238.5,1940C238.554,1939.94 238.627,1939.88 238.716,1939.82C239.103,1939.8 239.527,1939.62 240.072,1939.31C247.387,1937.41 276.189,1937.27 282.289,1939.44C285.765,1940.68 286.451,1940.6 290.674,1938.46C299.775,1933.85 304.016,1933.47 310.65,1936.65L316.5,1939.45L352.5,1939.46C353.171,1939.46 353.85,1939.46 354.538,1939.46C355.678,1939.47 356.859,1939.47 358.074,1939.45ZM103.084,1945.39C100.286,1948.91 97.324,1952.05 96.499,1952.36C94.598,1953.09 94.451,1963.36 96.293,1967C97.391,1969.18 98.456,1969.6 104.527,1970.22C115.099,1971.32 116.629,1968.25 113.43,1952.32C112.811,1949.23 112.901,1949.12 116.569,1948.82C121.946,1948.37 121.811,1946.77 116.04,1942.63C109.399,1937.86 109.02,1937.93 103.084,1945.39ZM41.558,1908.22C39.079,1911.76 39.69,1914.42 44.633,1921.64L49.268,1928.41L46.984,1929.95C31.68,1940.3 34.466,1950.65 50.816,1944.2C58.402,1941.2 59.378,1941.05 67.699,1941.64L76.53,1942.27L83.182,1936.58C96.109,1925.55 94.901,1916.99 80.636,1918.52C77.014,1918.91 72.713,1918.78 70.838,1918.22C69.004,1917.68 64.916,1916.66 61.762,1915.96C57.053,1914.91 55.313,1913.91 52.069,1910.34C47.558,1905.39 44.04,1904.67 41.558,1908.22ZM98.726,1813.75C93.397,1819.64 93.915,1849.83 99.443,1855.94C100.883,1857.53 100.883,1858.08 99.446,1862.09C97.845,1866.57 98.111,1874.94 99.949,1877.92C101.063,1879.72 100.189,1882 98.393,1882C90.521,1882 91.38,1896.3 99.787,1905.25C105.874,1911.72 112.639,1903.07 108.994,1893.48C107.329,1889.11 108.934,1888.71 113.089,1892.46C120.99,1899.6 140.209,1894.36 145.271,1883.67C150.015,1873.67 149.816,1871.57 142.811,1857.5C137.471,1846.77 124.226,1841.57 112.219,1845.5C108.536,1846.71 110.303,1838.86 115.163,1832.41C120.488,1825.34 120.274,1822.99 113.749,1816.92C107.861,1811.44 101.944,1810.19 98.726,1813.75ZM1389.43,1832.93C1389.04,1826.37 1388.47,1821.33 1387.78,1819.58C1386.68,1816.81 1386.84,1816.47 1391.06,1812.83C1398.29,1806.6 1407.6,1807.54 1402.98,1814.03C1400.98,1816.84 1400.92,1817.4 1402.12,1822.09C1403.14,1826.06 1403.15,1827.53 1402.19,1829.07C1398.78,1834.53 1398,1844.8 1398.03,1884C1398.05,1897.88 1395.23,1905.62 1391.52,1901.94C1390.4,1900.83 1389.51,1897.95 1388.98,1894.49C1389.59,1894.15 1389.53,1892.15 1388.73,1888.66C1388.63,1888.22 1388.54,1887.79 1388.46,1887.37C1388.47,1885.3 1388.62,1883.28 1388.94,1881.5C1389.42,1878.79 1389.74,1874.27 1389.92,1868.85C1390.62,1858.34 1390.35,1843.88 1389.43,1832.93ZM44.137,1792.26C42.409,1793.99 42.765,1796.12 45.225,1798.74C47.719,1801.39 46.612,1802.96 42.217,1802.99C37.924,1803.01 38.235,1809.01 42.578,1809.87C43.605,1810.07 46.699,1812.2 49.455,1814.62C55.418,1819.83 55.916,1819.89 60.431,1815.92C63.57,1813.17 64.901,1812.76 73.215,1811.98L82.5,1811.11L87.247,1806.13C96.251,1796.69 93.559,1793.61 75.409,1792.6C49.335,1791.14 45.3,1791.1 44.137,1792.26ZM123,1788.1C114.375,1791.6 111.87,1798.63 117.893,1802.43C120.034,1803.79 122.782,1806.29 124.001,1808C129.409,1815.59 133.26,1809.67 133.436,1793.5L133.5,1787.5L129.499,1787.29C127.301,1787.17 124.376,1787.54 123,1788.1ZM995.738,1782.92C998.842,1782.44 1001.25,1782.22 1001.84,1782.38C1002.46,1782.55 1003.48,1782.84 1004.48,1783.13C1006.25,1784.26 1007.18,1786.62 1008.48,1790.61C1010.71,1797.49 1010.24,1803.59 1007.5,1803.25C1006.4,1803.12 986.374,1802.73 963,1802.39C954.153,1802.26 945.603,1802.2 937.047,1802.22C931.262,1800.76 893.898,1801.49 888.685,1803.18C866.965,1803.95 842.415,1805.23 811.5,1807.11C810.642,1807.16 809.705,1807.21 808.679,1807.26C803.42,1806.93 798.855,1806.42 797.749,1805.84C796.624,1805.25 795.21,1805.35 793.789,1806.11C792.772,1806.66 786.735,1807.41 779.484,1807.95C771.282,1808.05 761.402,1808.13 749.481,1808.2C746.712,1807.69 739.083,1807.43 732.499,1807.63C722.8,1807.93 712.178,1808.18 701.072,1808.38C673.099,1808.44 638.454,1808.47 595.5,1808.48L585.904,1808.48C582.318,1808.44 578.23,1808.44 573.988,1808.48L402.675,1808.5C402.431,1808.08 402.044,1808.04 401.488,1808.39L400.65,1801.5C399.225,1789.74 398.647,1787.25 406.07,1787.44L407.025,1788.5L423.626,1788.54C440.872,1789.02 482.654,1789.25 568.303,1789.32C580.666,1789.48 590.697,1789.66 596.723,1789.85C616.973,1790.45 630.855,1790.44 636.225,1789.8C638.098,1789.58 640.909,1789.43 644.389,1789.35L657.274,1789.35C660.215,1789.4 663.313,1789.48 666.499,1789.59C693.559,1790.54 688.162,1790.54 738.499,1789.66C744.967,1789.55 753.734,1789.43 763.909,1789.31C952.675,1789.14 971.308,1788.37 990,1784.14C992.208,1783.64 994.103,1783.23 995.738,1782.92ZM1174.91,1806.08C1169.52,1807.13 1168.19,1803.24 1172.59,1797.47C1174.67,1794.74 1175.69,1794.18 1177.84,1794.58C1181.62,1795.29 1186.9,1791.77 1187.64,1788.05C1188.85,1781.99 1195.77,1779.74 1197,1785C1197.7,1787.99 1200.32,1788.33 1200.84,1785.5C1201.05,1784.4 1201.67,1782.94 1202.23,1782.25C1203.5,1780.69 1203.5,1780.69 1206.9,1782.45C1211.42,1784.79 1213,1788.15 1213,1795.44C1213,1800.41 1212.7,1802.94 1209.92,1804.09L1208.75,1804.04C1188.43,1803.13 1177.41,1803.78 1174.91,1806.08ZM1155.25,1804.03C1154.68,1802.01 1155.63,1798.73 1158.09,1795.61C1161.09,1791.8 1163.53,1792.56 1163.39,1797.25C1163.26,1801.69 1160.74,1805.83 1158.11,1806C1157.07,1805.48 1156,1804.75 1155.25,1804.03ZM189.3,1788.98C182.261,1789.78 197.13,1807.99 200.351,1805.14C204.011,1801.91 200.374,1787.23 196.14,1788.14C195.788,1788.21 192.709,1788.59 189.3,1788.98ZM1032.58,1804.84C1023.43,1804.6 1017.32,1804.22 1016.57,1803.67C1013.11,1801.14 1020.98,1787.57 1027.42,1784.97C1028.57,1784.51 1029.66,1784.1 1029.85,1784.06C1030.04,1784.03 1031.73,1784.73 1033.61,1785.62C1036.41,1786.95 1037.53,1787.02 1039.92,1786.04C1043.94,1784.37 1052.82,1785.55 1062,1788.98C1066.13,1790.52 1071.4,1792.1 1073.74,1792.48C1076.07,1792.86 1079.63,1794.3 1081.66,1795.67L1085.35,1798.18L1089.43,1796.2C1100.76,1790.69 1111.43,1789.16 1118.38,1792.04C1123.57,1794.19 1124.01,1794.23 1126.4,1792.66C1132.35,1788.76 1139.36,1793.1 1142.36,1802.54C1142.65,1803.48 1126.68,1804.23 1106.03,1804.68C1097.74,1804.22 1090.19,1803.69 1088.16,1803.4C1085.49,1803.01 1083.4,1803.2 1082.71,1803.88C1081.14,1805.46 1042.99,1805.41 1039.52,1803.83C1037.55,1802.93 1036.67,1802.93 1035.77,1803.83C1035.34,1804.26 1034.09,1804.64 1032.58,1804.84ZM293.955,1800.4C296.266,1796.93 299.679,1792.86 302.021,1791.25C306.806,1787.96 310.001,1789.72 310.001,1795.65C310.001,1799.97 311.123,1799.87 317.239,1795C319.999,1792.8 322.841,1791 323.55,1791C328.669,1791 330.54,1795.08 328.946,1802.76C328.763,1803.64 328.616,1804.4 328.466,1805.04C328.212,1805.01 327.97,1805 327.746,1805C326.048,1805 323.869,1804.29 322.905,1803.42C321.945,1802.54 319.208,1801.58 316.826,1801.28C314.449,1800.98 311.981,1800.32 311.347,1799.82C309.998,1798.76 306.083,1799.48 300.634,1801.78C296.996,1803.31 296.693,1803.3 295.451,1801.61C294.923,1800.88 294.501,1800.44 293.955,1800.4ZM345.026,1803.88C345.029,1803.5 345.243,1803.09 345.668,1802.67C346.845,1801.49 349.717,1801.95 351.034,1803.54C351.375,1803.95 351.593,1804.34 351.702,1804.69C349.691,1803.87 347.33,1803.56 345.026,1803.88ZM213.159,1802.44C212.9,1797.47 220.828,1786.23 226.999,1782.95C234.986,1778.7 240.221,1781.23 238.163,1788.33C237.495,1790.62 236.34,1794.68 235.598,1797.34C234.545,1801.11 233.81,1802.97 231.682,1803.95C220.759,1804.66 216.117,1804.34 214.556,1803.05C214.11,1802.68 213.677,1802.47 213.159,1802.44ZM1354.68,1801.66C1354.24,1800.74 1355.3,1799.23 1357.63,1796.82C1364.02,1790.2 1369.13,1787.16 1374.59,1786.73C1384.98,1785.9 1385.2,1787.14 1376.28,1796.07L1369.35,1803L1363.85,1803C1363.39,1802.84 1362.98,1802.67 1362.64,1802.49C1359.63,1800.92 1355.98,1800.56 1354.68,1801.66ZM244.706,1802.91C243.598,1799.17 248.334,1784.83 251.786,1782.21C253.47,1780.94 268.898,1781.2 271.069,1782.54C273.102,1783.8 271.294,1796.51 268.855,1801.68L263.79,1801.76C259.23,1801.83 252.799,1802.15 249.499,1802.46C247.828,1802.62 246.232,1802.77 244.706,1802.91ZM101.055,1740.43C97.815,1744.34 95.933,1768.31 98.284,1775.67C99.135,1778.33 100.429,1783.2 101.164,1786.5C102.589,1792.9 106.106,1795.5 107.704,1791.34C108.083,1790.34 110.805,1787.17 113.749,1784.3C119.479,1778.7 119.411,1778.99 117.439,1769.32C117.195,1768.11 114.945,1765.45 112.44,1763.4C106.571,1758.59 104.704,1754.21 105.574,1747.27C106.425,1740.44 104.04,1736.84 101.055,1740.43ZM123.339,1384L122.854,1384L124.095,1382.42C124.127,1382.35 124.158,1382.27 124.189,1382.2C124.789,1380.71 126.161,1377.5 127.234,1375.06C132.96,1362.05 125.726,1353.49 118.005,1364.15C116.351,1366.43 114.983,1368.8 114.964,1369.4C114.911,1371 110.996,1375.31 107.228,1377.91C101.029,1382.19 99.72,1389.46 104.572,1392.64C109.951,1396.16 119.201,1391.69 123.339,1384ZM103.084,1316.39C100.286,1319.91 97.324,1323.05 96.499,1323.36C94.598,1324.09 94.451,1334.36 96.293,1338C97.391,1340.18 98.456,1340.6 104.527,1341.22C115.099,1342.32 116.629,1339.25 113.43,1323.32C112.811,1320.23 112.901,1320.12 116.569,1319.82C121.946,1319.37 121.811,1317.77 116.04,1313.63C109.399,1308.86 109.02,1308.93 103.084,1316.39ZM140.235,1322.82C140.567,1328.22 140.629,1334.01 140.4,1339.52L132.124,1339.51C114.461,1339.49 114.45,1330.24 132.112,1325.64C134.548,1325.01 137.819,1323.86 140.235,1322.82ZM1388.01,1196.5C1387.23,1197.43 1387.04,1199.02 1387.49,1200.74C1387.89,1202.26 1388.16,1204.85 1388.09,1206.5C1386.8,1236.4 1386.62,1270.89 1387.72,1273.4C1388.59,1275.37 1389,1281.57 1389,1292.69C1389,1312.52 1389.84,1315.53 1395.67,1316.55C1397.78,1316.92 1400.5,1317.85 1401.72,1318.61C1404.7,1320.48 1408.45,1320.37 1410.13,1318.35C1411.84,1316.29 1412.17,1310.02 1412.1,1281.5C1412.08,1274.9 1412.54,1267.72 1413.13,1265.55C1414.19,1261.58 1414.11,1261.07 1410.89,1250C1409.99,1246.91 1409.57,1238.53 1409.54,1223.16L1409.5,1200.83L1406.66,1199.33C1399.68,1195.67 1389.93,1194.18 1388.01,1196.5ZM41.558,1279.22C39.079,1282.76 39.69,1285.42 44.633,1292.64L49.268,1299.41L46.984,1300.95C31.68,1311.3 34.466,1321.65 50.816,1315.2C58.402,1312.2 59.378,1312.05 67.699,1312.64L76.53,1313.27L83.182,1307.58C96.109,1296.55 94.901,1287.99 80.636,1289.52C77.014,1289.91 72.713,1289.78 70.838,1289.22C69.004,1288.68 64.916,1287.66 61.762,1286.96C57.053,1285.91 55.313,1284.91 52.069,1281.34C47.558,1276.39 44.04,1275.67 41.558,1279.22ZM130.389,1217.15C135.706,1219.33 140.202,1223.26 142.811,1228.5C149.816,1242.57 150.015,1244.67 145.271,1254.67C140.209,1265.36 120.99,1270.6 113.089,1263.46C108.934,1259.71 107.329,1260.11 108.994,1264.48C112.639,1274.07 105.874,1282.72 99.787,1276.25C91.38,1267.3 90.521,1253 98.393,1253C100.189,1253 101.063,1250.71 99.949,1248.92C98.111,1245.94 97.845,1237.57 99.446,1233.09C100.883,1229.08 100.883,1228.53 99.443,1226.94C93.915,1220.83 93.397,1190.64 98.726,1184.75C101.944,1181.19 107.861,1182.44 113.749,1187.92C120.274,1193.99 120.488,1196.34 115.163,1203.41C110.303,1209.86 108.536,1217.71 112.219,1216.5C117.861,1214.66 123.777,1214.83 129.017,1216.64C129.355,1216.84 129.81,1217.01 130.389,1217.15ZM44.137,1163.26C42.409,1164.99 42.765,1167.12 45.225,1169.74C47.719,1172.39 46.612,1173.96 42.217,1173.99C37.924,1174.01 38.235,1180.01 42.578,1180.87C43.605,1181.07 46.699,1183.2 49.455,1185.62C55.418,1190.83 55.916,1190.89 60.431,1186.92C63.57,1184.17 64.901,1183.76 73.215,1182.98L82.5,1182.11L87.247,1177.13C96.251,1167.69 93.559,1164.61 75.409,1163.6C49.335,1162.14 45.3,1162.1 44.137,1163.26ZM123,1159.1C114.375,1162.6 111.87,1169.63 117.893,1173.43C120.034,1174.79 122.782,1177.29 124.001,1179C129.409,1186.59 133.26,1180.67 133.436,1164.5L133.5,1158.5L129.499,1158.29C127.301,1158.17 124.376,1158.54 123,1159.1ZM1368.64,1159.31C1370.63,1158.4 1372.59,1157.89 1374.59,1157.73C1384.98,1156.9 1387.2,1159.14 1378.28,1168.07L1369.35,1174L1368.94,1174C1368.94,1173.68 1368.96,1173.35 1369,1173C1373.36,1168.12 1371.24,1162.85 1369,1161C1368.87,1160.45 1368.75,1159.89 1368.64,1159.31ZM101.055,1111.43C97.815,1115.34 95.933,1139.31 98.284,1146.67C99.135,1149.33 100.429,1154.2 101.164,1157.5C102.589,1163.9 106.106,1166.5 107.704,1162.34C108.083,1161.34 110.805,1158.17 113.749,1155.3C119.479,1149.7 119.411,1149.99 117.439,1140.32C117.195,1139.11 114.945,1136.45 112.44,1134.4C106.571,1129.59 104.704,1125.21 105.574,1118.27C106.425,1111.44 104.04,1107.84 101.055,1111.43ZM106.5,832.68C104.85,833.558 101.7,835.913 99.499,837.915C97.301,839.914 93.836,842.573 91.8,843.825C87.083,846.728 87.15,846.428 86.843,866.258C86.546,885.454 86.614,885.634 94.646,887.111C97.316,887.603 101.891,888.746 104.816,889.657C111.671,891.795 115.08,889.534 113.186,884.107C112.399,881.843 112.545,875.1 113.745,858.578C115.777,830.625 115.073,828.109 106.5,832.68ZM98.374,578.201C96.518,581.209 94.62,594.705 94.256,607.5C92.888,655.691 92.164,671.899 91.238,675C90.664,676.924 89.918,682.871 89.58,688.215C88.763,701.104 89.921,702.188 101.805,699.679C106.039,698.786 111.143,697.804 113.149,697.5C117.953,696.773 119.546,694.89 117.926,691.86C115.061,686.512 113.573,646.35 115.969,639.094C118.148,632.486 116.993,595.099 114.499,591.596C113.4,590.051 111.6,587.321 110.501,585.533C106.56,579.124 100.185,575.273 98.374,578.201ZM1388.01,567.495C1387.23,568.433 1387.04,570.015 1387.49,571.744C1387.89,573.259 1388.16,575.85 1388.09,577.5C1386.8,607.399 1386.62,641.887 1387.72,644.404C1388.59,646.373 1389,652.571 1389,663.686C1389,683.524 1389.84,686.528 1395.67,687.551C1397.78,687.923 1400.5,688.849 1401.72,689.614C1404.7,691.481 1408.45,691.365 1410.13,689.348C1411.84,687.289 1412.17,681.023 1412.1,652.5C1412.08,645.9 1412.54,638.723 1413.13,636.548C1414.19,632.584 1414.11,632.066 1410.89,621C1409.99,617.906 1409.57,609.529 1409.54,594.161L1409.5,571.826L1406.66,570.334C1399.68,566.666 1389.93,565.181 1388.01,567.495ZM974.927,107.8C954.274,108.896 923.902,109.472 886.001,109.466C592.2,109.418 578.137,109.391 430.999,108.63L300.499,107.955L297.701,103.346C293.43,96.311 294.071,95.445 303.3,95.783C308.04,95.959 312.675,95.52 315.266,94.658C318.761,93.491 322.388,93.428 336,94.286C348.281,95.059 356.081,95.014 366.499,94.103C374.201,93.431 382.301,93.169 384.499,93.521C387.405,93.986 389.779,93.611 393.173,92.149C397.646,90.221 414.705,90.465 417.998,92.498C418.477,92.794 433.189,93.195 450.686,93.386C469.384,93.593 484.763,94.211 487.987,94.886C492.101,95.749 494.745,95.753 498.562,94.898C501.859,94.162 507.495,94.005 514.575,94.459C528.345,95.344 531.559,95.333 564.499,94.328C579.349,93.87 598.474,93.844 607.001,94.264C645.278,96.154 676.013,96.221 679.8,94.425C683.674,92.588 702.304,93.023 706.076,95.04C708.394,96.281 726.304,96.293 727.549,95.055C728.074,94.538 740.651,93.825 755.501,93.476C779.059,92.921 783.109,92.591 787.26,90.889C792.803,88.616 828.281,88.71 850.001,91.054C859.313,92.059 866.539,92.036 888,90.938C902.809,90.176 929.67,89.685 948.881,89.824C977.606,90.034 983.528,89.839 984.881,88.639C985.77,87.848 989.201,85.815 992.501,84.12C1000.38,80.078 1004.44,80.014 1006.45,83.91C1007.89,86.696 1008.32,86.843 1016.73,87.431C1028.07,88.226 1030.28,88.935 1031,92.003C1031.53,94.245 1031.97,94.436 1035.54,93.994C1039.71,93.476 1042.62,93.458 1087.5,93.701C1102.9,93.788 1117.98,93.833 1121,93.81C1124.03,93.784 1137.98,94.095 1152,94.5C1166.03,94.901 1179.69,95.16 1182.36,95.078C1187.67,94.909 1186.14,93.712 1201.58,110.134C1205.66,114.465 1205.81,116.34 1202.5,121.215C1200.08,124.781 1200,125.408 1200,141.911L1200,158.929L1197.11,162.229C1194.38,165.338 1194.15,166.294 1193.12,179.014C1192.53,186.431 1191.13,197.899 1190.02,204.499C1185.91,228.96 1186.05,230.707 1191.88,229.031C1193.91,228.45 1196.14,228.503 1198.08,229.177C1199.79,229.771 1201.09,229.855 1203.23,229.276C1205.02,229.185 1206.67,228.896 1207.88,228.386C1209.86,227.548 1211.79,226.794 1213.66,226.124C1214.15,226.044 1214.57,226.001 1214.89,226.001C1216.38,226.001 1218.03,225.6 1218.55,225.109C1219.47,224.246 1230.6,223.106 1244,222.503C1266.28,221.494 1278.14,220.579 1278.6,219.829C1279.76,217.961 1257.42,198 1254.17,198C1253.54,198 1252.41,199.462 1251.65,201.251C1249.65,205.965 1246.32,208.691 1244.19,207.356C1243.82,207.121 1243.49,206.678 1243.22,206.081C1242.97,202.794 1242.78,198.777 1242.67,194.028C1242.86,193.117 1243.11,192.269 1243.42,191.531C1246.28,184.682 1241.86,161.72 1235.39,147.193C1234.16,144.063 1232.78,141.082 1231.26,138.273C1230.18,132.961 1236.48,133.253 1243.86,140.258C1252.73,148.669 1278.1,162 1285.25,162C1288.13,162 1289.89,162.81 1292.89,165.521L1296.79,169.043L1309.65,169.245C1320.44,169.414 1323.54,169.106 1329,167.31C1332.57,166.136 1336.62,164.91 1338,164.588C1341.47,163.774 1350,157.301 1350,155.49C1350,153.236 1346.51,153.701 1343.33,156.379C1335.44,163.012 1305.21,166.762 1297.58,162.053C1295.76,160.924 1293.18,160.001 1291.85,160.001C1290.51,160.001 1287.64,159.09 1285.46,157.976C1283.28,156.862 1279.8,155.678 1277.72,155.344C1275.13,154.928 1273.31,153.84 1271.91,151.867C1270.44,149.809 1269.02,148.999 1266.88,148.999C1263.21,148.999 1259.62,147.199 1254.09,142.571C1251.75,140.617 1247.96,138.191 1245.67,137.171C1243.38,136.155 1240.85,134.531 1240.04,133.56C1239.24,132.593 1236.32,130.339 1233.54,128.557C1230.77,126.776 1225.13,121.931 1221,117.787C1215.32,112.088 1212.62,110.1 1209.9,109.609C1205.36,108.799 1197,100.912 1197,97.448C1197,96.154 1196.48,93.949 1195.84,92.55C1193.22,86.805 1198.61,84.806 1209.27,87.57C1213.08,88.556 1217.04,88.913 1219.92,88.523C1223.96,87.975 1225.18,88.313 1230.24,91.369C1235.38,94.481 1236.28,94.721 1238.98,93.701C1241.39,92.794 1242.55,92.865 1244.75,94.065C1247.06,95.329 1253.04,95.539 1282.5,95.4C1314.92,95.246 1323.53,94.714 1336.12,92.078C1343.49,90.533 1379.84,91.665 1382.68,93.525C1385.11,95.115 1385.85,99.356 1383.92,100.553C1383.32,100.92 1382.03,103.091 1381.05,105.375C1378.71,110.835 1376.72,112.41 1373.26,111.559C1371.74,111.184 1367.64,110.468 1364.13,109.965C1360.63,109.463 1357.25,108.619 1356.61,108.09C1355.88,107.486 1344.93,107.43 1326.98,107.936C1311.32,108.383 1298.07,108.495 1297.55,108.188C1297.02,107.884 1286.29,107.528 1273.7,107.396C1258.52,107.242 1249.82,106.751 1247.87,105.945C1243.23,104.025 1243.5,104.899 1251.92,119.359C1256.29,126.866 1260.16,133.916 1260.51,135.019C1261.32,137.591 1272.01,146.254 1277.94,149.149C1280.44,150.371 1285.2,152.734 1288.5,154.399C1294.1,157.218 1303.32,158.258 1313.41,157.802C1318.94,158.204 1324.02,158.273 1325.94,157.77C1327.9,157.253 1331.52,156.503 1334,156.098C1336.37,155.71 1340.18,154.136 1342.67,152.535C1346.2,151.353 1349.47,149.993 1352.31,148.469C1353.36,148.425 1354.08,148.682 1354.3,149.288C1355.15,151.616 1358.53,148.526 1358.19,145.733C1358.16,145.522 1358.17,145.301 1358.2,145.072C1359.74,144.178 1361.08,143.399 1361.84,142.961C1362.98,142.305 1364.7,140.282 1366.12,138.023C1366.28,138.003 1366.44,137.993 1366.59,137.993C1367.64,137.989 1369.53,136.481 1370.78,134.644C1372.03,132.803 1374.16,130.26 1375.51,128.996C1376.75,127.833 1377.32,127.222 1377.33,126.719C1378.74,126.196 1380.34,124.941 1382.19,122.917C1388.66,115.838 1391.73,120.128 1389.9,133.673C1389.48,136.725 1389.55,141.728 1390.05,144.784C1390.88,149.921 1390.73,150.765 1387.99,155.921C1384.69,162.139 1362.32,207.416 1358.31,216C1356.9,219.026 1354.85,223.301 1353.74,225.499C1352.64,227.7 1351.1,230.85 1350.31,232.5C1347.62,238.117 1347.29,238.485 1344.11,239.4C1342.02,239.996 1339.65,239.921 1337.22,239.179C1332.6,237.758 1331.95,238.376 1329.13,246.945C1325.95,256.556 1328.06,261.623 1337.85,267.904C1346.26,273.3 1346.03,282.544 1337.17,295.92C1333.79,301.02 1333.55,301.916 1333.17,310.92C1332.71,321.758 1331.93,324 1328.59,324C1325.52,324 1324.53,322.62 1322.9,316.001C1321.89,311.903 1320.37,309.225 1316.92,305.501C1310.34,298.395 1306.24,292.391 1305.45,288.694C1304.63,284.921 1300.2,277.001 1298.91,277.001C1298.41,277.001 1298,282.926 1298,290.171C1298,303.709 1297.1,307.001 1293.37,307.001C1289.11,307.001 1288.62,303.3 1288.38,269.126C1288.16,236.966 1287.66,231.052 1285.09,230.198C1284.09,229.864 1283.94,230.707 1284.47,233.805C1285.52,240.034 1282.66,242.438 1275.29,241.515C1265.2,240.259 1252.87,242.842 1260.75,244.564C1273.18,247.275 1277.61,258.795 1269.75,267.975C1263.64,275.115 1263.16,276.754 1266.4,279.338C1271.22,283.181 1269.8,286.564 1263.5,286.26C1260.75,286.129 1248.83,285.623 1237,285.131C1205.85,283.845 1203.47,282.649 1194.07,263.501C1192.99,261.3 1189.49,256.92 1186.29,253.766L1180.47,248.029L1172.99,247.834C1168.87,247.725 1158.98,248.167 1151,248.812C1143.03,249.458 1126.83,250.264 1115,250.601C1093.57,251.212 1091.17,251.032 1074,247.523C1069.88,246.679 1063.88,245.471 1060.66,244.841C1056.03,243.926 1054.65,243.21 1053.94,241.346C1053.16,239.288 1052.4,239.003 1047.78,239.025C1035.67,239.077 1018.76,240.908 1017.14,242.34C1010.96,247.823 1002,249.84 1002,245.749C1002,243.514 1001.91,243.499 985.751,243.424C917.843,243.109 831.12,242.033 829.331,241.478C827.58,240.938 827.1,241.256 826.834,243.154C826.585,244.899 826.331,245.349 822.234,245.463C820.581,245.358 818.902,245.199 817.042,244.991C809.91,244.193 808.208,244.29 806.171,245.621C804.637,246.626 802.691,246.99 800.82,246.615C799.14,246.278 796.35,246.664 794.318,247.511C793.888,247.691 793.384,247.863 792.832,248.023C787.917,248.148 782.19,248.756 779.404,249.484C773.044,251.141 770.468,250.763 764.168,247.256C760.376,245.145 759.69,245.033 758.666,246.345C758.397,246.692 756.518,247.024 753.322,247.334C752.674,247.076 752.151,246.819 751.811,246.581C748.916,244.553 748.339,244.59 747.75,246.851C747.657,247.205 747.482,247.523 747.196,247.808C720.971,249.48 655.364,250.365 607.615,249.523C606.104,248.958 602.417,248.945 592.648,249.183C591.931,249.163 591.213,249.142 590.501,249.12C585.453,248.966 580.606,248.825 575.96,248.696C575.181,247.693 563.162,247.632 553.895,248.145C535.903,247.755 522.098,247.625 512.537,247.756C511.446,247.653 510.508,247.547 509.812,247.444C503.959,246.581 500.42,246.547 497.34,248.669C497.068,248.74 496.86,248.814 496.714,248.891C495.278,249.656 492.064,253.504 489.57,257.438C482.201,269.074 478.354,271.035 473.258,265.751C469.264,261.611 468,258.199 468,251.557C468,244.417 467.111,243.855 456.349,244.211L447.499,244.5L447.195,248.145C446.824,252.589 444.93,254.404 438.803,256.174C426.409,259.759 401.032,283.759 401.01,291.923C400.995,297.469 398.79,298.999 390.821,298.999C382.961,298.999 382.001,300.045 382.001,308.599C382.001,319.568 376.778,323.333 371.381,316.256C369.636,313.967 367.794,311.867 365.973,310.054C365.501,309.237 364.743,308.541 364.013,308.208C360.998,305.528 358.166,303.768 356.085,303.405C354.113,303.06 350.925,301.868 349.001,300.754C347.074,299.64 342.326,297.019 338.445,294.926L331.391,291.124L325.125,292.703C320.94,293.756 318.446,294.983 317.606,296.389C302.186,322.286 301.526,323.73 301.459,331.804C301.402,338.419 301.148,339.315 298.778,341.306C295.898,343.721 293.944,347.423 289.084,359.666C282.724,375.694 275.539,373.185 281.445,357C282.285,354.698 282.555,350.509 282.236,344.768C281.82,337.264 281.985,335.944 283.414,335.396C290.846,332.543 289.571,299.876 282,299.175C274.541,298.485 272.284,293.303 276.472,286.5C277.83,284.299 278.963,281.149 278.993,279.499C279.019,277.849 279.964,274.474 281.085,271.999C283.459,266.768 283.106,263.28 279.424,255.653C276.008,248.569 276.188,247.894 283.946,238.785C291.589,229.807 291.746,229.001 285.863,229.001C281.903,229.001 281.85,229.046 282.51,232.042C283.804,237.941 272.67,246.645 269.768,241.999C267.975,239.13 266.434,239.528 264.93,243.251C264.21,245.036 261.551,249.874 259.027,253.999C253.811,262.519 252,266.336 252,268.819C252,269.768 249.517,274.583 246.488,279.521C238.823,292.005 234.21,306.81 237.094,309.694C237.881,310.481 237.881,311.351 237.094,312.829C236.49,313.95 235.999,318.896 235.999,323.824C235.999,333.93 235.68,334.496 222.75,347.096C217.376,352.331 217.001,353.003 217.001,357.349C217.001,364.699 213.349,367.635 208.729,364.001C204.818,360.926 203.651,361.478 198.679,368.749C196.14,372.461 192.656,377.362 190.939,379.635L187.808,383.771L188.055,397.635C188.4,417.214 188.029,432.131 186.949,442.001C186.435,446.674 186.011,453.51 186.008,457.193C186,463.924 185.096,466.031 183.202,463.74C182.235,462.57 180.221,430.605 180.401,419.265C180.473,414.833 180.068,413.614 177.743,411.289L175.001,408.544L171.487,410.438C167.981,412.324 167.974,412.324 165.54,410.036C161.351,406.102 157.189,410.891 154.95,422.216C151.867,437.794 148.256,445.001 143.535,445.001C142.091,445.001 140.625,445.83 139.999,447.004C138.57,449.67 131.374,482.453 130.05,492.323C129.473,496.628 128.134,503.828 127.073,508.324C124.796,517.991 123.544,524.078 121.95,533.25C120.277,542.846 118.53,542.096 117.131,531.184C116.509,526.331 115.999,519.041 115.999,514.984C115.999,508.256 114.791,506.242 113.846,511.391C112.62,518.078 108.289,515.494 106.969,507.285C106.433,503.951 104.918,498.814 103.605,495.862C100.421,488.719 99.308,470.123 101.393,459C104.138,444.368 105.491,424.448 104.179,418.08C103.286,413.775 103.238,409.174 103.98,400.38C105.428,383.224 105.626,369.146 104.606,355.804C103.939,347.051 104.025,343.358 104.948,341.126C105.964,338.67 105.9,337.174 104.591,332.666C103.718,329.655 103.001,325.815 103.001,324.131C103.001,316.425 96.72,306.026 84.645,293.741C77.659,286.635 76.699,284.096 79.725,280.751C80.794,279.57 81.484,277.095 81.536,274.234C81.626,269.509 82.879,267.945 84.765,270.218C86.7,272.554 96.934,292.744 99.056,298.421C102.038,306.394 106.166,305.029 104.584,296.599C102.975,288.03 110.73,287.104 118.447,294.941L123.394,299.97L122.093,307.736C121.376,312.008 120.15,316.736 119.37,318.248C116.535,323.741 129.739,336.18 143.685,341.153C153.311,344.584 154.02,344.648 164.966,343.024C188.85,339.48 198.889,333.881 209.156,318.379C211.496,314.846 214.894,311.081 216.705,310.013C219.443,308.396 220.001,307.47 220.001,304.534C220.001,299.614 218.385,300.03 212.4,306.491C207.401,311.888 203.138,313.65 201.499,310.999C200.269,309.008 198.004,310.103 192.173,315.503C185.31,321.855 181.849,322.95 175.733,320.708C173.404,319.852 167.449,318.941 162.499,318.683C147.889,317.918 135,311.888 135,305.824C135,300.679 138.585,300.124 148.264,303.773C160.196,308.273 161.171,308.411 165.082,306.176C166.961,305.1 170.299,303.908 172.5,303.521C177.814,302.591 178.984,301.451 179.081,297.128C179.182,292.53 182.745,285.941 186,284.325C187.376,283.643 192.09,281.426 196.481,279.394C208.613,273.784 232.08,249.746 228.713,246.379C228.499,246.165 222.964,246.401 216.413,246.904C199.673,248.183 167.273,248.25 166.504,247.005C165.619,245.576 155.186,245.794 143.501,247.489C122.284,250.56 118.279,249.544 115.98,240.499C115.279,237.75 113.25,233.025 111.469,229.999C105.439,219.758 102.289,211.02 101.633,202.699C101.295,198.409 100.59,194.104 100.069,193.129C99.548,192.154 99.262,186.814 99.439,181.26C99.765,170.906 99.679,171.24 107.505,150.54C111.386,140.273 112.121,142.05 111.266,159.66C109.789,190.178 110.265,215.025 112.399,219C115.41,224.603 116.988,227.923 120.67,229.749L122.096,233.164L132.296,232.545C136.458,232.295 141.664,231.832 145.535,231.388C150.637,231.18 156.717,230.873 163.999,230.516C167.921,230.324 172.055,230.143 176.218,229.98C176.477,230.081 176.678,230.194 176.816,230.318C178.271,231.619 180.889,231.694 196.001,230.865C213.289,229.916 215.396,229.864 222.75,230.224C224.813,230.325 229.856,229.89 233.963,229.256C236.051,228.933 237.752,228.736 239.088,228.665C239.561,228.85 240.025,229.099 240.506,229.414C243.251,231.21 243.202,231.225 252.499,225.473C260.599,220.463 263.235,219.701 274.001,219.248C284.216,218.82 284.565,218.88 286.871,221.348C288.435,223.022 289.13,223.582 292.016,223.585C293.179,223.895 295.544,223.915 300.094,223.778L306.456,223.583C309.49,224.295 310.856,225.894 311.183,228.626L311.501,231.3L327.499,231.116C329.214,231.097 330.922,231.068 332.572,231.032L343.084,230.929C353.268,230.83 362.548,230.924 368.983,231.165C370.962,231.291 373.033,231.409 375.175,231.518C375.921,231.586 376.534,231.658 376.999,231.735C383.695,232.84 399.335,232.996 413.119,232.492C424.549,232.507 433.154,232.201 433.999,231.536C434.42,231.205 434.938,230.887 435.527,230.588C436.222,230.44 436.794,230.286 437.224,230.126C439.469,229.292 441.374,228.719 443.119,228.409C444.778,228.199 446.365,228.166 447.638,228.368C448.716,228.539 449.696,228.694 450.594,228.832C451.862,229.21 453.196,229.742 454.672,230.43C458.366,232.148 459.983,232.493 460.313,231.63C462.008,227.213 484.121,222.998 489,226.163C489.516,226.497 490.018,226.787 490.528,227.037L490.613,227.104C494.438,230.16 494.629,230.198 502.5,229.56C505.639,229.305 513.175,229.046 522.882,228.813L567.604,228.938C592.736,229.009 613.793,229.384 614.4,229.774C617.399,231.702 670.3,233.152 693.975,232.509C695.281,232.513 696.623,232.516 697.999,232.519C719.726,232.56 738.176,232.796 739.001,233.048C740.134,233.389 740.501,232.646 740.501,229.999C740.501,226.635 740.655,226.489 744.499,226.181C746.7,226.005 749.411,225.008 750.525,223.969C750.748,223.76 751.007,223.559 751.295,223.366C765.138,219.552 777.671,220.868 784.695,227.036C788.715,230.569 789.24,230.621 792.938,227.888C796.747,225.073 802.584,224.368 806.492,226.02C808.189,227.376 809.626,228.342 810.811,228.92L811.155,229.174L811.377,229.174C812.658,229.698 813.599,229.699 814.21,229.181L887.828,229.365C929.996,229.47 969.225,229.185 975,228.735C990.818,227.494 993.214,227.438 996.75,228.225C999.536,228.848 1000,228.679 1000,227.033C1000,225.979 1000.35,224.899 1000.78,224.636C1001.09,224.445 1011.76,224.051 1024.11,223.69C1024.52,224.003 1024.76,224.357 1024.82,224.749C1025.24,227.693 1026.93,227.603 1029.46,224.505L1030.27,223.516C1045.1,223.113 1060.29,222.808 1062,222.975C1062.41,223.014 1066.27,223.092 1072.18,223.187C1088.9,223.622 1108,223.96 1117.51,223.973C1118.32,223.973 1119.11,223.976 1119.88,223.981C1125.62,224.132 1131.11,224.307 1136.26,224.499C1138.6,224.681 1140.22,224.907 1141.01,225.169C1142.93,225.814 1151.03,226.421 1159,226.523C1163.57,226.58 1167.95,226.691 1171.06,226.817C1171.44,226.887 1171.75,226.958 1172,227.029C1180.96,229.616 1182.91,227.468 1179.65,218.606C1179.22,217.429 1178.84,215.444 1178.52,212.705C1179.64,199.798 1179.83,182.411 1178.06,179.115C1177.55,178.151 1176.59,173.385 1175.95,168.529C1174.48,157.481 1172.97,153.84 1168.43,150.379L1164.84,147.641L1159.17,149.483C1152.48,151.658 1144.93,156.142 1141.7,159.851C1137.63,164.539 1135.51,165.923 1128.49,168.469C1123.52,170.269 1120.26,172.286 1116.78,175.714C1112.93,179.511 1110.8,180.543 1109.2,178.761C1108.97,178.38 1108.75,177.948 1108.55,177.465C1108.19,176.597 1107.79,175.751 1107.36,174.936C1104.7,167.501 1098.17,161.963 1092.29,162.21C1090.64,162.278 1089.22,162.171 1088,161.853C1087.33,160.421 1086.25,158.671 1085.18,157.388C1083.7,155.618 1081.21,152.085 1079.64,149.539C1078.57,147.799 1075.79,144.777 1072.45,141.62C1065.85,134.152 1057.44,125.748 1055,124.811C1051.08,123.304 1041,114.855 1041,113.074C1041,111.019 1034.9,109.778 1026.86,110.201C1025.05,110.295 1024.13,110.393 1023.61,111.01C1020.88,108.429 1019.97,111.201 1022.7,114.218L1022.77,114.296L1022.75,114.446C1022.24,118.818 1019.74,125.55 1017.69,128.846C1016.87,129.99 1016.15,130.642 1015.51,130.808C1014.43,130.714 1013.51,129.037 1012.05,124.639C1011.92,124.247 1011.79,123.878 1011.67,123.527C1009.82,117.889 1006.88,114.172 1003.03,112.631C1002.21,112.3 1001.4,111.873 1000.71,111.415C999.436,110.236 998.471,109.136 998.152,108.435C997.189,106.32 996.544,106.084 992.779,106.481C990.09,106.766 986.996,107.031 983.513,107.276L983.232,107.274C981.723,107.271 980.213,107.292 978.706,107.378C977.472,107.448 976.235,107.551 975.02,107.781L974.927,107.8ZM1391.03,450.022C1385.81,451.249 1383.73,454.388 1384.47,459.945C1385.02,464.104 1385.1,476.636 1384.75,502.001C1384.56,515.659 1385.96,529.155 1387.79,531.251C1390.81,534.72 1394.22,533.074 1395.56,527.494C1396.53,523.418 1397.54,522.341 1401.01,521.648C1402.63,521.321 1405.66,519.499 1407.74,517.594L1411.5,514.133L1411.28,505.054C1411.16,500.063 1411.55,494.745 1412.14,493.238C1413.43,489.979 1416.13,468.139 1416.35,459.128C1416.58,449.434 1407.46,446.156 1391.03,450.022ZM116.805,496.673C116.37,503.344 114,503.693 114,497.085C114,493.151 114.352,492 115.556,492C116.783,492 117.045,492.982 116.805,496.673ZM1296.77,367.787C1295.37,367.689 1294.06,368.223 1293,369.499C1290.03,373.076 1286.64,369.615 1285.66,361.999C1283.67,346.631 1279.15,340.5 1269.83,340.5C1261.55,340.496 1261.99,340.954 1256.73,326.779C1251.13,311.689 1250.71,310.275 1251.5,309.008C1251.84,308.453 1254.82,307.999 1258.13,307.999C1266.77,307.999 1273.07,313.493 1279.67,326.79C1283.01,333.525 1285.07,336.506 1286.92,337.29C1288.34,337.894 1291.36,340.211 1293.64,342.443C1295.92,344.674 1299.43,347.801 1301.44,349.395C1303.59,351.086 1305.35,353.494 1305.69,355.185C1306.06,357.045 1308.66,360.304 1312.96,364.29C1316.65,367.706 1320.92,372.188 1322.45,374.25C1324.82,377.445 1325.81,378 1329.06,378C1331.16,378 1333.16,378.45 1333.5,379.001C1333.84,379.549 1336.49,379.999 1339.38,379.999C1349.57,379.999 1354.27,391.2 1348.98,402.859C1346.38,408.578 1346.36,408.476 1351,412.886C1356.85,418.451 1356.61,422.055 1349.88,429.69C1341.6,439.095 1341.33,439.661 1343.86,442.35C1347.26,445.973 1344.33,456.157 1338.5,461.006C1337.67,461.689 1337,462.754 1337,463.373C1336.98,465.836 1332.35,470.348 1330.54,469.654C1330.1,469.484 1329.77,469.268 1329.53,468.759L1329.74,452.108C1329.78,448.449 1329.8,445.093 1329.79,441.996C1330.37,421.734 1329.78,411.542 1327.98,409.241C1326.97,407.959 1324.92,403.665 1323.43,399.705C1322.23,396.509 1320.92,393.771 1319.65,391.748C1319.05,390.595 1318.56,389.924 1318.05,389.535C1317.18,388.546 1316.38,388.001 1315.72,388.001C1313.09,388.001 1307.07,381.638 1305.59,377.299C1304.59,374.382 1303.14,372.01 1301.53,370.362C1301.01,369.576 1300.53,368.962 1300.14,368.614C1298.65,367.272 1298.19,366.908 1296.77,367.787ZM1403.5,348.649C1400.75,350.629 1396.58,354.098 1394.22,356.355L1389.95,360.465L1390.62,373.054C1391.17,383.569 1391,386.498 1389.55,390.855C1386.26,400.763 1391.69,401.565 1406.02,393.3C1415.5,387.833 1416.35,386.43 1414.48,379.406C1413.35,375.18 1412.99,370.046 1413.2,361.35C1413.46,350.569 1413.28,348.964 1411.59,347.1C1409.18,344.434 1409.41,344.389 1403.5,348.649ZM1402.76,297.356C1392.85,301.826 1390.65,308.839 1397.43,314.393C1405.02,320.61 1412.85,319.605 1416,312.008C1419.51,303.525 1410.7,293.775 1402.76,297.356ZM382.425,249.09C383.37,249.971 373.222,255 370.504,255C368.055,255 361.005,250.879 359.891,248.798C358.759,246.679 380.141,246.96 382.425,249.09ZM1240.75,242.629C1244.28,243.574 1243.41,244.868 1238.4,246.128C1235.88,246.765 1231.53,248.85 1228.76,250.763C1221.54,255.724 1217.78,255.698 1216.93,250.676C1215.94,244.785 1217.31,244.009 1231,242.662C1237.47,242.029 1238.49,242.025 1240.75,242.629ZM1205.77,246.814C1205.99,247.466 1205.45,247.999 1204.58,247.999C1203.71,247.999 1203,247.286 1203,246.416C1203,244.65 1205.15,244.958 1205.77,246.814ZM308.501,245.014C308.501,245.989 307.496,246.499 305.584,246.499C302.306,246.499 300.911,244.425 303.694,243.69C306.63,242.91 308.501,243.428 308.501,245.014ZM1367,219.709C1359.68,221.123 1351.18,239.666 1357.33,240.829C1360.55,241.44 1368.11,238.594 1371.86,235.361C1382.75,225.96 1380.03,217.196 1367,219.709ZM1172,235.928C1172,237.034 1160.67,237.9 1137.25,238.586C1125.6,238.924 1120,238.751 1120,238.046C1120,237.469 1122.14,236.966 1124.75,236.925C1127.36,236.884 1131.53,236.49 1134,236.051C1140.43,234.908 1172,234.802 1172,235.928ZM1405.32,133.249C1401,140.014 1399.51,170.25 1403.31,173.827C1415.02,184.819 1421.31,146.535 1409.81,134.299C1407.35,131.681 1406.46,131.475 1405.32,133.249ZM1405.95,111.45C1403.13,114.262 1408.37,120.743 1412.46,119.505C1413.58,119.167 1420.26,118.253 1427.3,117.473C1434.34,116.693 1440.53,115.793 1441.05,115.47C1442.4,114.638 1442.23,112.264 1440.75,111.307C1438.99,110.168 1407.11,110.299 1405.95,111.45ZM217.919,109.694C205.759,109.521 193.992,109.232 184.999,108.833C173.175,108.308 159.746,107.925 155.156,107.981C144.521,108.12 140.73,105.716 146.749,102.652C151.841,100.061 176.783,91.98 178.148,92.479C178.89,92.753 182.426,92.588 186,92.115C189.574,91.643 192.746,91.196 193.05,91.125C193.354,91.058 194.029,91.406 194.55,91.901C195.071,92.4 198.874,93.03 202.999,93.304C207.124,93.578 216.574,94.343 223.999,95.006C234.049,95.903 239.213,95.925 244.193,95.104C252.938,93.66 266.25,93.694 271.181,95.171C278.576,97.387 283.759,106.455 279.068,108.964C277.461,109.823 249.986,110.075 222.843,109.758C222.798,109.747 222.756,109.736 222.716,109.725C220.089,108.986 218.782,108.97 217.919,109.694Z" style="fill:rgb(239,56,39);"/>
</svg>
