<?xml version="1.0" encoding="UTF-8" standalone="no"?>
<!DOCTYPE svg PUBLIC "-//W3C//DTD SVG 1.1//EN" "http://www.w3.org/Graphics/SVG/1.1/DTD/svg11.dtd">
<svg width="1500" height="2100" viewBox="0 0 1500 2100" version="1.1" xmlns="http://www.w3.org/2000/svg" xmlns:xlink="http://www.w3.org/1999/xlink" xml:space="preserve" xmlns:serif="http://www.serif.com/" style="fill-rule:evenodd;clip-rule:evenodd;stroke-linejoin:round;stroke-miterlimit:2;">
    <path id="Twins--Back-" serif:id="Twins (Back)" d="M273.356,1799.83C275.089,1810.66 280.676,1813.19 287.284,1806.13C293.224,1799.78 293.857,1799.43 295.451,1801.61C296.693,1803.3 296.996,1803.31 300.634,1801.78C306.083,1799.48 309.998,1798.76 311.347,1799.82C311.981,1800.32 314.449,1800.98 316.826,1801.28C319.208,1801.58 321.945,1802.54 322.905,1803.42C323.869,1804.29 326.048,1805 327.746,1805C329.449,1805 332.16,1805.76 333.776,1806.69C336.596,1808.3 336.821,1808.28 339.491,1806.19C345.93,1801.12 357,1804.49 357,1811.51C357,1816.25 359.944,1816.81 363.371,1812.72C367.076,1808.31 368.475,1808.15 373.058,1811.58C385.763,1821.09 391.282,1821.13 398.393,1811.75C401.741,1807.34 403.001,1807.02 403.001,1810.61C403.001,1812.74 403.324,1813.07 404.749,1812.4C405.712,1811.95 414.825,1811.34 424.999,1811.03C435.176,1810.73 444.083,1810.11 444.795,1809.65C445.541,1809.18 446.7,1809.34 447.532,1810.03C448.624,1810.93 455.07,1811.05 473.738,1810.52C504.064,1809.66 517.117,1809.45 523.001,1809.76C525.476,1809.89 536.951,1809.58 548.501,1809.07C560.051,1808.56 578.501,1808.32 589.5,1808.53C630.518,1809.31 690.255,1808.94 732.499,1807.63C739.099,1807.43 746.749,1807.69 749.501,1808.2C755.726,1809.38 755.111,1809.38 775.039,1808.24C784.133,1807.72 792.57,1806.77 793.789,1806.11C795.21,1805.35 796.624,1805.25 797.749,1805.84C800.546,1807.3 825.484,1808.35 827.805,1807.1C830.108,1805.87 850.549,1804.61 862.999,1804.93C879.521,1805.37 885.079,1805.01 888.323,1803.32C891.874,1801.48 933.566,1800.66 937.5,1802.37C938.599,1802.84 951.874,1803.3 967.001,1803.38C990.12,1803.51 995.52,1803.82 1000.91,1805.34C1008.4,1807.44 1020.55,1807.89 1023.68,1806.19C1024.89,1805.54 1027.83,1805 1030.23,1805C1032.63,1805 1035.13,1804.47 1035.77,1803.83C1036.67,1802.93 1037.55,1802.93 1039.52,1803.83C1042.99,1805.41 1081.14,1805.46 1082.71,1803.88C1083.4,1803.2 1085.49,1803.01 1088.16,1803.4C1090.55,1803.74 1100.6,1804.42 1110.5,1804.92C1121.39,1805.46 1131.07,1806.48 1135,1807.51C1145.91,1810.37 1152.46,1811.35 1155.5,1810.59C1159.47,1809.59 1156.93,1808.04 1151.31,1808.01C1149,1808.01 1146.84,1807.55 1146.5,1807C1146.16,1806.45 1146.78,1806 1147.88,1806C1148.99,1806 1150.58,1805.01 1151.43,1803.8L1152.97,1801.59L1155.02,1803.78C1156.14,1804.99 1158.28,1806.27 1159.78,1806.64C1161.27,1807.01 1163.57,1808.14 1164.88,1809.15C1168.77,1812.16 1175.78,1811.19 1174.48,1807.81C1173.07,1804.14 1184.03,1802.93 1208.75,1804.04L1215,1804.32L1215,1809.1C1215,1815.13 1215.2,1815.23 1224.62,1813.92C1235.22,1812.45 1242.99,1807 1234.5,1807C1232.06,1807 1231,1806.55 1231,1805.5C1231,1803.69 1231.68,1803.66 1237.49,1805.21C1242.02,1806.42 1242.95,1807.65 1240.89,1809.71C1236.94,1813.65 1256.01,1813.28 1262.33,1809.29C1266.59,1806.61 1267.73,1806.78 1266.08,1809.85C1261.77,1817.89 1275.89,1815.93 1281.26,1807.73C1282.49,1805.86 1283.5,1805.37 1285.44,1805.75C1286.89,1806.02 1288,1805.77 1288,1805.17C1288,1803.95 1304.16,1804.5 1312.77,1806.02C1316.06,1806.59 1318.88,1806.58 1320.27,1805.99C1322.19,1805.17 1338.69,1803.36 1350.16,1802.71C1352.18,1802.6 1354.17,1802.16 1354.58,1801.75C1355.8,1800.54 1359.55,1800.88 1362.64,1802.49C1364.21,1803.32 1367.33,1803.99 1369.58,1803.99C1372.63,1804 1374.24,1804.63 1376.02,1806.52C1377.32,1807.91 1379.76,1809.4 1381.44,1809.84C1383.87,1810.48 1384.5,1811.18 1384.5,1813.28C1384.5,1814.72 1385.31,1816.5 1386.3,1817.23C1390,1819.94 1391.8,1863.66 1388.82,1878.12C1387.93,1882.38 1387.91,1885.09 1388.73,1888.66C1390.04,1894.4 1389.36,1896.12 1386.99,1892.99C1381.65,1885.91 1378,1902.41 1383.09,1910.64C1384.93,1913.63 1384.97,1914.13 1383.59,1917.43C1381.88,1921.55 1382.1,1921.45 1378.37,1919.51C1372.58,1916.49 1363.49,1924.1 1368.88,1927.43C1369.37,1927.73 1369.95,1929.22 1370.17,1930.74L1370.58,1933.5L1360.04,1933.5C1354.25,1933.5 1333.3,1933.92 1313.5,1934.42C1271.27,1935.51 1279.19,1935.55 1249.14,1934.06C1225.54,1932.89 1224.72,1932.91 1222.64,1934.79C1220.19,1937.02 1214.72,1938.32 1213.39,1937C1212.27,1935.87 1198.26,1935.41 1195.22,1936.41C1193.51,1936.97 1192.51,1936.61 1191.2,1935C1189.47,1932.86 1189.37,1932.85 1181.12,1934.42C1173.78,1935.81 1172.19,1935.83 1167.65,1934.56C1160.44,1932.56 902.805,1932.88 896.501,1934.9C887.948,1937.65 886.376,1937.52 885.146,1933.98L884.029,1930.78L861.765,1931.27C847.459,1931.58 838.069,1932.21 835.5,1933.05C830.993,1934.52 812.756,1934.78 792.499,1933.67C780.409,1933.01 776.43,1932.93 760.5,1933.03C757.2,1933.05 750.964,1932.54 746.64,1931.89C741.368,1931.11 736.095,1931.01 730.639,1931.6C726.161,1932.08 717.101,1932.26 710.501,1932.02C703.901,1931.76 694.676,1931.6 690,1931.65C685.324,1931.69 640.549,1932.03 590.501,1932.39C494.542,1933.08 458.366,1934.17 370.5,1939.03C359.782,1939.62 349.991,1939.61 343.999,1939.01C338.775,1938.48 329.689,1938.04 323.809,1938.03C317.929,1938.01 312.848,1937.56 312.518,1937.03C309.645,1932.38 300.038,1932.22 291.847,1936.68C287.726,1938.92 286.699,1939.12 284.28,1938.12C279.255,1936.04 244.995,1936.14 241.759,1938.25C238.324,1940.49 238.361,1940.49 235.414,1937.31C231.364,1932.94 222.911,1932.79 217.151,1936.99C212.813,1940.15 212.794,1940.15 211.343,1938.08C209.126,1934.91 202.961,1935.3 196.463,1939.02L191.179,1942.04L189.041,1939.33C186.611,1936.24 175.155,1934.23 170.363,1936.05C168.99,1936.58 166.759,1937 165.401,1937C164.044,1937 160.811,1938.07 158.216,1939.38C149.003,1944.04 138.368,1939.11 136.534,1929.33C135.923,1926.07 133.823,1923.94 128.089,1920.79C126.379,1919.85 124.511,1918.05 123.937,1916.79C123.364,1915.53 122.22,1913.27 121.399,1911.76C120.281,1909.72 120.071,1907.49 120.574,1903.05L121.249,1897.07L125.505,1897.66C128.993,1898.13 130.144,1897.86 131.88,1896.12C133.046,1894.95 134.655,1894 135.458,1894C137.014,1894 143.04,1888.25 146.734,1883.25C149.745,1879.17 150.416,1862.22 147.686,1859.2C146.76,1858.18 145.999,1856.98 145.999,1856.53C145.999,1853.4 136.766,1845.19 132.521,1844.56C127.553,1843.81 127.211,1842.98 130.042,1838.5C132.184,1835.11 135,1829.14 135,1827.99C135,1827.57 135.671,1825.94 136.493,1824.36C137.314,1822.79 137.989,1820.68 137.993,1819.68C138.019,1812.53 144.581,1807.65 153.424,1808.21C159.098,1808.58 161.291,1808.36 162.142,1807.33C163.976,1805.12 178.511,1805.8 180.683,1808.2C182.903,1810.65 193.08,1809.72 197.426,1806.67C199.215,1805.41 201.634,1804.7 203.666,1804.84C205.489,1804.96 208.369,1804.34 210.064,1803.47C212.449,1802.23 213.461,1802.14 214.556,1803.05C216.788,1804.9 225.319,1804.76 249.499,1802.46C252.799,1802.15 259.23,1801.83 263.79,1801.76L272.078,1801.62L271.459,1798.81C271.118,1797.27 271.268,1796 271.792,1796C272.318,1796 273.019,1797.72 273.356,1799.83ZM1252.86,1799.04C1250.43,1801.15 1248.11,1802.45 1247.62,1801.98C1246.34,1800.75 1247.68,1797.94 1249.26,1798.55C1250,1798.83 1251.65,1797.93 1252.94,1796.56C1254.24,1795.18 1255.73,1794.33 1256.26,1794.66C1256.79,1794.99 1255.26,1796.96 1252.86,1799.04Z" style="fill:rgb(239,56,39);"/>
</svg>
