<?xml version="1.0" encoding="UTF-8" standalone="no"?><!DOCTYPE svg PUBLIC "-//W3C//DTD SVG 1.1//EN" "http://www.w3.org/Graphics/SVG/1.1/DTD/svg11.dtd"><svg width="180" height="252" viewBox="0 0 180 252" version="1.1" xmlns="http://www.w3.org/2000/svg" xmlns:xlink="http://www.w3.org/1999/xlink" xml:space="preserve" xmlns:serif="http://www.serif.com/" style="fill-rule:evenodd;clip-rule:evenodd;stroke-linejoin:round;stroke-miterlimit:2;"><path d="M168,222.36c3.204,-2.807 4.727,-7.606 4.8,-10.56l-0,-201.6c-0.343,-1.675 -1.352,-2.666 -3,-3l-159.6,-0c-1.648,0.334 -2.657,1.325 -3,3l-0,201.6c0.073,2.954 1.596,7.753 4.8,10.56l-0,-179.134c-1.397,-1.607 -2.591,-4.553 -2.64,-7.946c0.05,-3.418 1.261,-6.382 2.67,-7.98c-1.409,-1.598 -2.62,-4.562 -2.67,-7.98c0.058,-3.966 1.679,-7.322 3.36,-8.64l154.56,0c1.681,1.318 3.302,4.674 3.36,8.64c-0.05,3.418 -1.261,6.382 -2.67,7.98c1.409,1.598 2.62,4.562 2.67,7.98c-0.049,3.393 -1.243,6.339 -2.64,7.946l-0,179.134Z" style="fill:#f6d262;"/></svg>