<?xml version="1.0" encoding="UTF-8" standalone="no"?>
<!DOCTYPE svg PUBLIC "-//W3C//DTD SVG 1.1//EN" "http://www.w3.org/Graphics/SVG/1.1/DTD/svg11.dtd">
<svg width="1500" height="2100" viewBox="0 0 1500 2100" version="1.1" xmlns="http://www.w3.org/2000/svg" xmlns:xlink="http://www.w3.org/1999/xlink" xml:space="preserve" xmlns:serif="http://www.serif.com/" style="fill-rule:evenodd;clip-rule:evenodd;stroke-linejoin:round;stroke-miterlimit:2;">
    <rect id="Card" x="0" y="0" width="1500" height="2100" style="fill:none;"/>
    <clipPath id="_clip1">
        <rect id="Card1" serif:id="Card" x="0" y="0" width="1500" height="2100"/>
    </clipPath>
    <g clip-path="url(#_clip1)">
        <path d="M1500,2104C1502.21,2104 1504,2102.21 1504,2100L1504,0C1504,-2.209 1502.21,-4 1500,-4L0,-4C-2.209,-4 -4,-2.209 -4,0L-4,2100C-4,2102.21 -2.209,2104 -0,2104L1500,2104ZM1251.35,1318L1065.19,1502.16C1064.04,1503.29 1063.69,1505.01 1064.29,1506.5L1080.3,1546.04C1080.3,1546.04 782.252,1842.3 750,1874.36C750,1874.36 419.705,1546.04 419.705,1546.04C419.705,1546.04 435.708,1506.5 435.708,1506.5C436.313,1505.01 435.96,1503.29 434.813,1502.16L248.655,1318L1251.35,1318ZM1326.34,222C1326.34,222 1424.15,319.804 1436,331.657C1436,331.657 1436,1135.33 1436,1135.33C1436,1135.33 1400.5,1170.45 1400.5,1170.45C1399.16,1169.11 1397.82,1167.91 1396.47,1166.85C1395.76,1166.3 1394.89,1166 1394,1166L106,1166C105.105,1166 104.236,1166.3 103.531,1166.85C102.182,1167.91 100.835,1169.11 99.502,1170.45C99.502,1170.45 64,1135.33 64,1135.33C64,1095.9 64,370.938 64,331.657C64,331.657 173.657,222 173.657,222C173.657,222 1326.34,222 1326.34,222L1326.34,222ZM1204.34,100L295.657,100C295.657,100 331.657,64 331.657,64C371.797,64 1128.2,64 1168.34,64L1204.34,100Z" style="fill:rgb(0,123,67);"/>
    </g>
</svg>
