<?xml version="1.0" encoding="UTF-8" standalone="no"?><!DOCTYPE svg PUBLIC "-//W3C//DTD SVG 1.1//EN" "http://www.w3.org/Graphics/SVG/1.1/DTD/svg11.dtd"><svg width="180" height="252" viewBox="0 0 180 252" version="1.1" xmlns="http://www.w3.org/2000/svg" xmlns:xlink="http://www.w3.org/1999/xlink" xml:space="preserve" xmlns:serif="http://www.serif.com/" style="fill-rule:evenodd;clip-rule:evenodd;stroke-linejoin:round;stroke-miterlimit:2;"><path id="type" d="M12.72,211.56l154.56,0c1.681,1.318 3.302,4.674 3.36,8.64c-0.058,3.966 -1.679,7.322 -3.36,8.64l-154.56,0l-0.039,-0.031c-1.667,-1.339 -3.264,-4.674 -3.321,-8.609c0.058,-3.966 1.679,-7.322 3.36,-8.64Zm0.72,15.96l153.12,0c0.155,0 0.301,-0.075 0.391,-0.202c1.689,-2.372 2.283,-4.745 2.283,-7.118c0,-2.373 -0.594,-4.746 -2.283,-7.118c-0.09,-0.127 -0.236,-0.202 -0.391,-0.202l-153.12,0c-0.155,0 -0.301,0.075 -0.391,0.202c-1.689,2.372 -2.283,4.745 -2.283,7.118c-0,2.373 0.594,4.746 2.283,7.118c0.09,0.127 0.236,0.202 0.391,0.202Zm-0.759,-199.591c-1.667,-1.339 -3.264,-4.674 -3.321,-8.609c0.058,-3.966 1.679,-7.322 3.36,-8.64l154.56,0c1.681,1.318 3.302,4.674 3.36,8.64c-0.058,3.966 -1.679,7.322 -3.36,8.64l-154.56,0l-0.039,-0.031Zm0.759,-15.929l153.12,0c0.155,-0 0.301,0.075 0.391,0.202c1.689,2.372 2.283,4.745 2.283,7.118c0,2.373 -0.594,4.746 -2.283,7.118c-0.09,0.127 -0.236,0.202 -0.391,0.202l-153.12,0c-0.155,-0 -0.301,-0.075 -0.391,-0.202c-1.689,-2.372 -2.283,-4.745 -2.283,-7.118c-0,-2.373 0.594,-4.746 2.283,-7.118c0.09,-0.127 0.236,-0.202 0.391,-0.202Z" style="fill:#007b43;"/></svg>