<?xml version="1.0" encoding="UTF-8" standalone="no"?>
<!DOCTYPE svg PUBLIC "-//W3C//DTD SVG 1.1//EN" "http://www.w3.org/Graphics/SVG/1.1/DTD/svg11.dtd">
<svg width="1500" height="2100" viewBox="0 0 1500 2100" version="1.1" xmlns="http://www.w3.org/2000/svg" xmlns:xlink="http://www.w3.org/1999/xlink" xml:space="preserve" xmlns:serif="http://www.serif.com/" style="fill-rule:evenodd;clip-rule:evenodd;stroke-linejoin:round;stroke-miterlimit:2;">
    <rect id="Card" x="0" y="0" width="1500" height="2100" style="fill:none;"/>
    <g id="Card1" serif:id="Card">
        <path id="Textbox--Regular-" serif:id="Textbox (Regular)" d="M1400,1937L1400,1948L100,1948L100,1937L1400,1937ZM100,1314.9L100,1308.21C88.362,1294.83 78.412,1270.28 78,1242C78.412,1213.72 88.362,1189.17 100,1175.79L100,227.213C88.364,213.833 78.412,189.278 78,161C78.481,127.948 91.996,99.984 106,89L1394,89C1408,99.984 1421.52,127.948 1422,161C1421.59,189.276 1411.64,213.828 1400,227.213L1400,1175.79C1411.64,1189.17 1421.59,1213.72 1422,1242C1421.59,1270.28 1411.64,1294.83 1400,1308.21L1400,1314.66C1336.52,1323.29 1143.92,1318.29 982.948,1317.64C868.735,1317.18 772.795,1317.14 751.963,1339.27C734.415,1315.15 664.151,1318.1 562.835,1318.36C422.291,1318.71 218.202,1332.21 100,1314.9ZM1388.24,1181.01C1389.44,1181.08 1390.56,1181.69 1391.26,1182.68C1405.33,1202.45 1410.29,1222.23 1410.29,1242C1410.29,1261.77 1405.33,1281.55 1391.26,1301.32C1390.51,1302.37 1389.29,1303 1388,1303L112,1303C110.706,1303 109.492,1302.37 108.741,1301.32C94.667,1281.55 89.714,1261.77 89.714,1242C89.714,1222.23 94.667,1202.45 108.741,1182.68C109.492,1181.63 110.706,1181 112,1181L1388,1181L1388.24,1181.01ZM111,233L111,1170L1389,1170L1389,233L111,233ZM112,100L1388,100C1389.29,100 1390.51,100.626 1391.26,101.68C1405.33,121.453 1410.29,141.227 1410.29,161C1410.29,180.773 1405.33,200.547 1391.26,220.32C1390.51,221.374 1389.29,222 1388,222L112,222C110.706,222 109.492,221.374 108.741,220.32C94.667,200.547 89.714,180.773 89.714,161C89.714,141.227 94.667,121.453 108.741,101.68C109.492,100.626 110.706,100 112,100Z" style="fill:rgb(0,123,67);"/>
    </g>
</svg>
