<?xml version="1.0" encoding="UTF-8" standalone="no"?>
<!DOCTYPE svg PUBLIC "-//W3C//DTD SVG 1.1//EN" "http://www.w3.org/Graphics/SVG/1.1/DTD/svg11.dtd">
<svg width="253" height="124" viewBox="0 0 253 124" version="1.1" xmlns="http://www.w3.org/2000/svg" xmlns:xlink="http://www.w3.org/1999/xlink" xml:space="preserve" xmlns:serif="http://www.serif.com/" style="fill-rule:evenodd;clip-rule:evenodd;stroke-linejoin:round;stroke-miterlimit:2;">
    <g transform="matrix(1,0,0,1,-1165,-1865)">
        <g id="PT">
            <path id="PT1" serif:id="PT" d="M1165,1927C1164.87,1901.66 1170.14,1882.15 1183,1865L1399,1865C1411.86,1882.15 1417.13,1901.66 1417,1927L1417,1927C1417.13,1952.34 1411.86,1971.85 1399,1989L1183,1989C1170.15,1971.85 1164.88,1952.34 1165,1927L1165,1927Z" style="fill:rgb(235,231,219);fill-opacity:0.7;"/>
            <g>
                <path d="M1165.15,1934.85C1165.04,1932.3 1164.99,1929.68 1165,1927L1165,1927C1164.87,1901.66 1170.14,1882.15 1183,1865L1399,1865C1411.86,1882.15 1417.13,1901.66 1417,1927L1417,1927C1417.13,1952.34 1411.86,1971.85 1399,1989L1183,1989C1171.51,1973.66 1166.08,1956.44 1165.15,1934.85L1173,1927.04C1172.89,1948.82 1176.96,1965.97 1187.12,1981C1187.12,1981 1291,1981 1291,1981C1291,1981 1394.88,1981 1394.88,1981C1405.04,1965.97 1409.11,1948.84 1409,1927.07L1409,1926.96C1409.11,1905.18 1405.04,1888.03 1394.88,1873C1394.88,1873 1291,1873 1291,1873C1291,1873 1187.12,1873 1187.12,1873C1176.96,1888.03 1172.89,1905.18 1173,1926.96L1165.15,1934.85Z" style="fill:rgb(174,151,135);"/>
                <path d="M1182.76,1988.67L1183,1989L1182.77,1988.68L1182.76,1988.67ZM1182.52,1988.35L1182.68,1988.57L1182.53,1988.37L1182.52,1988.35ZM1182.28,1988.02L1182.42,1988.22L1182.3,1988.05L1182.28,1988.02ZM1182.04,1987.69L1182.18,1987.88L1182.07,1987.73L1182.04,1987.69ZM1181.81,1987.37L1181.94,1987.55L1181.84,1987.41L1181.81,1987.37ZM1181.57,1987.04L1181.7,1987.22L1181.61,1987.09L1181.57,1987.04ZM1181.34,1986.71L1181.47,1986.89L1181.38,1986.77L1181.34,1986.71ZM1181.11,1986.38L1181.24,1986.56L1181.16,1986.45L1181.11,1986.38ZM1180.88,1986.05L1181.01,1986.23L1180.93,1986.13L1180.88,1986.05ZM1180.65,1985.72L1180.78,1985.9L1180.71,1985.8L1180.65,1985.72ZM1180.43,1985.39L1180.55,1985.56L1180.49,1985.48L1180.43,1985.39ZM1180.21,1985.05L1180.33,1985.23L1180.28,1985.16L1180.21,1985.05ZM1179.98,1984.72L1180.1,1984.9L1180.06,1984.83L1179.98,1984.72ZM1179.76,1984.38L1179.88,1984.57L1179.84,1984.51L1179.76,1984.38ZM1179.54,1984.05L1179.66,1984.23L1179.63,1984.18L1179.54,1984.05ZM1179.33,1983.71L1179.45,1983.9L1179.42,1983.86L1179.33,1983.71ZM1179.11,1983.37L1179.23,1983.56L1179.21,1983.53L1179.11,1983.37ZM1178.89,1983.02L1179.02,1983.23L1179,1983.2L1178.89,1983.02ZM1178.66,1982.65L1178.81,1982.89L1178.8,1982.88L1178.66,1982.65ZM1178.39,1982.22L1178.18,1981.88C1178.32,1982.1 1178.46,1982.33 1178.6,1982.56L1178.39,1982.22ZM1177.98,1981.54L1178.12,1981.78L1177.99,1981.56L1177.98,1981.54ZM1177.78,1981.2L1177.9,1981.41L1177.79,1981.23L1177.78,1981.2ZM1177.57,1980.86L1177.69,1981.06L1177.6,1980.9L1177.57,1980.86ZM1177.37,1980.52L1177.49,1980.72L1177.4,1980.56L1177.37,1980.52ZM1177.18,1980.17L1177.29,1980.37L1177.21,1980.23L1177.18,1980.17ZM1176.98,1979.83L1177.09,1980.03L1177.02,1979.9L1176.98,1979.83ZM1176.79,1979.49L1176.9,1979.68L1176.83,1979.56L1176.79,1979.49ZM1176.59,1979.14L1176.7,1979.34L1176.64,1979.23L1176.59,1979.14ZM1176.4,1978.8L1176.51,1979L1176.45,1978.89L1176.4,1978.8ZM1176.21,1978.45L1176.32,1978.65L1176.27,1978.56L1176.21,1978.45ZM1176.02,1978.1L1176.13,1978.3L1176.09,1978.22L1176.02,1978.1ZM1175.83,1977.75L1175.94,1977.96L1175.9,1977.88L1175.83,1977.75ZM1175.65,1977.4L1175.76,1977.61L1175.72,1977.54L1175.65,1977.4ZM1175.46,1977.05L1175.58,1977.26L1175.55,1977.21L1175.46,1977.05ZM1175.28,1976.69L1175.39,1976.91L1175.37,1976.87L1175.28,1976.69ZM1175.09,1976.32L1175.21,1976.57L1175.19,1976.52L1175.09,1976.32ZM1174.9,1975.94L1175.04,1976.22L1175.02,1976.18L1174.9,1975.94ZM1165.05,1931.87C1165.11,1934.5 1165.24,1937.06 1165.43,1939.57L1178,1926.93C1177.9,1907.36 1181.27,1891.71 1189.83,1878C1189.83,1878 1291,1878 1291,1878C1291,1878 1392.17,1878 1392.17,1878C1400.73,1891.71 1404.1,1907.36 1404,1926.93L1404,1927.07C1404.1,1946.64 1400.73,1962.29 1392.17,1976C1392.17,1976 1291,1976 1291,1976C1291,1976 1189.84,1976 1189.84,1976C1181.71,1962.99 1178.27,1948.24 1178.02,1930.05L1181,1927.08C1180.91,1945.34 1183.88,1960.08 1191.53,1973C1191.53,1973 1291,1973 1291,1973C1291,1973 1390.48,1973 1390.48,1973C1398.12,1960.08 1401.09,1945.34 1401,1927.08L1401,1926.92C1401.09,1908.66 1398.12,1893.92 1390.48,1881C1390.48,1881 1291,1881 1291,1881C1291,1881 1191.52,1881 1191.52,1881C1183.88,1893.92 1180.91,1908.66 1181,1926.92L1178.01,1929.92C1178,1928.98 1178,1928.03 1178,1927.07L1165.43,1939.57C1165.5,1940.5 1165.58,1941.42 1165.67,1942.33L1165.67,1942.33C1165.34,1938.95 1165.13,1935.47 1165.05,1931.87ZM1174.51,1975.15L1174.33,1974.79C1174.51,1975.15 1174.68,1975.51 1174.86,1975.86L1174.69,1975.51C1174.63,1975.39 1174.57,1975.27 1174.51,1975.15ZM1174.16,1974.44L1174.33,1974.77L1174.18,1974.47L1174.16,1974.44ZM1174,1974.08L1174.13,1974.37L1174.01,1974.12L1174,1974.08ZM1173.83,1973.72L1173.95,1973.99L1173.85,1973.77L1173.83,1973.72ZM1173.66,1973.37L1173.78,1973.62L1173.69,1973.43L1173.66,1973.37ZM1173.5,1973.01L1173.61,1973.26L1173.53,1973.08L1173.5,1973.01ZM1173.34,1972.65L1173.45,1972.89L1173.38,1972.73L1173.34,1972.65ZM1173.18,1972.29L1173.29,1972.53L1173.22,1972.38L1173.18,1972.29ZM1173.02,1971.92L1173.13,1972.17L1173.07,1972.03L1173.02,1971.92ZM1172.86,1971.56L1172.97,1971.81L1172.91,1971.68L1172.86,1971.56ZM1172.7,1971.19L1172.81,1971.44L1172.76,1971.33L1172.7,1971.19ZM1172.55,1970.82L1172.66,1971.08L1172.61,1970.98L1172.55,1970.82ZM1172.39,1970.45L1172.5,1970.72L1172.46,1970.62L1172.39,1970.45ZM1172.24,1970.07L1172.35,1970.36L1172.32,1970.27L1172.24,1970.07ZM1172.08,1969.69L1172.2,1969.99L1172.17,1969.91L1172.08,1969.69ZM1171.93,1969.3L1172.06,1969.63L1172.03,1969.56L1171.93,1969.3ZM1170.78,1966.24C1171.14,1967.26 1171.52,1968.26 1171.91,1969.26C1171.52,1968.26 1171.14,1967.26 1170.78,1966.24ZM1170.65,1965.86L1170.78,1966.24L1170.68,1965.95L1170.65,1965.86ZM1170.52,1965.48L1170.64,1965.84L1170.55,1965.59L1170.52,1965.48ZM1170.39,1965.1L1170.51,1965.45L1170.43,1965.22L1170.39,1965.1ZM1170.26,1964.72L1170.38,1965.07L1170.31,1964.86L1170.26,1964.72ZM1170.13,1964.33L1170.25,1964.68L1170.18,1964.49L1170.13,1964.33ZM1170.01,1963.94L1170.12,1964.3L1170.06,1964.12L1170.01,1963.94ZM1169.88,1963.55L1170,1963.91L1169.94,1963.75L1169.88,1963.55ZM1169.76,1963.15L1169.88,1963.53L1169.83,1963.38L1169.76,1963.15ZM1166.12,1946.28C1166.9,1952.23 1168.1,1957.83 1169.76,1963.15C1168.1,1957.83 1166.9,1952.23 1166.12,1946.28ZM1166.06,1945.82L1166.1,1946.13L1166.05,1945.7L1166.01,1945.42L1166.06,1945.82ZM1165.95,1944.94L1166,1945.29L1165.94,1944.87L1165.91,1944.54L1165.95,1944.94ZM1165.85,1944.06L1165.89,1944.43L1165.85,1944.03L1165.81,1943.66L1165.85,1944.06ZM1165.76,1943.17L1165.8,1943.57L1165.76,1943.18L1165.71,1942.76L1165.76,1943.17ZM1165.67,1942.33L1165.71,1942.7L1165.67,1942.34L1165.67,1942.33ZM1165.02,1930.75L1165.03,1931.02L1165.03,1930.97L1165.02,1930.75ZM1165.01,1929.77L1165.02,1930.1L1165.01,1929.99L1165.01,1929.77ZM1165,1928.84L1165.01,1929.18L1165,1929L1165,1928.84ZM1165,1927.92L1165,1928.21L1165,1928L1165,1927.92Z" style="fill:rgb(174,151,135);fill-opacity:0.5;"/>
            </g>
        </g>
    </g>
</svg>
