<?xml version="1.0" encoding="UTF-8" standalone="no"?>
<!-- Created with Inkscape (http://www.inkscape.org/) -->

<svg
   xmlns:dc="http://purl.org/dc/elements/1.1/"
   xmlns:cc="http://creativecommons.org/ns#"
   xmlns:rdf="http://www.w3.org/1999/02/22-rdf-syntax-ns#"
   xmlns:svg="http://www.w3.org/2000/svg"
   xmlns="http://www.w3.org/2000/svg"
   xmlns:inkscape="http://www.inkscape.org/namespaces/inkscape"
   version="1.1"
   width="600"
   height="600"
   id="svg3967">
  <defs
     id="defs3969" />
  <metadata
     id="metadata3972">
    <rdf:RDF>
      <cc:Work
         rdf:about="">
        <dc:format>image/svg+xml</dc:format>
        <dc:type
           rdf:resource="http://purl.org/dc/dcmitype/StillImage" />
        <dc:title />
      </cc:Work>
    </rdf:RDF>
  </metadata>
  <g
     transform="translate(-173.4341,195.35763)"
     id="layer1">
    <g
       transform="matrix(6,0,0,6,2693.4341,434.64237)"
       id="g87">
      <path
         d="M -320,-55.002 C -320,-27.387 -342.387,-5 -370.002,-5 -397.615,-5 -420,-27.387 -420,-55.002 c 0,-27.613 22.385,-49.998 49.998,-49.998 27.615,0 50.002,22.385 50.002,49.998 z"
         inkscape:connector-curvature="0"
         id="path89"
         style="fill:#cac5c0" />
    </g>
    <path
       d="M 381.45424,-86.583607 V 218.4564 c 0,36.26995 15.09601,54.42001 45.222,54.42001 h 7.66199 v 20.66997 h -162.468 v -20.66997 h 10.72204 c 30.65394,0 45.996,-18.15006 45.996,-54.42001 V 18.392393 c 0,-36.774013 -13.03205,-55.170044 -39.10805,-55.170044 h -16.09199 v -20.693962 h 6.13802 c 31.68599,0 60.28198,-9.701996 85.82996,-29.111994 h 16.09803 z m 107.30996,7.637998 h 138.72609 c 17.90398,0 28.62598,-2.01599 32.21395,-6.120033 h 19.93201 l -11.50801,52.128008 h -169.374 l -16.09199,75.096016 c 23.98798,-9.70203 45.46801,-14.568024 64.37401,-14.568024 36.79804,0 67.83001,12.294013 93.12,36.81001 25.28999,24.50402 37.91999,55.157962 37.91999,91.968012 0,42.91196 -16.33794,77.38801 -49.01995,103.47598 -30.69001,24.00002 -67.74603,36.02401 -111.14998,36.02401 -25.54808,0 -50.58008,-3.84603 -75.09608,-11.50801 l 7.638,-19.14597 c 20.42399,5.60395 38.57995,8.41196 54.42,8.41196 31.68603,0 59.41204,-10.45197 83.16601,-31.40399 23.76603,-20.95198 35.61603,-47.03999 35.61603,-78.18596 0,-27.07205 -8.79005,-49.31403 -26.41199,-66.678016 -17.64599,-17.369986 -39.726,-26.063987 -66.30603,-26.063987 -25.03201,0 -48.27001,8.694001 -69.75001,26.063987 L 448.17426,95.060352 488.7642,-78.945609 z"
       inkscape:connector-curvature="0"
       id="path91"
       style="fill:#0d0f0f" />
  </g>
</svg>
