<?xml version="1.0" encoding="UTF-8" standalone="no"?>
<!-- Created with Inkscape (http://www.inkscape.org/) -->

<svg
   xmlns:dc="http://purl.org/dc/elements/1.1/"
   xmlns:cc="http://creativecommons.org/ns#"
   xmlns:rdf="http://www.w3.org/1999/02/22-rdf-syntax-ns#"
   xmlns:svg="http://www.w3.org/2000/svg"
   xmlns="http://www.w3.org/2000/svg"
   xmlns:inkscape="http://www.inkscape.org/namespaces/inkscape"
   version="1.1"
   width="600"
   height="600"
   id="svg4063">
  <defs
     id="defs4065" />
  <metadata
     id="metadata4068">
    <rdf:RDF>
      <cc:Work
         rdf:about="">
        <dc:format>image/svg+xml</dc:format>
        <dc:type
           rdf:resource="http://purl.org/dc/dcmitype/StillImage" />
        <dc:title />
      </cc:Work>
    </rdf:RDF>
  </metadata>
  <g
     transform="translate(-187.71982,12.500493)"
     id="layer1">
    <g
       transform="matrix(6,0,0,6,817.71982,617.5115)"
       id="g69">
      <circle
         cx="-55"
         cy="-55.001999"
         r="50"
         id="circle71"
         style="fill:#cac5c0" />
    </g>
    <path
       d="M 403.57001,102.79546 V 399.4115 c 0,35.27403 14.56799,52.89003 43.68599,52.89003 h 7.67399 V 472.2275 H 297.03397 v -19.92597 h 9.98404 c 30.12596,0 45.22197,-17.622 45.22197,-52.89003 V 204.74751 c 0,-35.77205 -12.79798,-53.63403 -38.33398,-53.63403 h -15.34199 v -19.93201 h 6.13795 c 30.65402,0 58.25402,-9.44401 82.77001,-28.37399 h 16.09804 v -0.0101 z m 135.65393,182.40602 -7.66199,-6.114 c -24.01196,-16.34401 -39.85798,-29.37599 -47.49598,-39.07798 -9.19796,-12.78604 -13.81798,-27.60004 -13.81798,-44.47203 0,-28.09796 11.99999,-51.08398 36.01199,-68.98199 21.45598,-16.84203 47.03996,-25.296 76.66199,-25.296 27.59997,0 52.116,7.17004 73.57198,21.45602 23.508,16.374 35.274,38.082 35.274,65.14797 0,32.71204 -22.488,59.03398 -67.46399,78.95999 51.62401,25.04402 77.41199,60.036 77.41199,105.00603 0,32.18405 -12.516,57.72602 -37.55998,76.62605 -21.444,16.87794 -48.79803,25.28996 -82.02,25.28996 -31.67402,0 -58.746,-7.92 -81.234,-23.76599 -26.04,-17.86801 -39.08399,-41.62799 -39.08399,-71.256 0,-30.15602 14.03997,-54.67205 42.16202,-73.60804 7.15198,-5.064 18.906,-11.71198 35.24394,-19.91399 z m 21.45605,8.45402 c -37.29002,17.36996 -55.94404,44.436 -55.94404,81.24001 0,23.51397 7.67403,42.53997 22.98001,57.10199 15.354,14.56799 34.50001,21.83401 57.51602,21.83401 21.45598,0 39.57598,-5.73601 54.41997,-17.24398 14.814,-11.47798 22.20602,-27.444 22.20602,-47.904 0,-31.15204 -19.93201,-56.19602 -59.79003,-75.09605 L 560.67999,293.6555 z m 42.16198,-36.79799 c 33.22198,-14.81404 49.80599,-36.76805 49.80599,-65.89202 0,-19.926 -7.00799,-36.02403 -21.048,-48.31204 -14.06399,-12.25798 -31.31401,-18.37198 -51.738,-18.37198 -16.878,0 -31.93198,4.836 -45.22197,14.53199 -13.31402,9.73203 -19.92,23.02202 -19.92,39.86403 0,20.45402 9.44394,36.79796 28.34997,49.05598 4.07999,2.55602 20.95202,10.728 50.57999,24.54599 l 9.19202,4.57805 z"
       inkscape:connector-curvature="0"
       id="path73"
       style="fill:#0d0f0f" />
  </g>
</svg>
