<svg xmlns="http://www.w3.org/2000/svg" width="600" height="600" version="1.1"><circle cx="300" cy="300" r="300" fill="#9bd3ae"/><g transform="translate(-302.01,66.786)"><path d="m814.1 21c54.3 54.3 87.9 129.3 87.9 212.2 0 165.7-134.3 300-300 300-82.8 0-157.8-33.6-212.1-87.9" fill="#aae0fa"/><path d="m762.3 435.3c-16.2 16.4-36 24.7-59.7 24.7-26.5 0-47.6-9.1-63.1-27.2-14.7-17.3-22.1-39.3-22.1-66.2 0-28.8 12.5-61.7 37.6-98.6 20.5-30.3 44.5-56.8 72.2-79.6-4 18.5-6 31.6-6 39.4 0 17.9 5.6 35.3 16.9 52.3 13.8 20.2 24.4 35.2 31.6 45 11.2 17 16.9 33.6 16.9 49.7 0 23.9-8.1 44.1-24.2 60.6m-0.4-92.3c-4.3-9.7-9.4-16.1-15.1-19.2 0.9 1.7 1.3 4.2 1.3 7.4 0 6.1-1.7 14.7-5.2 25.9l-5.6 17.3c0 10.1 5 15.1 15.1 15.1 10.7 0 16-7.1 16-21.2 0-7.2-2.2-15.6-6.5-25.3" fill="#061922"/><path d="m611.9 138.9c0 4.5-1.8 8.6-5.3 12.3-3.5 3.6-7.6 5.4-12.1 5.4-7.2 0-12.6-3.4-16-10.2l-16-0.7c-3.4 0-10.1 1.5-20.1 4.4-10.7 2.9-16.8 5.3-18.4 7.1-2.5 2.7-4.5 9.1-6.1 19.1-1.4 8.2-2 14.2-2 18.1 0 6.1 1 10.6 2.9 13.4 1.9 2.8 5.9 5.2 11.9 7.1 6 1.9 9.7 3 11.1 3.2 0.9 0 2.4-0.1 4.4-0.3l4.1 0c2.9 0 6 0.5 9.2 1.4 4.5 1.4 6.5 3.2 5.8 5.4-3.2-0.4-8.7 0.2-16.7 2l9.5 4.8c0 2.7-3.9 4.1-11.6 4.1-2.1 0-4.8-0.4-8.3-1.4-3.5-0.9-5.8-1.4-7-1.4l-4.4 0c-0.2 2.3-0.9 5.7-2 10.2-3.9-0.2-8.4-2.5-13.6-6.8-5.2-4.3-8.5-6.5-9.9-6.5-1.4 0-3.3 2.2-5.8 6.5-2.5 4.3-3.7 7.2-3.7 8.9-2.9-1.6-5.4-4.5-7.5-8.8-0.9-3-1.9-5.9-3.1-8.9-2.3 0.2-6.5 5-12.6 14.3l-1.7 0c-0.5-0.7-2.2-5.4-5.1-14.3-7-2.3-13.6-3.4-19.7-3.4-2.9 0-7.5 0.7-13.6 2l-9.5-0.7c1.4-1.4 5.3-4 11.9-7.8 7.7-4.5 13.6-6.8 17.7-6.8 0.7 0 1.6 0.1 2.7 0.3 1.1 0.2 2 0.4 2.7 0.4 1.6 0 4.1-0.9 7.7-2.6 3.5-1.7 5.6-3.2 6.1-4.6 0.6-1.4 0.9-4.9 0.9-10.6 0-12.9-3.4-22.6-10.2-28.9-5.9-5.7-15.6-9.7-29.3-12.3-3.6 12.9-13.8 19.4-30.6 19.4-5.5 0-10.9-3.3-16.3-9.9-5.4-6.6-8.2-12.6-8.2-18 0-8.4 3.5-15.3 10.5-20.8-5.7-5.9-8.5-11.9-8.5-18 0-5.7 1.8-10.7 5.3-15 3.5-4.3 8.1-6.8 13.8-7.5-0.4-7.2 1.9-12.3 7.1-15-2.5-2.5-3.7-6.9-3.7-13.3 0-7.5 2.5-13.7 7.5-18.7 5-5 11.2-7.5 18.7-7.5 8.2 0 14.9 2.9 20.1 8.5 6.6-22.5 20.8-33.7 42.5-33.7 11.3 0 21.3 4.5 29.9 13.6 3.2 3.4 4.8 5.2 4.8 5.4-2.7 0-1.3-0.5 4.1-1.5 5.5-1 9.4-1.5 11.9-1.5 8.8 0 16.7 3.3 23.5 9.9 5.9 5.9 10 13.4 12.3 22.5 1.6 0.2 4.1 0.9 7.5 2 5 2.5 7.5 6.8 7.5 12.9 0 1.1-0.9 3.3-2.7 6.5 14.5 8.2 21.8 19.5 21.8 34 0 4.1-1.6 9.8-4.8 17 5.9 3.4 8.9 8.4 8.9 15m-140.2 15 0-4.4c0-5.2-2.5-10-7.7-14.3-5.1-4.3-10.3-6.5-15.5-6.5-6.4 0-12.3 1.5-17.7 4.4 12-0.7 25.6 6.2 40.8 20.8m-6.1-42.2c-3.4-3.9-6.3-7.8-8.8-11.9-9.5 2.5-14.3 5.3-14.3 8.5 2.7-0.2 6.7 0.3 11.9 1.5 5.2 1.3 9 1.9 11.2 1.9m20.8-10.6 0-15c-5.5-0.9-8.8-1.4-9.9-1.4l0 5.1 9.9 11.2m44.2-9.5c-2.7-1.1-7.8-3.4-15.3-6.8l0 29.3c10.7-6.1 15.8-13.6 15.3-22.5m18.7 40.2-7.5-9.2c-4.5 3.2-9.1 6.4-13.8 9.7-4.6 3.3-8.7 7-12.1 11.1 10.2-5.5 21.3-9.3 33.3-11.6" fill="#00160b"/></g></svg>