<?xml version="1.0" encoding="UTF-8" standalone="no"?>
<!DOCTYPE svg PUBLIC "-//W3C//DTD SVG 1.1//EN" "http://www.w3.org/Graphics/SVG/1.1/DTD/svg11.dtd">
<svg width="600" height="600" viewBox="0 0 600 600" version="1.1" xmlns="http://www.w3.org/2000/svg" xmlns:xlink="http://www.w3.org/1999/xlink" xml:space="preserve" xmlns:serif="http://www.serif.com/" style="fill-rule:evenodd;clip-rule:evenodd;stroke-linejoin:round;stroke-miterlimit:2;">
    <g id="layer1" transform="matrix(1,0,0,1,55.1373,192.501)">
        <g transform="matrix(6,0,0,6,1834.86,-2082.91)">
            <circle cx="-265" cy="365.068" r="50"/>
        </g>
        <g transform="matrix(1,0,0,1,-55.1373,-192.501)">
            <path d="M299.997,-0.001C465.572,-0.001 599.997,134.424 599.997,299.999C599.997,465.574 465.572,599.999 299.997,599.999C134.423,599.999 -0.003,465.574 -0.003,299.999C-0.003,134.424 134.423,-0.001 299.997,-0.001ZM354.72,226.52C354.72,226.52 332.89,267.607 308.537,281.103C284.181,294.597 267.897,298.799 246.606,295.798C225.316,292.795 145.84,338.348 145.84,429.104C145.84,509.047 249.78,556.916 280.195,558.209C310.611,559.505 350.466,536.561 357.87,535.118C365.273,533.674 384.595,537.466 395.657,534.068C406.718,530.671 461.2,489.687 492.224,441.699C464.384,445.973 436.749,475.212 431.345,460.592C425.94,445.973 504.697,412.921 510.069,399.714C507.632,415.938 509.434,425.49 503.77,434.351C517.2,423.788 555.538,386.36 527.913,284.252C524.78,299.648 523.02,316.998 509.02,336.734C506.519,331.471 507.718,329.044 503.77,326.238C499.822,323.431 495.736,330.246 493.274,326.238C490.813,322.229 503.53,289.72 530.012,247.514C540.669,230.322 532.286,199.126 524.764,181.386C517.242,163.645 462.912,79.661 419.8,56.479C431.946,81.951 468.172,122.943 470.182,145.699C460.179,137.817 437.047,124.525 432.395,119.456C427.742,114.389 434.056,105.365 428.196,98.464C422.336,91.563 405.607,90.998 399.855,81.669C394.105,72.341 376.623,49.359 348.424,44.931C320.223,40.504 252.052,31.189 118.55,95.315C132.813,96.368 145.356,96.026 144.791,107.91C144.225,119.796 125.031,127.8 111.202,128.904C97.372,130.007 50.682,146.255 65.017,285.301C69.742,273.573 76.469,254.778 79.712,252.762C82.957,250.748 84.863,261.168 87.06,268.508C101.579,235.73 89.628,184.399 98.605,184.535C107.585,184.671 107.921,211.671 109.102,260.109C116.17,232.963 120.77,208.55 124.847,193.981C124.324,189.556 122.943,169.451 136.393,164.592C154.79,152.668 166.788,138.181 171.032,137.3C175.275,136.421 179.599,150.087 178.38,155.145C182.104,152.904 188.625,133.088 186.777,107.91C187.756,102.278 196.917,83.977 208.819,90.067C220.722,96.156 220.616,100.534 227.713,111.059C234.81,121.584 251.9,132.874 251.856,139.4C251.81,145.927 230.764,140.602 223.515,139.4C227.471,142.45 242.716,154.818 240.308,158.294C237.901,161.77 204.621,159.343 204.621,159.343C204.621,159.343 227.789,170.467 226.664,174.038C225.539,177.61 204.621,172.989 204.621,172.989C204.621,172.989 215.336,194.125 238.21,193.981C261.083,193.839 305.826,179.418 313.784,179.288C321.742,179.155 341.09,199.715 341.076,202.38C341.06,205.044 361.333,192.671 303.287,150.946C295.469,142.063 287.152,136.816 303.287,120.507C319.424,104.198 328.457,101.577 344.223,107.91C359.992,114.244 392.762,137.921 376.763,154.096C360.765,170.268 332.125,134.896 328.479,127.854C324.833,120.811 343.002,212.452 420.849,195.032C441.128,212.386 464.514,237.486 436.593,276.905C423.355,278.843 429.612,264.882 426.096,254.862C422.582,244.841 403.401,224.094 399.855,224.422C396.309,224.749 429.327,317.593 421.898,350.381C414.468,383.166 398.393,407.123 389.36,410.21C373.514,415.622 376.515,408.429 365.217,404.961C353.919,401.493 353.299,409.149 347.373,406.01C341.447,402.873 332.627,393.657 331.628,383.969C329.857,362.303 377.642,333.089 378.863,309.444C380.082,285.798 369.722,262.68 363.117,258.011C356.514,253.342 354.334,231.157 354.72,226.52Z" style="fill:rgb(234,163,117);"/>
        </g>
    </g>
</svg>
