<?xml version="1.0" encoding="UTF-8" standalone="no"?>
<!DOCTYPE svg PUBLIC "-//W3C//DTD SVG 1.1//EN" "http://www.w3.org/Graphics/SVG/1.1/DTD/svg11.dtd">
<svg width="600" height="600" viewBox="0 0 600 600" version="1.1" xmlns="http://www.w3.org/2000/svg" xmlns:xlink="http://www.w3.org/1999/xlink" xml:space="preserve" xmlns:serif="http://www.serif.com/" style="fill-rule:evenodd;clip-rule:evenodd;stroke-linejoin:round;stroke-miterlimit:2;">
    <g id="layer1" transform="matrix(1,0,0,1,55.1373,192.501)">
        <g id="circle437" transform="matrix(6,0,0,6,1834.86,-2082.91)">
            <circle cx="-265" cy="365.068" r="50" style="fill:rgb(13,15,15);"/>
        </g>
        <g id="circle4371" serif:id="circle437" transform="matrix(1,0,0,1,-55.1373,-192.501)">
            <path d="M300,-0C465.575,-0 600,134.425 600,300C600,465.574 465.575,600 300,600C134.425,600 0,465.574 0,300C0,134.425 134.425,-0 300,-0ZM207.384,466.878C217.428,455.1 243.822,455.982 247.32,479.712C249.444,494.172 253.32,540.366 258.168,559.788C260.73,570.066 265.71,578.724 272.202,579.15C283.734,579.888 311.886,556.65 317.886,545.754C328.524,526.38 336.234,504.492 343.506,481.044C346.356,471.906 356.106,471.456 361.47,480.306C371.46,496.83 390.816,524.886 407.22,545.076C411.552,550.398 416.766,549.798 417.978,541.302C422.364,510.564 429.018,474.234 441.132,441.39C445.14,430.536 456.45,429.318 465.318,434.724C470.334,437.772 486.492,445.848 492.6,447.732C503.082,450.978 511.992,451.68 525.456,441.672C535.788,433.974 536.58,426.474 531.18,418.236C520.098,401.316 504.99,388.272 492.93,370.776C486.282,361.146 486.942,354.264 495.372,349.272C517.038,336.438 535.95,321.768 553.248,307.542C559.608,302.316 564.21,294.534 565.668,281.268C567.774,262.224 569.028,252.732 560.67,250.38C552.468,248.034 547.482,253.92 512.772,262.908C504.528,265.032 494.946,266.328 491.706,261.9C488.382,257.352 490.584,248.67 497.694,240.828C508.344,229.086 522.228,215.166 533.07,198.924C538.266,191.142 544.698,178.464 539.598,170.856C534.024,162.546 519.81,167.142 513.114,170.094C503.79,174.198 485.46,178.122 474.3,179.736C459.774,181.848 448.908,181.284 444.474,176.628C440.526,172.482 439.302,162.564 443.586,151.68C449.91,135.6 461.328,120.858 470.748,112.986C479.124,105.99 478.398,101.898 471.972,96.462C466.824,92.112 451.098,89.16 439.134,92.784C421.512,98.13 404.766,106.896 389.136,118.65C380.316,125.274 368.466,128.574 359.088,126.96C351.39,125.634 343.068,119.352 340.902,106.782C336.096,78.822 329.802,50.64 322.722,34.83C318.396,25.188 315.102,21.684 309.198,21.738C303.432,21.81 299.772,26.4 294.78,35.928C286.848,51.09 278.7,81.642 272.61,106.782C269.058,121.416 262.536,127.206 250.986,134.166C244.554,138.042 238.458,135.504 235.128,127.29C231.81,119.124 220.338,91.698 216.612,80.496C214.17,73.182 211.176,72.738 206.406,79.722C195.54,95.646 177.474,125.964 169.596,142.596C164.946,152.418 163.95,161.58 170.034,167.766C178.17,176.028 181.338,180.144 176.688,184.944C173.472,188.274 159.21,186.06 143.574,182.508C133.218,180.162 115.59,177.408 99.51,182.508C86.238,186.726 77.736,193.512 76.446,202.17C75.414,209.118 89.082,228.75 97.104,235.512C103.038,240.516 105.78,244.584 106.386,248.928C107.604,257.802 106.386,269.226 101.394,276.642C98.766,280.542 90.414,280.638 73.674,281.634C36.156,283.872 19.764,291.012 17.898,317.67C16.56,336.804 30.492,348.21 51.606,343.17C60.996,340.932 69.462,340.062 79.992,342.282C90.306,344.46 108.924,349.932 109.044,359.916C109.176,372.324 89.742,375.222 70.98,382.194C63.492,384.972 65.46,392.19 71.79,393.294C78,394.386 148.32,412.842 161.46,428.988C168.738,437.928 160.428,457.686 155.604,469.134C150.876,480.372 153.276,513.264 157.602,514.368C162.114,515.526 172.35,505.17 179.382,497.796C188.358,488.406 198.138,477.708 207.384,466.878ZM426.828,300C426.828,229.979 370.046,173.209 300.025,173.202C229.946,173.202 173.178,229.979 173.178,300C173.178,370.053 229.952,426.81 300.024,426.81C370.052,426.81 426.828,370.034 426.828,300ZM411.828,300C411.828,361.75 361.768,411.81 300.024,411.81C238.24,411.81 188.178,361.768 188.178,300C188.178,238.261 238.234,188.202 300.024,188.202C361.762,188.208 411.828,238.262 411.828,300Z" style="fill:rgb(247,244,216);"/>
        </g>
    </g>
</svg>
