<?xml version="1.0" encoding="UTF-8" standalone="no"?><!DOCTYPE svg PUBLIC "-//W3C//DTD SVG 1.1//EN" "http://www.w3.org/Graphics/SVG/1.1/DTD/svg11.dtd"><svg width="1500" height="2100" viewBox="0 0 1500 2100" version="1.1" xmlns="http://www.w3.org/2000/svg" xmlns:xlink="http://www.w3.org/1999/xlink" xml:space="preserve" xmlns:serif="http://www.serif.com/" style="fill-rule:evenodd;clip-rule:evenodd;stroke-linejoin:round;stroke-miterlimit:2;"><rect id="Card" x="0" y="0" width="1500" height="2100" style="fill:none;"/><g id="Card1" serif:id="Card"><path id="Textbox--Regular-" serif:id="Textbox (Regular)" d="M100,1594.21c-11.638,-13.385 -21.588,-37.937 -22,-66.213c0.481,-33.052 13.996,-61.016 28,-72l1288,0l0.328,0.261c13.887,11.159 27.195,38.945 27.672,71.739c-0.412,28.276 -10.362,52.828 -22,66.213l0,353.787l-1300,0l0,-353.787Zm1289,5.787l0,337l-1278,0l0,-337l1278,-0Zm-0.758,-132.993c1.202,0.073 2.313,0.685 3.017,1.673c14.074,19.773 19.027,39.547 19.027,59.32c0,19.773 -4.953,39.547 -19.027,59.32c-0.751,1.054 -1.965,1.68 -3.259,1.68l-1276,0c-1.294,0 -2.508,-0.626 -3.259,-1.68c-14.074,-19.773 -19.027,-39.547 -19.027,-59.32c-0,-19.773 4.953,-39.547 19.027,-59.32c0.751,-1.054 1.965,-1.68 3.259,-1.68l1276,0l0.242,0.007Zm-1282.57,-1234.27c-13.887,-11.159 -27.195,-38.945 -27.672,-71.739c0.481,-33.052 13.996,-61.016 28,-72l1288,-0c14.004,10.984 27.519,38.948 28,72c-0.481,33.052 -13.996,61.016 -28,72l-1288,-0l-0.328,-0.261Zm6.328,-132.739l1276,-0c1.294,-0 2.508,0.626 3.259,1.68c14.074,19.773 19.027,39.547 19.027,59.32c0,19.773 -4.953,39.547 -19.027,59.32c-0.751,1.054 -1.965,1.68 -3.259,1.68l-1276,-0c-1.294,-0 -2.508,-0.626 -3.259,-1.68c-14.074,-19.773 -19.027,-39.547 -19.027,-59.32c-0,-19.773 4.953,-39.547 19.027,-59.32c0.751,-1.054 1.965,-1.68 3.259,-1.68Z" style="fill:#0075be;"/></g></svg>