<?xml version="1.0" encoding="UTF-8" standalone="no"?>
<!DOCTYPE svg PUBLIC "-//W3C//DTD SVG 1.1//EN" "http://www.w3.org/Graphics/SVG/1.1/DTD/svg11.dtd">
<svg width="1500" height="2100" viewBox="0 0 1500 2100" version="1.1" xmlns="http://www.w3.org/2000/svg" xmlns:xlink="http://www.w3.org/1999/xlink" xml:space="preserve" xmlns:serif="http://www.serif.com/" style="fill-rule:evenodd;clip-rule:evenodd;stroke-linejoin:round;stroke-miterlimit:2;">
    <path id="front-face" serif:id="front face" d="M91.012,1843.94C70.435,1820.25 60.538,1786.67 60,1765L60,85C62.855,71.038 71.263,62.781 85,60L1415,60C1428.74,62.781 1437.14,71.038 1440,85L1440,1765C1439.85,1771.24 1438.91,1778.47 1437.17,1786.17L1409,1758L1409,1330C1409.47,1316.05 1413.75,1308.65 1419.88,1300.22C1425.59,1294.26 1428.96,1286.37 1429,1278.79C1429,1278.71 1429,1236.98 1429,1236.98C1429.17,1217.3 1421.64,1198.82 1410.42,1185.47C1396.71,1165.39 1395.06,1152.39 1395.05,1141.28C1427.71,860.4 1420.53,462.268 1385.03,245.741C1382.52,230.445 1386.5,217.853 1405.76,206.626C1410.8,205.048 1415.51,202.178 1419.33,198.38C1425.38,192.36 1428.96,184.204 1429,176.386C1429,176.307 1429,134.571 1429,134.571C1429.2,111.674 1418.96,90.404 1404.65,76.956C1393.96,66.906 1381,61.192 1368.24,61.002C1368.09,61.001 507.217,61 144.043,61L144,61C103.71,61 71,93.71 71,134C71,160.301 84.939,183.372 105.828,196.223C123.706,209.217 116.974,231.98 114.718,245.741C79.218,462.268 72.038,860.4 104.697,1141.28C104.683,1152.8 102.91,1166.37 87.717,1187.78C86.814,1188.94 85.938,1190.14 85.093,1191.37C84.849,1191.7 84.599,1192.03 84.347,1192.36L84.446,1192.33C76.318,1204.55 71.093,1219.81 70.999,1236L71,1278.71C71,1278.74 71,1278.77 71,1278.79C71.038,1286.37 74.407,1294.27 80.124,1300.23C86.247,1308.65 90.53,1316.05 91,1330L91,1843C91.003,1843.31 91.007,1843.63 91.012,1843.94Z" style="fill:rgb(0,117,190);"/>
</svg>
