<?xml version="1.0" encoding="UTF-8" standalone="no"?>
<!DOCTYPE svg PUBLIC "-//W3C//DTD SVG 1.1//EN" "http://www.w3.org/Graphics/SVG/1.1/DTD/svg11.dtd">
<svg width="1500" height="2100" viewBox="0 0 1500 2100" version="1.1" xmlns="http://www.w3.org/2000/svg" xmlns:xlink="http://www.w3.org/1999/xlink" xml:space="preserve" xmlns:serif="http://www.serif.com/" style="fill-rule:evenodd;clip-rule:evenodd;stroke-linejoin:round;stroke-miterlimit:2;">
    <path id="pinline--front-" serif:id="pinline (front)" d="M1408.06,1856.94C1402.12,1901.55 1369.16,1913.95 1335.05,1922.87C1278.98,1937.53 1240.46,1946.63 1113,1957C1100.15,1944.05 1077.13,1937.61 1045,1937L455,1937C422.871,1937.61 399.847,1944.05 387,1957C259.54,1946.63 221.02,1937.53 164.951,1922.87C127.521,1913.09 91.487,1899.1 91,1843L91,1330C90.53,1316.05 86.247,1308.65 80.124,1300.23C74.407,1294.27 71.038,1286.37 71,1278.79C71,1278.77 71,1278.74 71,1278.71L70.999,1236C71.093,1219.81 76.318,1204.55 84.446,1192.33L84.347,1192.36C84.599,1192.03 84.849,1191.7 85.093,1191.37C85.938,1190.14 86.814,1188.94 87.717,1187.78C102.91,1166.37 104.683,1152.8 104.697,1141.28C72.038,860.4 79.218,462.268 114.718,245.741C116.974,231.98 123.706,209.217 105.828,196.223C84.939,183.372 71,160.301 71,134C71,93.71 103.71,61 144,61L144.043,61C507.217,61 1368.09,61.001 1368.24,61.002C1381,61.192 1393.96,66.906 1404.65,76.956C1418.96,90.404 1429.2,111.674 1429,134.571C1429,134.571 1429,176.307 1429,176.386C1428.96,184.204 1425.38,192.36 1419.33,198.38C1415.51,202.178 1410.8,205.048 1405.76,206.626C1386.5,217.853 1382.52,230.445 1385.03,245.741C1420.53,462.268 1427.71,860.4 1395.05,1141.28C1395.06,1152.39 1396.71,1165.39 1410.42,1185.47C1421.64,1198.82 1429.17,1217.3 1429,1236.98C1429,1236.98 1429,1278.71 1429,1278.79C1428.96,1286.37 1425.59,1294.26 1419.88,1300.22C1413.75,1308.65 1409.47,1316.05 1409,1330L1409,1758L1458,1807L1408.06,1856.94ZM1388.6,1848.12L1388.6,1879C1363.02,1915.93 1300.97,1919.81 1221,1926L365,1926C285.033,1919.81 200.978,1915.93 175.406,1879L175.406,1333C177.187,1320.47 184.593,1312.83 198,1310.41L1366,1310.41C1379.41,1312.83 1386.81,1320.47 1388.6,1333L1388.6,1765.88L1429.72,1807L1388.6,1848.12ZM87,1278.71L86.999,1236C87.216,1205.88 109.603,1179.74 132,1179.41L1368,1179.41C1390.64,1179.74 1413.27,1206.44 1413,1236.98L1413,1278.71C1412.96,1286.4 1405.15,1294.4 1397,1294.41L103,1294.41C94.852,1294.4 87.038,1286.4 87,1278.71ZM168,208C143.083,212.287 142.57,231.851 142.57,231.851C96.847,407.216 82.857,940.144 136.443,1130.77C142.916,1143.71 138.575,1161.65 176,1163.41L176,1163.41L1323.75,1163.41L1323.75,1163.41C1361.17,1161.65 1356.83,1143.71 1363.3,1130.77C1416.89,940.144 1402.9,407.216 1357.18,231.851C1357.18,231.851 1356.66,212.287 1331.75,208L168,208ZM194.248,77C210.037,90.933 220,111.312 220,134C220,157.238 209.548,178.055 193.092,192L1397,192C1405.15,191.996 1412.96,183.999 1413,176.307L1413,134.571C1413.27,104.037 1390.64,77.337 1368,77L194.248,77ZM144,78.998C174.357,78.998 199.002,103.643 199.002,134C199.002,164.357 174.357,189.002 144,189.002C113.643,189.002 88.998,164.357 88.998,134C88.998,103.643 113.643,78.998 144,78.998Z" style="fill:rgb(239,56,39);"/>
</svg>
