<?xml version="1.0" encoding="UTF-8" standalone="no"?>
<!DOCTYPE svg PUBLIC "-//W3C//DTD SVG 1.1//EN" "http://www.w3.org/Graphics/SVG/1.1/DTD/svg11.dtd">
<svg width="1500" height="2100" viewBox="0 0 1500 2100" version="1.1" xmlns="http://www.w3.org/2000/svg" xmlns:xlink="http://www.w3.org/1999/xlink" xml:space="preserve" xmlns:serif="http://www.serif.com/" style="fill-rule:evenodd;clip-rule:evenodd;stroke-linejoin:round;stroke-miterlimit:2;">
    <rect id="Card" x="0" y="0" width="1500" height="2100" style="fill:none;"/>
    <g id="Card1" serif:id="Card">
        <path id="Legend-Crown" serif:id="Legend Crown" d="M69.793,133.381C61.106,107.173 62.413,81.536 83,57C106.825,70.146 145.761,70.699 185,71C202.537,76.401 214.83,83.749 224,93L103.948,93L102.768,94.847C88.682,116.899 85.714,138.948 85.714,161L85.716,162.034C85.809,183.74 88.902,205.445 102.768,227.153L103.948,229L229.725,229C223.773,236.521 217.215,244.289 209.669,251L90.714,251C80.377,231.691 73.974,212.78 70,188L37,161L70,134L69.793,133.381ZM1430.21,133.381C1438.89,107.173 1437.59,81.536 1417,57C1393.17,70.146 1354.24,70.699 1315,71C1297.46,76.401 1285.17,83.749 1276,93L1396.05,93L1397.23,94.847C1411.32,116.899 1414.29,138.948 1414.29,161L1414.28,162.034C1414.19,183.74 1411.1,205.445 1397.23,227.153L1396.05,229L1270.28,229C1276.23,236.521 1282.79,244.289 1290.33,251L1409.29,251C1419.62,231.691 1426.03,212.78 1430,188L1463,161L1430,134L1430.21,133.381ZM372,93L238,93C244.426,77.013 253.338,64.242 274,53C304.555,71.462 338.151,83.365 374.422,88.974L373.235,90.109C372.431,90.879 372,91.929 372,93ZM1128,93L1262,93C1255.57,77.013 1246.66,64.242 1226,53C1195.44,71.462 1161.85,83.365 1125.58,88.974L1126.77,90.109C1127.57,90.879 1128,91.929 1128,93ZM750.3,34C743.125,34 737.3,39.825 737.3,47C737.3,54.175 743.125,60 750.3,60C757.475,60 763.3,54.175 763.3,47C763.3,39.825 757.475,34 750.3,34Z" style="fill:rgb(0,123,67);"/>
        <clipPath id="_clip1">
            <path id="Legend-Crown1" serif:id="Legend Crown" d="M69.793,133.381C61.106,107.173 62.413,81.536 83,57C106.825,70.146 145.761,70.699 185,71C202.537,76.401 214.83,83.749 224,93L103.948,93L102.768,94.847C88.682,116.899 85.714,138.948 85.714,161L85.716,162.034C85.809,183.74 88.902,205.445 102.768,227.153L103.948,229L229.725,229C223.773,236.521 217.215,244.289 209.669,251L90.714,251C80.377,231.691 73.974,212.78 70,188L37,161L70,134L69.793,133.381ZM1430.21,133.381C1438.89,107.173 1437.59,81.536 1417,57C1393.17,70.146 1354.24,70.699 1315,71C1297.46,76.401 1285.17,83.749 1276,93L1396.05,93L1397.23,94.847C1411.32,116.899 1414.29,138.948 1414.29,161L1414.28,162.034C1414.19,183.74 1411.1,205.445 1397.23,227.153L1396.05,229L1270.28,229C1276.23,236.521 1282.79,244.289 1290.33,251L1409.29,251C1419.62,231.691 1426.03,212.78 1430,188L1463,161L1430,134L1430.21,133.381ZM372,93L238,93C244.426,77.013 253.338,64.242 274,53C304.555,71.462 338.151,83.365 374.422,88.974L373.235,90.109C372.431,90.879 372,91.929 372,93ZM1128,93L1262,93C1255.57,77.013 1246.66,64.242 1226,53C1195.44,71.462 1161.85,83.365 1125.58,88.974L1126.77,90.109C1127.57,90.879 1128,91.929 1128,93ZM750.3,34C743.125,34 737.3,39.825 737.3,47C737.3,54.175 743.125,60 750.3,60C757.475,60 763.3,54.175 763.3,47C763.3,39.825 757.475,34 750.3,34Z"/>
        </clipPath>
        <g clip-path="url(#_clip1)">
            <rect id="W" x="-632" y="-332" width="2764" height="2764" style="fill:rgb(243,241,231);"/>
            <g id="Gold" transform="matrix(1,0,0,1,-640.7,-1578)">
                <circle cx="1391" cy="1625" r="13" style="fill:rgb(255,210,15);"/>
                <path d="M1391,1608C1381.62,1608 1374,1615.62 1374,1625C1374,1634.38 1381.62,1642 1391,1642C1400.38,1642 1408,1634.38 1408,1625C1408,1615.62 1400.38,1608 1391,1608ZM1391,1612C1383.83,1612 1378,1617.83 1378,1625C1378,1632.17 1383.83,1638 1391,1638C1398.17,1638 1404,1632.17 1404,1625C1404,1617.83 1398.17,1612 1391,1612Z"/>
            </g>
        </g>
        <path id="Legend-Crown2" serif:id="Legend Crown" d="M65.352,132.635L34.467,157.904C33.539,158.664 33,159.8 33,161C33,162.2 33.539,163.336 34.467,164.096L66.296,190.138C70.366,214.677 76.854,233.585 87.187,252.888C87.883,254.188 89.239,255 90.714,255L209.669,255C210.649,255 211.595,254.64 212.327,253.989C220.05,247.121 226.77,239.179 232.862,231.482C233.814,230.28 233.994,228.639 233.326,227.258C232.658,225.877 231.259,225 229.725,225L106.139,225C92.732,204.011 89.806,183.007 89.716,162.02C89.716,162.02 89.714,160.997 89.714,160.997C89.714,139.67 92.516,118.327 106.139,97L224,97C225.615,97 227.071,96.029 227.692,94.539C228.313,93.048 227.978,91.331 226.841,90.184C217.272,80.531 204.475,72.812 186.177,67.177C185.806,67.063 185.419,67.003 185.031,67C146.535,66.705 108.305,66.395 84.932,53.498C83.258,52.574 81.165,52.964 79.936,54.429C58.839,79.573 56.954,105.806 65.352,132.635ZM1393.86,97C1407.48,118.327 1410.29,139.67 1410.29,160.997C1410.29,160.997 1410.28,162.02 1410.28,162.02C1410.19,183.007 1407.27,204.011 1393.86,225L1270.28,225C1268.74,225 1267.34,225.877 1266.67,227.258C1266.01,228.639 1266.19,230.28 1267.14,231.482C1273.23,239.179 1279.95,247.121 1287.67,253.989C1288.4,254.64 1289.35,255 1290.33,255L1409.29,255C1410.76,255 1412.12,254.188 1412.81,252.888C1423.15,233.585 1429.63,214.677 1433.7,190.137C1433.7,190.138 1465.53,164.096 1465.53,164.096C1466.46,163.336 1467,162.2 1467,161C1467,159.8 1466.46,158.664 1465.53,157.904L1434.65,132.635C1443.05,105.806 1441.16,79.573 1420.06,54.429C1418.84,52.964 1416.74,52.574 1415.07,53.498C1391.69,66.395 1353.46,66.705 1314.97,67C1314.58,67.003 1314.19,67.063 1313.82,67.177C1295.53,72.812 1282.73,80.531 1273.16,90.184C1272.02,91.331 1271.69,93.048 1272.31,94.539C1272.93,96.029 1274.38,97 1276,97L1393.86,97ZM69.793,133.381C61.106,107.173 62.413,81.536 83,57C106.825,70.146 145.761,70.699 185,71C202.537,76.401 214.83,83.749 224,93L103.948,93L102.768,94.847C88.682,116.899 85.714,138.948 85.714,161L85.716,162.034C85.809,183.74 88.902,205.445 102.768,227.153L103.948,229L229.725,229C223.773,236.521 217.215,244.289 209.669,251L90.714,251C80.377,231.691 73.974,212.78 70,188L37,161L70,134L69.793,133.381ZM1430.21,133.381C1438.89,107.173 1437.59,81.536 1417,57C1393.17,70.146 1354.24,70.699 1315,71C1297.46,76.401 1285.17,83.749 1276,93L1396.05,93L1397.23,94.847C1411.32,116.899 1414.29,138.948 1414.29,161L1414.28,162.034C1414.19,183.74 1411.1,205.445 1397.23,227.153L1396.05,229L1270.28,229C1276.23,236.521 1282.79,244.289 1290.33,251L1409.29,251C1419.62,231.691 1426.03,212.78 1430,188L1463,161L1430,134L1430.21,133.381ZM372,97C374.209,97 376,95.209 376,93L377.187,91.864C378.288,90.812 378.695,89.226 378.238,87.773C377.781,86.32 376.539,85.253 375.034,85.021C339.29,79.494 306.179,67.77 276.069,49.576C274.852,48.841 273.337,48.807 272.088,49.486C250.387,61.293 241.038,74.717 234.289,91.508C233.793,92.741 233.942,94.139 234.686,95.24C235.43,96.34 236.671,97 238,97L372,97ZM1124,93C1124,95.209 1125.79,97 1128,97L1262,97C1263.33,97 1264.57,96.34 1265.31,95.24C1266.06,94.139 1266.21,92.741 1265.71,91.508C1258.96,74.717 1249.61,61.293 1227.91,49.486C1226.66,48.807 1225.15,48.841 1223.93,49.576C1193.82,67.77 1160.71,79.494 1124.97,85.021C1123.46,85.253 1122.22,86.32 1121.76,87.773C1121.31,89.226 1121.71,90.812 1122.81,91.864L1124,93ZM372,93L238,93C244.426,77.013 253.338,64.242 274,53C304.555,71.462 338.151,83.365 374.422,88.974L373.235,90.109C372.431,90.879 372,91.929 372,93ZM1128,93L1262,93C1255.57,77.013 1246.66,64.242 1226,53C1195.44,71.462 1161.85,83.365 1125.58,88.974L1126.77,90.109C1127.57,90.879 1128,91.929 1128,93ZM750.3,30C740.917,30 733.3,37.617 733.3,47C733.3,56.383 740.917,64 750.3,64C759.683,64 767.3,56.383 767.3,47C767.3,37.617 759.683,30 750.3,30ZM750.3,34C743.125,34 737.3,39.825 737.3,47C737.3,54.175 743.125,60 750.3,60C757.475,60 763.3,54.175 763.3,47C763.3,39.825 757.475,34 750.3,34Z"/>
    </g>
</svg>
