<?xml version="1.0" encoding="UTF-8" standalone="no"?><!DOCTYPE svg PUBLIC "-//W3C//DTD SVG 1.1//EN" "http://www.w3.org/Graphics/SVG/1.1/DTD/svg11.dtd"><svg width="180" height="252" viewBox="0 0 180 252" version="1.1" xmlns="http://www.w3.org/2000/svg" xmlns:xlink="http://www.w3.org/1999/xlink" xml:space="preserve" xmlns:serif="http://www.serif.com/" style="fill-rule:evenodd;clip-rule:evenodd;stroke-linejoin:round;stroke-miterlimit:2;"><path id="Textbox" d="M12.03,27.3c-1.409,-1.598 -2.62,-4.562 -2.67,-7.98c0.058,-3.966 1.679,-7.322 3.36,-8.64l154.56,0c1.681,1.318 3.302,4.674 3.36,8.64c-0.05,3.418 -1.261,6.382 -2.67,7.98c1.409,1.598 2.62,4.562 2.67,7.98c-0.049,3.393 -1.243,6.339 -2.64,7.946l-0,190.534l-156,0l-0,-190.534c-1.397,-1.607 -2.591,-4.553 -2.64,-7.946c0.05,-3.418 1.261,-6.382 2.67,-7.98Zm154.65,16.62l-0,188.52l-153.36,0l-0,-188.52l153.36,-0Zm-0.091,-15.959c0.144,0.009 0.278,0.082 0.362,0.201c1.689,2.372 2.283,4.745 2.283,7.118c0,2.373 -0.594,4.746 -2.283,7.118c-0.09,0.127 -0.236,0.202 -0.391,0.202l-153.12,0c-0.155,0 -0.301,-0.075 -0.391,-0.202c-1.689,-2.372 -2.283,-4.745 -2.283,-7.118c-0,-2.373 0.594,-4.746 2.283,-7.118c0.09,-0.127 0.236,-0.202 0.391,-0.202l153.12,0l0.029,0.001Zm-153.149,-15.961l153.12,0c0.155,-0 0.301,0.075 0.391,0.202c1.689,2.372 2.283,4.745 2.283,7.118c0,2.373 -0.594,4.746 -2.283,7.118c-0.09,0.127 -0.236,0.202 -0.391,0.202l-153.12,0c-0.155,-0 -0.301,-0.075 -0.391,-0.202c-1.689,-2.372 -2.283,-4.745 -2.283,-7.118c-0,-2.373 0.594,-4.746 2.283,-7.118c0.09,-0.127 0.236,-0.202 0.391,-0.202Z" style="fill:#007b43;"/></svg>