<?xml version="1.0" encoding="UTF-8" standalone="no"?>
<!DOCTYPE svg PUBLIC "-//W3C//DTD SVG 1.1//EN" "http://www.w3.org/Graphics/SVG/1.1/DTD/svg11.dtd">
<svg width="300" height="300" viewBox="0 0 300 300" version="1.1" xmlns="http://www.w3.org/2000/svg" xmlns:xlink="http://www.w3.org/1999/xlink" xml:space="preserve" xmlns:serif="http://www.serif.com/" style="fill-rule:evenodd;clip-rule:evenodd;stroke-linejoin:round;stroke-miterlimit:2;">
    <path d="M113.39,83.925L108.221,83.546C106.089,83.389 104.021,82.41 102.614,80.797L102.583,80.761C100.65,78.598 99.946,75.485 100.71,72.736L100.733,72.652C101.056,71.387 101.689,70.328 102.406,69.346L118.724,46.984L92.993,57.194C80.769,62.045 68.837,67.74 57.905,75.096C39.579,87.233 24.046,103.629 13.058,122.704L2.437,141.144L22.575,134.268C31.719,131.147 40.839,127.96 49.985,124.844C58.233,133.238 66.496,141.617 74.75,150.005C66.491,158.391 58.232,166.772 49.987,175.167C40.842,172.061 31.723,168.869 22.574,165.747L2.378,158.858L13.067,177.326C18.602,186.89 25.247,195.808 32.831,203.83C41.842,213.374 52.207,221.625 63.425,228.43C72.791,234.169 82.801,238.74 92.979,242.813L119.542,253.443L102.345,230.577C101.184,229.034 100.425,227.153 100.425,225.213L100.425,225.152C100.382,222.357 101.753,219.667 103.957,218.059L103.993,218.033C105.247,217.096 106.73,216.573 108.245,216.463L113.401,216.09L144.3,247.476L150.002,253.264L155.701,247.473L186.593,216.09L191.745,216.463C193.26,216.573 194.743,217.096 195.962,218.006L195.998,218.033C198.238,219.667 199.608,222.357 199.566,225.091L199.565,225.152C199.565,227.153 198.806,229.034 197.645,230.577L180.449,253.443L207.011,242.813C217.19,238.74 227.2,234.169 236.566,228.43C247.784,221.625 258.148,213.374 267.16,203.83C274.743,195.808 281.389,186.89 286.924,177.326L297.613,158.858L277.417,165.747C268.268,168.869 259.149,172.061 250.003,175.167C241.759,166.772 233.499,158.391 225.241,150.005C233.495,141.617 241.757,133.238 250.005,124.844C259.152,127.96 268.272,131.147 277.415,134.268L297.553,141.144L286.932,122.704C275.945,103.629 260.412,87.233 242.062,75.08C231.136,67.732 219.212,62.041 206.998,57.194L181.267,46.984L197.585,69.346C198.302,70.328 198.935,71.387 199.236,72.568L199.257,72.652C200.044,75.485 199.341,78.598 197.44,80.726L197.408,80.761C195.97,82.41 193.902,83.389 191.77,83.546L186.602,83.925C176.302,73.457 165.997,62.991 155.692,52.525L149.99,46.735L144.29,52.527C133.99,62.992 123.693,73.46 113.39,83.925ZM150.012,177.503L139.803,187.873C143.199,191.328 146.596,194.782 149.998,198.232C153.398,194.777 156.8,191.323 160.202,187.868L150.012,177.503ZM149.998,122.485L160.196,112.128C156.799,108.673 153.401,105.22 150.001,101.767C146.602,105.22 143.206,108.674 139.807,112.127L149.998,122.485Z" style="fill:rgb(128,128,128);"/>
    <g transform="matrix(8.12504,0,0,8.12504,19.9988,19.9994)">
        <path d="M9.459,11.338C11.64,9.125 13.819,6.909 15.999,4.694C18.18,6.909 20.361,9.124 22.54,11.34C19.481,14.447 16.422,17.553 13.364,20.661C14.242,21.554 15.12,22.448 16.001,23.339C16.879,22.446 17.758,21.554 18.637,20.661C17.953,19.966 17.27,19.27 16.586,18.575C17.236,17.914 17.887,17.254 18.537,16.592C19.872,17.948 21.207,19.304 22.541,20.661C20.361,22.877 18.18,25.091 16,27.306C13.819,25.092 11.64,22.876 9.459,20.662C12.516,17.552 15.578,14.448 18.636,11.339C17.758,10.446 16.88,9.553 16,8.661C15.12,9.553 14.243,10.447 13.363,11.339C14.049,12.033 14.732,12.73 15.417,13.425C14.766,14.086 14.114,14.747 13.463,15.407C12.129,14.05 10.792,12.696 9.459,11.338ZM22.652,5.493C22.814,5.715 22.946,5.96 23.014,6.227C23.196,6.882 23.026,7.623 22.573,8.13C22.231,8.522 21.731,8.765 21.213,8.803C22.043,9.65 22.877,10.493 23.707,11.34C22.178,12.894 20.648,14.446 19.121,16.001C20.65,17.555 22.179,19.108 23.709,20.661C22.876,21.506 22.043,22.352 21.209,23.198C21.582,23.225 21.946,23.357 22.246,23.581C22.771,23.964 23.095,24.606 23.085,25.257C23.085,25.708 22.921,26.15 22.651,26.509C23.853,26.028 25.036,25.49 26.142,24.812C27.448,24.02 28.655,23.06 29.704,21.949C30.585,21.017 31.357,19.981 32,18.87C30.678,19.321 29.361,19.784 28.038,20.228C26.654,18.817 25.266,17.41 23.879,16.001C25.265,14.591 26.654,13.184 28.039,11.773C29.362,12.219 30.679,12.681 32,13.132C30.723,10.915 28.917,9.01 26.784,7.598C25.497,6.732 24.091,6.064 22.652,5.493ZM9.347,5.493C9.185,5.715 9.053,5.96 8.985,6.227C8.803,6.882 8.973,7.623 9.426,8.13C9.768,8.522 10.268,8.765 10.786,8.803C9.956,9.65 9.122,10.493 8.292,11.34C9.821,12.894 11.351,14.446 12.878,16.001C11.349,17.555 9.82,19.108 8.29,20.661C9.123,21.506 9.956,22.352 10.79,23.198C10.417,23.225 10.053,23.357 9.753,23.581C9.228,23.964 8.904,24.606 8.914,25.257C8.914,25.708 9.078,26.15 9.348,26.509C8.146,26.028 6.963,25.49 5.857,24.812C4.551,24.02 3.344,23.06 2.295,21.949C1.414,21.017 0.642,19.981 -0.001,18.87C1.321,19.321 2.638,19.784 3.961,20.228C5.345,18.817 6.733,17.41 8.12,16.001C6.734,14.591 5.345,13.184 3.96,11.773C2.637,12.219 1.32,12.681 -0.001,13.132C1.276,10.915 3.082,9.01 5.215,7.598C6.502,6.732 7.908,6.064 9.347,5.493ZM9.459,11.338L9.459,11.338L9.459,11.337L9.459,11.338Z" style="fill-rule:nonzero;"/>
    </g>
</svg>
