<?xml version="1.0" encoding="UTF-8" standalone="no"?>
<!DOCTYPE svg PUBLIC "-//W3C//DTD SVG 1.1//EN" "http://www.w3.org/Graphics/SVG/1.1/DTD/svg11.dtd">
<svg width="320" height="200" viewBox="0 0 320 200" version="1.1" xmlns="http://www.w3.org/2000/svg" xmlns:xlink="http://www.w3.org/1999/xlink" xml:space="preserve" xmlns:serif="http://www.serif.com/" style="fill-rule:evenodd;clip-rule:evenodd;stroke-linejoin:round;stroke-miterlimit:2;">
    <g transform="matrix(9.99969,0,0,9.99969,2.84217e-14,-59.9764)">
        <path d="M16.248,8.226C16.816,8.26 16.574,8.234 16.978,8.286C17.535,8.376 18.065,8.593 18.545,8.884C22.253,8.883 25.96,8.884 29.668,8.884C29.826,8.886 30,8.905 30.124,9.014C30.21,9.091 30.237,9.213 30.225,9.325C30.208,9.508 30.119,9.673 30.025,9.826C29.842,10.133 29.649,10.433 29.451,10.73C30.295,10.731 31.138,10.73 31.982,10.731L32.001,10.74C31.286,11.926 30.475,13.051 29.642,14.156C27.951,16.376 26.1,18.475 24.106,20.427C22.931,20.431 21.755,20.422 20.58,20.431C19.304,21.599 17.975,22.714 16.538,23.679C16.332,23.804 16.085,23.765 15.857,23.771C15.675,23.779 15.495,23.719 15.352,23.607C13.96,22.655 12.664,21.57 11.421,20.431C10.247,20.422 9.071,20.43 7.896,20.427C6.01,18.582 4.253,16.604 2.636,14.518C1.724,13.333 0.848,12.116 0.058,10.845C0.037,10.811 0.017,10.776 -0,10.74L0.02,10.729C0.859,10.73 1.699,10.725 2.538,10.731L2.54,10.715C2.336,10.408 2.136,10.097 1.947,9.78C1.834,9.591 1.727,9.364 1.79,9.14C1.861,8.936 2.105,8.884 2.295,8.882C5.983,8.881 9.671,8.882 13.36,8.881C13.406,8.877 13.459,8.895 13.498,8.86C14.149,8.457 14.91,8.229 15.677,8.228L16.003,8.227L16.248,8.224L16.248,8.226Z" style="fill-rule:nonzero;"/>
    </g>
    <g transform="matrix(9.99969,0,0,9.99969,2.84217e-14,-59.9764)">
        <path d="M2.865,9.7C6.087,9.699 9.308,9.701 12.53,9.699C12.265,10.005 12.068,10.363 11.91,10.734C9.131,10.73 6.351,10.732 3.571,10.733L3.55,10.721C3.316,10.385 3.086,10.045 2.865,9.7ZM19.469,9.699C19.706,9.982 19.907,10.297 20.042,10.641C20.053,10.675 20.069,10.705 20.09,10.734C22.87,10.729 25.65,10.731 28.43,10.733C28.683,10.403 28.905,10.047 29.134,9.699C25.912,9.698 22.691,9.7 19.469,9.698L19.469,9.699ZM27.281,15.827C26.145,15.81 24.986,15.841 23.678,15.811C23.836,15.652 23.983,15.483 24.139,15.321C24.169,15.295 24.188,15.25 24.233,15.246C24.426,15.246 24.619,15.247 24.812,15.246C26.306,15.243 25.512,15.238 26.542,15.248L27.743,15.252C28.182,14.74 28.589,14.202 28.991,13.662C27.973,13.656 28.577,13.659 25.547,13.663C25.728,13.473 25.878,13.254 26.059,13.065C26.495,13.068 27.616,13.069 29.395,13.077L29.442,13.077C29.815,12.555 30.201,12.041 30.548,11.501C29.564,11.497 28.58,11.499 27.595,11.497L24.92,11.497C23.356,11.497 21.793,11.496 20.229,11.497C20.311,12.094 20.277,12.707 20.116,13.288C19.993,13.761 19.868,14.265 19.999,14.75C20.053,14.962 20.215,15.13 20.241,15.351C20.264,15.568 20.239,15.787 20.196,16C20.096,16.452 19.948,16.906 19.672,17.284C19.518,17.489 19.319,17.674 19.073,17.757C18.903,17.819 18.72,17.823 18.542,17.831C18.532,18.186 18.551,18.542 18.532,18.897C18.476,19.204 18.238,19.448 17.958,19.569C17.778,19.646 17.586,19.707 17.39,19.714C17.035,19.757 16.678,19.797 16.32,19.788C15.856,19.781 15.389,19.813 14.928,19.747C14.663,19.721 14.391,19.712 14.14,19.609C13.819,19.501 13.53,19.243 13.467,18.899C13.448,18.544 13.467,18.188 13.457,17.832C13.173,17.831 12.872,17.789 12.642,17.608C12.222,17.285 12.01,16.773 11.869,16.278C11.78,15.926 11.688,15.546 11.797,15.189C11.904,14.982 12.028,14.773 12.043,14.534C12.126,13.861 11.801,13.234 11.748,12.573C11.705,12.215 11.727,11.854 11.77,11.497L4.132,11.496L3.08,11.496C2.844,11.496 2.608,11.497 2.372,11.496L2.34,11.496C2.042,11.496 1.744,11.497 1.447,11.498C1.793,12.039 2.182,12.552 2.554,13.075C2.705,13.091 2.858,13.077 3.01,13.082L3.514,13.082C4.731,13.083 4.159,13.089 4.967,13.078L4.967,13.08L4.995,13.078L5.025,13.078L5.025,13.076C5.339,13.052 5.654,13.078 5.969,13.085C6.121,13.282 6.284,13.473 6.445,13.663C5.372,13.665 5.909,13.665 4.821,13.653C4.217,13.655 3.613,13.654 3.01,13.658C3.034,13.71 3.072,13.754 3.107,13.8C3.482,14.29 3.851,14.786 4.256,15.252C4.455,15.252 4.654,15.256 7.793,15.254C7.979,15.442 8.156,15.639 8.336,15.832C7.14,15.833 5.943,15.837 4.746,15.836C5.209,16.366 5.665,16.911 6.15,17.418C7.387,17.422 8.625,17.423 9.862,17.425C10.077,17.601 10.278,17.809 10.483,18.002C9.217,18.004 7.951,18.006 6.685,18.007C7.21,18.535 7.708,19.093 8.26,19.593C9.412,19.596 10.563,19.595 11.715,19.598C12.063,19.881 12.404,20.174 12.752,20.458L19.246,20.458C19.595,20.175 19.934,19.879 20.284,19.597C21.435,19.594 22.586,19.594 23.737,19.592C24.29,19.093 24.787,18.532 25.315,18.007C24.049,18.008 22.782,18.004 21.515,18.002C21.712,17.809 21.915,17.624 22.112,17.431C22.308,17.414 22.509,17.428 22.707,17.423C23.755,17.421 24.802,17.42 25.85,17.416L27.281,15.827ZM13.484,21.143C14.244,21.773 15.025,22.38 15.839,22.938C15.946,22.938 16.054,22.939 16.162,22.938C16.975,22.377 17.755,21.772 18.516,21.143C16.839,21.147 15.162,21.147 13.484,21.143Z" style="fill:url(#_Linear1);fill-rule:nonzero;"/>
    </g>
    <g transform="matrix(9.99969,0,0,9.99969,2.84217e-14,-59.9764)">
        <path d="M15.995,8.751L16.249,8.751C16.839,8.751 17.432,8.883 17.958,9.152C18.527,9.442 19.021,9.882 19.363,10.423C19.501,10.644 19.617,10.883 19.67,11.14C19.753,11.565 19.803,12 19.769,12.434C19.726,13.051 19.453,13.629 19.451,14.252C19.43,14.618 19.52,14.986 19.701,15.304C19.801,15.446 19.745,15.63 19.731,15.79C19.648,16.252 19.504,16.727 19.189,17.086C19.029,17.275 18.768,17.329 18.532,17.305C18.374,17.299 18.208,17.235 18.055,17.301C17.876,17.379 17.81,17.604 17.853,17.783C17.886,17.951 18.071,18.063 18.047,18.247C18.046,18.437 18.05,18.627 18.045,18.817C18.012,19.043 17.789,19.175 17.587,19.231C17.527,19.241 17.457,19.286 17.403,19.239C17.371,19.105 17.41,18.96 17.383,18.825C17.341,18.679 17.082,18.692 17.07,18.848C17.067,18.983 17.071,19.118 17.068,19.253C17.059,19.303 17.01,19.337 16.961,19.336C16.711,19.344 16.461,19.356 16.211,19.352C16.143,19.318 16.16,19.236 16.158,19.174C16.153,19.067 16.17,18.957 16.148,18.852C16.121,18.706 15.873,18.709 15.849,18.855C15.827,18.995 15.846,19.138 15.839,19.278C15.837,19.319 15.798,19.364 15.753,19.354C15.515,19.352 15.277,19.345 15.04,19.336C14.99,19.337 14.942,19.302 14.933,19.252C14.931,19.118 14.934,18.984 14.932,18.85C14.923,18.693 14.664,18.678 14.62,18.821C14.589,18.957 14.63,19.104 14.599,19.239C14.584,19.244 14.555,19.255 14.54,19.26C14.331,19.218 14.101,19.132 13.994,18.933C13.935,18.832 13.959,18.713 13.954,18.602C13.956,18.448 13.949,18.294 13.958,18.14C14.011,18.002 14.14,17.898 14.155,17.744C14.19,17.546 14.078,17.302 13.861,17.274C13.635,17.257 13.409,17.345 13.184,17.29C12.982,17.265 12.824,17.119 12.711,16.96C12.504,16.664 12.382,16.316 12.304,15.965C12.267,15.775 12.231,15.579 12.257,15.385C12.374,15.172 12.48,14.95 12.521,14.709C12.591,14.308 12.538,13.896 12.449,13.503C12.361,13.136 12.252,12.772 12.23,12.394C12.202,11.926 12.256,11.454 12.367,11C12.585,10.334 13.074,9.782 13.642,9.387C14.115,9.063 14.667,8.856 15.235,8.783C15.657,8.742 15.403,8.76 15.997,8.749L15.995,8.751ZM16.022,16.166C15.901,16.177 15.951,16.164 15.87,16.192C15.816,16.219 15.774,16.265 15.753,16.322C15.616,16.631 15.474,16.938 15.34,17.247C15.311,17.349 15.438,17.444 15.523,17.374C15.654,17.253 15.813,17.13 16.002,17.139C16.154,17.132 16.293,17.214 16.405,17.309C16.451,17.35 16.5,17.41 16.57,17.395C16.647,17.381 16.688,17.283 16.651,17.215C16.51,16.908 16.376,16.598 16.236,16.291C16.183,16.214 16.119,16.173 16.023,16.165L16.022,16.166ZM13.494,14.819L13.425,14.826C13.296,14.846 13.181,14.928 13.117,15.042C12.969,15.298 12.964,15.622 13.088,15.888C13.187,16.115 13.386,16.316 13.64,16.352C13.904,16.377 14.173,16.371 14.431,16.306C14.886,16.198 15.297,15.913 15.554,15.522C15.313,15.463 15.075,15.388 14.845,15.295C14.547,15.176 14.265,15.017 13.962,14.909C13.81,14.861 13.655,14.811 13.493,14.819L13.494,14.819ZM18.473,14.818L18.415,14.819L18.352,14.827C18.013,14.882 17.709,15.048 17.4,15.188C17.093,15.331 16.772,15.441 16.444,15.524C16.569,15.703 16.719,15.866 16.896,15.994C17.328,16.316 17.898,16.424 18.425,16.338C18.973,16.176 19.179,15.395 18.823,14.961C18.722,14.873 18.61,14.819 18.473,14.817L18.473,14.818Z" style="fill:white;fill-rule:nonzero;"/>
    </g>
    <defs>
        <linearGradient id="_Linear1" x1="0" y1="0" x2="1" y2="0" gradientUnits="userSpaceOnUse" gradientTransform="matrix(4.40447e-15,15.5483,-7.07419,2.00396e-15,15.9975,8.224)"><stop offset="0" style="stop-color:rgb(191,51,28);stop-opacity:1"/><stop offset="0.3" style="stop-color:rgb(211,100,28);stop-opacity:1"/><stop offset="0.5" style="stop-color:rgb(246,185,29);stop-opacity:1"/><stop offset="0.7" style="stop-color:rgb(211,100,28);stop-opacity:1"/><stop offset="1" style="stop-color:rgb(191,51,28);stop-opacity:1"/></linearGradient>
    </defs>
</svg>
