<?xml version="1.0" encoding="UTF-8" standalone="no"?>
<!DOCTYPE svg PUBLIC "-//W3C//DTD SVG 1.1//EN" "http://www.w3.org/Graphics/SVG/1.1/DTD/svg11.dtd">
<svg width="320" height="200" viewBox="0 0 320 200" version="1.1" xmlns="http://www.w3.org/2000/svg" xmlns:xlink="http://www.w3.org/1999/xlink" xml:space="preserve" xmlns:serif="http://www.serif.com/" style="fill-rule:evenodd;clip-rule:evenodd;stroke-linejoin:round;stroke-miterlimit:2;">
    <g transform="matrix(9.99969,0,0,9.99969,2.84217e-14,-59.9764)">
        <path d="M16.248,8.226C16.816,8.26 16.574,8.234 16.978,8.286C17.535,8.376 18.065,8.593 18.545,8.884C22.253,8.883 25.96,8.884 29.668,8.884C29.826,8.886 30,8.905 30.124,9.014C30.21,9.091 30.237,9.213 30.225,9.325C30.208,9.508 30.119,9.673 30.025,9.826C29.842,10.133 29.649,10.433 29.451,10.73C30.295,10.731 31.138,10.73 31.982,10.731L32.001,10.74C31.286,11.926 30.475,13.051 29.642,14.156C27.951,16.376 26.1,18.475 24.106,20.427C22.931,20.431 21.755,20.422 20.58,20.431C19.304,21.599 17.975,22.714 16.538,23.679C16.332,23.804 16.085,23.765 15.857,23.771C15.675,23.779 15.495,23.719 15.352,23.607C13.96,22.655 12.664,21.57 11.421,20.431C10.247,20.422 9.071,20.43 7.896,20.427C6.01,18.582 4.253,16.604 2.636,14.518C1.724,13.333 0.848,12.116 0.058,10.845C0.037,10.811 0.017,10.776 -0,10.74L0.02,10.729C0.859,10.73 1.699,10.725 2.538,10.731L2.54,10.715C2.336,10.408 2.136,10.097 1.947,9.78C1.834,9.591 1.727,9.364 1.79,9.14C1.861,8.936 2.105,8.884 2.295,8.882C5.983,8.881 9.671,8.882 13.36,8.881C13.406,8.877 13.459,8.895 13.498,8.86C14.149,8.457 14.91,8.229 15.677,8.228L16.003,8.227L16.248,8.224L16.248,8.226Z" style="fill-rule:nonzero;"/>
    </g>
    <path d="M134.836,151.447C142.436,157.747 150.245,163.817 158.385,169.396C159.455,169.396 160.535,169.406 161.615,169.396C169.745,163.787 177.544,157.737 185.154,151.447C168.385,151.487 151.615,151.487 134.836,151.447ZM272.801,98.289C261.442,98.119 249.852,98.429 236.773,98.129C238.353,96.539 239.823,94.849 241.382,93.229C241.682,92.969 241.872,92.519 242.322,92.479C244.252,92.479 246.182,92.489 248.112,92.479C263.052,92.449 255.112,92.399 265.412,92.499L277.421,92.539C281.811,87.419 285.881,82.039 289.901,76.639C279.721,76.579 285.761,76.609 255.462,76.649C257.272,74.749 258.772,72.559 260.582,70.67C264.942,70.7 276.151,70.71 293.941,70.79L294.411,70.79C298.141,65.57 302.001,60.43 305.47,55.03C295.631,54.99 285.791,55.01 275.941,54.99L249.192,54.99C233.553,54.99 217.923,54.98 202.284,54.99C203.104,60.96 202.764,67.09 201.154,72.899C199.924,77.629 198.674,82.669 199.984,87.519C200.524,89.639 202.144,91.319 202.404,93.529C202.634,95.699 202.384,97.889 201.954,100.019C200.954,104.538 199.474,109.078 196.714,112.858C195.174,114.908 193.184,116.758 190.724,117.588C189.024,118.208 187.194,118.248 185.414,118.328C185.314,121.878 185.504,125.438 185.314,128.988C184.754,132.058 182.374,134.498 179.574,135.707C177.774,136.477 175.855,137.087 173.895,137.157C170.345,137.587 166.775,137.987 163.195,137.897C158.555,137.827 153.885,138.147 149.275,137.487C146.625,137.227 143.906,137.137 141.396,136.107C138.186,135.028 135.296,132.448 134.666,129.008C134.476,125.458 134.666,121.898 134.566,118.338C131.726,118.328 128.716,117.908 126.416,116.098C122.216,112.868 120.096,107.748 118.686,102.799C117.796,99.279 116.876,95.479 117.966,91.909C119.036,89.839 120.276,87.749 120.426,85.359C121.256,78.629 118.006,72.359 117.476,65.75C117.046,62.17 117.266,58.56 117.696,54.99L41.319,54.98L30.799,54.98C28.439,54.98 26.079,54.99 23.719,54.98L23.399,54.98C20.419,54.98 17.439,54.99 14.47,55C17.929,60.41 21.819,65.54 25.539,70.77C27.049,70.93 28.579,70.79 30.099,70.84L35.139,70.84C47.309,70.85 41.589,70.91 49.668,70.8L49.668,70.82L49.948,70.8L50.248,70.8L50.248,70.78C53.388,70.54 56.538,70.8 59.688,70.87C61.208,72.839 62.838,74.749 64.448,76.649C53.718,76.669 59.088,76.669 48.208,76.549C42.169,76.569 36.129,76.559 30.099,76.599C30.339,77.119 30.719,77.559 31.069,78.019C34.819,82.919 38.509,87.879 42.559,92.539C44.549,92.539 46.539,92.579 77.928,92.559C79.788,94.439 81.557,96.409 83.357,98.339C71.398,98.349 59.428,98.389 47.459,98.379C52.088,103.679 56.648,109.128 61.498,114.198C73.868,114.238 86.247,114.248 98.617,114.268C100.767,116.028 102.777,118.108 104.827,120.038C92.167,120.058 79.508,120.078 66.848,120.088C72.098,125.368 77.078,130.948 82.597,135.947C94.117,135.977 105.627,135.967 117.146,135.997C120.626,138.827 124.036,141.757 127.516,144.597L192.454,144.597C195.944,141.767 199.334,138.807 202.834,135.987C214.343,135.957 225.853,135.957 237.363,135.937C242.892,130.948 247.862,125.338 253.142,120.088C240.482,120.098 227.813,120.058 215.143,120.038C217.113,118.108 219.143,116.258 221.113,114.328C223.073,114.158 225.083,114.298 227.063,114.248C237.543,114.228 248.012,114.218 258.492,114.178L272.801,98.289ZM159.945,27.531L162.485,27.531C168.385,27.531 174.315,28.851 179.574,31.541C185.264,34.441 190.204,38.841 193.624,44.25C195.004,46.46 196.164,48.85 196.694,51.42C197.524,55.67 198.024,60.02 197.684,64.36C197.254,70.53 194.524,76.309 194.504,82.539C194.294,86.199 195.194,89.879 197.004,93.059C198.004,94.479 197.444,96.319 197.304,97.919C196.474,102.539 195.034,107.288 191.884,110.878C190.284,112.768 187.674,113.308 185.314,113.068C183.734,113.008 182.074,112.368 180.544,113.028C178.754,113.808 178.094,116.058 178.524,117.848C178.854,119.528 180.704,120.648 180.464,122.488C180.454,124.388 180.494,126.288 180.444,128.188C180.114,130.448 177.884,131.768 175.865,132.328C175.265,132.428 174.565,132.878 174.025,132.408C173.705,131.068 174.095,129.618 173.825,128.268C173.405,126.808 170.815,126.938 170.695,128.498C170.665,129.848 170.705,131.198 170.675,132.548C170.585,133.048 170.095,133.388 169.605,133.378C167.105,133.458 164.605,133.578 162.105,133.538C161.425,133.198 161.595,132.378 161.575,131.758C161.525,130.688 161.695,129.588 161.475,128.538C161.205,127.078 158.725,127.108 158.485,128.568C158.265,129.968 158.455,131.398 158.385,132.798C158.365,133.208 157.975,133.658 157.525,133.558C155.145,133.538 152.765,133.468 150.395,133.378C149.895,133.388 149.415,133.038 149.325,132.538C149.305,131.198 149.335,129.858 149.315,128.518C149.225,126.948 146.635,126.798 146.195,128.228C145.885,129.588 146.295,131.058 145.985,132.408C145.835,132.458 145.545,132.568 145.395,132.618C143.306,132.198 141.006,131.338 139.936,129.348C139.346,128.338 139.586,127.148 139.536,126.038C139.556,124.498 139.486,122.958 139.576,121.418C140.106,120.038 141.396,118.998 141.546,117.458C141.896,115.478 140.776,113.038 138.606,112.758C136.346,112.588 134.086,113.468 131.836,112.918C129.816,112.668 128.236,111.208 127.106,109.618C125.036,106.658 123.816,103.179 123.036,99.669C122.666,97.769 122.306,95.809 122.566,93.869C123.736,91.739 124.796,89.519 125.206,87.109C125.906,83.099 125.376,78.979 124.486,75.049C123.606,71.38 122.516,67.74 122.296,63.96C122.016,59.28 122.556,54.56 123.666,50.02C125.846,43.36 130.736,37.841 136.416,33.891C141.146,30.651 146.665,28.581 152.345,27.851C156.565,27.441 154.025,27.621 159.965,27.511L159.945,27.531ZM160.215,101.679C159.005,101.789 159.505,101.659 158.695,101.939C158.155,102.209 157.735,102.669 157.525,103.239C156.155,106.328 154.735,109.398 153.395,112.488C153.105,113.508 154.375,114.458 155.225,113.758C156.535,112.548 158.125,111.318 160.015,111.408C161.535,111.338 162.925,112.158 164.045,113.108C164.505,113.518 164.995,114.118 165.695,113.968C166.465,113.828 166.875,112.848 166.505,112.168C165.095,109.098 163.755,105.998 162.355,102.929C161.825,102.159 161.185,101.749 160.225,101.669L160.215,101.679ZM184.724,88.199L184.144,88.209L183.514,88.289C180.124,88.839 177.084,90.499 173.995,91.899C170.925,93.329 167.715,94.429 164.435,95.259C165.685,97.049 167.185,98.679 168.955,99.959C173.275,103.179 178.974,104.258 184.244,103.399C189.724,101.779 191.784,93.969 188.224,89.629C187.214,88.749 186.094,88.209 184.724,88.189L184.724,88.199ZM134.936,88.209L134.246,88.279C132.956,88.479 131.806,89.299 131.166,90.439C129.686,92.999 129.636,96.239 130.876,98.899C131.866,101.169 133.856,103.179 136.396,103.539C139.036,103.788 141.726,103.728 144.305,103.079C148.855,101.999 152.965,99.149 155.535,95.239C153.125,94.649 150.745,93.899 148.445,92.969C145.465,91.779 142.646,90.189 139.616,89.109C138.096,88.629 136.546,88.129 134.926,88.209L134.936,88.209ZM194.684,37.011C197.054,39.84 199.064,42.99 200.414,46.43C200.524,46.77 200.684,47.07 200.894,47.36C228.693,47.31 256.492,47.33 284.291,47.35C286.821,44.05 289.041,40.49 291.331,37.011C259.112,37.001 226.903,37.021 194.684,37.001L194.684,37.011ZM28.649,37.021C60.868,37.011 93.077,37.031 125.296,37.011C122.646,40.07 120.676,43.65 119.096,47.36C91.307,47.32 63.508,47.34 35.709,47.35L35.499,47.23C33.159,43.87 30.859,40.47 28.649,37.021Z" style="fill:rgb(128,128,128);fill-rule:nonzero;"/>
</svg>
