<?xml version="1.0" encoding="utf-8"?>
<!-- Generator: Adobe Illustrator 15.1.0, SVG Export Plug-In . SVG Version: 6.00 Build 0)  -->
<!DOCTYPE svg PUBLIC "-//W3C//DTD SVG 1.1//EN" "http://www.w3.org/Graphics/SVG/1.1/DTD/svg11.dtd">
<svg version="1.1" id="Layer_1" xmlns="http://www.w3.org/2000/svg" xmlns:xlink="http://www.w3.org/1999/xlink" x="0px" y="0px"
	 width="300px" height="350px" viewBox="0 0 300 350" enable-background="new 0 0 300 350" xml:space="preserve">
<g id="Layer_1_1_">
</g>
<g>
	<path fill="#FFFFFF" d="M149.097,335.527c-0.93-0.485-93.307-49.225-128.801-120.097l-0.521-1.04l0.56-1.023
		c0.12-0.216,12.071-22.278,14.936-53.217l0.193-2.083l2.09,0.071c0.02,0.001,1.283,0.043,3.302,0.043
		c12.127-0.001,21.663-1.377,25.512-3.683c7.008-4.199,11.192-11.326,11.192-19.063c0-12.03-9.789-21.818-21.818-21.818
		c-11.873,0-16.521,7.901-16.713,8.238l-1.594,2.792l-2.051-2.471l-5.425-6.587V70.675l0.658-0.652
		c41.911-41.466,90.6-52.91,91.087-53.02l4.13-0.939l-1.582,3.932c-0.019,0.049-1.959,4.937-1.959,10.28
		c0,15.344,12.483,27.827,27.828,27.827c15.343,0,27.827-12.483,27.827-27.827c0-5.378-1.938-10.229-1.958-10.278l-1.595-3.938
		l4.144,0.942c0.485,0.11,49.171,11.554,91.084,53.02l0.659,0.652v44.915l-7.49,9.097l-1.585-2.842
		c-0.186-0.327-4.833-8.228-16.707-8.228c-12.031,0-21.819,9.789-21.819,21.818c0,7.736,4.183,14.862,11.192,19.063
		c3.85,2.306,13.386,3.683,25.513,3.683c2.018,0,3.28-0.042,3.299-0.043l2.092-0.071l0.194,2.083
		c2.871,30.997,14.813,53.001,14.932,53.217l0.563,1.023l-0.521,1.04c-35.495,70.872-127.868,119.611-128.799,120.097l-1.024,0.533
		L149.097,335.527z"/>
	<path d="M150.121,331.042c-10.13-5.501-92.163-51.546-125.346-116.583c2.415-4.717,11.812-24.49,14.71-51.847
		c0.407,0.003,0.867,0.005,1.372,0.005c7.69-0.001,21.527-0.56,27.792-4.313c8.357-5.009,13.347-13.556,13.347-22.868
		c0-14.478-11.777-26.255-26.254-26.255c-10.133,0-16.012,4.876-18.734,7.988l-2.613-3.171V72.529
		c34.08-33.401,72.468-46.642,84.49-50.167c-0.53,2.141-1.029,4.942-1.029,7.914c0,17.791,14.474,32.264,32.264,32.264
		s32.263-14.474,32.263-32.264c0-2.972-0.498-5.773-1.029-7.914c12.023,3.524,50.41,16.766,84.491,50.167v41.468l-2.61,3.171
		c-2.723-3.113-8.604-7.988-18.735-7.988c-14.477,0-26.256,11.777-26.256,26.255c0,9.31,4.99,17.858,13.349,22.868
		c6.265,3.753,20.103,4.313,27.793,4.313c0.503,0,0.961-0.002,1.369-0.005c2.899,27.36,12.297,47.135,14.709,51.847
		C242.28,279.496,160.252,325.541,150.121,331.042z"/>
	<path fill="#FFFFFF" d="M80.196,170.702c0,0,23.684-24.598,64.515-10.733c0,0-24.868-1.409-40.027,7.351
		c0,0,14.19,2.396,19.656,9.332c0,0-26.27,3.409-41.67,23.178c0,0,9.527-0.295,14.443,0.289c24.92,2.959,37.32,22.466,35.722,35.92
		c-1.07,9.009-7.619,13.216-7.619,13.216s6.681,2.69,11.139-1.883c0,0-0.781,15.571-26.124,20.155c0,0,51.621,12.949,71.403-20.296
		c0,0-6.566,2.84-12.647,2.116c-6.085-0.724-14.688-4.233-7.192-14.38c0,0-13.625,1.825-12.445-8.123
		c0.554-4.679,5.626-7.399,5.626-7.399s-13.335,1.385-12.042-9.497c0.875-7.373,8.561-12.155,8.561-12.155s-5.075-5.23-20.437-5.748
		c0,0,6.965-5.7,23.228-3.769c16.264,1.932,34.434,9.781,23.875,22.768c0,0,5.13-0.223,8.171,0.14
		c3.04,0.359,27.061,3.922,20.051,25.993c0,0,28.179-9.473,27.079-45.198c0,0-4.368,9.806-15.962,13.531
		c0,0,4.238-11.717-7.712-13.018c0,0,1.313-5.066,1.678-8.109c0.359-3.041,0.615-19.68-7.604-29.911
		c-8.218-10.23-34.114-39.467-41.071-51.329c-6.956-11.859-6.255-22.277-5.684-25.591c0,0-5.572,6.457-6.655,15.584
		c-1.086,9.126,2.227,12.723,6.115,17.456c3.887,4.733,36.438,39.387,35.014,57.371c0,0-6.17-12.479-16.604-26.532
		c-10.436-14.052-29.807-33.793-37.67-47.007c-7.865-13.214-4.899-26.21-4.899-26.21s-15.074,19.035-10.423,44.325
		c0,0,20.387,19.684,20.045,34.06c0,0-5.92-12.094-22.483-24.5c-16.275-12.191-23.989-12.815-38.646-38.286
		c0,0-4.361,22.74,3.794,32.013c0,0-1.891-1.303-5.314-2.688c5.5,5.828,8.882,13.674,8.882,22.299
		c0,11.534-6.128,22.092-16.394,28.241c-5.206,3.121-14.224,4.852-26.84,5.157c-2.14,15.173-6.089,27.807-9.445,36.547
		c11.221-9.408,35.128-26.847,60.853-29.55C96.436,175.831,90.768,171.6,80.196,170.702z M167.188,157.535
		c0,0,2.319-0.556,5.878,2.476c3.555,3.033,13.938,13.519,14.656,25.468c0,0-7.683,0.75-11.801-3.536
		C171.801,177.657,162.679,165.542,167.188,157.535z"/>
	<linearGradient id="SVGID_1_" gradientUnits="userSpaceOnUse" x1="32.0415" y1="177.6162" x2="268.4521" y2="177.6162">
<stop style="stop-color:#b73826" offset="0" />
<stop style="stop-color:#d86a24" offset="0.25" />
<stop style="stop-color:#f8981d" offset="0.5" />
<stop style="stop-color:#d86a24" offset="0.75" />
<stop style="stop-color:#b73826" offset="1" />
	</linearGradient>
	<path fill="url(#SVGID_1_)" d="M176.131,202.581c-2.78-6.216-16.907-4.847-22.022-0.587c-1.111,0.927-5.782,4.498-6.26,8.538
		c-0.146,1.226-0.007,2.097,0.433,2.579c3.741,4.121,18.232,3.299,18.232,3.299s-11.231,5.684-12.246,11.016
		c-0.053,0.443-0.082,1.217,0.194,1.557c2.831,3.51,16.973,0.529,16.973,0.529s-8.872,9.564-7.569,12.691
		c0.275,0.666,2.291,1.874,5.704,2.231c7.298,0.756,21.791-7.257,21.791-7.257s-4.593,13.902-12.318,21.491
		c-10.698,10.506-26.221,16.29-46.125,16.29c-25.802,0-41-9.62-41-9.62s23.917-0.117,35.125-10.546
		c-8.026-0.941-12.267-5.008-12.267-5.008s11.957-3.005,13.145-14.329c0.589-5.601-1.917-12.515-6.737-18.071
		c-5.886-6.778-14.639-11.163-24.654-12.352c-1.813-0.217-4.735-0.331-8.448-0.331c-8.477,0-15.253,0.547-15.253,0.547
		s5.893-11.55,25.174-24.606l-1.048,0.11c-24.16,2.54-46.828,18.896-58.189,28.419l-6.723,5.635
		c31.039,57.418,100.799,99.324,118.081,109.074c17.326-9.776,87.415-51.877,118.33-109.528
		c-3.436-7.355-10.183-23.856-13.236-45.519c-12.616-0.305-21.634-2.036-26.842-5.157c-10.267-6.149-16.394-16.708-16.394-28.241
		c0-17.931,14.59-32.52,32.52-32.52c6.037,0,11.064,1.487,15.084,3.592v-31.32c-26.366-25.14-55.021-38.067-70.949-43.835
		c-0.434,15.818-10.455,29.274-24.445,34.783c-1.151,3.645-2.482,9.303-2.482,16.013c0,4.081,0.868,10.853,5.351,18.49
		c4.838,8.247,19.728,25.848,30.6,38.7c4.172,4.927,7.772,9.184,10.062,12.035c10.55,13.131,8.685,33.397,8.66,33.596
		c-0.143,1.194-0.407,2.632-0.688,3.995c2.838,1.274,4.531,3.131,5.523,4.723c0.723,1.16,1.203,2.372,1.51,3.572
		c10.817-9.155,12.76-22.588,12.76-22.588s2.652,9.368,2.926,17.155c0.677,19.432-7.662,32.67-14.594,39.666
		c-10.363,10.46-25.151,12.815-25.151,12.815s4.055-6.186,4.055-14.729c0-2.205-0.56-4.119-1.632-5.786
		c-3.99-6.187-16.137-10.085-31.249-7.382C169.839,216.41,177.959,206.66,176.131,202.581z M45.091,104.627
		c7.004-2.59,20.817-6.12,30.405,1.601c0,0-0.732-5.888-0.732-8.703c0-14.052,4.441-26.732,4.441-26.732s6.761,14.183,15.803,25.326
		c5.833,7.19,10.894,10.611,17.449,14.993c1.508,1.008,3.12,2.084,4.837,3.273l-0.175-0.952
		c-2.541-13.804,0.368-25.784,3.734-34.421c2.435-6.242,6.555-12.027,9.489-15.685c-10.935-6.568-18.361-18.405-18.736-31.976
		c-15.931,5.77-44.584,18.697-70.945,43.835v31.32c0,0,0.149-0.076,0.402-0.197C42.312,105.679,43.655,105.113,45.091,104.627z
		 M141.559,91.892c1.043,1.751,2.314,3.643,3.757,5.637c-0.058-1.512-0.006-3.164,0.221-4.978
		c1.335-10.655,8.021-19.357,13.364-24.766c-2.82,0.66-5.758,1.02-8.778,1.02c-4.333,0-8.494-0.728-12.382-2.052
		c-0.49,2-0.916,4.486-0.916,7.089C136.824,78.171,137.477,85.036,141.559,91.892z"/>
</g>
</svg>
