<?xml version="1.0" encoding="UTF-8" standalone="no"?>
<!DOCTYPE svg PUBLIC "-//W3C//DTD SVG 1.1//EN" "http://www.w3.org/Graphics/SVG/1.1/DTD/svg11.dtd">
<svg width="320" height="320" viewBox="0 0 320 320" version="1.1" xmlns="http://www.w3.org/2000/svg" xmlns:xlink="http://www.w3.org/1999/xlink" xml:space="preserve" xmlns:serif="http://www.serif.com/" style="fill-rule:evenodd;clip-rule:evenodd;stroke-linejoin:round;stroke-miterlimit:2;">
    <g transform="matrix(10.91,0,0,10.91,21.4763,-14.543)">
        <path d="M15.5,1.335L19.853,3.825C19.83,4.584 19.839,4.134 19.838,5.204C19.838,5.358 21.259,6.378 22.028,6.708C22.064,6.723 22.249,6.827 22.285,6.842C22.487,6.966 22.645,7.068 22.845,7.195L22.854,7.2L22.864,7.206C22.953,7.265 23.131,7.382 23.22,7.441L23.229,7.447L23.239,7.453C23.326,7.512 23.501,7.629 23.589,7.687L23.6,7.694L23.61,7.7C24.221,8.1 24.792,8.561 25.333,9.051C25.468,9.669 25.316,10.227 25.271,10.898C25.241,11.346 25.163,11.82 25.141,12.268C25.135,12.334 25.125,12.469 25.119,12.535C25.078,12.917 25.053,13.286 25.025,13.669C25.018,13.748 25.009,13.914 25.003,13.993C24.962,14.36 24.936,14.687 24.925,15.055C24.92,15.124 24.889,15.307 24.884,15.376C24.782,15.798 24.406,16.052 24.145,16.372C23.314,17.341 22.859,17.713 22.465,18.14C22.254,18.319 22.317,18.612 22.302,18.854C22.329,20.158 22.279,21.462 22.327,22.767L22.429,22.849C22.613,22.986 22.792,23.127 22.967,23.276C21.472,24.935 19.678,26.299 17.828,27.536L17.813,27.545L17.799,27.556C16.154,28.711 14.41,29.725 12.634,30.664C11.483,30.006 10.305,29.393 9.202,28.658L9.19,28.649L9.178,28.642C7.11,27.409 5.179,25.951 3.373,24.361C3.034,24.026 2.667,23.712 2.377,23.335C2.554,23.119 2.762,22.931 2.964,22.739L2.964,18.324C2.127,17.478 1.262,16.653 0.502,15.734L0.469,15.409C0.402,14.866 0.386,14.741 0.375,14.679C0.347,14.289 0.312,13.899 0.272,13.512C0.266,13.431 0.254,13.271 0.247,13.189C0.22,12.802 0.185,12.417 0.144,12.031C0.138,11.966 0.128,11.834 0.123,11.767C0.104,11.242 0.063,10.719 0.021,10.196C-0.004,9.803 0.009,9.409 0.016,9.015C1.605,7.586 3.468,6.471 5.427,5.631C5.427,5.037 5.429,4.445 5.423,3.851C6.856,2.997 8.313,2.184 9.76,1.355L9.801,1.383C9.909,1.452 10.011,1.531 10.114,1.608L10.113,1.636C10.113,3.033 11.245,4.165 12.642,4.165C14.039,4.165 15.171,3.033 15.171,1.636L15.171,1.626L15.195,1.606L15.502,1.333L15.5,1.335Z" style="fill-rule:nonzero;"/>
    </g>
    <path d="M189.773,198.234C180.904,212.33 174.881,227.996 169.601,243.718C163.611,262.461 163.742,282.273 164.135,301.715C180.304,293.063 196.232,283.899 211.539,273.785C216.874,269.858 222.852,266.203 226.354,260.432C227.413,254.464 226.474,248.3 226.867,242.256C236.446,236.648 243.276,227.462 251.84,220.512C251.906,208.566 252.342,196.565 251.666,184.651C244.4,176.425 234.962,170.468 225.896,164.402C211.135,172.236 198.654,184.095 189.762,198.234L189.773,198.234ZM67.287,184.433C67.385,196.481 67.287,208.507 67.342,220.556C73.037,226.065 78.972,231.313 84.601,236.91C86.707,239.092 89.194,240.816 91.867,242.245C92.02,247.58 91.715,252.915 91.966,258.25C91.856,260.246 93.34,261.752 94.54,263.159C99.984,269.138 106.836,273.567 113.611,277.888C126.954,286.299 140.657,294.154 154.512,301.693C154.501,292.594 154.534,283.484 154.512,274.396C154.065,255.064 147.497,236.604 139.948,219.017C130.554,196.488 114.986,175.476 92.697,164.457C83.87,170.621 74.695,176.512 67.287,184.433ZM103.607,159.024C128.143,174.636 144.628,200.449 154.076,227.505C154.447,200.405 154.131,173.294 154.251,146.193C136.795,147.317 119.099,150.557 103.607,159.024ZM164.811,226.425C175.089,200.067 190.788,174.439 215.194,159.056C199.854,150.448 182.125,147.47 164.8,146.172C164.757,172.923 164.735,199.674 164.811,226.425ZM67.287,184.433L67.287,184.411L67.287,184.433ZM197.247,19.42C191.748,32.686 179.333,42.145 165.564,45.549C168.226,50.077 170.768,54.681 173.474,59.187C184.831,61.63 196.559,65.1 205.331,73.097C212.302,79.577 217.441,87.716 221.936,96.019C224.653,92.811 226.998,89.298 228.896,85.534C238.399,95.942 245.218,108.87 247.858,122.748C251.044,136.789 248.382,151.496 242.185,164.348C246.843,167.653 251.371,171.145 255.55,175.061C264.277,166.071 273.867,157.78 281.428,147.732C281.777,128.683 284.33,109.743 284.494,90.673C267.321,75.857 246.963,65.252 226.213,56.383C226.267,49.651 226.191,42.931 226.333,36.199C216.699,30.493 206.989,24.918 197.247,19.42ZM93.089,35.746C102.621,30.358 112.098,24.84 121.608,19.398C127.074,32.664 139.446,42.145 153.225,45.462C150.781,49.979 148.196,54.441 145.774,58.968C135.715,61.358 125.361,64.129 116.917,70.347C108.189,77.068 102.123,86.527 96.897,96.062C93.875,93.346 92.86,88.131 89.282,86.451C76.997,99.804 69.84,117.828 69.709,135.971C69.698,145.833 72.622,155.401 76.681,164.304C72.044,167.664 67.516,171.155 63.218,174.93C55.275,167.217 47.18,159.613 40.078,151.125C35.943,146.673 37.449,140.204 36.947,134.716C35.997,120.13 34.863,105.532 34.11,90.935C51.402,75.977 71.902,65.242 92.86,56.404C93.144,49.522 92.915,42.639 93.089,35.746ZM180.031,71.602C183.871,80.483 187.853,90.116 186.162,99.979C184.58,110.911 175.59,120.217 164.757,122.333C164.768,126.785 164.779,131.247 164.735,135.698C188.704,136.822 212.335,144.23 232.519,157.213C240.745,141.098 239.599,120.555 228.286,106.198C225.274,109.874 221.903,113.3 217.757,115.711C213.568,96.051 200.225,76.959 180.042,71.602L180.031,71.602ZM120.255,81.716C110.087,90.444 104.25,103.066 100.999,115.842C97.061,113.169 93.591,109.885 90.613,106.187C87.438,110.78 84.569,115.656 82.987,121.046C79.005,132.927 80.903,146.161 86.489,157.191C106.639,144.142 130.314,136.833 154.272,135.709C154.218,131.203 154.229,126.708 154.218,122.224C141.802,120.173 132.092,108.183 132.409,95.659C132.212,87.171 135.507,79.119 139.064,71.569C132.169,73.588 125.612,76.915 120.255,81.727L120.255,81.716ZM143.231,88.382C146.406,76.01 152.789,64.762 159.433,53.961C165.488,63.747 171.205,73.915 174.75,84.912C176.856,91.469 177.14,99.15 173.048,105.03C168.51,112.013 158.44,113.267 151.305,109.907C143.744,105.903 141.268,96.259 143.231,88.382ZM93.089,35.746L93.078,35.752L93.089,35.741L93.089,35.746Z" style="fill:rgb(128,128,128);fill-rule:nonzero;"/>
</svg>
