<?xml version="1.0" encoding="UTF-8" standalone="no"?>
<!DOCTYPE svg PUBLIC "-//W3C//DTD SVG 1.1//EN" "http://www.w3.org/Graphics/SVG/1.1/DTD/svg11.dtd">
<svg width="320" height="320" viewBox="0 0 320 320" version="1.1" xmlns="http://www.w3.org/2000/svg" xmlns:xlink="http://www.w3.org/1999/xlink" xml:space="preserve" xmlns:serif="http://www.serif.com/" style="fill-rule:evenodd;clip-rule:evenodd;stroke-linejoin:round;stroke-miterlimit:2;">
    <g transform="matrix(10.91,0,0,10.91,21.4763,-14.543)">
        <path d="M15.5,1.335L19.853,3.825C19.83,4.584 19.839,4.134 19.838,5.204C19.838,5.358 21.259,6.378 22.028,6.708C22.064,6.723 22.249,6.827 22.285,6.842C22.487,6.966 22.645,7.068 22.845,7.195L22.854,7.2L22.864,7.206C22.953,7.265 23.131,7.382 23.22,7.441L23.229,7.447L23.239,7.453C23.326,7.512 23.501,7.629 23.589,7.687L23.6,7.694L23.61,7.7C24.221,8.1 24.792,8.561 25.333,9.051C25.468,9.669 25.316,10.227 25.271,10.898C25.241,11.346 25.163,11.82 25.141,12.268C25.135,12.334 25.125,12.469 25.119,12.535C25.078,12.917 25.053,13.286 25.025,13.669C25.018,13.748 25.009,13.914 25.003,13.993C24.962,14.36 24.936,14.687 24.925,15.055C24.92,15.124 24.889,15.307 24.884,15.376C24.782,15.798 24.406,16.052 24.145,16.372C23.314,17.341 22.859,17.713 22.465,18.14C22.254,18.319 22.317,18.612 22.302,18.854C22.329,20.158 22.279,21.462 22.327,22.767L22.429,22.849C22.613,22.986 22.792,23.127 22.967,23.276C21.472,24.935 19.678,26.299 17.828,27.536L17.813,27.545L17.799,27.556C16.154,28.711 14.41,29.725 12.634,30.664C11.483,30.006 10.305,29.393 9.202,28.658L9.19,28.649L9.178,28.642C7.11,27.409 5.179,25.951 3.373,24.361C3.034,24.026 2.667,23.712 2.377,23.335C2.554,23.119 2.762,22.931 2.964,22.739L2.964,18.324C2.127,17.478 1.262,16.653 0.502,15.734L0.469,15.409C0.402,14.866 0.386,14.741 0.375,14.679C0.347,14.289 0.312,13.899 0.272,13.512C0.266,13.431 0.254,13.271 0.247,13.189C0.22,12.802 0.185,12.417 0.144,12.031C0.138,11.966 0.128,11.834 0.123,11.767C0.104,11.242 0.063,10.719 0.021,10.196C-0.004,9.803 0.009,9.409 0.016,9.015C1.605,7.586 3.468,6.471 5.427,5.631C5.427,5.037 5.429,4.445 5.423,3.851C6.856,2.997 8.313,2.184 9.76,1.355L9.801,1.383C9.909,1.452 10.011,1.531 10.114,1.608L10.113,1.636C10.113,3.033 11.245,4.165 12.642,4.165C14.039,4.165 15.171,3.033 15.171,1.636L15.171,1.626L15.195,1.606L15.502,1.333L15.5,1.335Z" style="fill-rule:nonzero;"/>
    </g>
    <g transform="matrix(10.91,0,0,10.91,21.4763,-14.543)">
        <path d="M11.16,9.434C11.451,8.3 12.036,7.269 12.645,6.279C13.2,7.176 13.724,8.108 14.049,9.116C14.242,9.717 14.268,10.421 13.893,10.96C13.477,11.6 12.554,11.715 11.9,11.407C11.207,11.04 10.98,10.156 11.16,9.434ZM9.054,8.823C8.122,9.623 7.587,10.78 7.289,11.951C6.928,11.706 6.61,11.405 6.337,11.066C6.046,11.487 5.783,11.934 5.638,12.428C5.273,13.517 5.447,14.73 5.959,15.741C7.806,14.545 9.976,13.875 12.172,13.772C12.167,13.359 12.168,12.947 12.167,12.536C11.029,12.348 10.139,11.249 10.168,10.101C10.15,9.323 10.452,8.585 10.778,7.893C10.146,8.078 9.545,8.383 9.054,8.824L9.054,8.823ZM14.533,7.896C14.885,8.71 15.25,9.593 15.095,10.497C14.95,11.499 14.126,12.352 13.133,12.546C13.134,12.954 13.135,13.363 13.131,13.771C15.328,13.874 17.494,14.553 19.344,15.743C20.098,14.266 19.993,12.383 18.956,11.067C18.68,11.404 18.371,11.718 17.991,11.939C17.607,10.137 16.384,8.387 14.534,7.896L14.533,7.896ZM7.528,15.909C9.777,17.34 11.288,19.706 12.154,22.186C12.188,19.702 12.159,17.217 12.17,14.733C10.57,14.836 8.948,15.133 7.528,15.909ZM13.138,22.087C14.08,19.671 15.519,17.322 17.756,15.912C16.35,15.123 14.725,14.85 13.137,14.731C13.133,17.183 13.131,19.635 13.138,22.087Z" style="fill:white;fill-rule:nonzero;"/>
    </g>
    <g transform="matrix(10.91,0,0,10.91,21.4763,-14.543)">
        <path d="M6.563,4.61C7.437,4.116 8.306,3.61 9.178,3.111C9.679,4.327 10.813,5.196 12.076,5.5C11.852,5.914 11.615,6.323 11.393,6.738C10.471,6.957 9.522,7.211 8.748,7.781C7.948,8.397 7.392,9.264 6.913,10.138C6.636,9.889 6.543,9.411 6.215,9.257C5.089,10.481 4.433,12.133 4.421,13.796C4.42,14.7 4.688,15.577 5.06,16.393C4.635,16.701 4.22,17.021 3.826,17.367C3.098,16.66 2.356,15.963 1.705,15.185C1.326,14.777 1.464,14.184 1.418,13.681C1.331,12.344 1.227,11.006 1.158,9.668C2.743,8.297 4.622,7.313 6.543,6.503C6.569,5.872 6.548,5.241 6.564,4.609L6.563,4.61ZM16.111,3.113C15.607,4.329 14.469,5.196 13.207,5.508C13.451,5.923 13.684,6.345 13.932,6.758C14.973,6.982 16.048,7.3 16.852,8.033C17.491,8.627 17.962,9.373 18.374,10.134C18.623,9.84 18.838,9.518 19.012,9.173C19.883,10.127 20.508,11.312 20.75,12.584C21.042,13.871 20.798,15.219 20.23,16.397C20.657,16.7 21.072,17.02 21.455,17.379C22.255,16.555 23.134,15.795 23.827,14.874C23.859,13.128 24.093,11.392 24.108,9.644C22.534,8.286 20.668,7.314 18.766,6.501C18.771,5.884 18.764,5.268 18.777,4.651C17.894,4.128 17.004,3.617 16.111,3.113ZM4.199,18.236C4.208,19.341 4.199,20.444 4.204,21.549C4.726,22.054 5.27,22.535 5.786,23.048C5.979,23.248 6.207,23.406 6.452,23.537C6.466,24.026 6.438,24.515 6.461,25.004C6.451,25.187 6.587,25.325 6.697,25.454C7.196,26.002 7.824,26.408 8.445,26.804C9.668,27.575 10.924,28.295 12.194,28.986C12.193,28.152 12.196,27.317 12.194,26.484C12.153,24.712 11.551,23.02 10.859,21.408C9.998,19.343 8.571,17.417 6.528,16.407C5.719,16.972 4.878,17.512 4.199,18.238L4.199,18.236ZM15.426,19.503C14.613,20.795 14.061,22.231 13.577,23.672C13.028,25.39 13.04,27.206 13.076,28.988C14.558,28.195 16.018,27.355 17.421,26.428C17.91,26.068 18.458,25.733 18.779,25.204C18.876,24.657 18.79,24.092 18.826,23.538C19.704,23.024 20.33,22.182 21.115,21.545C21.121,20.45 21.161,19.35 21.099,18.258C20.433,17.504 19.568,16.958 18.737,16.402C17.384,17.12 16.24,18.207 15.425,19.503L15.426,19.503Z" style="fill:url(#_Linear1);fill-rule:nonzero;"/>
    </g>
    <defs>
        <linearGradient id="_Linear1" x1="0" y1="0" x2="1" y2="0" gradientUnits="userSpaceOnUse" gradientTransform="matrix(22.95,0,0,25.877,1.158,16.0495)"><stop offset="0" style="stop-color:rgb(97,44,117);stop-opacity:1"/><stop offset="0.3" style="stop-color:rgb(123,81,144);stop-opacity:1"/><stop offset="0.5" style="stop-color:rgb(191,153,195);stop-opacity:1"/><stop offset="0.7" style="stop-color:rgb(123,81,144);stop-opacity:1"/><stop offset="1" style="stop-color:rgb(97,44,117);stop-opacity:1"/></linearGradient>
    </defs>
</svg>
