<?xml version="1.0" encoding="UTF-8" standalone="no"?>
<!DOCTYPE svg PUBLIC "-//W3C//DTD SVG 1.1//EN" "http://www.w3.org/Graphics/SVG/1.1/DTD/svg11.dtd">
<svg width="320" height="320" viewBox="0 0 320 320" version="1.1" xmlns="http://www.w3.org/2000/svg" xmlns:xlink="http://www.w3.org/1999/xlink" xml:space="preserve" xmlns:serif="http://www.serif.com/" style="fill-rule:evenodd;clip-rule:evenodd;stroke-linejoin:round;stroke-miterlimit:2;">
    <g transform="matrix(1.05351,0,0,1.05351,-8.5613,-9.48157)">
        <path d="M160,312.747C159.14,312.458 153.205,310.459 150.282,309.349C126.721,300.408 105.157,285.776 88.921,266.42C87.863,265.159 85.5,261.7 85.5,261.7C85.5,261.7 86.507,258.861 86.965,257.254C89.112,249.716 87.353,241.722 84.851,234.456C79.898,220.19 70.462,207.706 58.841,198.152C58.757,198.083 58.675,198.013 58.594,197.942C54.31,194.182 49.584,190.912 44.487,188.355C42.005,187.11 31.406,183.32 31.406,183.32C31.406,183.32 28.946,178.008 28.164,174.831C25.328,163.305 24.068,151.436 23.793,139.584C23.792,139.507 23.791,139.43 23.791,139.353C23.791,130.971 24.141,122.608 24.68,114.246C24.881,111.115 25.007,105.694 25.989,102.031C26.919,98.56 28.547,95.937 30.569,92.272C34.516,85.119 39.344,78.488 44.286,71.994C44.312,71.959 44.338,71.925 44.365,71.891C52.02,62.098 60.169,52.593 69.649,44.514C69.649,44.514 75.274,39.73 80.7,35.8C87.075,31.182 93.807,26.933 100.836,23.357C100.84,23.355 100.844,23.353 100.848,23.351C113.382,16.997 126.896,12.485 140.808,10.393C142.604,10.083 153.661,9.018 159.934,9L160.066,9C166.339,9.018 177.396,10.083 179.192,10.393C193.104,12.485 206.618,16.997 219.152,23.351C219.156,23.353 219.16,23.355 219.164,23.357C226.193,26.933 232.925,31.182 239.3,35.8C244.726,39.73 250.351,44.514 250.351,44.514C259.831,52.593 267.98,62.098 275.635,71.891C275.662,71.925 275.688,71.959 275.714,71.994C280.656,78.488 285.484,85.119 289.431,92.272C291.453,95.937 293.081,98.56 294.011,102.031C294.993,105.694 295.119,111.115 295.32,114.246C295.859,122.608 296.209,130.971 296.209,139.353C296.209,139.43 296.208,139.507 296.207,139.584C295.932,151.436 294.672,163.305 291.836,174.831C291.054,178.008 288.594,183.32 288.594,183.32C288.594,183.32 277.995,187.11 275.513,188.355C270.416,190.912 265.69,194.182 261.406,197.942C261.325,198.013 261.243,198.083 261.159,198.152C249.538,207.706 240.102,220.19 235.149,234.456C232.647,241.722 230.888,249.716 233.035,257.254C233.493,258.861 234.5,261.7 234.5,261.7C234.5,261.7 232.137,265.159 231.079,266.42C214.843,285.776 193.279,300.408 169.718,309.349C166.795,310.459 160.86,312.458 160,312.747L160,312.747L160,312.747Z"/>
    </g>
    <g transform="matrix(10.0519,0,0,10.0519,27.0402,-1.81056)">
        <path d="M5.551,3.842C7.263,2.526 9.316,1.658 11.453,1.351C11.547,1.336 11.641,1.333 11.736,1.333C10.683,2.94 9.896,4.749 9.616,6.658C9.483,7.431 9.636,8.225 9.899,8.954C9.547,9.111 9.193,9.263 8.826,9.384C7.881,8.357 7.006,7.254 6.341,6.024C5.975,5.341 5.663,4.614 5.551,3.842ZM14.699,1.334C15.77,2.944 16.567,4.767 16.827,6.693C16.941,7.454 16.802,8.23 16.566,8.955C16.905,9.119 17.25,9.269 17.609,9.384C17.818,9.17 18.018,8.947 18.213,8.72C18.643,8.209 19.076,7.698 19.443,7.139C20.109,6.134 20.697,5.042 20.914,3.843C20.29,3.391 19.641,2.969 18.953,2.619C17.736,2.002 16.424,1.563 15.073,1.361C14.949,1.339 14.823,1.33 14.698,1.334L14.699,1.334ZM12.24,2.897C11.613,3.987 11.083,5.16 10.899,6.412C10.798,7.187 10.817,8.008 11.142,8.732C11.293,9.102 11.536,9.449 11.888,9.652C12.333,9.91 12.866,9.94 13.368,9.932C13.777,9.922 14.199,9.861 14.558,9.651C14.844,9.485 15.067,9.225 15.223,8.936C15.553,8.318 15.663,7.602 15.629,6.908C15.58,5.963 15.285,5.048 14.902,4.189C14.452,3.19 13.872,2.254 13.235,1.364C12.881,1.86 12.546,2.369 12.241,2.896L12.24,2.897ZM22.015,4.699C21.656,5.89 21.07,7.003 20.362,8.022C19.661,9.04 18.823,9.954 17.944,10.819C17.253,10.606 16.569,10.359 15.927,10.023C15.424,10.661 14.649,11.05 13.845,11.126L13.845,13.667C15.053,13.693 16.259,13.798 17.451,13.995C20.496,14.492 23.466,15.575 26.027,17.31C26.306,16.176 26.428,15.008 26.455,13.842C26.455,12.986 26.419,12.132 26.364,11.278C25.084,11.734 23.72,11.951 22.361,11.921C23.684,11.334 24.924,10.515 25.875,9.414C25.486,8.709 25.008,8.057 24.521,7.417C23.762,6.446 22.957,5.501 22.017,4.7L22.015,4.699ZM3.022,6.094C2.519,6.653 2.044,7.238 1.596,7.842C1.225,8.348 0.863,8.862 0.562,9.413C1.518,10.52 2.769,11.341 4.105,11.919C2.736,11.953 1.365,11.728 0.073,11.277C0.017,12.13 -0.02,12.985 0.011,13.84C0.014,15.007 0.125,16.182 0.441,17.309C2.225,16.089 4.222,15.195 6.297,14.6C8.342,14.012 10.466,13.712 12.593,13.666L12.593,11.125C11.789,11.05 11.013,10.66 10.51,10.022C9.872,10.369 9.183,10.606 8.491,10.818C7.759,10.089 7.052,9.331 6.437,8.499C5.58,7.349 4.867,6.076 4.451,4.698C3.936,5.122 3.468,5.599 3.022,6.093L3.022,6.094ZM7.093,15.681C6.761,15.781 6.431,15.888 6.099,15.99C6.912,16.442 7.659,17.007 8.339,17.64C9.229,18.469 10.009,19.414 10.68,20.427C11.476,21.649 12.1,22.977 12.591,24.348C12.592,21.205 12.591,18.062 12.591,14.919C10.736,14.949 8.886,15.209 7.092,15.682L7.093,15.681ZM13.844,14.919L13.844,24.348C14.27,23.155 14.818,22.004 15.475,20.921C16.673,18.927 18.309,17.158 20.336,15.991C19.913,15.861 19.498,15.703 19.066,15.604C17.357,15.186 15.603,14.948 13.844,14.919ZM1.601,18.041C2.885,18.732 4.012,19.709 4.899,20.864C5.685,21.888 6.286,23.067 6.567,24.331C6.721,25.037 6.763,25.785 6.56,26.485C8.148,28.377 10.264,29.791 12.56,30.678C12.471,28.877 12.185,27.08 11.638,25.359C11.185,23.929 10.551,22.556 9.747,21.29C9.082,20.239 8.29,19.263 7.36,18.435C6.493,17.664 5.506,17.017 4.42,16.6C3.437,16.988 2.491,17.47 1.601,18.04L1.601,18.041ZM18.475,19.021C17.595,19.927 16.874,20.974 16.251,22.07C15.552,23.305 15.007,24.627 14.621,25.993C14.188,27.519 13.953,29.096 13.874,30.679C16.177,29.805 18.287,28.378 19.874,26.486C19.59,25.489 19.782,24.428 20.113,23.467C20.695,21.79 21.798,20.318 23.164,19.195C23.68,18.742 24.25,18.349 24.864,18.041C23.968,17.484 23.025,17.002 22.049,16.601C20.686,17.107 19.482,17.981 18.474,19.02L18.475,19.021Z" style="fill:url(#_Linear1);fill-rule:nonzero;"/>
    </g>
    <defs>
        <linearGradient id="_Linear1" x1="0" y1="0" x2="1" y2="0" gradientUnits="userSpaceOnUse" gradientTransform="matrix(26.4553,0,0,29.346,-0.000265678,16.006)"><stop offset="0" style="stop-color:rgb(83,110,120);stop-opacity:1"/><stop offset="0.3" style="stop-color:rgb(153,174,188);stop-opacity:1"/><stop offset="0.5" style="stop-color:rgb(217,234,243);stop-opacity:1"/><stop offset="0.7" style="stop-color:rgb(153,174,188);stop-opacity:1"/><stop offset="1" style="stop-color:rgb(83,110,120);stop-opacity:1"/></linearGradient>
    </defs>
</svg>
