<?xml version="1.0" encoding="UTF-8" standalone="no"?>
<!DOCTYPE svg PUBLIC "-//W3C//DTD SVG 1.1//EN" "http://www.w3.org/Graphics/SVG/1.1/DTD/svg11.dtd">
<svg width="320" height="194" viewBox="0 0 320 194" version="1.1" xmlns="http://www.w3.org/2000/svg" xmlns:xlink="http://www.w3.org/1999/xlink" xml:space="preserve" xmlns:serif="http://www.serif.com/" style="fill-rule:evenodd;clip-rule:evenodd;stroke-linejoin:round;stroke-miterlimit:2;">
    <g transform="matrix(1,0,0,1,-0.0005,-63.112)">
        <g transform="matrix(1.03225,0,0,1.03225,-5.15952,-5.1588)">
            <path d="M160,144.292L160.001,144.292C160.001,144.292 181.272,135.012 181.691,134.947C181.31,113.779 176.331,92.593 168.332,73.041C168.332,73.041 167.96,72.284 167.96,71.138C167.96,67.161 170.817,66.129 172.981,66.138C190.832,66.213 208.692,66.166 226.543,66.166C229.304,66.166 231.543,68.405 231.543,71.166L231.543,101.548C231.543,102.88 231.011,104.157 230.066,105.096C229.121,106.034 227.841,106.557 226.509,106.548C224.52,106.534 222.532,106.527 220.543,106.524C221.316,109.919 221.998,113.336 222.581,116.771C227.538,114.603 232.479,112.421 237.427,110.246C239.786,96.578 247.859,83.553 261.019,77.972C261.036,77.964 261.054,77.957 261.071,77.95C265.702,76.047 270.488,74.72 275.565,74.829L277.547,74.896C277.703,74.902 277.858,74.914 278.012,74.934C279.486,75.122 280.97,75.227 282.435,75.485C282.442,75.486 282.45,75.487 282.457,75.489C287.858,76.463 293.028,78.476 297.849,81.067C299.513,81.962 300.531,83.72 300.479,85.609C300.427,87.498 299.314,89.197 297.602,89.999C288.69,94.174 279.629,98.081 270.612,102.082C269.611,107.773 268.609,113.478 267.608,119.186C272.13,122.291 276.647,125.385 281.155,128.491C290.103,124.512 299.018,120.505 308.042,116.662C309.802,115.913 311.834,116.232 313.279,117.486C314.723,118.739 315.326,120.706 314.832,122.553C311.453,135.192 303.976,147.574 291.426,152.818C278.879,158.863 264.188,156.084 253.028,148.54C244.035,152.473 235.044,156.406 226.068,160.434C225.542,160.669 224.988,160.809 224.43,160.853C224.303,162.236 224.155,163.619 223.989,165.001C223.95,165.324 223.88,165.639 223.78,165.942C226.12,166.931 228.457,167.927 230.789,168.931C232.926,169.851 234.146,172.123 233.732,174.413C233.604,175.119 233.471,175.825 233.332,176.53C233.542,176.59 233.749,176.666 233.951,176.756C236.734,177.998 239.521,179.228 242.306,180.456C249.14,175.83 256.797,172.742 265.154,172.352C265.505,172.349 266.149,172.339 266.149,172.339L267.883,172.339C268.085,172.339 268.286,172.351 268.486,172.375C270.214,172.585 271.95,172.704 273.658,173.024C276.544,173.564 279.317,174.609 281.951,175.896C302.385,185.178 310.674,212.461 300.332,232.076C291.887,250.537 267.476,259.526 249.296,249.924C237.081,244.196 229.845,231.873 227.299,219.034C224.522,217.798 221.738,216.574 218.965,215.351L218.866,215.304C215.406,221.005 211.355,226.342 206.649,231.16C194.674,243.815 177.322,250.442 160.001,250.543L160,250.543C142.678,250.442 125.326,243.815 113.351,231.16C108.645,226.342 104.594,221.005 101.135,215.304L101.035,215.351C98.262,216.574 95.479,217.798 92.701,219.034C90.156,231.873 82.92,244.196 70.704,249.924C52.525,259.526 28.113,250.537 19.668,232.076C9.327,212.461 17.616,185.178 38.05,175.896C40.683,174.609 43.456,173.564 46.342,173.024C48.05,172.704 49.787,172.585 51.515,172.375C51.715,172.351 51.916,172.339 52.117,172.339L53.852,172.339C53.852,172.339 54.495,172.349 54.847,172.352C63.203,172.742 70.86,175.83 77.694,180.456C80.479,179.228 83.267,177.998 86.049,176.756C86.251,176.666 86.458,176.59 86.669,176.53C86.529,175.825 86.396,175.119 86.269,174.413C85.855,172.123 87.075,169.851 89.212,168.931C91.544,167.927 93.88,166.931 96.221,165.942C96.121,165.639 96.051,165.324 96.012,165.001C95.845,163.619 95.697,162.236 95.571,160.853C95.013,160.809 94.458,160.669 93.933,160.434C84.957,156.406 75.965,152.473 66.973,148.54C55.813,156.084 41.121,158.863 28.575,152.818C16.024,147.574 8.547,135.192 5.169,122.553C4.675,120.706 5.278,118.739 6.722,117.486C8.166,116.232 10.199,115.913 11.958,116.662C20.983,120.505 29.898,124.512 38.846,128.491C43.353,125.385 47.87,122.291 52.393,119.186C51.391,113.478 50.39,107.773 49.388,102.082C40.372,98.081 31.31,94.174 22.398,89.999C20.687,89.197 19.574,87.498 19.522,85.609C19.469,83.72 20.487,81.962 22.152,81.067C26.973,78.476 32.142,76.463 37.543,75.489C37.551,75.487 37.558,75.486 37.566,75.485C39.031,75.227 40.514,75.122 41.989,74.934C42.143,74.914 42.298,74.902 42.453,74.896L44.436,74.829C49.512,74.72 54.299,76.047 58.929,77.95C58.947,77.957 58.964,77.964 58.982,77.972C72.141,83.553 80.215,96.578 82.573,110.246C87.522,112.421 92.463,114.603 97.419,116.771C98.003,113.336 98.684,109.919 99.457,106.524C97.469,106.527 95.48,106.534 93.492,106.548C92.16,106.557 90.879,106.034 89.934,105.096C88.989,104.157 88.458,102.88 88.458,101.548L88.458,71.166C88.458,68.405 90.696,66.166 93.458,66.166C111.309,66.166 129.169,66.213 147.02,66.138C149.183,66.129 152.041,67.161 152.041,71.138C152.041,72.284 151.668,73.041 151.668,73.041C143.67,92.593 138.69,113.779 138.31,134.947C138.729,135.012 160,144.292 160,144.292ZM54.847,172.352C55.028,172.354 55.132,172.354 55.029,172.35C54.926,172.345 54.616,172.337 53.971,172.321C54.264,172.328 54.556,172.339 54.847,172.352ZM265.154,172.352C264.972,172.354 264.869,172.354 264.972,172.35C265.075,172.345 265.384,172.337 266.03,172.321C265.737,172.328 265.444,172.339 265.154,172.352Z"/>
        </g>
        <g transform="matrix(9.6765,0,0,9.6765,5.17159,5.17279)">
            <path d="M4.677,17.848C5.599,17.87 6.43,18.247 7.158,18.793C7.548,18.621 7.939,18.449 8.329,18.275C8.613,19.358 9.003,20.412 9.495,21.417C9.112,21.586 8.727,21.755 8.344,21.927C8.154,23.231 7.477,24.54 6.236,25.116C4.552,26.014 2.285,25.171 1.509,23.453C0.53,21.615 1.298,19.046 3.222,18.177C3.461,18.06 3.712,17.963 3.974,17.914C4.145,17.882 4.319,17.871 4.492,17.85L4.677,17.85L4.677,17.848ZM5.057,19.48C4.655,19.51 4.354,19.777 4.201,20.139C3.668,20.47 3.054,20.776 2.763,21.37C2.603,21.651 2.633,21.979 2.631,22.29C2.564,22.498 2.434,22.68 2.36,22.886C2.617,22.95 2.925,22.944 3.115,23.155C3.339,23.391 3.648,23.539 3.972,23.563C4.539,23.614 5.081,23.401 5.596,23.193C5.979,23.332 6.448,23.194 6.671,22.849C6.85,22.508 6.819,22.098 6.692,21.746C6.597,21.525 6.671,21.288 6.684,21.06C6.795,21.079 6.906,21.098 7.016,21.118C7.048,20.878 7.029,20.638 6.96,20.406C6.803,20.495 6.65,20.593 6.501,20.695C6.387,20.591 6.261,20.502 6.124,20.431C5.9,20.027 5.606,19.607 5.134,19.483L5.056,19.481L5.057,19.48ZM26.896,19.48C27.298,19.51 27.599,19.777 27.752,20.139C28.285,20.47 28.899,20.776 29.19,21.37C29.35,21.651 29.32,21.979 29.322,22.29C29.389,22.498 29.519,22.68 29.593,22.886C29.336,22.95 29.028,22.944 28.838,23.155C28.614,23.391 28.305,23.539 27.981,23.563C27.414,23.614 26.872,23.401 26.357,23.193C25.974,23.332 25.505,23.194 25.282,22.848C25.103,22.507 25.134,22.097 25.261,21.745C25.356,21.524 25.282,21.287 25.269,21.059C25.158,21.078 25.047,21.097 24.937,21.117C24.905,20.877 24.924,20.637 24.992,20.405C25.149,20.494 25.302,20.592 25.451,20.694C25.565,20.59 25.691,20.501 25.828,20.43C26.052,20.026 26.346,19.606 26.818,19.482L26.896,19.481L26.896,19.48ZM27.453,17.845C27.283,17.853 27.112,17.849 26.943,17.869C26.17,17.962 25.448,18.306 24.849,18.796C24.36,18.585 23.875,18.369 23.386,18.156C23.18,19.262 22.837,20.335 22.384,21.365C22.808,21.552 23.233,21.737 23.657,21.922C23.842,23.197 24.485,24.481 25.682,25.074C27.345,26.014 29.628,25.228 30.453,23.53C31.502,21.664 30.703,18.991 28.701,18.142C28.291,17.967 27.905,17.851 27.452,17.844L27.453,17.845ZM11.523,16.24C10.568,16.638 9.61,17.034 8.66,17.443C9.043,19.562 9.883,21.66 11.406,23.219C13.585,25.525 17.572,25.804 20.003,23.74C21.851,22.163 22.759,19.745 23.022,17.379C22.082,17.775 21.148,18.178 20.213,18.579C19.336,17.835 18.459,17.095 17.584,16.348C16.358,17.202 15.137,18.063 13.916,18.922C13.117,18.029 12.318,17.136 11.521,16.241L11.523,16.24ZM11.731,7.132C11.866,7.741 12.233,8.249 12.882,8.371C12.257,8.535 11.862,8.998 11.731,9.623C11.601,8.99 11.218,8.517 10.568,8.387C11.206,8.236 11.614,7.775 11.731,7.132ZM11.408,11.042C11.476,11.045 11.546,11.034 11.612,11.051C12.023,11.155 12.21,11.697 11.91,12.005C11.431,12.541 10.666,11.737 11.108,11.227C11.194,11.136 11.279,11.071 11.407,11.043L11.408,11.042ZM11.377,13.675C11.473,13.698 11.495,13.694 11.579,13.748C11.95,13.986 11.982,14.635 11.517,14.772C10.892,15.063 10.525,14.048 11.074,13.739C11.17,13.695 11.268,13.663 11.376,13.675L11.377,13.675ZM14.618,6.521C12.713,6.529 10.807,6.524 8.902,6.524L8.902,9.765C9.342,9.762 9.782,9.762 10.222,9.762C9.649,11.943 9.433,14.223 9.704,16.47C10.35,16.202 10.995,15.931 11.643,15.663C12.382,16.491 13.119,17.318 13.863,18.144C12.598,14.344 13.124,10.174 14.618,6.522L14.618,6.521ZM18.4,13.858C16.859,14.527 15.321,15.206 13.782,15.886C13.933,16.612 14.113,17.333 14.316,18.046C15.414,17.283 16.505,16.513 17.598,15.742C17.746,15.859 18.043,16.091 18.194,16.208C18.29,15.427 18.355,14.644 18.4,13.858ZM20.271,7.145C20.393,7.78 20.784,8.228 21.416,8.376C20.789,8.537 20.39,8.995 20.258,9.623C20.154,8.98 19.735,8.538 19.113,8.379C19.753,8.233 20.131,7.773 20.271,7.145ZM20.475,11.029C20.538,11.044 20.604,11.046 20.663,11.073C21.022,11.239 21.142,11.776 20.821,12.031C20.324,12.609 19.546,11.529 20.176,11.151C20.268,11.079 20.354,11.034 20.476,11.029L20.475,11.029ZM20.631,13.695C20.684,13.701 20.738,13.7 20.79,13.713C21.032,13.772 21.213,13.972 21.183,14.228C21.297,14.629 20.767,14.962 20.423,14.767C20.09,14.593 20.027,14.127 20.277,13.853C20.378,13.756 20.487,13.699 20.631,13.695ZM20.455,16.217C20.499,16.227 20.545,16.232 20.587,16.248C20.826,16.336 21.002,16.579 20.922,16.835C20.977,17.285 20.295,17.535 20.042,17.173C19.74,16.902 19.852,16.345 20.258,16.241C20.364,16.21 20.3,16.223 20.454,16.216L20.455,16.217ZM17.382,6.523C18.652,9.678 19.259,13.184 18.572,16.552C19.145,17.039 19.717,17.528 20.293,18.01C20.926,17.742 21.558,17.474 22.191,17.203C22.602,14.728 22.41,12.185 21.782,9.761L23.104,9.761C23.101,8.683 23.104,7.603 23.104,6.526C21.196,6.523 19.291,6.526 17.383,6.523L17.382,6.523ZM28.305,7.448L28.153,7.45C27.756,7.495 27.46,7.522 27.089,7.695C25.707,8.229 24.9,9.642 24.744,11.066C24.057,11.365 23.372,11.667 22.685,11.969C22.818,13.161 22.859,14.364 22.813,15.564C23.87,15.095 24.929,14.635 25.986,14.164C26.993,14.937 28.36,15.335 29.581,14.841C30.877,14.396 31.682,13.154 32.002,11.876C30.95,12.313 29.915,12.787 28.873,13.248C28.212,12.798 27.553,12.347 26.895,11.894C27.041,11.079 27.181,10.265 27.327,9.45C28.371,8.984 29.422,8.536 30.456,8.05C29.781,7.72 29.068,7.451 28.307,7.449L28.305,7.448ZM3.687,7.448L3.479,7.455C3.33,7.474 3.18,7.484 3.032,7.51C2.511,7.604 2.013,7.8 1.548,8.05C2.581,8.534 3.633,8.984 4.677,9.45C4.82,10.262 4.963,11.077 5.106,11.892C4.447,12.345 3.789,12.795 3.133,13.248C2.089,12.785 1.051,12.316 -0.001,11.868C0.319,13.065 1.006,14.255 2.198,14.747C3.458,15.361 4.947,14.994 6.011,14.167C7.065,14.628 8.119,15.088 9.171,15.56C9.114,14.36 9.161,13.155 9.306,11.963C8.621,11.664 7.939,11.362 7.255,11.062C7.099,9.68 6.341,8.303 5.016,7.741C4.59,7.566 4.151,7.438 3.684,7.448L3.687,7.448ZM13.605,13.855C13.634,14.368 13.67,14.881 13.712,15.393C14.279,15.148 14.847,14.896 15.414,14.646C14.81,14.383 14.209,14.118 13.605,13.855Z" style="fill:url(#_Linear1);fill-rule:nonzero;"/>
        </g>
    </g>
    <defs>
        <linearGradient id="_Linear1" x1="0" y1="0" x2="1" y2="0" gradientUnits="userSpaceOnUse" gradientTransform="matrix(32.003,0,0,18.9589,-0.001,16.0004)"><stop offset="0" style="stop-color:rgb(97,44,117);stop-opacity:1"/><stop offset="0.3" style="stop-color:rgb(123,81,144);stop-opacity:1"/><stop offset="0.5" style="stop-color:rgb(191,153,195);stop-opacity:1"/><stop offset="0.7" style="stop-color:rgb(123,81,144);stop-opacity:1"/><stop offset="1" style="stop-color:rgb(97,44,117);stop-opacity:1"/></linearGradient>
    </defs>
</svg>
