<?xml version="1.0" encoding="UTF-8" standalone="no"?>
<!DOCTYPE svg PUBLIC "-//W3C//DTD SVG 1.1//EN" "http://www.w3.org/Graphics/SVG/1.1/DTD/svg11.dtd">
<svg width="100%" height="100%" viewBox="0 0 1266 268" version="1.1" xmlns="http://www.w3.org/2000/svg" xmlns:xlink="http://www.w3.org/1999/xlink" xml:space="preserve" xmlns:serif="http://www.serif.com/" style="fill-rule:evenodd;clip-rule:evenodd;stroke-linejoin:round;stroke-miterlimit:2;">
    <g transform="matrix(1,0,0,1,-110.464,-93.8908)">
        <path d="M1103,94.603C1199.9,91.031 1217.31,101.898 1245,105C1265.54,107.3 1341.66,116.595 1376,108C1371.57,116.125 1362.53,121.368 1353,127C1358.52,129.223 1369.1,124.608 1375,125C1257.63,242.796 1219.03,270.208 1063,274C1009.63,275.297 957.293,261.377 920,264C769.892,274.56 154,361 154,361C99.963,367.643 96.931,303.599 141,292.966C141,292.966 761.498,200.591 903,174C920.471,170.717 947.889,153.811 962,143C986.391,124.314 1048.43,96.615 1103,94.603ZM912,194C891.833,194.333 815,212.373 796,218C792.736,218.967 794.596,226.818 798,226.762C818.167,226.429 897,216.627 916,211C923.147,208.883 919.453,193.877 912,194ZM981,164C964.483,178.044 991.255,197.119 1003,186C1052.66,138.988 1116.49,141.224 1170,116C1044.01,124.649 1029.83,122.481 981,164Z"/>
    </g>
</svg>
