<?xml version="1.0" encoding="UTF-8" standalone="no"?><!DOCTYPE svg PUBLIC "-//W3C//DTD SVG 1.1//EN" "http://www.w3.org/Graphics/SVG/1.1/DTD/svg11.dtd"><svg width="34" height="21" viewBox="0 0 34 21" version="1.1" xmlns="http://www.w3.org/2000/svg" xmlns:xlink="http://www.w3.org/1999/xlink" xml:space="preserve" xmlns:serif="http://www.serif.com/" style="fill-rule:evenodd;clip-rule:evenodd;stroke-linejoin:round;stroke-miterlimit:2;"><g><g id="plus"><path d="M16.613,20.89c-6.837,0.01 -11.311,-0.51 -16.613,-2.15c2.705,-2.67 3.658,-7.09 1.675,-12.61l15.265,-6.13l15.265,6.13c-1.983,5.52 -1.03,9.94 1.675,12.61c-5.386,1.66 -9.918,2.18 -16.94,2.15l-0.327,-0Zm0.336,-2l-0.131,-0c-0.076,-0 -0.146,0.01 -0.21,0.02l0,-0.02c-5.387,0.01 -9.254,-0.32 -13.278,-1.3c1.443,-2.68 1.883,-6.18 0.802,-10.3l12.808,-5.14l12.808,5.14c-1.081,4.12 -0.641,7.62 0.801,10.3c-4.103,1 -8.044,1.32 -13.6,1.3Z"/><g><path d="M8.414,12.443l0,-1.652l3.013,0l0,-3.053l1.716,-0l0,3.053l3.022,0l-0,1.652l-3.022,-0l0,3.053l-1.716,0l0,-3.053l-3.013,-0Z" style="fill-rule:nonzero;"/><path d="M17.808,17.277l0,-0.162l1.652,-0.628l-0,-8.564l-0.031,-0.048l-1.621,-0l0,-0.17c0.553,-0.134 1.21,-0.409 1.971,-0.825c0.762,-0.417 1.394,-0.856 1.899,-1.318l0.175,0l-0,9.104c-0,0.731 0.135,1.289 0.407,1.676c0.271,0.387 0.686,0.645 1.244,0.773l0,0.162l-5.696,-0Z" style="fill-rule:nonzero;"/></g></g></g></svg>