<?xml version="1.0" encoding="UTF-8" standalone="no"?><!DOCTYPE svg PUBLIC "-//W3C//DTD SVG 1.1//EN" "http://www.w3.org/Graphics/SVG/1.1/DTD/svg11.dtd"><svg width="34" height="21" viewBox="0 0 34 21" version="1.1" xmlns="http://www.w3.org/2000/svg" xmlns:xlink="http://www.w3.org/1999/xlink" xml:space="preserve" xmlns:serif="http://www.serif.com/" style="fill-rule:evenodd;clip-rule:evenodd;stroke-linejoin:round;stroke-miterlimit:2;"><g><g id="plus"><path d="M16.613,20.89c-6.837,0.01 -11.311,-0.51 -16.613,-2.15c2.705,-2.67 3.658,-7.09 1.675,-12.61l15.265,-6.13l15.265,6.13c-1.983,5.52 -1.03,9.94 1.675,12.61c-5.386,1.66 -9.918,2.18 -16.94,2.15l-0.327,-0Zm0.336,-2l-0.131,-0c-0.076,-0 -0.146,0.01 -0.21,0.02l0,-0.02c-5.387,0.01 -9.254,-0.32 -13.278,-1.3c1.443,-2.68 1.883,-6.18 0.802,-10.3l12.808,-5.14l12.808,5.14c-1.081,4.12 -0.641,7.62 0.801,10.3c-4.103,1 -8.044,1.32 -13.6,1.3Z"/><g><path d="M7.101,12.443l-0,-1.652l3.013,0l0,-3.053l1.716,-0l0,3.053l3.021,0l0,1.652l-3.021,-0l0,3.053l-1.716,0l0,-3.053l-3.013,-0Z" style="fill-rule:nonzero;"/><path d="M16.084,13.673l7.071,-8.771l0.075,-0l0,8.677l1.499,-0l-0,0.062l-1.289,1.098l-0.21,-0l0,2.538c-0.361,0.01 -0.763,0.051 -1.204,0.12c-0.442,0.07 -0.816,0.167 -1.122,0.291l-0.066,-0l-0,-2.949l-3.545,-0l-1.193,-1.011l-0.016,-0.055Zm1.418,-0.143l0.016,0.049l3.32,-0l-0,-4.238l-0.065,-0l-3.271,4.189Z" style="fill-rule:nonzero;"/></g></g></g></svg>