<?xml version="1.0" encoding="UTF-8" standalone="no"?><!DOCTYPE svg PUBLIC "-//W3C//DTD SVG 1.1//EN" "http://www.w3.org/Graphics/SVG/1.1/DTD/svg11.dtd"><svg width="34" height="21" viewBox="0 0 34 21" version="1.1" xmlns="http://www.w3.org/2000/svg" xmlns:xlink="http://www.w3.org/1999/xlink" xml:space="preserve" xmlns:serif="http://www.serif.com/" style="fill-rule:evenodd;clip-rule:evenodd;stroke-linejoin:round;stroke-miterlimit:2;"><g><g id="minus"><path d="M16.613,0.001c-6.837,-0.01 -11.311,0.51 -16.613,2.15c2.705,2.67 3.658,7.09 1.675,12.61l15.265,6.13l15.265,-6.13c-1.983,-5.52 -1.03,-9.94 1.675,-12.61c-5.386,-1.66 -9.918,-2.18 -16.94,-2.15l-0.327,0Zm0.336,2l-0.131,0c-0.076,0 -0.146,-0.01 -0.21,-0.02l0,0.02c-5.387,-0.01 -9.254,0.32 -13.278,1.3c1.443,2.68 1.883,6.18 0.802,10.3l12.808,5.14l12.808,-5.14c-1.081,-4.12 -0.641,-7.62 0.801,-10.3c-4.103,-1 -8.044,-1.32 -13.6,-1.3Z"/><g><path d="M7.733,11.152l0,-0.065l1.088,-1.748l6.381,-0l-0,0.064l-1.088,1.749l-6.381,-0Z" style="fill-rule:nonzero;"/><path d="M16.362,14.214l1.233,-1.842l0.048,0.016c0,0.611 0.189,1.107 0.568,1.488c0.379,0.38 0.872,0.571 1.478,0.571c0.634,-0 1.128,-0.176 1.483,-0.527c0.354,-0.351 0.532,-0.83 0.532,-1.436c-0,-0.268 -0.051,-0.533 -0.153,-0.796c-0.103,-0.263 -0.278,-0.524 -0.528,-0.784c-0.25,-0.26 -0.559,-0.49 -0.927,-0.688c-0.368,-0.198 -0.843,-0.359 -1.426,-0.483c-0.582,-0.123 -1.231,-0.185 -1.945,-0.185l0.647,-5.825l4.815,0l0.556,-0.821l0.064,-0l0,2.554l-4.584,-0l-0.267,2.118c0.748,0.011 1.429,0.097 2.045,0.258c0.615,0.161 1.131,0.374 1.548,0.64c0.418,0.266 0.772,0.578 1.062,0.938c0.29,0.359 0.5,0.736 0.63,1.131c0.13,0.394 0.195,0.806 0.195,1.235c-0,0.506 -0.085,0.976 -0.254,1.412c-0.169,0.435 -0.415,0.822 -0.737,1.161c-0.322,0.339 -0.744,0.605 -1.265,0.798c-0.521,0.194 -1.109,0.291 -1.764,0.291c-0.607,-0 -1.174,-0.108 -1.7,-0.325c-0.527,-0.216 -0.978,-0.516 -1.354,-0.899Z" style="fill-rule:nonzero;"/></g></g></g></svg>