<?xml version="1.0" encoding="UTF-8" standalone="no"?><!DOCTYPE svg PUBLIC "-//W3C//DTD SVG 1.1//EN" "http://www.w3.org/Graphics/SVG/1.1/DTD/svg11.dtd"><svg width="34" height="21" viewBox="0 0 34 21" version="1.1" xmlns="http://www.w3.org/2000/svg" xmlns:xlink="http://www.w3.org/1999/xlink" xml:space="preserve" xmlns:serif="http://www.serif.com/" style="fill-rule:evenodd;clip-rule:evenodd;stroke-linejoin:round;stroke-miterlimit:2;"><g><g id="minus"><path d="M16.613,0.001c-6.837,-0.01 -11.311,0.51 -16.613,2.15c2.705,2.67 3.658,7.09 1.675,12.61l15.265,6.13l15.265,-6.13c-1.983,-5.52 -1.03,-9.94 1.675,-12.61c-5.386,-1.66 -9.918,-2.18 -16.94,-2.15l-0.327,0Zm0.336,2l-0.131,0c-0.076,0 -0.146,-0.01 -0.21,-0.02l0,0.02c-5.387,-0.01 -9.254,0.32 -13.278,1.3c1.443,2.68 1.883,6.18 0.802,10.3l12.808,5.14l12.808,-5.14c-1.081,-4.12 -0.641,-7.62 0.801,-10.3c-4.103,-1 -8.044,-1.32 -13.6,-1.3Z"/><g><path d="M6.916,11.152l-0,-0.065l1.087,-1.748l6.381,-0l0,0.064l-1.087,1.749l-6.381,-0Z" style="fill-rule:nonzero;"/><path d="M15.705,10.548c0,-0.958 0.19,-1.87 0.568,-2.734c0.379,-0.865 0.889,-1.607 1.531,-2.228c0.642,-0.621 1.407,-1.114 2.296,-1.478c0.889,-0.364 1.822,-0.546 2.8,-0.546l0,0.661c-0.845,0.005 -1.587,0.198 -2.227,0.577c-0.641,0.379 -1.148,0.892 -1.522,1.538c-0.374,0.647 -0.633,1.408 -0.779,2.284l1.471,-0.637l0.58,0c0.995,0 1.8,0.339 2.416,1.015c0.615,0.677 0.923,1.54 0.923,2.588c0,1.085 -0.366,1.998 -1.097,2.739c-0.731,0.74 -1.631,1.111 -2.701,1.111c-0.456,-0 -0.888,-0.054 -1.296,-0.162c-0.408,-0.108 -0.795,-0.286 -1.159,-0.534c-0.365,-0.249 -0.681,-0.558 -0.946,-0.927c-0.266,-0.37 -0.475,-0.833 -0.628,-1.389c-0.153,-0.556 -0.23,-1.182 -0.23,-1.878Zm2.554,-0.326c0,1.515 0.146,2.612 0.437,3.293c0.29,0.68 0.724,1.02 1.3,1.02c0.291,0 0.543,-0.117 0.755,-0.353c0.213,-0.236 0.369,-0.528 0.469,-0.878c0.099,-0.349 0.149,-0.72 0.149,-1.112c0,-1.149 -0.168,-1.987 -0.505,-2.514c-0.336,-0.527 -0.876,-0.79 -1.619,-0.79l-0.905,-0c-0.054,0.466 -0.081,0.911 -0.081,1.334Z" style="fill-rule:nonzero;"/></g></g></g></svg>