<?xml version="1.0" encoding="UTF-8" standalone="no"?>
<!-- Created with Inkscape (http://www.inkscape.org/) -->

<svg
   xmlns:dc="http://purl.org/dc/elements/1.1/"
   xmlns:cc="http://creativecommons.org/ns#"
   xmlns:rdf="http://www.w3.org/1999/02/22-rdf-syntax-ns#"
   xmlns:svg="http://www.w3.org/2000/svg"
   xmlns="http://www.w3.org/2000/svg"
   xmlns:inkscape="http://www.inkscape.org/namespaces/inkscape"
   version="1.1"
   width="600"
   height="600"
   id="svg3797">
  <defs
     id="defs3799" />
  <metadata
     id="metadata3802">
    <rdf:RDF>
      <cc:Work
         rdf:about="">
        <dc:format>image/svg+xml</dc:format>
        <dc:type
           rdf:resource="http://purl.org/dc/dcmitype/StillImage" />
        <dc:title />
      </cc:Work>
    </rdf:RDF>
  </metadata>
  <g
     transform="translate(-296.2912,166.78621)"
     id="layer1">
    <g
       transform="matrix(6,0,0,6,5966.2912,463.22578)"
       id="g117">
      <circle
         cx="-895"
         cy="-55.001999"
         r="50"
         id="circle119"
         style="fill:#cac5c0" />
    </g>
    <path
       d="M 508.12727,-54.976202 V 247.65778 c 0,35.98801 15.40241,53.988 46.15791,53.988 h 7.83019 v 20.51998 H 400.91933 v -20.51998 h 10.3621 c 29.58566,0 44.39963,-17.99999 44.39963,-53.988 V 49.177794 c 0,-36.479994 -12.92955,-54.738007 -38.80175,-54.738007 h -15.95998 v -20.544001 h 6.09608 c 31.42781,0 59.81412,-9.623962 85.14584,-28.877994 l 15.96602,0.0067 0,0 z m 58.56008,199.968032 c 0,-47.142049 9.87631,-90.492018 29.63968,-130.008076 24.85232,-49.157968 58.83047,-73.757971 101.89219,-73.757971 41.58593,0 74.53214,21.047965 98.85607,63.096021 19.77578,34.487957 29.67021,74.285989 29.67021,119.387986 0,47.15396 -9.88806,90.234 -29.67021,129.27001 -24.84595,48.17399 -58.54196,72.24598 -101.1179,72.24598 -41.05184,0 -73.75851,-20.79001 -98.11196,-62.37 -20.78424,-34.968 -31.15808,-74.25603 -31.15808,-117.86395 z m 54.73187,-22.05603 c 0,40.08001 4.30828,76.05597 12.93626,107.97596 13.18184,49.17002 34.70985,73.77005 64.62563,73.77005 48.66631,0 72.99025,-50.682 72.99025,-152.07601 0,-125.214002 -26.36401,-187.805992 -79.09204,-187.805992 -47.64611,0 -71.47218,48.629984 -71.47218,145.967982 l 0,12.16801 0,0 z"
       inkscape:connector-curvature="0"
       id="path121"
       style="fill:#0d0f0f" />
  </g>
</svg>
