<?xml version="1.0" encoding="UTF-8" standalone="no"?>
<!-- Created with Inkscape (http://www.inkscape.org/) -->

<svg
   xmlns:dc="http://purl.org/dc/elements/1.1/"
   xmlns:cc="http://creativecommons.org/ns#"
   xmlns:rdf="http://www.w3.org/1999/02/22-rdf-syntax-ns#"
   xmlns:svg="http://www.w3.org/2000/svg"
   xmlns="http://www.w3.org/2000/svg"
   xmlns:inkscape="http://www.inkscape.org/namespaces/inkscape"
   version="1.1"
   width="600"
   height="600"
   id="svg3861">
  <defs
     id="defs3863" />
  <metadata
     id="metadata3866">
    <rdf:RDF>
      <cc:Work
         rdf:about="">
        <dc:format>image/svg+xml</dc:format>
        <dc:type
           rdf:resource="http://purl.org/dc/dcmitype/StillImage" />
        <dc:title />
      </cc:Work>
    </rdf:RDF>
  </metadata>
  <g
     transform="translate(-213.4341,-44.642357)"
     id="layer1">
    <g
       transform="matrix(6,0,0,6,4623.4341,674.65435)"
       id="g105">
      <circle
         cx="-685"
         cy="-55.001999"
         r="50"
         id="circle107"
         style="fill:#cac5c0" />
    </g>
    <path
       d="m 427.21411,159.94435 v 295.08003 c 0,35.24998 14.56839,52.89596 43.6619,52.89596 h 7.66816 v 20.66998 H 321.43399 v -20.66998 h 9.19796 c 29.62828,0 44.4362,-17.64598 44.4362,-52.89596 V 261.10436 c 0,-35.72999 -12.25791,-53.63397 -36.7677,-53.63397 h -16.0925 v -19.93204 h 6.11453 c 30.65385,0 58.25412,-9.18602 82.76961,-27.58799 l 16.12202,-0.007 0,0 z m 305.78995,278.202 -26.826,91.218 h -224.5736 v -19.91997 c 10.75763,-12.25801 34.49379,-36.79807 71.29169,-73.59603 21.95407,-21.95998 43.94371,-45.46801 65.92798,-70.48801 10.7281,-12.29401 19.14627,-22.48796 25.29009,-30.68998 12.75584,-19.39201 19.14614,-38.79 19.14614,-58.21801 0,-19.42802 -5.8862,-36.55203 -17.62808,-51.36596 -11.75398,-14.82604 -27.35399,-22.23004 -46.74597,-22.23004 -40.38624,0 -72.07203,27.58802 -95.05805,82.79403 l -19.92574,-7.67403 c 27.60564,-76.64998 70.5117,-114.98402 128.76581,-114.98402 28.60196,0 53.14204,9.72605 73.57201,29.13004 20.42383,19.42798 30.65408,43.68599 30.65408,72.822 0,37.28999 -21.20427,73.57198 -63.58801,108.84598 l -43.69199,35.23803 c -28.12799,23.51998 -51.36596,45.75002 -69.76826,66.66597 -1.52377,1.57202 -4.08586,4.37401 -7.63797,8.46004 h 117.26404 c 17.87419,0 31.15211,-3.34203 39.85782,-9.98404 8.67011,-6.61202 16.59646,-18.64201 23.7363,-36.024 h 19.93771 z"
       inkscape:connector-curvature="0"
       id="path109"
       style="fill:#0d0f0f" />
  </g>
</svg>
