<?xml version="1.0" encoding="UTF-8" standalone="no"?>
<!-- Created with Inkscape (http://www.inkscape.org/) -->

<svg
   xmlns:dc="http://purl.org/dc/elements/1.1/"
   xmlns:cc="http://creativecommons.org/ns#"
   xmlns:rdf="http://www.w3.org/1999/02/22-rdf-syntax-ns#"
   xmlns:svg="http://www.w3.org/2000/svg"
   xmlns="http://www.w3.org/2000/svg"
   xmlns:inkscape="http://www.inkscape.org/namespaces/inkscape"
   version="1.1"
   width="600"
   height="600"
   id="svg3893">
  <defs
     id="defs3895" />
  <metadata
     id="metadata3898">
    <rdf:RDF>
      <cc:Work
         rdf:about="">
        <dc:format>image/svg+xml</dc:format>
        <dc:type
           rdf:resource="http://purl.org/dc/dcmitype/StillImage" />
        <dc:title />
      </cc:Work>
    </rdf:RDF>
  </metadata>
  <g
     transform="translate(92.2802,-93.213787)"
     id="layer1">
    <g
       transform="matrix(6,0,0,6,3687.7198,723.22578)"
       id="g99">
      <circle
         cx="-580"
         cy="-55.001999"
         r="50"
         id="circle101"
         style="fill:#cac5c0" />
    </g>
    <path
       d="m 135.52209,211.9598 v 291.25799 c 0,34.24198 14.56796,51.32999 43.692,51.32999 h 6.89399 v 19.93204 H 31.296066 v -19.93204 h 9.977999 c 29.628001,0 44.435997,-17.08801 44.435997,-51.32999 V 312.35177 c 0,-35.23799 -12.533984,-52.88398 -37.548007,-52.88398 H 32.814064 v -19.89598 h 6.14402 c 30.125995,0 57.22797,-9.21005 81.239966,-27.61201 h 15.32404 z m 130.30194,193.14602 -9.198,-16.878 6.91799,-3.84605 c 22.98602,-14.27397 44.32203,-28.70999 63.99602,-43.28995 19.644,-14.55602 29.50203,-31.02003 29.50203,-49.42804 0,-12.77395 -4.86603,-23.388 -14.56202,-31.80599 -9.702,-8.44799 -20.46,-12.65396 -32.18399,-12.65396 -29.65799,0 -60.816,17.89197 -93.52799,53.66996 l -15.318,-11.508 c 33.71399,-51.096 75.102,-76.66203 124.15198,-76.66203 21.45598,0 39.61201,5.37003 54.42,16.10404 17.37599,11.79002 26.07603,27.86997 26.07603,48.30598 0,14.32201 -6.14402,28.35 -18.40203,42.12602 -7.16997,7.67399 -19.42798,18.14999 -36.798,31.43998 l -6.89403,6.13802 c 3.06002,-0.49202 6.89403,-0.774 11.50804,-0.774 22.48796,0 40.85997,8.57997 55.16998,25.66201 14.316,17.112 21.45604,36.67797 21.45604,58.626 0,38.84999 -16.34404,71.03998 -49.06202,96.57602 -29.62803,24.51593 -64.12203,36.80994 -103.44002,36.80994 -36.30601,0 -64.64997,-7.67399 -85.08,-23.01601 l 10.72804,-15.318 c 24.012,11.22603 45.96596,16.87803 65.89196,16.87803 28.62601,0 54.17403,-9.44397 76.65599,-28.38 22.48803,-18.88798 33.71406,-42.408 33.71406,-70.51203 0,-18.89999 -5.616,-34.97994 -16.84204,-48.26998 -11.26203,-13.28999 -26.07596,-19.93197 -44.47199,-19.93197 -16.332,0.007 -34.48206,6.65399 -54.40803,19.93801 z"
       inkscape:connector-curvature="0"
       id="path103"
       style="fill:#0d0f0f" />
  </g>
</svg>
