<?xml version="1.0" encoding="UTF-8" standalone="no"?>
<!-- Created with Inkscape (http://www.inkscape.org/) -->

<svg
   xmlns:dc="http://purl.org/dc/elements/1.1/"
   xmlns:cc="http://creativecommons.org/ns#"
   xmlns:rdf="http://www.w3.org/1999/02/22-rdf-syntax-ns#"
   xmlns:svg="http://www.w3.org/2000/svg"
   xmlns="http://www.w3.org/2000/svg"
   xmlns:inkscape="http://www.inkscape.org/namespaces/inkscape"
   version="1.1"
   width="600"
   height="600"
   id="svg3999">
  <defs
     id="defs4001" />
  <metadata
     id="metadata4004">
    <rdf:RDF>
      <cc:Work
         rdf:about="">
        <dc:format>image/svg+xml</dc:format>
        <dc:type
           rdf:resource="http://purl.org/dc/dcmitype/StillImage" />
        <dc:title />
      </cc:Work>
    </rdf:RDF>
  </metadata>
  <g
     transform="translate(-36.2912,55.357643)"
     id="layer1">
    <g
       transform="matrix(6,0,0,6,1926.2912,574.65435)"
       id="g81">
      <circle
         cx="-265"
         cy="-55.001999"
         r="50"
         id="circle83"
         style="fill:#cac5c0" />
    </g>
    <path
       d="M 242.14542,54.586372 V 359.61437 c 0,36.28199 15.09601,54.42 45.22197,54.42 h 7.67403 v 20.68202 H 132.5494 v -20.68202 h 10.73401 c 30.65398,0 46.00798,-18.13801 46.00798,-54.42 V 159.55039 c 0,-36.76203 -13.04399,-55.15806 -39.11999,-55.15806 H 134.07941 V 83.686389 h 6.13801 c 31.686,0 60.294,-9.70203 85.83,-29.100017 h 16.098 z M 362.49339,219.34035 c 28.104,-26.53202 56.44804,-39.85798 85.07999,-39.85798 30.65405,0 55.41599,12.29398 74.34604,36.80998 17.36999,22.47598 26.03997,49.82998 26.03997,82.00799 0,34.74601 -10.21797,65.15401 -30.65398,91.19398 -22.47602,29.13004 -50.57999,43.68603 -84.29405,43.68603 -39.85798,0 -72.03596,-17.36996 -96.58796,-52.10403 -21.45598,-30.65394 -32.18996,-66.93593 -32.18996,-108.84597 0,-44.94 12.25795,-86.22597 36.80995,-123.78599 24.50402,-37.548 57.48001,-64.241996 98.862,-80.088013 22.98002,-8.705978 47.53201,-13.043988 73.57201,-13.043988 v 19.931978 c -55.15803,2.568029 -96.30598,24.551994 -123.378,65.928043 -13.82402,21.474 -23.02199,47.514 -27.60601,78.16797 z m -3.83998,37.58401 c -0.49202,7.638 -0.77403,15.318 -0.77403,22.98002 0,29.62797 5.11201,56.97598 15.35403,82.03198 13.27799,32.67 32.67001,49.02001 58.24201,49.02001 21.96001,0 38.58002,-11.22599 49.80598,-33.71402 8.17803,-17.36996 12.25802,-38.57999 12.25802,-63.62398 0,-26.04 -3.79801,-48.52799 -11.47204,-67.41601 -11.262,-25.572 -28.374,-38.33402 -51.36599,-38.33402 -28.104,0 -52.11597,16.34999 -72.04798,49.05602 z"
       inkscape:connector-curvature="0"
       id="path85"
       style="fill:#0d0f0f" />
  </g>
</svg>
