<?xml version="1.0" encoding="UTF-8" standalone="no"?>
<!-- Created with Inkscape (http://www.inkscape.org/) -->

<svg
   xmlns:dc="http://purl.org/dc/elements/1.1/"
   xmlns:cc="http://creativecommons.org/ns#"
   xmlns:rdf="http://www.w3.org/1999/02/22-rdf-syntax-ns#"
   xmlns:svg="http://www.w3.org/2000/svg"
   xmlns="http://www.w3.org/2000/svg"
   xmlns:inkscape="http://www.inkscape.org/namespaces/inkscape"
   version="1.1"
   width="600"
   height="600"
   id="svg4095">
  <defs
     id="defs4097" />
  <metadata
     id="metadata4100">
    <rdf:RDF>
      <cc:Work
         rdf:about="">
        <dc:format>image/svg+xml</dc:format>
        <dc:type
           rdf:resource="http://purl.org/dc/dcmitype/StillImage" />
        <dc:title />
      </cc:Work>
    </rdf:RDF>
  </metadata>
  <g
     transform="translate(80.851611,161.07192)"
     id="layer1">
    <g
       transform="matrix(6,0,0,6,-80.851611,468.94007)"
       id="g63">
      <circle
         cx="50"
         cy="-55.001999"
         r="50"
         id="circle65"
         style="fill:#cac5c0" />
    </g>
    <path
       d="M 142.12052,-49.615949 V 251.6141 c 0,35.77196 15.06001,53.634 45.222,53.634 h 7.66202 v 20.70597 H 34.060519 V 305.2481 h 10.722002 c 30.161992,0 45.222003,-17.86801 45.222003,-53.634 V 53.860068 c 0,-36.270015 -12.786,-54.42003515 -38.334013,-54.42003515 H 35.578517 V -21.235947 h 6.138016 c 31.15801,0 59.507987,-9.450015 85.079987,-28.373997 l 15.324,-0.0067 0,0 z M 386.62053,165.01005 c -28.104,26.57405 -56.19002,39.85801 -84.29401,39.85801 -30.65398,0 -55.45202,-12.53398 -74.35799,-37.578 -16.87203,-21.954 -25.29603,-48.78004 -25.29603,-80.460032 0,-34.247986 9.94804,-64.901965 29.87401,-91.9739816 22.47602,-29.1240044 50.34002,-43.6859894 83.55001,-43.6859894 40.36799,0 72.29399,17.369986 95.80199,52.1159981 21.96001,31.1819969 32.96399,67.7039939 32.96399,109.5900149 0,60.31798 -19.79996,111.024 -59.39395,152.15401 -39.61201,41.12997 -89.28605,61.96201 -149.07601,62.46001 v -19.92604 c 18.39596,-1.02595 32.96398,-3.08998 43.68599,-6.13799 60.82798,-18.408 96.31199,-63.87598 106.542,-136.41601 z m 3.84599,-37.58401 c 0.49202,-8.13599 0.77399,-15.80998 0.77399,-22.97998 0,-29.628037 -5.112,-56.699987 -15.34198,-81.240004 -13.794,-32.1839879 -33.21,-48.281987 -58.26603,-48.281987 -21.948,0 -38.07599,10.979956 -48.26997,32.963988 -8.70598,17.873951 -13.04402,38.832006 -13.04402,62.843972 0,26.04 4.092,48.558021 12.25801,67.422051 10.73402,25.04398 27.61198,37.58394 50.592,37.58394 27.6,0 51.36002,-16.09199 71.298,-48.31198 z"
       inkscape:connector-curvature="0"
       id="path67"
       style="fill:#0d0f0f" />
  </g>
</svg>
