<?xml version="1.0" encoding="UTF-8" standalone="no"?>
<!-- Created with Inkscape (http://www.inkscape.org/) -->

<svg
   xmlns:dc="http://purl.org/dc/elements/1.1/"
   xmlns:cc="http://creativecommons.org/ns#"
   xmlns:rdf="http://www.w3.org/1999/02/22-rdf-syntax-ns#"
   xmlns:svg="http://www.w3.org/2000/svg"
   xmlns="http://www.w3.org/2000/svg"
   xmlns:inkscape="http://www.inkscape.org/namespaces/inkscape"
   version="1.1"
   width="600"
   height="600"
   id="svg4138">
  <defs
     id="defs4140" />
  <metadata
     id="metadata4143">
    <rdf:RDF>
      <cc:Work
         rdf:about="">
        <dc:format>image/svg+xml</dc:format>
        <dc:type
           rdf:resource="http://purl.org/dc/dcmitype/StillImage" />
        <dc:title />
      </cc:Work>
    </rdf:RDF>
  </metadata>
  <g
     transform="translate(-339.1483,169.64334)"
     id="layer1">
    <g
       transform="matrix(6,0,0,6,6009.1483,-169.63135)"
       id="g123">
      <circle
         cx="-895"
         cy="49.998001"
         r="50"
         id="circle125"
         style="fill:#cac5c0" />
    </g>
    <path
       d="M 658.61248,209.96461 631.7865,299.63459 H 411.04037 v -18.40797 c 10.73415,-12.24601 34.49984,-36.51603 71.29807,-72.78601 21.45588,-21.95998 42.9121,-44.97596 64.37435,-68.98796 11.22563,-12.25201 19.42788,-22.73401 24.53965,-31.43998 13.2543,-18.396036 19.89621,-37.548046 19.89621,-57.468013 0,-18.395997 -5.98805,-34.878025 -17.98798,-49.4280335 -12.012,-14.5679575 -27.23392,-21.8339365 -45.59999,-21.8339365 -39.85785,0 -71.04008,27.071949 -93.52791,81.245974 l -20.68225,-7.674029 c 27.07221,-76.13397 69.49215,-114.197985 127.21822,-114.197985 28.62618,0 53.01586,9.689986 73.19355,29.12397 20.20218,19.428047 30.28246,43.440013 30.28246,72.036066 0,36.305979 -21.2103,71.789957 -63.62454,106.535937 l -42.91176,36.024 c -27.5996,23.51998 -50.33401,45.222 -68.20189,65.14197 -1.53584,1.03202 -4.09223,4.09203 -7.67386,9.21004 h 114.98379 c 17.87392,0 31.40399,-3.85199 40.60799,-11.50804 7.67387,-6.126 15.34202,-17.87999 22.98032,-35.25001 h 18.40768 v -0.007 z m -3.05995,-80.48399 c 0,-44.447972 9.19796,-85.583981 27.59993,-123.3779996 24.01227,-47.0039604 56.44787,-70.5239724 97.33834,-70.5239724 39.33013,0 70.7576,20.177988 94.27771,60.5400018 18.36608,32.7179772 27.56404,70.5119622 27.56404,113.4240202 0,44.96999 -9.19796,85.86593 -27.56404,122.66393 -24.04816,45.95399 -56.23785,68.94602 -96.58819,68.94602 -38.82557,0 -70.01988,-19.64396 -93.50376,-59.016 -19.42821,-33.20402 -29.12403,-70.752 -29.12403,-112.656 z m 52.11609,-20.68799 c 0,38.33398 4.08016,72.57596 12.25792,102.69595 12.24617,47.04003 32.70634,70.52404 61.31406,70.52404 46.48802,0 69.76189,-48.28199 69.76189,-144.87598 0,-119.567981 -25.30187,-179.345998 -75.87608,-179.345998 -44.976,0 -67.45175,46.4880189 -67.45175,139.488011 l 0,11.513977 0,0 z"
       inkscape:connector-curvature="0"
       id="path127"
       style="fill:#0d0f0f" />
  </g>
</svg>
