<?xml version="1.0" encoding="UTF-8" standalone="no"?>
<!-- Created with Inkscape (http://www.inkscape.org/) -->

<svg
   xmlns:dc="http://purl.org/dc/elements/1.1/"
   xmlns:cc="http://creativecommons.org/ns#"
   xmlns:rdf="http://www.w3.org/1999/02/22-rdf-syntax-ns#"
   xmlns:svg="http://www.w3.org/2000/svg"
   xmlns="http://www.w3.org/2000/svg"
   xmlns:sodipodi="http://sodipodi.sourceforge.net/DTD/sodipodi-0.dtd"
   xmlns:inkscape="http://www.inkscape.org/namespaces/inkscape"
   version="1.1"
   width="600"
   height="600"
   id="svg4977"
   inkscape:version="0.91 r13725"
   sodipodi:docname="2b.svg">
  <sodipodi:namedview
     pagecolor="#ffffff"
     bordercolor="#666666"
     borderopacity="1"
     objecttolerance="10"
     gridtolerance="10"
     guidetolerance="10"
     inkscape:pageopacity="0"
     inkscape:pageshadow="2"
     inkscape:window-width="732"
     inkscape:window-height="480"
     id="namedview12"
     showgrid="false"
     inkscape:zoom="0.39333333"
     inkscape:cx="300"
     inkscape:cy="300"
     inkscape:window-x="0"
     inkscape:window-y="0"
     inkscape:window-maximized="0"
     inkscape:current-layer="svg4977" />
  <defs
     id="defs4979" />
  <metadata
     id="metadata4982">
    <rdf:RDF>
      <cc:Work
         rdf:about="">
        <dc:format>image/svg+xml</dc:format>
        <dc:type
           rdf:resource="http://purl.org/dc/dcmitype/StillImage" />
        <dc:title />
      </cc:Work>
    </rdf:RDF>
  </metadata>
  <circle
     cx="300"
     cy="300"
     r="300"
     style="fill:#cccccc"
     id="circle5" />
  <path
     inkscape:connector-curvature="0"
     style="fill:#000000"
     d="m 147.42231,272.89956 60.21849,0 c 23.98534,0 31.1299,-1.53097 39.29512,-28.06794 l 20.41306,-0.51033 -18.37175,63.28046 -145.443,0 -0.51033,-17.35109 c 109.20983,-106.6582 111.25113,-122.47831 112.27179,-138.29842 2.55164,-34.7022 -22.45436,-45.92935 -35.72283,-45.92935 -13.2685,0 -35.21253,8.67553 -56.64622,52.56359 l -18.88208,-8.16522 c 28.57827,-80.121224 76.54896,-76.548941 91.85873,-76.038614 37.76415,1.020653 62.25981,36.743494 61.23916,66.852744 -1.02065,40.82611 -18.88207,46.95001 -109.72014,131.66417 z"
     id="path6" />
  <g
     transform="translate(-484.86267,155.35853)"
     id="layer1">
    <path
       d="m 996.95667,-67.541659 c 54.31203,54.306548 87.90603,129.307299 87.90603,212.162109 0,165.69768 -134.31602,300.02102 -300.00604,300.02102 -82.836,0 -157.82999,-33.57635 -212.12398,-87.87689"
       inkscape:connector-curvature="0"
       id="path289"
       style="fill:#a59793" />
    <path
       d="m 1022.5827,240.5794 c 0,16.20615 -5.892,27.26425 -17.682,33.15035 -3.444,1.72199 -14.24405,4.06801 -32.42403,6.99601 -11.77777,1.98002 -17.67585,6.51611 -17.67585,13.62616 v 29.83835 c 0,1.25398 0.3798,5.05203 1.10381,11.43008 l 1.10991,11.79614 c 0,3.67798 -0.8638,9.70206 -2.58597,18.04818 -4.66165,0.97802 -10.06784,2.08801 -16.20589,3.32998 -1.96795,-7.38005 -2.94599,-12.4141 -2.94599,-15.12011 0,-1.21802 0.30194,-3.07202 0.91802,-5.52605 0.61226,-2.44805 0.92379,-4.29605 0.92379,-5.53205 0,-1.70404 -1.51773,-6.49809 -4.57184,-14.36416 h -5.71769 c -0.75635,1.23 -1.00213,2.82601 -0.76209,4.78204 0.98415,4.18205 1.34992,7.73405 1.10988,10.68611 -4.18197,2.94601 -9.94206,6.87605 -17.3097,11.79013 -1.73438,-0.49199 -2.33443,-0.738 -1.84828,-0.738 V 328.6183 c -0.48615,-1.21802 -1.70996,-1.71002 -3.68388,-1.47605 h -4.42201 l -4.42202,34.62633 c -3.43804,0.24624 -7.60811,0.24624 -12.51624,0 -1.72204,-8.10605 -4.79406,-20.12421 -9.21004,-36.10234 h -2.95796 c -2.69998,8.59811 -4.16973,13.26615 -4.42168,14.00415 0,0.97801 0.312,2.87402 0.92996,5.70607 0.60555,2.83202 0.91788,4.72202 0.91788,5.70607 0,0.73197 -0.25161,2.58 -0.7498,5.52605 l -1.10408,8.85005 c -0.49819,0.47405 -1.09804,0.72003 -1.8361,0.72003 -7.36824,0 -12.28811,-1.84203 -14.7301,-5.51401 -2.47185,-3.69009 -3.45616,-8.85015 -2.95763,-15.48022 l 2.95763,-44.19043 c 0,-0.73801 0.23484,-1.72199 0.72599,-2.95206 0.49215,-1.21798 0.73806,-2.08797 0.73806,-2.56802 0,-1.968 -2.08805,-5.90404 -6.25778,-11.80808 -0.7384,-0.23987 -4.54212,-1.11003 -11.42424,-2.58604 -4.16973,-0.972 -12.40184,-2.69406 -24.67183,-5.14204 -16.95033,-3.18606 -25.42801,-16.81819 -25.42801,-40.88441 0,-35.86839 14.74184,-65.69466 44.2017,-89.52094 1.22418,6.63607 3.32431,15.46818 6.26986,26.52031 2.20815,0.50397 7.00222,1.61399 14.36408,3.32404 1.48217,0.48599 8.96413,3.19203 22.47038,8.10608 -6.87004,-4.17008 -15.83987,-10.90814 -26.87998,-20.25025 -4.18248,-4.90802 -6.27624,-13.14611 -6.27624,-24.67822 0,-2.71802 4.66793,-5.89203 14.00982,-9.6001 8.34617,-3.43201 14.60429,-5.37606 18.78643,-5.88006 13.25397,-1.71004 23.44765,-2.58 30.57601,-2.58 30.68964,0 55.49993,7.86607 74.40569,23.59221 -6.13197,7.1281 -16.69818,14.71814 -31.67418,22.83626 5.8923,0.24591 14.49059,-2.08207 25.78835,-7.0081 11.29199,-4.89006 16.07978,-7.36807 14.36375,-7.36807 1.96218,0 5.89804,3.93604 11.79001,11.7901 4.41012,5.8921 7.97412,11.17814 10.68042,15.8402 7.8596,13.99811 13.14,29.11826 15.8456,45.3124 0,5.65209 0.1221,9.70213 0.3683,12.15018 l 0,2.94001 0,0 z m -141.0956,6.64802 c 0,-10.56608 -4.60217,-20.57417 -13.80651,-30.03629 -9.21608,-9.45608 -19.10984,-14.17813 -29.66417,-14.17813 -9.32981,0 -17.54984,3.96006 -24.67787,11.86813 -7.12165,7.91408 -10.6798,16.69215 -10.6798,26.34026 0,8.40007 4.04997,13.85415 12.15593,16.31418 5.16008,1.48799 12.3958,2.352 21.72628,2.60402 h 20.26189 c 16.45784,0.21001 24.68425,-4.09204 24.68425,-12.91217 z m 40.15777,45.67248 v -11.40607 c -1.71607,-3.19807 -3.43824,-6.52812 -5.14821,-9.96015 -1.47602,-4.90204 -4.18197,-11.77809 -8.10599,-20.63419 l -4.05577,43.10443 c 0,3.45602 -0.73203,5.16607 -2.21419,5.16607 -0.9776,0 -1.72171,-0.23988 -2.20782,-0.73804 -1.72204,-26.02822 -2.57417,-37.3324 -2.57417,-33.87631 v -12.88815 c -0.4982,-0.75602 -1.11012,-1.12797 -1.84785,-1.12797 -8.34617,8.62206 -12.51624,22.48818 -12.51624,41.62838 0,10.5661 0.97794,17.0702 2.94018,19.5422 1.97399,-0.49799 4.17007,-1.36201 6.64192,-2.586 0.97793,-0.498 3.79801,-0.73801 8.46594,-0.73801 4.65017,0 10.32009,1.47001 16.93818,4.41002 2.45984,-0.0168 3.68402,-6.63007 3.68402,-19.89621 z m 83.25583,-51.33648 c 0,-9.87611 -3.684,-18.71423 -11.05196,-26.50827 -7.368,-7.78206 -15.83977,-11.67013 -25.40385,-11.67013 -10.32046,0 -19.96828,4.72202 -28.92584,14.16612 -8.9705,9.45612 -13.45217,19.34421 -13.45217,29.67034 0,8.59207 4.18164,12.88211 12.52768,12.88211 h 42.35429 c 15.97199,-0.23987 23.95185,-6.40811 23.95185,-18.54017 z"
       inkscape:connector-curvature="0"
       id="path295"
       style="fill:#000000" />
  </g>
</svg>
