<?xml version="1.0" encoding="UTF-8" standalone="no"?>
<!-- Created with Inkscape (http://www.inkscape.org/) -->

<svg
   xmlns:dc="http://purl.org/dc/elements/1.1/"
   xmlns:cc="http://creativecommons.org/ns#"
   xmlns:rdf="http://www.w3.org/1999/02/22-rdf-syntax-ns#"
   xmlns:svg="http://www.w3.org/2000/svg"
   xmlns="http://www.w3.org/2000/svg"
   xmlns:inkscape="http://www.inkscape.org/namespaces/inkscape"
   version="1.1"
   width="600"
   height="600"
   id="svg5014">
  <defs
     id="defs5016" />
  <metadata
     id="metadata5019">
    <rdf:RDF>
      <cc:Work
         rdf:about="">
        <dc:format>image/svg+xml</dc:format>
        <dc:type
           rdf:resource="http://purl.org/dc/dcmitype/StillImage" />
        <dc:title />
      </cc:Work>
    </rdf:RDF>
  </metadata>
  <circle cx="300" cy="300" r="300" style="fill:#cbc2bf" />
  <path
     inkscape:connector-curvature="0"
     style="fill:#130c0e"
     d="m 147.42231,272.89956 60.21849,0 c 23.98534,0 31.1299,-1.53097 39.29512,-28.06794 l 20.41306,-0.51033 -18.37175,63.28046 -145.443,0 -0.51033,-17.35109 c 109.20983,-106.6582 111.25113,-122.47831 112.27179,-138.29842 2.55164,-34.7022 -22.45436,-45.92935 -35.72283,-45.92935 -13.2685,0 -35.21253,8.67553 -56.64622,52.56359 l -18.88208,-8.16522 c 28.57827,-80.121224 76.54896,-76.548941 91.85873,-76.038614 37.76415,1.020653 62.25981,36.743494 61.23916,66.852744 -1.02065,40.82611 -18.88207,46.95001 -109.72014,131.66417 z"
     id="path6" />
  <g
     transform="translate(-719.14839,181.07282)"
     id="layer1">
    <path
       d="m 1231.2424,-93.255949 c 54.312,54.306548 87.906,129.307299 87.906,212.162109 0,165.69768 -134.322,300.02102 -300,300.02102 -82.84202,0 -157.83004,-33.57635 -212.12403,-87.87689"
       inkscape:connector-curvature="0"
       id="path299"
       style="fill:#e49977" />
    <path
       d="m 1248.9484,265.5596 c -10.308,24.59424 -30.78,36.8704 -61.44,36.8704 -5.622,0 -11.712,0.70197 -18.264,2.12403 -9.834,2.09402 -14.748,5.02802 -14.748,8.7781 0,1.15797 0.816,2.508 2.46,4.04403 1.632,1.52402 3.048,2.28001 4.218,2.28001 -5.862,0 -1.884,0.16808 11.922,0.52201 13.818,0.35391 22.4821,0.534 25.998,0.534 -20.3639,11.92211 -54.42,17.41817 -102.174,16.50014 -15.684,-0.23383 -29.142,-7.14004 -40.374,-20.72423 -11.01,-12.8761 -16.506,-27.24624 -16.506,-43.18236 0,-16.8482 5.676,-31.17637 17.034,-43.00847 11.34,-11.82009 25.452,-17.73017 42.306,-17.73017 3.738,0 8.7181,0.82198 14.916,2.46003 6.204,1.63798 10.362,2.46003 12.462,2.46003 8.664,0 19.434,-3.5761 32.31,-10.72215 12.876,-7.12803 18.96,-10.69805 18.2581,-10.69805 -2.3461,24.5882 -10.5361,41.08237 -24.5821,49.51246 -10.068,5.85604 -15.096,11.58012 -15.096,17.20215 0,3.49202 2.1,6.3181 6.312,8.41812 3.276,1.64402 6.906,2.46003 10.89,2.46003 6.084,0 12.048,-3.74404 17.904,-11.23812 5.844,-7.49412 8.418,-14.27415 7.716,-20.37623 -0.696,-7.02008 -0.2221,-15.43816 1.41,-25.27824 0.462,-2.81403 2.166,-6.25808 5.088,-10.3621 2.928,-4.10405 5.568,-6.61208 7.902,-7.54809 0,2.10005 -0.762,5.61606 -2.28,10.53014 -1.524,4.91402 -2.28,8.56204 -2.28,10.87811 0,5.14806 1.404,9.12606 4.218,11.9401 4.206,-1.63802 7.944,-6.91205 11.232,-15.80414 2.808,-6.78607 4.44,-13.34418 4.92,-19.65621 -9.84,-0.468 -19.266,-4.90808 -28.266,-13.34414 -9.006,-8.43006 -13.512,-17.56219 -13.512,-27.37829 0,-1.63801 0.2221,-3.282 0.702,-4.92002 1.392,2.112 3.498,5.38803 6.318,9.83408 3.972,5.86203 7.0201,8.77208 9.126,8.77208 2.808,0 4.212,-2.91005 4.212,-8.77208 0,-7.48808 -1.9919,-14.28012 -5.97,-20.37019 -4.458,-7.25408 -10.194,-10.87811 -17.202,-10.87811 -3.288,0 -8.196,1.74597 -14.748,5.26205 -6.558,3.49802 -12.528,5.26205 -17.898,5.26205 -1.6379,0 -8.904,-2.11203 -21.774,-6.32407 22.698,-3.73203 34.056,-7.12807 34.056,-10.1761 0,-7.94408 -15.564,-13.34415 -46.698,-16.14614 -3.048,-0.22209 -8.6579,-0.69603 -16.854,-1.40401 0.93,-1.15804 7.608,-2.44805 20.016,-3.87008 10.53,-1.152 17.898,-1.74598 22.11,-1.74598 55.71,0 91.05,27.04823 106.038,81.12682 2.586,-2.13605 3.8701,-5.71211 3.8701,-10.68011 0,-6.42009 -1.872,-14.48416 -5.6221,-24.21028 -1.41,-3.79805 -3.642,-9.49208 -6.678,-17.08218 19.188,24.45026 28.8,47.62847 28.8,69.50473 0,11.52611 -2.706,21.98419 -8.088,31.38632 -3.498,6.34202 -10.068,14.4481 -19.656,24.34823 -9.6,9.87608 -16.146,17.52019 -19.662,22.9202 12.876,-3.49796 21.306,-6.20404 25.284,-8.08206 8.886,-3.97207 16.968,-9.94811 24.222,-17.89221 0,3.03005 -1.29,7.60811 -3.858,13.67416 z m -153.084,-137.97737 c 0,4.20604 -2.346,6.88806 -7.02,8.07609 l -9.1259,1.39197 c -3.2821,1.63205 -8.0821,8.0881 -14.3881,19.32022 -0.714,-3.51004 -1.758,-8.41208 -3.168,-14.74813 -2.106,0.23417 -5.61,2.10602 -10.53,5.62804 -2.1059,1.62604 -5.502,4.10401 -10.194,7.37408 1.41,-8.42409 6.102,-16.95617 14.052,-25.62627 8.424,-9.60608 16.62,-14.38815 24.576,-14.38815 10.53,-0.0235 15.798,4.31406 15.798,12.97215 z m 61.092,32.30432 c 0,3.97804 -2.166,7.31406 -6.498,10.00212 -4.332,2.69403 -8.604,4.04403 -12.81,4.04403 -5.628,0 -10.662,-3.16204 -15.102,-9.4801 -5.388,-7.72208 -10.884,-12.75013 -16.5,-15.10814 1.164,-1.15803 2.574,-1.75802 4.224,-1.75802 2.094,0 5.664,1.63802 10.698,4.90801 5.022,3.29405 8.25,4.91405 9.66,4.91405 1.1701,0 3.096,-1.62597 5.784,-4.91405 2.688,-3.26999 5.676,-4.90801 8.958,-4.90801 7.728,0 11.586,4.11603 11.586,12.30011 z"
       inkscape:connector-curvature="0"
       id="path303"
       style="fill:#200000" />
  </g>
</svg>
