<?xml version="1.0" encoding="UTF-8" standalone="no"?>
<!-- Created with Inkscape (http://www.inkscape.org/) -->

<svg
   xmlns:dc="http://purl.org/dc/elements/1.1/"
   xmlns:cc="http://creativecommons.org/ns#"
   xmlns:rdf="http://www.w3.org/1999/02/22-rdf-syntax-ns#"
   xmlns:svg="http://www.w3.org/2000/svg"
   xmlns="http://www.w3.org/2000/svg"
   xmlns:sodipodi="http://sodipodi.sourceforge.net/DTD/sodipodi-0.dtd"
   xmlns:inkscape="http://www.inkscape.org/namespaces/inkscape"
   version="1.1"
   width="600"
   height="600"
   id="svg4903"
   inkscape:version="0.91 r13725"
   sodipodi:docname="2w.svg">
  <sodipodi:namedview
     pagecolor="#ffffff"
     bordercolor="#666666"
     borderopacity="1"
     objecttolerance="10"
     gridtolerance="10"
     guidetolerance="10"
     inkscape:pageopacity="0"
     inkscape:pageshadow="2"
     inkscape:window-width="732"
     inkscape:window-height="480"
     id="namedview11"
     showgrid="false"
     inkscape:zoom="0.5"
     inkscape:cx="275.50176"
     inkscape:cy="263.45254"
     inkscape:window-x="600"
     inkscape:window-y="318"
     inkscape:window-maximized="0"
     inkscape:current-layer="svg4903" />
  <defs
     id="defs4905" />
  <metadata
     id="metadata4908">
    <rdf:RDF>
      <cc:Work
         rdf:about="">
        <dc:format>image/svg+xml</dc:format>
        <dc:type
           rdf:resource="http://purl.org/dc/dcmitype/StillImage" />
        <dc:title />
      </cc:Work>
    </rdf:RDF>
  </metadata>
  <circle
     cx="300"
     cy="300"
     r="300"
     style="fill:#cbc2bf"
     id="circle5" />
  <path
     inkscape:connector-curvature="0"
     style="fill:#130c0e"
     d="m 147.42231,272.89956 60.21849,0 c 23.98534,0 31.1299,-1.53097 39.29512,-28.06794 l 20.41306,-0.51033 -18.37175,63.28046 -145.443,0 -0.51033,-17.35109 c 109.20983,-106.6582 111.25113,-122.47831 112.27179,-138.29842 2.55164,-34.7022 -22.45436,-45.92935 -35.72283,-45.92935 -13.2685,0 -35.21253,8.67553 -56.64622,52.56359 l -18.88208,-8.16522 c 28.57827,-80.121224 76.54896,-76.548941 91.85873,-76.038614 37.76415,1.020653 62.25981,36.743494 61.23916,66.852744 -1.02065,40.82611 -18.88207,46.95001 -109.72014,131.66417 z"
     id="path6" />
  <g
     transform="translate(-687.71982,323.92996)"
     id="layer1">
    <path
       d="m 1199.8138,-236.11309 c 54.312,54.30654 87.906,129.3073 87.906,212.162108 0,165.697682 -134.316,300.021022 -300.00595,300.021022 -82.836,0 -157.83003,-33.57635 -212.12402,-87.87689"
       inkscape:connector-curvature="0"
       id="path269"
       style="fill:#f8f6d8" />
    <path
       d="m 1215.72,114.73436 c -14.616,-13.58411 -24.3242,-20.946149 -29.0821,-22.092208 -3.4618,-0.828016 -6.8096,1.188028 -10.0323,6.036089 -3.222,4.848029 -7.7517,6.552069 -13.6139,5.148049 -2.3756,-0.57002 -7.0496,-2.61005 -13.9978,-6.102074 -5.6281,5.310064 -8.6457,8.826104 -9.0601,10.548094 -0.5699,2.38803 0.5281,5.62807 3.3002,9.73212 2.76,4.10401 5.3637,6.42602 7.8,7.02007 1.5479,0.37202 3.7319,0.54601 6.546,0.53396 2.8019,-0.007 4.6619,0.096 5.5559,0.30563 2.6638,0.62397 2.8141,5.82607 0.468,15.58819 -2.2202,9.31205 -7.8121,23.11223 -16.7577,41.35241 -0.3486,-23.45423 -3.6545,-35.93436 -9.9364,-37.43439 -0.8703,-0.21002 -2.8137,0.0235 -5.8321,0.66598 -3.0237,0.64202 -5.1839,0.82201 -6.4798,0.51007 -6.282,-1.50607 -10.548,-8.5981 -12.7796,-21.27624 -10.3386,-0.87005 -16.5424,3.03599 -18.6184,11.69412 -1.0376,4.35603 0.1443,8.29808 3.534,11.85609 3.384,3.55207 4.944,5.87408 4.6981,6.96005 -1.3979,5.86811 -12.126,12.79817 -32.1303,20.83826 -10.6617,4.33205 -18.0356,7.36804 -22.1278,9.1321 3.9479,-3.16807 8.214,-7.53612 12.7561,-13.09216 5.1775,-6.34208 8.2321,-11.43609 9.1738,-15.35415 0.516,-2.15403 -1.2541,-5.80205 -5.298,-10.88415 -4.0557,-5.09404 -5.5559,-9.80408 -4.5179,-14.13009 0.8759,-3.68405 3.2582,-7.91411 7.1582,-12.72013 -2.0401,-3.91806 -5.0041,-6.36011 -8.9158,-7.29008 -8.6643,-2.08207 -13.6687,-0.29992 -15.0187,5.34599 0.9303,-3.90601 0.2349,-0.97798 -2.0934,8.77213 -1.5006,7.20009 -7.7762,9.4801 -18.8284,6.84609 -8.4541,-2.02799 -22.17611,-7.37408 -41.18397,-16.04415 23.89187,-0.23417 36.70837,-4.04403 38.46627,-11.40614 -0.1912,0.876 0,-1.84803 0.5757,-8.118119 0.7384,-6.924023 6.9603,-11.862095 18.6542,-14.790128 0.4318,-10.428122 -3.5578,-16.662148 -12.0183,-18.678193 -1.2957,-0.318042 -4.2359,1.386033 -8.778,5.118061 -4.5659,3.714047 -8.3639,5.22005 -11.3877,4.48805 -5.2023,-1.229997 -10.57206,-8.478068 -16.10419,-21.720224 -2.55572,-6.576022 -6.52181,-16.338168 -11.89794,-29.31029 4.36196,3.792047 8.71789,7.596071 13.08622,11.376074 5.77738,4.596077 10.62011,7.350126 14.51371,8.298113 3.0358,0.714018 6.648,-1.229998 10.8482,-5.844056 4.1879,-4.614025 8.6699,-6.348059 13.4402,-5.196028 0.6656,0.156001 4.68,2.484049 12.0717,7.008029 5.622,-5.298017 8.7957,-9.456081 9.522,-12.492107 0.6123,-2.610025 -0.2382,-5.96406 -2.5802,-10.074082 -2.3336,-4.122066 -4.8118,-6.4740677 -7.4158,-7.1100847 -1.08,-0.2579898 -2.8319,-0.3418952 -5.2621,-0.2338347 -2.4299,0.119769 -4.1882,0.035226 -5.2738,-0.2220926 -3.8943,-0.929971 -4.6861,-6.2700577 -2.3518,-16.0321699 0.6116,-2.6040191 6.6658,-16.8541471 18.138,-42.7324021 -0.9964,3.180051 -1.0383,9.600106 -0.1241,19.212188 1.0795,11.718137 4.122,18.162179 9.1077,19.368189 0.8642,0.198273 2.7479,-0.03019 5.6703,-0.708013 2.904,-0.677986 5.1178,-0.839959 6.6238,-0.468005 4.9799,1.182057 8.424,4.9920861 10.3319,11.4001297 l 2.7782,9.9240855 c 4.5421,1.1040218 8.7236,0.3842001 12.5343,-2.1360146 3.8158,-2.5260186 6.2756,-6.06604776 7.3619,-10.6141159 1.1339,-4.7700265 0,-8.8740767 -3.4082,-12.3301007 -3.4203,-3.456023 -4.9742,-5.832045 -4.6498,-7.1281 1.086,-4.554006 10.0739,-10.530076 26.9699,-17.940153 13.5535,-5.910046 22.254,-9.216107 26.0939,-9.90607 -12.324,10.350054 -19.194,18.420135 -20.5859,24.282207 -0.7317,3.042032 0.3321,6.726052 3.1861,11.088092 3.5702,5.202067 5.4657,8.7541406 5.6995,10.6261601 0.9662,5.52000859 -0.876,12.282092 -5.5496,20.3401969 4.8659,5.520042 8.8142,8.628064 11.8617,9.372074 6.2642,1.499998 10.1883,-1.008005 11.7483,-7.500088 0.1577,-0.654033 0.3758,-2.778003 0.672,-6.378051 0.2751,-3.6000146 0.5938,-5.5920379 0.9058,-5.9700651 1.6023,-2.8320166 7.9198,-2.9220279 18.9723,-0.2697318 6.9358,1.6559992 20.8742,7.0500989 41.8318,16.1881719 -5.0822,0.16204 -12.6963,0.390071 -22.8538,0.725994 -9.2942,0.51598 -14.3282,2.406015 -15.1203,5.652057 -0.3519,1.518013 -0.4438,4.248041 -0.2382,8.18408 0.2047,3.936038 0.1074,6.792076 -0.3153,8.526076 -0.7196,3.03606 -3.3481,5.376084 -7.8658,7.050066 l -12.9362,5.154059 c 1.4761,5.388027 2.5201,8.628097 3.1861,9.690083 1.5539,3.126037 4.1522,5.124066 7.8419,6.012101 2.604,0.623973 5.5321,-1.080034 8.7897,-5.124066 3.2522,-4.032055 7.2726,-5.478073 12.0361,-4.332048 5.8562,1.392038 11.1663,8.388056 15.9422,20.988224 2.6702,7.062043 6.858,17.808172 12.5763,32.226282 z m -67.65,-36.114339 c 3.3119,-13.878106 1.1037,-27.120262 -6.6479,-39.738412 -7.7521,-12.618082 -18.5644,-20.598186 -32.4242,-23.916257 -14.088,-3.366012 -27.444,-1.229997 -40.0323,6.420088 -12.5877,7.626064 -20.6816,18.462205 -24.2696,32.496346 -3.5401,13.818121 -1.2601,27.02428 6.8459,39.62438 8.0938,12.588154 19.0799,20.550174 32.9519,23.868254 14.7304,3.52204 28.1883,1.64402 40.35,-5.64005 12.168,-7.29007 19.9083,-18.336197 23.2262,-33.114349 z m -4.8783,-1.176017 c -3.1616,13.218135 -10.2178,23.106256 -21.1858,29.634306 -10.9559,6.54006 -23.0521,8.23809 -36.2638,5.07602 -12.786,-3.05998 -22.668,-10.12209 -29.6464,-21.186193 -6.978,-11.064105 -8.9279,-22.980214 -5.874,-35.766342 3.018,-12.576147 10.1944,-22.254219 21.5582,-29.0523 11.376,-6.780066 23.334,-8.670101 35.8918,-5.658062 12.5642,3.000029 22.3744,10.158088 29.3941,21.456229 7.0381,11.322128 9.0779,23.148226 6.1259,35.496342 z"
       inkscape:connector-curvature="0"
       id="path275"
       style="fill:#211d15" />
  </g>
</svg>
