<?xml version="1.0" encoding="UTF-8" standalone="no"?>
<!-- Created with Inkscape (http://www.inkscape.org/) -->

<svg
   xmlns:dc="http://purl.org/dc/elements/1.1/"
   xmlns:cc="http://creativecommons.org/ns#"
   xmlns:rdf="http://www.w3.org/1999/02/22-rdf-syntax-ns#"
   xmlns:svg="http://www.w3.org/2000/svg"
   xmlns="http://www.w3.org/2000/svg"
   xmlns:inkscape="http://www.inkscape.org/namespaces/inkscape"
   version="1.1"
   width="600"
   height="600"
   id="svg5348">
  <defs
     id="defs5350" />
  <metadata
     id="metadata5353">
    <rdf:RDF>
      <cc:Work
         rdf:about="">
        <dc:format>image/svg+xml</dc:format>
        <dc:type
           rdf:resource="http://purl.org/dc/dcmitype/StillImage" />
        <dc:title />
      </cc:Work>
    </rdf:RDF>
  </metadata>
  <g
     transform="translate(-639.1484,323.92908)"
     id="layer1">
    <g
       transform="matrix(6,0,0,6,4419.1484,-2213.917)"
       id="g357">
      <circle
         cx="-580"
         cy="364.99799"
         r="50"
         id="circle359"
         style="fill:#cac5c0" />
    </g>
    <path
       d="m 952.99055,-286.41698 v 163.47595 c 0,19.56003 8.22603,29.334055 24.70202,29.334055 h 4.28997 v 11.190002 h -86.97598 v -11.190002 h 5.46001 c 15.93599,0 23.88002,-9.774025 23.88002,-29.334055 v -107.23796 c 0,-19.78202 -6.87001,-29.68198 -20.60402,-29.68198 h -8.74201 V -270.691 h 3.13805 c 16.99196,0 32.36998,-5.24999 46.12794,-15.72598 h 8.724 l 0,0 z"
       inkscape:connector-curvature="0"
       id="path361"
       style="fill:#0d0f0f" />
    <path
       d="M 1008.4666,159.10699 993.44254,209.837 H 868.52258 v -10.85398 c 6.072,-6.76201 19.36199,-20.40004 39.88801,-40.932 12.37799,-12.37802 24.61202,-25.42804 36.72601,-39.18604 6.07196,-6.77399 10.73401,-12.61199 13.99196,-17.50797 7.24203,-10.475994 10.85402,-21.210006 10.85402,-32.178018 0,-10.734012 -3.33002,-20.178021 -9.95999,-28.338032 -6.63,-8.17796 -15.18602,-12.269959 -25.71001,-12.269959 -22.63803,0 -40.36202,15.305988 -53.17804,45.85798 L 869.93256,70.223018 C 885.09459,27.323 908.98058,5.8490045 941.65058,5.8490045 c 16.10397,0 29.79001,5.4719795 41.12997,16.4280145 11.32202,10.967979 16.96801,24.491977 16.96801,40.607991 0,20.53199 -11.79001,40.59598 -35.34599,60.17402 L 939.91056,143.333 c -15.63,13.10397 -28.59598,25.34998 -38.83798,36.77398 -0.702,0.67805 -2.112,2.34601 -4.19402,4.88401 h 65.088 c 10.00802,0 17.60402,-1.97999 22.73397,-5.95199 4.404,-3.49198 8.74201,-10.134 12.93599,-19.92 h 10.83008 v -0.0101 z"
       inkscape:connector-curvature="0"
       id="path363"
       style="fill:#0d0f0f" />
    <g
       transform="matrix(6,0,0,6,4419.1484,-2213.917)"
       id="g365">
      <path
         d="m -609.268,364.455 v -2.91 h 58.328 v 2.91 h -58.328 z"
         inkscape:connector-curvature="0"
         id="path367"
         style="fill:#0d0f0f" />
    </g>
  </g>
</svg>
