<?xml version="1.0" encoding="UTF-8" standalone="no"?>
<!-- Created with Inkscape (http://www.inkscape.org/) -->

<svg
   xmlns:dc="http://purl.org/dc/elements/1.1/"
   xmlns:cc="http://creativecommons.org/ns#"
   xmlns:rdf="http://www.w3.org/1999/02/22-rdf-syntax-ns#"
   xmlns:svg="http://www.w3.org/2000/svg"
   xmlns="http://www.w3.org/2000/svg"
   xmlns:inkscape="http://www.inkscape.org/namespaces/inkscape"
   version="1.1"
   width="600"
   height="600"
   id="svg5311">
  <defs
     id="defs5313" />
  <metadata
     id="metadata5316">
    <rdf:RDF>
      <cc:Work
         rdf:about="">
        <dc:format>image/svg+xml</dc:format>
        <dc:type
           rdf:resource="http://purl.org/dc/dcmitype/StillImage" />
        <dc:title />
      </cc:Work>
    </rdf:RDF>
  </metadata>
  <g
     transform="translate(-676.2912,132.50048)"
     id="layer1">
    <g
       transform="matrix(6,0,0,6,5086.2912,-2022.4884)"
       id="g349">
      <circle
         cx="-685"
         cy="364.99799"
         r="50"
         id="circle351"
         style="fill:#cac5c0" />
    </g>
    <g
       transform="matrix(6,0,0,6,5086.2912,-2022.4884)"
       id="g353">
      <path
         d="m -685.064,360.258 c 7.189,-10.043 15.201,-15.068 24.029,-15.068 5.887,0 10.594,1.803 14.092,5.393 3.508,3.594 5.264,8.334 5.264,14.225 0,5.895 -1.756,10.697 -5.264,14.42 -3.498,3.725 -8.164,5.586 -13.965,5.586 -8.658,0 -16.715,-5.021 -24.156,-15.068 -7.621,10.047 -15.592,15.068 -23.902,15.068 -5.889,0 -10.592,-1.838 -14.092,-5.518 -3.51,-3.686 -5.264,-8.471 -5.264,-14.355 0,-5.891 1.754,-10.652 5.264,-14.289 3.5,-3.635 8.203,-5.459 14.092,-5.459 8.489,-0.004 16.45,5.022 23.902,15.065 z m -3.764,4.812 c -6.756,-9.266 -13.563,-13.902 -20.402,-13.902 -4.07,0 -7.316,1.279 -9.738,3.832 -2.43,2.553 -3.635,5.867 -3.635,9.938 0,4.068 1.205,7.426 3.635,10.068 2.422,2.643 5.668,3.959 9.738,3.959 6.501,0 13.298,-4.631 20.402,-13.895 z m 7.4,0 c 7.021,9.264 13.9,13.895 20.658,13.895 3.973,0 7.164,-1.273 9.543,-3.832 2.379,-2.553 3.574,-5.867 3.574,-9.938 0,-4.238 -1.195,-7.643 -3.574,-10.195 -2.379,-2.552 -5.654,-3.832 -9.809,-3.832 -4.156,0 -8.057,1.475 -11.691,4.418 -2.252,1.818 -5.148,4.98 -8.701,9.484 z"
         inkscape:connector-curvature="0"
         id="path355"
         style="fill:#0d0f0f" />
    </g>
  </g>
</svg>
