<?xml version="1.0" encoding="UTF-8" standalone="no"?>
<!-- Created with Inkscape (http://www.inkscape.org/) -->

<svg
   xmlns:dc="http://purl.org/dc/elements/1.1/"
   xmlns:cc="http://creativecommons.org/ns#"
   xmlns:rdf="http://www.w3.org/1999/02/22-rdf-syntax-ns#"
   xmlns:svg="http://www.w3.org/2000/svg"
   xmlns="http://www.w3.org/2000/svg"
   xmlns:inkscape="http://www.inkscape.org/namespaces/inkscape"
   version="1.1"
   width="600"
   height="600"
   id="svg5426">
  <defs
     id="defs5428" />
  <metadata
     id="metadata5431">
    <rdf:RDF>
      <cc:Work
         rdf:about="">
        <dc:format>image/svg+xml</dc:format>
        <dc:type
           rdf:resource="http://purl.org/dc/dcmitype/StillImage" />
        <dc:title />
      </cc:Work>
    </rdf:RDF>
  </metadata>
  <g
     transform="translate(-664.86264,143.92905)"
     id="layer1">
    <circle
       cx="-369.99899"
       cy="365.13901"
       r="50"
       transform="matrix(6,0,0,6,3184.8566,-2034.7631)"
       id="circle457"
       style="fill:#c9c4be" />
    <path
       d="m 961.19678,422.43491 c -19.45197,19.43999 -50.98797,19.43999 -70.44597,0 L 698.49281,230.1769 c -19.43399,-19.452 -19.43399,-51.00004 0,-70.45204 l 270.04198,-270.03601 c 19.458,-19.43999 51.00001,-19.43999 70.44601,0 l 192.258,192.258001 c 19.446,19.451999 19.446,50.987999 0,70.439999 L 961.19678,422.43491 z"
       inkscape:connector-curvature="0"
       id="path459"
       style="fill:#0d0f0f" />
    <path
       d="M 1170.4528,203.3089 H 954.42279 l 79.09801,-56.31002 c -29.376,-23.32201 -63.38401,-34.968 -101.90398,-34.968 -19.25403,0 -32.472,3.666 -39.528,11.01598 -7.11602,7.362 -10.65601,20.658 -10.65601,39.92401 0,53.23802 27.372,110.04003 82.12799,170.37602 l -62.334,63.13799 C 828.6868,308.2549 792.45282,229.3969 792.45282,159.91686 c 0,-41.556 12.50399,-74.669987 37.614,-99.269989 25.08598,-24.587992 58.48197,-36.876 100.00198,-36.876 50.718,0 105.99,19.277985 165.858,57.797991 l 46.356,-79.0799892 28.17,200.8200272 z"
       inkscape:connector-curvature="0"
       id="path461"
       style="fill:#ffffff" />
  </g>
</svg>
