<?xml version="1.0" encoding="UTF-8" standalone="no"?>
<!-- Created with Inkscape (http://www.inkscape.org/) -->

<svg
   xmlns:dc="http://purl.org/dc/elements/1.1/"
   xmlns:cc="http://creativecommons.org/ns#"
   xmlns:rdf="http://www.w3.org/1999/02/22-rdf-syntax-ns#"
   xmlns:svg="http://www.w3.org/2000/svg"
   xmlns="http://www.w3.org/2000/svg"
   xmlns:inkscape="http://www.inkscape.org/namespaces/inkscape"
   version="1.1"
   width="600"
   height="600"
   id="svg5391">
  <defs
     id="defs5393" />
  <metadata
     id="metadata5396">
    <rdf:RDF>
      <cc:Work
         rdf:about="">
        <dc:format>image/svg+xml</dc:format>
        <dc:type
           rdf:resource="http://purl.org/dc/dcmitype/StillImage" />
        <dc:title />
      </cc:Work>
    </rdf:RDF>
  </metadata>
  <g
     transform="translate(-284.8627,49.643341)"
     id="layer1">
    <circle
       cx="-475.125"
       cy="365.06799"
       r="50"
       transform="matrix(6,0,0,6,3435.6127,-1940.0513)"
       id="circle447"
       style="fill:#c9c4be" />
    <path
       d="m 853.51868,285.44471 -63.42,76.37397 -15.53999,-15.52797 c 6.042,-15.24601 9.86998,-29.274 11.44199,-42.08402 1.57201,-12.79798 0.92399,-24.65399 -1.944,-35.60398 -0.28784,-1.42802 -0.63601,-2.802 -1.07999,-4.092 -0.426,-1.31403 -0.92999,-2.532 -1.51203,-3.67801 -2.29799,-6.88799 -5.75398,-13.37401 -10.36199,-19.404 -4.602,-6.06001 -11.20798,-13.38 -19.836,-22.00802 L 705.95469,173.2507 495.39067,383.8267 c -18.41398,18.396 -28.34397,34.374 -29.77799,47.87401 -1.44601,13.53597 5.17802,27.62999 19.85401,42.30597 l 6.042,5.16602 -16.39799,16.39199 -138.072,-138.07201 16.39198,-16.39198 6.9,6.88799 c 14.382,14.964 28.33199,21.73799 41.85599,20.28601 13.51803,-1.42802 29.34603,-11.22599 47.46602,-29.34599 L 660.64268,127.93269 613.6147,80.904705 c -13.23001,-12.654021 -24.522,-21.504022 -33.87003,-26.532022 -9.354,-5.039976 -20.21999,-7.127995 -32.57399,-6.257984 -1.73398,0 -3.53999,0.07213 -5.39998,0.210013 -1.872,0.149961 -3.816,0.365979 -5.82602,0.641982 -3.744,0.293884 -7.04999,0.714011 -9.91798,1.302014 -2.88003,0.575992 -5.616,0.995985 -8.20201,1.290003 -0.87001,0.293884 -1.65602,0.503997 -2.36999,0.641982 -0.72002,0.137884 -1.65602,0.22209 -2.80801,0.210013 -3.168,0.869977 -6.76802,1.878006 -10.78799,3.023986 -4.03802,1.134003 -9.06602,2.447993 -15.10802,3.876014 l -14.238,-15.108019 74.64002,-65.142004 306.36598,306.384027 z"
       inkscape:connector-curvature="0"
       id="path451"
       style="fill:#0d0f0f" />
  </g>
</svg>
