<?xml version="1.0" encoding="UTF-8" standalone="no"?>
<!DOCTYPE svg PUBLIC "-//W3C//DTD SVG 1.1//EN" "http://www.w3.org/Graphics/SVG/1.1/DTD/svg11.dtd">
<svg width="600" height="1200" viewBox="0 0 600 1200" version="1.1" xmlns="http://www.w3.org/2000/svg" xmlns:xlink="http://www.w3.org/1999/xlink" xml:space="preserve" xmlns:serif="http://www.serif.com/" style="fill-rule:evenodd;clip-rule:evenodd;stroke-linejoin:round;stroke-miterlimit:2;">
    <g id="path3789" transform="matrix(4.08163,0,0,-4.06752,593.706,460.647)">
        <path d="M0,0C-1.245,32.734 -4.061,45.164 -5.927,45.164C-7.821,45.164 -8.417,27.033 -10.906,11.011C-13.396,-4.974 -17.78,-23.102 -17.78,-23.102L-28.984,-18.834C-28.984,-18.834 -32.125,4.297 -33.369,32.017C-34.585,59.738 -35.533,83.948 -38.999,83.948C-42.381,83.977 -43.03,61.186 -44.275,31.652C-45.521,2.135 -49.876,-14.213 -49.876,-14.213L-60.159,-12.78C-60.159,-12.78 -65.139,12.822 -67.007,91.027C-67.44,109.536 -71.958,113.25 -71.958,113.25C-71.958,113.25 -76.478,109.536 -76.911,91.027C-78.777,12.822 -83.785,-12.78 -83.785,-12.78L-94.042,-14.213C-94.042,-14.213 -98.424,2.135 -99.669,31.652C-100.914,61.186 -101.538,83.977 -104.945,83.948C-108.383,83.948 -109.331,59.738 -110.604,32.017C-111.82,4.297 -114.934,-18.834 -114.934,-18.834L-126.138,-23.102C-126.138,-23.102 -130.52,-4.974 -133.01,11.011C-135.499,27.033 -136.123,45.164 -137.989,45.164C-139.857,45.164 -142.67,32.734 -143.916,0C-145.161,-32.693 -145.458,-39.084 -145.458,-39.084C-145.458,-39.084 -108.681,-54.754 -94.365,-95.307C-80.022,-135.836 -76.396,-171.027 -76.288,-174.934C-76.1,-180.998 -71.958,-181.77 -71.958,-181.77C-71.958,-181.77 -68.358,-180.998 -67.628,-174.934C-67.169,-171.055 -63.894,-135.836 -49.553,-95.307C-35.235,-54.754 1.542,-39.084 1.542,-39.084C1.542,-39.084 1.243,-32.693 0,0" style="fill-rule:nonzero;"/>
    </g>
</svg>
