<?xml version="1.0" encoding="UTF-8" standalone="no"?>
<!DOCTYPE svg PUBLIC "-//W3C//DTD SVG 1.1//EN" "http://www.w3.org/Graphics/SVG/1.1/DTD/svg11.dtd">
<svg width="600" height="600" viewBox="0 0 600 600" version="1.1" xmlns="http://www.w3.org/2000/svg" xmlns:xlink="http://www.w3.org/1999/xlink" xml:space="preserve" xmlns:serif="http://www.serif.com/" style="fill-rule:evenodd;clip-rule:evenodd;stroke-linejoin:round;stroke-miterlimit:2;">
    <circle cx="300" cy="300" r="300" style="fill:rgb(171,139,215);"/>
    <path d="M465.4,299.6C465.7,267.5 455.6,235.2 435.6,210C426,199.4 418,187.3 407.8,177.2C385.3,154.8 351.6,153.4 324.4,139.3C322.8,125.2 317.7,111 320.8,96.7C321.8,92 323.2,87.1 320.6,82.6C313.5,66.2 319.6,48.4 318.3,31.3C317.4,22.4 318,11.4 309.5,5.9C307.5,24.5 300.7,41.8 295.1,59.4C292.5,73.1 292.5,87.5 286.6,100.4C290.4,113.5 282.9,124.6 274.9,134.3C257.1,143.4 235.9,145.6 220.4,159C209.4,168.4 197.4,176.6 185.1,184.2C175.8,195.8 165.6,207 161.4,221.6C144.8,241.6 142.9,268.5 133.5,291.9C133.3,326.7 140.4,364.2 162.6,392.1C178.5,405.2 189.6,422.9 205.5,436C220.7,445.1 237,452.6 252.7,460.8C263,463.2 273.6,464.4 283.8,467.2C292.1,509.9 297.7,553.6 314.4,594C319.9,577.4 319.2,559.6 324,542.8C330.7,518 316.9,492.2 324.7,467.8C336.3,457.4 355.7,464.2 368.6,455.2C393.2,440.1 419.1,425.3 436.9,402.2C443.5,388.9 457.5,378.9 457.5,363C457.6,341.5 470.2,321.3 465.4,299.6M283.2,431.2C265.4,426.9 248.8,418.4 233.9,408C217.8,397.3 211.9,377.3 196,366.4C181.2,348.7 184.4,324.5 178.3,303.5C180.7,288.9 183.6,274.4 185.1,259.6C192.3,247.9 203.5,238.5 206.6,224.4C217.2,209.2 233.3,198.7 246.3,185.5C255.7,174.6 270.7,179.2 283.1,178.8C281.9,190.8 280.9,203.2 283.9,215.1C285.4,222.4 288.6,229.5 287.5,237.2C285,253.4 291.1,269.6 286.8,285.6C278.1,319.1 287.6,352.9 288.4,386.6C287.2,401.5 286.5,416.6 283.1,431.3M418,367.9C406.2,376.3 396.2,386.6 385.9,396.6C368,409 350.4,422 329.1,428.2C331,413 332.9,397.4 328.1,382.6C316.2,349 330.8,313.9 333.2,280C331,259.8 333.1,238.3 323.9,219.7C322.7,205.7 328.7,192.3 332.8,179.1C346.9,184.7 360.1,192.3 371.8,202C385.9,212.6 407.6,219.4 410.7,239.2C412.3,252.2 426.5,260 426.1,273.3C425.2,304.8 429.6,337.8 418.1,367.9" style="fill:rgb(35,31,32);fill-rule:nonzero;"/>
</svg>
