<?xml version="1.0" encoding="UTF-8" standalone="no"?>
<!DOCTYPE svg PUBLIC "-//W3C//DTD SVG 1.1//EN" "http://www.w3.org/Graphics/SVG/1.1/DTD/svg11.dtd">
<svg width="600" height="600" viewBox="0 0 600 600" version="1.1" xmlns="http://www.w3.org/2000/svg" xmlns:xlink="http://www.w3.org/1999/xlink" xml:space="preserve" xmlns:serif="http://www.serif.com/" style="fill-rule:evenodd;clip-rule:evenodd;stroke-linejoin:round;stroke-miterlimit:2;">
    <circle cx="300" cy="300" r="300" style="fill:rgb(171,139,215);"/>
    <g transform="matrix(1,0,0,1,-156.29,92.5)">
        <path d="M668.4,-4.7C722.7,49.6 756.3,124.6 756.3,207.5C756.3,373.2 622,507.5 456.3,507.5C373.5,507.5 298.5,473.9 244.2,419.6" style="fill:rgb(170,224,250);fill-rule:nonzero;"/>
        <path d="M616.6,409.6C600.4,426 580.6,434.3 556.9,434.3C530.4,434.3 509.3,425.2 493.8,407.1C479.1,389.8 471.7,367.8 471.7,340.9C471.7,312.1 484.2,279.2 509.3,242.3C529.8,212 553.8,185.5 581.5,162.7C577.5,181.2 575.5,194.3 575.5,202.1C575.5,220 581.1,237.4 592.4,254.4C606.2,274.6 616.8,289.6 624,299.4C635.2,316.4 640.9,333 640.9,349.1C640.9,373 632.8,393.2 616.7,409.7M616.3,317.4C612,307.7 606.9,301.3 601.2,298.2C602.1,299.9 602.5,302.4 602.5,305.6C602.5,311.7 600.8,320.3 597.3,331.5L591.7,348.8C591.7,358.9 596.7,363.9 606.8,363.9C617.5,363.9 622.8,356.8 622.8,342.7C622.8,335.5 620.6,327.1 616.3,317.4" style="fill:rgb(6,25,34);fill-rule:nonzero;"/>
        <g transform="matrix(1.63436,0,0,1.67005,444.927,-87.0378)">
            <path d="M-52.703,176.592C-53.189,176.508 -55.001,176.263 -56.731,176.047C-63.748,175.171 -72.537,172.279 -79.854,168.438C-86.041,165.191 -87.146,163.987 -82.846,165.179C-69.12,168.985 -50.854,163.541 -36.265,151.296C-28.313,144.622 -23.87,138.227 -21.868,130.576C-18.979,119.534 -20.082,112.041 -25.696,104.572C-27.854,101.701 -30.232,99.846 -34.514,97.694C-37.458,96.214 -37.918,95.873 -37.383,95.574C-37.007,95.363 -35.858,95.315 -34.582,95.455C-27.641,96.218 -21.881,99.278 -16.158,105.244C-9.889,111.778 -5.413,120.693 -3.996,129.466C-3.457,132.806 -3.539,139.497 -4.156,142.395C-6.92,155.387 -15.167,166.332 -26.422,171.943C-32.62,175.033 -38.645,176.435 -46.53,176.62C-49.44,176.689 -52.218,176.676 -52.703,176.592ZM-81.631,150.64C-85.231,150.368 -86.855,150.004 -91.003,148.541C-105.748,143.34 -115.406,132.257 -118.729,116.724C-119.73,112.041 -119.832,101.891 -118.93,96.71C-117.581,88.959 -115.028,81.45 -111.379,74.498C-108.132,68.311 -106.928,67.206 -108.12,71.507C-111.34,83.117 -108.008,97.974 -99.155,111.486C-92.06,122.313 -83.383,129.665 -74.756,132.156C-63.279,135.47 -55.197,134.432 -47.513,128.656C-44.642,126.498 -42.787,124.12 -40.635,119.838C-39.12,116.826 -38.819,116.425 -38.501,116.994C-37.951,117.977 -38.783,123.524 -39.9,126.321C-41.585,130.54 -43.545,133.41 -47.412,137.316C-51.579,141.526 -55.042,143.997 -60.255,146.48C-67.331,149.85 -74.256,151.198 -81.631,150.64ZM10.536,142.306C10.631,141.773 10.984,140.146 11.32,138.69C12.721,132.636 11.923,123.561 9.321,115.936C4.686,102.358 -6.03,88.478 -16.367,82.666C-21.161,79.971 -29.304,78.179 -35.518,78.451C-42.115,78.74 -47.173,80.987 -52.004,85.774C-54.192,87.941 -55.034,89.122 -56.659,92.3C-58.459,95.822 -58.665,96.092 -58.884,95.22C-59.271,93.679 -58.455,88.851 -57.304,85.866C-53.07,74.887 -40.518,65.268 -26.568,62.311C-18.173,60.532 -9.754,61.76 -1.099,66.027C15.6,74.259 24.302,91.588 22.066,112.158C20.972,122.226 16.846,134.049 11.484,142.483C10.795,143.567 10.327,143.481 10.536,142.306ZM-64.169,115.861C-70.337,115.008 -76.403,111.559 -81.769,105.855C-87.759,99.487 -91.86,91.396 -93.466,82.775C-94.356,77.998 -94.038,70.454 -92.767,66.195C-88.969,53.468 -81.313,44.247 -70.196,39.008C-55.48,32.073 -35.723,33.568 -17.792,42.974C-11.606,46.219 -10.499,47.425 -14.8,46.232C-24.484,43.547 -35.943,45.276 -47.774,51.206C-59.548,57.108 -70.006,66.787 -73.908,75.394C-75.217,78.282 -76.577,83.533 -77.079,87.646C-77.954,94.805 -76.275,101.085 -71.95,106.839C-69.793,109.708 -67.414,111.565 -63.141,113.713C-60.587,114.997 -59.779,115.556 -60.143,115.786C-60.644,116.104 -62.204,116.132 -64.169,115.861Z" style="fill:rgb(33,29,21);fill-rule:nonzero;"/>
        </g>
    </g>
</svg>
