<?xml version="1.0" encoding="UTF-8" standalone="no"?>
<!DOCTYPE svg PUBLIC "-//W3C//DTD SVG 1.1//EN" "http://www.w3.org/Graphics/SVG/1.1/DTD/svg11.dtd">
<svg width="600" height="600" viewBox="0 0 600 600" version="1.1" xmlns="http://www.w3.org/2000/svg" xmlns:xlink="http://www.w3.org/1999/xlink" xml:space="preserve" xmlns:serif="http://www.serif.com/" style="fill-rule:evenodd;clip-rule:evenodd;stroke-linejoin:round;stroke-miterlimit:2;">
    <circle cx="300" cy="300" r="300" style="fill:rgb(171,139,215);"/>
    <g transform="matrix(1,0,0,1,-156.29,92.5)">
        <g transform="matrix(1,0,0,1,-68.57,117.14)">
            <path d="M737,-121.8C791.3,-67.5 824.9,7.5 824.9,90.4C824.9,256.1 690.6,390.4 524.9,390.4C442.1,390.4 367.1,356.8 312.8,302.5" style="fill:rgb(163,192,149);fill-rule:nonzero;"/>
        </g>
        <g transform="matrix(1,0,0,1,-68.57,117.14)">
            <path d="M762,196.1C762,200.6 760.2,204.7 756.7,208.4C753.2,212 749.2,213.8 744.6,213.8C737.4,213.8 732,210.4 728.6,203.6L712.6,202.9C709.2,202.9 702.5,204.4 692.5,207.3C681.8,210.2 675.7,212.6 674.1,214.4C671.6,217.1 669.6,223.5 668,233.5C666.6,241.7 666,247.7 666,251.5C666,257.6 667,262.1 668.9,264.9C670.8,267.7 674.8,270.1 680.8,272C686.8,273.9 690.5,275 691.9,275.2C692.8,275.2 694.3,275.1 696.3,274.9L700.4,274.9C703.3,274.9 706.4,275.4 709.6,276.3C714.1,277.7 716.1,279.5 715.4,281.7C712.2,281.3 706.7,281.9 698.7,283.7L708.2,288.5C708.2,291.2 704.3,292.6 696.6,292.6C694.5,292.6 691.8,292.2 688.3,291.3C684.8,290.4 682.4,289.9 681.3,289.9L676.9,289.9C676.7,292.2 676,295.6 674.9,300.1C671,299.9 666.5,297.6 661.3,293.3C656.1,289 652.8,286.8 651.4,286.8C650,286.8 648.1,289 645.6,293.3C643.1,297.6 641.9,300.5 641.9,302.2C639,300.6 636.5,297.7 634.4,293.4C633.5,290.4 632.5,287.5 631.3,284.5C629,284.7 624.8,289.5 618.7,298.8L617,298.8C616.5,298.1 614.8,293.4 611.9,284.5C604.9,282.3 598.3,281.1 592.2,281.1C589.3,281.1 584.7,281.8 578.6,283.1L569.1,282.4C570.5,281 574.4,278.4 581,274.6C588.7,270.1 594.6,267.8 598.7,267.8C599.4,267.8 600.3,267.9 601.4,268.2C602.5,268.4 603.4,268.5 604.1,268.5C605.7,268.5 608.2,267.6 611.8,265.9C615.3,264.2 617.4,262.7 617.9,261.3C618.5,259.9 618.8,256.4 618.8,250.7C618.8,237.8 615.4,228.1 608.6,221.8C602.7,216.1 593,212.1 579.3,209.5C575.7,222.4 565.5,228.9 548.7,228.9C543.2,228.9 537.8,225.6 532.4,219C527,212.4 524.2,206.4 524.2,201C524.2,192.6 527.7,185.7 534.7,180.2C529,174.3 526.2,168.3 526.2,162.2C526.2,156.5 528,151.5 531.5,147.2C535,142.9 539.6,140.4 545.3,139.7C544.9,132.5 547.2,127.4 552.4,124.7C549.9,122.2 548.7,117.8 548.7,111.4C548.7,103.9 551.2,97.7 556.2,92.7C561.2,87.7 567.4,85.2 574.9,85.2C583.1,85.2 589.8,88.1 595,93.7C601.6,71.2 615.8,60 637.5,60C648.8,60 658.8,64.5 667.4,73.6C670.6,77 672.2,78.8 672.2,79C669.5,79 670.9,78.5 676.3,77.5C681.8,76.5 685.7,76 688.2,76C697,76 704.9,79.3 711.7,85.9C717.6,91.8 721.7,99.3 724,108.4C725.6,108.6 728.1,109.3 731.5,110.4C736.5,112.9 739,117.2 739,123.3C739,124.4 738.1,126.6 736.3,129.8C750.8,138 758.1,149.3 758.1,163.8C758.1,167.9 756.5,173.6 753.3,180.8C759.2,184.2 762.2,189.2 762.2,195.8M622,210.8L622,206.4C622,201.2 619.5,196.4 614.4,192.1C609.3,187.8 604.1,185.6 598.9,185.6C592.5,185.6 586.6,187.1 581.2,190C593.2,189.3 606.8,196.2 622,210.8M615.9,168.6C612.5,164.7 609.6,160.8 607.1,156.7C597.6,159.2 592.8,162 592.8,165.2C595.5,165 599.5,165.5 604.7,166.7C609.9,168 613.7,168.6 615.9,168.6M636.7,158L636.7,143C631.2,142.1 627.9,141.6 626.8,141.6L626.8,146.7L636.7,157.9M680.9,148.4C678.2,147.3 673.1,145 665.6,141.6L665.6,170.9C676.3,164.8 681.4,157.3 680.9,148.4M699.6,188.6L692.1,179.4C687.6,182.6 683,185.8 678.3,189.1C673.7,192.4 669.6,196.1 666.2,200.2C676.4,194.7 687.5,190.9 699.5,188.6" style="fill:rgb(0,22,11);fill-rule:nonzero;"/>
        </g>
        <g transform="matrix(1.63436,0,0,1.67005,444.927,-87.0378)">
            <path d="M-52.703,176.592C-53.189,176.508 -55.001,176.263 -56.731,176.047C-63.748,175.171 -72.537,172.279 -79.854,168.438C-86.041,165.191 -87.146,163.987 -82.846,165.179C-69.12,168.985 -50.854,163.541 -36.265,151.296C-28.313,144.622 -23.87,138.227 -21.868,130.576C-18.979,119.534 -20.082,112.041 -25.696,104.572C-27.854,101.701 -30.232,99.846 -34.514,97.694C-37.458,96.214 -37.918,95.873 -37.383,95.574C-37.007,95.363 -35.858,95.315 -34.582,95.455C-27.641,96.218 -21.881,99.278 -16.158,105.244C-9.889,111.778 -5.413,120.693 -3.996,129.466C-3.457,132.806 -3.539,139.497 -4.156,142.395C-6.92,155.387 -15.167,166.332 -26.422,171.943C-32.62,175.033 -38.645,176.435 -46.53,176.62C-49.44,176.689 -52.218,176.676 -52.703,176.592ZM-81.631,150.64C-85.231,150.368 -86.855,150.004 -91.003,148.541C-105.748,143.34 -115.406,132.257 -118.729,116.724C-119.73,112.041 -119.832,101.891 -118.93,96.71C-117.581,88.959 -115.028,81.45 -111.379,74.498C-108.132,68.311 -106.928,67.206 -108.12,71.507C-111.34,83.117 -108.008,97.974 -99.155,111.486C-92.06,122.313 -83.383,129.665 -74.756,132.156C-63.279,135.47 -55.197,134.432 -47.513,128.656C-44.642,126.498 -42.787,124.12 -40.635,119.838C-39.12,116.826 -38.819,116.425 -38.501,116.994C-37.951,117.977 -38.783,123.524 -39.9,126.321C-41.585,130.54 -43.545,133.41 -47.412,137.316C-51.579,141.526 -55.042,143.997 -60.255,146.48C-67.331,149.85 -74.256,151.198 -81.631,150.64ZM10.536,142.306C10.631,141.773 10.984,140.146 11.32,138.69C12.721,132.636 11.923,123.561 9.321,115.936C4.686,102.358 -6.03,88.478 -16.367,82.666C-21.161,79.971 -29.304,78.179 -35.518,78.451C-42.115,78.74 -47.173,80.987 -52.004,85.774C-54.192,87.941 -55.034,89.122 -56.659,92.3C-58.459,95.822 -58.665,96.092 -58.884,95.22C-59.271,93.679 -58.455,88.851 -57.304,85.866C-53.07,74.887 -40.518,65.268 -26.568,62.311C-18.173,60.532 -9.754,61.76 -1.099,66.027C15.6,74.259 24.302,91.588 22.066,112.158C20.972,122.226 16.846,134.049 11.484,142.483C10.795,143.567 10.327,143.481 10.536,142.306ZM-64.169,115.861C-70.337,115.008 -76.403,111.559 -81.769,105.855C-87.759,99.487 -91.86,91.396 -93.466,82.775C-94.356,77.998 -94.038,70.454 -92.767,66.195C-88.969,53.468 -81.313,44.247 -70.196,39.008C-55.48,32.073 -35.723,33.568 -17.792,42.974C-11.606,46.219 -10.499,47.425 -14.8,46.232C-24.484,43.547 -35.943,45.276 -47.774,51.206C-59.548,57.108 -70.006,66.787 -73.908,75.394C-75.217,78.282 -76.577,83.533 -77.079,87.646C-77.954,94.805 -76.275,101.085 -71.95,106.839C-69.793,109.708 -67.414,111.565 -63.141,113.713C-60.587,114.997 -59.779,115.556 -60.143,115.786C-60.644,116.104 -62.204,116.132 -64.169,115.861Z" style="fill:rgb(33,29,21);fill-rule:nonzero;"/>
        </g>
    </g>
</svg>
