<?xml version="1.0" encoding="UTF-8" standalone="no"?>
<!DOCTYPE svg PUBLIC "-//W3C//DTD SVG 1.1//EN" "http://www.w3.org/Graphics/SVG/1.1/DTD/svg11.dtd">
<svg width="600" height="600" viewBox="0 0 600 600" version="1.1" xmlns="http://www.w3.org/2000/svg" xmlns:xlink="http://www.w3.org/1999/xlink" xml:space="preserve" xmlns:serif="http://www.serif.com/" style="fill-rule:evenodd;clip-rule:evenodd;stroke-linejoin:round;stroke-miterlimit:2;">
    <circle cx="300" cy="300" r="300" style="fill:rgb(171,139,215);"/>
    <g transform="matrix(1,0,0,1,-156.29,92.5)">
        <g transform="matrix(1,0,0,1,-71.43,-194.28)">
            <path d="M739.8,189.6C794.1,243.9 827.7,318.9 827.7,401.8C827.7,567.5 693.4,701.8 527.7,701.8C444.9,701.8 369.9,668.2 315.6,613.9" style="fill:rgb(203,194,191);fill-rule:nonzero;"/>
        </g>
        <g transform="matrix(1,0,0,1,-71.43,-194.28)">
            <path d="M765.4,497.7C765.4,513.9 759.5,525 747.7,530.9C744.3,532.6 733.5,535 715.3,537.9C703.5,539.9 697.6,544.4 697.6,551.5L697.6,581.3C697.6,582.6 698,586.4 698.7,592.7L699.8,604.5C699.8,608.2 698.9,614.2 697.2,622.6C692.5,623.6 687.1,624.7 681,625.9C679,618.5 678.1,613.5 678.1,610.8C678.1,609.6 678.4,607.7 679,605.3C679.6,602.9 679.9,601 679.9,599.8C679.9,598.1 678.4,593.3 675.3,585.4L669.6,585.4C668.8,586.6 668.6,588.2 668.8,590.2C669.8,594.4 670.2,597.9 669.9,600.9C665.7,603.8 660,607.8 652.6,612.7C650.9,612.2 650.3,612 650.8,612L650.8,585.9C650.3,584.7 649.1,584.2 647.1,584.4L642.7,584.4L638.3,619C634.9,619.2 630.7,619.2 625.8,619C624.1,610.9 621,598.9 616.6,582.9L613.6,582.9C610.9,591.5 609.4,596.2 609.2,596.9C609.2,597.9 609.5,599.8 610.1,602.6C610.7,605.4 611,607.3 611,608.3C611,609 610.7,610.9 610.3,613.8L609.2,622.7C608.7,623.2 608.1,623.4 607.4,623.4C600,623.4 595.1,621.6 592.7,617.9C590.2,614.2 589.2,609.1 589.7,602.4L592.7,558.2C592.7,557.5 592.9,556.5 593.4,555.2C593.9,554 594.1,553.1 594.1,552.6C594.1,550.6 592,546.7 587.8,540.8C587.1,540.6 583.3,539.7 576.4,538.2C572.2,537.2 564,535.5 551.7,533.1C534.8,529.9 526.3,516.3 526.3,492.2C526.3,456.3 541,426.5 570.5,402.7C571.7,409.3 573.8,418.2 576.8,429.2C579,429.7 583.8,430.8 591.2,432.5C592.7,433 600.2,435.7 613.7,440.6C606.8,436.4 597.9,429.7 586.8,420.4C582.6,415.5 580.5,407.3 580.5,395.7C580.5,393 585.2,389.8 594.5,386.1C602.8,382.7 609.1,380.7 613.3,380.2C626.6,378.5 636.7,377.6 643.9,377.6C674.6,377.6 699.4,385.5 718.3,401.2C712.2,408.3 701.6,415.9 686.6,424C692.5,424.2 701.1,421.9 712.4,417C723.7,412.1 728.5,409.6 726.8,409.6C728.8,409.6 732.7,413.5 738.6,421.4C743,427.3 746.6,432.6 749.3,437.2C757.2,451.2 762.4,466.3 765.1,482.5C765.1,488.2 765.2,492.2 765.5,494.7L765.5,497.6L765.4,497.7ZM624.3,504.3C624.3,493.7 619.7,483.7 610.5,474.3C601.3,464.8 591.4,460.1 580.8,460.1C571.5,460.1 563.3,464.1 556.1,472C549,479.9 545.4,488.7 545.4,498.3C545.4,506.7 549.5,512.2 557.6,514.6C562.8,516.1 570,517 579.3,517.2L599.6,517.2C616.1,517.4 624.3,513.1 624.3,504.3M664.5,550L664.5,538.6C662.8,535.4 661.1,532.1 659.4,528.6C657.9,523.7 655.2,516.8 651.3,508L647.2,551.1C647.2,554.6 646.5,556.3 645,556.3C644,556.3 643.3,556.1 642.8,555.6C641.1,529.6 640.2,518.3 640.2,521.7L640.2,508.8C639.7,508 639.1,507.7 638.4,507.7C630.1,516.3 625.9,530.2 625.9,549.3C625.9,559.9 626.9,566.4 628.8,568.8C630.8,568.3 633,567.4 635.4,566.2C636.4,565.7 639.2,565.5 643.9,565.5C648.6,565.5 654.2,567 660.8,569.9C663.3,569.9 664.5,563.3 664.5,550M747.8,498.7C747.8,488.8 744.1,480 736.8,472.2C729.4,464.4 721,460.5 711.4,460.5C701.1,460.5 691.4,465.2 682.5,474.7C673.5,484.2 669,494 669,504.4C669,513 673.2,517.3 681.5,517.3L723.9,517.3C739.9,517.1 747.9,510.9 747.9,498.8" style="fill:rgb(19,12,14);fill-rule:nonzero;"/>
        </g>
        <g transform="matrix(1.63436,0,0,1.67005,444.927,-87.0378)">
            <path d="M-52.703,176.592C-53.189,176.508 -55.001,176.263 -56.731,176.047C-63.748,175.171 -72.537,172.279 -79.854,168.438C-86.041,165.191 -87.146,163.987 -82.846,165.179C-69.12,168.985 -50.854,163.541 -36.265,151.296C-28.313,144.622 -23.87,138.227 -21.868,130.576C-18.979,119.534 -20.082,112.041 -25.696,104.572C-27.854,101.701 -30.232,99.846 -34.514,97.694C-37.458,96.214 -37.918,95.873 -37.383,95.574C-37.007,95.363 -35.858,95.315 -34.582,95.455C-27.641,96.218 -21.881,99.278 -16.158,105.244C-9.889,111.778 -5.413,120.693 -3.996,129.466C-3.457,132.806 -3.539,139.497 -4.156,142.395C-6.92,155.387 -15.167,166.332 -26.422,171.943C-32.62,175.033 -38.645,176.435 -46.53,176.62C-49.44,176.689 -52.218,176.676 -52.703,176.592ZM-81.631,150.64C-85.231,150.368 -86.855,150.004 -91.003,148.541C-105.748,143.34 -115.406,132.257 -118.729,116.724C-119.73,112.041 -119.832,101.891 -118.93,96.71C-117.581,88.959 -115.028,81.45 -111.379,74.498C-108.132,68.311 -106.928,67.206 -108.12,71.507C-111.34,83.117 -108.008,97.974 -99.155,111.486C-92.06,122.313 -83.383,129.665 -74.756,132.156C-63.279,135.47 -55.197,134.432 -47.513,128.656C-44.642,126.498 -42.787,124.12 -40.635,119.838C-39.12,116.826 -38.819,116.425 -38.501,116.994C-37.951,117.977 -38.783,123.524 -39.9,126.321C-41.585,130.54 -43.545,133.41 -47.412,137.316C-51.579,141.526 -55.042,143.997 -60.255,146.48C-67.331,149.85 -74.256,151.198 -81.631,150.64ZM10.536,142.306C10.631,141.773 10.984,140.146 11.32,138.69C12.721,132.636 11.923,123.561 9.321,115.936C4.686,102.358 -6.03,88.478 -16.367,82.666C-21.161,79.971 -29.304,78.179 -35.518,78.451C-42.115,78.74 -47.173,80.987 -52.004,85.774C-54.192,87.941 -55.034,89.122 -56.659,92.3C-58.459,95.822 -58.665,96.092 -58.884,95.22C-59.271,93.679 -58.455,88.851 -57.304,85.866C-53.07,74.887 -40.518,65.268 -26.568,62.311C-18.173,60.532 -9.754,61.76 -1.099,66.027C15.6,74.259 24.302,91.588 22.066,112.158C20.972,122.226 16.846,134.049 11.484,142.483C10.795,143.567 10.327,143.481 10.536,142.306ZM-64.169,115.861C-70.337,115.008 -76.403,111.559 -81.769,105.855C-87.759,99.487 -91.86,91.396 -93.466,82.775C-94.356,77.998 -94.038,70.454 -92.767,66.195C-88.969,53.468 -81.313,44.247 -70.196,39.008C-55.48,32.073 -35.723,33.568 -17.792,42.974C-11.606,46.219 -10.499,47.425 -14.8,46.232C-24.484,43.547 -35.943,45.276 -47.774,51.206C-59.548,57.108 -70.006,66.787 -73.908,75.394C-75.217,78.282 -76.577,83.533 -77.079,87.646C-77.954,94.805 -76.275,101.085 -71.95,106.839C-69.793,109.708 -67.414,111.565 -63.141,113.713C-60.587,114.997 -59.779,115.556 -60.143,115.786C-60.644,116.104 -62.204,116.132 -64.169,115.861Z" style="fill:rgb(33,29,21);fill-rule:nonzero;"/>
        </g>
    </g>
</svg>
