<?xml version="1.0" encoding="UTF-8" standalone="no"?>
<!DOCTYPE svg PUBLIC "-//W3C//DTD SVG 1.1//EN" "http://www.w3.org/Graphics/SVG/1.1/DTD/svg11.dtd">
<svg width="600" height="600" viewBox="0 0 600 600" version="1.1" xmlns="http://www.w3.org/2000/svg" xmlns:xlink="http://www.w3.org/1999/xlink" xml:space="preserve" xmlns:serif="http://www.serif.com/" style="fill-rule:evenodd;clip-rule:evenodd;stroke-linejoin:round;stroke-miterlimit:2;">
    <circle cx="300" cy="300" r="300" style="fill:rgb(171,139,215);"/>
    <g transform="matrix(1,0,0,1,-156.29,92.5)">
        <g transform="matrix(1,0,0,1,28.57,-182.86)">
            <path d="M639.8,178.2C694.1,232.5 727.7,307.5 727.7,390.4C727.7,556.1 593.4,690.4 427.7,690.4C344.9,690.4 269.9,656.8 215.6,602.5" style="fill:rgb(248,246,216);fill-rule:nonzero;"/>
        </g>
        <g transform="matrix(1,0,0,1,28.57,-182.86)">
            <path d="M655.7,529C641.1,515.4 631.4,508.1 626.6,506.9C623.1,506.1 619.8,508.1 616.6,512.9C613.4,517.7 608.9,519.5 603,518C600.6,517.4 596,515.4 589,511.9C583.4,517.2 580.4,520.7 579.9,522.4C579.3,524.8 580.4,528 583.2,532.1C586,536.2 588.6,538.5 591,539.1C592.5,539.5 594.7,539.6 597.5,539.6C600.3,539.6 602.2,539.7 603.1,539.9C605.8,540.5 605.9,545.7 603.6,555.5C601.4,564.8 595.8,578.6 586.8,596.9C586.4,573.4 583.1,561 576.9,559.5C576,559.3 574.1,559.5 571.1,560.2C568.1,560.8 565.9,561 564.6,560.7C558.3,559.2 554.1,552.1 551.8,539.4C541.5,538.5 535.3,542.4 533.2,551.1C532.2,555.5 533.3,559.4 536.7,563C540.1,566.6 541.6,568.9 541.4,570C540,575.9 529.3,582.8 509.3,590.8C498.6,595.1 491.3,598.2 487.2,599.9C491.2,596.7 495.4,592.4 500,586.8C505.2,580.5 508.2,575.4 509.2,571.4C509.7,569.2 507.9,565.6 503.9,560.5C499.8,555.4 498.3,550.7 499.4,546.4C500.3,542.7 502.7,538.5 506.6,533.7C504.6,529.8 501.6,527.3 497.7,526.4C489,524.3 484,526.1 482.7,531.7C483.6,527.8 482.9,530.7 480.6,540.5C479.1,547.7 472.8,550 461.8,547.3C453.3,545.3 439.6,539.9 420.6,531.3C444.5,531.1 457.3,527.3 459.1,519.9C458.9,520.8 459.1,518.1 459.7,511.8C460.4,504.9 466.7,499.9 478.3,497C478.7,486.6 474.7,480.3 466.3,478.3C465,478 462.1,479.7 457.5,483.4C452.9,487.1 449.1,488.6 446.1,487.9C440.9,486.7 435.5,479.4 430,466.2C427.4,459.6 423.5,449.9 418.1,436.9C422.5,440.7 426.8,444.5 431.2,448.3C437,452.9 441.8,455.7 445.7,456.6C448.7,457.3 452.3,455.4 456.5,450.8C460.7,446.2 465.2,444.5 469.9,445.6C470.6,445.8 474.6,448.1 482,452.6C487.6,447.3 490.8,443.1 491.5,440.1C492.1,437.5 491.3,434.1 488.9,430C486.6,425.9 484.1,423.5 481.5,422.9C480.4,422.6 478.7,422.6 476.2,422.7C473.8,422.8 472,422.7 470.9,422.5C467,421.6 466.2,416.2 468.5,406.5C469.1,403.9 475.2,389.6 486.6,363.8C485.6,367 485.6,373.4 486.5,383C487.6,394.7 490.6,401.2 495.6,402.4C496.5,402.6 498.4,402.4 501.3,401.7C504.2,401 506.4,400.9 507.9,401.2C512.9,402.4 516.3,406.2 518.2,412.6L521,422.5C525.5,423.6 529.7,422.9 533.5,420.4C537.3,417.9 539.8,414.3 540.9,409.8C542,405 540.9,400.9 537.5,397.5C534.1,394 532.5,391.7 532.9,390.4C534,385.9 543,379.9 559.9,372.5C573.5,366.6 582.2,363.3 586,362.6C573.7,373 566.8,381 565.4,386.9C564.7,389.9 565.7,393.6 568.6,398C572.2,403.2 574.1,406.8 574.3,408.6C575.3,414.1 573.4,420.9 568.8,428.9C573.7,434.4 577.6,437.5 580.7,438.3C587,439.8 590.9,437.3 592.4,430.8C592.6,430.1 592.8,428 593.1,424.4C593.4,420.8 593.7,418.8 594,418.4C595.6,415.6 601.9,415.5 613,418.1C619.9,419.8 633.9,425.2 654.8,434.3C649.7,434.5 642.1,434.7 631.9,435C622.6,435.5 617.6,437.4 616.8,440.7C616.4,442.2 616.4,444.9 616.6,448.9C616.8,452.8 616.7,455.7 616.3,457.4C615.6,460.4 612.9,462.8 608.4,464.5L595.5,469.7C597,475.1 598,478.3 598.7,479.4C600.3,482.5 602.9,484.5 606.5,485.4C609.1,486 612,484.3 615.3,480.3C618.6,476.3 622.6,474.8 627.3,476C633.2,477.4 638.5,484.4 643.2,497C645.9,504.1 650.1,514.8 655.8,529.2M588.2,493.1C591.5,479.2 589.3,466 581.6,453.4C573.8,440.8 563,432.8 549.2,429.5C535.1,426.1 521.8,428.3 509.2,435.9C496.6,443.5 488.5,454.4 484.9,468.4C481.4,482.2 483.6,495.4 491.7,508C499.8,520.6 510.8,528.6 524.7,531.9C539.4,535.4 552.9,533.5 565.1,526.3C577.3,519 585,508 588.3,493.2M583.4,492C580.2,505.2 573.2,515.1 562.2,521.6C551.2,528.1 539.1,529.8 525.9,526.7C513.1,523.6 503.2,516.6 496.3,505.5C489.3,494.4 487.4,482.5 490.4,469.7C493.4,457.1 500.6,447.4 512,440.7C523.4,433.9 535.3,432 547.9,435C560.5,438 570.3,445.2 577.3,456.5C584.3,467.8 586.4,479.7 583.4,492" style="fill:rgb(33,29,21);fill-rule:nonzero;"/>
        </g>
        <g transform="matrix(1.63436,0,0,1.67005,444.927,-87.0378)">
            <path d="M-52.703,176.592C-53.189,176.508 -55.001,176.263 -56.731,176.047C-63.748,175.171 -72.537,172.279 -79.854,168.438C-86.041,165.191 -87.146,163.987 -82.846,165.179C-69.12,168.985 -50.854,163.541 -36.265,151.296C-28.313,144.622 -23.87,138.227 -21.868,130.576C-18.979,119.534 -20.082,112.041 -25.696,104.572C-27.854,101.701 -30.232,99.846 -34.514,97.694C-37.458,96.214 -37.918,95.873 -37.383,95.574C-37.007,95.363 -35.858,95.315 -34.582,95.455C-27.641,96.218 -21.881,99.278 -16.158,105.244C-9.889,111.778 -5.413,120.693 -3.996,129.466C-3.457,132.806 -3.539,139.497 -4.156,142.395C-6.92,155.387 -15.167,166.332 -26.422,171.943C-32.62,175.033 -38.645,176.435 -46.53,176.62C-49.44,176.689 -52.218,176.676 -52.703,176.592ZM-81.631,150.64C-85.231,150.368 -86.855,150.004 -91.003,148.541C-105.748,143.34 -115.406,132.257 -118.729,116.724C-119.73,112.041 -119.832,101.891 -118.93,96.71C-117.581,88.959 -115.028,81.45 -111.379,74.498C-108.132,68.311 -106.928,67.206 -108.12,71.507C-111.34,83.117 -108.008,97.974 -99.155,111.486C-92.06,122.313 -83.383,129.665 -74.756,132.156C-63.279,135.47 -55.197,134.432 -47.513,128.656C-44.642,126.498 -42.787,124.12 -40.635,119.838C-39.12,116.826 -38.819,116.425 -38.501,116.994C-37.951,117.977 -38.783,123.524 -39.9,126.321C-41.585,130.54 -43.545,133.41 -47.412,137.316C-51.579,141.526 -55.042,143.997 -60.255,146.48C-67.331,149.85 -74.256,151.198 -81.631,150.64ZM10.536,142.306C10.631,141.773 10.984,140.146 11.32,138.69C12.721,132.636 11.923,123.561 9.321,115.936C4.686,102.358 -6.03,88.478 -16.367,82.666C-21.161,79.971 -29.304,78.179 -35.518,78.451C-42.115,78.74 -47.173,80.987 -52.004,85.774C-54.192,87.941 -55.034,89.122 -56.659,92.3C-58.459,95.822 -58.665,96.092 -58.884,95.22C-59.271,93.679 -58.455,88.851 -57.304,85.866C-53.07,74.887 -40.518,65.268 -26.568,62.311C-18.173,60.532 -9.754,61.76 -1.099,66.027C15.6,74.259 24.302,91.588 22.066,112.158C20.972,122.226 16.846,134.049 11.484,142.483C10.795,143.567 10.327,143.481 10.536,142.306ZM-64.169,115.861C-70.337,115.008 -76.403,111.559 -81.769,105.855C-87.759,99.487 -91.86,91.396 -93.466,82.775C-94.356,77.998 -94.038,70.454 -92.767,66.195C-88.969,53.468 -81.313,44.247 -70.196,39.008C-55.48,32.073 -35.723,33.568 -17.792,42.974C-11.606,46.219 -10.499,47.425 -14.8,46.232C-24.484,43.547 -35.943,45.276 -47.774,51.206C-59.548,57.108 -70.006,66.787 -73.908,75.394C-75.217,78.282 -76.577,83.533 -77.079,87.646C-77.954,94.805 -76.275,101.085 -71.95,106.839C-69.793,109.708 -67.414,111.565 -63.141,113.713C-60.587,114.997 -59.779,115.556 -60.143,115.786C-60.644,116.104 -62.204,116.132 -64.169,115.861Z" style="fill:rgb(33,29,21);fill-rule:nonzero;"/>
        </g>
    </g>
</svg>
