<svg xmlns="http://www.w3.org/2000/svg" width="600" height="600" version="1.1"><circle cx="300" cy="300" r="300" fill="#fffbd5"/><g transform="translate(-227.72,-101.78)"><path d="m739.8 189.6c54.3 54.3 87.9 129.3 87.9 212.2 0 165.7-134.3 300-300 300-82.8 0-157.8-33.6-212.1-87.9" fill="#cbc2bf"/><path d="m765.4 497.7c0 16.2-5.9 27.3-17.7 33.2-3.4 1.7-14.2 4.1-32.4 7-11.8 2-17.7 6.5-17.7 13.6l0 29.8c0 1.3 0.4 5.1 1.1 11.4l1.1 11.8c0 3.7-0.9 9.7-2.6 18.1-4.7 1-10.1 2.1-16.2 3.3-2-7.4-2.9-12.4-2.9-15.1 0-1.2 0.3-3.1 0.9-5.5 0.6-2.4 0.9-4.3 0.9-5.5 0-1.7-1.5-6.5-4.6-14.4l-5.7 0c-0.8 1.2-1 2.8-0.8 4.8 1 4.2 1.4 7.7 1.1 10.7-4.2 2.9-9.9 6.9-17.3 11.8-1.7-0.5-2.3-0.7-1.8-0.7l0-26.1c-0.5-1.2-1.7-1.7-3.7-1.5l-4.4 0-4.4 34.6c-3.4 0.2-7.6 0.2-12.5 0-1.7-8.1-4.8-20.1-9.2-36.1l-3 0c-2.7 8.6-4.2 13.3-4.4 14 0 1 0.3 2.9 0.9 5.7 0.6 2.8 0.9 4.7 0.9 5.7 0 0.7-0.3 2.6-0.7 5.5l-1.1 8.9c-0.5 0.5-1.1 0.7-1.8 0.7-7.4 0-12.3-1.8-14.7-5.5-2.5-3.7-3.5-8.8-3-15.5l3-44.2c0-0.7 0.2-1.7 0.7-3 0.5-1.2 0.7-2.1 0.7-2.6 0-2-2.1-5.9-6.3-11.8-0.7-0.2-4.5-1.1-11.4-2.6-4.2-1-12.4-2.7-24.7-5.1-16.9-3.2-25.4-16.8-25.4-40.9 0-35.9 14.7-65.7 44.2-89.5 1.2 6.6 3.3 15.5 6.3 26.5 2.2 0.5 7 1.6 14.4 3.3 1.5 0.5 9 3.2 22.5 8.1-6.9-4.2-15.8-10.9-26.9-20.2-4.2-4.9-6.3-13.1-6.3-24.7 0-2.7 4.7-5.9 14-9.6 8.3-3.4 14.6-5.4 18.8-5.9 13.3-1.7 23.4-2.6 30.6-2.6 30.7 0 55.5 7.9 74.4 23.6-6.1 7.1-16.7 14.7-31.7 22.8 5.9 0.2 14.5-2.1 25.8-7 11.3-4.9 16.1-7.4 14.4-7.4 2 0 5.9 3.9 11.8 11.8 4.4 5.9 8 11.2 10.7 15.8 7.9 14 13.1 29.1 15.8 45.3 0 5.7 0.1 9.7 0.4 12.2l0 2.9zm-141.1 6.6c0-10.6-4.6-20.6-13.8-30-9.2-9.5-19.1-14.2-29.7-14.2-9.3 0-17.5 4-24.7 11.9-7.1 7.9-10.7 16.7-10.7 26.3 0 8.4 4.1 13.9 12.2 16.3 5.2 1.5 12.4 2.4 21.7 2.6l20.3 0c16.5 0.2 24.7-4.1 24.7-12.9m40.2 45.7 0-11.4c-1.7-3.2-3.4-6.5-5.1-10-1.5-4.9-4.2-11.8-8.1-20.6l-4.1 43.1c0 3.5-0.7 5.2-2.2 5.2-1 0-1.7-0.2-2.2-0.7-1.7-26-2.6-37.3-2.6-33.9l0-12.9c-0.5-0.8-1.1-1.1-1.8-1.1-8.3 8.6-12.5 22.5-12.5 41.6 0 10.6 1 17.1 2.9 19.5 2-0.5 4.2-1.4 6.6-2.6 1-0.5 3.8-0.7 8.5-0.7 4.7 0 10.3 1.5 16.9 4.4 2.5 0 3.7-6.6 3.7-19.9m83.3-51.3c0-9.9-3.7-18.7-11-26.5-7.4-7.8-15.8-11.7-25.4-11.7-10.3 0-20 4.7-28.9 14.2-9 9.5-13.5 19.3-13.5 29.7 0 8.6 4.2 12.9 12.5 12.9l42.4 0c16-0.2 24-6.4 24-18.5" fill="#130c0e"/><path d="m555.7 331.4c-14.6-13.6-24.3-21-29.1-22.1-3.5-0.8-6.8 1.2-10 6-3.2 4.8-7.8 6.6-13.6 5.1-2.4-0.6-7-2.6-14-6.1-5.6 5.3-8.6 8.8-9.1 10.5-0.6 2.4 0.5 5.6 3.3 9.7 2.8 4.1 5.4 6.4 7.8 7 1.5 0.4 3.7 0.6 6.5 0.5 2.8 0 4.7 0.1 5.6 0.3 2.7 0.6 2.8 5.8 0.5 15.6-2.2 9.3-7.8 23.1-16.8 41.4-0.3-23.4-3.7-35.9-9.9-37.4-0.9-0.2-2.8 0-5.8 0.7-3 0.6-5.2 0.8-6.5 0.5-6.3-1.5-10.5-8.6-12.8-21.3-10.3-0.9-16.5 3-18.6 11.7-1 4.4 0.1 8.3 3.5 11.9 3.4 3.6 4.9 5.9 4.7 7-1.4 5.9-12.1 12.8-32.1 20.8-10.7 4.3-18 7.4-22.1 9.1 4-3.2 8.2-7.5 12.8-13.1 5.2-6.3 8.2-11.4 9.2-15.3 0.5-2.1-1.2-5.8-5.3-10.9-4.1-5.1-5.6-9.8-4.5-14.1 0.9-3.7 3.3-7.9 7.2-12.7-2-3.9-5-6.4-8.9-7.3-8.7-2.1-13.7-0.3-15 5.3 0.9-3.9 0.2-1-2.1 8.8-1.5 7.2-7.8 9.5-18.8 6.8-8.5-2-22.2-7.4-41.2-16 23.9-0.2 36.7-4 38.5-11.4-0.2 0.9 0-1.8 0.6-8.1 0.7-6.9 7-11.9 18.6-14.8 0.4-10.4-3.6-16.6-12-18.7-1.3-0.3-4.2 1.4-8.8 5.1-4.6 3.7-8.4 5.2-11.4 4.5-5.2-1.2-10.6-8.5-16.1-21.7-2.6-6.6-6.5-16.3-11.9-29.3 4.4 3.8 8.7 7.6 13.1 11.4 5.8 4.6 10.6 7.4 14.5 8.3 3 0.7 6.6-1.2 10.8-5.8 4.2-4.6 8.7-6.3 13.4-5.2 0.7 0.2 4.7 2.5 12.1 7 5.6-5.3 8.8-9.5 9.5-12.5 0.6-2.6-0.2-5.9-2.6-10.1-2.3-4.1-4.8-6.5-7.4-7.1-1.1-0.3-2.8-0.3-5.3-0.2-2.4 0.1-4.2 0-5.3-0.2-3.9-0.9-4.7-6.3-2.4-16 0.6-2.6 6.7-16.9 18.1-42.7-1 3.2-1 9.6-0.1 19.2 1.1 11.7 4.1 18.1 9.1 19.4 0.9 0.2 2.8 0 5.7-0.7 2.9-0.7 5.1-0.8 6.6-0.5 5 1.2 8.4 5 10.3 11.4l2.8 9.9c4.5 1.1 8.7 0.4 12.5-2.1 3.8-2.5 6.3-6.1 7.4-10.6 1.1-4.8 0-8.9-3.4-12.3-3.4-3.4-5-5.8-4.6-7.1 1.1-4.5 10.1-10.5 27-17.9 13.6-5.9 22.3-9.2 26.1-9.9-12.3 10.4-19.2 18.4-20.6 24.3-0.7 3 0.3 6.7 3.2 11.1 3.6 5.2 5.5 8.8 5.7 10.6 1 5.5-0.9 12.3-5.5 20.3 4.9 5.5 8.8 8.6 11.9 9.4 6.3 1.5 10.2-1 11.7-7.5 0.2-0.6 0.4-2.8 0.7-6.4 0.3-3.6 0.6-5.6 0.9-6 1.6-2.8 7.9-2.9 19-0.3 6.9 1.7 20.9 7.1 41.8 16.2-5.1 0.2-12.7 0.4-22.9 0.7-9.3 0.5-14.3 2.4-15.1 5.7-0.4 1.5-0.4 4.2-0.2 8.2 0.2 3.9 0.1 6.8-0.3 8.5-0.7 3-3.3 5.4-7.9 7.1l-12.9 5.2c1.5 5.4 2.5 8.6 3.2 9.7 1.6 3.1 4.2 5.1 7.8 6 2.6 0.6 5.5-1.1 8.8-5.1 3.3-4 7.3-5.5 12-4.3 5.9 1.4 11.2 8.4 15.9 21 2.6 7.1 6.8 17.8 12.6 32.2zm-67.6-36.1c3.3-13.9 1.1-27.1-6.6-39.7-7.8-12.6-18.6-20.6-32.4-23.9-14.1-3.4-27.4-1.3-40 6.4-12.6 7.6-20.7 18.5-24.3 32.5-3.5 13.8-1.3 27 6.8 39.6 8.1 12.6 19.1 20.5 33 23.9 14.7 3.5 28.2 1.6 40.4-5.6 12.2-7.3 19.9-18.3 23.2-33.1m-4.9-1.2c-3.2 13.2-10.2 23.1-21.2 29.6-11 6.6-23.1 8.2-36.3 5.1-12.8-3.1-22.7-10.1-29.6-21.2-7-11.1-8.9-23-5.9-35.8 3-12.6 10.2-22.2 21.6-29 11.4-6.8 23.3-8.7 35.9-5.7 12.6 3 22.4 10.2 29.4 21.5 7 11.3 9.1 23.1 6.1 35.5" fill="#211d15"/></g></svg>