<?xml version="1.0" encoding="UTF-8" standalone="no"?>
<!-- Created with Inkscape (http://www.inkscape.org/) -->

<svg
   xmlns:dc="http://purl.org/dc/elements/1.1/"
   xmlns:cc="http://creativecommons.org/ns#"
   xmlns:rdf="http://www.w3.org/1999/02/22-rdf-syntax-ns#"
   xmlns:svg="http://www.w3.org/2000/svg"
   xmlns="http://www.w3.org/2000/svg"
   xmlns:inkscape="http://www.inkscape.org/namespaces/inkscape"
   version="1.1"
   width="600"
   height="600"
   id="svg4210">
  <defs
     id="defs4212" />
  <metadata
     id="metadata4215">
    <rdf:RDF>
      <cc:Work
         rdf:about="">
        <dc:format>image/svg+xml</dc:format>
        <dc:type
           rdf:resource="http://purl.org/dc/dcmitype/StillImage" />
        <dc:title />
      </cc:Work>
    </rdf:RDF>
  </metadata>
  <g
     transform="translate(-1109.4396,-140.20826)"
     id="layer1">
    <g
       transform="matrix(6,0,0,6,5519.4396,140.20826)"
       id="g465">
      <path
         d="M -635,49.998 C -635,77.611 -657.383,100 -685,100 -712.613,100 -735,77.613 -735,49.999 -735,22.384 -712.613,0 -685,0 c 27.617,0 50,22.384 50,49.998 z"
         inkscape:connector-curvature="0"
         id="path467"
         style="fill:#c9c4be" />
    </g>
    <g
       transform="matrix(6,0,0,6,5519.4396,140.20826)"
       id="g469">
      <path
         d="m -680.09,65.695 c 0,3.988 0.654,6.793 1.963,8.414 1.309,1.621 3.521,2.431 6.639,2.431 l 0.748,-0.095 V 80 h -28.796 v -3.553 h 0.934 c 3.117,0.063 5.33,-0.717 6.639,-2.338 1.309,-1.619 1.963,-4.394 1.963,-8.319 V 53.26 l -18.325,-26.833 c -0.748,-0.997 -1.402,-1.87 -1.964,-2.618 -0.561,-0.748 -1.091,-1.339 -1.589,-1.776 -0.811,-0.686 -1.668,-1.169 -2.571,-1.45 -0.904,-0.281 -2.073,-0.514 -3.506,-0.701 V 16.235 H -690 v 3.553 c -2.805,0.25 -4.708,0.64 -5.703,1.168 -0.998,0.53 -1.496,1.512 -1.496,2.945 0,0.624 0.124,1.248 0.373,1.87 0.249,0.624 0.592,1.278 1.029,1.963 l 14.212,20.569 10.378,-15.24 c 0.996,-1.371 1.713,-2.555 2.15,-3.553 0.435,-0.996 0.715,-1.931 0.841,-2.804 0,-0.125 0,-0.249 0,-0.374 0,-0.125 0,-0.249 0,-0.375 0,-1.931 -0.53,-3.366 -1.589,-4.3 -1.06,-0.936 -2.899,-1.527 -5.516,-1.776 v -3.647 h 23.093 v 3.553 c -0.748,0.125 -1.435,0.296 -2.056,0.514 -0.624,0.219 -1.216,0.515 -1.777,0.889 -0.998,0.561 -2.026,1.449 -3.085,2.665 -1.061,1.215 -2.337,2.915 -3.833,5.096 l -17.11,24.309 v 12.436 h -10e-4 z"
         inkscape:connector-curvature="0"
         id="path471"
         style="fill:#0d0f0f" />
    </g>
  </g>
</svg>
