<?xml version="1.0" encoding="UTF-8" standalone="no"?><!DOCTYPE svg PUBLIC "-//W3C//DTD SVG 1.1//EN" "http://www.w3.org/Graphics/SVG/1.1/DTD/svg11.dtd"><svg width="1122" height="796" viewBox="0 0 1122 796" version="1.1" xmlns="http://www.w3.org/2000/svg" xmlns:xlink="http://www.w3.org/1999/xlink" xml:space="preserve" xmlns:serif="http://www.serif.com/" style="fill-rule:evenodd;clip-rule:evenodd;"><path d="M170.253,40.001l-128.844,192.374l59.776,523.082l915.997,-2.924c20.96,-168.694 41.294,-338.349 62.656,-506.992l-137.695,-205.488l-771.89,-0.052Z" style="fill-rule:nonzero;stroke:#000;stroke-width:80px;"/><path d="M753.901,460.245c0,106.838 -86.61,193.446 -193.448,193.446c-106.836,0 -193.446,-86.608 -193.446,-193.446c0,-106.836 86.61,-193.446 193.446,-193.446c106.838,0 193.448,86.61 193.448,193.446Zm67.506,112.306l-12.186,182.906l210.506,0l38.556,-336.084c-108.65,26.016 -168.068,89.688 -236.872,153.174l-0.004,0.004Zm-527.846,-89.146c-72.052,-54.23 -157.626,-110.21 -240.376,-146.37l-3.976,-34.66l286.7,-3.964c-20.539,27.708 -31.975,54.028 -37.872,82.91c-6.093,29.842 -6.274,62.418 -4.476,102.084Zm5.936,89.146l12.184,182.906l-210.496,0l-38.556,-336.084c108.65,26.016 168.068,89.688 236.872,153.174l-0.004,0.004Zm129.262,103.376l-50.906,0l0,80.046l364.658,0l0,-80.046l-50.904,0c-35.666,27.776 -81.47,44.47 -131.424,44.47c-49.954,0 -95.758,-16.694 -131.424,-44.47Zm399.406,-192.944c72.052,-54.232 157.626,-110.212 240.376,-146.37l3.976,-34.662l-286.7,-3.964c19.64,26.494 30.956,52.074 37.065,79.691c6.882,31.109 7.158,64.805 5.283,105.305Zm-7.61,-442.938c21.74,56.472 35.072,116.88 35.008,177.532l205.592,0.012l-119.012,-177.536l-121.588,-0.008Zm-236.866,-0.016c3.284,36.892 4.214,73.968 4.37,110.988c-0.092,22.188 -0.37,44.384 -1.53,66.546l199.288,0.01c-0.318,-37.182 -5.398,-71.438 -15.664,-107.246c-7.102,-23.922 -14.818,-47.752 -25.662,-70.288l-160.802,-0.01Zm-222.258,-0.016c-10.868,22.496 -18.71,46.376 -25.676,70.314c-9.4,34.966 -16.268,70.866 -15.666,107.222l189.004,0.01c-1.13,-22.16 -1.486,-44.356 -1.53,-66.542c0.152,-37.032 1.154,-74.088 4.37,-110.994l-150.502,-0.01Zm-191.178,-0.012l-119.012,177.534l199.104,0.01c0.176,-60.712 13.214,-120.978 35.022,-177.536l-115.114,-0.008Z" style="fill:url(#_Linear1);fill-rule:nonzero;"/><defs><linearGradient id="_Linear1" x1="0" y1="0" x2="1" y2="0" gradientUnits="userSpaceOnUse" gradientTransform="matrix(1023.31,0,0,715.972,49.2092,397.987)"><stop offset="0" style="stop-color:#612c75;stop-opacity:1"/><stop offset="0.3" style="stop-color:#7b5190;stop-opacity:1"/><stop offset="0.5" style="stop-color:#bf99c3;stop-opacity:1"/><stop offset="0.7" style="stop-color:#7b5190;stop-opacity:1"/><stop offset="1" style="stop-color:#612c75;stop-opacity:1"/></linearGradient></defs></svg>