<?xml version="1.0" encoding="UTF-8" standalone="no"?><!DOCTYPE svg PUBLIC "-//W3C//DTD SVG 1.1//EN" "http://www.w3.org/Graphics/SVG/1.1/DTD/svg11.dtd"><svg width="21" height="17" viewBox="0 0 21 17" version="1.1" xmlns="http://www.w3.org/2000/svg" xmlns:xlink="http://www.w3.org/1999/xlink" xml:space="preserve" xmlns:serif="http://www.serif.com/" style="fill-rule:evenodd;clip-rule:evenodd;stroke-linejoin:round;stroke-miterlimit:2;"><path d="M6.936,2.668c-0.224,1.323 0.127,2.4 1.02,3.239l0.037,0.032c0.446,0.344 0.653,0.685 0.5,1.075l-0,0.001c-0.217,0.553 -0.356,0.89 -0.42,1.007l-0.121,0.221l-7.952,-0l5.344,1.38c-0.589,0.319 -1.031,0.752 -1.33,1.292c-0.164,-0.122 -0.339,-0.164 -0.514,-0.151c-0.178,0.013 -0.378,0.093 -0.575,0.286c-0.462,0.441 -0.747,0.72 -0.852,0.83l-0.001,0.001c-0.17,0.179 -0.223,0.373 -0.202,0.568c0.016,0.151 0.084,0.32 0.246,0.485l0.007,0.007c4.972,4.652 11.019,4.032 11.414,4.026l0,-0c0.3,-0.005 0.502,-0.111 0.632,-0.25c0.144,-0.154 0.232,-0.375 0.186,-0.679l-0.183,-1.075c-0.03,-0.171 -0.106,-0.305 -0.212,-0.409c-0.131,-0.128 -0.324,-0.22 -0.598,-0.217l-0.003,0c0.224,-1.323 -0.126,-2.4 -1.019,-3.239l-0.038,-0.032c-0.447,-0.344 -0.653,-0.685 -0.5,-1.075c0.216,-0.552 0.354,-0.888 0.419,-1.005l0.125,-0.224l7.948,-0l-5.343,-1.38c0.589,-0.319 1.032,-0.752 1.331,-1.293c0.164,0.123 0.338,0.165 0.513,0.152c0.179,-0.013 0.379,-0.093 0.576,-0.286c0.46,-0.44 0.745,-0.718 0.851,-0.828l0.001,-0.002c0.171,-0.18 0.224,-0.375 0.203,-0.57c-0.017,-0.151 -0.085,-0.321 -0.249,-0.485l-0.006,-0.007c-4.971,-4.651 -11.018,-4.031 -11.413,-4.025l-0,0c-0.301,0.005 -0.503,0.112 -0.632,0.251c-0.144,0.154 -0.231,0.374 -0.185,0.678l0.182,1.074c0.031,0.173 0.107,0.307 0.212,0.409c0.133,0.129 0.325,0.221 0.598,0.218l0.003,-0Z"/><path d="M11.784,8.743c-0.069,0.124 -0.218,0.479 -0.448,1.065c-0.23,0.586 -0.01,1.138 0.661,1.654c0.888,0.835 1.136,1.946 0.746,3.333l-0.012,0.042l0.636,0c0.183,-0.002 0.287,0.069 0.312,0.214c0.026,0.145 0.086,0.499 0.181,1.062c0.035,0.232 -0.076,0.35 -0.331,0.354c-0.383,0.006 -6.246,0.617 -11.057,-3.884c-0.128,-0.13 -0.141,-0.249 -0.038,-0.358c0.103,-0.108 0.383,-0.381 0.84,-0.818c0.184,-0.18 0.351,-0.193 0.502,-0.037c0.15,0.157 0.29,0.292 0.42,0.404c0.352,-1.202 1.316,-1.934 2.893,-2.196l0.048,-0.008l-3.202,-0.827l7.849,0Zm-1.662,1.352c-0.566,1.111 -0.722,2.18 -0.468,3.208c0.382,1.541 1.778,1.539 1.778,1.539c0.482,-0.907 0.318,-1.802 -0.49,-2.685c-0.603,-0.662 -0.877,-1.35 -0.82,-2.062Zm-0.954,-0.409c-0.394,0.597 -1.033,0.97 -1.916,1.12c-1.18,0.198 -1.86,0.803 -2.04,1.814c0,0 1.1,0.862 2.349,-0.118c0.832,-0.653 1.368,-1.592 1.607,-2.816Zm8.654,-5.264c0.129,0.13 0.142,0.249 0.039,0.358c-0.104,0.108 -0.384,0.381 -0.84,0.818c-0.184,0.18 -0.351,0.193 -0.502,0.036c-0.134,-0.14 -0.274,-0.275 -0.42,-0.403c-0.352,1.202 -1.316,1.934 -2.893,2.196l-0.048,0.008l3.201,0.827l-7.848,0c0.068,-0.124 0.218,-0.479 0.447,-1.065c0.23,-0.586 0.01,-1.138 -0.66,-1.654c-0.888,-0.835 -1.137,-1.946 -0.747,-3.333l0.012,-0.042l-0.636,0c-0.182,0.002 -0.286,-0.07 -0.312,-0.214c-0.06,-0.354 -0.12,-0.708 -0.18,-1.062c-0.035,-0.232 0.075,-0.35 0.33,-0.354c0.383,-0.006 6.247,-0.617 11.057,3.884Zm-8.693,-2.154c-0.398,0.71 -0.358,1.33 0.119,1.861c0.477,0.531 1.814,1.04 4.01,1.525c0.88,0.094 1.41,-0.36 1.591,-1.364c-1.659,-1.148 -3.566,-1.821 -5.72,-2.022Z" style="fill:url(#_Linear1);fill-rule:nonzero;"/><defs><linearGradient id="_Linear1" x1="0" y1="0" x2="1" y2="0" gradientUnits="userSpaceOnUse" gradientTransform="matrix(14,4,-4.10965,14.3838,3,7)"><stop offset="0" style="stop-color:#8b723c;stop-opacity:1"/><stop offset="0.3" style="stop-color:#d2bb7b;stop-opacity:1"/><stop offset="0.5" style="stop-color:#ebd491;stop-opacity:1"/><stop offset="0.7" style="stop-color:#d2bb7b;stop-opacity:1"/><stop offset="1" style="stop-color:#8b723c;stop-opacity:1"/></linearGradient></defs></svg>