<?xml version="1.0" encoding="UTF-8" standalone="no"?>
<!DOCTYPE svg PUBLIC "-//W3C//DTD SVG 1.1//EN" "http://www.w3.org/Graphics/SVG/1.1/DTD/svg11.dtd">
<svg width="714" height="714" viewBox="0 0 714 714" version="1.1" xmlns="http://www.w3.org/2000/svg" xmlns:xlink="http://www.w3.org/1999/xlink" xml:space="preserve" xmlns:serif="http://www.serif.com/" style="fill-rule:evenodd;clip-rule:evenodd;stroke-linejoin:round;stroke-miterlimit:2;">
    <g transform="matrix(1,0,0,1,57,57)">
        <circle cx="300" cy="300" r="300"/>
        <path d="M300,-57C102.966,-57 -57,102.966 -57,300C-57,497.034 102.966,657 300,657C497.034,657 657,497.034 657,300C657,102.966 497.034,-57 300,-57ZM300,0C465.575,0 600,134.425 600,300C600,465.575 465.575,600 300,600C134.425,600 0,465.575 0,300C0,134.425 134.425,0 300,0Z" style="fill:rgb(194,75,255);"/>
    </g>
    <g transform="matrix(1,0,0,1,57,57)">
        <path d="M544.2,291.7C544.2,324.8 532.2,347.4 508.1,359.4C501.1,362.9 479,367.7 441.9,373.7C417.8,377.7 405.8,387 405.8,401.5L405.8,462.4C405.8,464.9 406.6,472.7 408.1,485.7L410.4,509.8C410.4,517.3 408.6,529.6 405.1,546.7C395.6,548.7 384.5,551 372,553.5C368,538.4 366,528.2 366,522.6C366,520.1 366.6,516.3 367.9,511.3C369.1,506.3 369.8,502.5 369.8,500C369.8,496.5 366.7,486.7 360.4,470.7L348.7,470.7C347.2,473.2 346.6,476.5 347.1,480.5C349.1,489 349.9,496.3 349.4,502.3C340.9,508.3 329.1,516.4 314,526.4C310.5,525.4 309.2,524.9 310.2,524.9L310.2,471.5C309.2,469 306.7,468 302.7,468.5L293.7,468.5L284.7,539.2C277.7,539.7 269.1,539.7 259.1,539.2C255.6,522.7 249.3,498.1 240.3,465.5L234.3,465.5C228.8,483.1 225.8,492.6 225.3,494.1C225.3,496.1 225.9,500 227.2,505.8C228.4,511.6 229.1,515.5 229.1,517.5C229.1,519 228.6,522.8 227.6,528.8L225.3,546.9C224.3,547.9 223,548.4 221.5,548.4C206.5,548.4 196.4,544.6 191.4,537.1C186.4,529.6 184.4,519 185.4,505.5L191.4,415.2C191.4,413.7 191.9,411.7 192.9,409.2C193.9,406.7 194.4,404.9 194.4,403.9C194.4,399.9 190.1,391.9 181.6,379.8C180.1,379.3 172.3,377.5 158.3,374.5C149.8,372.5 133,369 107.9,364C73.3,357.5 56,329.7 56,280.5C56,207.3 86.1,146.3 146.3,97.7C148.8,111.2 153.1,129.3 159.1,151.9C163.6,152.9 173.4,155.2 188.4,158.7C191.4,159.7 206.7,165.2 234.3,175.3C220.2,166.8 201.9,153 179.4,133.9C170.9,123.9 166.6,107.1 166.6,83.5C166.6,78 176.1,71.5 195.2,63.9C212.2,56.9 225.1,52.9 233.6,51.9C260.7,48.4 281.5,46.6 296.1,46.6C358.8,46.6 409.5,62.7 448.1,94.8C435.6,109.4 414,124.9 383.4,141.4C395.5,141.9 413,137.2 436.1,127.1C459.2,117.1 469,112.1 465.4,112.1C469.4,112.1 477.5,120.1 489.5,136.2C498.5,148.2 505.8,159 511.3,168.6C527.3,197.2 538.1,228.1 543.7,261.2C543.7,272.8 543.9,281 544.5,286L544.5,292L544.2,291.7ZM256,305.2C256,283.6 246.6,263.2 227.8,243.9C209,224.6 188.8,214.9 167.2,214.9C148.1,214.9 131.3,223 116.8,239.1C102.2,255.3 95,273.2 95,292.9C95,310.1 103.3,321.2 119.8,326.2C130.3,329.2 145.1,331 164.2,331.5L205.6,331.5C239.2,332 256,323.2 256,305.2M338,398.5L338,375.2C334.5,368.7 331,361.9 327.5,354.9C324.5,344.9 319,330.8 310.9,312.8L302.6,400.8C302.6,407.8 301.1,411.3 298.1,411.3C296.1,411.3 294.6,410.8 293.6,409.8C290.1,356.6 288.3,333.6 288.3,340.6L288.3,314.3C287.3,312.8 286.1,312 284.6,312C267.5,329.6 259,357.9 259,397C259,418.6 261,431.9 265,436.9C269,435.9 273.5,434.1 278.5,431.6C280.5,430.6 286.3,430.1 295.8,430.1C305.3,430.1 316.9,433.1 330.4,439.1C335.4,439.1 337.9,425.6 337.9,398.5M508,293.7C508,273.5 500.5,255.5 485.4,239.6C470.3,223.7 453,215.8 433.5,215.8C412.4,215.8 392.7,225.4 374.4,244.8C356.1,264.1 346.9,284.3 346.9,305.4C346.9,323 355.4,331.7 372.5,331.7L459,331.7C491.6,331.2 507.9,318.6 507.9,293.8" style="fill:rgb(194,75,255);fill-rule:nonzero;"/>
    </g>
</svg>
