<?xml version="1.0" encoding="UTF-8" standalone="no"?>
<!DOCTYPE svg PUBLIC "-//W3C//DTD SVG 1.1//EN" "http://www.w3.org/Graphics/SVG/1.1/DTD/svg11.dtd">
<svg width="714" height="714" viewBox="0 0 714 714" version="1.1" xmlns="http://www.w3.org/2000/svg" xmlns:xlink="http://www.w3.org/1999/xlink" xml:space="preserve" xmlns:serif="http://www.serif.com/" style="fill-rule:evenodd;clip-rule:evenodd;stroke-linejoin:round;stroke-miterlimit:2;">
    <g transform="matrix(1,0,0,1,57,57)">
        <circle cx="300" cy="300" r="300"/>
        <path d="M300,-57C102.966,-57 -57,102.966 -57,300C-57,497.034 102.966,657 300,657C497.034,657 657,497.034 657,300C657,102.966 497.034,-57 300,-57ZM300,0C465.575,0 600,134.425 600,300C600,465.575 465.575,600 300,600C134.425,600 0,465.575 0,300C0,134.425 134.425,0 300,0Z" style="fill:rgb(177,255,75);"/>
    </g>
    <g transform="matrix(1,0,0,1,57,57)">
        <path d="M562.6,337.4C562.6,347.4 558.7,356.4 551,364.4C543.3,372.4 534.4,376.4 524.4,376.4C508.4,376.4 496.7,368.9 489.2,353.9L454,352.4C446.5,352.4 431.7,355.7 409.8,362.2C386.3,368.7 372.8,373.9 369.3,377.9C363.8,383.9 359.3,397.9 355.8,419.9C352.8,437.9 351.3,451.1 351.3,459.6C351.3,473.1 353.4,483 357.7,489.2C362,495.4 370.7,500.7 383.9,504.9C397.1,509.1 405.3,511.5 408.3,512C410.3,512 413.5,511.8 418.1,511.3L427.1,511.3C433.6,511.3 440.3,512.3 447.3,514.3C457.3,517.3 461.6,521.3 460.1,526.3C453.1,525.3 440.9,526.8 423.4,530.8L444.4,541.3C444.4,547.3 435.9,550.3 418.9,550.3C414.4,550.3 408.3,549.3 400.5,547.3C392.8,545.3 387.6,544.3 385.1,544.3L375.4,544.3C374.9,549.3 373.4,556.8 370.9,566.8C362.4,566.3 352.4,561.3 340.9,551.8C329.4,542.3 322.2,537.6 319.2,537.6C316.2,537.6 311.9,542.4 306.5,551.8C301,561.3 298.3,567.8 298.3,571.3C291.8,567.8 286.3,561.3 281.8,551.8C279.8,545.3 277.6,538.8 275.1,532.3C270.1,532.8 260.9,543.3 247.4,563.8L243.6,563.8C242.6,562.3 238.8,551.8 232.4,532.3C216.9,527.3 202.4,524.8 188.9,524.8C182.4,524.8 172.4,526.3 158.9,529.3L137.9,527.8C140.9,524.8 149.6,519.1 164.1,510.6C181.1,500.6 194.1,495.6 203.1,495.6C204.6,495.6 206.6,495.9 209.1,496.4C211.6,496.9 213.6,497.2 215.1,497.2C218.6,497.2 224.2,495.3 232,491.6C239.7,487.9 244.2,484.5 245.5,481.5C246.8,478.5 247.4,470.7 247.4,458.3C247.4,429.8 239.9,408.6 224.9,394.6C211.9,382.1 190.4,373.1 160.4,367.6C152.4,396.1 129.9,410.3 93,410.3C81,410.3 69,403.1 57,388.6C44.7,373.8 38.7,360.6 38.7,348.6C38.7,330.1 46.4,314.9 61.9,302.9C49.4,289.9 43.2,276.7 43.2,263.2C43.2,250.7 47.1,239.7 54.8,230.2C62.5,220.7 72.7,215.2 85.2,213.7C84.2,197.7 89.4,186.7 100.9,180.7C95.4,175.2 92.7,165.5 92.7,151.5C92.7,135 98.2,121.3 109.2,110.3C120.2,99.3 133.9,93.8 150.4,93.8C168.4,93.8 183.1,100.1 194.6,112.6C209.1,63.1 240.3,38.4 288.3,38.4C313.3,38.4 335.3,48.4 354.3,68.4C361.3,75.9 364.8,79.9 364.8,80.4C358.8,80.4 361.8,79.3 373.8,77C385.8,74.8 394.5,73.6 400,73.6C419.5,73.6 436.7,80.8 451.7,95.3C464.7,108.3 473.7,124.8 478.7,144.8C482.2,145.3 487.7,146.8 495.2,149.3C506.2,154.8 511.7,164.3 511.7,177.8C511.7,180.3 509.7,185.1 505.7,192C537.7,210 553.7,235 553.7,267C553.7,276 550.2,288.5 543.2,304.5C556.2,312 562.7,323 562.7,337.5M253.9,370.5L253.9,360.8C253.9,349.3 248.3,338.8 237,329.3C225.8,319.8 214.4,315.1 202.9,315.1C188.9,315.1 175.9,318.3 163.9,324.8C190.4,323.3 220.4,338.6 253.8,370.5M240.3,277.6C232.8,269.1 226.3,260.4 220.8,251.4C199.8,256.9 189.3,263.1 189.3,270.1C195.3,269.6 204,270.7 215.5,273.5C227,276.3 235.2,277.6 240.3,277.6M286,254.4L286,221.4C274,219.4 266.7,218.4 264.3,218.4L264.3,229.6L286,254.3M383.4,233.3C377.4,230.8 366.2,225.8 349.7,218.3L349.7,282.8C373.2,269.3 384.4,252.8 383.4,233.3M424.6,321.8L408.1,301.6C398.1,308.6 388,315.7 377.7,323C367.4,330.2 358.6,338.4 351.1,347.4C373.6,335.4 398.1,326.9 424.5,321.9" style="fill:rgb(177,255,75);fill-rule:nonzero;"/>
    </g>
</svg>
