<?xml version="1.0" encoding="UTF-8" standalone="no"?>
<!DOCTYPE svg PUBLIC "-//W3C//DTD SVG 1.1//EN" "http://www.w3.org/Graphics/SVG/1.1/DTD/svg11.dtd">
<svg width="714" height="714" viewBox="0 0 714 714" version="1.1" xmlns="http://www.w3.org/2000/svg" xmlns:xlink="http://www.w3.org/1999/xlink" xml:space="preserve" xmlns:serif="http://www.serif.com/" style="fill-rule:evenodd;clip-rule:evenodd;stroke-linejoin:round;stroke-miterlimit:2;">
    <g transform="matrix(1,0,0,1,57,57)">
        <circle cx="300" cy="300" r="300"/>
        <path d="M300,-57C102.966,-57 -57,102.966 -57,300C-57,497.034 102.966,657 300,657C497.034,657 657,497.034 657,300C657,102.966 497.034,-57 300,-57ZM300,0C465.575,0 600,134.425 600,300C600,465.575 465.575,600 300,600C134.425,600 0,465.575 0,300C0,134.425 134.425,0 300,0Z" style="fill:rgb(253,123,82);"/>
    </g>
    <g transform="matrix(1,0,0,1,57,57)">
        <path d="M551.8,399.7C529.4,453.2 484.8,479.9 418.2,479.9C406,479.9 392.7,481.4 378.5,484.5C357.1,489.1 346.4,495.5 346.4,503.6C346.4,506.1 348.2,509.1 351.7,512.4C355.3,515.7 358.3,517.4 360.9,517.4C348.2,517.4 356.8,517.8 386.9,518.5C417,519.3 435.8,519.6 443.4,519.6C399.1,545.6 325,557.5 221.1,555.5C187,555 157.7,540 133.3,510.4C109.3,482.4 97.4,451.1 97.4,416.5C97.4,379.9 109.7,348.7 134.5,322.9C159.2,297.2 189.9,284.3 226.5,284.3C234.6,284.3 245.5,286.1 259,289.6C272.5,293.2 281.5,294.9 286.1,294.9C304.9,294.9 328.4,287.1 356.4,271.6C384.4,256.1 397.7,248.3 396.1,248.3C391,301.8 373.2,337.7 342.6,356C320.7,368.7 309.8,381.2 309.8,393.4C309.8,401 314.4,407.2 323.5,411.7C330.6,415.3 338.5,417.1 347.2,417.1C360.4,417.1 373.4,409 386.2,392.7C398.9,376.4 404.5,361.6 403,348.4C401.5,333.1 402.5,314.8 406.1,293.4C407.1,287.3 410.8,279.8 417.2,270.9C423.6,262 429.3,256.5 434.4,254.5C434.4,259.1 432.8,266.7 429.4,277.4C426.1,288.1 424.4,296 424.4,301.1C424.4,312.3 427.4,321 433.6,327.1C442.8,323.5 450.9,312.1 458,292.7C464.1,277.9 467.7,263.7 468.7,249.9C447.3,248.9 426.8,239.2 407.2,220.9C387.6,202.6 377.8,182.7 377.8,161.3C377.8,157.7 378.3,154.2 379.3,150.6C382.3,155.2 386.9,162.3 393,172C401.7,184.7 408.3,191.1 412.9,191.1C419,191.1 422.1,184.7 422.1,172C422.1,155.7 417.8,140.9 409.1,127.7C399.4,111.9 386.9,104 371.7,104C364.6,104 353.9,107.8 339.6,115.5C325.3,123.1 312.3,127 300.6,127C297,127 281.2,122.4 253.2,113.2C302.6,105.1 327.3,97.7 327.3,91.1C327.3,73.8 293.4,62.1 225.7,56C219.1,55.5 206.9,54.5 189,52.9C191,50.4 205.5,47.6 232.5,44.5C255.4,42 271.5,40.7 280.6,40.7C401.8,40.7 478.7,99.5 511.3,217.2C516.9,212.6 519.7,204.8 519.7,194C519.7,180.1 515.6,162.5 507.5,141.3C504.4,133.1 499.6,120.7 493,104.1C534.7,157.3 555.6,207.7 555.6,255.3C555.6,280.4 549.7,303.1 538,323.6C530.4,337.4 516.1,355.1 495.2,376.6C474.3,398.1 460.1,414.7 452.4,426.5C480.4,418.9 498.8,413 507.4,408.9C526.7,400.3 544.3,387.3 560.1,369.9C560.1,376.5 557.3,386.5 551.7,399.7M218.8,99.5C218.8,108.7 213.7,114.5 203.5,117.1L183.6,120.2C176.5,123.8 166,137.8 152.3,162.2C150.8,154.6 148.5,143.9 145.4,130.1C140.8,130.6 133.2,134.7 122.5,142.3C117.9,145.9 110.5,151.2 100.3,158.3C103.4,140 113.5,121.4 130.9,102.5C149.2,81.6 167.1,71.2 184.4,71.2C207.3,71.2 218.8,80.6 218.8,99.5M351.7,169.8C351.7,178.5 347,185.7 337.6,191.6C328.2,197.5 318.9,200.4 309.7,200.4C297.5,200.4 286.5,193.5 276.9,179.8C265.2,163 253.2,152.1 241,146.9C243.5,144.4 246.6,143.1 250.2,143.1C254.8,143.1 262.5,146.7 273.5,153.8C284.4,160.9 291.4,164.5 294.5,164.5C297,164.5 301.2,160.9 307.1,153.8C313,146.7 319.4,143.1 326.6,143.1C343.4,143.1 351.8,152 351.8,169.8" style="fill:rgb(253,123,82);fill-rule:nonzero;"/>
    </g>
</svg>
