<?xml version="1.0" encoding="UTF-8" standalone="no"?><!DOCTYPE svg PUBLIC "-//W3C//DTD SVG 1.1//EN" "http://www.w3.org/Graphics/SVG/1.1/DTD/svg11.dtd"><svg width="1500" height="2100" viewBox="0 0 1500 2100" version="1.1" xmlns="http://www.w3.org/2000/svg" xmlns:xlink="http://www.w3.org/1999/xlink" xml:space="preserve" xmlns:serif="http://www.serif.com/" style="fill-rule:evenodd;clip-rule:evenodd;stroke-linejoin:round;stroke-miterlimit:2;"><path id="frame-2-mask" serif:id="frame 2 mask" d="M1440,173.507l0,23.991c0.013,-0.005 0.025,-0.012 0.037,-0.019c3.364,-2.081 16.65,46.166 13.564,49.252c-0.277,0.282 -2.734,-1.125 -5.452,-3.12c-1.836,-1.348 -5.028,-3.217 -8.149,-4.869l0,2.376c3.08,1.635 6.599,3.754 8.783,5.321l5.216,3.75l-0,17.04l-6.533,-6.109c-2.483,-2.323 -4.958,-4.322 -7.466,-6.013l0,3.873c-15.416,-10.616 -32.065,-10.851 -29.501,-12.98c0.825,-0.686 1.5,-1.879 1.5,-2.659c-0,-0.776 0.649,-2.407 1.44,-3.626c5.643,-8.678 11.017,-32.434 10.965,-48.465c-0.015,-4.538 0.341,-8.25 0.791,-8.25c0.355,-0 8.675,-5.39 14.805,-9.493Zm-1380,0.987c14.004,9.51 13.564,7.047 14.355,22.19c0.892,17.16 5.794,35.613 12.731,47.97l2.085,3.708l-2.336,1.797c-1.282,0.99 -3.772,0.813 -5.528,0.819c-1.895,0.005 -12.309,2.82 -21.307,8.166l0,-2.969c-3.077,1.781 -5.917,3.76 -8.25,5.845l-5.749,5.141l0,-17.149l3.867,-2.801c1.904,-1.381 6.239,-3.927 10.132,-5.97l0,-2.123c-2.053,1.007 -4.669,2.446 -6.949,3.848c-7.905,4.864 -7.526,5.34 -5.651,-7.129c2.728,-18.112 11.596,-44.096 12.6,-37.549l0,-23.794Zm1384.74,-25.553c-2.438,1.309 -5.577,3.965 -10.038,7.964c-3.739,3.352 -12.757,9.062 -13.612,6.846c-0.48,-1.237 -1.628,-4.275 -2.554,-6.75c-0.926,-2.475 -2.775,-6.757 -4.11,-9.517c-1.335,-2.76 -2.426,-5.367 -2.426,-5.794c-0,-1.226 -7.275,-12.101 -10.729,-16.035c-3.026,-3.446 -3.401,-3.578 -10.871,-3.863c-5.033,-0.191 -7.883,-0.723 -8.149,-1.53c-0.469,-1.424 14.44,-17.593 21.003,-23.262l5.747,-0c9.866,7.07 19.301,19.21 33,40l0,-0.273c2.413,4.854 2.828,7.995 1.131,9.208c-0.481,0.342 -1.611,1.213 -3.131,2.408l0,3.795c1.867,-1.503 3.402,-2.579 4.739,-3.197Zm-1386.74,-12.074l0,0.133c13.699,-20.79 23.134,-32.93 33,-40l3.467,-0c1.539,1.413 4.074,3.654 6.079,5.749c3.023,3.165 8.782,7.062 11.572,9.886c7.271,7.361 6.675,8.73 -4.095,9.364l-8.46,0.502l-5.775,7.5c-3.177,4.125 -5.779,8.231 -5.783,9.128c-0.004,0.892 -0.634,2.148 -1.406,2.786c-0.769,0.641 -2.381,3.735 -3.585,6.874c-1.2,3.142 -2.82,6.907 -3.6,8.366c-0.776,1.459 -1.414,3.596 -1.414,4.747c0,4.058 -7.23,2.093 -12.577,-3.412c-1.864,-1.92 -3.814,-3.491 -4.339,-3.491c-0.433,-0 -0.983,-0.57 -1.341,-1.343c-2.608,-1.864 -6.822,-4.398 -7.806,-5.011c-0.679,-0.076 -1.528,0.192 -2.452,0.689l1.455,-1.55l2.989,1.856c1.011,0.629 3.344,2.247 6.071,4.199l0,-4.108c-3.561,-2.962 -6,-5.065 -6,-5.195c0,-0.839 1.565,-3.748 4,-7.669Zm63.101,-39.867c6.732,6.585 19.997,19.31 21.305,20.27c1.703,1.249 4.219,2.831 5.595,3.517c1.988,0.99 124.995,1.193 602.577,0.979l600.074,-0.266l8.923,-6.731c12.049,-8.168 19.418,-16.083 19.757,-17.599l0.057,-0.17l-66.389,-0c-7.168,6.638 -16.611,9.804 -28,10l-1070,-0c-11.389,-0.196 -20.832,-3.362 -28,-10l-65.899,-0Zm-3.653,1851c-0.121,-0.849 -0.301,-1.862 -0.531,-3.115c-0.813,-4.433 -1.41,-38.959 -1.942,-112.886c-0.476,-65.449 -1.2,-110.355 -1.875,-116.498c-3.743,-33.896 -4.249,-56.906 -1.361,-61.579c5.096,-8.246 4.848,-23.013 -0.492,-29.137c-1.027,-1.178 -1.263,-2.588 -0.757,-4.5c2.224,-8.423 1.395,-20.764 -1.669,-24.889c-0.45,-0.604 -0.326,-2.516 0.278,-4.245c0.618,-1.777 0.825,-5.43 0.476,-8.396c-1.384,-11.753 -1.703,-33.578 -0.675,-46.028c0.6,-7.275 1.432,-36.401 1.845,-64.728c0.949,-64.647 0.945,-66.563 -0.143,-94.905c-0.772,-20.082 -0.69,-23.558 0.563,-24.499c0.802,-0.604 1.755,-1.883 2.115,-2.846c0.36,-0.96 1.316,-1.748 2.122,-1.748c2.217,0 2.88,-3.555 1.253,-6.701c-0.799,-1.541 -1.766,-5.348 -2.156,-8.46c-0.994,-7.954 0.72,-8.764 9.506,-4.493c15.202,7.384 47.872,3.222 58.834,-7.492l3.135,-3.068l185.261,0.117c194.34,0.123 211.346,0.483 238.766,5.103c3.023,0.51 9.773,1.632 15,2.498c5.224,0.862 10.399,1.946 11.498,2.407c1.102,0.462 5.827,1.86 10.5,3.109c4.676,1.249 8.928,2.655 9.45,3.124c3.101,2.79 7.511,0.637 16.687,-8.145c7.073,-6.773 19.875,-9.345 25.32,-5.085c0.574,0.446 2.843,1.102 5.044,1.451c2.201,0.353 6.701,1.099 10.001,1.665c11.678,1.995 23.16,2.914 36.499,2.914c13.339,-0 24.821,-0.919 36.499,-2.914c3.3,-0.566 7.8,-1.312 10.001,-1.665c2.201,-0.349 4.47,-1.005 5.044,-1.451c5.445,-4.26 18.247,-1.688 25.32,5.085c9.176,8.782 13.586,10.935 16.687,8.145c0.521,-0.469 4.774,-1.875 9.45,-3.124c4.673,-1.249 9.398,-2.647 10.5,-3.109c1.099,-0.461 6.274,-1.545 11.498,-2.407c5.227,-0.866 11.977,-1.988 15,-2.498c27.247,-4.59 44.595,-4.961 238.683,-5.133l185.183,-0.162l3.004,3.004c11.107,11.104 43.136,15.409 58.237,7.826c9.559,-4.803 11.468,-2.996 9.694,9.184l-1.159,7.939l2.835,3.712l2.831,3.717l0.289,83.703c0.158,46.035 0.75,89.554 1.316,96.702c1.245,15.75 1.418,59.846 0.244,62.265c-0.465,0.956 -1.365,2.741 -1.999,3.971c-1.473,2.85 -1.481,10.327 -0.015,17.614c0.942,4.695 0.889,5.981 -0.296,7.417c-4.867,5.876 -5.632,20.306 -1.481,27.923c0.84,1.545 1.931,3.712 2.423,4.811c1.376,3.094 -1.14,45.191 -3.863,64.53c-0.81,5.771 -1.451,41.917 -2.014,113.471c-0.454,57.75 -1.11,107.573 -1.459,110.719c-0.072,0.654 -0.131,1.243 -0.173,1.78l-1.506,-0l-0,0.001l-16.969,0c-0.418,0 -0.828,-0 -1.231,-0.001l-480.676,-0c-11.625,2.808 -20.753,6.461 -30.748,11.191c-6.956,3.296 -6.956,3.296 -9.649,-3.191c-1.139,-2.742 -2.463,-5.413 -3.957,-8c-0,-0 -2.577,-2.869 -7.335,-7.072c-19.919,11.442 -48.491,18.609 -80.208,18.609c-31.405,-0 -59.725,-7.026 -79.62,-18.274c-4.463,4.019 -6.862,6.737 -6.862,6.737c-1.466,2.774 -2.654,5.614 -3.537,8.499c-1.796,5.868 -1.878,5.88 -11.092,1.623c-9.309,-4.3 -17.338,-7.593 -27.227,-10.122l-483.34,-0c-0.43,0.001 -0.869,0.001 -1.316,0.001l-17.838,0l-0.001,-0.001l-1.719,-0Z" style="fill:#007247;"/></svg>