<?xml version="1.0" encoding="UTF-8" standalone="no"?><!DOCTYPE svg PUBLIC "-//W3C//DTD SVG 1.1//EN" "http://www.w3.org/Graphics/SVG/1.1/DTD/svg11.dtd"><svg width="180" height="252" viewBox="0 0 180 252" version="1.1" xmlns="http://www.w3.org/2000/svg" xmlns:xlink="http://www.w3.org/1999/xlink" xml:space="preserve" xmlns:serif="http://www.serif.com/" style="fill-rule:evenodd;clip-rule:evenodd;stroke-linecap:round;stroke-linejoin:round;stroke-miterlimit:1.5;"><g id="Masks"><path id="Border" d="M0,0l180,0l0,252l-180,0l0,-252Zm100.45,234l67.67,0l0,-11.4c3.204,-2.807 4.727,-7.846 4.8,-10.8l-0,-201.6c-0.343,-1.675 -1.472,-3.146 -3.12,-3.48l-159.6,0c-1.648,0.334 -2.777,1.805 -3.12,3.48l-0,201.6c0.073,2.954 1.596,7.993 4.8,10.8l-0,11.4l67.742,0c1.641,-2.6 5.687,-4.44 10.414,-4.44c4.727,0 8.773,1.84 10.414,4.44Z" style="stroke:#000;stroke-width:0.24px;"/></g></svg>