<?xml version="1.0" encoding="UTF-8" standalone="no"?><!DOCTYPE svg PUBLIC "-//W3C//DTD SVG 1.1//EN" "http://www.w3.org/Graphics/SVG/1.1/DTD/svg11.dtd"><svg width="180" height="252" viewBox="0 0 180 252" version="1.1" xmlns="http://www.w3.org/2000/svg" xmlns:xlink="http://www.w3.org/1999/xlink" xml:space="preserve" xmlns:serif="http://www.serif.com/" style="fill-rule:evenodd;clip-rule:evenodd;stroke-linejoin:round;stroke-miterlimit:2;"><g id="Masks"><path id="frame" d="M168.365,222.378c0.053,-0.05 0.106,-0.101 0.159,-0.152l0.036,-0.035l0.035,-0.035l0.017,-0.018c2.869,-2.87 4.238,-7.54 4.308,-10.338l0,-85.32c-7.654,6.016 -16.326,9.976 -24.6,13.32l-6.973,-0c12.171,-3.817 22.594,-8.911 31.573,-16.2l0,-0.72l-1.92,1.68l0,-88.92l1.92,-1.8l0,-0.84c-1.62,2.149 -4.003,3.612 -6.96,4.56l-0.96,-2.16c3.78,-0.809 6.919,-3.45 7.92,-6.84l0,-3.72c-3.092,0.465 -4.77,1.997 -4.92,4.68l-7.44,-0c-1.32,-1.363 -2.675,-2.439 -4.08,-3.12l-0.84,-0c8.894,6.264 10.586,10.511 10.92,18.48l0,82.92l-2.16,1.2l0,-84.12c0.288,-7.615 -3.789,-13.864 -13.08,-18.48l0,-0.48l-122.64,-0l0,0.48c-9.291,4.616 -13.368,10.865 -13.08,18.48l0,84.12l-2.16,-1.2l0,-82.92c0.334,-7.969 2.026,-12.216 10.92,-18.48l-0.84,-0c-1.405,0.681 -2.76,1.757 -4.08,3.12l-7.44,-0c-0.15,-2.683 -1.828,-4.215 -4.92,-4.68l0,3.72c1.001,3.39 4.14,6.031 7.92,6.84l-0.96,2.16c-2.957,-0.948 -5.34,-2.411 -6.96,-4.56l0,0.84l1.92,1.8l0,88.92l-1.92,-1.68l0,0.72c8.979,7.289 19.402,12.383 31.573,16.2l-6.973,-0c-8.274,-3.344 -16.946,-7.304 -24.6,-13.32l0,85.32c0.073,2.954 1.596,7.993 4.8,10.8l0,-65.64c-4.346,-5.6 -3.891,-11.2 0.36,-16.8l155.52,-0c4.251,5.6 4.706,11.2 0.36,16.8l0,65.64c0.083,-0.072 0.164,-0.146 0.245,-0.222Zm-127.205,-82.818c-8.505,-2.307 -16.746,-5.782 -24.72,-10.44l0,-78.72c1.116,-16.911 10.509,-21.167 29.28,-21.72l88.56,-0c18.771,0.553 28.164,4.809 29.28,21.72l0,78.72c-7.974,4.658 -16.215,8.133 -24.72,10.44l-97.68,-0Zm131.76,-126l0,-3.36c-0.34,-1.662 -1.454,-3.123 -3.081,-3.472l-0.039,-0.008l-65.223,-0c5.687,0.169 15.054,2.979 19.623,5.04l-6.24,-0c-3.975,-1.23 -8.3,-2.47 -12,-2.64l-2.76,2.64l-3.36,-0l3.24,-2.88l-7.08,-0c-2.017,-1.166 -9.983,-1.16 -12,-0l-7.08,-0l3.24,2.88l-3.36,-0l-2.76,-2.64c-3.7,0.17 -8.025,1.41 -12,2.64l-6.24,-0c4.569,-2.061 13.936,-4.871 19.623,-5.04l-65.223,-0c-1.648,0.334 -2.777,1.805 -3.12,3.48l0,3.36c2.8,-0.426 4.465,-1.961 4.92,-4.68l50.52,-0l-7.92,2.88l0,0.6l70.8,-0l0,-0.6l-7.92,-2.88l50.52,-0c0.455,2.719 2.12,4.254 4.92,4.68Z" style="fill:#f6d262;"/></g></svg>