<?xml version="1.0" encoding="UTF-8" standalone="no"?><!DOCTYPE svg PUBLIC "-//W3C//DTD SVG 1.1//EN" "http://www.w3.org/Graphics/SVG/1.1/DTD/svg11.dtd"><svg width="180" height="252" viewBox="0 0 180 252" version="1.1" xmlns="http://www.w3.org/2000/svg" xmlns:xlink="http://www.w3.org/1999/xlink" xml:space="preserve" xmlns:serif="http://www.serif.com/" style="fill-rule:evenodd;clip-rule:evenodd;stroke-linejoin:round;stroke-miterlimit:2;"><g id="Masks"><path id="Title" d="M54.019,12.36c-10.523,3.619 -20.068,8.223 -28.872,13.56l-11.827,-0c-3.169,-4.52 -3.175,-9.04 -0,-13.56l40.699,-0Zm65.713,-0c11.462,3.92 21.988,8.31 30.792,13.56l-121.048,-0c8.803,-5.25 19.329,-9.64 30.792,-13.56l17.167,-0l12.565,11.88l12.565,-11.88l17.167,-0Zm6.249,-0l40.699,-0c3.175,4.52 3.169,9.04 0,13.56l-11.827,-0c-8.805,-5.337 -18.35,-9.941 -28.872,-13.56Zm-35.981,8.76l-9.209,-8.76l18.418,-0l-9.209,8.76Z" style="fill:#ef3827;"/></g></svg>