<?xml version="1.0" encoding="UTF-8" standalone="no"?>
<!DOCTYPE svg PUBLIC "-//W3C//DTD SVG 1.1//EN" "http://www.w3.org/Graphics/SVG/1.1/DTD/svg11.dtd">
<svg width="1500" height="2100" viewBox="0 0 1500 2100" version="1.1" xmlns="http://www.w3.org/2000/svg" xmlns:xlink="http://www.w3.org/1999/xlink" xml:space="preserve" xmlns:serif="http://www.serif.com/" style="fill-rule:evenodd;clip-rule:evenodd;stroke-linejoin:round;stroke-miterlimit:2;">
    <path d="M87,1843.59L87,1487.79C75.238,1472.1 65.428,1446.47 65.001,1417.19C65,1417.06 65,1416.94 65.001,1416.81C65.552,1378.98 81.949,1347.34 97.977,1334.77C100.266,1332.98 103.091,1332 106,1332L1394,1332C1396.91,1332 1399.73,1332.98 1402.02,1334.77C1418.05,1347.34 1434.45,1378.98 1435,1416.81C1435,1416.94 1435,1417.06 1435,1417.19C1434.57,1446.47 1424.76,1472.1 1413,1487.79L1413,1843.59C1408.87,1846.9 1404.54,1850.05 1400,1853L1400,1483.21C1411.64,1469.83 1421.59,1445.28 1422,1417C1421.52,1383.95 1408,1355.98 1394,1345L106,1345C91.996,1355.98 78.481,1383.95 78,1417C78.412,1445.28 88.362,1469.83 100,1483.21L100,1853C95.461,1850.05 91.13,1846.9 87,1843.59ZM106,246C103.091,246 100.266,245.024 97.977,243.229C81.949,230.658 65.552,199.019 65.001,161.189C65,161.063 65,160.937 65.001,160.811C65.552,122.981 81.949,91.342 97.977,78.771C100.266,76.976 103.091,76 106,76L1394,76C1396.91,76 1399.73,76.976 1402.02,78.771C1418.05,91.342 1434.45,122.981 1435,160.811C1435,160.937 1435,161.063 1435,161.189C1434.45,199.019 1418.05,230.658 1402.02,243.229C1399.73,245.024 1396.91,246 1394,246L106,246ZM1394,233C1408,222.016 1421.52,194.052 1422,161C1421.52,127.948 1408,99.984 1394,89L106,89C91.996,99.984 78.481,127.948 78,161C78.481,194.052 91.996,222.016 106,233L1394,233Z"/>
</svg>
