<?xml version="1.0" encoding="UTF-8" standalone="no"?>
<!DOCTYPE svg PUBLIC "-//W3C//DTD SVG 1.1//EN" "http://www.w3.org/Graphics/SVG/1.1/DTD/svg11.dtd">
<svg width="1500" height="2100" viewBox="0 0 1500 2100" version="1.1" xmlns="http://www.w3.org/2000/svg" xmlns:xlink="http://www.w3.org/1999/xlink" xml:space="preserve" xmlns:serif="http://www.serif.com/" style="fill-rule:evenodd;clip-rule:evenodd;stroke-linejoin:round;stroke-miterlimit:2;">
    <path id="Foil-Layer" serif:id="Foil Layer" d="M1432,2019L1432,81L78,81L78,2019L1432,2019ZM818.426,1845L1330,1845L1330,1271L176,1271L176,1845L276.64,1845L198.081,1758.17L294.203,1840.56L303.357,1733L312.512,1840.56L392.613,1771.9L337.686,1838.27C337.686,1838.27 418.851,1792.14 580.427,1792.14C672.66,1792.14 770.068,1825.71 818.426,1845ZM803.869,1845C749.29,1830.23 655.794,1808.37 580.427,1808.37C503.49,1808.37 419.263,1831.4 376.221,1845L803.869,1845ZM1329,210L1329,1136L181,1136L181,210L1329,210Z" style="fill:rgb(239,56,39);"/>
</svg>
