<?xml version="1.0" encoding="UTF-8" standalone="no"?>
<!DOCTYPE svg PUBLIC "-//W3C//DTD SVG 1.1//EN" "http://www.w3.org/Graphics/SVG/1.1/DTD/svg11.dtd">
<svg width="1500" height="2100" viewBox="0 0 1500 2100" version="1.1" xmlns="http://www.w3.org/2000/svg" xmlns:xlink="http://www.w3.org/1999/xlink" xml:space="preserve" xmlns:serif="http://www.serif.com/" style="fill-rule:evenodd;clip-rule:evenodd;stroke-linejoin:round;stroke-miterlimit:2;">
    <rect id="Card" x="0" y="0" width="1500" height="2100" style="fill:none;"/>
    <g id="Card1" serif:id="Card">
        <g id="PT">
            <g id="PT1" serif:id="PT">
                <path d="M1165,1927C1164.87,1901.66 1170.14,1882.15 1183,1865L1399,1865C1411.86,1882.15 1417.13,1901.66 1417,1927L1417,1927C1417.13,1952.34 1411.86,1971.85 1399,1989L1183,1989C1170.15,1971.85 1164.88,1952.34 1165,1927L1165,1927Z"/>
                <path d="M1161,1927.09C1160.89,1953.38 1166.46,1973.59 1179.8,1991.4C1180.56,1992.41 1181.74,1993 1183,1993L1399,1993C1400.26,1993 1401.45,1992.41 1402.2,1991.4C1415.57,1973.57 1421.13,1953.32 1421,1926.98L1421,1926.98C1421.13,1900.66 1415.56,1880.42 1402.2,1862.6C1401.44,1861.59 1400.26,1861 1399,1861L1183,1861C1181.74,1861 1180.56,1861.59 1179.8,1862.6C1166.44,1880.43 1160.87,1900.68 1161,1927.02L1161,1927.09ZM1165.03,1930.97L1165,1931L1165.01,1931L1165.03,1930.97C1165,1929.66 1165,1928.34 1165,1927L1165,1927C1164.87,1901.66 1170.14,1882.15 1183,1865L1399,1865C1411.86,1882.15 1417.13,1901.66 1417,1927L1417,1927C1417.13,1952.34 1411.86,1971.85 1399,1989L1183,1989C1170.83,1972.75 1165.45,1954.4 1165.03,1930.97ZM1417.22,1930.78L1417.01,1931L1417,1931L1417.22,1930.78Z" style="fill:rgb(96,96,96);"/>
            </g>
            <path id="PT2" serif:id="PT" d="M1405.97,1931.03C1405.6,1949.63 1401.86,1964.69 1393.27,1978C1393.27,1978 1291,1978 1291,1978C1291,1978 1188.74,1978 1188.74,1978C1179.54,1963.76 1175.9,1947.51 1176,1927.06L1176,1926.94C1175.9,1906.49 1179.54,1890.24 1188.73,1876C1188.73,1876 1291,1876 1291,1876C1291,1876 1393.27,1876 1393.27,1876C1402.46,1890.24 1406.1,1906.49 1406,1926.94L1406,1927.06C1406.01,1928.36 1406,1929.65 1405.98,1930.92L1402,1926.92C1402.09,1908.23 1399,1893.19 1391.05,1880C1391.05,1880 1291,1880 1291,1880C1291,1880 1208.16,1880 1191.6,1880L1190.95,1880C1183,1893.19 1179.91,1908.23 1180,1926.92L1179.99,1926.93L1179.99,1926.97C1179.98,1927 1179.97,1927.04 1179.96,1927.07L1179.92,1927.15L1180,1927.08C1179.91,1945.77 1183.01,1960.81 1190.95,1974L1291,1974C1291,1974 1373.84,1974 1390.4,1974L1391.05,1974C1399,1960.81 1402.1,1945.77 1402,1927.08L1405.97,1931.03ZM1405.98,1930.92L1405.97,1931.03L1402,1927.03L1405.98,1930.92Z" style="fill:rgb(96,96,96);"/>
        </g>
    </g>
</svg>
