<?xml version="1.0" encoding="UTF-8" standalone="no"?>
<!DOCTYPE svg PUBLIC "-//W3C//DTD SVG 1.1//EN" "http://www.w3.org/Graphics/SVG/1.1/DTD/svg11.dtd">
<svg width="1500" height="2100" viewBox="0 0 1500 2100" version="1.1" xmlns="http://www.w3.org/2000/svg" xmlns:xlink="http://www.w3.org/1999/xlink" xml:space="preserve" xmlns:serif="http://www.serif.com/" style="fill-rule:evenodd;clip-rule:evenodd;stroke-linejoin:round;stroke-miterlimit:2;">
    <rect id="Card" x="0" y="0" width="1500" height="2100" style="fill:none;"/>
    <g id="Card1" serif:id="Card">
        <g id="Planeswalker">
            <path id="Border" d="M0,0L1500,0L1500,2100L0,2100L0,0ZM1408.99,1843.94C1429.57,1820.25 1439.46,1786.67 1440,1765L1440,85C1437.14,71.038 1428.74,62.781 1415,60L85,60C71.263,62.781 62.855,71.038 60,85L60,1765C60.538,1786.67 70.435,1820.25 91.012,1843.94C91.891,1899.26 127.731,1913.14 164.951,1922.87C221.02,1937.53 259.54,1946.63 387,1957C399.847,1944.05 422.871,1937.61 455,1937L1045,1937C1077.13,1937.61 1100.15,1944.05 1113,1957C1240.46,1946.63 1278.98,1937.53 1335.05,1922.87C1372.27,1913.14 1408.11,1899.26 1408.99,1843.94Z"/>
            <g id="regular">
                <g id="pinline">
                    <path d="M93.665,206.44C88.845,204.828 84.347,202.033 80.674,198.38C74.624,192.36 71.039,184.204 71,176.386C71,176.36 71,176.333 71,176.307C71,176.307 71,134.571 71.001,134.712C70.798,111.674 81.035,90.404 95.347,76.956C106.044,66.906 118.996,61.192 131.762,61.002C131.841,61.001 131.921,61 132,61C132,61 1368,61 1368.24,61.002C1381,61.192 1393.96,66.906 1404.65,76.956C1418.96,90.404 1429.2,111.674 1429,134.571C1429,134.571 1429,176.307 1429,176.386C1428.96,184.204 1425.38,192.36 1419.33,198.38C1415.51,202.178 1410.8,205.048 1405.76,206.626C1386.5,217.853 1382.52,230.445 1385.03,245.741C1420.53,462.268 1427.71,860.4 1395.05,1141.28C1395.06,1152.39 1396.71,1165.39 1410.42,1185.47C1421.64,1198.82 1429.17,1217.3 1429,1236.98C1429,1236.98 1429,1278.71 1429,1278.79C1428.96,1286.37 1425.59,1294.26 1419.88,1300.22C1413.75,1308.65 1409.47,1316.05 1409,1330L1409,1843C1408.51,1899.1 1372.48,1913.09 1335.05,1922.87C1278.98,1937.53 1240.46,1946.63 1113,1957C1100.15,1944.05 1077.13,1937.61 1045,1937L455,1937C422.871,1937.61 399.847,1944.05 387,1957C259.54,1946.63 221.02,1937.53 164.951,1922.87C127.521,1913.09 91.487,1899.1 91,1843L91,1330C90.53,1316.05 86.247,1308.65 80.124,1300.23C74.407,1294.27 71.038,1286.37 71,1278.79C71,1278.77 71,1278.74 71,1278.71C71,1278.71 71,1236.98 71.001,1237.12C70.855,1220.52 76.131,1204.83 84.446,1192.33L84.347,1192.36C84.599,1192.03 84.849,1191.7 85.097,1191.37C85.942,1190.14 86.817,1188.94 87.719,1187.78C102.91,1166.37 104.683,1152.8 104.697,1141.28C72.038,860.4 79.218,462.268 114.718,245.741C117.239,230.359 113.206,217.712 93.665,206.44ZM198,1310.41L1366,1310.41C1379.41,1312.83 1386.81,1320.47 1388.6,1333L1388.6,1879C1363.02,1915.93 1300.97,1919.81 1221,1926L365,1926C285.033,1919.81 200.978,1915.93 175.406,1879L175.406,1333C177.187,1320.47 184.593,1312.83 198,1310.41ZM103,1294.41C94.852,1294.4 87.038,1286.4 87,1278.71L87,1236.98C86.731,1206.44 109.361,1179.74 132,1179.41L1368,1179.41C1390.64,1179.74 1413.27,1206.44 1413,1236.98L1413,1278.71C1412.96,1286.4 1405.15,1294.4 1397,1294.41L103,1294.41ZM168,208C143.083,212.287 142.57,231.851 142.57,231.851C96.847,407.216 82.857,940.144 136.443,1130.77C142.916,1143.71 138.575,1161.65 176,1163.41L176,1163.41L1323.75,1163.41L1323.75,1163.41C1361.17,1161.65 1356.83,1143.71 1363.3,1130.77C1416.89,940.144 1402.9,407.216 1357.18,231.851C1357.18,231.851 1356.66,212.287 1331.75,208L168,208ZM103,192C94.852,191.996 87.038,183.999 87,176.307L87,134.571C86.731,104.037 109.361,77.337 132,77L1368,77C1390.64,77.337 1413.27,104.037 1413,134.571L1413,176.307C1412.96,183.999 1405.15,191.996 1397,192L103,192Z"/>
                    <path d="M67.001,134.711L67,135.842C67,142.5 67,176.307 67,176.307C67,176.34 67,176.373 67,176.406C67.044,185.218 71.034,194.432 77.853,201.216C81.863,205.205 86.755,208.276 92.002,210.099L92.002,210.1C100.694,215.169 106.046,220.455 108.863,226.289C111.644,232.048 111.889,238.272 110.77,245.093C75.237,461.829 68.029,860.292 100.696,1141.51C100.658,1152.4 98.807,1165.22 84.509,1185.39C83.588,1186.58 82.7,1187.8 81.84,1189.04C81.621,1189.34 81.393,1189.64 81.162,1189.94C80.96,1190.21 80.795,1190.49 80.67,1190.79C72.201,1203.8 66.856,1219.99 67.001,1237.12L67,1238.25C67,1244.91 67,1278.71 67,1278.71C67,1278.75 67,1278.78 67,1278.81C67.042,1287.27 70.718,1296.1 77.045,1302.79C82.619,1310.49 86.554,1317.31 86.999,1330.05C87,1330.07 87,1843 87,1843C87,1843.01 87,1843.02 87,1843.04C87.205,1866.63 93.508,1883.1 103.374,1895.08C117.975,1912.8 140.645,1920.65 163.939,1926.74C220.182,1941.44 258.821,1950.58 386.676,1960.99C387.851,1961.08 389.009,1960.65 389.84,1959.82C402.141,1947.42 424.282,1941.59 455.039,1941C455.039,1941 1044.96,1941 1044.96,1941C1075.72,1941.59 1097.86,1947.42 1110.16,1959.82C1110.99,1960.65 1112.15,1961.08 1113.33,1960.99C1241.18,1950.58 1279.82,1941.44 1336.06,1926.74C1359.36,1920.65 1382.03,1912.8 1396.63,1895.08C1406.49,1883.1 1412.8,1866.63 1413,1843.04C1413,1843.02 1413,1843.01 1413,1843L1413,1330.07C1413.44,1317.32 1417.38,1310.49 1422.96,1302.79C1429.28,1296.1 1432.96,1287.27 1433,1278.81C1433,1278.81 1433,1278.81 1433,1278.8C1433,1278.72 1433,1237.92 1433,1236.99C1433.18,1216.4 1425.32,1197.06 1413.61,1183.05C1400.79,1164.22 1399.09,1151.98 1399.05,1141.51C1431.72,860.292 1424.51,461.829 1388.98,245.093C1387.86,238.309 1388.1,232.115 1390.84,226.382C1393.61,220.59 1398.86,215.338 1407.4,210.302C1412.87,208.508 1417.98,205.357 1422.15,201.216C1428.97,194.432 1432.96,185.218 1433,176.406C1433,176.402 1433,176.399 1433,176.396C1433,176.318 1433,135.503 1433,134.586C1433.21,110.523 1422.43,88.174 1407.39,74.041C1395.92,63.26 1381.99,57.206 1368.3,57.002C1368.29,57.002 1368.28,57.002 1368.27,57.002C1368.03,57 132,57 132,57C131.901,57 131.801,57.001 131.702,57.002C118.008,57.206 104.082,63.26 92.608,74.041C77.571,88.17 66.798,110.508 67.001,134.711ZM83.275,1194.14L81.364,1190.58C81.416,1189.69 81.93,1188.93 83.238,1188.52C83.898,1188.31 84.171,1190.48 84.28,1192.58L84.446,1192.33L84.347,1192.36C84.599,1192.03 84.849,1191.7 85.097,1191.37C85.942,1190.14 86.817,1188.94 87.719,1187.78C102.91,1166.37 104.683,1152.8 104.697,1141.28C72.038,860.4 79.218,462.268 114.718,245.741C117.239,230.359 113.206,217.712 93.665,206.44C88.845,204.828 84.347,202.033 80.674,198.38C74.624,192.36 71.039,184.204 71,176.386C71,176.36 71,176.333 71,176.307C71,176.307 71,134.571 71.001,134.712C70.798,111.674 81.035,90.404 95.347,76.956C106.044,66.906 118.996,61.192 131.762,61.002C131.841,61.001 131.921,61 132,61C132,61 1368,61 1368.24,61.002C1381,61.192 1393.96,66.906 1404.65,76.956C1418.96,90.404 1429.2,111.674 1429,134.571C1429,134.571 1429,176.307 1429,176.386C1428.96,184.204 1425.38,192.36 1419.33,198.38C1415.51,202.178 1410.8,205.048 1405.76,206.626C1386.5,217.853 1382.52,230.445 1385.03,245.741C1420.53,462.268 1427.71,860.4 1395.05,1141.28C1395.06,1152.39 1396.71,1165.39 1410.42,1185.47C1421.64,1198.82 1429.17,1217.3 1429,1236.98C1429,1236.98 1429,1278.71 1429,1278.79C1428.96,1286.37 1425.59,1294.26 1419.88,1300.22C1413.75,1308.65 1409.47,1316.05 1409,1330L1409,1843C1408.51,1899.1 1372.48,1913.09 1335.05,1922.87C1278.98,1937.53 1240.46,1946.63 1113,1957C1100.15,1944.05 1077.13,1937.61 1045,1937L455,1937C422.871,1937.61 399.847,1944.05 387,1957C259.54,1946.63 221.02,1937.53 164.951,1922.87C127.521,1913.09 91.487,1899.1 91,1843L91,1330C90.53,1316.05 86.247,1308.65 80.124,1300.23C74.407,1294.27 71.038,1286.37 71,1278.79C71,1278.77 71,1278.74 71,1278.71C71,1278.71 71,1236.98 71.001,1237.12C70.862,1221.31 75.639,1206.33 83.275,1194.14ZM198,1310.41L1366,1310.41C1379.41,1312.83 1386.81,1320.47 1388.6,1333L1388.6,1879C1363.02,1915.93 1300.97,1919.81 1221,1926L365,1926C285.033,1919.81 200.978,1915.93 175.406,1879L175.406,1333C177.187,1320.47 184.593,1312.83 198,1310.41ZM198.368,1314.41L1365.63,1314.41C1376.76,1316.52 1383.02,1322.86 1384.59,1333.29C1384.6,1333.29 1384.6,1877.73 1384.6,1877.73C1374.81,1891.24 1359.68,1899.89 1340.39,1905.9C1309.58,1915.51 1268.41,1918.32 1220.85,1922C1220.85,1922 365.154,1922 365.154,1922C317.471,1918.31 268.337,1915.47 231.163,1905.85C207.891,1899.82 189.37,1891.26 179.406,1877.72C179.406,1877.72 179.406,1333.29 179.406,1333.29C180.98,1322.86 187.238,1316.52 198.363,1314.41L198.368,1314.41ZM103,1294.41C94.852,1294.4 87.038,1286.4 87,1278.71L87,1236.98C86.731,1206.44 109.361,1179.74 132,1179.41L1368,1179.41C1390.64,1179.74 1413.27,1206.44 1413,1236.98L1413,1278.71C1412.96,1286.4 1405.15,1294.4 1397,1294.41L103,1294.41ZM103.002,1290.41C99.953,1290.4 97.007,1288.82 94.78,1286.61C92.572,1284.41 91.016,1281.55 91,1278.7C91,1278.7 91,1236.98 91,1236.98C91,1236.96 91,1236.95 91,1236.94C90.849,1219.8 98.393,1203.94 109.042,1193.94C115.841,1187.55 123.906,1183.54 132.021,1183.41C132.033,1183.41 1367.97,1183.41 1367.97,1183.41C1376.09,1183.54 1384.15,1187.55 1390.96,1193.94C1401.61,1203.94 1409.15,1219.8 1409,1236.94C1409,1236.95 1409,1236.96 1409,1236.98L1409,1278.7C1408.98,1281.55 1407.43,1284.41 1405.22,1286.61C1402.99,1288.82 1400.05,1290.4 1397,1290.41L103.002,1290.41ZM175.378,1163.37L174.795,1159.59C175.421,1159.39 175.722,1161.33 175.867,1163.33L175.872,1163.4L176,1163.41L176,1163.41L1323.75,1163.41L1323.75,1163.41C1361.17,1161.65 1356.83,1143.71 1363.3,1130.77C1416.89,940.144 1402.9,407.216 1357.18,231.851C1357.18,231.851 1356.66,212.287 1331.75,208L168,208C143.083,212.287 142.57,231.851 142.57,231.851C96.847,407.216 82.857,940.144 136.443,1130.77C142.879,1143.64 138.623,1161.45 175.378,1163.37ZM1323.61,1159.41L176.104,1159.41C162.555,1158.76 154.971,1156.03 150.465,1151.93C147.287,1149.03 145.766,1145.51 144.56,1141.92C143.128,1137.66 142.105,1133.29 140.194,1129.33C86.85,938.851 100.852,407.709 146.441,232.86C146.518,232.565 146.561,232.261 146.569,231.956C146.569,231.956 147.357,215.779 168.346,212.001L168.349,212L1331.4,212C1352.39,215.78 1353.18,231.956 1353.18,231.956C1353.18,232.261 1353.23,232.565 1353.31,232.86C1398.89,407.709 1412.9,938.85 1359.55,1129.33C1357.64,1133.28 1356.62,1137.66 1355.19,1141.92C1353.98,1145.51 1352.46,1149.03 1349.28,1151.93C1344.77,1156.03 1337.18,1158.76 1323.61,1159.41ZM103,192C94.852,191.996 87.038,183.999 87,176.307L87,134.571C86.731,104.037 109.361,77.337 132,77L1368,77C1390.64,77.337 1413.27,104.037 1413,134.571L1413,176.307C1412.96,183.999 1405.15,191.996 1397,192L103,192ZM103.002,188C99.953,187.999 97.007,186.417 94.78,184.201C92.572,182.005 91.016,179.145 91,176.293C91,176.292 91,134.571 91,134.571C91,134.559 91,134.547 91,134.536C90.849,117.395 98.393,101.537 109.042,91.532C115.841,85.143 123.906,81.133 132.021,81C132.033,81 1367.97,81 1367.97,81C1376.09,81.129 1384.15,85.14 1390.96,91.532C1401.61,101.537 1409.15,117.395 1409,134.536C1409,134.547 1409,134.559 1409,134.571L1409,176.292C1408.98,179.145 1407.43,182.005 1405.22,184.201C1402.99,186.417 1400.05,187.999 1397,188L103.002,188Z" style="fill:rgb(96,96,96);"/>
                </g>
                <g id="twins">
                    <path d="M103,1294.41C94.852,1294.4 87.038,1286.4 87,1278.71L87,1236.98C86.731,1206.44 109.361,1179.74 132,1179.41L1368,1179.41C1390.64,1179.74 1413.27,1206.44 1413,1236.98L1413,1278.71C1412.96,1286.4 1405.15,1294.4 1397,1294.41L103,1294.41ZM103,192C94.852,191.996 87.038,183.999 87,176.307L87,134.571C86.731,104.037 109.361,77.337 132,77L1368,77C1390.64,77.337 1413.27,104.037 1413,134.571L1413,176.307C1412.96,183.999 1405.15,191.996 1397,192L103,192Z"/>
                    <path d="M102.998,1298.41L1397,1298.41C1402.1,1298.4 1407.14,1295.99 1410.86,1292.28C1414.61,1288.55 1416.98,1283.57 1417,1278.73C1417,1278.73 1417,1278.72 1417,1278.71L1417,1236.99C1417.17,1217.5 1408.55,1199.49 1396.44,1188.11C1388.07,1180.25 1378.04,1175.56 1368.06,1175.41C1368.04,1175.41 1368.02,1175.41 1368,1175.41L132,1175.41C131.98,1175.41 131.96,1175.41 131.94,1175.41C121.957,1175.56 111.929,1180.25 103.564,1188.11C91.454,1199.49 82.834,1217.5 83,1236.99C83,1236.99 83,1278.71 83,1278.71C83,1278.72 83,1278.73 83,1278.73C83.024,1283.57 85.392,1288.55 89.138,1292.28C92.864,1295.99 97.898,1298.4 102.998,1298.41ZM103,1294.41C94.852,1294.4 87.038,1286.4 87,1278.71L87,1236.98C86.731,1206.44 109.361,1179.74 132,1179.41L1368,1179.41C1390.64,1179.74 1413.27,1206.44 1413,1236.98L1413,1278.71C1412.96,1286.4 1405.15,1294.4 1397,1294.41L103,1294.41ZM102.998,196L1397,196C1402.1,195.998 1407.14,193.58 1410.86,189.873C1414.61,186.147 1416.98,181.166 1417,176.327C1417,176.32 1417,176.314 1417,176.307L1417,134.586C1417.17,115.095 1408.55,97.08 1396.44,85.702C1388.07,77.842 1378.04,73.149 1368.06,73C1368.04,73 1368.02,73 1368,73L132,73C131.98,73 131.96,73 131.94,73C121.957,73.149 111.929,77.842 103.564,85.702C91.454,97.08 82.834,115.095 83,134.586C83,134.586 83,176.307 83,176.307C83,176.314 83,176.32 83,176.327C83.024,181.166 85.392,186.147 89.138,189.873C92.864,193.58 97.898,195.998 102.998,196ZM103,192C94.852,191.996 87.038,183.999 87,176.307L87,134.571C86.731,104.037 109.361,77.337 132,77L1368,77C1390.64,77.337 1413.27,104.037 1413,134.571L1413,176.307C1412.96,183.999 1405.15,191.996 1397,192L103,192Z" style="fill:rgb(96,96,96);"/>
                </g>
            </g>
            <g id="loyalty">
                <g id="Loyalty">
                    <path d="M1428,1877C1410.06,1901.1 1402.45,1926.77 1409,1956L1314,1989L1219,1956C1225.55,1926.77 1217.94,1901.1 1200,1877L1282,1847L1282.16,1847.32C1288.79,1860.78 1300.21,1868.28 1314,1869L1314.33,1868.98C1328.08,1868.16 1339.44,1860.56 1346,1847L1428,1877Z"/>
                    <path d="M1282.62,1848.23C1283.27,1845.72 1284.39,1842.78 1285.6,1845.25L1285.75,1845.55C1291.65,1857.54 1301.76,1864.29 1314.01,1864.99L1314.09,1864.99C1326.4,1864.25 1336.53,1857.39 1342.4,1845.26C1343.29,1843.41 1345.44,1842.54 1347.37,1843.24L1429.37,1873.24C1430.56,1873.68 1431.47,1874.65 1431.83,1875.86C1432.19,1877.07 1431.96,1878.38 1431.21,1879.39C1414.01,1902.5 1406.63,1927.1 1412.9,1955.13C1413.35,1957.11 1412.23,1959.11 1410.31,1959.78L1315.31,1992.78C1314.46,1993.07 1313.54,1993.07 1312.69,1992.78L1217.69,1959.78C1215.77,1959.11 1214.65,1957.11 1215.1,1955.13C1221.38,1927.1 1213.99,1902.5 1196.79,1879.39C1196.04,1878.38 1195.81,1877.07 1196.17,1875.86C1196.53,1874.65 1197.44,1873.68 1198.63,1873.24L1280.63,1843.24C1278.8,1843.91 1277.72,1845.79 1278.06,1847.7C1278.1,1847.93 1278.16,1848.16 1278.25,1848.37L1200,1877C1217.94,1901.1 1225.55,1926.77 1219,1956L1314,1989L1409,1956C1402.45,1926.77 1410.06,1901.1 1428,1877L1346,1847C1339.44,1860.56 1328.08,1868.16 1314.33,1868.98L1314,1869C1301.46,1868.35 1290.88,1862.08 1284.07,1850.83C1284.67,1850.5 1285.18,1850.03 1285.55,1849.43C1285.97,1848.75 1286.18,1847.98 1286.15,1847.2C1286.14,1848.73 1284.95,1849.82 1283.87,1850.49C1283.44,1849.76 1283.02,1849 1282.62,1848.23Z" style="fill:rgb(96,96,96);"/>
                </g>
                <g id="Loyalty1" serif:id="Loyalty">
                    <path d="M1314.98,1880.96L1315.04,1880.96C1329.64,1880.09 1342.26,1873.52 1351.11,1861.65C1351.11,1861.65 1409.59,1883.04 1409.59,1883.04C1397.74,1903.27 1392.53,1924.65 1395.44,1948.01C1395.44,1948.01 1314,1976.3 1314,1976.3L1232.56,1948.01C1235.47,1924.65 1230.26,1903.27 1218.41,1883.04C1218.41,1883.04 1276.88,1861.65 1276.88,1861.65C1285.83,1873.63 1298.6,1880.21 1313.38,1880.98C1313.58,1881 1313.79,1881 1314,1881L1314.57,1880.98L1314.68,1880.98C1314.75,1880.97 1314.81,1880.97 1314.86,1880.97L1314.97,1880.96L1314.99,1880.96L1314.98,1880.96L1314.97,1880.96L1314.57,1880.98C1314.49,1880.98 1314.41,1880.98 1314.33,1880.98L1314.98,1880.96ZM1232.56,1948.01L1232.56,1948.01L1232.56,1948.01Z"/>
                    <path d="M1228.59,1947.52L1228.59,1947.51C1231.39,1925.06 1226.35,1904.51 1214.96,1885.07L1215.11,1885.3C1215.11,1885.3 1217.05,1879.28 1217.05,1879.28C1217.05,1879.28 1217.73,1879.03 1218.67,1878.69C1228.15,1875.22 1275.51,1857.89 1275.51,1857.89C1277.17,1857.29 1279.03,1857.84 1280.09,1859.26C1288.3,1870.26 1300.03,1876.28 1313.58,1876.99L1313.97,1877C1314.05,1876.99 1314.13,1876.99 1314.21,1876.98L1314.82,1876.97C1328.2,1876.16 1339.78,1870.14 1347.91,1859.26C1348.92,1857.9 1350.62,1857.37 1352.15,1857.79L1352.51,1857.9C1352.61,1857.94 1353.18,1858.14 1354.13,1858.49C1363.6,1861.96 1410.96,1879.29 1410.96,1879.29C1412.08,1879.69 1412.95,1880.57 1413.35,1881.69C1413.76,1882.81 1413.64,1884.04 1413.04,1885.07C1401.65,1904.51 1396.61,1925.06 1399.41,1947.51L1399.24,1947.52C1399.38,1947.91 1399.43,1948.17 1399.43,1948.17C1399.37,1949.87 1398.24,1951.29 1396.7,1951.8L1394.47,1952.58C1381.28,1957.16 1315.31,1980.08 1315.31,1980.08C1314.46,1980.37 1313.54,1980.37 1312.69,1980.08L1231.25,1951.79C1230.18,1951.42 1229.36,1950.63 1228.92,1949.65C1228.87,1949.56 1228.83,1949.46 1228.79,1949.36L1228.7,1949.1L1228.6,1948.67L1228.57,1948.36L1228.56,1948.04L1228.59,1947.53C1228.73,1946.58 1232.53,1951.97 1232.56,1952.01C1232.54,1951.97 1228.72,1946.55 1228.59,1947.52L1228.59,1947.53L1228.59,1947.53L1228.59,1947.52L1228.59,1947.52ZM1314.58,1880.98L1314,1881C1313.79,1881 1313.58,1881 1313.38,1880.98L1312.98,1880.96C1312.58,1879.8 1312.42,1878.65 1312.9,1877.88L1312.96,1877.79C1313.13,1877.54 1313.37,1877.34 1313.69,1877.19L1313.66,1877.21C1312.33,1877.8 1312.43,1879.38 1312.96,1880.96C1298.37,1880.09 1285.75,1873.52 1276.88,1861.65C1276.88,1861.65 1218.41,1883.04 1218.41,1883.04C1230.26,1903.27 1235.47,1924.65 1232.56,1948.01L1314,1976.3C1314,1976.3 1395.44,1948.01 1395.44,1948.01C1392.53,1924.65 1397.74,1903.27 1409.59,1883.04C1409.59,1883.04 1351.11,1861.65 1351.11,1861.65C1342.33,1873.41 1329.86,1879.97 1315.43,1880.93C1315.57,1878.94 1315.54,1876.95 1314.88,1876.97L1314.85,1876.97C1315.51,1876.95 1315.54,1878.94 1315.4,1880.94L1315.04,1880.96L1314.98,1880.96L1314.64,1880.97L1314.59,1876.99L1314.58,1880.98L1314.33,1880.98C1314.41,1880.98 1314.49,1880.98 1314.57,1880.98L1314.58,1880.98ZM1228.91,1949.64L1228.92,1949.65C1229.89,1951.6 1232.53,1952 1232.56,1952.01L1228.91,1949.64ZM1314.64,1880.98L1314.99,1880.96L1314.64,1880.98ZM1314.33,1877.02C1314.01,1877.06 1313.75,1877.15 1313.53,1877.26L1313.66,1877.21L1314.03,1877.08L1314.33,1877.02L1314.33,1877.02ZM1314.59,1876.98L1314.33,1877.02L1314.59,1876.98ZM1314.76,1876.97L1314.59,1876.98L1314.59,1876.99L1314.59,1876.98L1314.77,1876.97L1314.76,1876.97ZM1314.81,1876.97L1314.78,1876.97L1314.81,1876.97L1314.81,1876.97L1314.85,1876.97L1314.84,1876.97L1314.81,1876.97ZM1314.77,1876.97L1314.76,1876.97L1314.77,1876.97L1314.77,1876.97ZM1314.78,1876.97L1314.77,1876.97L1314.78,1876.97L1314.78,1876.97ZM1314.83,1876.97L1314.82,1876.97L1314.86,1876.97L1314.83,1876.97Z" style="fill:rgb(96,96,96);"/>
                </g>
            </g>
        </g>
    </g>
</svg>
