<?xml version="1.0" encoding="UTF-8" standalone="no"?>
<!DOCTYPE svg PUBLIC "-//W3C//DTD SVG 1.1//EN" "http://www.w3.org/Graphics/SVG/1.1/DTD/svg11.dtd">
<svg width="1500" height="2100" viewBox="0 0 1500 2100" version="1.1" xmlns="http://www.w3.org/2000/svg" xmlns:xlink="http://www.w3.org/1999/xlink" xml:space="preserve" xmlns:serif="http://www.serif.com/" style="fill-rule:evenodd;clip-rule:evenodd;stroke-linejoin:round;stroke-miterlimit:2;">
    <rect id="Card" x="0" y="0" width="1500" height="2100" style="fill:none;"/>
    <g id="Card1" serif:id="Card">
        <path id="Border" d="M0,0L1500,0L1500,2100L0,2100L0,0ZM85,60C71.263,62.781 62.855,71.038 60,85L60,1765C60.611,1789.61 73.299,1829.61 100,1853L100,1948L1400,1948L1400,1853C1426.7,1829.61 1439.39,1789.61 1440,1765L1440,85C1437.14,71.038 1428.74,62.781 1415,60L85,60Z"/>
        <g id="Transform">
            <g id="Pinlines--Transform---Back-" serif:id="Pinlines (Transform - Back)">
                <path d="M100,217.978C82.973,204.808 72,184.175 72,161C72,121.262 104.262,89 144,89L1394,89C1408,99.984 1421.52,127.948 1422,161C1421.59,189.276 1411.64,213.828 1400,227.213L1400,1175.79C1411.64,1189.17 1421.59,1213.72 1422,1242C1421.59,1270.28 1411.64,1294.83 1400,1308.21L1400,1948L100,1948L100,1308.21C88.362,1294.83 78.412,1270.28 78,1242C78.412,1213.72 88.362,1189.17 100,1175.79L100,217.978ZM1389,1314L1389,1937L111,1937L111,1314L1389,1314ZM1388.24,1181.01C1389.44,1181.08 1390.56,1181.69 1391.26,1182.68C1405.33,1202.45 1410.29,1222.23 1410.29,1242C1410.29,1261.77 1405.33,1281.55 1391.26,1301.32C1390.51,1302.37 1389.29,1303 1388,1303L112,1303C110.706,1303 109.492,1302.37 108.741,1301.32C94.667,1281.55 89.714,1261.77 89.714,1242C89.714,1222.23 94.667,1202.45 108.741,1182.68C109.492,1181.63 110.706,1181 112,1181L1388,1181L1388.24,1181.01ZM111,233L1389,233L1389,1170L111,1170L111,233ZM1388,222L182.244,222C202.516,209.256 216,186.691 216,161C216,135.309 202.516,112.744 182.244,100L1388,100C1389.29,100 1390.51,100.626 1391.26,101.68C1405.33,121.453 1410.29,141.227 1410.29,161C1410.29,180.773 1405.33,200.547 1391.26,220.32C1390.51,221.374 1389.29,222 1388,222Z"/>
                <path d="M96,219.909L96,1174.32C84.325,1188.46 74.417,1213.35 74,1241.94C74,1241.98 74,1242.02 74,1242.06C74.417,1270.65 84.325,1295.54 96,1309.68C96,1343.41 96,1948 96,1948C96,1950.21 97.791,1952 100,1952L1400,1952C1402.21,1952 1404,1950.21 1404,1948L1404,1309.68C1415.67,1295.54 1425.58,1270.65 1426,1242.06C1426,1242.02 1426,1241.98 1426,1241.94C1425.58,1213.35 1415.67,1188.45 1404,1174.32C1404,1174.32 1404,228.679 1404,228.679C1415.67,214.541 1425.58,189.649 1426,161.058C1426,161.019 1426,160.981 1426,160.942C1425.5,126.42 1411.1,97.325 1396.47,85.853C1395.76,85.3 1394.89,85 1394,85L144,85C102.054,85 68,119.054 68,161C68,184.75 78.916,205.971 96,219.909ZM100,217.978C82.973,204.808 72,184.175 72,161C72,121.262 104.262,89 144,89L1394,89C1408,99.984 1421.52,127.948 1422,161C1421.59,189.276 1411.64,213.828 1400,227.213L1400,1175.79C1411.64,1189.17 1421.59,1213.72 1422,1242C1421.59,1270.28 1411.64,1294.83 1400,1308.21L1400,1948L100,1948L100,1308.21C88.362,1294.83 78.412,1270.28 78,1242C78.412,1213.72 88.362,1189.17 100,1175.79L100,217.978ZM1389,1314L1389,1937L111,1937L111,1314L1389,1314ZM1385,1318L1385,1933C1385,1933 192.98,1933 115,1933C115,1933 115,1318 115,1318C115,1318 1385,1318 1385,1318L1385,1318ZM1386.15,1181L1388,1181L1388.24,1181.01C1389.44,1181.08 1390.56,1181.69 1391.26,1182.68C1405.33,1202.45 1410.29,1222.23 1410.29,1242C1410.29,1261.77 1405.33,1281.55 1391.26,1301.32C1390.51,1302.37 1389.29,1303 1388,1303L112,1303C110.706,1303 109.492,1302.37 108.741,1301.32C94.667,1281.55 89.714,1261.77 89.714,1242C89.714,1222.23 94.667,1202.45 108.741,1182.68C109.492,1181.63 110.706,1181 112,1181L1384,1181C1384,1183.21 1385.79,1185 1388,1185C1388,1185 1386.77,1183 1386.15,1181ZM1387.95,1185L1388,1185C1401.52,1204 1406.29,1223 1406.29,1242C1406.29,1261 1401.52,1280 1388,1299L112,1299C113.294,1299 111.25,1297.95 112,1299C98.476,1280 93.714,1261 93.714,1242C93.714,1223 98.476,1204 112,1185L1387.95,1185ZM111,233L1389,233L1389,1170L111,1170L111,233ZM115,237L1385,237C1385,237 1385,1166 1385,1166C1385,1166 115,1166 115,1166C115,1166 115,237 115,237L115,237ZM1388,222L182.244,222C202.516,209.256 216,186.691 216,161C216,135.309 202.516,112.744 182.244,100L1388,100C1389.29,100 1390.51,100.626 1391.26,101.68C1405.33,121.453 1410.29,141.227 1410.29,161C1410.29,180.773 1405.33,200.547 1391.26,220.32C1390.51,221.374 1389.29,222 1388,222ZM1388,104L1388.63,104.891C1401.67,123.593 1406.29,142.296 1406.29,161C1406.29,180 1401.52,199 1388,218L194.249,218C210.037,204.07 220,183.689 220,161C220,138.311 210.037,117.93 194.25,104C319.808,104 1388,104 1388,104C1386.71,104 1388.75,105.054 1388,104Z" style="fill:rgb(96,96,96);"/>
            </g>
            <path id="Twins--Transform-" serif:id="Twins (Transform)" d="M1388.32,1185.44C1401.6,1204.3 1406.29,1223.15 1406.29,1242C1406.29,1261 1401.52,1280 1388,1299L112,1299C98.476,1280 93.714,1261 93.714,1242C93.714,1223 98.476,1204 112,1185L1388,1185L1388.32,1185.44ZM194.249,218C210.037,204.07 220,183.689 220,161C220,138.311 210.037,117.93 194.25,104L1388,104C1401.52,123 1406.29,142 1406.29,161C1406.29,180 1401.52,199 1388,218L194.249,218Z"/>
            <g id="Flip-Icon" serif:id="Flip Icon">
                <circle cx="144" cy="161" r="55"/>
                <path d="M144,100C110.333,100 83,127.333 83,161C83,194.667 110.333,222 144,222C177.667,222 205,194.667 205,161C205,127.333 177.667,100 144,100ZM144,106C174.355,106 199,130.645 199,161C199,191.355 174.355,216 144,216C113.645,216 89,191.355 89,161C89,130.645 113.645,106 144,106Z" style="fill:rgb(96,96,96);"/>
            </g>
        </g>
    </g>
</svg>
