<?xml version="1.0" encoding="UTF-8" standalone="no"?><!DOCTYPE svg PUBLIC "-//W3C//DTD SVG 1.1//EN" "http://www.w3.org/Graphics/SVG/1.1/DTD/svg11.dtd"><svg width="34" height="21" viewBox="0 0 34 21" version="1.1" xmlns="http://www.w3.org/2000/svg" xmlns:xlink="http://www.w3.org/1999/xlink" xml:space="preserve" xmlns:serif="http://www.serif.com/" style="fill-rule:evenodd;clip-rule:evenodd;stroke-linejoin:round;stroke-miterlimit:2;"><g><g id="neutral"><path d="M34,2.222c-4.533,5.471 -4.44,11.07 0,16.787c-11.157,1.58 -22.351,1.616 -34,0c4.03,-5.536 4.206,-11.129 0,-16.787c11.467,-1.947 22.656,-1.865 34,-0Zm-3.479,1.501c-1.284,2.252 -1.896,4.527 -1.886,6.808c0.009,2.278 0.642,4.584 1.924,6.903c-8.947,1.028 -17.943,1.041 -27.213,-0.017c2.357,-4.527 2.422,-9.087 -0.019,-13.685c9.144,-1.272 18.132,-1.23 27.194,-0.009l0,0Z"/><path d="M13.834,14.837c-0.803,-1.068 -1.205,-2.513 -1.205,-4.337c0,-1.824 0.402,-3.269 1.205,-4.337c0.803,-1.067 1.858,-1.601 3.166,-1.601c1.308,0 2.363,0.534 3.166,1.601c0.803,1.068 1.205,2.513 1.205,4.337c-0,1.824 -0.402,3.269 -1.205,4.337c-0.803,1.067 -1.858,1.601 -3.166,1.601c-1.308,-0 -2.363,-0.534 -3.166,-1.601Zm1.39,-6.185c-0.027,0.503 -0.041,1.118 -0.041,1.848c0,0.73 0.014,1.345 0.041,1.848c0.026,0.502 0.079,0.967 0.157,1.395c0.078,0.428 0.184,0.767 0.319,1.015c0.135,0.249 0.308,0.44 0.521,0.575c0.212,0.135 0.472,0.202 0.779,0.202c0.307,0 0.567,-0.067 0.779,-0.202c0.213,-0.135 0.386,-0.326 0.521,-0.575c0.135,-0.248 0.241,-0.587 0.319,-1.015c0.078,-0.428 0.131,-0.893 0.157,-1.395c0.027,-0.503 0.041,-1.118 0.041,-1.848c-0,-0.73 -0.014,-1.345 -0.041,-1.848c-0.026,-0.502 -0.079,-0.967 -0.157,-1.395c-0.078,-0.428 -0.184,-0.767 -0.319,-1.015c-0.135,-0.249 -0.308,-0.44 -0.521,-0.575c-0.212,-0.135 -0.472,-0.202 -0.779,-0.202c-0.307,-0 -0.567,0.067 -0.779,0.202c-0.213,0.135 -0.386,0.326 -0.521,0.575c-0.135,0.248 -0.241,0.587 -0.319,1.015c-0.078,0.428 -0.131,0.893 -0.157,1.395Z" style="fill-rule:nonzero;"/></g></g></svg>