<?xml version="1.0" encoding="UTF-8" standalone="no"?><!DOCTYPE svg PUBLIC "-//W3C//DTD SVG 1.1//EN" "http://www.w3.org/Graphics/SVG/1.1/DTD/svg11.dtd"><svg width="34" height="21" viewBox="0 0 34 21" version="1.1" xmlns="http://www.w3.org/2000/svg" xmlns:xlink="http://www.w3.org/1999/xlink" xml:space="preserve" xmlns:serif="http://www.serif.com/" style="fill-rule:evenodd;clip-rule:evenodd;stroke-linejoin:round;stroke-miterlimit:2;"><g><g id="plus"><path d="M16.613,20.89c-6.837,0.01 -11.311,-0.51 -16.613,-2.15c2.705,-2.67 3.658,-7.09 1.675,-12.61l15.265,-6.13l15.265,6.13c-1.983,5.52 -1.03,9.94 1.675,12.61c-5.386,1.66 -9.918,2.18 -16.94,2.15l-0.327,-0Zm0.336,-2l-0.131,-0c-0.076,-0 -0.146,0.01 -0.21,0.02l0,-0.02c-5.387,0.01 -9.254,-0.32 -13.278,-1.3c1.443,-2.68 1.883,-6.18 0.802,-10.3l12.808,-5.14l12.808,5.14c-1.081,4.12 -0.641,7.62 0.801,10.3c-4.103,1 -8.044,1.32 -13.6,1.3Z"/><g><path d="M7.754,12.443l-0,-1.652l3.013,0l-0,-3.053l1.716,-0l-0,3.053l3.021,0l0,1.652l-3.021,-0l-0,3.053l-1.716,0l-0,-3.053l-3.013,-0Z" style="fill-rule:nonzero;"/><path d="M16.898,16.221l1.426,-1.748l0.048,0.016c0,0.575 0.134,1.059 0.403,1.454c0.269,0.395 0.666,0.592 1.192,0.592c0.505,0 0.891,-0.182 1.157,-0.547c0.265,-0.366 0.398,-0.887 0.398,-1.563c0,-0.489 -0.056,-0.919 -0.169,-1.29c-0.113,-0.37 -0.321,-0.68 -0.624,-0.93c-0.304,-0.25 -0.694,-0.375 -1.172,-0.375l-0.887,-0.838l0,-0.064l0.411,-0c0.462,-0 0.858,-0.135 1.189,-0.404c0.33,-0.269 0.569,-0.598 0.717,-0.988c0.147,-0.39 0.221,-0.809 0.221,-1.255c0,-0.608 -0.119,-1.063 -0.358,-1.364c-0.239,-0.302 -0.56,-0.452 -0.963,-0.452c-0.473,-0 -0.83,0.185 -1.072,0.557c-0.241,0.371 -0.362,0.817 -0.362,1.339l-0.049,0.016l-1.321,-1.436c0.779,-0.919 1.808,-1.379 3.086,-1.379c0.993,0 1.814,0.238 2.461,0.712c0.647,0.475 0.971,1.143 0.971,2.007c-0,0.694 -0.21,1.285 -0.628,1.775c-0.419,0.49 -0.914,0.823 -1.483,1.001l0,0.064c0.763,0.188 1.371,0.517 1.825,0.987c0.454,0.47 0.681,1.092 0.681,1.865c-0,1.075 -0.345,1.921 -1.036,2.538c-0.69,0.618 -1.653,0.927 -2.888,0.927c-1.305,-0 -2.363,-0.406 -3.174,-1.217Z" style="fill-rule:nonzero;"/></g></g></g></svg>