<?xml version="1.0" encoding="UTF-8" standalone="no"?><!DOCTYPE svg PUBLIC "-//W3C//DTD SVG 1.1//EN" "http://www.w3.org/Graphics/SVG/1.1/DTD/svg11.dtd"><svg width="34" height="21" viewBox="0 0 34 21" version="1.1" xmlns="http://www.w3.org/2000/svg" xmlns:xlink="http://www.w3.org/1999/xlink" xml:space="preserve" xmlns:serif="http://www.serif.com/" style="fill-rule:evenodd;clip-rule:evenodd;stroke-linejoin:round;stroke-miterlimit:2;"><g><g id="plus"><path d="M16.613,20.89c-6.837,0.01 -11.311,-0.51 -16.613,-2.15c2.705,-2.67 3.658,-7.09 1.675,-12.61l15.265,-6.13l15.265,6.13c-1.983,5.52 -1.03,9.94 1.675,12.61c-5.386,1.66 -9.918,2.18 -16.94,2.15l-0.327,-0Zm0.336,-2l-0.131,-0c-0.076,-0 -0.146,0.01 -0.21,0.02l0,-0.02c-5.387,0.01 -9.254,-0.32 -13.278,-1.3c1.443,-2.68 1.883,-6.18 0.802,-10.3l12.808,-5.14l12.808,5.14c-1.081,4.12 -0.641,7.62 0.801,10.3c-4.103,1 -8.044,1.32 -13.6,1.3Z"/><g><path d="M6.779,12.443l-0,-1.652l3.013,0l-0,-3.053l1.716,-0l-0,3.053l3.021,0l0,1.652l-3.021,-0l-0,3.053l-1.716,0l-0,-3.053l-3.013,-0Z" style="fill-rule:nonzero;"/><path d="M16.672,9.412c0,-0.706 0.179,-1.355 0.536,-1.95c0.357,-0.594 0.826,-1.059 1.406,-1.395c0.58,-0.337 1.198,-0.505 1.853,-0.505c0.43,0 0.842,0.054 1.237,0.162c0.394,0.108 0.777,0.286 1.148,0.534c0.37,0.249 0.693,0.556 0.966,0.923c0.274,0.367 0.493,0.832 0.657,1.393c0.164,0.561 0.246,1.187 0.246,1.878c-0,0.926 -0.122,1.773 -0.367,2.541c-0.244,0.769 -0.584,1.424 -1.019,1.968c-0.435,0.543 -0.955,1.002 -1.559,1.377c-0.604,0.374 -1.262,0.651 -1.974,0.831c-0.711,0.179 -1.47,0.269 -2.276,0.269l0,-0.653c1.338,-0.011 2.382,-0.378 3.134,-1.102c0.752,-0.724 1.22,-1.829 1.402,-3.314l-1.482,0.646l-0.58,-0c-0.994,-0 -1.797,-0.339 -2.409,-1.015c-0.613,-0.677 -0.919,-1.54 -0.919,-2.588Zm2.393,-0.604c0,1.149 0.167,1.987 0.5,2.514c0.333,0.527 0.87,0.79 1.611,0.79l0.918,0c0.049,-0.609 0.073,-1.053 0.073,-1.334c-0,-1.515 -0.145,-2.612 -0.435,-3.293c-0.29,-0.68 -0.723,-1.02 -1.297,-1.02c-0.29,-0 -0.541,0.117 -0.754,0.353c-0.212,0.236 -0.368,0.528 -0.467,0.878c-0.099,0.349 -0.149,0.72 -0.149,1.112Z" style="fill-rule:nonzero;"/></g></g></g></svg>