<?xml version="1.0" encoding="UTF-8" standalone="no"?><!DOCTYPE svg PUBLIC "-//W3C//DTD SVG 1.1//EN" "http://www.w3.org/Graphics/SVG/1.1/DTD/svg11.dtd"><svg width="34" height="21" viewBox="0 0 34 21" version="1.1" xmlns="http://www.w3.org/2000/svg" xmlns:xlink="http://www.w3.org/1999/xlink" xml:space="preserve" xmlns:serif="http://www.serif.com/" style="fill-rule:evenodd;clip-rule:evenodd;stroke-linejoin:round;stroke-miterlimit:2;"><g><g id="minus"><path d="M16.613,0.001c-6.837,-0.01 -11.311,0.51 -16.613,2.15c2.705,2.67 3.658,7.09 1.675,12.61l15.265,6.13l15.265,-6.13c-1.983,-5.52 -1.03,-9.94 1.675,-12.61c-5.386,-1.66 -9.918,-2.18 -16.94,-2.15l-0.327,0Zm0.336,2l-0.131,0c-0.076,0 -0.146,-0.01 -0.21,-0.02l0,0.02c-5.387,-0.01 -9.254,0.32 -13.278,1.3c1.443,2.68 1.883,6.18 0.802,10.3l12.808,5.14l12.808,-5.14c-1.081,-4.12 -0.641,-7.62 0.801,-10.3c-4.103,-1 -8.044,-1.32 -13.6,-1.3Z"/><g><path d="M8.064,11.152l-0,-0.065l1.087,-1.748l6.381,-0l0,0.064l-1.087,1.749l-6.381,-0Z" style="fill-rule:nonzero;"/><path d="M15.041,15.212c1.686,-2.005 2.971,-3.735 3.855,-5.192c0.883,-1.457 1.325,-2.704 1.325,-3.741c0,-0.597 -0.141,-1.048 -0.423,-1.355c-0.282,-0.306 -0.64,-0.459 -1.075,-0.459c-0.505,-0 -0.888,0.18 -1.148,0.54c-0.261,0.36 -0.391,0.801 -0.391,1.322c-0,0.312 0.045,0.592 0.137,0.839l-0.049,0.056l-1.836,-2.314c0.424,-0.4 0.927,-0.725 1.51,-0.973c0.583,-0.249 1.207,-0.373 1.873,-0.373c0.5,0 0.975,0.065 1.426,0.193c0.452,0.129 0.854,0.312 1.209,0.551c0.354,0.238 0.636,0.549 0.846,0.933c0.209,0.383 0.314,0.813 0.314,1.29c0,0.452 -0.077,0.88 -0.23,1.286c-0.153,0.406 -0.398,0.825 -0.737,1.258c-0.338,0.433 -0.682,0.835 -1.031,1.206c-0.349,0.371 -0.82,0.869 -1.414,1.495c-0.593,0.627 -1.121,1.217 -1.583,1.77l4.06,0l0.049,-0.016l0.822,-1.796l0.064,-0l0,3.545l-7.541,-0l-0.032,-0.065Z" style="fill-rule:nonzero;"/></g></g></g></svg>