<?xml version="1.0" encoding="UTF-8" standalone="no"?><!DOCTYPE svg PUBLIC "-//W3C//DTD SVG 1.1//EN" "http://www.w3.org/Graphics/SVG/1.1/DTD/svg11.dtd"><svg width="34" height="21" viewBox="0 0 34 21" version="1.1" xmlns="http://www.w3.org/2000/svg" xmlns:xlink="http://www.w3.org/1999/xlink" xml:space="preserve" xmlns:serif="http://www.serif.com/" style="fill-rule:evenodd;clip-rule:evenodd;stroke-linejoin:round;stroke-miterlimit:2;"><g><g id="minus"><path d="M16.613,0.001c-6.837,-0.01 -11.311,0.51 -16.613,2.15c2.705,2.67 3.658,7.09 1.675,12.61l15.265,6.13l15.265,-6.13c-1.983,-5.52 -1.03,-9.94 1.675,-12.61c-5.386,-1.66 -9.918,-2.18 -16.94,-2.15l-0.327,0Zm0.336,2l-0.131,0c-0.076,0 -0.146,-0.01 -0.21,-0.02l0,0.02c-5.387,-0.01 -9.254,0.32 -13.278,1.3c1.443,2.68 1.883,6.18 0.802,10.3l12.808,5.14l12.808,-5.14c-1.081,-4.12 -0.641,-7.62 0.801,-10.3c-4.103,-1 -8.044,-1.32 -13.6,-1.3Z"/><g><path d="M6.851,11.152l0,-0.065l1.088,-1.748l6.381,-0l-0,0.064l-1.088,1.749l-6.381,-0Z" style="fill-rule:nonzero;"/><path d="M15.641,12.133c-0,-1.565 0.798,-2.54 2.393,-2.926l-0,-0.064c-0.586,-0.18 -1.07,-0.48 -1.454,-0.9c-0.384,-0.42 -0.576,-0.987 -0.576,-1.701c-0,-0.889 0.366,-1.608 1.099,-2.157c0.733,-0.548 1.637,-0.823 2.711,-0.823c1.075,0 1.978,0.275 2.711,0.823c0.734,0.549 1.1,1.268 1.1,2.157c0,0.714 -0.192,1.281 -0.576,1.701c-0.384,0.42 -0.869,0.72 -1.454,0.9l-0,0.064c1.595,0.386 2.393,1.361 2.393,2.926c-0,0.995 -0.387,1.795 -1.16,2.399c-0.774,0.604 -1.778,0.906 -3.014,0.906c-1.235,-0 -2.239,-0.302 -3.013,-0.906c-0.773,-0.604 -1.16,-1.404 -1.16,-2.399Zm2.473,0.127c0,0.681 0.143,1.231 0.427,1.649c0.285,0.418 0.709,0.626 1.273,0.626c0.564,0 0.989,-0.208 1.273,-0.626c0.285,-0.418 0.427,-0.968 0.427,-1.649c0,-1.502 -0.566,-2.459 -1.7,-2.871c-1.133,0.418 -1.7,1.374 -1.7,2.871Zm0.282,-5.829c0,0.698 0.128,1.285 0.383,1.761c0.255,0.475 0.6,0.793 1.035,0.951c0.435,-0.158 0.78,-0.476 1.036,-0.951c0.255,-0.476 0.382,-1.063 0.382,-1.761c0,-0.634 -0.127,-1.121 -0.382,-1.459c-0.256,-0.338 -0.601,-0.507 -1.036,-0.507c-0.435,-0 -0.78,0.169 -1.035,0.507c-0.255,0.338 -0.383,0.825 -0.383,1.459Z" style="fill-rule:nonzero;"/></g></g></g></svg>