<svg xmlns="http://www.w3.org/2000/svg" width="600" height="600" version="1.1"><circle cx="300" cy="300" r="300" fill="#cbc2bf"/><g transform="translate(-293.43,298.22)"><path d="m805.5-210.4c54.3 54.3 87.9 129.3 87.9 212.2 0 165.7-134.3 300-300 300-82.8 0-157.8-33.6-212.1-87.9" fill="#9bd3ae"/><path d="m613-129.5c0 16.2-5.9 27.3-17.7 33.2-3.4 1.7-14.2 4.1-32.4 7-11.8 2-17.7 6.5-17.7 13.6l0 29.8c0 1.3 0.4 5.1 1.1 11.4l1.1 11.8c0 3.7-0.9 9.7-2.6 18.1-4.7 1-10.1 2.1-16.2 3.3-2-7.4-2.9-12.4-2.9-15.1 0-1.2 0.3-3.1 0.9-5.5 0.6-2.4 0.9-4.3 0.9-5.5 0-1.7-1.5-6.5-4.6-14.4l-5.7 0c-0.7 1.2-1 2.8-0.8 4.8 1 4.2 1.4 7.7 1.1 10.7-4.2 2.9-9.9 6.9-17.3 11.8-1.7-0.5-2.3-0.7-1.8-0.7l0-26.1c-0.5-1.2-1.7-1.7-3.7-1.5l-4.4 0-4.4 34.6c-3.4 0.2-7.6 0.2-12.5 0-1.7-8.1-4.8-20.1-9.2-36.1l-3 0c-2.7 8.6-4.2 13.3-4.4 14 0 1 0.3 2.9 0.9 5.7 0.6 2.8 0.9 4.7 0.9 5.7 0 0.7-0.2 2.6-0.7 5.5l-1.1 8.8c-0.5 0.5-1.1 0.7-1.8 0.7-7.4 0-12.3-1.8-14.7-5.5-2.5-3.7-3.4-8.9-3-15.5l3-44.2c0-0.7 0.2-1.7 0.7-3 0.5-1.2 0.7-2.1 0.7-2.6 0-2-2.1-5.9-6.3-11.8-0.7-0.2-4.5-1.1-11.4-2.6-4.2-1-12.4-2.7-24.7-5.1-16.9-3.2-25.4-16.8-25.4-40.9 0-35.9 14.7-65.7 44.2-89.5 1.2 6.6 3.3 15.5 6.3 26.5 2.2 0.5 7 1.6 14.4 3.3 1.5 0.5 9 3.2 22.5 8.1-6.9-4.2-15.8-10.9-26.9-20.3-4.2-4.9-6.3-13.1-6.3-24.7 0-2.7 4.7-5.9 14-9.6 8.3-3.4 14.6-5.4 18.8-5.9 13.3-1.7 23.4-2.6 30.6-2.6 30.7 0 55.5 7.9 74.4 23.6-6.1 7.1-16.7 14.7-31.7 22.8 5.9 0.2 14.5-2.1 25.8-7 11.3-4.9 16.1-7.4 14.4-7.4 2 0 5.9 3.9 11.8 11.8 4.4 5.9 8 11.2 10.7 15.8 7.9 14 13.1 29.1 15.9 45.3 0 5.6 0.1 9.7 0.4 12.1l0 2.9 0 0zm-141.1 6.6c0-10.6-4.6-20.6-13.8-30-9.2-9.5-19.1-14.2-29.7-14.2-9.3 0-17.5 4-24.7 11.9-7.1 7.9-10.7 16.7-10.7 26.3 0 8.4 4 13.9 12.2 16.3 5.2 1.5 12.4 2.4 21.7 2.6l20.3 0c16.5 0.2 24.7-4.1 24.7-12.9m40.2 45.7 0-11.4c-1.7-3.2-3.4-6.5-5.1-10-1.5-4.9-4.2-11.8-8.1-20.6l-4.1 43.1c0 3.4-0.7 5.2-2.2 5.2-1 0-1.7-0.2-2.2-0.7-1.7-26-2.6-37.3-2.6-33.9l0-12.9c-0.5-0.8-1.1-1.1-1.8-1.1-8.3 8.6-12.5 22.5-12.5 41.6 0 10.6 1 17.1 2.9 19.5 2-0.5 4.2-1.4 6.6-2.6 1-0.5 3.8-0.7 8.5-0.7 4.7 0 10.3 1.5 16.9 4.4 2.5 0 3.7-6.6 3.7-19.9m83.3-51.3c0-9.9-3.7-18.7-11.1-26.5-7.4-7.8-15.8-11.7-25.4-11.7-10.3 0-20 4.7-28.9 14.2-9 9.4-13.5 19.3-13.5 29.7 0 8.6 4.2 12.9 12.5 12.9l42.4 0c16-0.2 23.9-6.4 23.9-18.5" fill="#130c0e"/><path d="m830.6 107.5c0 4.5-1.8 8.6-5.3 12.3-3.5 3.6-7.5 5.4-12.1 5.4-7.2 0-12.6-3.4-16-10.2l-16-0.7c-3.4 0-10.1 1.5-20.1 4.4-10.7 2.9-16.8 5.3-18.4 7.1-2.5 2.7-4.5 9.1-6.1 19.1-1.4 8.2-2 14.2-2 18 0 6.1 1 10.6 2.9 13.4 1.9 2.8 5.9 5.2 11.9 7.1 6 1.9 9.7 3 11.1 3.2 0.9 0 2.4-0.1 4.4-0.3l4.1 0c2.9 0 6 0.5 9.2 1.4 4.5 1.4 6.5 3.2 5.8 5.4-3.2-0.4-8.7 0.2-16.7 2l9.5 4.8c0 2.7-3.9 4.1-11.6 4.1-2.1 0-4.8-0.4-8.3-1.3-3.5-0.9-5.9-1.4-7-1.4l-4.4 0c-0.2 2.3-0.9 5.7-2 10.2-3.9-0.2-8.4-2.5-13.6-6.8-5.2-4.3-8.5-6.5-9.9-6.5-1.4 0-3.3 2.2-5.8 6.5-2.5 4.3-3.7 7.2-3.7 8.9-2.9-1.6-5.4-4.5-7.5-8.8-0.9-3-1.9-5.9-3.1-8.9-2.3 0.2-6.5 5-12.6 14.3l-1.7 0c-0.5-0.7-2.2-5.4-5.1-14.3-7-2.2-13.6-3.4-19.7-3.4-2.9 0-7.5 0.7-13.6 2l-9.5-0.7c1.4-1.4 5.3-4 11.9-7.8 7.7-4.5 13.6-6.8 17.7-6.8 0.7 0 1.6 0.1 2.7 0.4 1.1 0.2 2 0.3 2.7 0.3 1.6 0 4.1-0.9 7.7-2.6 3.5-1.7 5.6-3.2 6.1-4.6 0.6-1.4 0.9-4.9 0.9-10.6 0-12.9-3.4-22.6-10.2-28.9-5.9-5.7-15.6-9.7-29.3-12.3-3.6 12.9-13.8 19.4-30.6 19.4-5.5 0-10.9-3.3-16.3-9.9-5.4-6.6-8.2-12.6-8.2-18 0-8.4 3.5-15.3 10.5-20.8-5.7-5.9-8.5-11.9-8.5-18 0-5.7 1.8-10.7 5.3-15 3.5-4.3 8.1-6.8 13.8-7.5-0.4-7.2 1.9-12.3 7.1-15-2.5-2.5-3.7-6.9-3.7-13.3 0-7.5 2.5-13.7 7.5-18.7 5-5 11.2-7.5 18.7-7.5 8.2 0 14.9 2.9 20.1 8.5 6.6-22.5 20.8-33.7 42.5-33.7 11.3 0 21.3 4.5 29.9 13.6 3.2 3.4 4.8 5.2 4.8 5.4-2.7 0-1.3-0.5 4.1-1.5 5.5-1 9.4-1.5 11.9-1.5 8.8 0 16.7 3.3 23.5 9.9 5.9 5.9 10 13.4 12.3 22.5 1.6 0.2 4.1 0.9 7.5 2 5 2.5 7.5 6.8 7.5 12.9 0 1.1-0.9 3.3-2.7 6.5 14.5 8.2 21.8 19.5 21.8 34 0 4.1-1.6 9.8-4.8 17 5.9 3.4 8.9 8.4 8.9 15m-140.2 15 0-4.4c0-5.2-2.5-10-7.6-14.3-5.1-4.3-10.3-6.5-15.5-6.5-6.4 0-12.3 1.5-17.7 4.4 12-0.7 25.6 6.2 40.8 20.8m-6.1-42.2c-3.4-3.9-6.3-7.8-8.8-11.9-9.5 2.5-14.3 5.3-14.3 8.5 2.7-0.2 6.7 0.3 11.9 1.5 5.2 1.3 9 1.9 11.2 1.9m20.8-10.6 0-15c-5.5-0.9-8.8-1.4-9.9-1.4l0 5.1 9.9 11.2m44.2-9.5c-2.7-1.1-7.8-3.4-15.3-6.8l0 29.3c10.7-6.1 15.8-13.6 15.3-22.5m18.7 40.2-7.5-9.2c-4.5 3.2-9.1 6.4-13.8 9.7-4.6 3.3-8.7 7-12.1 11.1 10.2-5.5 21.3-9.3 33.3-11.6" fill="#00160b"/></g></svg>