<svg xmlns="http://www.w3.org/2000/svg" width="600" height="600" version="1.1"><circle cx="300" cy="300" r="300" fill="#9b8e8a"/><path d="m465.4 299.6c0.3-32.1-9.8-64.4-29.8-89.6-9.6-10.6-17.6-22.7-27.8-32.8-22.5-22.4-56.2-23.8-83.4-37.9-1.6-14.1-6.7-28.3-3.6-42.6 1-4.7 2.4-9.6-0.2-14.1-7.1-16.4-1-34.2-2.3-51.3C317.4 22.4 318 11.5 309.5 6c-2 18.6-8.8 35.9-14.4 53.5-2.6 13.7-2.6 28.1-8.5 41 3.8 13.1-3.7 24.2-11.7 33.9-17.8 9.1-39 11.3-54.5 24.7-11 9.4-23 17.6-35.3 25.2-9.3 11.6-19.5 22.8-23.7 37.4-16.6 20-18.5 46.9-27.9 70.3-0.2 34.8 6.9 72.3 29.1 100.2 15.9 13.1 27 30.8 42.9 43.9 15.2 9.1 31.5 16.6 47.2 24.8 10.3 2.4 20.9 3.6 31.1 6.4 8.3 42.7 13.9 86.4 30.6 126.8 5.5-16.6 4.8-34.4 9.6-51.2 6.7-24.8-7.1-50.6 0.7-75 11.6-10.4 31-3.6 43.9-12.6 24.6-15.1 50.5-29.9 68.3-53 6.6-13.3 20.6-23.3 20.6-39.2 0.1-21.5 12.7-41.7 7.9-63.4m-182.2 131.6c-17.8-4.3-34.4-12.8-49.3-23.2-16.1-10.7-22-30.7-37.9-41.6-14.8-17.7-11.6-41.9-17.7-62.9 2.4-14.6 5.3-29.1 6.8-43.9 7.2-11.7 18.4-21.1 21.5-35.2 10.6-15.2 26.7-25.7 39.7-38.9 9.4-10.9 24.4-6.3 36.8-6.7-1.2 12-2.2 24.4 0.8 36.3 1.5 7.3 4.7 14.4 3.6 22.1-2.5 16.2 3.6 32.4-0.7 48.4-8.7 33.5 0.8 67.3 1.6 101-1.2 14.9-1.9 30-5.3 44.7m134.9-63.4c-11.8 8.4-21.8 18.7-32.1 28.7-17.9 12.4-35.5 25.4-56.8 31.6 1.9-15.2 3.8-30.8-1-45.6-11.9-33.6 2.7-68.7 5.1-102.6-2.2-20.2-0.1-41.7-9.3-60.3-1.2-14 4.8-27.4 8.9-40.6 14.1 5.6 27.3 13.2 39 22.9 14.1 10.6 35.8 17.4 38.9 37.2 1.6 13 15.8 20.8 15.4 34.1-0.9 31.5 3.5 64.5-8 94.6" fill="#231f20"/></svg>