<svg xmlns="http://www.w3.org/2000/svg" width="600" height="600" version="1.1"><circle cx="300" cy="300" r="300" fill="#cbc2bf"/><g transform="translate(-230.58,338.22)"><path d="m742.7-250.4c54.3 54.3 87.9 129.3 87.9 212.2 0 165.7-134.3 300-300 300-82.8 0-157.8-33.6-212.1-87.9" fill="#f9aa8f"/><path d="m760.4 108.4c-10.3 24.6-30.8 36.9-61.4 36.9-5.6 0-11.7 0.7-18.3 2.1-9.8 2.1-14.7 5-14.7 8.8 0 1.2 0.8 2.5 2.5 4 1.6 1.5 3 2.3 4.2 2.3-5.9 0-1.9 0.2 11.9 0.5 13.8 0.4 22.5 0.5 26 0.5-20.4 11.9-54.4 17.4-102.2 16.5-15.7-0.2-29.1-7.1-40.4-20.7-11-12.9-16.5-27.3-16.5-43.2 0-16.9 5.7-31.2 17-43 11.3-11.8 25.5-17.7 42.3-17.7 3.7 0 8.7 0.8 14.9 2.4 6.2 1.6 10.4 2.5 12.5 2.5 8.7 0 19.4-3.6 32.3-10.7 12.9-7.1 19-10.7 18.3-10.7-2.3 24.6-10.5 41.1-24.6 49.5-10.1 5.9-15.1 11.6-15.1 17.2 0 3.5 2.1 6.3 6.3 8.4 3.3 1.6 6.9 2.4 10.9 2.4 6.1 0 12.1-3.7 17.9-11.2 5.8-7.5 8.4-14.3 7.7-20.4-0.7-7-0.2-15.5 1.4-25.3 0.5-2.8 2.2-6.3 5.1-10.4 2.9-4.1 5.6-6.6 7.9-7.6 0 2.1-0.8 5.6-2.3 10.5-1.5 4.9-2.3 8.6-2.3 10.9 0 5.2 1.4 9.1 4.2 11.9 4.2-1.6 7.9-6.9 11.2-15.8 2.8-6.8 4.4-13.3 4.9-19.6-9.8-0.5-19.3-4.9-28.3-13.4-9-8.4-13.5-17.5-13.5-27.4 0-1.6 0.2-3.3 0.7-4.9 1.4 2.1 3.5 5.4 6.3 9.8 4 5.9 7 8.8 9.1 8.8 2.8 0 4.2-2.9 4.2-8.8 0-7.5-2-14.3-6-20.4-4.5-7.3-10.2-10.9-17.2-10.9-3.3 0-8.2 1.8-14.7 5.3-6.6 3.5-12.5 5.3-17.9 5.3-1.6 0-8.9-2.1-21.8-6.3 22.7-3.7 34.1-7.1 34.1-10.2 0-7.9-15.6-13.3-46.7-16.1-3-0.2-8.7-0.7-16.9-1.4 0.9-1.2 7.6-2.4 20-3.9 10.5-1.2 17.9-1.8 22.1-1.8 55.7 0 91.1 27 106 81.1 2.6-2.1 3.9-5.7 3.9-10.7 0-6.4-1.9-14.5-5.6-24.2-1.4-3.8-3.6-9.5-6.7-17.1 19.2 24.5 28.8 47.6 28.8 69.5 0 11.5-2.7 22-8.1 31.4-3.5 6.4-10.1 14.5-19.7 24.4-9.6 9.9-16.1 17.5-19.7 22.9 12.9-3.5 21.3-6.2 25.3-8.1 8.9-4 17-10 24.2-17.9 0 3.1-1.3 7.6-3.9 13.7M607.3-29.5c0 4.2-2.3 6.9-7 8.1l-9.1 1.4c-3.3 1.6-8.1 8.1-14.4 19.3-0.7-3.5-1.8-8.4-3.2-14.7-2.1 0.2-5.6 2.1-10.5 5.6-2.1 1.6-5.5 4.1-10.2 7.4 1.4-8.4 6.1-17 14.1-25.6 8.4-9.6 16.6-14.4 24.6-14.4 10.5 0 15.8 4.3 15.8 13m61.1 32.3c0 4-2.2 7.3-6.5 10-4.3 2.7-8.6 4-12.8 4-5.6 0-10.7-3.1-15.1-9.5-5.4-7.7-10.9-12.7-16.5-15.1 1.2-1.2 2.6-1.8 4.2-1.8 2.1 0 5.7 1.6 10.7 4.9 5 3.3 8.3 4.9 9.7 4.9 1.2 0 3.1-1.6 5.8-4.9 2.7-3.3 5.7-4.9 9-4.9 7.7 0 11.6 4.1 11.6 12.3" fill="#200000"/><path d="m550.1-169.5c0 16.2-5.9 27.3-17.7 33.2-3.4 1.7-14.2 4.1-32.4 7-11.8 2-17.7 6.5-17.7 13.6l0 29.8c0 1.3 0.4 5.1 1.1 11.4l1.1 11.8c0 3.7-0.9 9.7-2.6 18.1-4.7 1-10.1 2.1-16.2 3.3-2-7.4-2.9-12.4-2.9-15.1 0-1.2 0.3-3.1 0.9-5.5 0.6-2.4 0.9-4.3 0.9-5.5 0-1.7-1.5-6.5-4.6-14.4l-5.7 0c-0.8 1.2-1 2.8-0.8 4.8 1 4.2 1.4 7.7 1.1 10.7-4.2 2.9-9.9 6.9-17.3 11.8-1.7-0.5-2.3-0.7-1.8-0.7l0-26.1c-0.5-1.2-1.7-1.7-3.7-1.5l-4.4 0-4.4 34.6c-3.4 0.2-7.6 0.2-12.5 0-1.7-8.1-4.8-20.1-9.2-36.1l-3 0c-2.7 8.6-4.2 13.3-4.4 14 0 1 0.3 2.9 0.9 5.7 0.6 2.8 0.9 4.7 0.9 5.7 0 0.7-0.3 2.6-0.7 5.5l-1.1 8.8c-0.5 0.5-1.1 0.7-1.8 0.7-7.4 0-12.3-1.8-14.7-5.5-2.5-3.7-3.5-8.9-3-15.5l3-44.2c0-0.7 0.2-1.7 0.7-3 0.5-1.2 0.7-2.1 0.7-2.6 0-2-2.1-5.9-6.3-11.8-0.7-0.2-4.5-1.1-11.4-2.6-4.2-1-12.4-2.7-24.7-5.1-16.9-3.2-25.4-16.8-25.4-40.9 0-35.9 14.7-65.7 44.2-89.5 1.2 6.6 3.3 15.5 6.3 26.5 2.2 0.5 7 1.6 14.4 3.3 1.5 0.5 9 3.2 22.5 8.1-6.9-4.2-15.8-10.9-26.9-20.3-4.2-4.9-6.3-13.1-6.3-24.7 0-2.7 4.7-5.9 14-9.6 8.3-3.4 14.6-5.4 18.8-5.9 13.3-1.7 23.4-2.6 30.6-2.6 30.7 0 55.5 7.9 74.4 23.6-6.1 7.1-16.7 14.7-31.7 22.8 5.9 0.2 14.5-2.1 25.8-7 11.3-4.9 16.1-7.4 14.4-7.4 2 0 5.9 3.9 11.8 11.8 4.4 5.9 8 11.2 10.7 15.8 7.9 14 13.1 29.1 15.8 45.3 0 5.6 0.1 9.7 0.4 12.1l0 2.9m-141.1 6.6c0-10.6-4.6-20.6-13.8-30-9.2-9.5-19.1-14.2-29.7-14.2-9.3 0-17.5 4-24.7 11.9-7.1 7.9-10.7 16.7-10.7 26.3 0 8.4 4.1 13.9 12.2 16.3 5.2 1.5 12.4 2.4 21.7 2.6l20.3 0c16.5 0.2 24.7-4.1 24.7-12.9m40.2 45.7 0-11.4c-1.7-3.2-3.4-6.5-5.1-10-1.5-4.9-4.2-11.8-8.1-20.6l-4.1 43.1c0 3.4-0.7 5.2-2.2 5.2-1 0-1.7-0.2-2.2-0.7-1.7-26-2.6-37.3-2.6-33.9l0-12.9c-0.5-0.8-1.1-1.1-1.8-1.1-8.3 8.6-12.5 22.5-12.5 41.6 0 10.6 1 17.1 2.9 19.5 2-0.5 4.2-1.4 6.6-2.6 1-0.5 3.8-0.7 8.5-0.7 4.7 0 10.3 1.5 16.9 4.4 2.5 0 3.7-6.6 3.7-19.9m83.3-51.3c0-9.9-3.7-18.7-11-26.5-7.4-7.8-15.8-11.7-25.4-11.7-10.3 0-20 4.7-28.9 14.2-9 9.4-13.5 19.3-13.5 29.7 0 8.6 4.2 12.9 12.5 12.9l42.4 0c16-0.2 24-6.4 24-18.5" fill="#130c0e"/></g></svg>