<?xml version="1.0" encoding="utf-8"?>
<!-- Generator: Adobe Illustrator 16.0.3, SVG Export Plug-In . SVG Version: 6.00 Build 0)  -->
<!DOCTYPE svg PUBLIC "-//W3C//DTD SVG 1.1//EN" "http://www.w3.org/Graphics/SVG/1.1/DTD/svg11.dtd">
<svg version="1.1"
	 id="svg4136" xmlns:dc="http://purl.org/dc/elements/1.1/" xmlns:cc="http://creativecommons.org/ns#" xmlns:rdf="http://www.w3.org/1999/02/22-rdf-syntax-ns#" xmlns:svg="http://www.w3.org/2000/svg" sodipodi:docname="energy2.svg" inkscape:version="0.91 r13725" xmlns:inkscape="http://www.inkscape.org/namespaces/inkscape" xmlns:sodipodi="http://sodipodi.sourceforge.net/DTD/sodipodi-0.dtd"
	 xmlns="http://www.w3.org/2000/svg" xmlns:xlink="http://www.w3.org/1999/xlink" x="0px" y="0px" width="480px" height="486.75px"
	 viewBox="0 0 480 486.75" enable-background="new 0 0 480 486.75" xml:space="preserve">
<sodipodi:namedview  id="namedview4138" inkscape:current-layer="svg4136" inkscape:window-maximized="1" inkscape:window-y="-8" inkscape:window-x="-8" inkscape:pageshadow="2" inkscape:pageopacity="0" inkscape:window-height="801" inkscape:window-width="1536" inkscape:cx="181.26755" inkscape:cy="243.375" objecttolerance="10" gridtolerance="10" guidetolerance="10" showgrid="false" inkscape:zoom="1.3025167" bordercolor="#666666" pagecolor="#ffffff" borderopacity="1">
	</sodipodi:namedview>
<path id="path4182" inkscape:connector-curvature="0" d="M234.896,485.029c-2.669-2.858-3.364-8.205-5.593-11.658
	c-2.645-4.099-5.889-7.763-8.697-11.742c-3.68-5.217-7.881-10.06-11.601-15.262c-6.362-8.897-13.587-16.63-21.201-24.468
	c-18.683-19.234-38.196-37.019-60.371-52.199c-34.356-23.52-70.771-44.106-109.819-58.761c-2.709-1.017,0,0-17.614-8.609
	c3.325-5.34,23.831-34.407,28.638-42.12c8.028-12.881,13.8-26.964,19.782-40.866c7.616-17.7,14.438-35.819,19.899-54.296
	c6.976-23.604,12.835-47.549,17.354-71.747c1.258-6.735,8.747-63.793,13.215-92.987c39.192,11.299,25.749,7.891,34.636,10.185
	c24.621,6.357,50.451,7.612,75.722,9.557c14.404,1.109,28.678,0.999,43.104,0.777c21.448-0.33,42.94-1.344,64.203-4.293
	c10.585-1.468,21.127-3.467,31.478-6.126c8.192-2.104,13.47-3.289,31.032-10.1c1.937,7.533,21.898,144.985,48.764,208.185
	c10.624,24.992,42.674,79.876,52.745,92.264c-14.321,5.362-71.933,31.841-101.849,49.629
	c-36.743,21.848-71.48,48.623-100.156,80.446c-13.532,15.02-24.152,32.606-35.086,49.537
	C239.215,486.979,237.569,487.876,234.896,485.029z M246.385,430.125c7.625-39.942,29.623-90.766,63.953-147.75
	c11.581-19.223,33.603-52.214,46.967-70.363c8.287-11.254,10.945-15.403,10.945-17.086c0-1.254-0.476-2.405-1.093-2.642
	c-0.602-0.231-5.917,0.457-11.813,1.529c-36.192,6.578-73.021,8.765-101.648,6.036c-12.956-1.235-22.442-2.794-23.514-3.865
	c-0.759-0.759,2.172-19.29,4.559-28.822c9.985-39.881,33.304-81.786,63.095-113.384c4.589-4.866,8.156-9.034,7.93-9.26
	c-0.228-0.227-3.052,0.433-6.277,1.467c-37.805,12.116-79.837,13.334-110.1,3.191c-4.133-1.386-7.625-2.414-7.762-2.287
	c-0.136,0.128,0.165,4.227,0.669,9.11c4.746,45.95-17.074,106.187-62.849,173.502c-6.884,10.124-20.352,28.227-28.176,37.875
	c-3.156,3.891-4.503,6.084-3.834,6.239c0.567,0.132,6.354-1.116,12.86-2.772c18.57-4.727,34.105-7.629,55.329-10.332
	c16.237-2.068,56.226-1.88,70.125,0.33c9.04,1.437,21.549,4.209,22.277,4.938c0.15,0.15-0.213,1.752-0.806,3.561
	c-3.145,9.582-7.186,28.637-9.049,42.662c-3.581,26.956-3.578,70.348,0.006,102.375c1.409,12.596,3.907,28.753,4.624,29.913
	C243.414,445.276,243.732,444.018,246.385,430.125L246.385,430.125z"/>
</svg>
