<svg xmlns="http://www.w3.org/2000/svg" width="600" height="600" version="1.1"><circle cx="300" cy="300" r="300" fill="#f9aa8f"/><g transform="translate(-127.72,-90.36)"><path d="m639.8 178.2c54.3 54.3 87.9 129.3 87.9 212.2 0 165.7-134.3 300-300 300-82.8 0-157.8-33.6-212.1-87.9" fill="#f8f6d8"/><path d="m655.7 529c-14.6-13.6-24.3-20.9-29.1-22.1-3.5-0.8-6.8 1.2-10 6-3.2 4.8-7.7 6.6-13.6 5.1-2.4-0.6-7-2.6-14-6.1-5.6 5.3-8.6 8.8-9.1 10.5-0.6 2.4 0.5 5.6 3.3 9.7 2.8 4.1 5.4 6.4 7.8 7 1.5 0.4 3.7 0.5 6.5 0.5 2.8 0 4.7 0.1 5.6 0.3 2.7 0.6 2.8 5.8 0.5 15.6-2.2 9.3-7.8 23.1-16.8 41.4-0.4-23.5-3.7-35.9-9.9-37.4-0.9-0.2-2.8 0-5.8 0.7-3 0.6-5.2 0.8-6.5 0.5-6.3-1.5-10.5-8.6-12.8-21.3-10.3-0.9-16.5 3-18.6 11.7-1 4.4 0.1 8.3 3.5 11.9 3.4 3.6 4.9 5.9 4.7 7-1.4 5.9-12.1 12.8-32.1 20.8-10.7 4.3-18 7.4-22.1 9.1 4-3.2 8.2-7.5 12.8-13.1 5.2-6.3 8.2-11.4 9.2-15.4 0.5-2.2-1.3-5.8-5.3-10.9-4.1-5.1-5.6-9.8-4.5-14.1 0.9-3.7 3.3-7.9 7.2-12.7-2-3.9-5-6.4-8.9-7.3-8.7-2.1-13.7-0.3-15 5.3 0.9-3.9 0.2-1-2.1 8.8-1.5 7.2-7.8 9.5-18.8 6.8-8.5-2-22.2-7.4-41.2-16 23.9-0.2 36.7-4 38.5-11.4-0.2 0.9 0-1.8 0.6-8.1 0.7-6.9 7-11.9 18.6-14.8 0.4-10.4-3.6-16.7-12-18.7-1.3-0.3-4.2 1.4-8.8 5.1-4.6 3.7-8.4 5.2-11.4 4.5-5.2-1.2-10.6-8.5-16.1-21.7-2.6-6.6-6.5-16.3-11.9-29.3 4.4 3.8 8.7 7.6 13.1 11.4 5.8 4.6 10.6 7.4 14.5 8.3 3 0.7 6.6-1.2 10.8-5.8 4.2-4.6 8.7-6.3 13.4-5.2 0.7 0.2 4.7 2.5 12.1 7 5.6-5.3 8.8-9.5 9.5-12.5 0.6-2.6-0.2-6-2.6-10.1-2.3-4.1-4.8-6.5-7.4-7.1-1.1-0.3-2.8-0.3-5.3-0.2-2.4 0.1-4.2 0-5.3-0.2-3.9-0.9-4.7-6.3-2.4-16 0.6-2.6 6.7-16.9 18.1-42.7-1 3.2-1 9.6-0.1 19.2 1.1 11.7 4.1 18.2 9.1 19.4 0.9 0.2 2.8 0 5.7-0.7 2.9-0.7 5.1-0.8 6.6-0.5 5 1.2 8.4 5 10.3 11.4l2.8 9.9c4.5 1.1 8.7 0.4 12.5-2.1 3.8-2.5 6.3-6.1 7.4-10.6 1.1-4.8 0-8.9-3.4-12.3-3.4-3.5-5-5.8-4.6-7.1 1.1-4.5 10.1-10.5 27-17.9 13.6-5.9 22.3-9.2 26.1-9.9-12.3 10.4-19.2 18.4-20.6 24.3-0.7 3 0.3 6.7 3.2 11.1 3.6 5.2 5.5 8.8 5.7 10.6 1 5.5-0.9 12.3-5.5 20.3 4.9 5.5 8.8 8.6 11.9 9.4 6.3 1.5 10.2-1 11.7-7.5 0.2-0.7 0.4-2.8 0.7-6.4 0.3-3.6 0.6-5.6 0.9-6 1.6-2.8 7.9-2.9 19-0.3 6.9 1.7 20.9 7.1 41.8 16.2-5.1 0.2-12.7 0.4-22.9 0.7-9.3 0.5-14.3 2.4-15.1 5.7-0.4 1.5-0.4 4.2-0.2 8.2 0.2 3.9 0.1 6.8-0.3 8.5-0.7 3-3.4 5.4-7.9 7.1l-12.9 5.2c1.5 5.4 2.5 8.6 3.2 9.7 1.6 3.1 4.2 5.1 7.8 6 2.6 0.6 5.5-1.1 8.8-5.1 3.3-4 7.3-5.5 12-4.3 5.9 1.4 11.2 8.4 15.9 21 2.7 7.1 6.9 17.8 12.6 32.2m-67.6-36.1c3.3-13.9 1.1-27.1-6.6-39.7-7.8-12.6-18.6-20.6-32.4-23.9-14.1-3.4-27.4-1.2-40 6.4-12.6 7.6-20.7 18.5-24.3 32.5-3.5 13.8-1.3 27 6.8 39.6 8.1 12.6 19.1 20.6 33 23.9 14.7 3.5 28.2 1.6 40.4-5.6 12.2-7.3 19.9-18.3 23.2-33.1m-4.9-1.2c-3.2 13.2-10.2 23.1-21.2 29.6-11 6.5-23.1 8.2-36.3 5.1-12.8-3.1-22.7-10.1-29.6-21.2-7-11.1-8.9-23-5.9-35.8 3-12.6 10.2-22.3 21.6-29 11.4-6.8 23.3-8.7 35.9-5.7 12.6 3 22.4 10.2 29.4 21.5 7 11.3 9.1 23.2 6.1 35.5" fill="#211d15"/><path d="m439.3 318.8c-10.3 24.6-30.8 36.9-61.4 36.9-5.6 0-11.7 0.7-18.3 2.1-9.8 2.1-14.7 5.1-14.7 8.8 0 1.2 0.8 2.5 2.5 4 1.6 1.5 3 2.3 4.2 2.3-5.9 0-1.9 0.2 11.9 0.5 13.8 0.4 22.5 0.5 26 0.5-20.4 11.9-54.4 17.4-102.2 16.5-15.7-0.2-29.1-7.1-40.4-20.7-11-12.9-16.5-27.3-16.5-43.2 0-16.9 5.7-31.2 17-43 11.3-11.8 25.5-17.7 42.3-17.7 3.7 0 8.7 0.8 14.9 2.4 6.2 1.6 10.4 2.5 12.5 2.5 8.7 0 19.4-3.6 32.3-10.7 12.9-7.1 19-10.7 18.3-10.7-2.3 24.6-10.5 41.1-24.6 49.5-10.1 5.9-15.1 11.6-15.1 17.2 0 3.5 2.1 6.3 6.3 8.4 3.3 1.6 6.9 2.4 10.9 2.4 6.1 0 12.1-3.7 17.9-11.2 5.8-7.5 8.4-14.3 7.7-20.4-0.7-7-0.2-15.5 1.4-25.3 0.5-2.8 2.2-6.3 5.1-10.4 2.9-4.1 5.6-6.6 7.9-7.6 0 2.1-0.8 5.6-2.3 10.5-1.5 4.9-2.3 8.6-2.3 10.9 0 5.2 1.4 9.1 4.2 11.9 4.2-1.6 8-6.9 11.2-15.8 2.8-6.8 4.4-13.3 4.9-19.7-9.8-0.4-19.3-4.9-28.3-13.3-9-8.4-13.5-17.6-13.5-27.4 0-1.6 0.2-3.3 0.7-4.9 1.4 2.1 3.5 5.4 6.3 9.8 4 5.8 7 8.8 9.1 8.8 2.8 0 4.2-2.9 4.2-8.8 0-7.5-2-14.3-6-20.4-4.5-7.3-10.2-10.9-17.2-10.9-3.3 0-8.2 1.8-14.7 5.3-6.6 3.5-12.5 5.3-17.9 5.3-1.6 0-8.9-2.1-21.8-6.3 22.7-3.7 34.1-7.1 34.1-10.2 0-8-15.6-13.3-46.7-16.1-3-0.2-8.7-0.7-16.8-1.4 0.9-1.2 7.6-2.4 20-3.9 10.5-1.2 17.9-1.8 22.1-1.8 55.7 0 91.1 27.1 106 81.1 2.6-2.1 3.9-5.7 3.9-10.7 0-6.4-1.9-14.5-5.6-24.2-1.4-3.8-3.6-9.5-6.7-17.1 19.2 24.5 28.8 47.6 28.8 69.5 0 11.5-2.7 22-8.1 31.4-3.5 6.4-10.1 14.5-19.7 24.4-9.6 9.9-16.1 17.5-19.7 22.9 12.9-3.5 21.3-6.2 25.3-8.1 8.9-4 17-10 24.2-17.9 0 3.1-1.3 7.6-3.9 13.7m-153.1-138c0 4.2-2.3 6.9-7 8.1l-9.1 1.4c-3.3 1.6-8.1 8.1-14.4 19.3-0.7-3.5-1.8-8.4-3.2-14.7-2.1 0.2-5.6 2.1-10.5 5.6-2.1 1.6-5.5 4.1-10.2 7.4 1.4-8.4 6.1-17 14.1-25.6 8.4-9.6 16.6-14.4 24.6-14.4 10.5 0 15.8 4.3 15.8 13m61.1 32.3c0 4-2.2 7.3-6.5 10-4.3 2.7-8.6 4-12.8 4-5.6 0-10.7-3.1-15.1-9.5-5.4-7.7-10.9-12.7-16.5-15.1 1.2-1.2 2.6-1.8 4.2-1.8 2.1 0 5.7 1.6 10.7 4.9 5 3.3 8.2 4.9 9.7 4.9 1.2 0 3.1-1.6 5.8-4.9 2.7-3.3 5.7-4.9 9-4.9 7.7 0 11.6 4.1 11.6 12.3" fill="#200000"/></g></svg>