<svg xmlns="http://www.w3.org/2000/svg" width="600" height="600" version="1.1"><circle cx="300" cy="300" r="300" fill="#aae0fa"/><g transform="translate(-24.863,243.93)"><path d="m537-156.1c54.3 54.3 87.9 129.3 87.9 212.2 0 165.7-134.3 300-300 300-82.8 0-157.8-33.6-212.1-87.9" fill="#f9aa8f"/><path d="m554.7 202.7c-10.3 24.6-30.8 36.9-61.4 36.9-5.6 0-11.7 0.7-18.3 2.1-9.8 2.1-14.7 5-14.7 8.8 0 1.2 0.8 2.5 2.5 4 1.6 1.5 3 2.3 4.2 2.3-5.9 0-1.9 0.2 11.9 0.5 13.8 0.4 22.5 0.5 26 0.5-20.4 11.9-54.4 17.4-102.2 16.5-15.7-0.2-29.1-7.1-40.4-20.7-11-12.9-16.5-27.3-16.5-43.2 0-16.9 5.7-31.2 17-43 11.3-11.8 25.5-17.7 42.3-17.7 3.7 0 8.7 0.8 14.9 2.4 6.2 1.6 10.4 2.5 12.5 2.5 8.7 0 19.4-3.6 32.3-10.7 12.9-7.1 19-10.7 18.3-10.7-2.3 24.6-10.5 41.1-24.6 49.5-10.1 5.9-15.1 11.6-15.1 17.2 0 3.5 2.1 6.3 6.3 8.4 3.3 1.6 6.9 2.4 10.9 2.4 6.1 0 12.1-3.7 17.9-11.2 5.8-7.5 8.4-14.3 7.7-20.4-0.7-7-0.2-15.5 1.4-25.3 0.5-2.8 2.2-6.3 5.1-10.4 2.9-4.1 5.6-6.6 7.9-7.6 0 2.1-0.8 5.6-2.3 10.5-1.5 4.9-2.3 8.6-2.3 10.9 0 5.2 1.4 9.1 4.2 11.9 4.2-1.6 7.9-6.9 11.2-15.8 2.8-6.8 4.4-13.3 4.9-19.6-9.8-0.5-19.3-4.9-28.3-13.4-9-8.4-13.5-17.5-13.5-27.4 0-1.6 0.2-3.3 0.7-4.9 1.4 2.1 3.5 5.4 6.3 9.8 4 5.9 7 8.8 9.1 8.8 2.8 0 4.2-2.9 4.2-8.8 0-7.5-2-14.3-6-20.4-4.5-7.3-10.2-10.9-17.2-10.9-3.3 0-8.2 1.8-14.7 5.3-6.6 3.5-12.5 5.3-17.9 5.3-1.6 0-8.9-2.1-21.8-6.3 22.7-3.7 34.1-7.1 34.1-10.2 0-7.9-15.6-13.3-46.7-16.1-3-0.2-8.7-0.7-16.9-1.4 0.9-1.2 7.6-2.4 20-3.9 10.5-1.2 17.9-1.8 22.1-1.8 55.7 0 91.1 27 106 81.1 2.6-2.1 3.9-5.7 3.9-10.7 0-6.4-1.9-14.5-5.6-24.2-1.4-3.8-3.6-9.5-6.7-17.1 19.2 24.5 28.8 47.6 28.8 69.5 0 11.5-2.7 22-8.1 31.4-3.5 6.4-10.1 14.5-19.7 24.4-9.6 9.9-16.1 17.5-19.7 22.9 12.9-3.5 21.3-6.2 25.3-8.1 8.9-4 17-10 24.2-17.9 0 3.1-1.3 7.6-3.9 13.7M401.6 64.7c0 4.2-2.3 6.9-7 8.1l-9.1 1.4c-3.3 1.6-8.1 8.1-14.4 19.3-0.7-3.5-1.8-8.4-3.2-14.7-2.1 0.2-5.6 2.1-10.5 5.6-2.1 1.6-5.5 4.1-10.2 7.4 1.4-8.4 6.1-17 14.1-25.6 8.4-9.6 16.6-14.4 24.6-14.4 10.5 0 15.8 4.3 15.8 13m61.1 32.3c0 4-2.2 7.3-6.5 10-4.3 2.7-8.6 4-12.8 4-5.6 0-10.7-3.1-15.1-9.5-5.4-7.7-10.9-12.7-16.5-15.1 1.2-1.2 2.6-1.8 4.2-1.8 2.1 0 5.7 1.6 10.7 4.9 5 3.3 8.3 4.9 9.7 4.9 1.2 0 3.1-1.6 5.8-4.9 2.7-3.3 5.7-4.9 9-4.9 7.7 0 11.6 4.1 11.6 12.3" fill="#200000"/><path d="m271.6 45c-16.2 16.4-36 24.6-59.7 24.6-26.5 0-47.6-9.1-63.1-27.2-14.7-17.3-22.1-39.4-22.1-66.2 0-28.8 12.5-61.7 37.6-98.6 20.5-30.3 44.5-56.8 72.2-79.6-4 18.5-6 31.6-6 39.4 0 17.9 5.6 35.3 16.9 52.3 13.8 20.2 24.4 35.2 31.6 45 11.2 17 16.9 33.6 16.9 49.7 0 24-8.1 44.1-24.2 60.6m-0.4-92.3c-4.3-9.7-9.4-16.1-15.1-19.3 0.9 1.7 1.3 4.2 1.3 7.4 0 6.1-1.7 14.7-5.2 25.9l-5.6 17.3c0 10.1 5.1 15.1 15.1 15.1 10.7 0 16-7.1 16-21.2 0-7.2-2.2-15.6-6.5-25.3" fill="#061922"/></g></svg>