<?xml version="1.0" encoding="UTF-8" standalone="no"?><!DOCTYPE svg PUBLIC "-//W3C//DTD SVG 1.1//EN" "http://www.w3.org/Graphics/SVG/1.1/DTD/svg11.dtd"><svg width="100" height="100" viewBox="0 0 100 100" version="1.1" xmlns="http://www.w3.org/2000/svg" xmlns:xlink="http://www.w3.org/1999/xlink" xml:space="preserve" xmlns:serif="http://www.serif.com/" style="fill-rule:evenodd;clip-rule:evenodd;stroke-linejoin:round;stroke-miterlimit:2;"><path d="M85.35,14.637c9.053,9.051 14.65,21.551 14.65,35.36c-0,27.616 -22.387,50.003 -50,50.003c-13.807,0 -26.305,-5.596 -35.354,-14.646" style="fill:#9b8e8a;"/><path d="M14.646,85.354c-9.05,-9.047 -14.646,-21.549 -14.646,-35.357c0,-27.613 22.387,-49.997 50,-49.997c13.803,0 26.301,5.593 35.35,14.637" style="fill:#e9e3b1;"/><path d="M14.125,33.956c-0.04,-3.362 1.173,-6.622 3.401,-9.14c1.1,-1.084 2.007,-2.319 3.173,-3.344c2.571,-2.28 6.42,-2.432 9.516,-3.869c0.181,-1.443 0.77,-2.887 0.414,-4.343c-0.109,-0.485 -0.27,-0.975 0.02,-1.438c0.813,-1.673 0.113,-3.49 0.258,-5.233c0.108,-0.91 0.04,-2.026 1.01,-2.589c0.227,1.897 1.007,3.661 1.639,5.46c0.292,1.403 0.292,2.863 0.968,4.185c-0.43,1.34 0.42,2.468 1.338,3.457c2.033,0.93 4.449,1.152 6.217,2.516c1.26,0.957 2.622,1.795 4.032,2.573c1.058,1.184 2.23,2.325 2.701,3.82c1.892,2.042 2.115,4.783 3.188,7.174c0.02,3.55 -0.785,7.374 -3.322,10.22c-1.815,1.34 -3.083,3.14 -4.896,4.48c-1.74,0.93 -3.596,1.692 -5.393,2.527c-1.17,0.245 -2.38,0.365 -3.544,0.65c-0.945,4.352 -1.59,8.809 -3.487,12.938c-0.63,-1.695 -0.553,-3.512 -1.096,-5.224c-0.766,-2.532 0.805,-5.167 -0.08,-7.653c-1.327,-1.06 -3.54,-0.372 -5.013,-1.283c-2.802,-1.544 -5.768,-3.049 -7.801,-5.412c-0.757,-1.358 -2.346,-2.374 -2.346,-4.003c-0.013,-2.194 -1.445,-4.25 -0.897,-6.47l-0,0.001Zm21.774,12.044c1.714,-0.393 3.31,-1.167 4.746,-2.111c1.547,-0.972 2.124,-2.786 3.65,-3.782c1.429,-1.608 1.12,-3.806 1.705,-5.712c-0.235,-1.33 -0.511,-2.649 -0.658,-3.995c-0.697,-1.066 -1.772,-1.917 -2.07,-3.201c-1.023,-1.381 -2.577,-2.337 -3.826,-3.534c-0.908,-0.989 -2.354,-0.57 -3.548,-0.61c0.118,1.09 0.212,2.22 -0.077,3.294c-0.141,0.662 -0.457,1.314 -0.35,2.005c0.24,1.472 -0.345,2.95 0.069,4.404c0.833,3.041 -0.076,6.113 -0.155,9.18c0.119,1.357 0.186,2.725 0.514,4.062Zm-15.023,-5.57c1.27,0.775 2.354,1.724 3.463,2.65c1.928,1.142 3.834,2.35 6.128,2.92c-0.206,-1.4 -0.408,-2.842 0.113,-4.214c1.28,-3.098 -0.287,-6.34 -0.553,-9.473c0.234,-1.863 0.011,-3.85 1.01,-5.566c0.13,-1.289 -0.522,-2.534 -0.962,-3.747c-1.516,0.518 -2.943,1.217 -4.204,2.116c-1.524,0.978 -3.858,1.61 -4.2,3.434c-0.173,1.196 -1.704,1.92 -1.66,3.145c0.095,2.911 -0.374,5.956 0.865,8.735Zm66.999,24.526c0.04,-3.362 -1.173,-6.622 -3.401,-9.14c-1.1,-1.084 -2.007,-2.319 -3.173,-3.344c-2.571,-2.28 -6.42,-2.432 -9.516,-3.869c-0.181,-1.443 -0.77,-2.887 -0.414,-4.343c0.109,-0.485 0.27,-0.975 -0.02,-1.438c-0.813,-1.673 -0.113,-3.49 -0.258,-5.233c-0.108,-0.91 -0.04,-2.026 -1.01,-2.589c-0.227,1.897 -1.007,3.661 -1.639,5.46c-0.292,1.403 -0.292,2.863 -0.968,4.185c0.43,1.34 -0.42,2.468 -1.338,3.457c-2.033,0.93 -4.449,1.152 -6.217,2.516c-1.26,0.957 -2.622,1.795 -4.032,2.573c-1.058,1.184 -2.23,2.325 -2.701,3.82c-1.892,2.042 -2.115,4.783 -3.188,7.174c-0.02,3.55 0.785,7.374 3.322,10.22c1.815,1.34 3.083,3.14 4.896,4.48c1.74,0.93 3.596,1.692 5.393,2.527c1.17,0.245 2.38,0.365 3.544,0.65c0.945,4.352 1.59,8.809 3.487,12.938c0.63,-1.695 0.553,-3.512 1.096,-5.224c0.766,-2.532 -0.805,-5.167 0.08,-7.653c1.327,-1.06 3.54,-0.372 5.013,-1.283c2.802,-1.544 5.768,-3.049 7.801,-5.412c0.757,-1.358 2.346,-2.374 2.346,-4.003c0.013,-2.194 1.445,-4.25 0.897,-6.47l-0,0.001Zm-21.774,12.044c-1.714,-0.393 -3.31,-1.167 -4.746,-2.111c-1.547,-0.972 -2.124,-2.786 -3.65,-3.782c-1.429,-1.608 -1.12,-3.806 -1.705,-5.712c0.235,-1.33 0.511,-2.649 0.658,-3.995c0.697,-1.066 1.772,-1.917 2.07,-3.201c1.023,-1.381 2.577,-2.337 3.826,-3.534c0.908,-0.989 2.354,-0.57 3.548,-0.61c-0.118,1.09 -0.212,2.22 0.077,3.294c0.141,0.662 0.457,1.314 0.35,2.005c-0.24,1.472 0.345,2.95 -0.069,4.404c-0.833,3.041 0.076,6.113 0.155,9.18c-0.119,1.357 -0.186,2.725 -0.514,4.062Zm15.023,-5.57c-1.27,0.775 -2.354,1.724 -3.463,2.65c-1.928,1.142 -3.834,2.35 -6.128,2.92c0.206,-1.4 0.408,-2.842 -0.113,-4.214c-1.28,-3.098 0.287,-6.34 0.553,-9.473c-0.234,-1.863 -0.011,-3.85 -1.01,-5.566c-0.13,-1.289 0.522,-2.534 0.962,-3.747c1.516,0.518 2.943,1.217 4.204,2.116c1.524,0.978 3.858,1.61 4.2,3.434c0.173,1.196 1.704,1.92 1.66,3.145c-0.095,2.911 0.374,5.956 -0.865,8.735Z" style="fill:#111212;"/></svg>