<?xml version="1.0" encoding="UTF-8" standalone="no"?>
<!DOCTYPE svg PUBLIC "-//W3C//DTD SVG 1.1//EN" "http://www.w3.org/Graphics/SVG/1.1/DTD/svg11.dtd">
<svg width="1500" height="2100" viewBox="0 0 1500 2100" version="1.1" xmlns="http://www.w3.org/2000/svg" xmlns:xlink="http://www.w3.org/1999/xlink" xml:space="preserve" xmlns:serif="http://www.serif.com/" style="fill-rule:evenodd;clip-rule:evenodd;stroke-linejoin:round;stroke-miterlimit:2;">
    <g id="Upper-Left" serif:id="Upper Left" transform="matrix(0.797101,0,0,0.797101,906.261,-1355.37)">
        <g id="Cost" transform="matrix(0.482517,0,0,0.482517,-1551.52,1786.26)">
            <circle cx="1328.5" cy="192.5" r="71.5" style="fill:rgb(196,32,37);"/>
            <clipPath id="_clip1">
                <circle cx="1328.5" cy="192.5" r="71.5"/>
            </clipPath>
            <g clip-path="url(#_clip1)">
                <g transform="matrix(0.866667,0,0,0.866667,184.933,33.9)">
                    <path d="M1386.63,214.1C1312.94,264.142 1281.26,204.44 1283.48,167.426C1269.22,181.183 1265.63,201.63 1277.51,222.01C1291.66,246.288 1344.19,272.129 1386.63,214.1ZM1259,225.588C1252.51,136.744 1320.05,139.165 1351,159.588C1346.21,140.366 1330.3,127.034 1306.71,127.129C1278.61,127.243 1229.97,159.818 1259,225.588ZM1312.87,109.311C1393.05,148.114 1357.19,205.395 1324.03,221.986C1343.07,227.45 1362.57,220.336 1374.28,199.861C1388.23,175.469 1384.34,117.053 1312.87,109.311Z" style="fill:rgb(8,7,10);"/>
                </g>
            </g>
        </g>
        <g id="Cost1" serif:id="Cost" transform="matrix(0.482517,0,0,0.482517,-1597.94,1866.55)">
            <circle cx="1328.5" cy="192.5" r="71.5" style="fill:rgb(196,32,37);"/>
            <clipPath id="_clip2">
                <circle cx="1328.5" cy="192.5" r="71.5"/>
            </clipPath>
            <g clip-path="url(#_clip2)">
                <g transform="matrix(0.866667,0,0,0.866667,184.933,33.9)">
                    <path d="M1386.63,214.1C1312.94,264.142 1281.26,204.44 1283.48,167.426C1269.22,181.183 1265.63,201.63 1277.51,222.01C1291.66,246.288 1344.19,272.129 1386.63,214.1ZM1259,225.588C1252.51,136.744 1320.05,139.165 1351,159.588C1346.21,140.366 1330.3,127.034 1306.71,127.129C1278.61,127.243 1229.97,159.818 1259,225.588ZM1312.87,109.311C1393.05,148.114 1357.19,205.395 1324.03,221.986C1343.07,227.45 1362.57,220.336 1374.28,199.861C1388.23,175.469 1384.34,117.053 1312.87,109.311Z" style="fill:rgb(8,7,10);"/>
                </g>
            </g>
        </g>
        <g id="Cost2" serif:id="Cost" transform="matrix(0.482517,0,0,0.482517,-1505.11,1866.55)">
            <circle cx="1328.5" cy="192.5" r="71.5" style="fill:rgb(196,32,37);"/>
            <clipPath id="_clip3">
                <circle cx="1328.5" cy="192.5" r="71.5"/>
            </clipPath>
            <g clip-path="url(#_clip3)">
                <g transform="matrix(0.866667,0,0,0.866667,184.933,33.9)">
                    <path d="M1386.63,214.1C1312.94,264.142 1281.26,204.44 1283.48,167.426C1269.22,181.183 1265.63,201.63 1277.51,222.01C1291.66,246.288 1344.19,272.129 1386.63,214.1ZM1259,225.588C1252.51,136.744 1320.05,139.165 1351,159.588C1346.21,140.366 1330.3,127.034 1306.71,127.129C1278.61,127.243 1229.97,159.818 1259,225.588ZM1312.87,109.311C1393.05,148.114 1357.19,205.395 1324.03,221.986C1343.07,227.45 1362.57,220.336 1374.28,199.861C1388.23,175.469 1384.34,117.053 1312.87,109.311Z" style="fill:rgb(8,7,10);"/>
                </g>
            </g>
        </g>
    </g>
</svg>
