<?xml version="1.0" encoding="UTF-8" standalone="no"?>
<!DOCTYPE svg PUBLIC "-//W3C//DTD SVG 1.1//EN" "http://www.w3.org/Graphics/SVG/1.1/DTD/svg11.dtd">
<svg width="100%" height="100%" viewBox="0 0 320 273" version="1.1" xmlns="http://www.w3.org/2000/svg" xmlns:xlink="http://www.w3.org/1999/xlink" xml:space="preserve" xmlns:serif="http://www.serif.com/" style="fill-rule:evenodd;clip-rule:evenodd;stroke-linejoin:round;stroke-miterlimit:2;">
    <g transform="matrix(0.355556,0,0,0.355556,5.05275e-15,-0.499167)">
        <path d="M188.229,154.941L-0,1.738L123.154,262.201C118.763,273.504 115.033,285.136 112.01,297.049C112.01,297.048 9.417,321.919 9.417,321.919L28.371,496.573L131.188,499.568C136.003,509.837 141.378,519.791 147.275,529.392C147.274,529.391 93.699,617.997 93.699,617.997L229.202,727.755L305.284,656.883C315.856,660.582 326.697,663.709 337.768,666.228C337.767,666.228 361.803,767.596 361.803,767.596L536.792,748.605L538.872,642.514C548.065,637.962 556.993,632.956 565.627,627.525C565.627,627.526 655.9,683.557 655.9,683.557L711.771,614.059L900,766.792L776.846,506.799C781.237,495.496 784.967,483.864 787.99,471.951C787.99,471.952 890.583,447.081 890.583,447.081L871.629,272.427L768.812,269.432C763.997,259.163 758.622,249.209 752.725,239.608C752.726,239.609 806.301,151.003 806.301,151.003L670.798,41.245L594.716,112.117C584.144,108.418 573.303,105.291 562.232,102.772C562.233,102.772 538.197,1.404 538.197,1.404L363.208,20.395L361.128,126.486C351.935,131.038 343.007,136.044 334.373,141.475C334.373,141.474 244.1,85.443 244.1,85.443L188.229,154.941Z"/>
    </g>
    <g transform="matrix(0.355556,0,0,0.355556,5.05275e-15,-0.499167)">
        <path d="M546.057,480.028L691,598L650,649L565.087,596.295C548.919,607.837 531.453,617.679 512.95,625.558L511,725L382,739L359.414,643.746C338.508,640.266 318.393,634.433 299.359,626.529L228,693L128,612L178.276,528.85C166.418,511.805 156.432,493.361 148.616,473.814L52,471L38,342L134.052,318.715C137.918,298.783 143.933,279.614 151.846,261.453L73,95L270.098,255.421C243.245,286.592 227,327.164 227,371.5C227,469.741 306.759,549.5 405,549.5C462.402,549.5 513.494,522.27 546.057,480.028ZM353.943,288.972L209,171L250,120L334.913,172.705C351.081,161.163 368.547,151.321 387.05,143.442L389,44L518,30L540.586,125.254C561.492,128.734 581.607,134.567 600.641,142.471L672,76L772,157L721.724,240.15C733.582,257.195 743.568,275.639 751.384,295.186L848,298L862,427L765.948,450.285C762.082,470.217 756.067,489.386 748.154,507.547L827,674L629.902,513.579C656.755,482.408 673,441.836 673,397.5C673,299.259 593.241,219.5 495,219.5C437.598,219.5 386.506,246.73 353.943,288.972ZM509.592,450.349C485.67,482.018 447.708,502.5 405,502.5C332.699,502.5 274,443.801 274,371.5C274,338.408 286.297,308.165 306.563,285.101L373.386,339.489C365.124,347.647 360,358.98 360,371.5C360,396.336 380.164,416.5 405,416.5C420.821,416.5 434.745,408.318 442.769,395.961L509.592,450.349ZM390.408,318.651C414.33,286.982 452.292,266.5 495,266.5C567.301,266.5 626,325.199 626,397.5C626,430.592 613.703,460.835 593.437,483.899L526.614,429.511C534.876,421.353 540,410.02 540,397.5C540,372.664 519.836,352.5 495,352.5C479.179,352.5 465.255,360.682 457.231,373.039L390.408,318.651Z" style="fill:url(#_Linear1);"/>
    </g>
    <defs>
        <linearGradient id="_Linear1" x1="0" y1="0" x2="1" y2="0" gradientUnits="userSpaceOnUse" gradientTransform="matrix(824,0,0,709,38,384.5)"><stop offset="0" style="stop-color:rgb(97,44,117);stop-opacity:1"/><stop offset="0.3" style="stop-color:rgb(123,81,144);stop-opacity:1"/><stop offset="0.5" style="stop-color:rgb(191,153,195);stop-opacity:1"/><stop offset="0.7" style="stop-color:rgb(123,81,144);stop-opacity:1"/><stop offset="1" style="stop-color:rgb(97,44,117);stop-opacity:1"/></linearGradient>
    </defs>
</svg>
