<?xml version="1.0" encoding="UTF-8" standalone="no"?>
<!DOCTYPE svg PUBLIC "-//W3C//DTD SVG 1.1//EN" "http://www.w3.org/Graphics/SVG/1.1/DTD/svg11.dtd">
<svg width="1500" height="2100" viewBox="0 0 1500 2100" version="1.1" xmlns="http://www.w3.org/2000/svg" xmlns:xlink="http://www.w3.org/1999/xlink" xml:space="preserve" xmlns:serif="http://www.serif.com/" style="fill-rule:evenodd;clip-rule:evenodd;stroke-linejoin:round;stroke-miterlimit:2;">
    <g id="Pinline--Back-" serif:id="Pinline (Back)" transform="matrix(3.75,0,0,3.75,0,0)">
        <path d="M264.667,22.432C263.787,22.884 262.872,23.426 262.635,23.637C262.274,23.957 260.695,24.009 253.035,23.953C247.912,23.916 240.749,24.047 236.8,24.25C231.077,24.543 229.15,24.549 226.667,24.281C220.875,23.656 211.414,23.631 209.936,24.237C208.829,24.691 207.749,24.779 201.467,24.927C197.507,25.02 194.153,25.21 194.013,25.348C193.681,25.678 188.905,25.675 188.287,25.344C187.281,24.806 182.313,24.69 181.28,25.18C180.27,25.659 172.074,25.641 161.867,25.137C159.593,25.025 154.493,25.032 150.533,25.154C141.749,25.422 140.892,25.425 137.22,25.189C135.332,25.068 133.829,25.11 132.95,25.306C131.932,25.534 131.227,25.533 130.13,25.303C129.27,25.123 125.169,24.958 120.183,24.903C115.517,24.852 111.594,24.745 111.466,24.666C110.588,24.124 106.039,24.059 104.846,24.573C103.941,24.963 103.308,25.063 102.533,24.939C101.947,24.845 99.787,24.915 97.733,25.094C94.955,25.337 92.875,25.349 89.6,25.143C85.97,24.914 85.003,24.931 84.071,25.242C83.38,25.472 82.144,25.589 80.88,25.542C78.419,25.452 78.248,25.683 79.387,27.559L80.133,28.788L114.933,28.968C154.17,29.171 157.92,29.178 236.267,29.191C249.868,29.193 259.833,28.914 264.741,28.395C265.745,28.289 265.917,28.352 266.174,28.916C266.334,29.268 267.105,29.997 267.885,30.534C269.15,31.406 269.368,31.7 269.879,33.237C270.309,34.53 270.563,34.941 270.893,34.877C271.414,34.777 272.552,32.082 272.733,30.519C272.852,29.487 272.903,29.435 273.829,29.387C275.974,29.274 277.6,29.605 277.6,30.153C277.6,30.628 280.288,32.881 281.333,33.283C282.421,33.701 287.969,39.695 288.257,40.764C288.773,42.68 289.558,43.327 291.276,43.256C292.873,43.189 294.648,44.72 295.333,46.756C295.835,48.247 296.375,48.269 297.808,46.857C298.736,45.943 299.605,45.405 300.931,44.925C302.802,44.246 303.368,43.877 304.454,42.627C305.315,41.638 307.329,40.442 309.112,39.862L310.624,39.371L311.582,40.101C312.792,41.024 313.194,41.995 313.586,44.941C313.758,46.236 314.012,47.507 314.15,47.764C314.92,49.204 314.3,60.729 313.461,60.561C313.171,60.503 311.193,60.433 309.067,60.406C306.94,60.379 304.781,60.217 304.268,60.045C303.685,59.85 301.345,59.73 298.002,59.726C295.067,59.722 288.707,59.602 283.867,59.46L275.067,59.202L274.523,59.868C273.849,60.694 273.397,60.718 273.285,59.933C273.134,58.868 267.711,58.882 266.713,59.95C266.103,60.603 265.903,60.677 265.378,60.443C264.95,60.252 262.865,60.266 258.58,60.488C255.028,60.672 244.968,60.806 234.92,60.804C222.629,60.801 217.353,60.887 217.149,61.091C216.813,61.427 216.055,61.099 214.846,60.094C213.91,59.315 212.806,59.294 211.519,60.033C210.451,60.646 210.276,60.61 207.867,59.269C206.178,58.329 201.327,58.615 200.14,59.725C199.843,60.002 199.12,60.268 198.533,60.315C197.508,60.397 197.467,60.436 197.467,61.333C197.467,62.039 197.369,62.237 197.067,62.146C196.847,62.079 191.927,62.016 186.133,62.005C176.135,61.987 172.864,61.828 162.4,60.853C160.199,60.648 137.404,60.939 134,61.216C131.901,61.386 131.85,61.376 130.83,60.561C129.47,59.475 128.182,59.474 124.973,60.556C122.499,61.39 122.48,61.391 119.37,60.898C118.322,60.732 116.472,61.162 115.733,61.743C115.226,62.142 104.241,62.056 97.767,61.602C95.292,61.428 92.892,61.353 92.433,61.434C91.975,61.515 89.68,61.604 87.333,61.631L83.067,61.68L82.982,60.967C82.835,59.735 81.895,59.367 79.353,59.546C77.222,59.696 77.105,59.675 76.499,59.026C75.884,58.368 75.791,58.352 73.067,58.466C70.196,58.587 69.493,58.79 67.333,60.126C64.854,61.66 64.867,61.656 64.135,61.177C63.64,60.853 63.211,60.792 62.468,60.943C61.917,61.055 59.427,61.124 56.933,61.096C54.44,61.069 48.5,61.237 43.733,61.471C31.596,62.065 31.99,62.153 29.973,58.4C29.404,57.34 29.277,50.714 29.671,42.576C29.899,37.88 29.703,37.406 28.668,40.144C26.581,45.664 26.604,45.575 26.517,48.336C26.47,49.817 26.546,51.241 26.685,51.501C26.824,51.761 27.012,52.909 27.102,54.053C27.277,56.272 28.117,58.602 29.725,61.333C30.2,62.14 30.741,63.4 30.928,64.133C31.541,66.545 32.609,66.816 38.267,65.997C41.383,65.545 44.165,65.487 44.401,65.868C44.606,66.2 53.246,66.182 57.71,65.841C59.457,65.707 60.933,65.644 60.99,65.701C61.888,66.599 55.63,73.009 52.395,74.505C51.224,75.047 49.967,75.638 49.6,75.82C48.732,76.251 47.782,78.008 47.755,79.234C47.729,80.387 47.417,80.691 46,80.939C45.413,81.042 44.523,81.36 44.022,81.647C42.979,82.243 42.719,82.206 39.537,81.006C36.956,80.033 36,80.181 36,81.553C36,83.17 39.437,84.778 43.333,84.982C44.653,85.051 46.241,85.294 46.862,85.522C48.493,86.12 49.416,85.828 51.246,84.134C52.801,82.694 53.405,82.402 53.733,82.933C54.17,83.64 55.307,83.17 56.64,81.731C58.236,80.008 58.667,79.897 58.667,81.209C58.667,81.992 58.518,82.239 57.788,82.67C57.305,82.955 56.399,83.959 55.775,84.901C53.037,89.035 50.36,90.528 43.991,91.473C41.072,91.906 40.883,91.889 38.316,90.974C34.597,89.648 31.076,86.331 31.832,84.866C32.04,84.463 32.367,83.202 32.558,82.063L32.905,79.992L31.586,78.651C29.528,76.561 27.46,76.808 27.889,79.093C28.311,81.341 27.21,81.705 26.415,79.579C25.849,78.065 23.12,72.681 22.604,72.058C22.101,71.452 21.767,71.869 21.743,73.129C21.729,73.892 21.545,74.552 21.26,74.867C20.453,75.759 20.709,76.436 22.572,78.331C25.792,81.607 27.467,84.38 27.467,86.435C27.467,86.884 27.658,87.908 27.891,88.711C28.24,89.913 28.257,90.312 27.986,90.967C27.74,91.562 27.717,92.547 27.895,94.881C28.167,98.439 28.114,102.193 27.728,106.768C27.53,109.113 27.543,110.34 27.781,111.488C28.131,113.186 27.77,118.498 27.038,122.4C26.482,125.366 26.779,130.325 27.628,132.23C27.978,133.017 28.382,134.387 28.525,135.276C28.877,137.465 30.032,138.154 30.359,136.371C30.611,134.998 30.933,135.535 30.933,137.329C30.933,138.411 31.069,140.355 31.235,141.649C31.608,144.559 32.074,144.759 32.52,142.2C32.945,139.754 33.279,138.131 33.886,135.553C34.169,134.354 34.526,132.434 34.68,131.286C35.033,128.654 36.952,119.912 37.333,119.201C37.5,118.888 37.891,118.667 38.276,118.667C39.535,118.667 40.498,116.745 41.32,112.591C41.917,109.571 43.027,108.294 44.144,109.343C44.793,109.953 44.795,109.953 45.73,109.45L46.667,108.945L47.398,109.677C48.018,110.297 48.126,110.622 48.107,111.804C48.059,114.828 48.596,123.352 48.854,123.664C49.359,124.275 49.6,123.713 49.602,121.918C49.603,120.936 49.716,119.113 49.853,117.867C50.141,115.235 50.24,111.257 50.148,106.036L50.082,102.339L50.917,101.236C51.375,100.63 52.304,99.323 52.981,98.333C54.307,96.394 54.618,96.247 55.661,97.067C56.893,98.036 57.867,97.253 57.867,95.293C57.867,94.134 57.967,93.955 59.4,92.559C62.848,89.199 62.933,89.048 62.933,86.353C62.933,85.039 63.064,83.72 63.225,83.421C63.435,83.027 63.435,82.795 63.225,82.585C62.456,81.816 63.686,77.868 65.73,74.539C66.538,73.222 67.2,71.938 67.2,71.685C67.2,71.023 67.683,70.005 69.074,67.733C69.747,66.633 70.456,65.343 70.648,64.867C71.049,63.874 71.46,63.768 71.938,64.533C72.712,65.772 75.681,63.451 75.336,61.878C75.16,61.079 75.174,61.067 76.23,61.067C77.799,61.067 77.757,61.282 75.719,63.676C73.65,66.105 73.602,66.285 74.513,68.174C75.495,70.208 75.589,71.138 74.956,72.533C74.657,73.193 74.405,74.093 74.398,74.533C74.39,74.973 74.088,75.813 73.726,76.4C72.609,78.214 73.211,79.596 75.2,79.78C77.219,79.967 77.559,88.678 75.577,89.439C75.196,89.585 75.152,89.937 75.263,91.938C75.348,93.469 75.276,94.586 75.052,95.2C73.477,99.516 75.393,100.185 77.089,95.911C78.385,92.646 78.906,91.659 79.674,91.015C80.306,90.484 80.374,90.245 80.389,88.481C80.407,86.328 80.583,85.943 84.695,79.037C84.919,78.662 85.584,78.335 86.7,78.054L88.371,77.633L90.252,78.647C91.287,79.205 92.553,79.904 93.067,80.201C93.58,80.498 94.43,80.816 94.956,80.908C95.959,81.083 97.617,82.475 99.035,84.335C100.474,86.222 101.867,85.218 101.867,82.293C101.867,80.012 102.123,79.733 104.219,79.733C106.344,79.733 106.932,79.325 106.936,77.846C106.942,75.669 113.709,69.269 117.014,68.313C118.648,67.841 119.153,67.357 119.252,66.172L119.333,65.2L121.693,65.123C124.563,65.028 124.8,65.178 124.8,67.082C124.8,68.853 125.137,69.763 126.202,70.867C127.561,72.276 128.587,71.753 130.552,68.65C131.217,67.601 132.074,66.575 132.457,66.371C133.284,65.93 141.704,65.951 157.467,66.432C173.145,66.911 201.731,66.44 202.311,65.692C202.584,65.342 202.767,65.372 203.778,65.935C205.458,66.87 206.145,66.971 207.841,66.529C208.676,66.311 210.501,66.133 211.897,66.133C213.439,66.133 214.664,66.003 215.018,65.8C215.365,65.601 216.568,65.467 218,65.467C220.315,65.467 220.403,65.444 220.489,64.841C220.56,64.335 220.688,64.25 221.155,64.394C221.632,64.542 244.758,64.829 262.867,64.913C267.177,64.933 267.2,64.937 267.2,65.533C267.2,66.624 269.589,66.086 271.238,64.624C271.669,64.242 276.178,63.754 279.407,63.74C280.64,63.734 280.843,63.81 281.051,64.359C281.24,64.856 281.608,65.047 282.844,65.291C283.7,65.459 285.3,65.781 286.4,66.006C290.979,66.942 291.619,66.99 297.333,66.827C300.487,66.737 304.807,66.522 306.933,66.35C309.06,66.178 311.698,66.06 312.796,66.089L314.793,66.141L316.344,67.671C317.196,68.512 318.13,69.68 318.418,70.267C320.926,75.373 321.56,75.692 329.867,76.035C333.02,76.166 336.2,76.301 336.933,76.336C338.613,76.417 338.991,75.515 337.707,74.49C336.842,73.801 336.971,73.364 338.601,71.46C340.697,69.012 339.516,65.94 336.2,65.217C334.098,64.758 337.388,64.069 340.077,64.404C342.042,64.65 342.805,64.009 342.525,62.348C342.385,61.522 342.424,61.297 342.69,61.386C343.375,61.614 343.509,63.191 343.568,71.767C343.632,80.88 343.762,81.867 344.898,81.867C345.892,81.867 346.133,80.989 346.133,77.379C346.133,75.447 346.242,73.867 346.375,73.867C346.72,73.867 347.902,75.979 348.119,76.985C348.331,77.971 349.425,79.572 351.178,81.467C352.098,82.46 352.505,83.174 352.774,84.267C353.209,86.032 353.471,86.4 354.29,86.4C355.181,86.4 355.39,85.802 355.513,82.912C355.614,80.511 355.678,80.272 356.579,78.912C358.942,75.345 359.002,72.88 356.76,71.441C354.15,69.766 353.588,68.415 354.434,65.852C355.187,63.567 355.359,63.402 356.593,63.781C357.24,63.979 357.871,63.999 358.428,63.84C359.278,63.596 359.366,63.498 360.082,62C360.292,61.56 360.705,60.72 360.998,60.133C361.292,59.547 361.84,58.407 362.217,57.6C363.286,55.311 369.25,43.237 370.13,41.579C370.861,40.204 370.902,39.979 370.679,38.609C370.546,37.794 370.528,36.46 370.639,35.646C371.129,32.034 370.309,30.89 368.583,32.778C367.913,33.512 367.365,33.867 366.902,33.867C366.068,33.867 365.554,34.405 364.598,36.28C364.196,37.069 363.547,37.898 363.157,38.123C362.766,38.349 361.791,38.916 360.989,39.384C356.441,42.038 347.203,42.988 343.6,41.173C342.72,40.729 341.452,40.099 340.783,39.773C339.203,39.001 336.353,36.691 336.135,36.005C336.042,35.711 335.011,33.831 333.845,31.829C331.599,27.973 331.529,27.74 332.765,28.252C333.285,28.467 335.604,28.598 339.653,28.639C343.011,28.674 345.873,28.769 346.013,28.85C346.152,28.932 349.684,28.902 353.86,28.783C358.648,28.648 361.568,28.663 361.762,28.824C361.932,28.965 362.835,29.19 363.769,29.324C364.703,29.458 365.797,29.649 366.202,29.749C367.126,29.976 367.657,29.556 368.281,28.1C368.542,27.491 368.886,26.912 369.045,26.814C369.561,26.495 369.362,25.364 368.715,24.94C367.957,24.444 358.264,24.142 356.299,24.554C352.941,25.257 350.646,25.399 342,25.44C334.145,25.477 332.55,25.421 331.932,25.084C331.346,24.764 331.037,24.745 330.395,24.987C329.674,25.259 329.436,25.195 328.063,24.365C326.714,23.55 326.389,23.46 325.311,23.606C324.544,23.71 323.488,23.615 322.473,23.352C319.63,22.615 318.193,23.148 318.891,24.68C319.061,25.053 319.2,25.641 319.2,25.986C319.2,26.91 321.43,29.013 322.639,29.229C323.366,29.36 324.086,29.89 325.6,31.41C326.7,32.515 328.205,33.807 328.945,34.282C329.685,34.757 330.465,35.358 330.678,35.616C330.892,35.875 331.567,36.308 332.178,36.579C332.789,36.851 333.8,37.498 334.423,38.019C335.899,39.253 336.856,39.733 337.835,39.733C338.406,39.733 338.784,39.949 339.175,40.498C339.549,41.024 340.035,41.314 340.726,41.425C341.28,41.514 342.209,41.83 342.79,42.127C343.371,42.424 344.137,42.667 344.492,42.667C344.847,42.667 345.535,42.913 346.022,43.214C348.055,44.47 356.117,43.47 358.22,41.701C359.069,40.987 360,40.863 360,41.464C360,41.947 357.725,43.673 356.8,43.89C356.433,43.976 355.353,44.303 354.4,44.616C352.944,45.095 352.117,45.177 349.239,45.132L345.811,45.078L344.771,44.139C343.971,43.416 343.501,43.2 342.732,43.2C340.826,43.2 334.061,39.645 331.696,37.402C329.329,35.156 327.38,35.498 328.766,37.915C330.836,41.526 332.438,49.02 331.579,51.075C331.041,52.364 331.164,54.905 331.784,55.295C332.353,55.651 333.241,54.924 333.774,53.667C333.975,53.19 334.278,52.8 334.446,52.8C335.312,52.8 341.27,58.123 340.961,58.621C340.838,58.821 337.674,59.065 331.733,59.334C328.159,59.495 325.192,59.799 324.947,60.029C324.807,60.16 324.368,60.267 323.97,60.267C323.573,60.267 322.584,60.521 321.772,60.831C320.577,61.288 320.143,61.342 319.489,61.114C318.972,60.934 318.377,60.92 317.836,61.075C316.28,61.522 316.244,61.056 317.339,54.533C317.635,52.773 318.007,49.715 318.166,47.737C318.439,44.345 318.5,44.09 319.228,43.261L320,42.381L320,37.843C320,33.442 320.02,33.275 320.667,32.324C321.55,31.024 321.509,30.524 320.422,29.369C316.305,24.99 316.712,25.309 315.297,25.354C314.584,25.376 310.94,25.307 307.2,25.2C303.46,25.092 299.74,25.009 298.933,25.016C298.127,25.022 294.107,25.01 290,24.987C278.032,24.922 277.255,24.927 276.145,25.065C275.192,25.183 275.075,25.132 274.933,24.534C274.74,23.716 274.152,23.527 271.128,23.315C268.884,23.158 268.772,23.119 268.387,22.376C267.85,21.337 266.768,21.354 264.667,22.432M49.6,24.564C48.647,24.69 47.704,24.734 47.506,24.661C47.142,24.528 40.491,26.683 39.133,27.374C37.528,28.191 38.539,28.832 41.375,28.795C42.599,28.78 46.18,28.882 49.333,29.022C57.383,29.38 73.771,29.403 74.418,29.057C75.669,28.388 74.287,25.97 72.315,25.379C71,24.985 67.45,24.976 65.118,25.361C63.79,25.58 62.413,25.574 59.733,25.335C57.753,25.158 55.233,24.954 54.133,24.881C53.033,24.808 52.019,24.64 51.88,24.507C51.741,24.375 51.561,24.282 51.48,24.3C51.399,24.319 50.553,24.438 49.6,24.564M374.921,29.72C374.169,30.47 375.566,32.198 376.657,31.868C376.955,31.778 378.736,31.534 380.613,31.326C382.491,31.118 384.141,30.878 384.28,30.792C384.639,30.57 384.594,29.937 384.2,29.682C383.73,29.378 375.229,29.413 374.921,29.72M374.752,35.533C373.6,37.337 373.202,45.4 374.217,46.354C377.338,49.285 379.015,39.076 375.949,35.813C375.294,35.115 375.055,35.06 374.752,35.533M364.533,58.589C362.582,58.966 360.316,63.911 361.954,64.221C362.813,64.384 364.83,63.625 365.83,62.763C368.734,60.256 368.008,57.919 364.533,58.589M312.533,62.914C312.533,63.209 309.511,63.44 303.267,63.623C300.161,63.713 298.667,63.667 298.667,63.479C298.667,63.325 299.237,63.191 299.933,63.18C300.63,63.169 301.74,63.064 302.4,62.947C304.116,62.642 312.533,62.614 312.533,62.914M330.867,64.701C331.807,64.953 331.576,65.298 330.241,65.634C329.567,65.804 328.409,66.36 327.668,66.87C325.745,68.193 324.741,68.186 324.516,66.847C324.251,65.276 324.615,65.069 328.267,64.71C329.992,64.541 330.264,64.54 330.867,64.701M82.267,65.337C82.267,65.597 81.999,65.733 81.489,65.733C80.615,65.733 80.243,65.18 80.985,64.984C81.768,64.776 82.267,64.914 82.267,65.337M321.539,65.817C321.597,65.991 321.454,66.133 321.222,66.133C320.99,66.133 320.8,65.943 320.8,65.711C320.8,65.24 321.374,65.322 321.539,65.817M101.98,66.424C102.232,66.659 99.526,68 98.801,68C98.148,68 96.268,66.901 95.971,66.346C95.669,65.781 101.371,65.856 101.98,66.424M374.068,79.295C371.426,80.487 370.841,82.357 372.649,83.838C374.673,85.496 376.76,85.228 377.599,83.202C378.536,80.94 376.186,78.34 374.068,79.295M333.732,82.402C333.523,82.74 333.634,83.117 335.127,87.141C336.53,90.921 336.413,90.799 338.621,90.8C341.108,90.8 342.312,92.435 342.842,96.533C343.105,98.564 344.008,99.487 344.8,98.533C345.736,97.406 347.419,98.448 348.156,100.613C348.551,101.77 350.157,103.467 350.859,103.467C351.382,103.467 352.222,104.741 352.916,106.588C353.312,107.644 353.858,108.789 354.127,109.131C354.691,109.849 354.808,113.449 354.506,120.863C354.349,124.732 354.372,125.073 354.81,125.241C355.293,125.426 356.529,124.223 356.532,123.566C356.533,123.401 356.713,123.117 356.932,122.935C358.489,121.642 359.27,118.926 358.363,117.96C357.689,117.243 357.761,117.092 359.969,114.584C361.763,112.548 361.827,111.587 360.267,110.103C359.03,108.927 359.036,108.954 359.727,107.429C361.138,104.32 359.885,101.333 357.169,101.333C356.397,101.333 355.691,101.213 355.6,101.067C355.509,100.92 354.977,100.8 354.416,100.8C353.548,100.8 353.286,100.652 352.654,99.8C352.245,99.25 351.107,98.055 350.124,97.144C348.977,96.081 348.282,95.212 348.183,94.716C348.093,94.265 347.623,93.623 347.052,93.172C346.514,92.747 345.578,91.913 344.971,91.318C344.363,90.723 343.557,90.105 343.178,89.944C342.686,89.735 342.137,88.94 341.245,87.144C339.485,83.598 337.806,82.133 335.5,82.133C334.619,82.133 333.823,82.254 333.732,82.402M374.267,92.973C373.533,93.501 372.42,94.426 371.793,95.028L370.654,96.124L370.831,99.481C370.979,102.285 370.932,103.066 370.546,104.228C369.669,106.87 371.118,107.084 374.939,104.88C377.467,103.422 377.694,103.048 377.195,101.175C376.894,100.048 376.797,98.679 376.853,96.36C376.922,93.485 376.874,93.057 376.424,92.56C375.781,91.849 375.844,91.837 374.267,92.973M370.94,120.006C369.548,120.333 368.995,121.17 369.192,122.652C369.339,123.761 369.361,127.103 369.267,133.867C369.217,137.509 369.59,141.108 370.077,141.667C370.882,142.592 371.792,142.153 372.149,140.665C372.409,139.578 372.677,139.291 373.602,139.106C374.036,139.019 374.843,138.533 375.396,138.025L376.4,137.102L376.341,134.681C376.309,133.35 376.412,131.932 376.572,131.53C376.916,130.661 377.634,124.837 377.692,122.434C377.755,119.849 375.323,118.975 370.94,120.006M31.148,132.446C31.032,134.225 30.4,134.318 30.4,132.556C30.4,131.507 30.494,131.2 30.815,131.2C31.142,131.2 31.212,131.462 31.148,132.446M370.135,151.332C369.927,151.582 369.876,152.004 369.997,152.465C370.104,152.869 370.175,153.56 370.157,154C369.814,161.973 369.764,171.17 370.059,171.841C370.29,172.366 370.4,174.019 370.4,176.983C370.4,182.273 370.624,183.074 372.18,183.347C372.741,183.446 373.466,183.693 373.791,183.897C374.586,184.395 375.588,184.364 376.034,183.826C376.49,183.277 376.579,181.606 376.56,174C376.555,172.24 376.678,170.326 376.834,169.746C377.117,168.689 377.097,168.551 376.237,165.6C375.997,164.775 375.884,162.541 375.877,158.443L375.867,152.487L375.11,152.089C373.247,151.111 370.647,150.715 370.135,151.332M26.233,154.187C25.738,154.989 25.232,158.588 25.135,162C24.77,174.851 24.577,179.173 24.33,180C24.177,180.513 23.978,182.099 23.888,183.524C23.67,186.961 23.979,187.25 27.148,186.581C28.277,186.343 29.638,186.081 30.173,186C31.454,185.806 31.879,185.304 31.447,184.496C30.683,183.07 30.286,172.36 30.925,170.425C31.506,168.663 31.198,158.693 30.533,157.759C30.24,157.347 29.76,156.619 29.467,156.142C28.416,154.433 26.716,153.406 26.233,154.187M28.4,222.048C27.96,222.282 27.12,222.91 26.533,223.444C25.947,223.977 25.023,224.686 24.48,225.02C23.222,225.794 23.24,225.714 23.158,231.002C23.079,236.121 23.097,236.169 25.239,236.563C25.951,236.694 27.171,236.999 27.951,237.242C29.779,237.812 30.688,237.209 30.183,235.762C29.973,235.158 30.012,233.36 30.332,228.954C30.874,221.5 30.686,220.829 28.4,222.048M26.948,296.382C26.084,297.423 25.582,303.815 26.209,305.778C26.436,306.487 26.781,307.787 26.977,308.667C27.357,310.373 28.295,311.066 28.721,309.956C28.822,309.691 29.548,308.846 30.333,308.08C31.861,306.588 31.843,306.663 31.317,304.084C31.252,303.763 30.652,303.053 29.984,302.506C28.419,301.223 27.921,300.055 28.153,298.204C28.38,296.385 27.744,295.423 26.948,296.382M60.533,307.72C58.859,308.61 56.7,311.695 56.848,312.986L56.933,313.733L59.333,313.641C62.081,313.535 62.312,313.397 62.826,311.558C63.024,310.848 63.332,309.766 63.51,309.154C64.059,307.26 62.663,306.588 60.533,307.72M67.143,307.523C66.163,308.267 64.795,312.552 65.332,313.198C65.787,313.746 70.595,313.773 71.335,313.232C72.14,312.643 72.924,308.006 72.285,307.611C71.706,307.253 67.592,307.183 67.143,307.523M320.595,307.533C320.446,307.717 320.28,308.107 320.225,308.4C320.085,309.154 319.388,309.063 319.201,308.267C318.872,306.864 317.027,307.465 316.704,309.08C316.506,310.072 315.098,311.01 314.09,310.822C313.517,310.715 313.246,310.864 312.69,311.593C311.381,313.309 311.974,314.401 313.854,313.738C314.746,313.423 315.728,313.375 318.543,313.51C323.171,313.732 323.467,313.585 323.467,311.051C323.467,309.106 323.046,308.21 321.84,307.586C320.934,307.118 320.932,307.118 320.595,307.533M264,308.037C258.348,309.316 252.716,309.411 180.933,309.425C129.765,309.436 113.436,309.362 110.692,309.107C106.234,308.693 106.346,308.59 106.84,312.667L107.067,314.533L158.8,314.527C198.906,314.522 211.852,314.441 216.4,314.163C234.851,313.039 244.8,312.728 256.8,312.903C263.033,312.994 268.373,313.098 268.667,313.134C269.397,313.224 269.523,311.597 268.928,309.762C268.118,307.269 267.834,307.17 264,308.037M273.978,308.258C272.261,308.953 270.162,312.571 271.085,313.246C272.028,313.936 304.849,313.64 304.628,312.943C303.83,310.426 301.96,309.269 300.373,310.309C299.736,310.727 299.619,310.718 298.234,310.144C296.382,309.376 293.537,309.785 290.514,311.253L289.427,311.781L288.443,311.113C287.902,310.746 286.951,310.362 286.33,310.261C285.708,310.159 284.3,309.739 283.2,309.328C280.753,308.414 278.385,308.098 277.311,308.543C276.675,308.806 276.377,308.787 275.629,308.431C275.129,308.194 274.678,308.008 274.626,308.017C274.575,308.026 274.284,308.135 273.978,308.258M366.558,308.729C365.101,308.844 363.739,309.654 362.036,311.418C360.713,312.788 360.92,313.067 363.262,313.067L365.159,313.067L367.007,311.218C369.388,308.837 369.329,308.508 366.558,308.729M32.8,309.092C30.5,310.026 29.832,311.901 31.438,312.915C32.009,313.276 32.742,313.944 33.067,314.4C34.509,316.425 35.536,314.846 35.583,310.533L35.6,308.933L34.533,308.877C33.947,308.846 33.167,308.943 32.8,309.092M41.023,309.456C40.798,309.95 40.809,310.413 41.068,311.337C41.497,312.869 41.18,313.309 40.204,312.541C39.279,311.814 38.504,311.86 37.737,312.688C36.294,314.245 36.761,316.432 38.281,315.236C38.792,314.834 39.382,314.667 40.287,314.667C40.992,314.667 41.641,314.55 41.729,314.407C41.817,314.265 42.377,314.017 42.972,313.856C43.969,313.588 44.042,313.507 43.883,312.849C43.788,312.455 43.595,311.602 43.455,310.954C43.015,308.928 41.648,308.085 41.023,309.456M50.48,309.328C48.603,309.542 44.667,312.511 44.667,313.712C44.667,314.464 52.568,314.397 53.427,313.638C54.403,312.776 53.433,308.861 52.304,309.103C52.21,309.123 51.389,309.224 50.48,309.328M80.539,309.933C79.43,310.695 77.42,313.528 77.754,313.857C78.009,314.108 79.528,313.829 81.467,313.175C82.448,312.844 82.683,312.87 84.4,313.499C87.519,314.641 87.374,314.663 87.719,313.003C88.144,310.955 87.645,309.867 86.28,309.867C86.091,309.867 85.333,310.347 84.597,310.933C82.966,312.232 82.667,312.259 82.667,311.108C82.667,309.526 81.815,309.056 80.539,309.933M11.77,310.203C11.309,310.664 11.404,311.233 12.06,311.93C12.725,312.638 12.43,313.055 11.258,313.063C10.113,313.07 10.196,314.67 11.354,314.898C11.628,314.951 12.453,315.521 13.188,316.164C14.778,317.555 14.911,317.571 16.115,316.513C16.952,315.779 17.307,315.669 19.524,315.461L22,315.229L23.266,313.901C25.667,311.384 24.949,310.563 20.109,310.293C13.156,309.905 12.08,309.893 11.77,310.203M308.824,311.096C307.775,312.43 307.755,313.867 308.785,313.867C309.501,313.867 310.201,312.742 310.237,311.532C310.275,310.283 309.623,310.081 308.824,311.096M92.178,312.978C91.834,313.322 92.007,313.616 92.71,313.883C93.595,314.22 94.12,313.827 93.609,313.211C93.258,312.788 92.492,312.663 92.178,312.978M370.949,315.689C369.825,316.659 369.781,316.75 370.075,317.489C370.706,319.075 370.928,330.931 370.383,334C370.048,335.886 370.417,338.8 371.073,339.45C372.062,340.433 372.812,338.367 372.809,334.667C372.801,324.213 373.008,321.474 373.917,320.019C374.174,319.607 374.17,319.216 373.898,318.156C373.578,316.908 373.595,316.757 374.127,316.009C375.361,314.276 372.877,314.027 370.949,315.689M26.327,315.934C24.906,317.503 25.044,325.554 26.518,327.183C26.902,327.607 26.902,327.754 26.519,328.824C26.092,330.018 26.163,332.252 26.653,333.045C26.95,333.524 26.717,334.133 26.238,334.133C24.139,334.133 24.368,337.947 26.61,340.333C28.233,342.059 30.037,339.752 29.065,337.195C28.621,336.028 29.049,335.922 30.157,336.923C32.264,338.827 37.389,337.428 38.739,334.58C40.004,331.912 39.951,331.353 38.083,327.6C36.659,324.738 33.127,323.353 29.925,324.401C28.943,324.722 29.414,322.629 30.71,320.909C32.13,319.025 32.073,318.397 30.333,316.779C28.763,315.318 27.185,314.985 26.327,315.934M11.082,341.126C10.421,342.069 10.584,342.778 11.902,344.705L13.138,346.51L12.529,346.921C8.448,349.679 9.191,352.441 13.551,350.719C15.574,349.919 15.834,349.88 18.053,350.037L20.408,350.204L22.182,348.689C25.629,345.747 25.307,343.465 21.503,343.873C20.537,343.976 19.39,343.941 18.89,343.792C18.401,343.647 17.311,343.375 16.47,343.189C15.214,342.91 14.75,342.642 13.885,341.691C12.682,340.37 11.744,340.18 11.082,341.126M185.232,347.657C185.117,347.772 171.922,347.954 155.911,348.06C127.874,348.246 123.165,348.354 109.733,349.113C106.36,349.304 99.28,349.459 94,349.457L84.4,349.454L82.84,348.707C81.071,347.859 79.94,347.961 77.513,349.19C76.387,349.76 76.204,349.781 75.277,349.45C73.472,348.807 64.211,348.925 63.6,349.6C62.933,350.337 62.451,350.267 62.351,349.418C62.225,348.35 59.572,347.909 58.292,348.743C58.131,348.848 57.04,348.937 55.867,348.941C54.226,348.947 53.487,349.078 52.667,349.508C50.765,350.507 49.968,350.551 49.553,349.683C49.069,348.67 47.456,348.236 46.437,348.845C42.661,351.098 41.826,351.501 40.474,351.721C39.654,351.855 38.475,352.223 37.855,352.54C37.234,352.856 36.053,353.29 35.23,353.504C30.52,354.73 30.523,357.198 35.233,357.203L38.001,357.207L40.09,358.603C41.63,359.633 42.427,360 43.125,360C43.645,360 44.536,360.139 45.103,360.309C48.097,361.206 53.636,358.716 58.773,354.164C60.644,352.506 60.92,352.347 61.184,352.774C61.353,353.048 68.212,352.955 69.528,352.661C70.281,352.493 70.42,352.55 70.637,353.121C71.148,354.467 73.372,355.31 74.439,354.563C75.529,353.799 77.629,353.989 78.533,354.933C79.526,355.969 80.091,355.942 81.498,354.788C84.636,352.218 82.581,352.247 219.467,352.798C306.331,353.147 311.246,353.154 321.527,352.932C327.749,352.797 329.981,352.846 332.594,353.175C341.632,354.311 364.683,354.53 366.214,353.493C369.45,351.302 367.36,347.251 363.401,348.043C362.275,348.269 359.829,348.349 355.867,348.29C352.64,348.242 343.88,348.223 336.4,348.246C328.92,348.27 321.72,348.291 320.4,348.291C319.08,348.292 301.08,348.161 280.4,348.001C223.558,347.56 185.467,347.422 185.232,347.657M27.489,351.038C26.743,351.976 25.953,352.812 25.733,352.897C25.226,353.091 25.187,355.828 25.678,356.8C25.971,357.381 26.255,357.492 27.874,357.659C30.693,357.952 31.101,357.132 30.248,352.884C30.083,352.06 30.107,352.033 31.085,351.951C32.519,351.831 32.483,351.406 30.944,350.3C29.173,349.028 29.072,349.049 27.489,351.038M371.812,356.733C371.12,357.503 369.6,360.867 369.6,361.629C369.6,361.873 369.972,362.867 370.426,363.838C371.146,365.376 371.214,365.71 370.959,366.441C369.931,369.389 372.423,370.567 375.048,368.373C376.466,367.187 376.916,366.234 376.7,364.873C376.613,364.319 376.427,363.087 376.287,362.133C375.51,356.83 373.695,354.64 371.812,356.733M31.468,363.773C31.027,364.382 30.662,365.012 30.657,365.173C30.643,365.601 29.599,366.75 28.594,367.443C26.941,368.583 26.592,370.522 27.886,371.371C29.429,372.381 32.167,370.924 33.117,368.586C33.277,368.19 33.643,367.334 33.929,366.683C35.456,363.212 33.527,360.931 31.468,363.773M371.885,383.467C369.583,385.225 368.996,389.795 370.651,393.067C372.586,396.891 372.579,398.692 370.617,402.426C370.012,403.577 369.996,403.812 369.802,414.533C369.693,420.547 369.537,428.351 369.455,431.876L369.307,438.285L370.738,441.022C372.459,444.312 373.346,445.406 374.193,445.286L374.8,445.2L375.023,437.867C375.145,433.833 375.145,419.793 375.023,406.667L374.8,382.8L373.867,382.733C373.174,382.684 372.663,382.873 371.885,383.467M28.632,418.191C27.037,419.976 27.003,421.082 28.501,422.507C29.801,423.744 30.171,423.193 30.076,420.163C29.992,417.49 29.662,417.039 28.632,418.191M28.387,427.222C28.289,427.38 28.051,428.13 27.858,428.888C27.665,429.646 27.091,431.437 26.582,432.866C25.814,435.023 25.695,435.637 25.884,436.466C26.025,437.087 26.003,437.83 25.826,438.423C25.6,439.185 25.626,439.544 25.956,440.183C26.185,440.624 26.304,441.244 26.221,441.561C25.975,442.502 26.576,442.933 28.133,442.933C29.847,442.933 30.148,442.622 30.09,440.906C30.066,440.187 30.074,436.873 30.109,433.539C30.144,430.206 30.096,427.356 30.004,427.206C29.78,426.845 28.613,426.856 28.387,427.222M26.3,451.533C26.013,451.988 25.859,453.98 25.665,459.733L25.408,467.333L26.061,469.2C27.284,472.694 27.283,472.691 26.802,475.626C26.499,477.473 26.413,478.919 26.538,480.081C26.661,481.234 26.625,481.861 26.428,481.983C25.846,482.342 26.131,483.978 27.074,485.693C28.304,487.932 29.261,488.979 29.686,488.554C30.078,488.161 29.985,472.559 29.569,468.933C29.36,467.118 29.391,465.149 29.694,460.852C30.181,453.96 29.995,452.233 28.679,451.431C27.593,450.769 26.76,450.804 26.3,451.533M369.158,470.281C369.07,470.509 369.196,471.139 369.438,471.681C369.837,472.575 369.871,474.718 369.806,494.8L369.733,516.933L298,517.009C258.547,517.05 225.894,517.018 225.438,516.937C224.841,516.831 224.216,516.324 223.205,515.128C221.625,513.257 217.323,510.4 216.086,510.4C215.984,510.4 214.738,509.857 213.317,509.192C208.031,506.721 201.704,506.202 194.4,507.639C192.212,508.069 192.177,508.079 187.733,509.478C182.983,510.974 178.862,513.118 176.581,515.281L174.896,516.88L102.78,516.738C44.652,516.624 30.584,516.53 30.251,516.254C29.904,515.965 29.847,515.156 29.891,511.072C29.955,505.141 29.143,503.233 26.676,503.521L26,503.6L26,520.667L101.687,520.734L177.375,520.801L178.529,519.646C183.825,514.35 192.513,511.191 200.8,511.548C206.763,511.804 208.247,512.15 214.106,514.646C217.883,516.255 218.873,516.904 221.767,519.667L222.955,520.801L298.477,520.734L374,520.667L374.133,516.533C374.207,514.26 374.353,512.268 374.458,512.106C374.949,511.352 375.203,508.008 374.973,505.333C374.788,503.186 374.825,501.911 375.132,499.867C375.449,497.762 375.47,496.889 375.235,495.724C374.586,492.518 374.566,490.382 375.161,488.028C375.674,486.002 375.697,485.566 375.423,483.157C375.198,481.177 375.199,480.255 375.428,479.491C376.074,477.333 375.831,476.233 374.271,474.267C373.806,473.68 373.108,472.646 372.721,471.968C371.76,470.284 369.557,469.241 369.158,470.281M25.323,492.146C25.052,492.472 25.045,492.837 25.29,493.899C25.461,494.637 25.6,495.596 25.6,496.031C25.6,497.103 26.382,498.513 27.946,500.257L29.252,501.714L29.987,501.233L30.721,500.752L30.534,498.043C30.309,494.771 30.128,494.349 28.323,492.881C26.85,491.682 25.901,491.449 25.323,492.146" style="fill:rgb(239,56,39);"/>
    </g>
</svg>
