<?xml version="1.0" encoding="UTF-8" standalone="no"?>
<!DOCTYPE svg PUBLIC "-//W3C//DTD SVG 1.1//EN" "http://www.w3.org/Graphics/SVG/1.1/DTD/svg11.dtd">
<svg width="1500" height="2100" viewBox="0 0 1500 2100" version="1.1" xmlns="http://www.w3.org/2000/svg" xmlns:xlink="http://www.w3.org/1999/xlink" xml:space="preserve" xmlns:serif="http://www.serif.com/" style="fill-rule:evenodd;clip-rule:evenodd;stroke-linejoin:round;stroke-miterlimit:2;">
    <path id="Textbox--Back-" serif:id="Textbox (Back)" d="M1159.68,1325.25C1160.67,1325.01 1168.78,1325.7 1181.75,1324.18C1198.58,1322.2 1235.15,1321.83 1237.11,1323.6C1238.34,1324.71 1242.43,1325.26 1252.92,1325.7C1260.7,1326.04 1267.31,1326.69 1267.6,1327.15C1267.88,1327.62 1270.68,1328.03 1273.81,1328.06C1276.94,1328.09 1281.72,1328.48 1284.43,1328.93C1287.15,1329.38 1290.75,1329.36 1292.43,1328.9C1298.59,1327.22 1307.4,1327.18 1312.26,1328.81C1316.34,1330.17 1318.17,1330.23 1325.31,1329.2C1335.6,1327.71 1344.54,1327.7 1353,1329.16C1356.57,1329.79 1362.2,1330.36 1365.5,1330.45C1371.98,1330.62 1372.95,1332.12 1369.25,1336.25C1367.94,1337.72 1367.88,1338.64 1368.84,1341.87C1369.48,1343.99 1370,1346.69 1370,1347.87C1370,1349.04 1370.88,1350.88 1371.96,1351.95C1373.89,1353.89 1373.88,1353.95 1370.57,1359.45C1361.85,1373.93 1365.56,1395.26 1379.97,1413.5C1389.16,1425.14 1389.27,1427.01 1381.01,1432.83C1374.79,1437.22 1373.34,1439.8 1374.32,1444.76C1374.61,1446.27 1375.74,1452.23 1376.82,1458C1379.29,1471.22 1379.41,1471.5 1384.78,1477.34C1390.45,1483.49 1390.34,1487.48 1384.12,1499.89C1377.36,1513.42 1377.86,1520.21 1385.64,1520.55L1388.14,1520.66L1388.05,1558.08L1387.96,1595.5L1385.44,1597.36C1380.75,1600.83 1374.14,1617.44 1375.42,1622.55C1375.8,1624.05 1375.46,1627.01 1374.66,1629.35C1371.91,1637.3 1371.15,1643.58 1371.42,1656C1371.61,1664.91 1371.33,1668.93 1370.43,1670C1368.43,1672.39 1367.41,1681.59 1367.77,1694C1367.95,1700.33 1368.09,1707.62 1368.06,1710.21C1367.99,1718.67 1370.29,1725.45 1373.36,1725.82C1375.97,1726.13 1376,1726.23 1376,1734.18C1376,1743.5 1378.35,1751.49 1381.75,1753.74C1382.99,1754.56 1384,1755.97 1384.01,1756.86C1384.01,1757.76 1384.9,1759.97 1386,1761.77C1387.1,1763.58 1388,1765.91 1388,1766.97C1388,1768.02 1388.48,1769.18 1389.07,1769.54C1389.7,1769.93 1389.8,1770.87 1389.32,1771.85C1388.87,1772.76 1388.28,1810.85 1388,1856.5L1387.5,1939.5L1160.5,1939.56C1035.65,1939.6 916.174,1939.19 895.001,1938.66C873.825,1938.13 853.646,1937.65 850.163,1937.6C844.305,1937.51 843.713,1937.29 842.377,1934.75C841.586,1933.24 840.446,1932 839.85,1932C838.875,1932 834.18,1928.44 829.916,1924.47C829.046,1923.66 827.989,1923 827.569,1923C827.153,1923 825.521,1922.09 823.95,1920.96C818.573,1917.13 803.978,1910.05 798.236,1908.48C795.083,1907.62 791.625,1906.42 790.553,1905.83C779.981,1899.92 722.025,1902.05 706.5,1908.92C705.401,1909.41 701.801,1910.82 698.501,1912.07C695.201,1913.31 692.051,1914.66 691.5,1915.06C690.949,1915.47 686.674,1917.72 682.001,1920.06C673.155,1924.5 668.715,1927.58 660.818,1934.72L656.138,1938.95L502.32,1939.04C417.72,1939.1 335.674,1939.15 319.999,1939.17C304.324,1939.2 251.336,1939.11 202.249,1938.99L112.999,1938.75L112.849,1934.13C112.549,1924.88 113.771,1919.74 116.153,1920.26C118.069,1920.68 121.999,1911.99 121.999,1907.33C121.999,1904.93 122.531,1902.12 123.18,1901.09C124.125,1899.57 124.024,1898.68 122.677,1896.63C121.755,1895.22 121.001,1893.19 121.001,1892.11C121.001,1891.04 119.828,1888.76 118.395,1887.06C116.351,1884.63 116.04,1883.66 116.944,1882.57C117.776,1881.56 117.791,1880.99 116.993,1880.5C116.216,1880.01 116.302,1879.18 117.292,1877.66C123.578,1867.97 122.314,1846.11 115.088,1839.58C113.029,1837.71 112.973,1836.99 113.22,1814.97C113.423,1796.89 113.194,1791.94 112.099,1790.62C110.925,1789.2 110.951,1788.71 112.29,1787.23C114.386,1784.91 114.443,1758.95 112.358,1754.8C110.565,1751.24 110.644,1748.98 112.609,1747.55C114.285,1746.32 114.758,1732.68 113.378,1725.24C113.021,1723.32 113.258,1721.39 113.955,1720.55C114.818,1719.52 114.848,1718.58 114.071,1717.13C111.75,1712.8 115.624,1711.76 118.68,1715.89C119.606,1717.15 120.131,1717.24 121.091,1716.29C121.991,1715.4 122.021,1714.73 121.211,1713.75C120.379,1712.75 120.926,1710.38 123.428,1704.18C125.254,1699.65 127.065,1693.15 127.451,1689.73C127.838,1686.32 128.606,1682.97 129.161,1682.3C130.403,1680.81 129.416,1679 127.361,1679C126.184,1679 125.992,1678.31 126.514,1675.93C127.376,1672.01 125.348,1669.66 119.126,1667.37C116.584,1666.44 114.098,1665.32 113.603,1664.89C112.414,1663.85 112.849,1623.78 114.06,1622.55C114.578,1622.03 115.001,1620.73 115.001,1619.66C115.001,1618.59 115.74,1617.18 116.64,1616.52C117.544,1615.86 119.07,1612.21 120.034,1608.41C121.995,1600.65 121.729,1599.58 116.456,1594L113.153,1590.5L112.545,1560.18L115.68,1555.34C120.769,1547.49 121.496,1545.38 120.146,1542.42C118.868,1539.61 119.355,1538 121.485,1538C126.12,1538 130.279,1503.15 125.966,1500.48C124.335,1499.47 124.894,1495.41 126.908,1493.58C133.729,1487.41 131.201,1443.73 123.679,1437.83C120.896,1435.64 122.655,1427.94 126.885,1423.81C128.4,1422.33 130.256,1419.26 131.006,1416.98L132.368,1412.85L128.685,1409.48C124.298,1405.46 124.384,1406.17 127.598,1400.42C130.575,1395.08 130.369,1387.74 127.207,1386.53C125.681,1385.94 125.723,1385.71 127.613,1384.19C129.979,1382.28 131.456,1379 129.945,1379C129.398,1379 128.524,1380.12 127.999,1381.5C127.402,1383.07 126.27,1384 124.954,1384L122.854,1384L124.927,1381.37C126.068,1379.92 127.001,1377.92 127.001,1376.92C127.001,1375.93 127.436,1374.85 127.973,1374.52C129.829,1373.37 132.173,1367.12 131.52,1365.06C131.085,1363.7 131.31,1362.99 132.184,1362.97C133.871,1362.92 138,1359.5 138,1358.14C138,1357.58 140.28,1354.87 143.063,1352.13C149.104,1346.18 152.235,1345.57 159.499,1348.93C172.106,1354.76 200.194,1348.98 209.501,1338.64C212.329,1335.5 219.604,1331 221.861,1331C222.911,1331 223.991,1330.15 224.261,1329.1C225.33,1325.03 229.549,1323.54 233.029,1326.02L236.13,1328.23L238.515,1325.99C240.12,1324.48 241.485,1323.98 242.7,1324.47C243.69,1324.87 248.696,1325.39 253.823,1325.63C259.725,1325.9 265.043,1326.78 268.32,1328.03C273.814,1330.12 282.469,1330.67 283.5,1329C284.921,1326.7 290.809,1327.92 292.973,1330.96C296.569,1336.01 301.253,1336.13 306.334,1331.28C313.429,1324.52 338.194,1319.6 343.391,1323.91C344.524,1324.85 345.739,1324.86 348.743,1323.96C352.417,1322.86 359.235,1323 366.926,1324.35C368.813,1324.68 370.886,1324.51 371.531,1323.98C374.258,1321.71 663.248,1322.28 664.789,1324.55C665.805,1326.05 678.308,1325.8 679.294,1324.26C679.916,1323.29 704.018,1323.03 791.794,1323.04C867.821,1323.05 906.375,1322.7 912.499,1321.94C919.159,1321.12 924.353,1321.13 932.456,1321.97C939.154,1322.66 962.873,1323.09 993.458,1323.08C1020.98,1323.06 1048.68,1323.48 1055,1324.02C1076.36,1325.81 1144.68,1326.51 1146.57,1324.94C1147.98,1323.77 1148.43,1323.79 1149.47,1325.29C1150.03,1326.09 1157.43,1325.8 1159.68,1325.25Z" style="fill:rgb(0,117,190);"/>
</svg>
