<?xml version="1.0" encoding="UTF-8" standalone="no"?>
<!DOCTYPE svg PUBLIC "-//W3C//DTD SVG 1.1//EN" "http://www.w3.org/Graphics/SVG/1.1/DTD/svg11.dtd">
<svg width="1500" height="2100" viewBox="0 0 1500 2100" version="1.1" xmlns="http://www.w3.org/2000/svg" xmlns:xlink="http://www.w3.org/1999/xlink" xml:space="preserve" xmlns:serif="http://www.serif.com/" style="fill-rule:evenodd;clip-rule:evenodd;stroke-linejoin:round;stroke-miterlimit:2;">
    <path id="Twins--Back-" serif:id="Twins (Back)" d="M998.591,109.29C998.903,110.276 1000.9,111.776 1003.03,112.631C1007.42,114.386 1010.62,118.965 1012.38,125.989C1014.16,133.103 1016.28,132.495 1020.67,123.615C1024.2,116.486 1024.31,115.995 1022.7,114.218C1019.91,111.139 1020.92,108.315 1023.78,111.176C1024.42,111.825 1027.45,112.429 1030.5,112.519C1034.34,112.635 1036.72,113.273 1038.27,114.608C1039.5,115.661 1042.08,117.39 1044,118.448C1045.92,119.505 1049.75,122.291 1052.5,124.639C1055.25,126.986 1061.84,132.51 1067.14,136.909C1072.58,141.42 1078.03,146.925 1079.64,149.539C1081.21,152.085 1083.7,155.618 1085.18,157.388C1086.66,159.161 1088.17,161.828 1088.54,163.313C1089.48,167.055 1090.74,167.535 1092.84,164.948C1096.02,161.029 1104.51,167.794 1108.55,177.465C1110.41,181.913 1113.75,182.04 1115.8,177.739C1117.15,174.904 1121.51,172.241 1128.46,169.988C1133.38,168.398 1140.94,163.455 1147.5,157.545C1150.25,155.066 1153.26,153.034 1154.19,153.019C1155.12,153.008 1156.16,152.55 1156.5,151.999C1156.84,151.451 1159.71,151.001 1162.89,151.001C1174.48,151.001 1176.11,156.251 1177.59,198.499C1177.95,208.991 1178.67,215.914 1179.65,218.606C1182.91,227.468 1180.96,229.616 1172,227.029C1166.9,225.559 1132.21,223.961 1095.5,223.511C1077.9,223.294 1062.83,223.054 1062,222.975C1058.58,222.641 1001.5,224.19 1000.78,224.636C1000.35,224.899 1000,225.979 1000,227.033C1000,228.679 999.536,228.848 996.75,228.225C993.214,227.438 990.818,227.494 975,228.735C969.225,229.185 929.996,229.47 887.828,229.365L811.155,229.174L808.144,226.95C804.428,224.201 797.333,224.64 792.938,227.888C789.24,230.621 788.715,230.569 784.695,227.036C777.034,220.309 762.818,219.353 747.499,224.531C739.826,227.126 735.874,227.903 730.5,227.88C721.613,227.839 710.28,229.504 704.974,231.626C699.443,233.839 618.139,232.178 614.4,229.774C613.793,229.384 592.736,229.009 567.604,228.938L521.906,228.81L517.001,223.905C511.23,218.138 507.458,217.451 503.456,221.456C500.479,224.43 500.34,226.016 502.999,226.71C506.846,227.715 504.949,228.499 498.75,228.465C493.987,228.439 491.666,227.891 489,226.163C484.121,222.998 462.008,227.213 460.313,231.63C459.983,232.493 458.366,232.148 454.672,230.43C448.29,227.456 444.585,227.393 437.224,230.126C430.493,232.628 389.111,233.734 376.999,231.735C373.163,231.101 359.265,230.771 343.084,230.929L315.664,231.199L312.427,227.348L309.188,223.5L300.094,223.778C292.519,224.006 291,223.8 291,222.54C291,214.429 257.306,217.196 249.51,225.953C246.637,229.178 244.118,230.344 242.648,229.121C241.815,228.431 239.033,228.473 233.963,229.256C229.856,229.89 224.813,230.325 222.75,230.224C215.396,229.864 213.289,229.916 196.001,230.865C180.889,231.694 178.271,231.619 176.816,230.318C174.975,228.671 162.004,228.96 148.999,230.94C145.425,231.484 137.91,232.208 132.296,232.545L122.096,233.164L120.6,229.583C119.775,227.61 118.635,226.001 118.065,226.001C114.851,226.001 111.765,218.048 111.383,208.774C110.85,195.96 110.843,196.193 112.477,160.361C112.931,150.42 112.819,145.005 112.151,144.593C111.023,143.895 111.716,137.595 113.246,134.614C115.08,131.048 126.236,117 127.238,117C127.785,117 129.773,115.65 131.651,114C133.534,112.35 136.151,111 137.475,111C138.799,111 140.186,110.505 140.561,109.898C140.959,109.256 142.5,109.05 144.266,109.403C145.954,109.74 147.885,109.511 148.642,108.885C149.543,108.135 152.089,108 156.248,108.476C159.686,108.87 172.778,109.339 185.336,109.515C197.899,109.695 208.436,110.1 208.755,110.419C209.801,111.469 216.574,111.026 217.766,109.834C218.629,108.971 219.93,108.941 222.716,109.725C224.978,110.363 234.945,110.693 247.5,110.55C259.365,110.415 270.146,110.753 272.284,111.323C275.025,112.058 276.386,112.016 277.234,111.169C277.875,110.524 280.02,109.999 282,109.999C283.98,109.999 286.129,109.474 286.774,108.829C287.606,107.993 288.604,107.948 290.224,108.668C291.476,109.226 293.625,109.391 295.001,109.031C296.374,108.675 316.849,108.536 340.5,108.728C364.151,108.919 426.701,109.174 479.501,109.294C553.02,109.463 576.671,109.811 580.5,110.779C584.423,111.773 602.291,111.919 663.499,111.454C777.345,110.591 781.496,110.588 864.33,111.266C917.006,111.698 940.976,111.563 942.833,110.824C944.299,110.239 951.473,109.605 958.774,109.418C966.071,109.23 972.713,108.701 973.526,108.248C976.729,106.451 997.969,107.336 998.591,109.29ZM1225.03,128.749C1235.99,142.613 1242.35,163.556 1242.55,186.499C1242.71,204.611 1243.61,214.706 1245.26,216.769C1247.69,219.81 1243.24,222 1234.59,222.011C1226.7,222.026 1218,224.1 1207.88,228.386C1203.97,230.04 1195.35,229.365 1192.74,227.198C1192,226.586 1190.38,226.35 1189.15,226.673C1186.63,227.333 1186.88,223.575 1189.62,219.566C1190.35,218.501 1190.68,216.585 1190.36,215.303C1190.04,214.024 1190.22,212.419 1190.75,211.736C1191.93,210.236 1193.32,199.879 1193.53,190.999C1193.61,187.425 1194.2,181.575 1194.84,178.001C1195.47,174.424 1195.99,169.973 1195.99,168.105C1196,165.45 1196.79,164.029 1199.64,161.561C1202.88,158.768 1203.16,158.164 1202.12,156.225C1200.36,152.944 1201.77,137.985 1203.9,137.325C1209.09,135.716 1213.42,133.29 1215.5,130.819C1216.8,129.27 1218.35,127.999 1218.93,127.999C1219.52,127.999 1220,127.549 1220,127.001C1220,125.04 1222.89,126.045 1225.03,128.749ZM1323,109.534C1359.98,110.021 1365.3,110.303 1370.72,112.043C1374.73,113.329 1375.08,113.276 1377.47,111.026C1378.92,109.661 1380,109.189 1380,109.916C1380,110.61 1378.65,112.365 1377,113.813C1373.64,116.764 1373.3,118.174 1375.51,120.011C1376.72,121.013 1376.78,121.56 1375.8,122.741C1374.81,123.93 1374.9,124.459 1376.27,125.453C1377.82,126.593 1377.76,126.878 1375.51,128.996C1374.16,130.26 1372.03,132.803 1370.78,134.644C1369.53,136.481 1367.64,137.989 1366.59,137.993C1363.15,138.004 1357.85,142.89 1358.19,145.733C1358.53,148.526 1355.15,151.616 1354.3,149.288C1353.62,147.405 1348.09,148.886 1343,152.321C1340.52,153.994 1336.47,155.693 1334,156.098C1331.52,156.503 1327.9,157.253 1325.94,157.77C1321.53,158.925 1300.47,157.065 1295.5,155.078C1294.4,154.635 1291.7,153.705 1289.5,153.004C1279.47,149.813 1274.73,146.704 1263.26,135.81C1261.48,134.115 1258.65,129.979 1256.97,126.615C1255.29,123.251 1252.55,118.789 1250.87,116.7C1246.57,111.334 1247.49,109.999 1255.47,109.999C1259.16,109.999 1262,110.434 1262,111C1262,112.586 1265.73,112.159 1266.36,110.501C1266.99,108.863 1272,108.394 1272,109.976C1272,111.034 1277.52,110.276 1280,108.881C1280.82,108.416 1283.97,108.285 1287,108.585C1290.03,108.889 1306.23,109.316 1323,109.534Z" style="fill:rgb(0,123,67);"/>
</svg>
