<?xml version="1.0" encoding="UTF-8" standalone="no"?>
<!DOCTYPE svg PUBLIC "-//W3C//DTD SVG 1.1//EN" "http://www.w3.org/Graphics/SVG/1.1/DTD/svg11.dtd">
<svg width="1500" height="2100" viewBox="0 0 1500 2100" version="1.1" xmlns="http://www.w3.org/2000/svg" xmlns:xlink="http://www.w3.org/1999/xlink" xml:space="preserve" xmlns:serif="http://www.serif.com/" style="fill-rule:evenodd;clip-rule:evenodd;stroke-linejoin:round;stroke-miterlimit:2;">
    <path id="Twins--Back-" serif:id="Twins (Back)" d="M273.356,1172.83C275.089,1183.66 280.676,1186.19 287.284,1179.13C293.224,1172.78 293.857,1172.43 295.451,1174.61C296.693,1176.3 296.996,1176.31 300.634,1174.78C306.083,1172.48 309.998,1171.76 311.347,1172.82C311.981,1173.32 314.449,1173.98 316.826,1174.28C319.208,1174.58 321.945,1175.54 322.905,1176.42C323.869,1177.29 326.048,1178 327.746,1178C329.449,1178 332.16,1178.76 333.776,1179.69C336.596,1181.3 336.821,1181.28 339.491,1179.19C345.93,1174.12 357,1177.49 357,1184.51C357,1189.25 359.944,1189.81 363.371,1185.72C367.076,1181.31 368.475,1181.15 373.058,1184.58C385.763,1194.09 391.282,1194.13 398.393,1184.75C401.741,1180.34 403.001,1180.02 403.001,1183.61C403.001,1185.74 403.324,1186.07 404.749,1185.4C405.712,1184.95 414.825,1184.34 424.999,1184.03C435.176,1183.73 444.083,1183.11 444.795,1182.65C445.541,1182.18 446.7,1182.34 447.532,1183.03C448.624,1183.93 455.07,1184.05 473.738,1183.52C504.064,1182.66 517.117,1182.45 523.001,1182.76C525.476,1182.89 536.951,1182.58 548.501,1182.07C560.051,1181.56 578.501,1181.32 589.5,1181.53C630.518,1182.31 690.255,1181.94 732.499,1180.63C739.099,1180.43 746.749,1180.69 749.501,1181.2C755.726,1182.38 755.111,1182.38 775.039,1181.24C784.133,1180.72 792.57,1179.77 793.789,1179.11C795.21,1178.35 796.624,1178.25 797.749,1178.84C800.546,1180.3 825.484,1181.35 827.805,1180.1C830.108,1178.87 850.549,1177.61 862.999,1177.93C879.521,1178.37 885.079,1178.01 888.323,1176.32C891.874,1174.48 933.566,1173.66 937.5,1175.37C938.599,1175.84 951.874,1176.3 967.001,1176.38C990.12,1176.51 995.52,1176.82 1000.91,1178.34C1008.4,1180.44 1020.55,1180.89 1023.68,1179.19C1024.89,1178.54 1027.83,1178 1030.23,1178C1032.63,1178 1035.13,1177.47 1035.77,1176.83C1036.67,1175.93 1037.55,1175.93 1039.52,1176.83C1042.99,1178.41 1081.14,1178.46 1082.71,1176.88C1083.4,1176.2 1085.49,1176.01 1088.16,1176.4C1090.55,1176.74 1100.6,1177.42 1110.5,1177.92C1121.39,1178.46 1131.07,1179.48 1135,1180.51C1145.91,1183.37 1152.46,1184.35 1155.5,1183.59C1159.47,1182.59 1156.93,1181.04 1151.31,1181.01C1149,1181.01 1146.84,1180.55 1146.5,1180C1146.16,1179.45 1146.78,1179 1147.88,1179C1148.99,1179 1150.58,1178.01 1151.43,1176.8L1152.97,1174.59L1155.02,1176.78C1156.14,1177.99 1158.28,1179.27 1159.78,1179.64C1161.27,1180.01 1163.57,1181.14 1164.88,1182.15C1168.77,1185.16 1175.78,1184.19 1174.48,1180.81C1173.07,1177.14 1184.03,1175.93 1208.75,1177.04L1215,1177.32L1215,1182.1C1215,1188.13 1215.2,1188.23 1224.62,1186.92C1235.22,1185.45 1242.99,1180 1234.5,1180C1232.06,1180 1231,1179.55 1231,1178.5C1231,1176.69 1231.68,1176.66 1237.49,1178.21C1242.02,1179.42 1242.95,1180.65 1240.89,1182.71C1236.94,1186.65 1256.01,1186.28 1262.33,1182.29C1266.59,1179.61 1267.73,1179.78 1266.08,1182.85C1261.77,1190.89 1275.89,1188.93 1281.26,1180.73C1282.49,1178.86 1283.5,1178.37 1285.44,1178.75C1286.89,1179.02 1288,1178.77 1288,1178.17C1288,1176.95 1304.16,1177.5 1312.77,1179.02C1316.06,1179.59 1318.88,1179.58 1320.27,1178.99C1322.19,1178.17 1338.69,1176.36 1350.16,1175.71C1352.18,1175.6 1354.17,1175.16 1354.58,1174.75C1355.8,1173.54 1359.55,1173.88 1362.64,1175.49C1364.21,1176.32 1367.33,1176.99 1369.58,1176.99C1372.63,1177 1374.24,1177.63 1376.02,1179.52C1377.32,1180.91 1379.76,1182.4 1381.44,1182.84C1383.87,1183.48 1384.5,1184.18 1384.5,1186.28C1384.5,1187.72 1385.31,1189.5 1386.3,1190.23C1390,1192.94 1391.8,1236.66 1388.82,1251.12C1387.93,1255.38 1387.91,1258.09 1388.73,1261.66C1390.04,1267.4 1389.36,1269.12 1386.99,1265.99C1381.65,1258.91 1378,1275.41 1383.09,1283.64C1384.93,1286.63 1384.97,1287.13 1383.59,1290.43C1381.88,1294.55 1382.1,1294.45 1378.37,1292.51C1372.58,1289.49 1363.49,1297.1 1368.88,1300.43C1369.37,1300.73 1369.95,1302.22 1370.17,1303.74L1370.58,1306.5L1360.04,1306.5C1354.25,1306.5 1333.3,1306.92 1313.5,1307.42C1271.27,1308.51 1279.19,1308.55 1249.14,1307.06C1225.54,1305.89 1224.72,1305.91 1222.64,1307.79C1220.19,1310.02 1214.72,1311.32 1213.39,1310C1212.27,1308.87 1198.26,1308.41 1195.22,1309.41C1193.51,1309.96 1192.51,1309.61 1191.2,1308C1189.47,1305.86 1189.37,1305.85 1181.12,1307.42C1173.78,1308.81 1172.19,1308.83 1167.65,1307.56C1160.44,1305.56 902.805,1305.88 896.501,1307.9C887.948,1310.65 886.376,1310.52 885.146,1306.98L884.029,1303.78L861.765,1304.27C847.459,1304.58 838.069,1305.21 835.5,1306.05C830.993,1307.52 812.756,1307.78 792.499,1306.67C780.409,1306.01 776.43,1305.93 760.5,1306.03C757.2,1306.05 750.964,1305.54 746.64,1304.89C741.368,1304.11 736.095,1304.01 730.639,1304.6C726.161,1305.08 717.101,1305.26 710.501,1305.02C703.901,1304.76 694.676,1304.6 690,1304.65C685.324,1304.69 640.549,1305.03 590.501,1305.39C494.542,1306.08 458.366,1307.17 370.5,1312.03C359.782,1312.62 349.991,1312.61 343.999,1312.01C338.775,1311.48 329.689,1311.04 323.809,1311.03C317.929,1311.01 312.848,1310.56 312.518,1310.03C309.645,1305.38 300.038,1305.22 291.847,1309.68C287.726,1311.92 286.699,1312.12 284.28,1311.12C279.255,1309.04 244.995,1309.14 241.759,1311.25C238.324,1313.49 238.361,1313.49 235.414,1310.31C231.364,1305.94 222.911,1305.79 217.151,1309.99C212.813,1313.15 212.794,1313.15 211.343,1311.08C209.126,1307.91 202.961,1308.3 196.463,1312.02L191.179,1315.04L189.041,1312.33C186.611,1309.24 175.155,1307.23 170.363,1309.05C168.99,1309.58 166.759,1310 165.401,1310C164.044,1310 160.811,1311.07 158.216,1312.38C149.003,1317.04 138.368,1312.11 136.534,1302.33C135.923,1299.07 133.823,1296.94 128.089,1293.79C126.379,1292.85 124.511,1291.05 123.937,1289.79C123.364,1288.53 122.22,1286.27 121.399,1284.76C120.281,1282.72 120.071,1280.49 120.574,1276.05L121.249,1270.07L125.505,1270.66C128.993,1271.13 130.144,1270.86 131.88,1269.12C133.046,1267.95 134.655,1267 135.458,1267C137.014,1267 143.04,1261.25 146.734,1256.25C149.745,1252.17 150.416,1235.22 147.686,1232.2C146.76,1231.18 145.999,1229.98 145.999,1229.53C145.999,1226.4 136.766,1218.19 132.521,1217.56C127.553,1216.81 127.211,1215.98 130.042,1211.5C132.184,1208.11 135,1202.14 135,1200.99C135,1200.57 135.671,1198.94 136.493,1197.36C137.314,1195.79 137.989,1193.68 137.993,1192.68C138.019,1185.53 144.581,1180.65 153.424,1181.21C159.098,1181.58 161.291,1181.36 162.142,1180.33C163.976,1178.12 178.511,1178.8 180.683,1181.2C182.903,1183.65 193.08,1182.72 197.426,1179.67C199.215,1178.41 201.634,1177.7 203.666,1177.84C205.489,1177.96 208.369,1177.34 210.064,1176.47C212.449,1175.23 213.461,1175.14 214.556,1176.05C216.788,1177.9 225.319,1177.76 249.499,1175.46C252.799,1175.15 259.23,1174.83 263.79,1174.76L272.078,1174.62L271.459,1171.81C271.118,1170.27 271.268,1169 271.792,1169C272.318,1169 273.019,1170.72 273.356,1172.83ZM1252.86,1172.04C1250.43,1174.15 1248.11,1175.45 1247.62,1174.98C1246.34,1173.75 1247.68,1170.94 1249.26,1171.55C1250,1171.83 1251.65,1170.93 1252.94,1169.56C1254.24,1168.18 1255.73,1167.33 1256.26,1167.66C1256.79,1167.99 1255.26,1169.96 1252.86,1172.04Z" style="fill:rgb(0,123,67);"/>
</svg>
