<?xml version="1.0" encoding="UTF-8" standalone="no"?>
<!DOCTYPE svg PUBLIC "-//W3C//DTD SVG 1.1//EN" "http://www.w3.org/Graphics/SVG/1.1/DTD/svg11.dtd">
<svg width="1500" height="2100" viewBox="0 0 1500 2100" version="1.1" xmlns="http://www.w3.org/2000/svg" xmlns:xlink="http://www.w3.org/1999/xlink" xml:space="preserve" xmlns:serif="http://www.serif.com/" style="fill-rule:evenodd;clip-rule:evenodd;stroke-linejoin:round;stroke-miterlimit:2;">
    <g id="Masks">
        <path id="Frame" d="M986,1969L514,1969C513.235,1960.94 508.219,1951.55 496,1948L100,1948L100,1853C73.299,1829.61 60.611,1789.61 60,1765L60,85C62.855,71.038 71.263,62.781 85,60L1415,60C1428.74,62.781 1437.14,71.038 1440,85L1440,1765C1439.39,1789.61 1426.7,1829.61 1400,1853L1400,1948L1004,1948C991.781,1951.55 986.765,1960.94 986,1969ZM119,1929L1381,1929L1381,1322L119,1322L119,1929ZM95.879,1220.88C98.445,1208.92 103.487,1196.96 112,1185L724,1185C734.064,1185.24 742.884,1187.29 749.917,1191.94L750,1192C757.047,1187.31 765.897,1185.24 776,1185L1388,1185L1388.32,1185.44C1396.6,1197.2 1401.54,1208.95 1404.08,1220.7L1404.79,1220L1426.79,1242L1404.79,1264L1404.08,1263.3C1401.51,1275.2 1396.47,1287.1 1388,1299L112,1299C103.487,1287.04 98.445,1275.08 95.879,1263.12L95,1264L73,1242L95,1220L95.879,1220.88ZM1385,237C1384.98,236.978 1385,1166 1385,1166L115,1166L115,237C115,237 1385.02,237.022 1385,237ZM112,218C98.476,199 93.714,180 93.714,161C93.714,142 98.476,123 112,104L709,104C728.317,104.377 749.333,119 750,119C750.667,119 771.683,104.377 791,104L1388,104C1401.52,123 1406.29,142 1406.29,161C1406.29,180 1401.52,199 1388,218L112,218Z" style="fill:rgb(0,123,67);"/>
    </g>
</svg>
