<?xml version="1.0" encoding="UTF-8" standalone="no"?><!DOCTYPE svg PUBLIC "-//W3C//DTD SVG 1.1//EN" "http://www.w3.org/Graphics/SVG/1.1/DTD/svg11.dtd"><svg width="1500" height="2100" viewBox="0 0 1500 2100" version="1.1" xmlns="http://www.w3.org/2000/svg" xmlns:xlink="http://www.w3.org/1999/xlink" xml:space="preserve" xmlns:serif="http://www.serif.com/" style="fill-rule:evenodd;clip-rule:evenodd;stroke-linejoin:round;stroke-miterlimit:2;"><path id="Twins--Stroke-" serif:id="Twins (Stroke)" d="M95.879,1220.88c2.566,-11.958 7.608,-23.918 16.121,-35.879l612,-0c10.064,0.237 18.884,2.289 25.917,6.945l0.083,0.055c7.047,-4.695 15.897,-6.762 26,-7l612,-0l0.315,0.445c8.281,11.752 13.221,23.504 15.768,35.258l0.703,-0.703l22,22l-22,22l-0.703,-0.703c-2.578,11.9 -7.611,23.801 -16.083,35.703l-1276,-0c-8.513,-11.96 -13.555,-23.921 -16.121,-35.879l-0.879,0.879l-22,-22l22,-22l0.879,0.879Z" style="fill:#ef3827;"/></svg>