<?xml version="1.0" encoding="UTF-8" standalone="no"?>
<!DOCTYPE svg PUBLIC "-//W3C//DTD SVG 1.1//EN" "http://www.w3.org/Graphics/SVG/1.1/DTD/svg11.dtd">
<svg width="1500" height="2100" viewBox="0 0 1500 2100" version="1.1" xmlns="http://www.w3.org/2000/svg" xmlns:xlink="http://www.w3.org/1999/xlink" xml:space="preserve" xmlns:serif="http://www.serif.com/" style="fill-rule:evenodd;clip-rule:evenodd;stroke-linejoin:round;stroke-miterlimit:2;">
    <g id="Regular" transform="matrix(1,0,0,1.00288,0,-18.0519)">
        <path d="M1412.29,1898.09L1432.04,1897.21L1462.64,1897.4L1462.99,1925.5L1433.66,1925.56C1433.66,1925.56 1431.46,1940.8 1429.68,1947.72C1427.91,1954.58 1421.42,1967.11 1421.42,1967.11L1463.24,1967.7L1462.89,1985.64L1402.27,1986.16L1378.53,2006.36L1366.16,1991.91L1383.39,1977.81L1382.93,1972.53L117.068,1972.53L116.606,1977.81L133.838,1991.9L121.466,2006.36L97.735,1986.16L37.106,1985.64L36.765,1967.7L78.583,1967.11C78.583,1967.11 72.087,1954.58 70.32,1947.72C68.535,1940.8 66.337,1925.55 66.337,1925.55L37.006,1925.5L37.357,1897.39L67.963,1897.21L87.714,1898.09C87.714,1898.09 86.658,1926.76 88.879,1935.43C94.723,1958.23 101.191,1957.62 101.191,1957.62L1398.81,1957.62C1398.81,1957.62 1405.28,1958.23 1411.12,1935.43C1413.34,1926.76 1412.29,1898.09 1412.29,1898.09ZM87.299,1894.09L87.039,1856.84L103.786,1841.54L60.788,1787.15L61.436,1762.17C61.436,1762.17 55.127,1757.75 52.296,1754.57C49.344,1751.26 43.724,1742.3 43.724,1742.3L42.902,1797.51C42.902,1797.51 70.993,1824.34 78.267,1831.82C87.028,1840.83 80.362,1854.37 69.869,1854.38C59.807,1854.38 54.464,1841.41 58.861,1836.89C61.812,1833.87 66.287,1829.27 66.287,1829.27C66.287,1829.27 65.039,1825.71 63.925,1824.6C62.757,1823.43 59.276,1822.27 59.276,1822.27L44.707,1837.61L43.883,1846.57L67.394,1877.11L67.192,1893.45L87.299,1894.09ZM1413.29,1894.09L1412.92,1856.84L1396.17,1841.54L1439.17,1787.15L1438.52,1762.17C1438.52,1762.17 1444.83,1757.74 1447.66,1754.57C1450.62,1751.26 1456.24,1742.3 1456.24,1742.3L1457.06,1797.51C1457.06,1797.51 1428.97,1824.33 1421.69,1831.82C1412.93,1840.83 1419.6,1854.37 1430.09,1854.37C1440.15,1854.38 1445.5,1841.4 1441.1,1836.89C1438.15,1833.87 1433.67,1829.26 1433.67,1829.26C1433.67,1829.26 1434.92,1825.71 1436.03,1824.6C1437.2,1823.43 1440.68,1822.27 1440.68,1822.27L1455.25,1837.6L1456.08,1846.56L1434.51,1874.85L1433.4,1893.45L1413.29,1894.09ZM101.5,1851.38L573.825,1852.54L581.518,1841.52C581.518,1841.52 447.55,1817.4 321.685,1683.06C201.281,1554.55 179.453,1456.67 179.453,1456.67L162.632,1469.32C162.632,1469.32 168.494,1519.56 265.373,1648.09C349.703,1759.97 497.687,1833.39 497.687,1833.39L166.345,1831.77C166.345,1831.77 163.22,1831.59 162.295,1830.96C161.542,1830.45 160.795,1827.98 160.795,1827.98L160.036,1734.14C160.036,1734.14 151.951,1747.46 148.198,1751.95C145.177,1755.56 137.52,1761.09 137.52,1761.09L137.434,1839.51L108.981,1840.56L101.5,1851.38ZM1398.46,1851.38L926.134,1852.53L918.441,1841.51C918.441,1841.51 1052.41,1817.4 1178.27,1683.06C1298.68,1554.55 1320.51,1456.67 1320.51,1456.67L1337.33,1469.32C1337.33,1469.32 1331.46,1519.56 1234.59,1648.09C1150.26,1759.97 1002.27,1833.39 1002.27,1833.39L1333.62,1831.76C1333.62,1831.76 1336.74,1831.59 1337.66,1830.96C1338.42,1830.44 1339.16,1827.98 1339.16,1827.98L1339.92,1734.13C1339.92,1734.13 1348.01,1747.45 1351.76,1751.95C1354.78,1755.56 1362.44,1761.09 1362.44,1761.09L1362.53,1839.5L1390.98,1840.56L1398.46,1851.38ZM1286.09,1771.14C1277.19,1780.33 1268.74,1795.19 1271.06,1800.51C1273.54,1806.22 1293.81,1803.92 1304.89,1790.68C1315.98,1777.45 1319.4,1757.88 1314.33,1755.83C1306.92,1752.82 1294.96,1761.96 1286.09,1771.14ZM1199.32,1766.73C1209.66,1786.76 1209.47,1809.95 1222.03,1801.02C1232.96,1793.25 1235.75,1774.42 1229.47,1756.46C1229.15,1755.57 1237.54,1750.81 1237.54,1750.81L1236.13,1746.66C1236.13,1746.66 1226.66,1749.71 1226.06,1748.53C1215.71,1728.49 1197.12,1719.47 1184.55,1728.4C1171.99,1737.33 1188.97,1746.69 1199.32,1766.73ZM1285.64,1774.85C1297.82,1760.03 1312.01,1758.76 1312.01,1758.76C1312.01,1758.76 1304.2,1763.51 1297.92,1768.63C1284.19,1779.82 1283.35,1800.56 1283.35,1800.56C1283.35,1800.56 1258.31,1808.1 1285.64,1774.85ZM1281.68,1768.92C1299.44,1748.97 1318.04,1754.37 1304.57,1743.73C1295.67,1736.71 1279.76,1739.99 1266.99,1750.39C1266.36,1750.9 1260.4,1745.3 1260.4,1745.3L1257.44,1747.67C1257.44,1747.67 1262.3,1754.66 1261.52,1755.51C1248.12,1769.87 1245.36,1788.34 1256.02,1795.79C1273.44,1807.97 1261.48,1791.61 1281.68,1768.92ZM209.847,1767.36C218.74,1776.56 227.199,1791.42 224.879,1796.74C222.394,1802.44 202.128,1800.15 191.043,1786.91C179.958,1773.67 176.538,1754.1 181.6,1752.05C189.014,1749.05 200.969,1758.19 209.847,1767.36ZM296.619,1762.95C286.277,1782.99 286.468,1806.18 273.904,1797.25C262.97,1789.47 260.186,1770.65 266.467,1752.69C266.779,1751.8 258.395,1747.04 258.395,1747.04L259.804,1742.89C259.804,1742.89 269.272,1745.93 269.879,1744.76C280.221,1724.72 298.817,1715.7 311.38,1724.63C323.943,1733.56 306.96,1742.91 296.619,1762.95ZM210.296,1771.08C198.117,1756.26 183.929,1754.98 183.929,1754.98C183.929,1754.98 191.733,1759.74 198.016,1764.86C211.746,1776.05 212.584,1796.79 212.584,1796.79C212.584,1796.79 237.622,1804.33 210.296,1771.08ZM1300.35,1787.08C1306.57,1780.77 1313.54,1762.11 1313.54,1762.11C1313.54,1762.11 1308.71,1782.6 1302.49,1788.91C1296.27,1795.22 1289.67,1796.45 1289.67,1796.45C1289.67,1796.45 1294.13,1793.38 1300.35,1787.08ZM214.257,1765.14C196.498,1745.19 177.894,1750.59 191.369,1739.96C200.259,1732.94 216.171,1736.22 228.943,1746.61C229.578,1747.13 235.529,1741.53 235.529,1741.53L238.49,1743.9C238.49,1743.9 233.631,1750.89 234.417,1751.73C247.813,1766.1 250.577,1784.57 239.913,1792.02C222.494,1804.2 234.454,1787.83 214.257,1765.14ZM1266.86,1785.6C1266.86,1785.6 1263.76,1793.1 1261.95,1793.76C1260.14,1794.43 1256.02,1789.59 1256.02,1789.59C1256.02,1789.59 1259.66,1791.16 1261.34,1790.54C1263.15,1789.87 1266.86,1785.6 1266.86,1785.6ZM195.584,1783.3C189.365,1777 182.392,1758.33 182.392,1758.33C182.392,1758.33 187.223,1778.83 193.443,1785.14C199.662,1791.44 206.268,1792.68 206.268,1792.68C206.268,1792.68 201.803,1789.61 195.584,1783.3ZM229.073,1781.82C229.073,1781.82 232.175,1789.33 233.983,1789.99C235.79,1790.66 239.918,1785.82 239.918,1785.82C239.918,1785.82 236.277,1787.39 234.591,1786.77C232.784,1786.1 229.073,1781.82 229.073,1781.82ZM1215.53,1774.72L1220.81,1779.54C1220.81,1779.54 1224.71,1786.39 1226.26,1787.41C1227.38,1788.15 1230.1,1785.66 1230.1,1785.66C1230.1,1785.66 1227.73,1785.46 1226.94,1784.7C1225.62,1783.41 1222.14,1777.96 1222.14,1777.96L1215.53,1774.72ZM1210.17,1782.84C1208.96,1780.34 1209.69,1770.53 1209.69,1770.53C1209.69,1770.53 1210.7,1776.36 1211.91,1778.86C1213.12,1781.36 1216.96,1785.54 1216.96,1785.54C1216.96,1785.54 1211.25,1785.06 1210.17,1782.84ZM282.956,1760.15L280.404,1770.94L273.798,1774.19C273.798,1774.19 270.318,1779.64 268.991,1780.92C268.203,1781.69 265.837,1781.89 265.837,1781.89C265.837,1781.89 268.552,1784.38 269.675,1783.64C271.223,1782.62 275.126,1775.76 275.126,1775.76L280.404,1770.94L282.956,1760.15ZM1263.03,1772.02C1263.03,1772.02 1267.37,1772.98 1268.97,1771.84C1271.33,1770.16 1277.18,1761.94 1277.18,1761.94L1285.17,1756.71L1286.08,1750.29C1286.08,1750.29 1289.55,1745.82 1290.24,1744.35C1290.65,1743.47 1290.2,1741.45 1290.2,1741.45C1290.2,1741.45 1292.89,1742.99 1292.59,1744.13C1292.17,1745.72 1287.68,1750.93 1287.68,1750.93L1285.17,1756.71L1278.44,1762.61C1278.44,1762.61 1273.57,1771.76 1271.03,1773.59C1268.93,1775.1 1263.2,1773.57 1263.2,1773.57C1263.2,1773.57 1261.08,1782.19 1259.28,1782.6C1257.48,1783 1252.39,1776.02 1252.39,1776.02C1252.39,1776.02 1256.23,1778.92 1258.01,1778.25C1259.78,1777.59 1263.03,1772.02 1263.03,1772.02ZM285.764,1779.07C286.975,1776.56 286.243,1766.75 286.243,1766.75C286.243,1766.75 285.238,1772.58 284.027,1775.08C282.815,1777.59 278.976,1781.76 278.976,1781.76C278.976,1781.76 284.687,1781.29 285.764,1779.07ZM232.905,1768.25C232.905,1768.25 228.569,1769.21 226.966,1768.07C224.608,1766.39 218.752,1758.17 218.752,1758.17L210.763,1752.94L209.857,1746.51C209.857,1746.51 206.38,1742.05 205.692,1740.58C205.283,1739.7 205.729,1737.68 205.729,1737.68C205.729,1737.68 203.039,1739.22 203.344,1740.36C203.765,1741.94 208.254,1747.16 208.254,1747.16L210.763,1752.94L217.496,1758.84C217.496,1758.84 222.363,1767.99 224.902,1769.82C227.007,1771.33 232.731,1769.79 232.731,1769.79C232.731,1769.79 234.851,1778.41 236.654,1778.82C238.457,1779.23 243.548,1772.24 243.548,1772.24C243.548,1772.24 239.701,1775.14 237.927,1774.48C236.153,1773.81 232.905,1768.25 232.905,1768.25ZM43.126,1723.09C43.555,1746.68 78.129,1771.95 100.63,1771.74C124.55,1771.51 158.437,1745.63 158.657,1719.79C159.095,1668.38 160.428,1469.88 160.428,1469.88L136.275,1490.58C136.275,1490.58 138.729,1670.02 138.08,1714.61C137.86,1729.7 125.376,1751.38 100.019,1750.95C76.993,1750.56 61.902,1729.76 61.578,1713.55C60.876,1678.4 61.473,1553.26 61.473,1553.26L42.143,1568.05C42.143,1568.05 42.387,1682.5 43.126,1723.09ZM1456.83,1723.08C1456.4,1746.67 1421.83,1771.94 1399.33,1771.73C1375.41,1771.51 1341.52,1745.62 1341.3,1719.79C1340.86,1668.38 1339.53,1469.88 1339.53,1469.88L1363.68,1490.58C1363.68,1490.58 1361.23,1670.01 1361.88,1714.61C1362.1,1729.69 1374.58,1751.38 1399.94,1750.95C1422.97,1750.56 1438.06,1729.75 1438.38,1713.55C1439.08,1678.39 1438.49,1553.26 1438.49,1553.26L1457.82,1568.05C1457.82,1568.05 1457.57,1682.5 1456.83,1723.08ZM1225,1764.71C1225,1764.71 1216.31,1762.27 1215.18,1759.3C1214.06,1756.32 1218.25,1746.88 1218.25,1746.88C1218.25,1746.88 1216.99,1755.18 1218.11,1758.15C1219.24,1761.12 1225,1764.71 1225,1764.71ZM1212.98,1763.92C1212.98,1763.92 1204.57,1761.15 1203.32,1757.98C1202.07,1754.8 1206.29,1747.44 1206.29,1747.44C1206.29,1747.44 1197.26,1738.92 1197.58,1736.64C1197.9,1734.36 1207.4,1731.16 1207.4,1731.16C1207.4,1731.16 1202.59,1734.37 1202.78,1736.71C1203.01,1739.42 1208.74,1747.43 1208.74,1747.43C1208.74,1747.43 1205.31,1753.51 1206.02,1756.26C1206.73,1759.01 1212.98,1763.92 1212.98,1763.92ZM1274.74,1751.73C1274.74,1751.73 1275.01,1759.65 1272.92,1761.44C1270.82,1763.23 1262.19,1762.47 1262.19,1762.47C1262.19,1762.47 1269.16,1761.13 1271.25,1759.34C1273.34,1757.55 1274.74,1751.73 1274.74,1751.73ZM270.939,1760.93C270.939,1760.93 279.626,1758.5 280.75,1755.52C281.875,1752.55 277.687,1743.1 277.687,1743.1C277.687,1743.1 278.948,1751.41 277.823,1754.38C276.698,1757.35 270.939,1760.93 270.939,1760.93ZM282.956,1760.15C282.956,1760.15 291.363,1757.38 292.615,1754.2C293.866,1751.03 289.643,1743.66 289.643,1743.66C289.643,1743.66 298.674,1735.15 298.353,1732.87C298.032,1730.58 288.538,1727.39 288.538,1727.39C288.538,1727.39 293.343,1730.6 293.15,1732.94C292.927,1735.65 287.198,1743.66 287.198,1743.66C287.198,1743.66 290.622,1749.74 289.915,1752.49C289.208,1755.24 282.956,1760.15 282.956,1760.15ZM221.198,1747.95C221.198,1747.95 220.927,1755.88 223.019,1757.67C225.11,1759.46 233.746,1758.7 233.746,1758.7C233.746,1758.7 226.776,1757.35 224.685,1755.56C222.593,1753.77 221.198,1747.95 221.198,1747.95ZM1301.17,1749.74C1298.97,1752.26 1286.95,1758.78 1286.95,1758.78C1286.95,1758.78 1296.33,1751.64 1298.53,1749.11C1299.78,1747.67 1300.15,1743.63 1300.15,1743.63C1300.15,1743.63 1302.53,1748.18 1301.17,1749.74ZM194.763,1745.96C196.964,1748.49 208.986,1755.01 208.986,1755.01C208.986,1755.01 199.609,1747.86 197.407,1745.34C196.152,1743.9 195.779,1739.86 195.779,1739.86C195.779,1739.86 193.406,1744.41 194.763,1745.96ZM1192.77,1740.04C1192.77,1740.04 1186.04,1733.01 1187.04,1731.04C1188.04,1729.06 1198.76,1728.18 1198.76,1728.18C1198.76,1728.18 1191.88,1730.67 1190.88,1732.65C1189.88,1734.63 1192.77,1740.04 1192.77,1740.04ZM303.168,1736.27C303.168,1736.27 309.896,1729.24 308.897,1727.26C307.898,1725.29 297.172,1724.41 297.172,1724.41C297.172,1724.41 304.059,1726.9 305.058,1728.88C306.057,1730.85 303.168,1736.27 303.168,1736.27ZM1275.64,1697.57C1255.43,1690.53 1240.83,1674.94 1237.42,1688.59C1234.46,1700.47 1244.42,1714.73 1260.37,1722.87C1261.16,1723.28 1258.13,1731.58 1258.13,1731.58L1261.78,1733.48C1261.78,1733.48 1266.69,1725.66 1267.88,1726.07C1288.09,1733.12 1307.26,1727.75 1310.67,1714.11C1314.07,1700.46 1295.85,1704.61 1275.64,1697.57ZM220.294,1693.8C240.506,1686.76 255.105,1671.17 258.509,1684.81C261.471,1696.69 251.518,1710.96 235.561,1719.1C234.769,1719.5 237.806,1727.81 237.806,1727.81L234.151,1729.71C234.151,1729.71 229.241,1721.89 228.056,1722.3C207.844,1729.34 188.672,1723.98 185.268,1710.33C181.864,1696.69 200.083,1700.84 220.294,1693.8ZM1281.09,1716.21C1281.09,1716.21 1279.78,1709.72 1277.45,1708.65C1275.12,1707.59 1267.12,1709.82 1267.12,1709.82C1267.12,1709.82 1261.36,1703.12 1258.84,1702.16C1256.63,1701.32 1252.01,1704.04 1252.01,1704.04C1252.01,1704.04 1246.02,1702.53 1244.25,1702.49C1243.19,1702.46 1241.36,1703.77 1241.36,1703.77C1241.36,1703.77 1241.74,1700.45 1243.02,1700.26C1244.79,1699.99 1251.96,1702.17 1251.96,1702.17C1251.96,1702.17 1257.48,1698.45 1260.07,1699.39C1262.67,1700.33 1267.55,1707.8 1267.55,1707.8C1267.55,1707.8 1275.38,1704.5 1278.31,1705.86C1281.23,1707.21 1282.94,1715.32 1282.94,1715.32C1282.94,1715.32 1294.8,1714.86 1296.02,1716.58C1297.24,1718.3 1292.4,1726.24 1292.4,1726.24C1292.4,1726.24 1293.84,1721.16 1292.21,1719.72C1290.33,1718.05 1281.09,1716.21 1281.09,1716.21ZM1294.21,1711.17C1294.21,1711.17 1302.73,1709.57 1303.79,1711.53C1304.84,1713.5 1300.54,1722.95 1300.54,1722.95C1300.54,1722.95 1301.3,1716.57 1300.24,1714.61C1299.19,1712.64 1294.21,1711.17 1294.21,1711.17ZM214.841,1712.43C214.841,1712.43 216.159,1705.94 218.488,1704.88C220.817,1703.82 228.813,1706.05 228.813,1706.05C228.813,1706.05 234.573,1699.35 237.092,1698.39C239.299,1697.54 243.928,1700.27 243.928,1700.27C243.928,1700.27 249.911,1698.76 251.685,1698.71C252.74,1698.68 254.576,1700 254.576,1700C254.576,1700 254.199,1696.68 252.917,1696.48C251.149,1696.22 243.971,1698.4 243.971,1698.4C243.971,1698.4 238.458,1694.68 235.86,1695.62C233.263,1696.55 228.386,1704.03 228.386,1704.03C228.386,1704.03 220.551,1700.73 217.627,1702.08C214.704,1703.44 212.991,1711.55 212.991,1711.55C212.991,1711.55 201.135,1711.09 199.917,1712.81C198.698,1714.53 203.53,1722.47 203.53,1722.47C203.53,1722.47 202.095,1717.39 203.722,1715.95C205.608,1714.27 214.841,1712.43 214.841,1712.43ZM1263.4,1714.45C1263.4,1714.45 1271.46,1711.55 1273.33,1712.87C1275.19,1714.2 1274.58,1722.4 1274.58,1722.4C1274.58,1722.4 1272.56,1717.01 1270.7,1715.69C1268.83,1714.36 1263.4,1714.45 1263.4,1714.45ZM201.719,1707.4C201.719,1707.4 193.2,1705.8 192.147,1707.76C191.093,1709.72 195.397,1719.17 195.397,1719.17C195.397,1719.17 194.638,1712.8 195.692,1710.84C196.745,1708.87 201.719,1707.4 201.719,1707.4ZM232.538,1710.67C232.538,1710.67 224.472,1707.78 222.609,1709.1C220.746,1710.43 221.359,1718.63 221.359,1718.63C221.359,1718.63 223.374,1713.24 225.237,1711.91C227.1,1710.59 232.538,1710.67 232.538,1710.67ZM1243.38,1689.1C1245.33,1688.79 1252.88,1694.35 1252.88,1694.35C1252.88,1694.35 1246.6,1692.51 1244.65,1692.82C1243.05,1693.07 1241.16,1696.2 1241.16,1696.2C1241.16,1696.2 1241.42,1689.4 1243.38,1689.1ZM252.558,1685.32C250.605,1685.02 243.056,1690.58 243.056,1690.58C243.056,1690.58 249.33,1688.74 251.283,1689.04C252.883,1689.3 254.774,1692.42 254.774,1692.42C254.774,1692.42 254.511,1685.63 252.558,1685.32ZM44.661,1523.5L60.12,1510L59.796,1330.52L44.496,1330.39L44.661,1523.5ZM1455.3,1523.49L1439.84,1510L1440.16,1330.52L1455.46,1330.39L1455.3,1523.49ZM139.879,1445.59L168.379,1422.97C168.379,1422.97 161.664,1397.73 159.377,1382.6C157.054,1367.22 156.175,1330.41 156.175,1330.41L139.136,1330.57L139.879,1445.59ZM1360.08,1445.59L1331.58,1422.97C1331.58,1422.97 1338.3,1397.72 1340.58,1382.59C1342.91,1367.22 1343.78,1330.4 1343.78,1330.4L1360.82,1330.57L1360.08,1445.59ZM38.482,1323.66L158.801,1323.66L158.801,1203.99L153.223,1198.21L44.469,1198.85L37.41,1203.4L38.482,1323.66ZM1461.48,1323.65L1341.16,1323.65L1341.16,1203.99L1346.74,1198.21L1455.49,1198.84L1462.55,1203.4L1461.48,1323.65ZM57.15,1307.7L141.971,1307.45L142.463,1218.71L58.07,1219.76L57.15,1307.7ZM1442.81,1307.7L1357.99,1307.44L1357.5,1218.71L1441.89,1219.76L1442.81,1307.7ZM1412.21,1121.49C1408.31,1114.66 1398.7,1115.35 1395.4,1118.62C1392.11,1121.89 1390.66,1131.25 1393.95,1134.52C1397.25,1137.79 1407.09,1137.03 1409.73,1135.12C1411.76,1133.65 1425.41,1143.62 1433.59,1157.99C1437.87,1165.54 1435.36,1177.73 1434.3,1184.02C1433.55,1188.5 1427.27,1195.72 1427.27,1195.72L1453.66,1195.59C1453.66,1195.59 1455.51,1181.68 1454.01,1174.97C1451.98,1165.89 1445.51,1149.65 1438.67,1140.47C1431.83,1131.29 1412.72,1122.38 1412.21,1121.49ZM87.751,1121.49C91.651,1114.66 101.263,1115.35 104.558,1118.62C107.853,1121.89 109.299,1131.25 106.004,1134.52C102.709,1137.79 92.869,1137.03 90.225,1135.12C88.198,1133.65 74.545,1143.61 66.373,1157.99C62.085,1165.53 64.605,1177.73 65.658,1184.01C66.409,1188.5 72.69,1195.72 72.69,1195.72L46.298,1195.59C46.298,1195.59 44.448,1181.68 45.946,1174.97C47.975,1165.88 54.449,1149.65 61.287,1140.47C68.126,1131.29 87.242,1122.38 87.751,1121.49ZM1407.47,1144.17C1407.47,1144.17 1397.49,1150.79 1389.17,1151.84C1380.49,1152.93 1356.31,1150.61 1356.31,1150.61C1356.31,1150.61 1348.74,1160.96 1347.11,1167.58C1345.19,1175.33 1347.25,1194.96 1347.25,1194.96L1385.05,1194.96C1385.05,1194.96 1364.76,1186.56 1360.86,1181.54C1357.24,1176.89 1361.6,1164.84 1361.6,1164.84C1361.6,1164.84 1383.43,1166.55 1393.08,1164.58C1402.13,1162.73 1419.46,1153.03 1419.46,1153.03L1407.47,1144.17ZM92.492,1144.17C92.492,1144.17 102.471,1150.79 110.785,1151.84C119.469,1152.93 143.654,1150.61 143.654,1150.61C143.654,1150.61 151.216,1160.96 152.852,1167.57C154.771,1175.33 152.708,1194.96 152.708,1194.96L114.91,1194.96C114.91,1194.96 135.197,1186.56 139.105,1181.54C142.724,1176.89 138.356,1164.84 138.356,1164.84C138.356,1164.84 116.527,1166.55 106.885,1164.58C97.83,1162.73 80.5,1153.03 80.5,1153.03L92.492,1144.17ZM1365.6,1060.06C1365.6,1060.06 1363.09,1058.54 1362.06,1057.58C1361.03,1056.62 1359.44,1054.28 1359.44,1054.28C1359.44,1054.28 1357.12,1057.22 1355.68,1058.48C1354.17,1059.81 1351.24,1062.19 1351.24,1062.19L1351.89,1134.78C1351.89,1134.78 1373.82,1126.97 1389.23,1111.28C1395.87,1104.51 1402.1,1095.58 1406.11,1087.63C1410.76,1078.41 1412.05,1069.12 1412.05,1069.12L1398.36,1069.48C1398.36,1069.48 1397.61,1074.06 1395.29,1079.24C1392.63,1085.15 1388.23,1091.97 1385.82,1095.58C1381.97,1101.32 1375.64,1108.45 1372.21,1111.22C1370.39,1112.69 1365.24,1112.15 1365.24,1112.15L1365.6,1060.06ZM134.355,1060.06C134.355,1060.06 136.872,1058.54 137.899,1057.58C138.925,1056.61 140.514,1054.28 140.514,1054.28C140.514,1054.28 142.839,1057.22 144.28,1058.48C145.792,1059.81 148.721,1062.19 148.721,1062.19L148.069,1134.78C148.069,1134.78 126.139,1126.97 110.733,1111.28C104.091,1104.51 97.855,1095.58 93.85,1087.63C89.203,1078.4 87.908,1069.12 87.908,1069.12L101.602,1069.48C101.602,1069.48 102.346,1074.05 104.672,1079.24C107.324,1085.15 111.73,1091.97 114.144,1095.58C117.986,1101.32 124.316,1108.45 127.745,1111.21C129.571,1112.69 134.717,1112.15 134.717,1112.15L134.355,1060.06ZM1437.95,1045.34C1438.98,1041.71 1444.36,1039.18 1446.59,1039.06C1448.82,1038.95 1450.13,1041.07 1450.11,1042.92C1450.1,1044.77 1450.32,1045.35 1447.02,1046.65C1442.95,1048.25 1443.65,1060 1446.9,1060.55C1449.26,1060.94 1457.18,1060.84 1457.38,1056.75C1457.71,1049.93 1456.58,1021.1 1456.58,1021.1C1456.58,1021.1 1437.77,1022.64 1429.98,1031.89C1421.2,1042.33 1421.99,1063.48 1424.08,1073.58C1425.82,1081.99 1438.46,1087.27 1441.34,1092.72C1443.17,1096.2 1442.67,1102.59 1441.37,1106.3C1439.63,1111.25 1432.65,1124.32 1432.65,1124.32L1441.49,1134.13C1441.49,1134.13 1452.44,1119.17 1454.91,1111.04C1457.39,1102.9 1456.35,1085.33 1456.35,1085.33C1456.35,1085.33 1441.81,1077.85 1437.92,1071.21C1432.94,1062.69 1436.43,1050.66 1437.95,1045.34ZM62.012,1045.33C60.981,1041.71 55.6,1039.18 53.372,1039.06C51.144,1038.94 49.833,1041.06 49.847,1042.91C49.861,1044.76 49.644,1045.35 52.939,1046.64C57.012,1048.25 56.306,1060 53.061,1060.54C50.697,1060.94 42.778,1060.84 42.58,1056.75C42.25,1049.93 43.379,1021.09 43.379,1021.09C43.379,1021.09 62.192,1022.64 69.979,1031.89C78.759,1042.32 77.968,1063.47 75.879,1073.58C74.141,1081.99 61.504,1087.26 58.622,1092.72C56.785,1096.19 57.287,1102.59 58.592,1106.3C60.332,1111.25 67.306,1124.32 67.306,1124.32L58.465,1134.13C58.465,1134.13 47.522,1119.17 45.046,1111.04C42.571,1102.9 43.614,1085.32 43.614,1085.32C43.614,1085.32 58.147,1077.85 62.035,1071.2C67.02,1062.68 63.527,1050.66 62.012,1045.33ZM1415.24,1049.02C1415.24,1049.02 1400.39,1048.03 1393.47,1046.45C1387.07,1045 1374.47,1039.71 1374.47,1039.71L1364.69,1047.99L1364.71,1051.19C1364.71,1051.19 1382.16,1058.93 1390.03,1060.66C1398.29,1062.47 1414.47,1063.34 1414.47,1063.34L1415.24,1049.02ZM84.718,1049.02C84.718,1049.02 99.564,1048.03 106.493,1046.45C112.885,1045 125.488,1039.71 125.488,1039.71L135.267,1047.99L135.245,1051.19C135.245,1051.19 117.804,1058.93 109.931,1060.65C101.67,1062.46 85.491,1063.34 85.491,1063.34L84.718,1049.02ZM1364.88,962.09C1364.88,962.09 1389.53,981.971 1398.93,1004.15C1404.68,1017.72 1403.33,1041.69 1403.33,1041.69L1418.78,1041.97C1418.78,1041.97 1419.04,1018.91 1412.68,999.264C1407.98,984.694 1389.04,962.677 1382.03,955.974C1368.09,942.631 1350.95,936.643 1350.95,936.643L1351.58,1053.22C1351.58,1053.22 1365.85,1038.03 1372.65,1033.35C1379.45,1028.67 1395.91,1024.87 1395.91,1024.87C1395.91,1024.87 1395.23,1019.7 1394.89,1017.04C1394.22,1011.83 1392.85,1008.99 1392.85,1008.99C1392.85,1008.99 1386.65,1010.44 1382.29,1012.17C1379.66,1013.21 1369.78,1019.62 1369.78,1019.62L1364.88,1020.08L1364.88,962.09ZM135.079,962.088C135.079,962.088 110.429,981.969 101.028,1004.15C95.278,1017.71 96.634,1041.69 96.634,1041.69L81.181,1041.97C81.181,1041.97 80.923,1018.91 87.274,999.262C91.983,984.691 110.919,962.675 117.925,955.971C131.869,942.629 149.01,936.64 149.01,936.64L148.378,1053.21C148.378,1053.21 134.113,1038.03 127.306,1033.35C120.509,1028.66 104.048,1024.86 104.048,1024.86C104.048,1024.86 104.731,1019.7 105.071,1017.04C105.737,1011.83 107.11,1008.99 107.11,1008.99C107.11,1008.99 113.312,1010.44 117.673,1012.17C120.295,1013.21 130.18,1019.62 130.18,1019.62L135.079,1020.08L135.079,962.088ZM1357.12,883.8L1373.2,883.781C1373.2,883.781 1369.13,889.488 1367.38,895.449C1366.3,899.161 1364.44,909.75 1364.44,909.75C1364.44,909.75 1404.82,903.635 1428.27,924.82C1454.11,948.151 1465.51,986.574 1450.02,997.822C1448.81,998.695 1422.52,1013.94 1422.52,1013.94L1417.24,999.453C1417.24,999.453 1437.98,989.869 1440.65,985.997C1447.49,976.081 1433.78,946.655 1414.9,934.522C1383.1,914.077 1350.61,928.849 1350.61,928.849C1350.61,928.849 1351.04,912.039 1352.33,903.293C1353.57,894.957 1357.12,883.8 1357.12,883.8ZM142.843,883.798L126.762,883.778C126.762,883.778 130.832,889.486 132.576,895.447C133.662,899.158 135.521,909.748 135.521,909.748C135.521,909.748 95.143,903.633 71.686,924.818C45.854,948.149 34.446,986.572 49.944,997.82C51.146,998.693 77.438,1013.94 77.438,1013.94L82.723,999.451C82.723,999.451 61.982,989.867 59.312,985.995C52.473,976.078 66.184,946.652 85.058,934.52C116.864,914.075 149.354,928.847 149.354,928.847C149.354,928.847 148.921,912.037 147.625,903.291C146.39,894.954 142.843,883.798 142.843,883.798ZM1440.01,884.541L1412.92,884.246C1412.92,884.246 1424.14,898.208 1426.9,903.775C1429.83,909.711 1430.54,919.864 1430.54,919.864C1430.54,919.864 1436.21,924.193 1438.9,926.981C1441.41,929.59 1446.67,936.595 1446.67,936.595C1446.67,936.595 1448.38,918.425 1447.08,909.679C1445.84,901.343 1440.01,884.541 1440.01,884.541ZM59.949,884.538L87.039,884.243C87.039,884.243 75.818,898.206 73.064,903.773C70.127,909.709 69.421,919.862 69.421,919.862C69.421,919.862 63.75,924.19 61.061,926.979C58.545,929.587 53.286,936.592 53.286,936.592C53.286,936.592 51.585,918.423 52.881,909.677C54.116,901.341 59.949,884.538 59.949,884.538ZM1461.48,756.173L1341.16,756.173L1341.16,875.839L1346.74,881.616L1455.49,880.984L1462.55,876.432L1461.48,756.173ZM38.482,756.171L158.801,756.171L158.801,875.837L153.223,881.614L44.469,880.982L37.41,876.43L38.482,756.171ZM1442.81,772.127L1357.99,772.385L1357.5,861.121L1441.89,860.066L1442.81,772.127ZM57.15,772.124L141.971,772.383L142.463,861.119L58.07,860.064L57.15,772.124ZM1455.3,556.334L1439.84,569.826L1440.16,749.307L1455.46,749.442L1455.3,556.334ZM44.661,556.332L60.12,569.824L59.796,749.305L44.496,749.44L44.661,556.332ZM1360.08,634.237L1331.58,656.859C1331.58,656.859 1338.3,682.105 1340.58,697.234C1342.91,712.611 1343.78,749.425 1343.78,749.425L1360.82,749.257L1360.08,634.237ZM139.879,634.234L168.379,656.857C168.379,656.857 161.664,682.103 159.377,697.232C157.054,712.609 156.175,749.423 156.175,749.423L139.136,749.254L139.879,634.234ZM1398.46,228.452L926.134,227.294L918.441,238.316C918.441,238.316 1052.41,262.43 1178.27,396.768C1298.68,525.278 1320.51,623.162 1320.51,623.162L1337.33,610.513C1337.33,610.513 1331.46,560.27 1234.59,431.739C1150.26,319.858 1002.27,246.44 1002.27,246.44L1333.62,248.065C1333.62,248.065 1336.74,248.239 1337.66,248.87C1338.42,249.384 1339.16,251.852 1339.16,251.852L1339.92,345.695C1339.92,345.695 1348.01,332.374 1351.76,327.882C1354.78,324.266 1362.44,318.742 1362.44,318.742L1362.53,240.325L1390.98,239.267L1398.46,228.452ZM101.5,228.45L573.825,227.292L581.518,238.313C581.518,238.313 447.55,262.428 321.685,396.766C201.281,525.276 179.453,623.16 179.453,623.16L162.632,610.511C162.632,610.511 168.494,560.267 265.373,431.737C349.703,319.856 497.687,246.438 497.687,246.438L166.345,248.063C166.345,248.063 163.22,248.237 162.295,248.868C161.542,249.381 160.795,251.85 160.795,251.85L160.036,345.693C160.036,345.693 151.951,332.372 148.198,327.879C145.177,324.264 137.52,318.74 137.52,318.74L137.434,240.323L108.981,239.265L101.5,228.45ZM1456.83,356.746C1456.4,333.153 1421.83,307.884 1399.33,308.094C1375.41,308.317 1341.52,334.205 1341.3,360.037C1340.86,411.445 1339.53,609.948 1339.53,609.948L1363.68,589.251C1363.68,589.251 1361.23,409.816 1361.88,365.223C1362.1,350.135 1374.58,328.446 1399.94,328.876C1422.97,329.267 1438.06,350.076 1438.38,366.279C1439.08,401.433 1438.49,526.572 1438.49,526.572L1457.82,511.783C1457.82,511.783 1457.57,397.333 1456.83,356.746ZM43.126,356.744C43.555,333.151 78.129,307.882 100.63,308.092C124.55,308.314 158.437,334.203 158.657,360.035C159.095,411.443 160.428,609.946 160.428,609.946L136.275,589.249C136.275,589.249 138.729,409.814 138.08,365.221C137.86,350.133 125.376,328.444 100.019,328.874C76.993,329.265 61.902,350.073 61.578,366.277C60.876,401.431 61.473,526.569 61.473,526.569L42.143,511.781C42.143,511.781 42.387,397.331 43.126,356.744ZM1431.49,185.743L1424.43,212.476L1396.17,238.286L1439.17,292.683L1438.52,317.657C1438.52,317.657 1444.83,322.085 1447.66,325.261C1450.62,328.572 1456.24,337.527 1456.24,337.527L1457.06,282.322C1457.06,282.322 1428.97,255.494 1421.69,248.012C1412.93,239.002 1419.6,225.463 1430.09,225.454C1440.15,225.445 1445.5,238.425 1441.1,242.936C1438.15,245.963 1433.67,250.565 1433.67,250.565C1433.67,250.565 1434.92,254.119 1436.03,255.23C1437.2,256.396 1440.68,257.558 1440.68,257.558L1455.25,242.225L1456.08,233.264L1444.18,217.835L1451.6,186.381L1431.49,185.743ZM68.47,185.741L75.527,212.474L103.786,238.284L60.788,292.68L61.436,317.655C61.436,317.655 55.127,322.083 52.296,325.258C49.344,328.57 43.724,337.525 43.724,337.525L42.902,282.32C42.902,282.32 70.993,255.492 78.267,248.01C87.028,238.999 80.362,225.461 69.869,225.452C59.807,225.443 54.464,238.423 58.861,242.933C61.812,245.961 66.287,250.562 66.287,250.562C66.287,250.562 65.039,254.117 63.925,255.228C62.757,256.393 59.276,257.555 59.276,257.555L44.707,242.223L43.883,233.262L55.777,217.833L48.363,186.379L68.47,185.741ZM1430.41,147.223L1427.04,135.234L1398.78,109.424L1406.09,100.177L1424.73,95.482C1424.73,95.482 1424.98,98.858 1424.3,99.698C1416.66,109.066 1422.2,122.247 1432.7,122.256C1442.76,122.265 1448.1,109.285 1443.7,104.774C1440.75,101.747 1436.28,97.145 1436.28,97.145C1436.28,97.145 1437.53,93.591 1438.64,92.48C1439.81,91.314 1443.29,90.152 1443.29,90.152L1457.86,105.485L1458.68,114.446L1446.79,129.875L1450.52,147.173L1430.41,147.223ZM49.916,146.673L53.646,129.375L41.753,113.946L42.577,104.984L57.146,89.652C57.146,89.652 60.627,90.814 61.795,91.98C62.909,93.09 64.157,96.645 64.157,96.645C64.157,96.645 59.682,101.247 56.731,104.274C52.334,108.785 57.676,121.764 67.739,121.756C78.232,121.747 83.778,108.566 76.137,99.197C75.452,98.358 75.71,94.982 75.71,94.982L94.347,99.676L101.656,108.923L73.397,134.734L70.023,146.722L49.916,146.673ZM98.003,118.973L108.091,109.714L100.422,99.617L599.383,101.352L599.013,120.184L98.003,118.973ZM1401.63,118.664L1392.63,110.553L1400.99,99.34L900.97,101.094L901.051,119.886L1401.63,118.664Z" style="fill:rgb(35,131,88);"/>
    </g>
</svg>
