<?xml version="1.0" encoding="UTF-8" standalone="no"?><!DOCTYPE svg PUBLIC "-//W3C//DTD SVG 1.1//EN" "http://www.w3.org/Graphics/SVG/1.1/DTD/svg11.dtd"><svg width="100%" height="100%" viewBox="0 0 180 252" version="1.1" xmlns="http://www.w3.org/2000/svg" xmlns:xlink="http://www.w3.org/1999/xlink" xml:space="preserve" xmlns:serif="http://www.serif.com/" style="fill-rule:evenodd;clip-rule:evenodd;stroke-linejoin:round;stroke-miterlimit:2;"><g id="DFC"><g id="erase-bit" serif:id="erase bit"><path d="M166.629,211.68l0,0.163c0,0.446 0.177,0.873 0.492,1.188l3.209,3.209c-0,-0 -3.209,3.209 -3.209,3.209c-0.315,0.315 -0.492,0.742 -0.492,1.188l0,0.163l-0.6,-0l0,-9.12l0.6,-0Z"/><path d="M166.629,211.68l0,0.163c0,0.446 0.177,0.873 0.492,1.188l3.209,3.209c-0,-0 -3.209,3.209 -3.209,3.209c-0.315,0.315 -0.492,0.742 -0.492,1.188l0,0.163l-0.6,-0l0,-9.12l0.6,-0Zm1.08,4.805l0.245,-0.245l-0.245,-0.245l0,0.49Z"/></g></g></svg>