<?xml version="1.0" encoding="UTF-8" standalone="no"?>
<!DOCTYPE svg PUBLIC "-//W3C//DTD SVG 1.1//EN" "http://www.w3.org/Graphics/SVG/1.1/DTD/svg11.dtd">
<svg width="1500" height="2100" viewBox="0 0 1500 2100" version="1.1" xmlns="http://www.w3.org/2000/svg" xmlns:xlink="http://www.w3.org/1999/xlink" xml:space="preserve" xmlns:serif="http://www.serif.com/" style="fill-rule:evenodd;clip-rule:evenodd;stroke-linejoin:round;stroke-miterlimit:2;">
    <rect id="Card" x="0" y="0" width="1500" height="2100" style="fill:none;"/>
    <g id="Card1" serif:id="Card">
        <g id="m15" transform="matrix(2.02123,0,0,2.02123,38.1318,1966)">
            <path d="M15.996,0C16.037,0.076 16.043,0.163 16.059,0.246C16.125,0.687 16.15,1.132 16.184,1.576C16.26,2.759 16.321,3.943 16.395,5.126C16.52,7.06 16.663,8.996 16.943,10.916C17.08,11.822 17.243,12.728 17.52,13.602C17.887,13.629 18.254,13.656 18.62,13.696C18.801,13.161 18.89,12.601 18.983,12.045C19.066,11.526 19.136,11.004 19.2,10.482C19.449,8.443 19.623,6.396 19.811,4.351C19.854,3.93 19.882,3.506 19.951,3.088C19.986,3.178 19.994,3.276 20.009,3.371C20.05,3.657 20.08,3.945 20.111,4.232C20.308,6.144 20.481,8.059 20.727,9.966C20.84,10.841 20.965,11.715 21.132,12.582C21.244,13.148 21.364,13.716 21.566,14.259C21.906,14.363 22.244,14.477 22.571,14.617C22.674,14.382 22.751,14.137 22.823,13.891C23.006,13.253 23.133,12.6 23.243,11.947C23.482,10.537 23.622,9.113 23.809,7.695C23.858,7.372 23.891,7.043 23.993,6.731C24.043,6.865 24.058,7.008 24.081,7.148C24.171,7.788 24.233,8.432 24.297,9.075C24.362,9.774 24.432,10.472 24.484,11.171C24.486,11.163 24.49,11.147 24.492,11.139C24.491,11.237 24.501,11.335 24.511,11.433C24.654,13.118 24.792,14.804 24.917,16.491C23.958,16.854 23.051,17.352 22.222,17.954C21.112,18.76 20.147,19.757 19.346,20.87C18.511,22.03 17.851,23.313 17.377,24.661C16.781,26.357 16.444,28.135 16.263,29.921C16.204,30.469 16.168,31.02 16.112,31.568C16.092,31.714 16.088,31.869 16.018,32.002L15.983,32.002C15.918,31.903 15.914,31.782 15.896,31.669C15.853,31.305 15.829,30.939 15.796,30.575C15.712,29.592 15.592,28.61 15.408,27.64C15.106,26.053 14.651,24.486 13.94,23.032C13.127,21.364 12.007,19.835 10.604,18.615C9.564,17.71 8.369,16.98 7.079,16.491C7.257,14.143 7.445,11.796 7.664,9.451C7.738,8.689 7.809,7.927 7.913,7.169C7.935,7.031 7.952,6.891 7.993,6.757C7.998,6.758 8.009,6.76 8.015,6.761C8.1,7.035 8.133,7.322 8.176,7.605C8.325,8.701 8.437,9.802 8.593,10.898C8.718,11.776 8.858,12.653 9.073,13.514C9.169,13.888 9.274,14.263 9.427,14.619C9.754,14.478 10.093,14.366 10.433,14.26C10.56,13.922 10.651,13.572 10.733,13.221C10.857,12.676 10.955,12.126 11.043,11.574C11.399,9.297 11.607,7 11.839,4.707C11.881,4.295 11.922,3.882 11.976,3.471C11.996,3.341 12.007,3.208 12.049,3.082C12.095,3.369 12.12,3.659 12.149,3.948C12.332,5.895 12.494,7.844 12.716,9.787C12.823,10.71 12.937,11.634 13.101,12.549C13.175,12.935 13.248,13.324 13.38,13.696C13.746,13.663 14.112,13.63 14.479,13.605C14.753,12.743 14.914,11.85 15.051,10.957C15.2,9.957 15.307,8.952 15.396,7.945C15.548,6.228 15.644,4.508 15.742,2.788C15.79,2.026 15.826,1.263 15.907,0.504C15.928,0.335 15.946,0.164 15.996,0.001L15.996,0Z" style="fill:white;fill-rule:nonzero;"/>
        </g>
    </g>
</svg>
