<?xml version="1.0" encoding="UTF-8" standalone="no"?>
<!DOCTYPE svg PUBLIC "-//W3C//DTD SVG 1.1//EN" "http://www.w3.org/Graphics/SVG/1.1/DTD/svg11.dtd">
<svg width="203" height="142" viewBox="0 0 203 142" version="1.1" xmlns="http://www.w3.org/2000/svg" xmlns:xlink="http://www.w3.org/1999/xlink" xml:space="preserve" xmlns:serif="http://www.serif.com/" style="fill-rule:evenodd;clip-rule:evenodd;stroke-linecap:round;">
    <g transform="matrix(1,0,0,1,-640.744,-1001.17)">
        <rect id="Card" x="0" y="0" width="1500" height="2100" style="fill:none;"/>
        <g id="Card1" serif:id="Card">
            <g id="loyalty-icons" serif:id="loyalty icons" transform="matrix(0.253844,0,0,0.253844,582.614,890.711)">
                <g transform="matrix(-3.93943,-4.82441e-16,4.82441e-16,-3.93943,1230.67,6899.05)">
                    <path d="M229,1631C215.714,1616.01 211.291,1595.17 221,1565L150,1536L77,1565C85.555,1588.61 84.874,1610.86 70,1631C121.714,1640.43 174.683,1640.66 229,1631Z"/>
                    <g transform="matrix(0.773585,0,0,0.73722,34.8491,418.553)">
                        <path d="M227.707,1631C219.777,1612.51 218.226,1595.78 223.585,1565L150,1536L74.415,1565C78.115,1588.93 80.755,1611.13 70,1631C121.714,1640.43 173.391,1640.66 227.707,1631Z" style="stroke:rgb(96,96,96);stroke-width:5.29px;"/>
                    </g>
                    <path d="M229.35,1632.97L232.864,1632.34L230.497,1629.67C217.606,1615.13 213.483,1594.89 222.904,1565.61L223.458,1563.89L150.011,1528.82L74.474,1563.9L75.12,1565.68C83.431,1588.62 82.842,1610.24 68.391,1629.81L66.486,1632.39L69.641,1632.97C121.585,1642.44 174.791,1642.67 229.35,1632.97ZM225.248,1629.62C173.443,1638.45 122.869,1638.24 73.448,1629.59C86.608,1610.08 87.284,1588.72 79.512,1566.11C79.511,1566.11 149.989,1539.18 149.989,1539.18C149.989,1539.18 218.553,1566.11 218.553,1566.11C209.817,1594.5 213.567,1614.71 225.248,1629.62L225.248,1629.62Z" style="fill:rgb(96,96,96);"/>
                </g>
                <g>
                    <circle cx="1006" cy="570" r="19.189" style="fill:rgb(96,96,96);"/>
                    <g transform="matrix(1,0,0,1,0,102.297)">
                        <circle cx="1006" cy="570" r="19.189" style="fill:rgb(96,96,96);"/>
                    </g>
                </g>
            </g>
        </g>
    </g>
</svg>
