<?xml version="1.0" encoding="UTF-8" standalone="no"?>
<!DOCTYPE svg PUBLIC "-//W3C//DTD SVG 1.1//EN" "http://www.w3.org/Graphics/SVG/1.1/DTD/svg11.dtd">
<svg width="1500" height="2100" viewBox="0 0 1500 2100" version="1.1" xmlns="http://www.w3.org/2000/svg" xmlns:xlink="http://www.w3.org/1999/xlink" xml:space="preserve" xmlns:serif="http://www.serif.com/" style="fill-rule:evenodd;clip-rule:evenodd;stroke-linejoin:round;stroke-miterlimit:2;">
    <rect id="Card" x="0" y="0" width="1500" height="2100" style="fill:none;"/>
    <g id="Card1" serif:id="Card">
        <g id="Planeswalker">
            <path id="Border" d="M0,0L1500,0L1500,2100L0,2100L0,0ZM1408.99,1843.94C1429.57,1820.25 1439.46,1786.67 1440,1765L1440,85C1437.14,71.038 1428.74,62.781 1415,60L85,60C71.263,62.781 62.855,71.038 60,85L60,1765C60.538,1786.67 70.435,1820.25 91.012,1843.94C91.891,1899.26 127.731,1913.14 164.951,1922.87C221.02,1937.53 259.54,1946.63 387,1957C399.847,1944.05 422.871,1937.61 455,1937L1045,1937C1077.13,1937.61 1100.15,1944.05 1113,1957C1240.46,1946.63 1278.98,1937.53 1335.05,1922.87C1372.27,1913.14 1408.11,1899.26 1408.99,1843.94Z"/>
            <g id="transform">
                <g id="pinline">
                    <path d="M105.828,196.223C84.939,183.372 71,160.301 71,134C71,93.71 103.71,61 144,61L144.043,61C507.217,61 1368.09,61.001 1368.24,61.002C1381,61.192 1393.96,66.906 1404.65,76.956C1418.96,90.404 1429.2,111.674 1429,134.571C1429,134.571 1429,176.307 1429,176.386C1428.96,184.204 1425.38,192.36 1419.33,198.38C1415.51,202.178 1410.8,205.048 1405.76,206.626C1386.5,217.853 1382.52,230.445 1385.03,245.741C1420.53,462.268 1427.71,860.4 1395.05,1141.28C1395.06,1152.39 1396.71,1165.39 1410.42,1185.47C1421.64,1198.82 1429.17,1217.3 1429,1236.98C1429,1236.98 1429,1278.71 1429,1278.79C1428.96,1286.37 1425.59,1294.26 1419.88,1300.22C1413.75,1308.65 1409.47,1316.05 1409,1330L1409,1843C1408.51,1899.1 1372.48,1913.09 1335.05,1922.87C1278.98,1937.53 1240.46,1946.63 1113,1957C1100.15,1944.05 1077.13,1937.61 1045,1937L455,1937C422.871,1937.61 399.847,1944.05 387,1957C259.54,1946.63 221.02,1937.53 164.951,1922.87C127.521,1913.09 91.487,1899.1 91,1843L91,1330C90.53,1316.05 86.247,1308.65 80.124,1300.23C74.407,1294.27 71.038,1286.37 71,1278.79C71,1278.77 71,1278.74 71,1278.71L70.999,1236C71.093,1219.81 76.318,1204.55 84.446,1192.33L84.347,1192.36C84.599,1192.03 84.849,1191.7 85.093,1191.37C85.938,1190.14 86.814,1188.94 87.717,1187.78C102.91,1166.37 104.683,1152.8 104.697,1141.28C72.038,860.4 79.218,462.268 114.718,245.741C116.974,231.98 123.706,209.217 105.828,196.223ZM198,1310.41L1366,1310.41C1379.41,1312.83 1386.81,1320.47 1388.6,1333L1388.6,1879C1363.02,1915.93 1300.97,1919.81 1221,1926L365,1926C285.033,1919.81 200.978,1915.93 175.406,1879L175.406,1333C177.187,1320.47 184.593,1312.83 198,1310.41ZM87,1278.71L86.999,1236C87.216,1205.88 109.603,1179.74 132,1179.41L1368,1179.41C1390.64,1179.74 1413.27,1206.44 1413,1236.98L1413,1278.71C1412.96,1286.4 1405.15,1294.4 1397,1294.41L103,1294.41C94.852,1294.4 87.038,1286.4 87,1278.71ZM168,208C143.083,212.287 142.57,231.851 142.57,231.851C96.847,407.216 82.857,940.144 136.443,1130.77C142.916,1143.71 138.575,1161.65 176,1163.41L176,1163.41L1323.75,1163.41L1323.75,1163.41C1361.17,1161.65 1356.83,1143.71 1363.3,1130.77C1416.89,940.144 1402.9,407.216 1357.18,231.851C1357.18,231.851 1356.66,212.287 1331.75,208L168,208ZM194.248,77C210.037,90.933 220,111.312 220,134C220,157.238 209.548,178.055 193.092,192L1397,192C1405.15,191.996 1412.96,183.999 1413,176.307L1413,134.571C1413.27,104.037 1390.64,77.337 1368,77L194.248,77ZM185.797,98.265L186,98.504L186.103,98.626L186.201,98.743L186.306,98.869L186.4,98.982L186.505,99.11L186.598,99.223L186.703,99.352L186.795,99.465L186.9,99.596L186.99,99.708L187.095,99.84L187.183,99.951L187.289,100.085L187.373,100.193L187.481,100.331L187.535,100.401L187.662,100.566L187.771,100.71L187.848,100.81L187.954,100.951L188.036,101.059L188.14,101.199L188.222,101.309L188.325,101.449L188.407,101.56L188.509,101.701L188.59,101.812L188.692,101.954L188.771,102.064L188.874,102.208L188.949,102.314L189.054,102.463L189.107,102.538L189.225,102.709L189.335,102.868L189.397,102.958L189.5,103.108L189.573,103.216L189.672,103.363L189.748,103.476L189.845,103.622L189.921,103.736L190.017,103.882L190.092,103.997L190.187,104.143L190.261,104.258L190.357,104.406L190.428,104.518L190.525,104.67L190.584,104.764L190.686,104.927L190.791,105.096L190.845,105.183L190.939,105.337L191.008,105.45L191.099,105.6L191.171,105.718L191.26,105.867L191.331,105.987L191.419,106.136L191.491,106.257L191.578,106.406L191.648,106.528L191.734,106.677L191.803,106.798L191.89,106.95L191.955,107.065L192.041,107.218L192.134,107.385L192.186,107.48L192.27,107.633L192.338,107.756L192.419,107.906L192.487,108.033L192.567,108.182L192.635,108.31L192.714,108.459L192.782,108.589L192.859,108.738L192.927,108.869L193.003,109.018L193.071,109.15L193.146,109.298L193.213,109.433L193.286,109.579L193.419,109.847L193.489,109.992L193.557,110.131L193.627,110.278L193.693,110.416L193.763,110.563L193.828,110.702L193.897,110.849L193.962,110.989L194.054,111.189L194.174,111.454L194.18,111.467L194.297,111.728L194.302,111.739L194.419,112.005C194.459,112.097 194.498,112.188 194.538,112.279L194.652,112.546L194.657,112.557L194.767,112.82L194.775,112.837L194.884,113.101L194.888,113.11L194.998,113.381L195.11,113.659L195.215,113.925L195.223,113.944L195.325,114.206L195.332,114.226L195.435,114.493L195.436,114.497L195.541,114.774L195.641,115.045L195.647,115.061L195.743,115.324L195.752,115.349L195.846,115.612L195.853,115.631L195.948,115.902L196.045,116.183L196.047,116.188L196.138,116.456L196.146,116.481L196.234,116.743L196.243,116.771L196.33,117.036L196.335,117.052L196.424,117.328L196.51,117.603L196.516,117.622L196.598,117.887L196.608,117.918L196.687,118.18L196.696,118.209L196.776,118.479L196.778,118.487L196.859,118.767L196.861,118.773L196.938,119.044L196.947,119.073L197.02,119.336L197.03,119.371L197.102,119.635L197.109,119.661L197.183,119.937L197.255,120.215L197.261,120.237L197.329,120.504L197.338,120.54L197.404,120.803L197.412,120.839L197.478,121.107L197.483,121.127L197.549,121.405L197.55,121.41L197.613,121.684L197.621,121.717L197.681,121.982L197.69,122.022L197.748,122.286L197.755,122.321L197.814,122.595L197.816,122.603L197.873,122.88L197.878,122.903L197.932,123.172L197.94,123.212L197.992,123.476L198,123.518L198.052,123.786L198.057,123.815L198.109,124.096L198.159,124.376L198.165,124.41L198.211,124.677L198.219,124.721L198.264,124.986L198.27,125.027L198.315,125.3L198.318,125.319L198.36,125.594L198.364,125.615L198.405,125.889L198.411,125.931L198.45,126.197L198.456,126.243L198.493,126.511L198.498,126.547L198.536,126.829L198.572,127.113L198.576,127.147L198.609,127.418L198.615,127.464L198.646,127.731L198.651,127.776L198.681,128.05L198.684,128.077L198.713,128.354L198.715,128.371L198.743,128.65L198.747,128.692L198.772,128.961L198.776,129.01L198.8,129.28L198.803,129.321L198.826,129.602L198.827,129.615L198.849,129.895L198.851,129.926L198.871,130.201L198.874,130.248L198.891,130.519L198.894,130.566L198.911,130.841L198.912,130.875L198.928,131.157L198.928,131.167L198.942,131.452L198.944,131.493L198.955,131.766L198.957,131.816L198.967,132.089L198.969,132.133L198.978,132.415L198.978,132.436L198.985,132.717L198.986,132.743L198.991,133.024L198.992,133.07L198.996,133.344L198.997,133.393L198.999,133.67L198.999,133.708L199,134L198.999,134.292L198.999,134.33L198.997,134.607L198.996,134.656L198.992,134.93L198.991,134.976L198.986,135.257L198.985,135.283L198.978,135.564L198.978,135.585L198.969,135.867L198.967,135.911L198.957,136.184L198.955,136.234L198.944,136.507L198.942,136.548L198.928,136.833L198.928,136.843L198.912,137.125L198.911,137.159L198.894,137.434L198.891,137.481L198.874,137.752L198.871,137.799L198.851,138.074L198.849,138.105L198.827,138.385L198.826,138.398L198.803,138.679L198.8,138.72L198.776,138.99L198.772,139.039L198.747,139.308L198.743,139.35L198.715,139.629L198.713,139.646L198.684,139.923L198.681,139.95L198.651,140.224L198.646,140.269L198.615,140.536L198.609,140.582L198.576,140.853L198.572,140.887L198.536,141.171L198.498,141.453L198.493,141.489L198.456,141.757L198.45,141.803L198.411,142.069L198.405,142.111L198.364,142.385L198.36,142.406L198.318,142.681L198.315,142.7L198.27,142.973L198.264,143.014L198.219,143.279L198.211,143.323L198.165,143.59L198.159,143.624L198.109,143.905L198.057,144.185L198.052,144.214L198,144.482L197.992,144.524L197.94,144.788L197.932,144.828L197.878,145.097L197.873,145.12L197.816,145.397L197.814,145.405L197.755,145.679L197.748,145.714L197.69,145.978L197.681,146.018L197.621,146.283L197.613,146.316L197.55,146.59L197.549,146.595L197.483,146.873L197.478,146.893L197.412,147.161L197.404,147.197L197.338,147.46L197.329,147.496L197.261,147.763L197.255,147.785L197.183,148.063L197.109,148.339L197.102,148.365L197.03,148.629L197.02,148.664L196.947,148.927L196.938,148.956L196.861,149.227L196.859,149.233L196.778,149.513L196.776,149.521L196.696,149.791L196.687,149.82L196.608,150.082L196.598,150.113L196.516,150.378L196.51,150.397L196.424,150.672L196.335,150.948L196.33,150.964L196.243,151.229L196.234,151.257L196.146,151.519L196.138,151.544L196.047,151.812L196.045,151.817L195.948,152.098L195.853,152.369L195.846,152.388L195.752,152.651L195.743,152.676L195.647,152.939L195.641,152.955L195.541,153.226L195.436,153.503L195.435,153.507L195.332,153.774L195.325,153.794L195.223,154.056L195.215,154.075L195.11,154.341L194.998,154.619L194.888,154.89L194.884,154.899L194.775,155.163L194.767,155.18L194.657,155.443L194.652,155.454L194.538,155.721C194.498,155.812 194.459,155.903 194.419,155.995L194.302,156.261L194.297,156.272L194.18,156.533L194.174,156.546L194.054,156.811L193.962,157.011L193.897,157.151L193.828,157.298L193.763,157.437L193.693,157.584L193.627,157.722L193.557,157.869L193.489,158.008L193.419,158.153L193.286,158.421L193.213,158.567L193.146,158.702L193.071,158.85L193.003,158.982L192.927,159.131L192.859,159.262L192.782,159.411L192.714,159.541L192.635,159.69L192.567,159.818L192.487,159.967L192.419,160.094L192.338,160.244L192.27,160.367L192.186,160.52L192.134,160.615L192.041,160.782L191.955,160.935L191.89,161.05L191.803,161.202L191.734,161.323L191.648,161.472L191.578,161.594L191.491,161.743L191.419,161.864L191.331,162.013L191.26,162.133L191.171,162.282L191.099,162.4L191.008,162.55L190.939,162.663L190.845,162.817L190.791,162.904L190.686,163.073L190.584,163.236L190.525,163.33L190.428,163.482L190.357,163.594L190.261,163.742L190.187,163.857L190.092,164.003L190.017,164.118L189.921,164.264L189.845,164.378L189.748,164.524L189.672,164.637L189.573,164.784L189.5,164.892L189.397,165.042L189.335,165.132L189.225,165.291L189.107,165.462L189.054,165.537L188.949,165.686L188.874,165.792L188.771,165.936L188.692,166.046L188.59,166.188L188.509,166.299L188.407,166.44L188.325,166.551L188.222,166.691L188.14,166.801L188.036,166.941L187.954,167.049L187.848,167.19L187.771,167.29L187.662,167.434L187.535,167.599L187.481,167.669L187.373,167.807L187.289,167.915L187.183,168.049L187.095,168.16L186.99,168.292L186.9,168.404L186.795,168.535L186.703,168.648L186.598,168.777L186.505,168.89L186.4,169.018L186.306,169.131L186.201,169.257L186.103,169.374L186,169.496C175.908,181.422 160.832,189 144,189C113.645,189 89,164.355 89,134C89,103.645 113.645,79 144,79C160.72,79 175.707,86.477 185.797,98.265Z"/>
                    <path d="M148.043,61L148.043,61C148.043,58.791 146.252,57 144.043,57C507.226,57 1368.12,57.001 1368.27,57.002C1368.28,57.002 1368.29,57.002 1368.3,57.002C1381.99,57.206 1395.92,63.26 1407.39,74.041C1422.43,88.174 1433.21,110.523 1433,134.586C1433,135.503 1433,176.318 1433,176.396C1433,176.399 1433,176.402 1433,176.406C1432.96,185.218 1428.97,194.432 1422.15,201.216C1417.98,205.357 1412.87,208.508 1407.4,210.302C1398.86,215.338 1393.61,220.59 1390.84,226.382C1388.1,232.115 1387.86,238.309 1388.98,245.093C1424.51,461.829 1431.72,860.292 1399.05,1141.51C1399.09,1151.98 1400.79,1164.22 1413.61,1183.05C1425.32,1197.06 1433.18,1216.4 1433,1236.99C1433,1237.92 1433,1278.72 1433,1278.8C1433,1278.81 1433,1278.81 1433,1278.81C1432.96,1287.27 1429.28,1296.1 1422.96,1302.79C1417.38,1310.49 1413.44,1317.32 1413,1330.07L1413,1843C1413,1843.01 1413,1843.02 1413,1843.04C1412.8,1866.63 1406.49,1883.1 1396.63,1895.08C1382.03,1912.8 1359.36,1920.65 1336.06,1926.74C1279.82,1941.44 1241.18,1950.58 1113.33,1960.99C1112.15,1961.08 1110.99,1960.65 1110.16,1959.82C1097.86,1947.42 1075.72,1941.59 1044.96,1941C1044.96,1941 455.039,1941 455.039,1941C424.282,1941.59 402.141,1947.42 389.84,1959.82C389.009,1960.65 387.851,1961.08 386.676,1960.99C258.821,1950.58 220.182,1941.44 163.939,1926.74C140.645,1920.65 117.975,1912.8 103.374,1895.08C93.508,1883.1 87.205,1866.63 87,1843.04C87,1843.02 87,1843.01 87,1843C87,1843 87,1330.07 86.999,1330.05C86.554,1317.31 82.619,1310.49 77.045,1302.79C70.718,1296.1 67.042,1287.27 67,1278.81C67,1278.78 67,1278.75 67,1278.71L66.999,1236C66.999,1235.99 66.999,1235.99 66.999,1235.98C67.096,1219.27 72.389,1203.51 80.67,1190.79C80.795,1190.49 80.96,1190.21 81.162,1189.94C81.393,1189.64 81.621,1189.34 81.837,1189.05C82.697,1187.8 83.585,1186.58 84.507,1185.39C98.807,1165.22 100.658,1152.4 100.696,1141.51C68.029,860.292 75.237,461.829 110.77,245.093C111.864,238.422 114.087,229.574 113.825,220.814C113.592,212.987 111.284,205.196 103.596,199.546L103.598,199.547C81.64,185.977 67,161.684 67,134C67,91.503 101.503,57 144,57L144.007,57L144.014,57L144.018,57C146.219,57.01 148,58.797 148,61L148,61L144.043,61L144,61C103.71,61 71,93.71 71,134C71,160.301 84.939,183.372 105.828,196.223C123.706,209.217 116.974,231.98 114.718,245.741C79.218,462.268 72.038,860.4 104.697,1141.28C104.683,1152.8 102.91,1166.37 87.717,1187.78C86.814,1188.94 85.938,1190.14 85.093,1191.37C84.849,1191.7 84.599,1192.03 84.347,1192.36L84.446,1192.33L84.28,1192.58C84.171,1190.48 83.898,1188.31 83.238,1188.52C81.93,1188.93 81.416,1189.69 81.364,1190.58L83.275,1194.14C75.819,1206.04 71.089,1220.6 70.999,1236L71,1278.71C71,1278.74 71,1278.77 71,1278.79C71.038,1286.37 74.407,1294.27 80.124,1300.23C86.247,1308.65 90.53,1316.05 91,1330L91,1843C91.487,1899.1 127.521,1913.09 164.951,1922.87C221.02,1937.53 259.54,1946.63 387,1957C399.847,1944.05 422.871,1937.61 455,1937L1045,1937C1077.13,1937.61 1100.15,1944.05 1113,1957C1240.46,1946.63 1278.98,1937.53 1335.05,1922.87C1372.48,1913.09 1408.51,1899.1 1409,1843L1409,1330C1409.47,1316.05 1413.75,1308.65 1419.88,1300.22C1425.59,1294.26 1428.96,1286.37 1429,1278.79C1429,1278.71 1429,1236.98 1429,1236.98C1429.17,1217.3 1421.64,1198.82 1410.42,1185.47C1396.71,1165.39 1395.06,1152.39 1395.05,1141.28C1427.71,860.4 1420.53,462.268 1385.03,245.741C1382.52,230.445 1386.5,217.853 1405.76,206.626C1410.8,205.048 1415.51,202.178 1419.33,198.38C1425.38,192.36 1428.96,184.204 1429,176.386C1429,176.307 1429,134.571 1429,134.571C1429.2,111.674 1418.96,90.404 1404.65,76.956C1393.96,66.906 1381,61.192 1368.24,61.002L148.043,61ZM198,1310.41L1366,1310.41C1379.41,1312.83 1386.81,1320.47 1388.6,1333L1388.6,1879C1363.02,1915.93 1300.97,1919.81 1221,1926L365,1926C285.033,1919.81 200.978,1915.93 175.406,1879L175.406,1333C177.187,1320.47 184.593,1312.83 198,1310.41ZM198.368,1314.41L1365.63,1314.41C1376.76,1316.52 1383.02,1322.86 1384.59,1333.29C1384.6,1333.29 1384.6,1877.73 1384.6,1877.73C1374.81,1891.24 1359.68,1899.89 1340.39,1905.9C1309.58,1915.51 1268.41,1918.32 1220.85,1922C1220.85,1922 365.154,1922 365.154,1922C317.471,1918.31 268.337,1915.47 231.163,1905.85C207.891,1899.82 189.37,1891.26 179.406,1877.72C179.406,1877.72 179.406,1333.29 179.406,1333.29C180.98,1322.86 187.238,1316.52 198.363,1314.41L198.368,1314.41ZM87,1278.71L86.999,1236C87.216,1205.88 109.603,1179.74 132,1179.41L1368,1179.41C1390.64,1179.74 1413.27,1206.44 1413,1236.98L1413,1278.71C1412.96,1286.4 1405.15,1294.4 1397,1294.41L103,1294.41C94.852,1294.4 87.038,1286.4 87,1278.71ZM91,1278.7L90.999,1236.02C91.124,1219.11 98.692,1203.54 109.267,1193.73C116.02,1187.46 123.996,1183.54 132.021,1183.41C132.033,1183.41 1360.62,1183.41 1367.97,1183.41C1376.09,1183.54 1384.15,1187.55 1390.96,1193.94C1401.61,1203.94 1409.15,1219.8 1409,1236.94C1409,1236.95 1409,1236.96 1409,1236.98L1409,1278.7C1408.98,1281.55 1407.43,1284.41 1405.22,1286.61C1402.99,1288.82 1400.05,1290.4 1397,1290.41C1397,1290.41 103.002,1290.41 103.002,1290.41C99.953,1290.4 97.007,1288.82 94.78,1286.61C92.572,1284.41 91.016,1281.55 91,1278.7L91,1278.7ZM173.21,1163.24C172.645,1161.73 172.75,1160.24 174.795,1159.59C175.421,1159.39 175.722,1161.33 175.867,1163.33L175.872,1163.4L176,1163.41L176,1163.41L1323.75,1163.41L1323.75,1163.41C1361.17,1161.65 1356.83,1143.71 1363.3,1130.77C1416.89,940.144 1402.9,407.216 1357.18,231.851C1357.18,231.851 1356.66,212.287 1331.75,208L168,208C143.083,212.287 142.57,231.851 142.57,231.851C96.847,407.216 82.857,940.144 136.443,1130.77C142.75,1143.38 138.79,1160.73 173.21,1163.24ZM1323.61,1159.41L176.105,1159.41C162.556,1158.76 154.972,1156.03 150.465,1151.93C147.287,1149.03 145.766,1145.51 144.56,1141.92C143.128,1137.66 142.105,1133.29 140.194,1129.33C86.85,938.851 100.852,407.709 146.441,232.86C146.518,232.565 146.561,232.261 146.569,231.956C146.569,231.956 147.357,215.779 168.346,212.001L168.349,212L1331.4,212C1352.39,215.78 1353.18,231.956 1353.18,231.956C1353.18,232.261 1353.23,232.565 1353.31,232.86C1398.89,407.709 1412.9,938.85 1359.55,1129.33C1357.64,1133.28 1356.62,1137.66 1355.19,1141.92C1353.98,1145.51 1352.46,1149.03 1349.28,1151.93C1344.77,1156.03 1337.18,1158.76 1323.61,1159.41ZM194.248,77C210.037,90.933 220,111.312 220,134C220,157.238 209.548,178.055 193.092,192L1397,192C1405.15,191.996 1412.96,183.999 1413,176.307L1413,134.571C1413.27,104.037 1390.64,77.337 1368,77L194.248,77ZM184.888,170.768C174.817,181.96 160.224,189 144,189C113.645,189 89,164.355 89,134C89,103.645 113.645,79 144,79C160.72,79 175.707,86.477 185.797,98.265L186.598,99.223L187.373,100.193L188.036,101.059L188.771,102.064L189.397,102.958L190.092,103.997L190.686,104.927L191.331,105.987L191.955,107.065L192.487,108.033L193.003,109.018L193.557,110.131L193.962,110.989L194.302,111.739L194.657,112.557L194.998,113.381L195.332,114.226L195.647,115.061L195.948,115.902L196.243,116.771L196.516,117.622L196.778,118.487L197.03,119.371L197.261,120.237L197.483,121.127L197.69,122.022L197.878,122.903L198.057,123.815L198.219,124.721L198.364,125.615L198.498,126.547L198.615,127.464L198.715,128.371L198.803,129.321L198.874,130.248L198.928,131.167L198.969,132.133L198.992,133.07L199,134L198.991,134.976L198.967,135.911L198.96,136.081L194.96,131.97L198.957,135.816C198.957,135.816 194.959,131.926 194.959,131.926C194.959,131.926 198.955,135.766 198.955,135.766C198.955,135.766 194.948,131.67 194.948,131.67C194.948,131.67 198.944,135.493 198.944,135.493C198.944,135.493 194.946,131.637 194.946,131.637C194.946,131.637 198.942,135.452 198.942,135.452C198.942,135.452 194.933,131.367 194.933,131.367C194.933,131.367 198.928,135.167 198.928,135.167C198.928,135.167 194.933,131.367 194.933,131.367C194.933,131.367 198.928,135.157 198.928,135.157C198.928,135.157 194.919,131.097 194.919,131.097C194.919,131.097 198.912,134.875 198.912,134.875C198.912,134.875 194.917,131.064 194.917,131.064C194.917,131.064 198.911,134.841 198.911,134.841C198.911,134.841 194.902,130.811 194.902,130.811C194.902,130.811 198.894,134.566 198.894,134.566C198.894,134.566 194.899,130.767 194.899,130.767C194.899,130.767 198.891,134.519 198.891,134.519C198.891,134.519 194.883,130.515 194.883,130.515C194.883,130.515 198.874,134.248 198.874,134.248C198.874,134.248 194.88,130.475 194.88,130.475C194.88,130.475 198.871,134.201 198.871,134.201C198.871,134.201 194.862,130.216 194.862,130.216C194.862,130.216 198.851,133.926 198.851,133.926C198.851,133.926 194.86,130.193 194.86,130.193C194.86,130.193 198.849,133.895 198.849,133.895C198.849,133.895 194.84,129.927 194.84,129.927C194.84,129.927 198.827,133.615 198.827,133.615C198.827,133.615 194.838,129.913 194.838,129.913C194.838,129.913 198.826,133.602 198.826,133.602C198.826,133.602 194.817,129.656 194.817,129.656C194.817,129.656 198.803,133.321 198.803,133.321C198.803,133.321 194.814,129.617 194.814,129.617C194.814,129.617 198.8,133.28 198.8,133.28C198.8,133.28 194.792,129.367 194.792,129.367L198.776,133.01C198.776,133.01 194.788,129.323 194.788,129.323C194.788,129.323 198.772,132.961 198.772,132.961C198.772,132.961 194.765,129.071 194.765,129.071C194.765,129.071 198.747,132.692 198.747,132.692C198.747,132.692 194.761,129.037 194.761,129.037C194.761,129.037 198.743,132.65 198.743,132.65C198.743,132.65 194.735,128.773 194.735,128.773C194.735,128.773 198.715,132.371 198.715,132.371C198.715,132.371 194.734,128.766 194.734,128.766C194.734,128.766 198.713,132.354 198.713,132.354C198.713,132.354 194.707,128.502 194.707,128.502C194.707,128.502 198.684,132.077 198.684,132.077C198.684,132.077 194.704,128.474 194.704,128.474C194.704,128.474 198.681,132.05 198.681,132.05L194.676,128.223C194.676,128.223 198.651,131.776 198.651,131.776C198.651,131.776 194.671,128.181 194.671,128.181C194.671,128.181 198.646,131.731 198.646,131.731C198.646,131.731 194.642,127.933 194.642,127.933L198.615,131.464C198.615,131.464 194.638,127.893 194.638,127.893C194.638,127.893 198.609,131.418 198.609,131.418C198.609,131.418 194.607,127.639 194.607,127.639C194.607,127.639 198.576,131.147 198.576,131.147C198.576,131.147 194.603,127.613 194.603,127.613C194.603,127.613 198.572,131.113 198.572,131.113C198.572,131.113 194.569,127.345 194.569,127.345C194.569,127.345 198.536,130.831 198.536,130.831C198.536,130.831 194.569,127.341 194.569,127.341C194.569,127.341 198.536,130.829 198.536,130.829C198.536,130.829 194.534,127.083 194.534,127.083C194.534,127.083 198.498,130.547 198.498,130.547C198.498,130.547 194.53,127.048 194.53,127.048C194.53,127.048 198.493,130.511 198.493,130.511C198.493,130.511 194.495,126.801 194.495,126.801C194.495,126.801 198.456,130.243 198.456,130.243C198.456,130.243 194.489,126.759 194.489,126.759C194.489,126.759 198.45,130.197 198.45,130.197C198.45,130.197 194.453,126.511 194.453,126.511C194.453,126.511 198.411,129.931 198.411,129.931C198.411,129.931 194.448,126.476 194.448,126.476C194.448,126.476 198.405,129.889 198.405,129.889C198.405,129.889 194.409,126.218 194.409,126.218C194.409,126.218 198.364,129.615 198.364,129.615C198.364,129.615 194.408,126.206 194.408,126.206C194.408,126.206 198.36,129.594 198.36,129.594C198.36,129.594 194.367,125.944 194.367,125.944C194.367,125.944 198.318,129.319 198.318,129.319C198.318,129.319 194.363,125.924 194.363,125.924C194.363,125.924 198.315,129.3 198.315,129.3C198.315,129.3 194.323,125.674 194.323,125.674C194.323,125.674 198.27,129.027 198.27,129.027C198.27,129.027 194.317,125.636 194.317,125.636C194.317,125.636 198.264,128.986 198.264,128.986C198.264,128.986 194.275,125.39 194.275,125.39C194.275,125.39 198.219,128.721 198.219,128.721C198.219,128.721 194.269,125.351 194.269,125.351C194.269,125.351 198.211,128.677 198.211,128.677C198.211,128.677 194.225,125.101 194.225,125.101C194.225,125.101 198.165,128.41 198.165,128.41C198.165,128.41 194.221,125.074 194.221,125.074C194.221,125.074 198.159,128.376 198.159,128.376L194.284,124.909L194.175,124.818L194.283,124.909L194.173,124.81L197.628,127.695L198.109,128.095C198.109,128.095 194.125,124.55 194.125,124.55C194.125,124.55 198.057,127.815 198.057,127.815C198.057,127.815 194.12,124.522 194.12,124.522C194.12,124.522 198.052,127.786 198.052,127.786C198.052,127.786 194.073,124.275 194.073,124.275C194.073,124.275 198,127.518 198,127.518C198,127.518 194.065,124.237 194.065,124.237C194.065,124.237 197.992,127.476 197.992,127.476C197.992,127.476 194.017,123.991 194.017,123.991C194.017,123.991 197.94,127.212 197.94,127.212C197.94,127.212 194.01,123.958 194.01,123.958C194.01,123.958 197.932,127.172 197.932,127.172C197.932,127.172 193.959,123.704 193.959,123.704C193.959,123.704 197.878,126.903 197.878,126.903C197.878,126.903 193.956,123.69 193.956,123.69C193.956,123.69 197.873,126.88 197.873,126.88L193.901,123.427L197.816,126.603C197.816,126.603 193.899,123.417 193.899,123.417C193.899,123.417 197.814,126.595 197.814,126.595C197.814,126.595 193.845,123.166 193.845,123.166C193.845,123.166 197.755,126.321 197.755,126.321C197.755,126.321 193.838,123.133 193.838,123.133C193.838,123.133 197.748,126.286 197.748,126.286C197.748,126.286 193.785,122.889 193.785,122.889C193.785,122.889 197.69,126.022 197.69,126.022C197.69,126.022 193.777,122.853 193.777,122.853C193.777,122.853 197.681,125.982 197.681,125.982C197.681,125.982 193.721,122.606 193.721,122.606C193.721,122.606 197.621,125.717 197.621,125.717C197.621,125.717 193.715,122.58 193.715,122.58C193.715,122.58 197.613,125.684 197.613,125.684L193.706,122.364L193.656,122.324L193.706,122.364L193.655,122.32L195.303,123.628L197.549,125.405L193.593,122.059L197.483,125.127C197.483,125.127 193.588,122.039 193.588,122.039C193.588,122.039 197.478,125.107 197.478,125.107C197.478,125.107 193.528,121.792 193.528,121.792C193.528,121.792 197.412,124.839 197.412,124.839C197.412,124.839 193.52,121.759 193.52,121.759C193.52,121.759 197.404,124.803 197.404,124.803C197.404,124.803 193.459,121.515 193.459,121.515C193.459,121.515 197.338,124.54 197.338,124.54C197.338,124.54 193.451,121.484 193.451,121.484C193.451,121.484 197.329,124.504 197.329,124.504C197.329,124.504 193.387,121.234 193.387,121.234C193.387,121.234 197.261,124.237 197.261,124.237C197.261,124.237 193.383,121.22 193.383,121.22C193.383,121.22 197.255,124.215 197.255,124.215C197.255,124.215 193.314,120.955 193.314,120.955C193.314,120.955 197.183,123.937 197.183,123.937C197.183,123.937 193.246,120.701 193.246,120.701C193.246,120.701 197.109,123.661 197.109,123.661C197.109,123.661 193.24,120.676 193.24,120.676C193.24,120.676 197.102,123.635 197.102,123.635L193.173,120.432L197.03,123.371C197.03,123.371 193.164,120.401 193.164,120.401C193.164,120.401 197.02,123.336 197.02,123.336C197.02,123.336 193.096,120.156 193.096,120.156C193.096,120.156 196.947,123.073 196.947,123.073C196.947,123.073 193.089,120.132 193.089,120.132C193.089,120.132 196.938,123.044 196.938,123.044L193.045,119.9L193.017,119.879L193.045,119.899L193.017,119.876L193.981,120.603L196.859,122.767C196.859,122.767 192.94,119.612 192.94,119.612C192.94,119.612 196.778,122.487 196.778,122.487C196.778,122.487 192.937,119.603 192.937,119.603C192.937,119.603 196.776,122.479 196.776,122.479C196.776,122.479 192.863,119.355 192.863,119.355C192.863,119.355 196.696,122.209 196.696,122.209C196.696,122.209 192.855,119.328 192.855,119.328C192.855,119.328 196.687,122.18 196.687,122.18L192.782,119.085L196.608,121.918C196.608,121.918 192.773,119.059 192.773,119.059C192.773,119.059 196.598,121.887 196.598,121.887C196.598,121.887 192.697,118.811 192.697,118.811C192.697,118.811 196.516,121.622 196.516,121.622C196.516,121.622 192.693,118.798 192.693,118.798C192.693,118.798 196.51,121.603 196.51,121.603C196.51,121.603 192.611,118.538 192.611,118.538C192.611,118.538 196.424,121.328 196.424,121.328C196.424,121.328 192.529,118.283 192.529,118.283C192.529,118.283 196.335,121.052 196.335,121.052C196.335,121.052 192.524,118.267 192.524,118.267C192.524,118.267 196.33,121.036 196.33,121.036C196.33,121.036 192.444,118.023 192.444,118.023L196.243,120.771C196.243,120.771 192.436,117.998 192.436,117.998C192.436,117.998 196.234,120.743 196.234,120.743C196.234,120.743 192.354,117.754 192.354,117.754C192.354,117.754 196.146,120.481 196.146,120.481C196.146,120.481 192.348,117.734 192.348,117.734C192.348,117.734 196.138,120.456 196.138,120.456L192.296,117.507L192.263,117.484L192.295,117.507L192.262,117.481L193.515,118.377L196.045,120.183C196.045,120.183 192.17,117.217 192.17,117.217C192.17,117.217 195.948,119.902 195.948,119.902C195.948,119.902 192.082,116.967 192.082,116.967C192.082,116.967 195.853,119.631 195.853,119.631C195.853,119.631 192.076,116.948 192.076,116.948C192.076,116.948 195.846,119.612 195.846,119.612C195.846,119.612 191.989,116.705 191.989,116.705C191.989,116.705 195.752,119.349 195.752,119.349C195.752,119.349 191.981,116.684 191.981,116.684C191.981,116.684 195.743,119.324 195.743,119.324C195.743,119.324 191.891,116.438 191.891,116.438C191.891,116.438 195.647,119.061 195.647,119.061C195.647,119.061 191.888,116.428 191.888,116.428C191.888,116.428 195.641,119.045 195.641,119.045C195.641,119.045 191.793,116.172 191.793,116.172C191.793,116.172 195.541,118.774 195.541,118.774C195.541,118.774 191.696,115.915 191.696,115.915C191.696,115.915 195.436,118.497 195.436,118.497C195.436,118.497 191.694,115.91 191.694,115.91C191.694,115.91 195.435,118.493 195.435,118.493C195.435,118.493 191.6,115.664 191.6,115.664C191.6,115.664 195.332,118.226 195.332,118.226C195.332,118.226 191.593,115.646 191.593,115.646C191.593,115.646 195.325,118.206 195.325,118.206C195.325,118.206 191.498,115.403 191.498,115.403C191.498,115.403 195.223,117.944 195.223,117.944C195.223,117.944 191.493,115.388 191.493,115.388C191.493,115.388 195.215,117.925 195.215,117.925L191.452,115.18L191.395,115.142L191.451,115.18L191.393,115.138L193.789,116.762L195.109,117.656C195.109,117.656 191.29,114.88 191.29,114.88L191.942,115.32C191.764,115.169 191.599,115.001 191.45,114.819L191.188,114.63L191.427,114.79L191.417,114.777L191.184,114.62L191.416,114.776L191.306,114.636L191.176,114.444L191.083,114.377L191.171,114.436L191.158,114.416L191.077,114.362L191.157,114.416C191.099,114.324 191.044,114.229 190.993,114.131L190.974,114.117L190.992,114.13L190.989,114.124L190.971,114.112L190.989,114.124L190.869,113.872C190.829,113.78 190.789,113.689 190.75,113.598L194.419,116.005C194.419,116.005 190.645,113.359 190.645,113.359C190.645,113.359 194.302,115.739 194.302,115.739C194.302,115.739 190.64,113.349 190.64,113.349C190.64,113.349 194.297,115.728 194.297,115.728C194.297,115.728 190.532,113.107 190.532,113.107C190.532,113.107 194.18,115.467 194.18,115.467C194.18,115.467 190.527,113.097 190.527,113.097C190.527,113.097 194.174,115.454 194.174,115.454L190.415,112.849L194.054,115.189C194.054,115.189 190.331,112.667 190.331,112.667C190.331,112.667 193.962,114.989 193.962,114.989C193.962,114.989 190.27,112.535 190.27,112.535C190.27,112.535 193.897,114.849 193.897,114.849C193.897,114.849 190.206,112.398 190.206,112.398C190.206,112.398 193.828,114.702 193.828,114.702C193.828,114.702 190.146,112.271 190.146,112.271C190.146,112.271 193.763,114.563 193.763,114.563C193.763,114.563 190.08,112.132 190.08,112.132C190.08,112.132 193.693,114.416 193.693,114.416C193.693,114.416 190.021,112.008 190.021,112.008C190.021,112.008 193.627,114.278 193.627,114.278C193.627,114.278 189.953,111.866 189.953,111.866C189.953,111.866 193.557,114.131 193.557,114.131C193.557,114.131 189.894,111.744 189.894,111.744C189.894,111.744 193.489,113.992 193.489,113.992C193.489,113.992 189.824,111.602 189.824,111.602C189.824,111.602 193.419,113.847 193.419,113.847C193.419,113.847 189.749,111.449 189.749,111.449C189.749,111.449 193.333,113.674 193.333,113.674C193.333,113.674 189.701,111.352 189.701,111.352C189.701,111.352 193.286,113.579 193.286,113.579C193.286,113.579 189.638,111.227 189.638,111.227C189.638,111.227 193.213,113.433 193.213,113.433C193.213,113.433 189.572,111.094 189.572,111.094C189.572,111.094 193.146,113.298 193.146,113.298C193.146,113.298 189.505,110.963 189.505,110.963C189.505,110.963 193.071,113.15 193.071,113.15C193.071,113.15 189.44,110.835 189.44,110.835C189.44,110.835 193.003,113.018 193.003,113.018C193.003,113.018 189.371,110.701 189.371,110.701C189.371,110.701 192.927,112.869 192.927,112.869C192.927,112.869 189.307,110.577 189.307,110.577C189.307,110.577 192.859,112.738 192.859,112.738C192.859,112.738 189.236,110.441 189.236,110.441C189.236,110.441 192.782,112.589 192.782,112.589C192.782,112.589 189.173,110.32 189.173,110.32C189.173,110.32 192.714,112.459 192.714,112.459C192.714,112.459 189.1,110.181 189.1,110.181C189.1,110.181 192.635,112.31 192.635,112.31C192.635,112.31 189.037,110.064 189.037,110.064C189.037,110.064 192.567,112.182 192.567,112.182C192.567,112.182 188.962,109.923 188.962,109.923C188.962,109.923 192.487,112.033 192.487,112.033C192.487,112.033 188.9,109.809 188.9,109.809C188.9,109.809 192.419,111.906 192.419,111.906C192.419,111.906 188.822,109.665 188.822,109.665C188.822,109.665 192.338,111.756 192.338,111.756C192.338,111.756 188.763,109.557 188.763,109.557C188.763,109.557 192.27,111.633 192.27,111.633C192.27,111.633 188.682,109.408 188.682,109.408C188.682,109.408 192.186,111.48 192.186,111.48C192.186,111.48 188.638,109.33 188.638,109.33C188.638,109.33 192.134,111.385 192.134,111.385C192.134,111.385 188.547,109.166 188.547,109.166C188.547,109.166 192.041,111.218 192.041,111.218C192.041,111.218 188.471,109.03 188.471,109.03C188.471,109.03 191.955,111.065 191.955,111.065C191.955,111.065 188.407,108.916 188.407,108.916C188.407,108.916 191.89,110.95 191.89,110.95C191.89,110.95 188.33,108.782 188.33,108.782L191.803,110.798C191.803,110.798 188.263,108.665 188.263,108.665C188.263,108.665 191.734,110.677 191.734,110.677C191.734,110.677 188.186,108.531 188.186,108.531C188.186,108.531 191.648,110.528 191.648,110.528C191.648,110.528 188.118,108.415 188.118,108.415C188.118,108.415 191.578,110.406 191.578,110.406C191.578,110.406 188.039,108.279 188.039,108.279C188.039,108.279 191.491,110.257 191.491,110.257C191.491,110.257 187.972,108.165 187.972,108.165C187.972,108.165 191.419,110.136 191.419,110.136C191.419,110.136 187.891,108.027 187.891,108.027C187.891,108.027 191.331,109.987 191.331,109.987C191.331,109.987 187.825,107.917 187.825,107.917C187.825,107.917 191.26,109.867 191.26,109.867C191.26,109.867 187.741,107.777 187.741,107.777C187.741,107.777 191.171,109.718 191.171,109.718C191.171,109.718 187.677,107.671 187.677,107.671C187.677,107.671 191.099,109.6 191.099,109.6L187.59,107.527C187.59,107.527 191.008,109.45 191.008,109.45C191.008,109.45 187.529,107.428 187.529,107.428C187.529,107.428 190.939,109.337 190.939,109.337C190.939,109.337 187.438,107.278 187.438,107.278C187.438,107.278 190.845,109.183 190.845,109.183C190.845,109.183 187.394,107.207 187.394,107.207C187.394,107.207 190.791,109.096 190.791,109.096C190.791,109.096 187.291,107.041 187.291,107.041C187.291,107.041 190.686,108.927 190.686,108.927C190.686,108.927 187.2,106.897 187.2,106.897C187.2,106.897 190.584,108.764 190.584,108.764C190.584,108.764 187.14,106.802 187.14,106.802C187.14,106.802 190.525,108.67 190.525,108.67C190.525,108.67 187.055,106.668 187.055,106.668C187.055,106.668 190.428,108.518 190.428,108.518C190.428,108.518 186.985,106.559 186.985,106.559C186.985,106.559 190.357,108.406 190.357,108.406C190.357,108.406 186.9,106.426 186.9,106.426C186.9,106.426 190.261,108.258 190.261,108.258C190.261,108.258 186.829,106.316 186.829,106.316C186.829,106.316 190.187,108.143 190.187,108.143C190.187,108.143 186.742,106.183 186.742,106.183C186.742,106.183 190.092,107.997 190.092,107.997C190.092,107.997 186.672,106.075 186.672,106.075C186.672,106.075 190.017,107.882 190.017,107.882C190.017,107.882 186.583,105.94 186.583,105.94C186.583,105.94 189.921,107.736 189.921,107.736C189.921,107.736 186.513,105.835 186.513,105.835C186.513,105.835 189.845,107.622 189.845,107.622C189.845,107.622 186.421,105.697 186.421,105.697C186.421,105.697 189.748,107.476 189.748,107.476C189.748,107.476 186.354,105.596 186.354,105.596C186.354,105.596 189.672,107.363 189.672,107.363C189.672,107.363 186.259,105.456 186.259,105.456C186.259,105.456 189.573,107.216 189.573,107.216C189.573,107.216 186.194,105.361 186.194,105.361C186.194,105.361 189.5,107.108 189.5,107.108L186.095,105.215C186.095,105.215 189.397,106.958 189.397,106.958C189.397,106.958 186.043,105.14 186.043,105.14C186.043,105.14 189.335,106.868 189.335,106.868C189.335,106.868 185.935,104.984 185.935,104.984C185.935,104.984 189.225,106.709 189.225,106.709C189.225,106.709 185.829,104.832 185.829,104.832C185.829,104.832 189.107,106.538 189.107,106.538C189.107,106.538 185.775,104.754 185.775,104.754C185.775,104.754 189.054,106.463 189.054,106.463C189.054,106.463 185.683,104.624 185.683,104.624C185.683,104.624 188.949,106.314 188.949,106.314C188.949,106.314 185.61,104.52 185.61,104.52C185.61,104.52 188.874,106.208 188.874,106.208C188.874,106.208 185.518,104.391 185.518,104.391C185.518,104.391 188.771,106.064 188.771,106.064C188.771,106.064 185.442,104.285 185.442,104.285C185.442,104.285 188.692,105.954 188.692,105.954C188.692,105.954 185.349,104.157 185.349,104.157C185.349,104.157 188.59,105.812 188.59,105.812C188.59,105.812 185.273,104.052 185.273,104.052C185.273,104.052 188.509,105.701 188.509,105.701C188.509,105.701 185.179,103.922 185.179,103.922C185.179,103.922 188.407,105.56 188.407,105.56C188.407,105.56 185.103,103.819 185.103,103.819C185.103,103.819 188.325,105.449 188.325,105.449C188.325,105.449 185.006,103.688 185.006,103.688C185.006,103.688 188.222,105.309 188.222,105.309C188.222,105.309 184.932,103.588 184.932,103.588C184.932,103.588 188.14,105.199 188.14,105.199C188.14,105.199 184.833,103.455 184.833,103.455L188.036,105.059C188.036,105.059 184.761,103.36 184.761,103.36C184.761,103.36 187.954,104.951 187.954,104.951C187.954,104.951 184.658,103.223 184.658,103.223L187.848,104.81C187.848,104.81 184.592,103.137 184.592,103.137C184.592,103.137 187.771,104.71 187.771,104.71C187.771,104.71 184.485,102.997 184.485,102.997C184.485,102.997 187.662,104.566 187.662,104.566C187.662,104.566 184.371,102.849 184.371,102.849C184.371,102.849 187.535,104.401 187.535,104.401C187.535,104.401 184.315,102.777 184.315,102.777C184.315,102.777 187.481,104.331 187.481,104.331C187.481,104.331 184.221,102.656 184.221,102.656C184.221,102.656 187.373,104.193 187.373,104.193C187.373,104.193 184.139,102.551 184.139,102.551C184.139,102.551 187.289,104.085 187.289,104.085C187.289,104.085 184.045,102.431 184.045,102.431C184.045,102.431 187.183,103.951 187.183,103.951C187.183,103.951 183.96,102.324 183.96,102.324C183.96,102.324 187.095,103.84 187.095,103.84C187.095,103.84 183.865,102.205 183.865,102.205C183.865,102.205 186.99,103.708 186.99,103.708C186.99,103.708 183.78,102.099 183.78,102.099C183.78,102.099 186.9,103.596 186.9,103.596C186.9,103.596 183.683,101.979 183.683,101.979C183.683,101.979 186.795,103.465 186.795,103.465C186.795,103.465 183.598,101.874 183.598,101.874C183.598,101.874 186.703,103.352 186.703,103.352C186.703,103.352 183.5,101.753 183.5,101.753C183.5,101.753 186.598,103.223 186.598,103.223C186.598,103.223 183.416,101.65 183.416,101.65C183.416,101.65 186.505,103.11 186.505,103.11C186.505,103.11 183.316,101.529 183.316,101.529C183.316,101.529 186.4,102.982 186.4,102.982L184.488,102.044C184.179,101.937 183.884,101.793 183.611,101.614L183.231,101.427L183.562,101.582L183.303,101.391L183.13,101.306L183.291,101.381L183.132,101.246L183.043,101.203L183.127,101.242L182.977,101.1L182.943,101.083L182.975,101.098C182.899,101.025 182.827,100.947 182.758,100.866C173.401,89.935 159.504,83 144,83C115.852,83 93,105.852 93,134C93,162.148 115.852,185 144,185C159.606,185 173.584,177.974 182.942,166.918L183.039,166.802L184.888,170.768ZM203.906,81L1367.97,81C1376.09,81.129 1384.15,85.14 1390.96,91.532C1401.61,101.537 1409.15,117.395 1409,134.536C1409,134.547 1409,134.559 1409,134.571L1409,176.292C1408.98,179.145 1407.43,182.005 1405.22,184.201C1402.99,186.417 1400.05,187.999 1397,188C1397,188 203.006,188 203.006,188C216.042,173.765 224,154.804 224,134C224,113.68 216.408,95.119 203.906,81L203.906,81ZM184.89,170.767L183.043,166.798L183.229,166.576L183.627,167.425C183.649,167.629 183.694,167.827 183.758,168.02L184.09,168.732C184.218,168.947 184.367,169.153 184.53,169.348L185.091,170.543L185.039,170.601L184.89,170.767ZM185.091,170.542L184.534,169.352L184.53,169.348L183.627,167.425L183.626,167.418L183.23,166.573L183.415,166.35L183.632,166.81L183.613,167.087L184.834,169.686C184.93,169.785 185.028,169.88 185.127,169.973L185.29,170.317L185.091,170.542ZM185.29,170.317L183.415,166.35L184.043,165.571L184.061,165.608L183.992,165.729L185.878,169.638L185.876,169.64L183.988,165.736L183.937,165.832L183.91,165.89L185.772,169.762L185.772,169.762L183.91,165.89L183.86,165.997L183.846,166.031L185.683,169.865L185.682,169.867L183.844,166.036L183.793,166.161L183.776,166.211L185.579,169.987L185.578,169.988L183.775,166.215L183.738,166.323L183.721,166.381L185.487,170.093L185.487,170.093L183.721,166.384L183.693,166.483L183.669,166.593L185.373,170.191L185.389,170.204L185.29,170.317ZM183.632,166.81L183.667,166.601L185.369,170.187L185.127,169.973L183.632,166.81ZM183.612,167.102L184.826,169.677L184.683,169.527L184.534,169.352L183.626,167.418C183.615,167.314 183.61,167.208 183.612,167.102ZM185.965,169.537L184.061,165.608L184.062,165.606L184.044,165.569L184.218,165.348L184.222,165.356L184.153,165.459L186.072,169.41L186.069,169.413L184.147,165.468L184.127,165.497L184.062,165.606L185.965,169.536L185.965,169.537ZM186.154,169.312L184.222,165.356L184.225,165.352L184.221,165.344C184.221,165.344 184.324,165.213 184.324,165.213L184.324,165.214L184.225,165.352L186.155,169.311L186.154,169.312ZM184.374,165.149L184.588,164.868L184.757,165.209L184.768,165.22L186.296,168.308L186.305,168.332L186.551,168.829L186.512,168.877L186.451,168.713L186.305,168.332L184.757,165.209C184.676,165.128 184.6,165.081 184.531,165.075L186.444,168.961L186.442,168.964L184.519,165.074C184.47,165.079 184.445,165.089 184.404,165.117L184.374,165.149L184.371,165.153L186.317,169.118L186.306,169.131L186.264,169.181L184.324,165.214L184.371,165.153L184.371,165.153L184.374,165.149ZM185.277,165.98C185.238,165.907 185.2,165.837 185.161,165.771L185.697,166.851L185.554,166.536L185.669,166.732C185.789,166.924 185.927,167.108 186.075,167.283L186.734,168.604L186.553,168.827L186.296,168.308L186.199,168.056C186.112,167.841 186.025,167.625 185.938,167.41L185.748,166.97L185.106,165.679C184.987,165.481 184.874,165.323 184.768,165.22L184.592,164.863L184.758,164.644L185.194,165.518C185.233,165.758 185.302,165.989 185.396,166.21L185.277,165.98ZM183.782,168.091L184.05,168.662C183.943,168.479 183.853,168.288 183.782,168.091ZM186.735,168.603L186.08,167.288L186.075,167.283L185.194,165.518L185.193,165.509L184.76,164.641L184.931,164.413L185.167,164.882C185.159,164.984 185.157,165.086 185.161,165.186L186.366,167.598L186.487,167.72L186.683,167.901L186.921,168.374L186.735,168.603ZM186.921,168.374L186.684,167.901L185.167,164.882L185.167,164.88L184.932,164.412L185.516,163.611L185.536,163.649L185.476,163.769L187.475,167.671L187.474,167.673L185.473,163.776L185.432,163.861L185.399,163.94L187.372,167.804L187.372,167.804L185.398,163.941L185.362,164.028L185.344,164.08L187.292,167.907L187.291,167.908L185.342,164.085L185.303,164.193L185.28,164.272L187.19,168.038L187.189,168.04L185.279,164.277L185.255,164.357L185.235,164.44L187.108,168.144L187.107,168.144L185.235,164.442L185.217,164.518L185.19,164.666L186.921,168.105L187.054,168.21L186.921,168.374ZM185.189,164.675L186.917,168.101L186.684,167.901L185.167,164.88C185.171,164.813 185.179,164.744 185.189,164.675ZM185.167,165.294L185.162,165.203L186.356,167.588L186.08,167.288L185.193,165.509L185.167,165.294ZM187.554,167.57L185.536,163.649L185.537,163.647L185.517,163.61L185.68,163.381L185.685,163.389L185.624,163.49L187.658,167.436L187.656,167.438L185.618,163.499L185.605,163.521L185.537,163.647L187.554,167.57L187.554,167.57ZM187.733,167.34L185.685,163.389L185.687,163.385L185.683,163.377C185.683,163.377 185.783,163.235 185.783,163.235L185.783,163.237L185.687,163.385L187.733,167.339L187.733,167.34ZM185.833,163.165L186.039,162.865L186.237,163.241L186.249,163.252L187.727,166.068L187.738,166.095L188.12,166.822L188.065,166.896L187.96,166.634L187.738,166.095L186.237,163.241C186.143,163.145 186.057,163.09 185.982,163.086L188.011,166.968L188.009,166.972L185.971,163.086C185.923,163.092 185.899,163.104 185.861,163.133L185.833,163.165L185.829,163.171L187.891,167.129L187.84,167.198L185.783,163.237L185.829,163.171L185.829,163.17L185.833,163.165ZM188.286,166.599L188.122,166.82L187.727,166.068C187.557,165.663 187.383,165.264 187.209,164.896L186.564,163.675C186.453,163.497 186.347,163.353 186.249,163.252L186.043,162.86L186.192,162.643L188.286,166.599ZM188.461,166.364L188.287,166.598L186.194,162.64L186.352,162.405L188.461,166.364ZM188.462,166.363L186.353,162.404L186.899,161.576L186.984,161.733L186.946,161.888L188.981,165.635L188.98,165.637L186.944,161.896C186.927,161.97 186.914,162.043 186.904,162.116L188.825,165.663L188.915,165.728L188.509,166.299L188.462,166.363ZM186.889,162.229L186.883,162.31L188.596,165.486L188.824,165.663L186.904,162.118L186.889,162.229ZM189.055,165.531L186.984,161.733L186.985,161.732L186.899,161.575L187.052,161.336L187.092,161.409L187.046,161.537L189.154,165.392L189.152,165.395L187.042,161.547L187.031,161.578L186.985,161.732L189.055,165.531L189.055,165.531ZM186.882,162.317L188.593,165.483L188.285,165.221L186.875,162.599C186.873,162.506 186.875,162.412 186.882,162.317ZM189.225,165.292L187.092,161.409L187.094,161.405L187.054,161.333L187.196,161.109L187.211,161.137L187.168,161.228L189.324,165.146L189.321,165.15L187.163,161.24L187.094,161.405L189.226,165.291L189.225,165.292ZM186.876,162.606L188.281,165.218C188.189,165.134 188.098,165.047 188.01,164.957L186.897,162.88C186.886,162.79 186.878,162.699 186.876,162.606ZM189.382,165.061L187.211,161.137L187.214,161.131L187.199,161.104L187.39,160.799L187.391,160.801L187.302,160.959L189.487,164.906L189.484,164.91L187.296,160.97L187.246,161.065L187.214,161.131L189.383,165.06L189.382,165.061ZM186.897,162.884L188.009,164.955L187.844,164.78C187.781,164.706 187.717,164.631 187.654,164.556L187.569,164.441L187.015,163.403C186.961,163.236 186.921,163.062 186.897,162.884ZM186.633,163.786C186.715,163.922 186.8,164.075 186.887,164.24C186.973,164.405 187.061,164.583 187.15,164.769L186.633,163.786ZM187.451,160.701L187.527,160.576L187.552,160.622C187.514,160.631 187.48,160.657 187.451,160.701L187.438,160.724L189.645,164.672L189.592,164.751L187.391,160.801L187.438,160.724L187.437,160.723L187.444,160.711L187.451,160.701ZM189.743,164.529L187.552,160.622L187.556,160.621L187.529,160.573L187.676,160.331L188.067,161.024L188.073,161.032L188.958,162.603L189.906,164.284L189.845,164.378L189.796,164.45L189.696,164.217L187.684,160.641C187.637,160.619 187.595,160.611 187.556,160.621L189.744,164.528L189.743,164.529ZM187.072,163.563C187.19,163.869 187.355,164.155 187.553,164.42L187.024,163.431L187.072,163.563ZM190.465,163.422L189.906,164.284L188.95,162.589C188.641,161.952 188.335,161.391 188.073,161.032L187.677,160.33L188.185,159.471L190.465,163.422ZM187.697,160.648C187.805,160.704 187.93,160.836 188.067,161.024L188.958,162.603C189.205,163.106 189.453,163.655 189.683,164.188L187.697,160.648ZM190.623,163.171L190.525,163.33L190.465,163.422L188.185,159.47L188.328,159.221L190.623,163.171ZM190.777,162.922L190.624,163.17L188.33,159.218L188.468,158.975L190.777,162.922ZM190.961,162.625L190.778,162.921L188.47,158.97L188.634,158.677L190.961,162.625ZM191.102,162.396L191.099,162.4L190.962,162.623L188.638,158.671L188.761,158.448L191.102,162.396ZM191.253,162.14L191.102,162.395L188.763,158.444L188.899,158.194L191.253,162.14ZM191.777,161.246L191.734,161.323L191.253,162.139L188.9,158.192L189.371,157.3L191.777,161.246ZM191.925,160.984L191.777,161.246L189.371,157.299L189.504,157.04L191.925,160.984ZM192.072,160.721L191.925,160.983L189.505,157.038L189.635,156.779L192.072,160.721ZM192.073,160.719L189.638,156.774L189.745,156.559L190.519,157.803L190.593,157.944C190.642,158.023 190.692,158.102 190.741,158.181L190.825,158.295L192.196,160.499L192.073,160.719ZM192.197,160.497L190.857,158.338L190.825,158.295L190.519,157.803L190.49,157.747L189.748,156.552L189.891,156.261L190.194,156.745L190.245,157.056L191.435,158.967C191.539,159.062 191.646,159.152 191.755,159.238L192.358,160.202L192.27,160.367L192.197,160.497ZM192.359,160.2L191.76,159.242L191.755,159.238L191.255,158.44L191.112,158.242C190.858,157.942 190.644,157.606 190.5,157.233L190.194,156.745L190.193,156.736L189.893,156.256L190.019,155.995L190.181,156.252C190.177,156.328 190.176,156.403 190.178,156.477L190.361,156.768L190.366,156.793L190.592,157.152L190.636,157.296C190.666,157.373 190.695,157.45 190.724,157.527L190.819,157.737L191.198,158.344C191.319,158.479 191.448,158.606 191.581,158.726L190.592,157.152L190.583,157.124L190.361,156.768C190.339,156.668 190.323,156.566 190.313,156.461L190.181,156.252L190.181,156.249L190.02,155.993L190.528,154.901L190.425,155.154L190.444,155.184L190.441,155.194L190.488,155.266L190.449,155.518L190.703,155.915L190.704,155.918L192.056,158.031L192.057,158.033L192.852,159.276L192.852,159.276L192.056,158.031C191.931,157.927 191.81,157.816 191.696,157.698L190.802,156.296C190.761,156.174 190.728,156.048 190.704,155.918L190.449,155.52L190.449,155.518L190.384,155.416L190.441,155.194L190.421,155.163L190.387,155.253L190.351,155.364L190.384,155.416L190.384,155.418L190.449,155.52L190.431,155.714L190.802,156.296L190.805,156.305L191.691,157.693L191.696,157.698L192.784,159.404L192.783,159.405L191.691,157.693C191.307,157.302 190.985,156.841 190.805,156.305L190.43,155.718L190.431,155.714L190.349,155.586L190.384,155.418L190.35,155.366L190.33,155.429L190.305,155.517L190.349,155.586L190.349,155.59L190.43,155.718L190.421,155.934L192.709,159.536L192.712,159.538L192.682,159.595L192.557,159.533L192.642,159.669L192.642,159.669L192.557,159.533L192.312,159.394L192.559,159.787L192.575,159.796L192.501,159.934L192.313,159.635L192.311,159.634L192.046,159.213L191.906,159.107L191.732,158.957L192.042,159.452L192.311,159.634L192.501,159.934L192.359,160.2ZM190.492,156.745L191.913,159.002L191.916,159.004L192.049,159.215C192.132,159.278 192.218,159.336 192.307,159.392L192.555,159.784L192.313,159.635L192.049,159.215L192.046,159.213L191.913,159.002C191.805,158.919 191.699,158.831 191.595,158.739L190.583,157.124C190.546,156.999 190.516,156.873 190.492,156.745ZM190.282,155.603L190.304,155.52L190.349,155.59L190.321,155.776L190.421,155.934L190.421,155.942L192.706,159.534C192.626,159.488 192.546,159.439 192.464,159.388L190.424,156.169L190.421,155.942L190.32,155.783L190.321,155.776L190.263,155.685L190.282,155.603ZM190.832,157.764L191.186,158.329L191.198,158.344L191.27,158.459C191.406,158.636 191.558,158.798 191.72,158.947L192.034,159.446L191.76,159.242L191.27,158.459L191.255,158.44L191.186,158.329L191.075,158.189C190.984,158.051 190.903,157.909 190.832,157.764ZM190.243,155.773L190.228,155.859L190.424,156.169L190.445,156.436L192.194,159.208L192.464,159.388L190.303,155.977L190.32,155.783L190.261,155.691L190.243,155.773ZM190.213,155.939L190.228,155.859L190.303,155.978C190.298,156.054 190.297,156.129 190.298,156.202L190.445,156.436L190.447,156.45L192.188,159.204L191.916,159.004L190.491,156.74L190.447,156.45L190.298,156.215L190.298,156.202L190.2,156.046L190.213,155.939ZM197.478,146.893L197.255,147.785L197.02,148.664L196.776,149.521L196.51,150.397L196.331,150.956L196.162,150.737L196.159,150.736L196.33,150.957L196.234,151.257L195.948,152.098L195.641,152.955L195.48,153.381L195.45,153.339L195.447,153.338L195.48,153.383L195.325,153.794L194.998,154.619L194.652,155.454L194.297,156.272L193.828,157.298L193.419,158.153L193.33,158.329L193.266,158.231L193.323,158.342L193.249,158.49L193.102,158.409L193.128,158.458L193.205,158.576L193.201,158.585L193.166,158.532L193.197,158.592L193.115,158.756L192.982,158.682L193.077,158.83L193.072,158.84L192.963,158.671L192.835,158.594L192.481,158.359L191.997,157.604L191.984,157.593L192.474,158.354L192.481,158.359L192.948,159.086L192.947,159.089L192.474,158.354C192.333,158.255 192.193,158.148 192.057,158.033L190.703,155.915C190.679,155.79 190.663,155.66 190.656,155.527L190.488,155.266L190.49,155.256L190.444,155.184C190.47,155.095 190.5,155.004 190.535,154.912L190.528,154.902L190.531,154.895L190.531,154.895L190.533,154.89L190.534,154.889L190.642,154.647L190.561,154.843L190.534,154.889L190.531,154.895L190.538,154.905L190.561,154.843L190.584,154.817L190.602,154.805L190.649,154.658L190.642,154.647L190.644,154.642L190.644,154.642L190.645,154.64L190.645,154.64L190.971,153.888L190.875,154.138L190.895,154.168L190.89,154.185L190.93,154.245L190.934,154.228L190.895,154.168C190.919,154.08 190.946,153.99 190.978,153.9L190.971,153.889L190.973,153.884L190.973,153.884L190.975,153.878L190.976,153.877L191.078,153.635L191.003,153.83L190.976,153.877L190.973,153.884L190.98,153.895L191.003,153.83L191.024,153.804L191.038,153.795L191.085,153.646L191.078,153.636L191.083,153.625L191.082,153.624L191.084,153.621L191.085,153.619L191.186,153.374L191.11,153.574L191.085,153.619L191.083,153.625L191.089,153.635L191.11,153.574L191.132,153.547C191.142,153.54 191.152,153.533 191.162,153.525L191.189,153.516L191.213,153.415L191.186,153.374L191.187,153.371L191.187,153.371L191.188,153.37L191.493,152.611L191.422,152.807C191.412,152.821 191.403,152.837 191.396,152.856L191.395,152.86L191.402,152.87L191.4,152.875L191.422,152.907L191.423,152.902L191.402,152.87L191.422,152.807L191.443,152.782L191.457,152.771L191.501,152.623L191.493,152.611L191.498,152.599L191.498,152.599L191.5,152.594L191.501,152.591L191.594,152.35L191.525,152.545L191.501,152.591L191.498,152.599L191.505,152.609L191.525,152.545L191.546,152.519L191.559,152.509L191.602,152.361L191.595,152.351L191.6,152.337L191.599,152.337L191.6,152.335L191.601,152.333L191.888,151.573L191.802,151.834L191.824,151.866L191.823,151.874L191.866,151.936L191.867,151.928L191.824,151.866C191.844,151.773 191.867,151.68 191.896,151.584L191.888,151.573L191.891,151.564L191.891,151.564L191.893,151.557L191.894,151.555L191.982,151.314L191.918,151.508L191.894,151.555L191.891,151.564L191.898,151.575L191.918,151.508L191.937,151.482L191.952,151.471L191.99,151.326L191.982,151.315L191.988,151.297L191.988,151.296L191.99,151.293L191.991,151.29L192.077,151.047L192.014,151.244L191.991,151.29L191.988,151.297L191.996,151.307L192.014,151.244L192.033,151.217C192.042,151.21 192.052,151.203 192.061,151.195L192.09,151.185L192.107,151.09L192.078,151.048L192.082,151.035L192.082,151.035L192.082,151.034L192.083,151.032L192.348,150.265L192.288,150.462C192.278,150.476 192.271,150.493 192.264,150.512L192.262,150.518L192.27,150.529L192.269,150.531L192.293,150.565L192.293,150.562L192.27,150.529L192.288,150.462L192.306,150.437L192.322,150.424L192.357,150.278L192.348,150.266L192.354,150.248L192.354,150.248L192.356,150.242L192.357,150.239L192.437,149.999L192.379,150.192L192.357,150.239L192.354,150.248L192.362,150.258L192.379,150.192L192.397,150.167L192.411,150.155L192.445,150.011L192.437,150L192.444,149.979L192.443,149.979L192.444,149.976L192.446,149.973L192.526,149.727L192.467,149.927L192.446,149.973L192.444,149.979L192.451,149.989L192.467,149.927L192.485,149.901C192.494,149.893 192.503,149.886 192.512,149.878L192.542,149.866L192.557,149.77L192.526,149.727L192.529,149.718L192.529,149.718L192.529,149.717L192.693,149.203L192.62,149.467L192.645,149.5L192.643,149.508L192.691,149.574L192.692,149.564L192.645,149.5C192.659,149.407 192.678,149.311 192.701,149.215L192.693,149.203L192.697,149.191L192.697,149.191L192.699,149.183L192.7,149.181L192.774,148.94L192.721,149.133L192.7,149.181L192.697,149.191L192.705,149.202L192.721,149.133L192.738,149.108L192.753,149.095L192.783,148.952L192.774,148.94L192.782,148.916L192.781,148.916L192.783,148.912L192.784,148.908L192.857,148.667L192.805,148.861L192.784,148.908L192.782,148.916L192.789,148.927L192.805,148.861L192.821,148.836L192.835,148.824L192.865,148.679L192.857,148.668L192.863,148.647L192.863,148.646L192.863,148.644L192.865,148.641L192.939,148.39L192.884,148.595L192.865,148.641L192.863,148.647L192.87,148.656L192.884,148.595L192.901,148.569L192.915,148.557L192.947,148.4L192.939,148.39L193.089,147.868L193.04,148.065C193.031,148.079 193.024,148.096 193.019,148.116L193.017,148.124L193.025,148.135L193.025,148.136L193.051,148.171L193.051,148.169L193.025,148.135L193.04,148.065L193.056,148.04L193.072,148.026L193.099,147.88L193.09,147.868L193.096,147.846L193.096,147.846L193.097,147.84L193.099,147.836L193.165,147.597L193.119,147.788L193.099,147.836L193.096,147.846L193.104,147.857L193.119,147.788L193.134,147.764L193.149,147.75L193.175,147.609L193.166,147.597L193.173,147.57L193.173,147.569L193.174,147.566L193.175,147.562L193.241,147.319L193.194,147.515L193.175,147.562L193.173,147.57L193.181,147.58L193.194,147.515C193.212,147.482 193.236,147.462 193.265,147.454L193.275,147.363L193.241,147.319L193.246,147.3L193.246,147.3L193.247,147.297L193.383,146.782L193.324,147.049L193.35,147.083L193.349,147.092L193.402,147.16L193.402,147.15L193.35,147.083C193.36,146.989 193.374,146.892 193.392,146.794L193.383,146.782L193.387,146.768L193.387,146.768L193.389,146.76L193.39,146.757L193.451,146.515L193.409,146.708L193.39,146.757L193.387,146.768L193.395,146.779L193.409,146.708L193.423,146.684L193.44,146.668L193.461,146.528L193.452,146.515L193.459,146.487L193.459,146.486L193.46,146.481L193.461,146.477L193.521,146.237L193.479,146.43L193.461,146.477L193.459,146.487L193.467,146.497L193.479,146.43L193.494,146.406L193.509,146.391L193.53,146.249L193.521,146.238L193.528,146.209L193.528,146.209L193.528,146.207L193.529,146.203L193.589,145.954L193.547,146.156L193.529,146.203L193.528,146.209L193.536,146.219L193.547,146.156L193.561,146.131L193.575,146.118L193.598,145.965L193.59,145.955L193.592,145.942L193.592,145.942L193.593,145.94L193.715,145.421L193.676,145.619C193.668,145.634 193.661,145.651 193.657,145.671L193.655,145.678L193.664,145.69L193.663,145.692L193.692,145.728L193.692,145.725L193.664,145.69L193.676,145.619L193.689,145.596L193.706,145.579L193.725,145.433L193.715,145.421L193.721,145.396L193.721,145.396L193.722,145.389L193.723,145.386L193.777,145.145L193.741,145.337L193.723,145.386L193.721,145.396L193.729,145.407L193.741,145.337L193.754,145.313L193.77,145.297L193.788,145.158L193.778,145.146L193.785,145.113L193.784,145.113L193.785,145.109L193.787,145.105L193.839,144.862L193.803,145.057L193.787,145.105L193.785,145.113L193.793,145.123L193.803,145.057L193.816,145.033L193.831,145.019L193.849,144.874L193.84,144.862L193.845,144.836L193.845,144.836L193.845,144.835L193.847,144.831L193.901,144.575L193.862,144.784L193.847,144.831L193.845,144.836L193.853,144.846L193.862,144.784L193.876,144.759L193.89,144.744L193.91,144.586L193.901,144.575L193.956,144.312L193.919,144.523L193.913,144.533L193.901,144.575L193.91,144.586L193.919,144.523L193.931,144.5L193.948,144.482L193.966,144.324L193.956,144.313L193.959,144.298L193.959,144.297L193.96,144.289L193.961,144.286L194.01,144.042L193.978,144.236L193.961,144.286L193.959,144.298L193.968,144.309L193.978,144.236L193.99,144.213L194.007,144.195L194.021,144.055L194.011,144.042L194.017,144.01L194.017,144.01L194.018,144.005L194.019,144.001L194.066,143.76L194.035,143.952L194.019,144.001L194.017,144.01L194.026,144.021L194.035,143.952L194.047,143.929L194.063,143.912L194.077,143.772L194.067,143.76L194.073,143.727L194.073,143.726L194.073,143.724L194.074,143.719L194.121,143.472L194.09,143.672L194.074,143.719L194.073,143.727L194.081,143.737L194.09,143.672L194.102,143.648L194.115,143.633L194.13,143.483L194.121,143.472L194.125,143.451L194.125,143.451L194.126,143.448L194.22,142.926L194.191,143.128C194.184,143.143 194.179,143.16 194.175,143.181L194.174,143.185L194.183,143.196L194.183,143.203L194.213,143.239L194.213,143.232L194.183,143.196L194.191,143.128L194.202,143.106L194.22,143.087L194.231,142.94L194.221,142.927L194.226,142.901L194.225,142.9L194.226,142.893L194.227,142.89L194.269,142.647L194.243,142.84L194.227,142.89L194.226,142.901L194.235,142.912L194.243,142.84L194.253,142.818L194.27,142.799L194.28,142.661L194.27,142.648L194.276,142.612L194.275,142.611L194.276,142.607L194.277,142.603L194.317,142.36L194.292,142.554L194.277,142.603L194.276,142.612L194.284,142.622L194.292,142.554L194.302,142.532L194.318,142.514L194.328,142.372L194.318,142.36L194.323,142.328L194.323,142.328L194.323,142.326L194.324,142.322L194.365,142.068L194.338,142.274L194.324,142.322L194.323,142.328L194.331,142.338L194.338,142.274L194.349,142.251L194.363,142.234L194.374,142.079L194.365,142.068L194.367,142.057L194.366,142.057L194.367,142.056L194.407,141.796L194.381,142.005L194.376,142.015L194.367,142.056L194.367,142.057L194.375,142.067L194.381,142.005L194.392,141.983L194.409,141.963L194.418,141.808L194.408,141.796L194.409,141.784L194.409,141.783L194.411,141.774L194.411,141.772L194.448,141.524L194.426,141.721L194.411,141.772L194.409,141.784L194.419,141.795L194.426,141.721L194.436,141.699L194.453,141.679L194.46,141.537L194.449,141.525L194.454,141.491L194.453,141.49L194.454,141.484L194.455,141.48L194.49,141.238L194.469,141.431L194.455,141.48L194.454,141.491L194.463,141.502L194.469,141.431L194.478,141.409L194.495,141.39L194.501,141.251L194.49,141.238L194.496,141.201L194.495,141.201L194.495,141.197L194.497,141.193L194.53,140.946L194.51,141.144L194.497,141.193L194.496,141.201L194.504,141.211L194.51,141.144L194.519,141.123L194.534,141.105L194.541,140.957L194.531,140.946L194.535,140.918L194.534,140.918L194.535,140.915L194.603,140.388L194.584,140.602L194.578,140.616L194.57,140.651L194.58,140.661L194.579,140.668L194.612,140.705L194.612,140.698L194.58,140.661L194.584,140.602L194.592,140.583L194.611,140.56L194.615,140.401L194.604,140.389L194.607,140.363L194.607,140.363L194.607,140.355L194.608,140.352L194.638,140.106L194.621,140.301L194.608,140.352L194.607,140.363L194.617,140.374L194.621,140.301L194.63,140.28L194.647,140.259L194.65,140.12L194.639,140.107L194.643,140.069L194.642,140.068L194.643,140.063L194.644,140.059L194.672,139.814L194.656,140.009L194.644,140.059L194.643,140.069L194.652,140.079L194.656,140.009L194.665,139.989L194.681,139.968L194.683,139.827L194.672,139.815L194.676,139.779L194.676,139.778L194.676,139.776L194.677,139.772L194.705,139.518L194.689,139.723L194.677,139.772L194.676,139.779L194.685,139.789L194.689,139.723L194.697,139.702L194.712,139.683L194.715,139.529L194.705,139.519L194.707,139.5L194.707,139.5L194.707,139.496L194.734,139.237L194.719,139.447L194.714,139.458L194.707,139.496L194.707,139.5L194.716,139.509L194.719,139.447L194.727,139.426L194.744,139.404L194.745,139.249L194.734,139.237L194.735,139.228L194.735,139.228L194.736,139.218L194.736,139.217L194.761,138.964L194.749,139.164L194.736,139.217L194.735,139.228L194.745,139.24L194.749,139.164L194.756,139.144L194.774,139.121L194.774,138.977L194.762,138.964L194.765,138.931L194.765,138.93L194.765,138.924L194.766,138.92L194.788,138.674L194.777,138.869L194.766,138.92L194.765,138.931L194.775,138.941L194.777,138.869L194.785,138.849L194.802,138.827L194.801,138.688L194.789,138.675L194.793,138.635L194.792,138.635L194.792,138.631L194.793,138.627L194.814,138.378L194.804,138.577L194.793,138.627L194.793,138.635L194.802,138.646L194.804,138.577L194.812,138.557L194.827,138.537L194.826,138.39L194.815,138.379L194.818,138.345L194.817,138.345L194.818,138.341L194.839,138.078L194.828,138.293L194.818,138.341L194.818,138.345L194.827,138.356L194.828,138.293L194.836,138.271L194.851,138.25L194.849,138.09L194.839,138.078L194.86,137.808L194.851,138.02L194.846,138.034L194.84,138.074L194.85,138.085L194.851,138.02C194.857,138.002 194.865,137.988 194.876,137.977L194.872,137.821L194.86,137.809L194.862,137.786L194.862,137.786L194.862,137.777L194.863,137.774L194.88,137.524L194.873,137.722L194.863,137.774L194.862,137.786L194.872,137.797L194.873,137.722C194.879,137.704 194.887,137.69 194.897,137.679L194.893,137.538L194.881,137.525L194.883,137.487L194.883,137.486L194.883,137.481L194.884,137.477L194.899,137.229L194.894,137.426L194.884,137.477L194.883,137.487L194.893,137.497L194.894,137.426L194.9,137.407L194.917,137.384L194.912,137.243L194.9,137.23L194.902,137.191L194.902,137.19L194.902,137.188L194.903,137.184L194.917,136.929L194.912,137.134L194.903,137.184L194.902,137.191L194.912,137.201L194.912,137.134L194.919,137.115L194.933,137.094L194.928,136.941L194.918,136.93L194.919,136.905L194.919,136.904L194.919,136.9L194.933,136.636L194.928,136.852L194.924,136.864L194.919,136.9L194.919,136.905L194.928,136.914L194.928,136.852L194.935,136.831L194.951,136.808L194.944,136.648L194.933,136.636L194.933,136.635L194.933,136.635L194.934,136.624L194.934,136.623L194.946,136.364L194.944,136.569L194.934,136.623L194.933,136.635L194.944,136.646L194.944,136.569C194.949,136.551 194.957,136.537 194.967,136.526L194.96,136.378L194.947,136.364L194.948,136.332L194.948,136.332L194.948,136.325L194.949,136.321L194.959,136.072L194.958,136.269L194.949,136.321L194.948,136.332L194.959,136.343L194.958,136.269C194.963,136.251 194.971,136.238 194.98,136.227L194.972,136.086L194.959,136.073L194.961,136.032L194.96,136.031L194.96,136.027L194.961,136.023L194.97,135.772L194.97,135.972L194.961,136.023L194.961,136.032L194.971,136.042L194.97,135.972C194.975,135.954 194.983,135.939 194.993,135.929L194.982,135.785L194.97,135.773L194.971,135.737L194.971,135.736L194.971,135.735L194.972,135.731L194.979,135.469L194.979,135.682L194.972,135.731L194.971,135.737L194.981,135.747L194.979,135.682C194.985,135.663 194.992,135.648 195.003,135.637L194.99,135.48L194.979,135.469L194.98,135.457L194.98,135.456L194.98,135.455L194.986,135.19L194.988,135.402L194.984,135.417L194.98,135.455L194.98,135.457L194.99,135.467L194.988,135.402C194.993,135.383 195.002,135.368 195.013,135.358L194.999,135.203L194.987,135.19L194.987,135.171L194.987,135.171L194.987,135.162L194.987,135.16L194.992,134.905L194.995,135.106L194.987,135.16L194.987,135.171L194.998,135.183L194.995,135.106C195.001,135.087 195.009,135.073 195.021,135.062L195.007,134.92L194.993,134.906L194.993,134.868L194.993,134.867L194.993,134.861L194.993,134.858L194.996,134.607L194.998,134.609L195.002,134.8L194.993,134.858L194.993,134.868L195.004,134.879L195.002,134.8C195.008,134.784 195.015,134.771 195.025,134.762L195.011,134.622L194.998,134.609L194.998,134.568L194.997,134.567L194.997,134.564L194.998,134.555L194.999,134.304L195,134.305L195.006,134.503L194.998,134.555L194.998,134.568L195.008,134.578L195.006,134.503C195.025,134.441 195.078,134.43 195.156,134.461L195,134.305L195,134.275L194.999,134.274L195,134.263L195,133.997L195.185,134.182C195.577,134.36 196.517,135.381 197.366,136.365L198.865,137.865L198.845,138.137L198.83,138.122C198.557,137.784 197.986,137.084 197.366,136.365L195.185,134.182C195.071,134.129 195.004,134.149 195,134.263L195,134.275L195.211,134.486C195.593,134.685 196.423,135.582 197.209,136.494L198.83,138.122L198.844,138.14L198.842,138.172L197.427,136.747C197.916,137.321 198.369,137.876 198.66,138.239L198.835,138.267L198.822,138.43L198.78,138.388L198.66,138.239L198.627,138.233L198.78,138.388L198.821,138.439L198.819,138.476L198.565,138.219L198.345,138.169L198.369,138.199L198.652,138.552L198.811,138.578L198.8,138.72L198.799,138.733L198.789,138.723L198.652,138.552L198.613,138.544L198.789,138.723L198.798,138.735L198.795,138.776L198.554,138.531L198.346,138.484L198.364,138.505L198.66,138.876L198.783,138.897L198.772,139.016L198.66,138.876L198.603,138.865L198.77,139.036L198.768,139.061L198.569,138.858L198.36,138.81L198.676,139.206L198.753,139.219L198.746,139.294L198.676,139.206L198.619,139.196L198.743,139.323L198.742,139.342L198.594,139.191L198.357,139.136L198.652,139.511L198.725,139.523L198.718,139.595L198.652,139.511L198.618,139.504L198.717,139.607L198.713,139.648L198.562,139.492L198.336,139.44L198.624,139.809L198.694,139.821L198.686,139.889L198.624,139.809L198.59,139.803L198.685,139.901L198.68,139.947L198.527,139.788L198.312,139.737L198.324,139.752L198.614,140.126L198.659,140.133L198.654,140.177L198.614,140.126L198.57,140.117L198.652,140.202L198.647,140.239L198.519,140.105L198.318,140.057L198.624,140.451L198.624,140.452L198.552,140.438L198.618,140.507L198.617,140.515L198.54,140.435L198.312,140.38L198.589,140.741L198.585,140.772L198.577,140.77L198.584,140.779L198.58,140.809L198.536,140.762L198.3,140.705L198.551,141.035L198.548,141.06L198.541,141.059L198.548,141.065L198.542,141.109L198.481,141.045L198.26,140.991L198.514,141.326L198.504,141.406L198.45,141.349L198.24,141.297L198.476,141.609L198.464,141.691L198.444,141.669L198.239,141.618L198.437,141.879L198.421,141.99L198.219,141.939L198.394,142.173L198.376,142.295L198.189,142.248L198.351,142.466L198.332,142.583L198.146,142.535L198.304,142.751L198.282,142.887L198.13,142.847L198.26,143.025L198.232,143.198L198.112,143.166L198.214,143.306L198.211,143.323L198.178,143.511L198.084,143.486L198.163,143.595L198.126,143.799L198.033,143.774L198.111,143.883L198.073,144.093L197.994,144.071L198.06,144.165L198.052,144.214L198.015,144.397L197.978,144.387L198.009,144.431L197.955,144.706L197.942,144.703L197.952,144.717L197.873,145.12L197.681,146.018L197.478,146.893ZM190.252,157.084L191.419,158.952C191.216,158.765 191.025,158.56 190.857,158.338L190.49,157.747C190.386,157.539 190.306,157.318 190.252,157.084ZM190.178,156.493L190.366,156.793C190.398,156.939 190.441,157.079 190.492,157.215L190.193,156.736C190.185,156.656 190.18,156.575 190.178,156.493ZM190.192,156.103L190.181,156.249L190.313,156.457L190.298,156.215L190.198,156.057L190.192,156.103ZM190.517,155.114L190.559,154.95L190.66,155.106L190.651,155.407L190.655,155.513L190.865,155.84L190.87,155.86L190.656,155.527L190.655,155.513L190.49,155.256L190.517,155.114ZM190.701,154.788C190.682,154.892 190.669,154.995 190.661,155.096L190.562,154.942L190.602,154.805C190.63,154.785 190.663,154.78 190.701,154.788ZM190.814,154.538L190.779,154.815L190.774,154.813L190.748,154.802L190.709,154.742L190.754,154.537C190.773,154.533 190.793,154.533 190.814,154.538ZM190.645,154.64L190.675,154.589L190.651,154.653L190.709,154.742L190.708,154.748L190.741,154.799L190.729,154.794L190.701,154.788L190.708,154.748L190.649,154.658L190.651,154.653L190.644,154.642L190.645,154.64ZM190.87,154.153L190.89,154.185L190.822,154.491L190.862,154.552L190.84,154.543L190.814,154.538L190.822,154.491L190.782,154.43C190.807,154.339 190.836,154.247 190.87,154.153ZM191.187,153.371L191.188,153.37C191.204,153.332 191.224,153.304 191.249,153.287L191.267,153.22L191.296,153.132L191.318,153.164L191.295,153.265L191.265,153.275L191.249,153.287L191.214,153.412L191.187,153.371ZM191.327,153.04L191.393,152.864L191.4,152.875C191.369,152.97 191.342,153.064 191.32,153.156L191.361,153.218L191.36,153.226L191.318,153.164L191.32,153.156L191.299,153.125L191.327,153.04ZM191.6,152.337L191.601,152.333L191.625,152.287L191.695,152.087L191.724,152.129L191.704,152.228L191.675,152.239C191.665,152.246 191.656,152.253 191.646,152.26L191.625,152.287L191.606,152.347L191.6,152.337ZM191.776,151.921L191.8,151.841L191.823,151.874L191.802,151.978C191.785,151.983 191.77,151.99 191.756,152L191.725,152.125L191.768,152.188L191.768,152.192L191.724,152.129L191.725,152.125L191.697,152.084L191.716,152.044C191.724,152.033 191.732,152.022 191.74,152.012L191.756,152L191.776,151.921ZM192.082,151.035L192.083,151.032C192.097,150.993 192.115,150.965 192.138,150.948L192.155,150.875L192.177,150.795L192.201,150.828L192.184,150.925L192.153,150.936L192.138,150.948L192.11,151.075L192.082,151.035ZM192.205,150.696L192.261,150.52L192.269,150.531C192.242,150.629 192.22,150.725 192.202,150.82L192.248,150.884L192.247,150.893L192.201,150.828L192.202,150.82L192.179,150.788L192.205,150.696ZM192.529,149.718L192.529,149.717C192.542,149.676 192.56,149.647 192.584,149.63L192.601,149.546L192.619,149.474L192.643,149.508L192.628,149.607C192.612,149.612 192.597,149.619 192.584,149.63L192.559,149.76L192.529,149.718ZM192.97,148.299L192.961,148.339L192.955,148.347L192.939,148.389L192.947,148.399L192.961,148.339L192.976,148.314L192.993,148.299L193.025,148.136L193.016,148.125L192.97,148.299ZM193.246,147.3L193.247,147.297C193.258,147.257 193.274,147.228 193.296,147.21L193.31,147.12L193.323,147.057L193.349,147.092L193.339,147.187C193.323,147.191 193.309,147.199 193.296,147.21L193.278,147.342L193.246,147.3ZM193.592,145.942L193.6,145.952L193.611,145.892L193.625,145.867L193.641,145.851L193.663,145.692L193.655,145.681L193.617,145.853L193.611,145.892L193.606,145.9L193.593,145.94L193.592,145.942ZM194.125,143.451L194.133,143.461L194.14,143.401L194.153,143.376L194.168,143.358L194.183,143.203L194.173,143.192L194.145,143.361L194.14,143.401L194.136,143.409L194.126,143.448L194.125,143.451ZM194.535,140.918L194.535,140.915L194.547,140.867C194.552,140.799 194.56,140.729 194.569,140.658L194.569,140.657L194.579,140.668L194.573,140.824L194.557,140.843L194.547,140.867L194.543,140.928L194.535,140.918ZM198.883,137.592L198.871,137.799L198.866,137.857L194.999,133.728L198.883,137.592ZM198.885,137.557L198.883,137.591L194.999,133.69L198.885,137.557ZM198.9,137.298L198.885,137.55L194.997,133.435L198.9,137.298ZM198.903,137.252L198.9,137.297L194.996,133.39L198.903,137.252ZM198.918,136.998L198.904,137.247L194.993,133.134L198.918,136.998ZM198.921,136.955L198.918,136.997L194.992,133.095L198.921,136.955ZM198.934,136.693L198.928,136.843L198.921,136.95L194.987,132.83L198.934,136.693ZM198.935,136.668L198.934,136.692L194.986,132.812L198.935,136.668ZM198.946,136.405L198.935,136.664L194.98,132.545L198.946,136.405ZM198.947,136.385L198.946,136.404L194.979,132.523L198.947,136.385ZM198.958,136.123L198.947,136.384L194.971,132.265L198.958,136.123ZM198.96,136.082L198.958,136.123L194.97,132.223L198.96,136.082ZM194.998,117.381L193.104,116.013L192.844,115.903L192.688,115.823L194.998,117.381ZM194.888,117.11L193.408,116.115L193.401,116.113L194.888,117.11ZM194.884,117.101L193.567,116.157L193.418,116.118L194.884,117.101ZM194.775,116.837L193.847,116.216L193.841,116.215L194.775,116.837ZM194.767,116.82L193.947,116.235L193.867,116.22L194.767,116.82ZM194.657,116.557L194.216,116.265L194.657,116.557ZM194.652,116.546L194.26,116.269L194.229,116.267L194.652,116.546ZM186.306,102.869L184.841,102.148L184.67,102.102L186.306,102.869ZM186.201,102.743L185.09,102.201L185.01,102.186L186.201,102.743ZM186.103,102.626L185.297,102.232L185.24,102.225L186.103,102.626ZM186,102.504L185.503,102.253L185.45,102.249L186,102.504Z" style="fill:rgb(96,96,96);"/>
                </g>
                <g id="Flip-Icon" serif:id="Flip Icon" transform="matrix(1,0,0,1,0,-27)">
                    <circle cx="144" cy="161" r="55"/>
                    <path d="M144,100C110.333,100 83,127.333 83,161C83,194.667 110.333,222 144,222C177.667,222 205,194.667 205,161C205,127.333 177.667,100 144,100ZM144,106C174.355,106 199,130.645 199,161C199,191.355 174.355,216 144,216C113.645,216 89,191.355 89,161C89,130.645 113.645,106 144,106Z" style="fill:rgb(96,96,96);"/>
                </g>
                <g id="pw" transform="matrix(3.87401,0,0,3.11491,82.0236,91.3167)">
                    <path d="M15.996,0C16.037,0.076 16.043,0.163 16.059,0.246C16.125,0.687 16.15,1.132 16.184,1.576C16.26,2.759 16.321,3.943 16.395,5.126C16.52,7.06 16.663,8.996 16.943,10.916C17.08,11.822 17.243,12.728 17.52,13.602C17.887,13.629 18.254,13.656 18.62,13.696C18.801,13.161 18.89,12.601 18.983,12.045C19.066,11.526 19.136,11.004 19.2,10.482C19.449,8.443 19.623,6.396 19.811,4.351C19.854,3.93 19.882,3.506 19.951,3.088C19.986,3.178 19.994,3.276 20.009,3.371C20.05,3.657 20.08,3.945 20.111,4.232C20.308,6.144 20.481,8.059 20.727,9.966C20.84,10.841 20.965,11.715 21.132,12.582C21.244,13.148 21.364,13.716 21.566,14.259C21.906,14.363 22.244,14.477 22.571,14.617C22.674,14.382 22.751,14.137 22.823,13.891C23.006,13.253 23.133,12.6 23.243,11.947C23.482,10.537 23.622,9.113 23.809,7.695C23.858,7.372 23.891,7.043 23.993,6.731C24.043,6.865 24.058,7.008 24.081,7.148C24.171,7.788 24.233,8.432 24.297,9.075C24.362,9.774 24.432,10.472 24.484,11.171C24.486,11.163 24.49,11.147 24.492,11.139C24.491,11.237 24.501,11.335 24.511,11.433C24.654,13.118 24.917,16.491 24.917,16.491C21.012,18.93 18.024,22.377 15.983,26.865C13.647,22.067 10.634,18.705 7.079,16.491C7.079,16.491 7.445,11.796 7.664,9.451C7.738,8.689 7.809,7.927 7.913,7.169C7.935,7.031 7.952,6.891 7.993,6.757C7.998,6.758 8.009,6.76 8.015,6.761C8.1,7.035 8.133,7.322 8.176,7.605C8.325,8.701 8.437,9.802 8.593,10.898C8.718,11.776 8.858,12.653 9.073,13.514C9.169,13.888 9.274,14.263 9.427,14.619C9.754,14.478 10.093,14.366 10.433,14.26C10.56,13.922 10.651,13.572 10.733,13.221C10.857,12.676 10.955,12.126 11.043,11.574C11.399,9.297 11.607,7 11.839,4.707C11.881,4.295 11.922,3.882 11.976,3.471C11.996,3.341 12.007,3.208 12.049,3.082C12.095,3.369 12.12,3.659 12.149,3.948C12.332,5.895 12.494,7.844 12.716,9.787C12.823,10.71 12.937,11.634 13.101,12.549C13.175,12.935 13.248,13.324 13.38,13.696C13.746,13.663 14.112,13.63 14.479,13.605C14.753,12.743 14.914,11.85 15.051,10.957C15.2,9.957 15.307,8.952 15.396,7.945C15.548,6.228 15.644,4.508 15.742,2.788C15.79,2.026 15.826,1.263 15.907,0.504C15.928,0.335 15.946,0.164 15.996,0.001L15.996,0Z" style="fill:rgb(96,96,96);fill-rule:nonzero;"/>
                </g>
                <g id="twins">
                    <path d="M103,1294.41C94.852,1294.4 87.038,1286.4 87,1278.71L87,1236.98C86.731,1206.44 109.361,1179.74 132,1179.41L1368,1179.41C1390.64,1179.74 1413.27,1206.44 1413,1236.98L1413,1278.71C1412.96,1286.4 1405.15,1294.4 1397,1294.41L103,1294.41ZM194.248,77L1368,77C1390.64,77.337 1413.27,104.037 1413,134.571L1413,176.307C1412.96,183.999 1405.15,191.996 1397,192L193.092,192C209.548,178.054 220,157.238 220,134C220,111.312 210.037,90.932 194.248,77Z"/>
                    <path d="M102.998,1298.41L1397,1298.41C1402.1,1298.4 1407.14,1295.99 1410.86,1292.28C1414.61,1288.55 1416.98,1283.57 1417,1278.73C1417,1278.73 1417,1278.72 1417,1278.71L1417,1236.99C1417.17,1217.5 1408.55,1199.49 1396.44,1188.11C1388.07,1180.25 1378.04,1175.56 1368.06,1175.41C1368.04,1175.41 1368.02,1175.41 1368,1175.41L132,1175.41C131.98,1175.41 131.96,1175.41 131.94,1175.41C121.957,1175.56 111.929,1180.25 103.564,1188.11C91.454,1199.49 82.834,1217.5 83,1236.99C83,1236.99 83,1278.71 83,1278.71C83,1278.72 83,1278.73 83,1278.73C83.024,1283.57 85.392,1288.55 89.138,1292.28C92.864,1295.99 97.898,1298.4 102.998,1298.41ZM103,1294.41C94.852,1294.4 87.038,1286.4 87,1278.71L87,1236.98C86.731,1206.44 109.361,1179.74 132,1179.41L1368,1179.41C1390.64,1179.74 1413.27,1206.44 1413,1236.98L1413,1278.71C1412.96,1286.4 1405.15,1294.4 1397,1294.41L103,1294.41ZM194.248,73C192.585,73 191.095,74.029 190.506,75.585C189.918,77.141 190.354,78.899 191.601,79.999C206.559,93.198 216,112.505 216,134C216,156.015 206.096,175.736 190.506,188.948C189.226,190.033 188.759,191.802 189.336,193.377C189.914,194.953 191.414,196 193.092,196L1397,196C1402.1,195.998 1407.14,193.58 1410.86,189.873C1414.61,186.147 1416.98,181.166 1417,176.327C1417,176.32 1417,176.314 1417,176.307L1417,134.586C1417.17,115.095 1408.55,97.08 1396.44,85.702C1388.07,77.842 1378.04,73.149 1368.06,73C1368.04,73 1368.02,73 1368,73L194.248,73ZM194.248,77L1368,77C1390.64,77.337 1413.27,104.037 1413,134.571L1413,176.307C1412.96,183.999 1405.15,191.996 1397,192L193.092,192C209.548,178.054 220,157.238 220,134C220,111.312 210.037,90.932 194.248,77Z" style="fill:rgb(96,96,96);"/>
                </g>
            </g>
            <g id="loyalty">
                <g id="Loyalty">
                    <path d="M1428,1877C1410.06,1901.1 1402.45,1926.77 1409,1956L1314,1989L1219,1956C1225.55,1926.77 1217.94,1901.1 1200,1877L1282,1847L1282.16,1847.32C1288.79,1860.78 1300.21,1868.28 1314,1869L1314.33,1868.98C1328.08,1868.16 1339.44,1860.56 1346,1847L1428,1877Z"/>
                    <path d="M1282.62,1848.23C1283.27,1845.72 1284.39,1842.78 1285.6,1845.25L1285.75,1845.55C1291.65,1857.54 1301.76,1864.29 1314.01,1864.99L1314.09,1864.99C1326.4,1864.25 1336.53,1857.39 1342.4,1845.26C1343.29,1843.41 1345.44,1842.54 1347.37,1843.24L1429.37,1873.24C1430.56,1873.68 1431.47,1874.65 1431.83,1875.86C1432.19,1877.07 1431.96,1878.38 1431.21,1879.39C1414.01,1902.5 1406.63,1927.1 1412.9,1955.13C1413.35,1957.11 1412.23,1959.11 1410.31,1959.78L1315.31,1992.78C1314.46,1993.07 1313.54,1993.07 1312.69,1992.78L1217.69,1959.78C1215.77,1959.11 1214.65,1957.11 1215.1,1955.13C1221.38,1927.1 1213.99,1902.5 1196.79,1879.39C1196.04,1878.38 1195.81,1877.07 1196.17,1875.86C1196.53,1874.65 1197.44,1873.68 1198.63,1873.24L1280.63,1843.24C1278.8,1843.91 1277.72,1845.79 1278.06,1847.7C1278.1,1847.93 1278.16,1848.16 1278.25,1848.37L1200,1877C1217.94,1901.1 1225.55,1926.77 1219,1956L1314,1989L1409,1956C1402.45,1926.77 1410.06,1901.1 1428,1877L1346,1847C1339.44,1860.56 1328.08,1868.16 1314.33,1868.98L1314,1869C1301.46,1868.35 1290.88,1862.08 1284.07,1850.83C1284.67,1850.5 1285.18,1850.03 1285.55,1849.43C1285.97,1848.75 1286.18,1847.98 1286.15,1847.2C1286.14,1848.73 1284.95,1849.82 1283.87,1850.49C1283.44,1849.76 1283.02,1849 1282.62,1848.23Z" style="fill:rgb(96,96,96);"/>
                </g>
                <g id="Loyalty1" serif:id="Loyalty">
                    <path d="M1314.98,1880.96L1315.04,1880.96C1329.64,1880.09 1342.26,1873.52 1351.11,1861.65C1351.11,1861.65 1409.59,1883.04 1409.59,1883.04C1397.74,1903.27 1392.53,1924.65 1395.44,1948.01C1395.44,1948.01 1314,1976.3 1314,1976.3L1232.56,1948.01C1235.47,1924.65 1230.26,1903.27 1218.41,1883.04C1218.41,1883.04 1276.88,1861.65 1276.88,1861.65C1285.83,1873.63 1298.6,1880.21 1313.38,1880.98C1313.58,1881 1313.79,1881 1314,1881L1314.57,1880.98L1314.68,1880.98C1314.75,1880.97 1314.81,1880.97 1314.86,1880.97L1314.97,1880.96L1314.99,1880.96L1314.98,1880.96L1314.97,1880.96L1314.57,1880.98C1314.49,1880.98 1314.41,1880.98 1314.33,1880.98L1314.98,1880.96ZM1232.56,1948.01L1232.56,1948.01L1232.56,1948.01Z"/>
                    <path d="M1228.59,1947.52L1228.59,1947.51C1231.39,1925.06 1226.35,1904.51 1214.96,1885.07L1215.11,1885.3C1215.11,1885.3 1217.05,1879.28 1217.05,1879.28C1217.05,1879.28 1217.73,1879.03 1218.67,1878.69C1228.15,1875.22 1275.51,1857.89 1275.51,1857.89C1277.17,1857.29 1279.03,1857.84 1280.09,1859.26C1288.3,1870.26 1300.03,1876.28 1313.58,1876.99L1313.97,1877C1314.05,1876.99 1314.13,1876.99 1314.21,1876.98L1314.82,1876.97C1328.2,1876.16 1339.78,1870.14 1347.91,1859.26C1348.92,1857.9 1350.62,1857.37 1352.15,1857.79L1352.51,1857.9C1352.61,1857.94 1353.18,1858.14 1354.13,1858.49C1363.6,1861.96 1410.96,1879.29 1410.96,1879.29C1412.08,1879.69 1412.95,1880.57 1413.35,1881.69C1413.76,1882.81 1413.64,1884.04 1413.04,1885.07C1401.65,1904.51 1396.61,1925.06 1399.41,1947.51L1399.24,1947.52C1399.38,1947.91 1399.43,1948.17 1399.43,1948.17C1399.37,1949.87 1398.24,1951.29 1396.7,1951.8L1394.47,1952.58C1381.28,1957.16 1315.31,1980.08 1315.31,1980.08C1314.46,1980.37 1313.54,1980.37 1312.69,1980.08L1231.25,1951.79C1230.18,1951.42 1229.36,1950.63 1228.92,1949.65C1228.87,1949.56 1228.83,1949.46 1228.79,1949.36L1228.7,1949.1L1228.6,1948.67L1228.57,1948.36L1228.56,1948.04L1228.59,1947.53C1228.73,1946.58 1232.53,1951.97 1232.56,1952.01C1232.54,1951.97 1228.72,1946.55 1228.59,1947.52L1228.59,1947.53L1228.59,1947.53L1228.59,1947.52L1228.59,1947.52ZM1314.58,1880.98L1314,1881C1313.79,1881 1313.58,1881 1313.38,1880.98L1312.98,1880.96C1312.58,1879.8 1312.42,1878.65 1312.9,1877.88L1312.96,1877.79C1313.13,1877.54 1313.37,1877.34 1313.69,1877.19L1313.66,1877.21C1312.33,1877.8 1312.43,1879.38 1312.96,1880.96C1298.37,1880.09 1285.75,1873.52 1276.88,1861.65C1276.88,1861.65 1218.41,1883.04 1218.41,1883.04C1230.26,1903.27 1235.47,1924.65 1232.56,1948.01L1314,1976.3C1314,1976.3 1395.44,1948.01 1395.44,1948.01C1392.53,1924.65 1397.74,1903.27 1409.59,1883.04C1409.59,1883.04 1351.11,1861.65 1351.11,1861.65C1342.33,1873.41 1329.86,1879.97 1315.43,1880.93C1315.57,1878.94 1315.54,1876.95 1314.88,1876.97L1314.85,1876.97C1315.51,1876.95 1315.54,1878.94 1315.4,1880.94L1315.04,1880.96L1314.98,1880.96L1314.64,1880.97L1314.59,1876.99L1314.58,1880.98L1314.33,1880.98C1314.41,1880.98 1314.49,1880.98 1314.57,1880.98L1314.58,1880.98ZM1228.91,1949.64L1228.92,1949.65C1229.89,1951.6 1232.53,1952 1232.56,1952.01L1228.91,1949.64ZM1314.64,1880.98L1314.99,1880.96L1314.64,1880.98ZM1314.33,1877.02C1314.01,1877.06 1313.75,1877.15 1313.53,1877.26L1313.66,1877.21L1314.03,1877.08L1314.33,1877.02L1314.33,1877.02ZM1314.59,1876.98L1314.33,1877.02L1314.59,1876.98ZM1314.76,1876.97L1314.59,1876.98L1314.59,1876.99L1314.59,1876.98L1314.77,1876.97L1314.76,1876.97ZM1314.81,1876.97L1314.78,1876.97L1314.81,1876.97L1314.81,1876.97L1314.85,1876.97L1314.84,1876.97L1314.81,1876.97ZM1314.77,1876.97L1314.76,1876.97L1314.77,1876.97L1314.77,1876.97ZM1314.78,1876.97L1314.77,1876.97L1314.78,1876.97L1314.78,1876.97ZM1314.83,1876.97L1314.82,1876.97L1314.86,1876.97L1314.83,1876.97Z" style="fill:rgb(96,96,96);"/>
                </g>
            </g>
        </g>
        <g id="CI-Pip" serif:id="CI Pip" transform="matrix(1.04348,0,0,1.04348,-6.52174,-51.913)">
            <circle cx="150" cy="1240" r="23"/>
            <path d="M150,1213.17C135.19,1213.17 123.167,1225.19 123.167,1240C123.167,1254.81 135.19,1266.83 150,1266.83C164.81,1266.83 176.833,1254.81 176.833,1240C176.833,1225.19 164.81,1213.17 150,1213.17ZM150,1217C162.694,1217 173,1227.31 173,1240C173,1252.69 162.694,1263 150,1263C137.306,1263 127,1252.69 127,1240C127,1227.31 137.306,1217 150,1217Z" style="fill:rgb(96,96,96);"/>
        </g>
    </g>
</svg>
