<?xml version="1.0" encoding="UTF-8" standalone="no"?>
<!DOCTYPE svg PUBLIC "-//W3C//DTD SVG 1.1//EN" "http://www.w3.org/Graphics/SVG/1.1/DTD/svg11.dtd">
<svg width="1500" height="2100" viewBox="0 0 1500 2100" version="1.1" xmlns="http://www.w3.org/2000/svg" xmlns:xlink="http://www.w3.org/1999/xlink" xml:space="preserve" xmlns:serif="http://www.serif.com/" style="fill-rule:evenodd;clip-rule:evenodd;stroke-linejoin:round;stroke-miterlimit:2;">
    <path id="Cutout" d="M1317.14,245C1303.35,259.697 1294.82,275.721 1290,292L210,292C205.183,275.721 196.653,259.695 182.855,245L30,245L30,77L1470,77L1470,245L1317.14,245ZM54.101,160.835C56.185,157.467 91.329,103.433 139,100.008C139.332,99.984 139.666,100 140,100C173.667,100 201,127.333 201,161L200.999,161.394C200.787,194.88 173.536,222 140,222C139.666,222 139.332,222.016 139,221.992C89.794,218.457 54,161 54,161L54.101,160.835ZM178.43,100.117C198.599,112.885 212,135.395 212,161.017C212,161.017 211.999,161.429 211.999,161.464C211.837,186.961 198.394,209.332 178.244,222L1388,222C1389.29,222 1390.51,221.374 1391.26,220.32C1405.33,200.547 1410.29,180.773 1410.29,161C1410.29,141.227 1405.33,121.453 1391.26,101.68C1390.51,100.626 1389.29,100 1388,100L178.243,100L178.43,100.117Z"/>
</svg>
