<?xml version="1.0" encoding="UTF-8" standalone="no"?>
<!DOCTYPE svg PUBLIC "-//W3C//DTD SVG 1.1//EN" "http://www.w3.org/Graphics/SVG/1.1/DTD/svg11.dtd">
<svg width="100%" height="100%" viewBox="0 0 600 600" version="1.1" xmlns="http://www.w3.org/2000/svg" xmlns:xlink="http://www.w3.org/1999/xlink" xml:space="preserve" xmlns:serif="http://www.serif.com/" style="fill-rule:evenodd;clip-rule:evenodd;stroke-linejoin:round;stroke-miterlimit:2;">
    <path d="M241.128,507.832L241.126,507.83L241.128,507.832ZM312.498,426.94C314.396,428.03 316.159,429.38 317.731,430.97L453.256,567.35C530.576,507.99 561.047,417.6 572.187,300.86L458.182,337.9C450.571,340.37 442.236,339.05 435.762,334.35C429.288,329.65 425.456,322.13 425.456,314.12L425.456,64.272L317.435,169.328C315.915,170.807 314.255,172.054 312.498,173.069L312.498,209.576C356.505,215.72 390.537,253.83 390.537,300C390.537,346.17 356.505,384.28 312.498,390.42L312.498,426.94ZM287.498,173.069C285.743,172.055 284.085,170.81 282.568,169.334L174.54,64.272L174.54,314.12C174.54,322.13 170.708,329.65 164.234,334.35C157.76,339.05 149.425,340.37 141.814,337.9L27.813,300.86C38.953,417.61 69.425,508 146.74,567.35L282.265,430.97C283.837,429.38 285.599,428.03 287.498,426.94L287.498,390.42C243.491,384.28 209.459,346.17 209.459,300C209.459,253.83 243.491,215.72 287.498,209.576L287.498,173.069ZM241.128,507.832L299.998,448.59L358.87,507.83L299.998,565.12L241.128,507.832ZM450.456,314.12L539.759,285.11L539.759,140.073L450.456,118.754L450.456,314.12ZM149.54,118.754L60.237,140.073L60.237,285.11L149.54,314.12L149.54,118.754ZM240.104,93.163L299.998,151.412L359.892,93.163L299.998,34.882L240.104,93.163ZM240.104,93.163L240.104,93.163L240.104,93.163Z"/>
</svg>
