<?xml version="1.0" encoding="UTF-8" standalone="no"?>
<!DOCTYPE svg PUBLIC "-//W3C//DTD SVG 1.1//EN" "http://www.w3.org/Graphics/SVG/1.1/DTD/svg11.dtd">
<svg width="100%" height="100%" viewBox="0 0 600 600" version="1.1" xmlns="http://www.w3.org/2000/svg" xmlns:xlink="http://www.w3.org/1999/xlink" xml:space="preserve" xmlns:serif="http://www.serif.com/" style="fill-rule:evenodd;clip-rule:evenodd;stroke-linejoin:round;stroke-miterlimit:2;">
    <g transform="matrix(0.999997,0,0,1,-450,-750)">
        <path d="M672.165,825.714L672.197,825.706L750,750L827.803,825.706L827.835,825.714L900.458,755.085L900.458,843.051L1014.76,870.339L1014.76,1026.99L1050,1015.54C1040.7,1167.82 1005.02,1281.29 900.458,1350L826.494,1275.57L750,1350L673.506,1275.57L599.542,1350C494.979,1281.29 459.304,1167.82 450,1015.54L485.238,1026.99L485.238,870.339L599.542,843.051L599.542,755.085L672.165,825.714ZM750,983.71C713.828,983.71 684.461,1013.41 684.461,1050C684.461,1086.59 713.828,1116.29 750,1116.29L750.424,1116.29C786.4,1116.06 815.539,1086.44 815.539,1050C815.539,1013.56 786.4,983.942 750.424,983.711L750,983.71Z" style="fill:url(#_Linear1);"/>
    </g>
    <g transform="matrix(0.999997,0,0,1,-450,-750)">
        <path d="M900.458,843.051L1014.76,870.339L1014.76,1026.99L999.758,1031.86L1050,1015.54C1040.7,1167.82 1005.02,1281.29 900.458,1350L826.494,1275.57L750,1350L673.506,1275.57L691.128,1257.83L750,1315.12L808.872,1257.83L750,1198.59L599.542,1350C494.979,1281.29 459.304,1167.82 450,1015.54L485.238,1026.99L485.238,870.339L599.542,843.051L599.542,755.085L672.165,825.714L672.197,825.706L750,750L827.803,825.706L827.835,825.714L900.458,755.085L900.458,843.051ZM762.5,1176.94C764.398,1178.03 766.161,1179.38 767.733,1180.97L903.258,1317.35C980.579,1257.99 1011.05,1167.6 1022.19,1050.86L908.184,1087.9C900.573,1090.37 892.238,1089.05 885.764,1084.35C879.29,1079.65 875.458,1072.13 875.458,1064.12L875.458,814.272L767.437,919.328C765.917,920.807 764.257,922.054 762.5,923.069L762.5,959.576C806.507,965.72 840.539,1003.83 840.539,1050C840.539,1096.17 806.507,1134.28 762.5,1140.42L762.5,1176.94ZM737.5,923.069C735.745,922.055 734.087,920.81 732.57,919.334L624.542,814.272L624.542,1064.12C624.542,1072.13 620.71,1079.65 614.236,1084.35C607.762,1089.05 599.427,1090.37 591.816,1087.9L477.814,1050.86C488.954,1167.61 519.426,1258 596.742,1317.35L732.267,1180.97C733.839,1179.38 735.601,1178.03 737.5,1176.94L737.5,1140.42C693.493,1134.28 659.461,1096.17 659.461,1050C659.461,1003.83 693.493,965.72 737.5,959.576L737.5,923.069ZM750,983.71C786.172,983.71 815.539,1013.41 815.539,1050C815.539,1086.59 786.172,1116.29 750,1116.29C713.828,1116.29 684.461,1086.59 684.461,1050C684.461,1013.41 713.828,983.71 750,983.71ZM900.458,1064.12L989.762,1035.11L989.762,890.073L900.458,868.754L900.458,1064.12ZM599.542,868.754L510.238,890.073L510.238,1035.11L504.569,1033.27L599.542,1064.12L599.542,868.754ZM809.894,843.163L750,784.882L690.106,843.163L675.848,829.296L750,901.412L809.894,843.163Z"/>
    </g>
    <defs>
        <linearGradient id="_Linear1" x1="0" y1="0" x2="1" y2="0" gradientUnits="userSpaceOnUse" gradientTransform="matrix(600,0,0,600,450,1050)"><stop offset="0" style="stop-color:rgb(134,113,63);stop-opacity:1"/><stop offset="0.5" style="stop-color:rgb(223,194,128);stop-opacity:1"/><stop offset="1" style="stop-color:rgb(134,113,63);stop-opacity:1"/></linearGradient>
    </defs>
</svg>
