<?xml version="1.0" encoding="UTF-8" standalone="no"?>
<!DOCTYPE svg PUBLIC "-//W3C//DTD SVG 1.1//EN" "http://www.w3.org/Graphics/SVG/1.1/DTD/svg11.dtd">
<svg width="100%" height="100%" viewBox="0 0 889 1200" version="1.1" xmlns="http://www.w3.org/2000/svg" xmlns:xlink="http://www.w3.org/1999/xlink" xml:space="preserve" xmlns:serif="http://www.serif.com/" style="fill-rule:evenodd;clip-rule:evenodd;stroke-linejoin:round;stroke-miterlimit:2;">
    <g transform="matrix(1,0,0,1,-155.573,0)">
        <g transform="matrix(1.10497,0,0,1.10497,-62.9834,-2.35539e-13)">
            <path d="M557.615,648.09C527.006,663.592 506,695.362 506,732C506,783.88 548.12,826 600,826C651.88,826 694,783.88 694,732C694,695.362 672.994,663.592 642.385,648.09L642.385,0L724.45,0C763.95,388.889 855.343,678.838 1002.21,850.973C899.614,932.914 839.141,933.121 814.63,1086L385.37,1086C360.859,933.121 300.386,932.914 197.793,850.973C344.657,678.838 436.05,388.889 475.55,0L557.615,0L557.615,648.09Z"/>
        </g>
        <g transform="matrix(1.10497,0,0,1.10497,-62.9834,-2.35539e-13)">
            <path d="M557.615,648.09C527.006,663.592 506,695.362 506,732C506,783.88 548.12,826 600,826C651.88,826 694,783.88 694,732C694,695.362 672.994,663.592 642.385,648.09L642.385,0L724.45,0C763.95,388.889 855.343,678.838 1002.21,850.973C899.614,932.914 839.141,933.121 814.63,1086L385.37,1086C360.859,933.121 300.386,932.914 197.793,850.973C344.657,678.838 436.05,388.889 475.55,0L557.615,0L557.615,648.09ZM534.99,635.183C503.865,656.127 483.375,691.691 483.375,732C483.375,796.367 535.633,848.625 600,848.625C664.367,848.625 716.625,796.367 716.625,732C716.625,691.691 696.135,656.127 665.01,635.183L665.01,22.625L704.063,22.625C743.856,393.745 832.079,673.886 969.904,847.327C947.023,864.407 926.472,877.709 908.187,890.388C852.36,929.098 815.318,962.241 795.657,1063.38L404.343,1063.38C384.682,962.241 347.64,929.098 291.813,890.388C273.528,877.709 252.977,864.407 230.096,847.327C367.921,673.886 456.144,393.745 495.937,22.625L534.99,22.625L534.99,635.183Z" style="fill:white;"/>
        </g>
    </g>
</svg>
