<?xml version="1.0" encoding="UTF-8" standalone="no"?>
<!DOCTYPE svg PUBLIC "-//W3C//DTD SVG 1.1//EN" "http://www.w3.org/Graphics/SVG/1.1/DTD/svg11.dtd">
<svg width="100%" height="100%" viewBox="0 0 1190 1172" version="1.1" xmlns="http://www.w3.org/2000/svg" xmlns:xlink="http://www.w3.org/1999/xlink" xml:space="preserve" xmlns:serif="http://www.serif.com/" style="fill-rule:evenodd;clip-rule:evenodd;stroke-linejoin:round;stroke-miterlimit:2;">
    <g transform="matrix(1,0,0,1,-5.09399,-14)">
        <path d="M309.588,752.507C364.538,856.825 474.023,928 600,928C725.977,928 835.462,856.825 890.412,752.507L995.747,825.284L1062.92,933.472L938.472,1057.92L830.284,990.747L717,1038L688,1162L512,1162L483,1038L369.716,990.747L261.528,1057.92L137.078,933.472L204.253,825.284L309.588,752.507ZM513.179,750.378L426.359,600L513.179,449.622L686.821,449.622L773.641,600L686.821,750.378L513.179,750.378ZM1118.13,508.582L1170.91,600L1118.13,691.418L1012.57,691.418L959.785,600L1012.57,508.582L1118.13,508.582ZM81.874,508.582L29.094,600L81.874,691.418L187.434,691.418L240.215,600L187.434,508.582L81.874,508.582ZM309.588,447.493L204.253,374.716L137.078,266.528L261.528,142.078L369.716,209.253L483,162L512,38L688,38L717,162L830.284,209.253L938.472,142.078L1062.92,266.528L995.747,374.716L890.412,447.493C835.462,343.175 725.977,272 600,272C474.023,272 364.538,343.175 309.588,447.493Z" style="fill:url(#_Radial1);"/>
        <path d="M330.822,741.322C327.623,735.248 321.976,730.835 315.309,729.199C308.642,727.562 301.594,728.859 295.946,732.762L190.61,805.539C187.899,807.412 185.602,809.824 183.863,812.624L116.688,920.812C110.807,930.284 112.223,942.558 120.107,950.442L244.558,1074.89C252.442,1082.78 264.716,1084.19 274.188,1078.31L371.879,1017.65L462.427,1055.42L488.631,1167.46C491.17,1178.32 500.851,1186 512,1186L688,1186C699.149,1186 708.83,1178.32 711.369,1167.46L737.573,1055.42L828.121,1017.65L925.812,1078.31C935.284,1084.19 947.558,1082.78 955.442,1074.89L1079.89,950.442C1087.78,942.558 1089.19,930.284 1083.31,920.812L1016.14,812.624C1014.4,809.824 1012.1,807.412 1009.39,805.539L904.054,732.762C898.406,728.859 891.358,727.562 884.691,729.199C878.024,730.835 872.377,735.248 869.178,741.322C818.244,838.015 716.77,904 600,904C483.23,904 381.756,838.015 330.822,741.322ZM309.588,752.507C364.538,856.825 474.023,928 600,928C725.977,928 835.462,856.825 890.412,752.507L995.747,825.284L1062.92,933.472L938.472,1057.92L830.284,990.747L717,1038L688,1162L512,1162L483,1038L369.716,990.747L261.528,1057.92L137.078,933.472L204.253,825.284L309.588,752.507ZM492.395,762.378C496.682,769.803 504.605,774.378 513.179,774.378L686.821,774.378C695.395,774.378 703.318,769.803 707.605,762.378L794.426,612C798.713,604.574 798.713,595.426 794.426,588L707.605,437.622C703.318,430.197 695.395,425.622 686.821,425.622L513.179,425.622C504.605,425.622 496.682,430.197 492.395,437.622L405.574,588C401.287,595.426 401.287,604.574 405.574,612L492.395,762.378ZM513.179,750.378L426.359,600L513.179,449.622L686.821,449.622L773.641,600L686.821,750.378L513.179,750.378ZM1138.91,496.582C1134.62,489.156 1126.7,484.582 1118.13,484.582L1012.57,484.582C1003.99,484.582 996.068,489.156 991.781,496.582L939.001,588C934.714,595.426 934.714,604.574 939.001,612L991.781,703.418C996.068,710.844 1003.99,715.418 1012.57,715.418L1118.13,715.418C1126.7,715.418 1134.62,710.844 1138.91,703.418L1191.69,612C1195.98,604.574 1195.98,595.426 1191.69,588L1138.91,496.582ZM81.874,484.582C73.3,484.582 65.377,489.156 61.09,496.582L8.309,588C4.022,595.426 4.022,604.574 8.309,612L61.09,703.418C65.377,710.844 73.3,715.418 81.874,715.418L187.434,715.418C196.009,715.418 203.932,710.844 208.219,703.418L260.999,612C265.286,604.574 265.286,595.426 260.999,588L208.219,496.582C203.932,489.156 196.009,484.582 187.434,484.582L81.874,484.582ZM1118.13,508.582L1170.91,600L1118.13,691.418L1012.57,691.418L959.785,600L1012.57,508.582L1118.13,508.582ZM81.874,508.582L29.094,600L81.874,691.418L187.434,691.418L240.215,600L187.434,508.582L81.874,508.582ZM295.946,467.238C301.594,471.141 308.642,472.438 315.309,470.801C321.976,469.165 327.623,464.752 330.822,458.678C381.756,361.985 483.23,296 600,296C716.77,296 818.244,361.985 869.178,458.678C872.377,464.752 878.024,469.165 884.691,470.801C891.358,472.438 898.406,471.141 904.054,467.238L1009.39,394.461C1012.1,392.588 1014.4,390.176 1016.14,387.376L1083.31,279.188C1089.19,269.716 1087.78,257.442 1079.89,249.558L955.442,125.107C947.558,117.223 935.284,115.807 925.812,121.688L828.121,182.346L737.573,144.577L711.369,32.535C708.83,21.678 699.149,14 688,14L512,14C500.851,14 491.17,21.678 488.631,32.535L462.427,144.577L371.879,182.346L274.188,121.688C264.716,115.807 252.442,117.223 244.558,125.107L120.107,249.558C112.223,257.442 110.807,269.716 116.688,279.188L183.863,387.376C185.602,390.176 187.899,392.588 190.61,394.461L295.946,467.238ZM309.588,447.493L204.253,374.716L137.078,266.528L261.528,142.078L369.716,209.253L483,162L512,38L688,38L717,162L830.284,209.253L938.472,142.078L1062.92,266.528L995.747,374.716L890.412,447.493C835.462,343.175 725.977,272 600,272C474.023,272 364.538,343.175 309.588,447.493Z"/>
    </g>
    <defs>
        <radialGradient id="_Radial1" cx="0" cy="0" r="1" gradientUnits="userSpaceOnUse" gradientTransform="matrix(0,-600,600,0,600,600)"><stop offset="0" style="stop-color:rgb(246,150,29);stop-opacity:1"/><stop offset="0.54" style="stop-color:rgb(235,133,31);stop-opacity:1"/><stop offset="1" style="stop-color:rgb(197,70,38);stop-opacity:1"/></radialGradient>
    </defs>
</svg>
