<?xml version="1.0" encoding="UTF-8" standalone="no"?><!DOCTYPE svg PUBLIC "-//W3C//DTD SVG 1.1//EN" "http://www.w3.org/Graphics/SVG/1.1/DTD/svg11.dtd"><svg width="1500" height="2100" viewBox="0 0 1500 2100" version="1.1" xmlns="http://www.w3.org/2000/svg" xmlns:xlink="http://www.w3.org/1999/xlink" xml:space="preserve" xmlns:serif="http://www.serif.com/" style="fill-rule:evenodd;clip-rule:evenodd;stroke-linejoin:round;stroke-miterlimit:2;"><path id="Border" d="M0,0l1500,0l0,2100l-1500,0l0,-2100Zm1440,212.301l0,1552.7c-0.611,24.613 -13.299,64.609 -40,88l0,95l-396,0c-12.219,3.55 -17.235,12.938 -18,21l-472,0c-0.765,-8.062 -5.781,-17.45 -18,-21l-396,0l0,-95c-26.701,-23.391 -39.389,-63.387 -40,-88l0,-1552.7c-17.564,-35.448 -30.328,-107.284 49,-158.301c30.651,23.473 47.964,35.965 122,37c6.426,-15.987 26.338,-27.758 47,-39c51.166,60.091 203.254,42.782 289.205,10c18.638,-7.109 33.961,-10.479 34.795,-9c1.682,2.985 -47.233,30.558 -16,18c47.168,-18.965 127.759,-30.732 164,-31c36.241,0.268 116.832,12.035 164,31c31.233,12.558 -17.682,-15.015 -16,-18c0.834,-1.479 16.157,1.891 34.795,9c85.951,32.782 238.039,50.091 289.205,-10c20.662,11.242 40.574,23.013 47,39c74.036,-1.035 91.349,-13.527 122,-37c79.327,51.016 66.564,122.852 49,158.301Z"/></svg>