<?xml version="1.0" encoding="UTF-8" standalone="no"?><!DOCTYPE svg PUBLIC "-//W3C//DTD SVG 1.1//EN" "http://www.w3.org/Graphics/SVG/1.1/DTD/svg11.dtd"><svg width="180" height="252" viewBox="0 0 180 252" version="1.1" xmlns="http://www.w3.org/2000/svg" xmlns:xlink="http://www.w3.org/1999/xlink" xml:space="preserve" xmlns:serif="http://www.serif.com/" style="fill-rule:evenodd;clip-rule:evenodd;stroke-linejoin:round;stroke-miterlimit:2;"><path d="M172.8,25.476l-0,186.324c-0.073,2.954 -1.596,7.753 -4.8,10.56l0,11.4l-47.52,-0c-1.466,0.426 -2.068,1.553 -2.16,2.52l-56.64,-0c-0.092,-0.967 -0.694,-2.094 -2.16,-2.52l-47.52,-0l0,-11.4c-3.204,-2.807 -4.727,-7.606 -4.8,-10.56l0,-186.324c-2.108,-4.254 -3.639,-12.874 5.88,-18.996c3.678,2.817 5.756,4.316 14.64,4.44c0.771,-1.918 3.161,-3.331 5.64,-4.68c6.14,7.211 24.391,5.134 34.705,1.2c2.236,-0.853 4.075,-1.258 4.175,-1.08c0.202,0.358 -5.668,3.667 -1.92,2.16c5.66,-2.276 15.331,-3.688 19.68,-3.72c4.349,0.032 14.02,1.444 19.68,3.72c3.748,1.507 -2.122,-1.802 -1.92,-2.16c0.1,-0.178 1.939,0.227 4.175,1.08c10.314,3.934 28.565,6.011 34.705,-1.2c2.479,1.349 4.869,2.762 5.64,4.68c8.884,-0.124 10.962,-1.623 14.64,-4.44c9.519,6.122 7.988,14.742 5.88,18.996Zm-7.08,133.164l-151.44,-0l0,72.84l151.44,-0l0,-72.84Zm-154.215,-12.135c0.308,-1.434 0.913,-2.87 1.935,-4.305l73.44,-0c1.208,0.028 2.266,0.275 3.11,0.833l0.01,0.007c0.846,-0.563 1.908,-0.811 3.12,-0.84l73.44,-0l0.038,0.053c0.994,1.411 1.586,2.821 1.892,4.231l0.084,-0.084l2.64,2.64l-2.64,2.64l-0.084,-0.084c-0.309,1.428 -0.913,2.856 -1.93,4.284l-153.12,0c-1.022,-1.435 -1.627,-2.871 -1.935,-4.305l-0.105,0.105l-2.64,-2.64l2.64,-2.64l0.105,0.105Zm1.815,-6.105l0,-112.44l153.36,0l0,112.44l-153.36,0Zm0.12,-114.24c-1.623,-2.28 -2.194,-4.56 -2.194,-6.84c-0,-2.28 0.571,-4.56 2.194,-6.84l71.64,0c2.318,0.045 4.84,1.8 4.92,1.8c0.08,0 2.602,-1.755 4.92,-1.8l71.64,0c1.623,2.28 2.194,4.56 2.194,6.84c0,2.28 -0.571,4.56 -2.194,6.84l-153.12,0Z" style="fill:#007b43;"/></svg>