<?xml version="1.0" encoding="UTF-8" standalone="no"?>
<!DOCTYPE svg PUBLIC "-//W3C//DTD SVG 1.1//EN" "http://www.w3.org/Graphics/SVG/1.1/DTD/svg11.dtd">
<svg width="1500" height="2100" viewBox="0 0 1500 2100" version="1.1" xmlns="http://www.w3.org/2000/svg" xmlns:xlink="http://www.w3.org/1999/xlink" xml:space="preserve" xmlns:serif="http://www.serif.com/" style="fill-rule:evenodd;clip-rule:evenodd;stroke-linejoin:round;stroke-miterlimit:2;">
    <path id="Dual-Land-Mask" serif:id="Dual Land Mask" d="M1293,1305L207,1305L207,1810L1293,1810L1293,1305ZM1256,1340L244,1340L244,1776L1256,1776L1256,1340ZM1219,1375L281,1375L281,1741L1219,1741L1219,1375ZM1181,1410L319,1410L319,1706L1181,1706L1181,1410ZM1144,1444L356,1444L356,1672L1144,1672L1144,1444ZM1107,1478L393,1478L393,1638L1107,1638L1107,1478ZM1070,1512L430,1512L430,1604L1070,1604L1070,1512ZM1355,184L155,184L155,1162L1355,1162L1355,184ZM1351,188L159,188L159,1158L1351,1158L1351,188Z" style="fill:rgb(255,15,0);"/>
</svg>
