<?xml version="1.0" encoding="UTF-8" standalone="no"?>
<!DOCTYPE svg PUBLIC "-//W3C//DTD SVG 1.1//EN" "http://www.w3.org/Graphics/SVG/1.1/DTD/svg11.dtd">
<svg width="1500" height="2100" viewBox="0 0 1500 2100" version="1.1" xmlns="http://www.w3.org/2000/svg" xmlns:xlink="http://www.w3.org/1999/xlink" xml:space="preserve" xmlns:serif="http://www.serif.com/" style="fill-rule:evenodd;clip-rule:evenodd;stroke-linejoin:round;stroke-miterlimit:2;">
    <path id="Pinlines" d="M1421,94C1421,92.895 1420.11,92 1419,92L91,92C89.895,92 89,92.895 89,94L89,2006C89,2007.11 89.895,2008 91,2008L1419,2008C1420.11,2008 1421,2007.11 1421,2006L1421,94ZM1413,100L1413,2000C1413,2000 97,2000 97,2000C97,1932.29 97,167.707 97,100C97,100 1413,100 1413,100L1413,100ZM1357,184C1357,182.895 1356.11,182 1355,182L155,182C153.895,182 153,182.895 153,184L153,1162C153,1163.11 153.895,1164 155,1164L1355,1164C1356.11,1164 1357,1163.11 1357,1162L1357,184ZM1349,190L1349,1156C1296.17,1156 213.833,1156 161,1156C161,1156 161,190 161,190L1349,190Z" style="fill:rgb(239,56,39);"/>
</svg>
