<?xml version="1.0" encoding="UTF-8" standalone="no"?>
<!DOCTYPE svg PUBLIC "-//W3C//DTD SVG 1.1//EN" "http://www.w3.org/Graphics/SVG/1.1/DTD/svg11.dtd">
<svg width="660" height="660" viewBox="0 0 660 660" version="1.1" xmlns="http://www.w3.org/2000/svg" xmlns:xlink="http://www.w3.org/1999/xlink" xml:space="preserve" xmlns:serif="http://www.serif.com/" style="fill-rule:evenodd;clip-rule:evenodd;stroke-linejoin:round;stroke-miterlimit:2;">
    <g transform="matrix(1,0,0,1,30,30)">
        <path d="M300,-30C117.868,-30 -30,117.868 -30,300C-30,482.132 117.868,630 300,630C482.132,630 630,482.132 630,300C630,117.868 482.132,-30 300,-30ZM300,0C465.575,0 600,134.425 600,300C600,465.575 465.575,600 300,600C134.425,600 0,465.575 0,300C0,134.425 134.425,0 300,0Z" style="fill:rgb(92,75,47);"/>
    </g>
    <g transform="matrix(1,0,0,1,30,30)">
        <path d="M586.2,342.4C546.8,320.2 521.6,309.1 510.5,309.1C502.4,309.1 496.1,315.3 491.6,327.7C487.1,340.1 478,346.2 464.4,346.2C458.8,346.2 447.5,344.2 430.3,340.2C420.7,354.8 415.9,364.2 415.9,368.2C415.9,373.8 420,380.3 428.3,387.9C436.6,395.5 443.5,399.2 449.2,399.2C452.8,399.2 457.7,398.5 463.9,396.9C470.1,395.4 474.2,394.6 476.3,394.6C482.5,394.6 485.6,406 485.6,428.7C485.6,450.4 480.6,483.7 470.5,528.6C457.4,477.1 443.5,451.4 428.9,451.4C426.9,451.4 422.7,452.9 416.4,456C410.1,459 405.4,460.5 402.4,460.5C387.8,460.5 374.7,447.1 363,420.4C339.8,423.9 328.2,435.8 328.2,456C328.2,466.1 332.9,474.2 342.2,480.2C351.5,486.3 356.2,490.6 356.2,493.1C356.2,506.7 336.3,527.7 296.4,555.9C275.2,571 260.6,581.6 252.5,587.7C259.5,578.6 266.6,566.8 273.7,552.1C281.8,535.5 285.8,522.6 285.8,513.5C285.8,508.5 280,501.4 268.4,492.3C256.8,483.2 251,473.6 251,463.5C251,454.9 254,444.3 260.1,431.7C253.5,424.1 245.7,420.3 236.6,420.3C216.4,420.3 206.3,426.9 206.3,440C206.3,430.9 206.3,437.7 206.3,460.4C206.8,477.1 194.2,485.4 168.4,485.4C148.7,485.4 115.7,480.8 69.2,471.8C121.7,458.7 147.9,443.5 147.9,426.4C147.9,428.4 146.9,422.4 144.9,408.2C142.9,392.6 154,378.4 178.2,365.8C173.7,342.6 161.6,331 141.9,331C138.9,331 133.3,336.3 125.3,346.9C117.2,357.5 109.7,362.8 102.6,362.8C90.5,362.8 74.8,349.7 55.7,323.4C46.6,310.3 32.7,290.9 14.1,265.1C25.7,271.2 37.3,277.2 48.9,283.3C64,290.4 76.2,293.9 85.2,293.9C92.3,293.9 99.2,287.7 106,275.3C112.8,262.9 121.8,256.7 132.9,256.7C134.4,256.7 144.5,259.7 163.2,265.8C172.8,251.2 177.6,240.3 177.6,233.2C177.6,227.1 173.9,220.2 166.6,212.4C159.3,204.6 152.6,200.7 146.5,200.7C144,200.7 140.1,201.5 134.8,203C129.5,204.5 125.6,205.3 123.1,205.3C114,205.3 109.5,193.9 109.5,171.2C109.5,165.1 115.3,130.6 126.9,67.5C126.4,75.1 129.7,89.2 136.7,109.9C145.3,135.1 155.4,147.8 167,147.8C169,147.8 173.1,146.3 179.1,143.3C185.2,140.3 189.9,138.8 193.5,138.8C205.1,138.8 214.7,145.4 222.3,158.5L233.7,178.9C244.3,178.9 253.1,175.1 260.2,167.6C267.3,160 270.8,150.9 270.8,140.3C270.8,129.2 266.1,120.7 256.8,114.9C247.4,109.1 242.8,104.7 242.8,101.7C242.8,91.1 259.5,73.2 292.8,48C319.5,27.8 337,16 345,12.4C323.3,41.7 312.4,63.1 312.4,76.7C312.4,83.8 316.7,91.3 325.3,99.4C335.9,109 342,115.8 343.5,119.8C348.5,131.4 348,147.3 342,167.5C355.6,177.1 366,181.9 373,181.9C387.6,181.9 394.9,174.3 394.9,159.2C394.9,157.7 394.3,152.9 393,144.8C391.7,136.7 391.4,132.2 391.9,131.2C393.9,124.1 407.8,120.6 433.5,120.6C449.7,120.6 483.2,125.1 534.2,134.2C523.1,137.2 506.4,141.8 484.2,147.8C464,153.9 453.9,160.7 453.9,168.2C453.9,171.7 455.2,177.8 457.7,186.4C460.2,195 461.5,201.3 461.5,205.3C461.5,212.4 457,218.9 447.9,225L422.2,243.2C428.3,254.3 432.3,260.9 434.3,262.9C439.3,269 446.2,272 454.7,272C460.8,272 466.3,266.7 471.4,256.1C476.4,245.5 484.5,240.2 495.6,240.2C509.2,240.2 524.6,252.8 541.8,278.1C551.4,292.3 566.3,313.7 586.4,342.5M418.4,298.6C418.4,266.3 406.5,238.3 382.8,214.6C359.1,190.9 331.1,179 298.8,179C266,179 237.7,190.7 214,214.2C190.3,237.7 178.2,265.8 177.7,298.6C177.2,330.9 189.2,358.8 213.7,382.2C238.2,405.7 266.6,417.4 298.9,417.4C333.2,417.4 361.9,406.2 384.8,383.7C407.8,361.3 419,332.9 418.5,298.6M407.1,298.6C407.1,329.4 396.8,354.9 376.1,375C355.4,395.2 329.7,405.3 298.9,405.3C269.1,405.3 243.6,395 222.5,374.3C201.3,353.6 190.7,328.4 190.7,298.6C190.7,269.3 201.4,244.2 222.9,223.3C244.4,202.4 269.7,191.9 299,191.9C328.3,191.9 353.6,202.5 375.1,223.7C396.5,244.9 407.3,269.9 407.3,298.6" style="fill:rgb(92,75,47);fill-rule:nonzero;"/>
    </g>
</svg>
