<?xml version="1.0" encoding="UTF-8" standalone="no"?>
<!DOCTYPE svg PUBLIC "-//W3C//DTD SVG 1.1//EN" "http://www.w3.org/Graphics/SVG/1.1/DTD/svg11.dtd">
<svg width="660" height="660" viewBox="0 0 660 660" version="1.1" xmlns="http://www.w3.org/2000/svg" xmlns:xlink="http://www.w3.org/1999/xlink" xml:space="preserve" xmlns:serif="http://www.serif.com/" style="fill-rule:evenodd;clip-rule:evenodd;stroke-linejoin:round;stroke-miterlimit:2;">
    <g transform="matrix(1,0,0,1,30,30)">
        <path d="M300,-30C117.868,-30 -30,117.868 -30,300C-30,482.132 117.868,630 300,630C482.132,630 630,482.132 630,300C630,117.868 482.132,-30 300,-30ZM300,0C465.575,0 600,134.425 600,300C600,465.575 465.575,600 300,600C134.425,600 0,465.575 0,300C0,134.425 134.425,0 300,0Z" style="fill:rgb(0,110,175);"/>
    </g>
    <g transform="matrix(1,0,0,1,-112.01,156.79)">
        <path d="M546.93,375.53C518.208,404.76 482.83,419.372 440.8,419.372C393.63,419.372 356.21,403.232 328.53,370.932C302.38,340.17 289.31,300.96 289.31,253.292C289.31,202.032 311.612,143.572 356.21,77.952C392.59,24.138 435.4,-23.028 484.62,-63.528C477.438,-30.714 473.862,-7.398 473.862,6.444C473.862,38.238 483.846,69.246 503.838,99.494C528.45,135.374 547.148,162.054 559.978,179.462C579.97,209.722 589.966,239.192 589.966,267.882C589.967,310.44 575.62,346.322 546.926,375.532M546.152,211.362C538.466,194.192 529.49,182.79 519.236,177.142C520.772,180.226 521.546,184.582 521.546,190.222C521.546,200.992 518.474,216.362 512.312,236.352L502.328,267.114C502.328,285.054 511.28,294.03 529.232,294.03C548.192,294.03 557.684,281.46 557.684,256.344C557.684,243.54 553.844,228.552 546.152,211.356" style="fill:rgb(0,110,175);fill-rule:nonzero;"/>
    </g>
</svg>
