<?xml version="1.0" encoding="UTF-8" standalone="no"?>
<!DOCTYPE svg PUBLIC "-//W3C//DTD SVG 1.1//EN" "http://www.w3.org/Graphics/SVG/1.1/DTD/svg11.dtd">
<svg width="660" height="660" version="1.1" xmlns="http://www.w3.org/2000/svg" xmlns:xlink="http://www.w3.org/1999/xlink" xml:space="preserve" xmlns:serif="http://www.serif.com/" style="fill-rule:evenodd;clip-rule:evenodd;stroke-linejoin:round;stroke-miterlimit:2;">
    <g transform="matrix(1,0,0,1,30,30)">
        <path d="M300,-30C117.868,-30 -30,117.868 -30,300C-30,482.132 117.868,630 300,630C482.132,630 630,482.132 630,300C630,117.868 482.132,-30 300,-30ZM300,0C465.575,0 600,134.425 600,300C600,465.575 465.575,600 300,600C134.425,600 0,465.575 0,300C0,134.425 134.425,0 300,0Z"/>
    </g>
    <g id="path165" transform="matrix(6,0,0,6,5062.13,42)">
        <path d="M-783.359,80L-783.359,76.703C-778.656,76.182 -776.3,74.816 -776.3,72.621C-776.3,71.039 -776.929,69.457 -778.183,67.875L-791.191,51.865L-801.464,63.976C-804.034,66.949 -805.327,69.408 -805.327,71.33C-805.327,74.306 -802.973,76.101 -798.257,76.717L-798.257,80L-823.308,80L-823.308,76.713C-820.136,76.104 -817.441,74.961 -815.206,73.297C-813.667,72.074 -811.569,69.926 -808.921,66.859L-793.472,48.944L-811.339,27.284C-813.654,24.487 -815.46,22.651 -816.74,21.774C-818.464,20.549 -820.861,19.762 -823.943,19.413L-823.943,16L-794.404,16L-794.404,19.285C-798.857,20.162 -801.08,21.519 -801.08,23.359C-801.08,24.589 -800.486,25.945 -799.287,27.431L-787.471,41.753L-777.963,30.062C-776.252,27.958 -775.393,26.121 -775.393,24.542C-775.393,21.913 -777.498,20.202 -781.694,19.413L-781.694,16L-758.182,16L-758.182,19.291C-760.237,19.73 -761.655,20.125 -762.412,20.479C-764.982,21.708 -768.908,25.348 -774.209,31.399C-775.061,32.368 -778.662,36.792 -784.998,44.684L-766.021,68.047C-761.908,73.125 -757.716,76.018 -753.435,76.713L-753.435,80L-783.359,80Z" style="fill-rule:nonzero;"/>
    </g>
</svg>
