<?xml version="1.0" encoding="UTF-8" standalone="no"?>
<!DOCTYPE svg PUBLIC "-//W3C//DTD SVG 1.1//EN" "http://www.w3.org/Graphics/SVG/1.1/DTD/svg11.dtd">
<svg width="660" height="660" viewBox="0 0 660 660" version="1.1" xmlns="http://www.w3.org/2000/svg" xmlns:xlink="http://www.w3.org/1999/xlink" xml:space="preserve" xmlns:serif="http://www.serif.com/" style="fill-rule:evenodd;clip-rule:evenodd;stroke-linejoin:round;stroke-miterlimit:2;">
    <g transform="matrix(1,0,0,1,30,30)">
        <path d="M300,-30C117.868,-30 -30,117.868 -30,300C-30,482.132 117.868,630 300,630C482.132,630 630,482.132 630,300C630,117.868 482.132,-30 300,-30ZM300,0C465.575,0 600,134.425 600,300C600,465.575 465.575,600 300,600C134.425,600 0,465.575 0,300C0,134.425 134.425,0 300,0Z" style="fill:white;"/>
    </g>
    <path id="polygon491" d="M287.691,495.642L329.997,421.908L372.297,495.642L329.997,569.376L287.691,495.642ZM441.65,547.692L462.692,535.548L462.692,511.272L441.65,499.128L360.525,347.628L532.297,342.138L553.333,354.288L574.357,342.15L574.357,317.856L553.333,305.718L532.297,317.856L360.525,312.378L441.662,160.878L462.698,148.734L462.698,124.458L441.662,112.314L420.638,124.452L420.626,148.734L330.003,294.75L239.374,148.734L239.368,124.446L218.35,112.308L197.308,124.458L197.308,148.734L218.344,160.878L299.475,312.378L127.709,317.856L106.667,305.718L85.649,317.85L85.649,342.138L106.667,354.282L127.709,342.138L299.475,347.628L218.338,499.128L197.308,511.266L197.302,535.548L218.338,547.686L239.368,535.548L239.368,511.266L329.997,365.25L420.626,511.266L420.626,535.554L441.65,547.692ZM452.3,449.46L409.604,375.96L494.599,376.194L537.301,449.682L452.3,449.46ZM165.395,376.182L250.396,375.954L207.694,449.448L122.693,449.682L165.395,376.182ZM494.611,283.818L409.604,284.046L452.306,210.552L537.301,210.318L494.611,283.818ZM207.7,210.54L250.402,284.04L165.401,283.806L122.699,210.312L207.7,210.54ZM372.303,164.358L330.003,238.086L287.703,164.358L330.003,90.624L372.303,164.358Z" style="fill:white;fill-rule:nonzero;"/>
</svg>
