<?xml version="1.0" encoding="UTF-8" standalone="no"?>
<!DOCTYPE svg PUBLIC "-//W3C//DTD SVG 1.1//EN" "http://www.w3.org/Graphics/SVG/1.1/DTD/svg11.dtd">
<svg width="660" height="660" version="1.1" xmlns="http://www.w3.org/2000/svg" xmlns:xlink="http://www.w3.org/1999/xlink" xml:space="preserve" xmlns:serif="http://www.serif.com/" style="fill-rule:evenodd;clip-rule:evenodd;stroke-linejoin:round;stroke-miterlimit:2;">
    <g transform="matrix(1,0,0,1,30,30)">
        <path d="M300,-30C117.868,-30 -30,117.868 -30,300C-30,482.132 117.868,630 300,630C482.132,630 630,482.132 630,300C630,117.868 482.132,-30 300,-30ZM300,0C465.575,0 600,134.425 600,300C600,465.575 465.575,600 300,600C134.425,600 0,465.575 0,300C0,134.425 134.425,0 300,0Z"/>
    </g>
    <g transform="matrix(1,0,0,1,30,30)">
        <path d="M474,358C473,484 344,533 273,532C194,531 157,497 157,497L180,466C180,466 218,491 272,491C303,491 397,462 397,367C397,316 351,297 328,296C308,296 286,307 255,325L238,288C348,221 365,201 365,170C365,141 339,122 316,122C293,122 260,128 199,194L167,168C246,57 316,62 337,63C384,65 440,90 441,150C441,174 433,202 379,243C425,248 475,289 474,358Z" style="fill-rule:nonzero;"/>
    </g>
</svg>
