<?xml version="1.0" encoding="UTF-8" standalone="no"?><!DOCTYPE svg PUBLIC "-//W3C//DTD SVG 1.1//EN" "http://www.w3.org/Graphics/SVG/1.1/DTD/svg11.dtd"><svg width="1500" height="2100" viewBox="0 0 1500 2100" version="1.1" xmlns="http://www.w3.org/2000/svg" xmlns:xlink="http://www.w3.org/1999/xlink" xml:space="preserve" xmlns:serif="http://www.serif.com/" style="fill-rule:evenodd;clip-rule:evenodd;stroke-linejoin:round;stroke-miterlimit:2;"><g id="Masks"><path id="frame-mask" serif:id="frame mask" d="M749.227,1911.97c-32.713,-1.149 -62.777,13.6 -91.227,38.03l-472,0l-8,-10l-51,0l-52,-75l0,-351l-30,-55l27,-39l151,0l37.89,37.89l-125.89,4.11l-19,29l0,381l21,30l64,0l15,21l441,0l17,-14l152,0l17,14l441,0l15,-21l64,0l21,-30l0,-381l-19,-29l-125.89,-4.11l37.89,-37.89l151,0l27,39l-30,55l0,351l-52,75l-51,0l-8,10l-472,0c-28.674,-24.622 -58.987,-39.41 -92,-38l-0.773,-0.03Zm-356.227,-1665.97l-31,23l-214,0l-9,-22l-45,0l-14,-39c198.692,6.891 421.879,8.583 670,8l11.612,0.026c243.467,0.503 462.796,-1.243 658.388,-8.026l-14,39l-45,0l-9,22l-214,0l-31,-23l-714,0Zm-296,-108l-1,-9c0,0 -4.603,0.139 -7,-2c-2.157,-1.925 -2,-4 -2,-4l-7,-1l-5,-20l-8,-2l-19,-54c168.82,22.46 412.689,31.725 702,33l6.773,-0.031c286.369,-1.389 529.724,-10.684 697.227,-32.969l-19,54l-8,2l-5,20l-9,1c0,0 0.157,2.075 -2,4c-2.397,2.139 -7,2 -7,2l-1,9l-653,-1l-653,1Z" style="fill:#007b43;"/></g></svg>