<?xml version="1.0" encoding="UTF-8" standalone="no"?><!DOCTYPE svg PUBLIC "-//W3C//DTD SVG 1.1//EN" "http://www.w3.org/Graphics/SVG/1.1/DTD/svg11.dtd"><svg width="180" height="252" viewBox="0 0 180 252" version="1.1" xmlns="http://www.w3.org/2000/svg" xmlns:xlink="http://www.w3.org/1999/xlink" xml:space="preserve" xmlns:serif="http://www.serif.com/" style="fill-rule:evenodd;clip-rule:evenodd;stroke-linejoin:round;stroke-miterlimit:2;"><path id="Gold" d="M171.2,146.633l0.23,0.329c0.235,0.327 0.466,0.664 0.689,1.013l0.474,0.75l0.185,0.307l0.621,1.088l0,65.4c-2.968,2.733 -4.631,6.465 -5.04,11.16l0,7.32l-156.719,0l-0,-7.32c-0.409,-4.695 -2.072,-8.427 -5.04,-11.16l-0,-65.4l0.621,-1.088l0.185,-0.307l0.474,-0.751c0.223,-0.349 0.454,-0.685 0.689,-1.012l0.23,-0.329l0.477,-0.62c-0.31,1.031 -0.516,2.1 -0.516,3.12c-0,2.128 0.769,4.544 1.502,6.352c-0.648,0.572 -1.174,1.365 -1.622,2.3l-0,10.095l3.183,-3.24l-0,-6.07c0.157,0.113 0.349,0.175 0.549,0.175l0.588,0l-0,9.749c-2.372,1.602 -4.31,4.686 -4.32,7.066l-0,39c1.57,1.454 2.294,2.811 3,4.32l-0,-47.16c0.358,-0.703 0.802,-1.252 1.32,-1.667l-0,62.627l154.079,-0l0,-62.627c0.518,0.415 0.962,0.964 1.32,1.667l0,47.16l0.267,-0.559c0.633,-1.291 1.359,-2.489 2.733,-3.761l0,-39c-0.01,-2.38 -1.948,-5.464 -4.32,-7.066l0,-9.749l0.587,0c0.201,0 0.393,-0.062 0.55,-0.175l0,6.07l3.183,3.24l0,-10.095c-0.448,-0.936 -0.974,-1.728 -1.623,-2.3c0.733,-1.808 1.502,-4.224 1.502,-6.352c0,-1.021 -0.207,-2.091 -0.517,-3.122l0.479,0.622Zm-160.15,8.273c-0.665,-1.684 -1.33,-3.852 -1.33,-5.773c-0,-3.836 3.134,-8.412 3.134,-8.412l154.29,-0c-0,-0 3.134,4.576 3.134,8.412c0,3.836 -2.652,8.652 -2.652,8.652l-155.254,0c-0,0 -0.66,-1.199 -1.321,-2.876l-0.005,-0.012l0.004,0.009Zm155.043,-12.26l-152.188,0l0,0c-0.812,1.344 -2.259,4.077 -2.259,6.487c-0,2.413 1.194,5.255 1.903,6.727l152.9,-0c0.709,-1.472 1.903,-4.314 1.903,-6.727c0,-2.41 -1.447,-5.143 -2.259,-6.487l-0,0Zm-152.412,11.998l0.241,0.721l152.035,0l0.362,-0.721l-152.638,0Zm157.438,-9.684l0.233,-11.589l1.568,1.989l-0.465,11.394c-0.433,-0.632 -0.879,-1.229 -1.336,-1.794Zm-162.238,-0.002c-0.46,0.564 -0.907,1.16 -1.336,1.794l-0.465,-11.392l1.568,-1.989l0.233,11.587Zm157.935,-5.197l-0.149,-7.43l1.933,-2.454l1.933,2.454l-0.234,11.667l-0.606,-0.642c-0.858,-1.85 -1.757,-3.178 -1.757,-3.178c-0.179,-0.261 -0.475,-0.417 -0.792,-0.417l-0.328,-0Zm-157.115,4.236l-0.234,-11.666l1.933,-2.454l1.933,2.454l-0.149,7.43l-0.33,-0c-0.317,-0 -0.613,0.156 -0.792,0.417c0,0 -0.9,1.329 -1.757,3.18l-0.604,0.639Zm4.1,-0.152l0.361,-0.721l151.555,0l0.482,0.721l-152.398,0Zm0.223,-4.084l0.128,-6.39l1.568,1.989l-0.18,4.401l-1.516,-0Zm151.952,-0l-1.516,-0l-0.18,-4.401l1.568,-1.989l0.128,6.39Zm-158.756,-15.725l0.498,9.158l0.903,-1.146l-0.191,-9.505l-1.21,1.493Zm8.36,-0l-0.498,9.158l-0.903,-1.146l0.191,-9.505l1.21,1.493Zm148.84,-0l0.498,9.158l0.903,-1.146l-0.191,-9.505l-1.21,1.493Zm8.36,-0l-0.498,9.158l-0.903,-1.146l0.191,-9.505l1.21,1.493Zm-6.14,6.972l-0.19,-9.477l2.15,-2.654l2.15,2.654l-0.19,9.477l-1.96,-2.488l-1.96,2.488Zm-157.2,-0l-0.19,-9.477l2.15,-2.654l2.15,2.654l-0.19,9.477l-1.96,-2.488l-1.96,2.488Zm156.077,-14.059l0.087,4.292l-1.252,1.544l-0.216,-3.976l1.381,-1.86Zm-151.034,-0l-0.087,4.292l1.252,1.544l0.216,-3.976l-1.381,-1.86Zm-6.166,-0l0.087,4.292l-1.252,1.544l-0.216,-3.976l1.381,-1.86Zm163.366,-0l-0.087,4.292l1.252,1.544l0.216,-3.976l-1.381,-1.86Zm-162.46,3.28l-0.088,-4.382l2.265,-3.049l2.265,3.049l-0.088,4.382l-2.177,-2.687l-2.177,2.687Zm157.2,-0l-0.088,-4.382l2.265,-3.049l2.265,3.049l-0.088,4.382l-2.177,-2.687l-2.177,2.687Zm-157.499,-19.121l0.423,13.046l-1.247,1.679l-0.786,-12.372l1.61,-2.353Zm162.152,0l-0.423,13.046l1.247,1.679l0.786,-12.372l-1.61,-2.353Zm-4.952,0l0.423,13.046l-1.247,1.679l-0.786,-12.372l1.61,-2.353Zm-152.248,0l-0.423,13.046l1.247,1.679l0.786,-12.372l-1.61,-2.353Zm-2.716,-3.265l-0,13.869l-1.353,1.822l-0.424,-13.096l1.777,-2.595Zm157.68,-0l-0,13.869l1.353,1.822l0.424,-13.096l-1.777,-2.595Zm-0.48,-0l-0,13.869l-1.353,1.822l-0.424,-13.096l1.777,-2.595Zm-156.72,-0l-0,13.869l1.353,1.822l0.424,-13.096l-1.777,-2.595Zm154.277,-26.492l0.613,27.678l-0.939,1.372l-1.503,-26.606l1.829,-2.444Zm-157.2,0l0.613,27.678l-0.939,1.372l-1.503,-26.606l1.829,-2.444Zm162.566,0l-0.613,27.678l0.939,1.372l1.503,-26.606l-1.829,-2.444Zm-157.2,0l-0.613,27.678l0.939,1.372l1.503,-26.606l-1.829,-2.444Zm-4.288,26.998l-0.612,-27.621l2.217,-2.963l2.217,2.963l-0.612,27.621l-1.605,-2.344l-1.605,2.344Zm157.2,0l-0.612,-27.621l2.217,-2.963l2.217,2.963l-0.612,27.621l-1.605,-2.344l-1.605,2.344Zm-1.078,-41.923l0.441,12.933l-1.557,2.08l-0.974,-12.414l2.09,-2.599Zm5.366,0l-0.441,12.933l1.557,2.08l0.974,-12.414l-2.09,-2.599Zm-162.566,0l0.441,12.933l-1.557,2.08l-0.974,-12.414l2.09,-2.599Zm5.366,0l-0.441,12.933l1.557,2.08l0.974,-12.414l-2.09,-2.599Zm-2.923,-3.038l-0,13.296l-1.542,2.061l-0.441,-12.892l1.983,-2.465Zm0.48,-0l-0,13.296l1.542,2.061l0.441,-12.892l-1.983,-2.465Zm156.72,-0l-0,13.296l-1.542,2.061l-0.441,-12.892l1.983,-2.465Zm0.48,-0l-0,13.296l1.542,2.061l0.441,-12.892l-1.983,-2.465Zm-3.205,-24.428l0.496,25.859l-1.154,1.436l-1.605,-26.598l0.583,-0.697l1.68,-0Zm5.968,-1.964l-0.534,27.823l1.154,1.436l1.605,-26.598l-2.225,-2.661Zm-163.206,-0l0.534,27.823l-1.154,1.436l-1.605,-26.598l2.225,-2.661Zm7.648,1.964l-1.68,-0l-0.496,25.859l1.154,1.436l1.605,-26.598l-0.583,-0.697Zm-6.178,-3.722c0.709,1.853 1.435,3.217 1.435,3.217c0.168,0.311 0.493,0.505 0.846,0.505l1.737,-0l-0.485,25.276l-2,-2.487l-2,2.487l-0.533,-27.802l1,-1.196Zm160.372,0.127l0.894,1.069l-0.533,27.802l-2,-2.487l-2,2.487l-0.485,-25.276l1.98,-0c0.36,-0 0.69,-0.202 0.854,-0.522c-0,-0 0.65,-1.277 1.29,-3.073Zm-2.87,-14.426l-0.002,-0.004l-154.734,0c-0,0 -3.153,4.719 -3.153,8.412c-0,3.693 2.668,8.653 2.668,8.653l155.947,-0c-0,-0 2.425,-4.73 2.425,-8.653c-0,-3.861 -3.055,-8.272 -3.151,-8.408Zm-158.753,7.238c-0.065,0.396 -0.096,0.788 -0.096,1.17c-0,0.634 0.074,1.304 0.203,1.98l0.13,3.814l-1.801,2.154l-1.112,-12.687l2.457,-2.834l0.219,6.403Zm162.77,-0.045c0.063,0.407 0.094,0.814 0.094,1.215c-0,0.727 -0.079,1.481 -0.212,2.229l-0.121,3.565l1.801,2.154l1.112,-12.687l-2.457,-2.834l-0.217,6.358Zm-4.989,-5.274l-152.794,0c0,0 -2.425,3.423 -2.425,6.489c-0,3.067 2.182,6.73 2.182,6.73l153.28,0c-0,0 1.94,-3.382 1.94,-6.73c-0,-3.347 -2.183,-6.489 -2.183,-6.489Zm-152.417,12.342l152.04,-0l-0.12,0.48l-151.68,-0l-0.24,-0.48Zm-1.136,-15.225l-0.211,0c-0.321,0 -0.62,0.16 -0.798,0.427c-0,-0 -1.873,2.839 -2.803,5.914l-0.173,-5.075l2.541,-2.932l1.444,1.666Zm154.312,0l1.444,-1.666l2.541,2.932l-0.17,4.984c-0.931,-3.125 -2.818,-5.842 -2.818,-5.842c-0.18,-0.255 -0.473,-0.408 -0.786,-0.408l-0.211,0Zm-153.116,3.945l0.36,-0.72l151.061,0.019l0.379,0.701l-151.8,-0Z" style="fill:#f6d262;"/></svg>