<?xml version="1.0" encoding="UTF-8" standalone="no"?>
<!DOCTYPE svg PUBLIC "-//W3C//DTD SVG 1.1//EN" "http://www.w3.org/Graphics/SVG/1.1/DTD/svg11.dtd">
<svg width="1500" height="2100" viewBox="0 0 1500 2100" version="1.1" xmlns="http://www.w3.org/2000/svg" xmlns:xlink="http://www.w3.org/1999/xlink" xml:space="preserve" xmlns:serif="http://www.serif.com/" style="fill-rule:evenodd;clip-rule:evenodd;stroke-linejoin:round;stroke-miterlimit:2;">
    <g id="Masks">
        <path id="Frame" d="M1374.29,1749.44C1375.72,1756.19 1377.95,1763.04 1381,1770L1381,1825C1399.6,1775.91 1409.75,1715.07 1415,1649C1415.96,1647.23 1416.95,1646.67 1418,1649C1446.5,1727.96 1464.74,1903.85 1408,1950L838,1950C815.998,1925.06 786.949,1912.73 750.854,1912.99L750,1913C713.508,1912.54 684.175,1924.87 662,1950L92,1950C35.26,1903.85 53.504,1727.96 82,1649C83.053,1646.67 84.04,1647.23 85,1649C90.254,1715.07 100.4,1775.91 119,1825L119,1770C122.049,1763.04 124.279,1756.19 125.715,1749.44C124.564,1756.03 122.677,1762.46 120,1768.73L120,1826C121.206,1905.42 147.678,1933.48 193,1934L649,1934C680.307,1908.75 713.786,1895.08 750,1896L750.848,1895.98C786.736,1895.29 819.938,1908.94 851,1934L1307,1934C1352.32,1933.48 1378.79,1905.42 1380,1826L1380,1768.73C1377.32,1762.46 1375.44,1756.03 1374.29,1749.44ZM43.913,1876.36C50.873,1914.4 66.451,1937.4 88,1950L84,1950C62.709,1931.34 49.132,1915.65 43.913,1876.36ZM1456.09,1876.36C1450.87,1915.65 1437.29,1931.34 1416,1950L1412,1950C1433.55,1937.4 1449.13,1914.4 1456.09,1876.36ZM117,1758C114.303,1750.13 112,1741.33 110.023,1731.78C108.046,1722.23 106.394,1711.91 105,1701C116.322,1718.64 120.875,1737.54 117,1758ZM1383,1758C1385.7,1750.13 1388,1741.33 1389.98,1731.78C1391.95,1722.23 1393.61,1711.91 1395,1701C1383.68,1718.64 1379.13,1737.54 1383,1758ZM44.984,526.081C45.697,532.081 46.698,538.054 48,544C56.285,603.473 85.873,639.621 91,679C80.369,684.92 73.794,693.635 72,709C82.169,700.256 90.308,700.184 96.616,704.031C111.476,713.095 139.202,803.119 92.21,812.896C87.812,813.812 62.505,805.977 74,755C47.796,798.093 65.996,822.037 86,835C83.202,843.762 76.854,852.406 69,861C99.718,851.52 114.771,826.697 120.317,795.711C119.488,801.123 118.384,806.073 117,810.555L117,995.454C117.417,997.053 117.801,998.596 118.156,1000.09C113.246,982.369 103.871,963.236 90,940C57.785,874.112 43.387,857.499 49,807C29.365,886.683 78.993,935.607 80.071,960.528C80.417,968.519 79.474,973.256 68,982C77.537,984.027 84.55,982.413 91,972C106.861,994.134 117.407,1019.43 118.942,1043.99C118.228,1042.29 117.526,1044.43 117,1045.03L117,1061C123.289,1118.42 156.205,1163.3 196,1164L1304,1164C1343.8,1163.3 1376.71,1118.42 1383,1061L1383,1045.03C1382.47,1044.43 1381.77,1042.29 1381.06,1043.99C1382.59,1019.43 1393.14,994.134 1409,972C1415.45,982.413 1422.46,984.027 1432,982C1420.53,973.256 1419.58,968.519 1419.93,960.528C1421.01,935.607 1470.63,886.683 1451,807C1456.61,857.499 1442.21,874.112 1410,940C1396.13,963.236 1386.75,982.369 1381.84,1000.09C1382.2,998.596 1382.58,997.053 1383,995.454L1383,810.555C1381.62,806.073 1380.51,801.123 1379.68,795.711C1385.23,826.697 1400.28,851.52 1431,861C1423.15,852.406 1416.8,843.762 1414,835C1434,822.037 1452.2,798.093 1426,755C1437.5,805.977 1412.19,813.812 1407.79,812.896C1360.8,803.119 1388.52,713.095 1403.38,704.031C1409.69,700.184 1417.83,700.256 1428,709C1426.21,693.635 1419.63,684.92 1409,679C1414.13,639.621 1443.71,603.473 1452,544C1453.3,538.054 1454.3,532.081 1455.02,526.081C1454.11,537.986 1452.72,550.972 1451,564.734L1451,799.536C1459.86,829.013 1459.49,859.644 1451,891.29L1451,1081.08C1458.04,1095.15 1458.89,1111.95 1451,1132.61L1451,1203.21L1458,1210.51C1455.35,1213.38 1452.81,1216.39 1451,1220.37L1451,1238.43C1452.86,1238.06 1454.43,1236.44 1456,1234.78C1467.09,1267.12 1445.84,1284.5 1458.48,1322.06C1456.97,1321.78 1453.99,1321.64 1451,1321.81L1451,1382.2C1453.82,1377.91 1455.57,1370.7 1457,1362.6C1461.7,1390.87 1461.58,1417.83 1451,1441.94L1451,1532.76C1460.23,1544.81 1460.84,1575.08 1451,1613.09L1451,1710C1452.48,1725.46 1453.73,1739.78 1454.77,1753.05C1450.54,1721.05 1443.72,1684.55 1434,1643C1449.12,1623.78 1457.15,1597.8 1457,1564C1456.83,1491.09 1404.64,1556.15 1442,1564C1435.58,1555.02 1436.65,1542.58 1443.52,1542.05C1453.78,1541.24 1459.32,1594.6 1425,1626L1409,1588C1407.72,1585.98 1406.77,1586.33 1406,1588C1404.48,1612.33 1401.95,1638.43 1398,1667C1388.04,1679.06 1380.84,1691.48 1376.64,1704.28C1377.59,1700.44 1378.71,1696.56 1380,1692.65L1380,1587.91C1368.42,1560.93 1367.02,1537.83 1380,1519.02L1380,1417C1369.07,1393.83 1365.89,1373.04 1375,1356C1371.52,1337.85 1355.79,1321.74 1338,1320L162,1320C144.213,1321.74 128.482,1337.85 125,1356C134.108,1373.04 130.932,1393.83 120,1417L120,1519.02C132.98,1537.83 131.577,1560.93 120,1587.91L120,1692.65C121.288,1696.56 122.41,1700.44 123.36,1704.28C119.16,1691.48 111.961,1679.06 102,1667C98.054,1638.43 95.52,1612.33 94,1588C93.23,1586.33 92.279,1585.98 91,1588L75,1626C40.679,1594.6 46.217,1541.24 56.481,1542.05C63.354,1542.58 64.421,1555.02 58,1564C95.363,1556.15 43.166,1491.09 43,1564C42.85,1597.8 50.878,1623.78 66,1643C56.28,1684.55 49.462,1721.05 45.229,1753.05C46.267,1739.78 47.523,1725.46 49,1710L49,1613.09C39.164,1575.08 39.77,1544.81 49,1532.76L49,1441.94C38.425,1417.83 38.3,1390.87 43,1362.6C44.428,1370.7 46.183,1377.91 49,1382.2L49,1321.81C46.013,1321.64 43.028,1321.78 41.521,1322.06C54.165,1284.5 32.909,1267.12 44,1234.78C45.568,1236.44 47.145,1238.06 49,1238.43L49,1220.37C47.189,1216.39 44.647,1213.38 42,1210.51L49,1203.21L49,1132.61C41.113,1111.95 41.962,1095.15 49,1081.08L49,891.29C40.509,859.644 40.137,829.013 49,799.536L49,564.734C47.277,550.972 45.894,537.986 44.984,526.081ZM44,1376C50.941,1484.96 157.091,1504.86 119,1586C116.068,1568.31 119.293,1557 116.501,1553.79C113.404,1550.23 107.286,1556.42 108,1570C101.812,1562.73 97.349,1555.95 110,1534C101.104,1518.47 90.03,1503.08 77,1488C74.373,1492.48 69.051,1495.91 61,1497C80.809,1452.93 28.803,1454.36 44,1376ZM1456,1376C1449.06,1484.96 1342.91,1504.86 1381,1586C1383.93,1568.31 1380.71,1557 1383.5,1553.79C1386.6,1550.23 1392.71,1556.42 1392,1570C1398.19,1562.73 1402.65,1555.95 1390,1534C1398.9,1518.47 1409.97,1503.08 1423,1488C1425.63,1492.48 1430.95,1495.91 1439,1497C1419.19,1452.93 1471.2,1454.36 1456,1376ZM86,1399L94,1386C79.405,1352.26 118.786,1360.15 118,1393L118,1414C145.249,1365.82 111.464,1338.77 93.669,1344.03C75.26,1349.48 65.06,1374.69 86,1399ZM1414,1399L1406,1386C1420.6,1352.26 1381.21,1360.15 1382,1393L1382,1414C1354.75,1365.82 1388.54,1338.77 1406.33,1344.03C1424.74,1349.48 1434.94,1374.69 1414,1399ZM153,1298C123.169,1297.23 104.409,1284.25 104,1257L104,1223C104.409,1195.75 123.169,1182.78 153,1182L1347,1182C1376.83,1182.78 1395.59,1195.75 1396,1223L1396,1257C1395.59,1284.25 1376.83,1297.23 1347,1298L153,1298ZM58,1043C67.817,1034.15 92.62,1025.09 107,1067C109.667,1067.26 112.333,1067.02 115,1067C111.367,1070.54 109.368,1073.46 110,1078C112.367,1107.5 105.412,1130.06 86,1142C51.176,1148.82 38.811,1127.4 47,1091L50,1110C51.205,1112.84 52.568,1112.6 54,1111C56.853,1106.02 58.422,1100.66 59,1095C64.981,1103.6 61.97,1113.15 56,1123C89.865,1144.81 111.126,1082.29 82,1059C86.027,1058.08 88.794,1059.1 91,1061C92.331,1061.06 92.904,1059.62 92,1057C88.413,1046.61 76.143,1036.74 58,1043ZM1442,1043C1432.18,1034.15 1407.38,1025.09 1393,1067C1390.33,1067.26 1387.67,1067.02 1385,1067C1388.63,1070.54 1390.63,1073.46 1390,1078C1387.63,1107.5 1394.59,1130.06 1414,1142C1448.82,1148.82 1461.19,1127.4 1453,1091L1450,1110C1448.8,1112.84 1447.43,1112.6 1446,1111C1443.15,1106.02 1441.58,1100.66 1441,1095C1435.02,1103.6 1438.03,1113.15 1444,1123C1410.13,1144.81 1388.87,1082.29 1418,1059C1413.97,1058.08 1411.21,1059.1 1409,1061C1407.67,1061.06 1407.1,1059.62 1408,1057C1411.59,1046.61 1423.86,1036.74 1442,1043ZM1378.16,1037.06C1378.35,1039.28 1378.62,1041.51 1378.96,1043.75C1378.76,1043.55 1378.61,1043.32 1378.6,1043.08C1378.44,1041.09 1378.28,1039.1 1378.16,1037.06ZM121.84,1037.06C121.647,1039.28 121.38,1041.51 121.037,1043.75C121.245,1043.55 121.387,1043.32 121.405,1043.08C121.564,1041.09 121.72,1039.1 121.84,1037.06ZM46.059,470.854C46.826,467.382 47.8,464.383 49,461.9L49,353C25.627,199.902 40.77,92.633 122,64L130,62C138.307,74.444 147.479,80.507 157,84L419,84C444.487,73.491 479.702,64.263 512.074,53C516.741,76.485 568.158,80.928 590.876,84L909.124,84C931.842,80.928 983.259,76.485 987.926,53C1020.3,64.263 1055.51,73.491 1081,84L1343,84C1352.52,80.507 1361.69,74.444 1370,62L1378,64L1378.48,64.169C1459.29,93.062 1474.33,200.208 1451,353L1451,461.9C1452.2,464.383 1453.17,467.382 1453.94,470.854C1440.9,438.245 1396.4,474.75 1414,510C1417.88,488.606 1433.43,467.449 1445.39,474.92C1454.22,480.431 1452.33,513.766 1447.33,534.461C1439.01,568.909 1411.03,609.145 1402.33,633.035C1402.21,633.355 1402.11,633.679 1402,634C1395.12,654.055 1387.89,679.234 1383,705.538L1383,356C1365.73,326.952 1343.26,297.614 1318.03,274.753C1359.3,310.441 1396.66,365.194 1422,429C1443.32,388.525 1457.81,317.358 1459.45,251.737C1461.48,171.219 1448.16,100.534 1382,72C1449.64,127.371 1463.69,248.121 1423,388C1421.42,389.189 1419.76,389.228 1418,388C1371.54,300.667 1326.58,253.249 1277,233L1241.2,233C1234.49,231.909 1227.74,231.545 1221,232L279,232C272.26,231.545 265.512,231.909 258.796,233L223,233C173.418,253.249 128.465,300.667 82,388C80.245,389.228 78.578,389.189 77,388C36.306,248.121 50.36,127.371 118,72C51.841,100.534 38.522,171.219 40.545,251.737C42.194,317.358 56.683,388.525 78,429C103.342,365.194 140.698,310.441 181.969,274.753C156.74,297.614 134.267,326.952 117,356L117,705.538C112.112,679.234 104.885,654.055 98,634C97.89,633.679 97.786,633.355 97.67,633.035C88.969,609.145 60.988,568.909 52.668,534.461C47.669,513.766 45.778,480.431 54.605,474.92C66.569,467.449 82.118,488.606 86,510C103.604,474.75 59.099,438.245 46.059,470.854ZM45.947,471.367C44.828,479.133 44.101,486.865 43.793,494.555C43.926,485.492 44.606,477.675 45.947,471.367ZM1454.05,471.367C1455.17,479.132 1455.9,486.862 1456.21,494.555C1456.07,485.49 1455.39,477.675 1454.05,471.367ZM153,216C123.169,215.225 104.409,202.248 104,175L104,141C104.409,113.752 123.169,100.775 153,100L1347,100C1376.83,100.775 1395.59,113.752 1396,141L1396,175C1395.59,202.248 1376.83,215.225 1347,216L153,216Z" style="fill:rgb(0,123,67);"/>
    </g>
</svg>
