<?xml version="1.0" encoding="UTF-8" standalone="no"?>
<!DOCTYPE svg PUBLIC "-//W3C//DTD SVG 1.1//EN" "http://www.w3.org/Graphics/SVG/1.1/DTD/svg11.dtd">
<svg width="1500" height="2100" viewBox="0 0 1500 2100" version="1.1" xmlns="http://www.w3.org/2000/svg" xmlns:xlink="http://www.w3.org/1999/xlink" xml:space="preserve" xmlns:serif="http://www.serif.com/" style="fill-rule:evenodd;clip-rule:evenodd;stroke-linejoin:round;stroke-miterlimit:2;">
    <g id="Masks">
        <path id="Gold" d="M58,1564C95.363,1556.15 43.166,1491.09 43,1564C42.85,1597.8 50.878,1623.78 66,1643C20.539,1837.35 38.541,1921.09 88,1950L92,1950C35.26,1903.85 53.504,1727.96 82,1649C83.053,1646.67 84.04,1647.23 85,1649C90.254,1715.07 100.4,1775.91 119,1825L119,1770C135.281,1732.85 128.179,1698.7 102,1667C98.054,1638.43 95.52,1612.33 94,1588C93.23,1586.33 92.279,1585.98 91,1588L75,1626C40.679,1594.6 46.217,1541.24 56.481,1542.05C63.354,1542.58 64.421,1555.02 58,1564ZM1442,1564C1404.64,1556.15 1456.83,1491.09 1457,1564C1457.15,1597.8 1449.12,1623.78 1434,1643C1479.46,1837.35 1461.46,1921.09 1412,1950L1408,1950C1464.74,1903.85 1446.5,1727.96 1418,1649C1416.95,1646.67 1415.96,1647.23 1415,1649C1409.75,1715.07 1399.6,1775.91 1381,1825L1381,1770C1364.72,1732.85 1371.82,1698.7 1398,1667C1401.95,1638.43 1404.48,1612.33 1406,1588C1406.77,1586.33 1407.72,1585.98 1409,1588L1425,1626C1459.32,1594.6 1453.78,1541.24 1443.52,1542.05C1436.65,1542.58 1435.58,1555.02 1442,1564ZM117,1758C114.303,1750.13 112,1741.33 110.023,1731.78C108.046,1722.23 106.394,1711.91 105,1701C116.322,1718.64 120.875,1737.54 117,1758ZM1383,1758C1385.7,1750.13 1388,1741.33 1389.98,1731.78C1391.95,1722.23 1393.61,1711.91 1395,1701C1383.68,1718.64 1379.13,1737.54 1383,1758ZM44,1376C50.941,1484.96 157.091,1504.86 119,1586C116.068,1568.31 119.293,1557 116.501,1553.79C113.404,1550.23 107.286,1556.42 108,1570C101.812,1562.73 97.349,1555.95 110,1534C101.104,1518.47 90.03,1503.08 77,1488C74.373,1492.48 69.051,1495.91 61,1497C80.809,1452.93 28.803,1454.36 44,1376ZM1456,1376C1449.06,1484.96 1342.91,1504.86 1381,1586C1383.93,1568.31 1380.71,1557 1383.5,1553.79C1386.6,1550.23 1392.71,1556.42 1392,1570C1398.19,1562.73 1402.65,1555.95 1390,1534C1398.9,1518.47 1409.97,1503.08 1423,1488C1425.63,1492.48 1430.95,1495.91 1439,1497C1419.19,1452.93 1471.2,1454.36 1456,1376ZM1414,1399L1406,1386C1420.6,1352.26 1381.21,1360.15 1382,1393L1382,1414C1354.75,1365.82 1388.54,1338.77 1406.33,1344.03C1424.74,1349.48 1434.94,1374.69 1414,1399ZM86,1399L94,1386C79.405,1352.26 118.786,1360.15 118,1393L118,1414C145.249,1365.82 111.464,1338.77 93.669,1344.03C75.26,1349.48 65.06,1374.69 86,1399ZM58,1043C67.817,1034.15 92.62,1025.09 107,1067C109.667,1067.26 112.333,1067.02 115,1067C111.367,1070.54 109.368,1073.46 110,1078C112.367,1107.5 105.412,1130.06 86,1142C51.176,1148.82 38.811,1127.4 47,1091L50,1110C51.205,1112.84 52.568,1112.6 54,1111C56.853,1106.02 58.422,1100.66 59,1095C64.981,1103.6 61.97,1113.15 56,1123C89.865,1144.81 111.126,1082.29 82,1059C86.027,1058.08 88.794,1059.1 91,1061C92.331,1061.06 92.904,1059.62 92,1057C88.413,1046.61 76.143,1036.74 58,1043ZM1442,1043C1432.18,1034.15 1407.38,1025.09 1393,1067C1390.33,1067.26 1387.67,1067.02 1385,1067C1388.63,1070.54 1390.63,1073.46 1390,1078C1387.63,1107.5 1394.59,1130.06 1414,1142C1448.82,1148.82 1461.19,1127.4 1453,1091L1450,1110C1448.8,1112.84 1447.43,1112.6 1446,1111C1443.15,1106.02 1441.58,1100.66 1441,1095C1435.02,1103.6 1438.03,1113.15 1444,1123C1410.13,1144.81 1388.87,1082.29 1418,1059C1413.97,1058.08 1411.21,1059.1 1409,1061C1407.67,1061.06 1407.1,1059.62 1408,1057C1411.59,1046.61 1423.86,1036.74 1442,1043ZM49,807C29.365,886.683 78.993,935.607 80.071,960.528C80.417,968.519 79.474,973.256 68,982C77.537,984.027 84.55,982.413 91,972C107.078,994.437 117.695,1020.12 119,1045L121,1044C125.962,1012.01 115.697,983.045 90,940C57.785,874.112 43.387,857.499 49,807ZM1451,807C1470.63,886.683 1421.01,935.607 1419.93,960.528C1419.58,968.519 1420.53,973.256 1432,982C1422.46,984.027 1415.45,982.413 1409,972C1392.92,994.437 1382.31,1020.12 1381,1045L1379,1044C1374.04,1012.01 1384.3,983.045 1410,940C1442.21,874.112 1456.61,857.499 1451,807ZM1414,510C1396.37,474.697 1441.04,438.136 1454,471C1457.6,495.721 1457.24,520.082 1452,544C1443.71,603.473 1414.13,639.621 1409,679C1419.63,684.92 1426.21,693.635 1428,709C1417.83,700.256 1409.69,700.184 1403.38,704.031C1388.52,713.095 1360.8,803.119 1407.79,812.896C1412.19,813.812 1437.5,805.977 1426,755C1452.2,798.093 1434,822.037 1414,835C1416.8,843.762 1423.15,852.406 1431,861C1349.87,835.96 1378.01,703.879 1402,634C1402.11,633.679 1402.21,633.355 1402.33,633.035C1411.03,609.145 1439.01,568.909 1447.33,534.461C1452.33,513.766 1454.22,480.431 1445.39,474.92C1433.43,467.449 1417.88,488.606 1414,510ZM86,510C103.63,474.697 58.965,438.136 46,471C42.399,495.721 42.763,520.082 48,544C56.285,603.473 85.873,639.621 91,679C80.369,684.92 73.794,693.635 72,709C82.169,700.256 90.308,700.184 96.616,704.031C111.476,713.095 139.202,803.119 92.21,812.896C87.812,813.812 62.505,805.977 74,755C47.796,798.093 65.996,822.037 86,835C83.202,843.762 76.854,852.406 69,861C150.135,835.96 121.989,703.879 98,634C97.89,633.679 97.786,633.355 97.67,633.035C88.969,609.145 60.988,568.909 52.668,534.461C47.669,513.766 45.778,480.431 54.605,474.92C66.569,467.449 82.118,488.606 86,510ZM1240,233L1277,233C1326.58,253.249 1371.54,300.667 1418,388C1419.76,389.228 1421.42,389.189 1423,388C1463.69,248.121 1449.64,127.371 1382,72C1448.16,100.534 1461.48,171.219 1459.45,251.737C1457.81,317.358 1443.32,388.525 1422,429C1381.2,326.285 1309.28,247.033 1240,233ZM260,233L223,233C173.418,253.249 128.465,300.667 82,388C80.245,389.228 78.578,389.189 77,388C36.306,248.121 50.36,127.371 118,72C51.841,100.534 38.522,171.219 40.545,251.737C42.194,317.358 56.683,388.525 78,429C118.796,326.285 190.724,247.033 260,233Z" style="fill:rgb(246,210,98);"/>
    </g>
</svg>
