<?xml version="1.0" encoding="UTF-8" standalone="no"?>
<!DOCTYPE svg PUBLIC "-//W3C//DTD SVG 1.1//EN" "http://www.w3.org/Graphics/SVG/1.1/DTD/svg11.dtd">
<svg width="1500" height="2100" viewBox="0 0 1500 2100" version="1.1" xmlns="http://www.w3.org/2000/svg" xmlns:xlink="http://www.w3.org/1999/xlink" xml:space="preserve" xmlns:serif="http://www.serif.com/" style="fill-rule:evenodd;clip-rule:evenodd;stroke-linejoin:round;stroke-miterlimit:2;">
    <path id="Rules" d="M1338,1320C1355.79,1321.74 1371.52,1337.85 1375,1356C1365.89,1373.04 1369.07,1393.83 1380,1417L1380,1519.02C1367.02,1537.83 1368.42,1560.93 1380,1587.91L1380,1692.65C1371.01,1719.95 1370.08,1745.51 1380,1768.73L1380,1826C1378.79,1905.42 1352.32,1933.48 1307,1934L851,1934C819.938,1908.94 786.736,1895.29 750.848,1895.98L750,1896C713.786,1895.08 680.307,1908.75 649,1934L193,1934C147.678,1933.48 121.206,1905.42 120,1826L120,1768.73C129.921,1745.51 128.994,1719.95 120,1692.65L120,1587.91C131.577,1560.93 132.98,1537.83 120,1519.02L120,1417C130.932,1393.83 134.108,1373.04 125,1356C128.482,1337.85 144.213,1321.74 162,1320L1338,1320Z" style="fill:rgb(0,117,190);"/>
</svg>
