<?xml version="1.0" encoding="UTF-8" standalone="no"?><!DOCTYPE svg PUBLIC "-//W3C//DTD SVG 1.1//EN" "http://www.w3.org/Graphics/SVG/1.1/DTD/svg11.dtd"><svg width="1500" height="2100" viewBox="0 0 1500 2100" version="1.1" xmlns="http://www.w3.org/2000/svg" xmlns:xlink="http://www.w3.org/1999/xlink" xml:space="preserve" xmlns:serif="http://www.serif.com/" style="fill-rule:evenodd;clip-rule:evenodd;stroke-linejoin:round;stroke-miterlimit:2;"><path id="pinline" d="M1421,1422c0,-1.105 -0.895,-2 -2,-2l-1328,0c-1.105,0 -2,0.895 -2,2l0,584c0,1.105 0.895,2 2,2l1328,0c1.105,0 2,-0.895 2,-2l0,-584Zm-8,6l0,572c0,-0 -1316,0 -1316,0c-0,-0 0,-535.101 0,-572c55.783,0 1260.22,0 1316,0l0,0Zm8,-1334c0,-1.105 -0.895,-2 -2,-2l-1328,0c-1.105,0 -2,0.895 -2,2l0,103c0,1.105 0.895,2 2,2l1328,0c1.105,0 2,-0.895 2,-2l0,-103Zm-8,6l0,91c0,0 -1316,0 -1316,0c0,0 0,-91 0,-91l1316,0Z" style="fill:#0075be;"/></svg>