<?xml version="1.0" encoding="UTF-8" standalone="no"?>
<!DOCTYPE svg PUBLIC "-//W3C//DTD SVG 1.1//EN" "http://www.w3.org/Graphics/SVG/1.1/DTD/svg11.dtd">
<svg width="1500" height="2100" viewBox="0 0 1500 2100" version="1.1" xmlns="http://www.w3.org/2000/svg" xmlns:xlink="http://www.w3.org/1999/xlink" xml:space="preserve" xmlns:serif="http://www.serif.com/" style="fill-rule:evenodd;clip-rule:evenodd;stroke-linejoin:round;stroke-miterlimit:2;">
    <g id="Pinline--Front-" serif:id="Pinline (Front)" transform="matrix(3.75,0,0,3.75,0,0)">
        <path d="M361.067,24.963C360.014,25.199 358.862,25.282 358.133,25.175C355.621,24.806 347.779,24.84 347.276,25.222C346.708,25.653 341.989,25.747 341.733,25.333C341.49,24.939 332.993,24.981 332.596,25.378C332.359,25.615 331.854,25.61 330.476,25.357C326.973,24.713 319.149,25.741 318.388,26.944C317.315,28.639 318.223,29.386 320.993,29.089C322.134,28.967 324.987,28.936 327.333,29.021C333.266,29.237 338.218,29.19 342.133,28.88C344.472,28.696 348.445,28.72 355.45,28.96C366.416,29.337 365.755,29.38 366,28.265C366.62,25.443 364.692,24.153 361.067,24.963M250.4,25.481C249.732,25.725 247.532,25.822 242.667,25.822C238.927,25.822 234.427,25.961 232.667,26.131C230.707,26.32 224.352,26.434 216.267,26.425C209.007,26.417 201.207,26.434 198.933,26.463C194.981,26.513 191.084,26.504 180.8,26.422C178.233,26.401 175.233,26.273 174.133,26.137C172.296,25.91 163.58,26.141 158.177,26.561C156.835,26.665 155.955,26.6 155.377,26.356C154.727,26.082 152.022,25.988 143.6,25.946C137.587,25.917 131.347,25.883 129.733,25.872C121.009,25.81 112.35,26.037 111.594,26.346C110.698,26.714 70.582,26.654 68.782,26.283C67.211,25.959 65.676,27.981 66.428,29.385C66.709,29.91 66.871,29.928 69.961,29.763C78.712,29.298 201.152,29.513 202.862,29.997C204.402,30.433 205.616,30.452 219.528,30.258C227.781,30.142 237.233,30.037 240.533,30.024C248.498,29.992 273.319,29.588 280.584,29.372C284.838,29.245 286.566,29.285 287.117,29.521C289.353,30.48 293.067,28.39 293.067,26.173C293.067,25.198 291.015,24.555 290.51,25.371C290.374,25.591 289.347,25.621 286.828,25.48C280.106,25.103 251.43,25.103 250.4,25.481M307.903,25.786C307.824,25.865 306.892,25.975 305.833,26.031C303.765,26.141 303.531,26.251 301.467,28.098C299.519,29.84 299.766,29.942 305.502,29.761C314.83,29.467 314.123,29.609 315.231,27.817C316.364,25.983 315.868,25.685 311.647,25.662C309.666,25.652 307.981,25.708 307.903,25.786M42.533,26.413C41.8,26.544 39.7,26.714 37.867,26.792C31.509,27.061 30.995,27.266 31.284,29.417C31.523,31.198 32.96,32.129 33.607,30.921C34.155,29.896 34.975,29.827 46.378,29.843C58.154,29.859 58.133,29.861 58.133,28.533C58.133,27.038 55.285,25.964 52.574,26.436C51.024,26.706 48.09,26.647 44.8,26.279C44.287,26.222 43.267,26.282 42.533,26.413M27.037,30.806C26.398,31.445 26.344,31.65 26.478,32.946C26.595,34.079 26.526,34.508 26.147,34.99C25.532,35.772 25.241,38.133 25.2,42.667C25.183,44.647 25.068,47.192 24.946,48.323C24.711,50.508 25.094,51.733 26.015,51.733C26.726,51.733 26.798,52.565 26.13,53.069C25.398,53.622 25.35,54.957 25.996,56.79C26.218,57.419 26.4,58.242 26.4,58.619C26.4,60.486 28.399,61.927 29.23,60.659C30.087,59.35 30.455,48.814 29.718,46.695C29.346,45.628 29.35,45.365 29.767,43.748C30.203,42.056 30.2,41.697 29.709,36.12L29.194,30.267L28.469,30.183C27.965,30.125 27.528,30.315 27.037,30.806M372.797,43.739C372.638,44.035 372.4,45.233 372.267,46.4C372.133,47.568 371.883,48.994 371.711,49.571C370.871,52.373 372.91,52.854 374.259,50.171C375.568,47.57 374.131,41.247 372.797,43.739M314.003,59.023C312.6,59.26 312.118,59.453 312.05,59.802C312.001,60.058 311.82,60.268 311.647,60.269C292.26,60.422 277.031,60.608 274.667,60.722C272.98,60.803 259.942,60.907 245.694,60.953C222.986,61.027 219.665,61.088 218.794,61.452C217.368,62.048 216.972,62.008 217.349,61.305C217.776,60.505 217.446,60.323 215.333,60.193C214.307,60.129 212.627,59.88 211.6,59.639C208.122,58.821 203.87,59.271 200.678,60.794C197.608,62.26 196.861,62.452 196.124,61.97C195.643,61.654 194.807,61.554 192.742,61.566C191.234,61.574 184.54,61.513 177.867,61.429C169.635,61.327 163.593,61.388 159.076,61.619C153.848,61.887 151.129,61.894 146.409,61.65C143.104,61.479 137.679,61.308 134.354,61.27L128.307,61.2L128.449,60.491C128.91,58.179 119.625,58.88 117.336,61.33C116.456,62.272 116.1,62.335 115.864,61.591C115.686,61.032 112.585,61.045 111.053,61.611C110.752,61.722 110.282,61.689 110.01,61.536C109.325,61.153 104.437,61.498 103.47,61.999C101.984,62.767 101.076,64.855 101.933,65.531C102.338,65.85 109.034,65.929 111.526,65.645C113.666,65.401 113.557,65.686 110.8,67.542C109.92,68.135 108.18,69.426 106.933,70.411C104.662,72.207 99.974,74.461 97.6,74.898C95.121,75.356 92.963,77.357 92.007,80.084C91.276,82.168 90.645,83.467 90.363,83.467C90.077,83.467 86.4,79.738 86.4,79.447C86.4,78.767 82.483,77.369 81.37,77.651C80.486,77.876 79.961,77.847 78.86,77.512C78.093,77.279 77.032,77.107 76.5,77.13C75.806,77.159 75.3,76.973 74.703,76.472C73.964,75.85 72.64,75.351 70.318,74.82C69.902,74.725 68.622,73.741 67.438,72.607C66.267,71.484 64.983,70.363 64.587,70.116C64.191,69.87 63.514,69.292 63.083,68.834C60.09,65.647 59.912,71.842 62.854,76.852C63.516,77.98 64.285,79.109 64.563,79.36C65.384,80.104 65.264,82.604 64.366,83.456C62.705,85.033 63.115,86.693 65.029,86.144C65.694,85.953 65.921,86.023 66.443,86.579C67.006,87.178 67.206,87.226 68.533,87.08C70.894,86.819 71.682,86.828 75.2,87.159C78.521,87.472 80.777,87.195 81.72,86.358C82.206,85.927 83.439,86.116 83.733,86.667C84.116,87.381 86.502,87.381 88.533,86.667C89.34,86.383 90.285,86.147 90.634,86.142C90.982,86.137 91.976,85.773 92.842,85.333C93.708,84.893 94.665,84.533 94.969,84.533C95.274,84.533 96.043,84.182 96.68,83.752C97.316,83.323 98.354,82.741 98.985,82.46C99.617,82.178 101.388,81.011 102.923,79.867C104.457,78.722 106.317,77.506 107.056,77.163C107.795,76.821 109.96,75.282 111.867,73.745C113.773,72.208 115.873,70.692 116.532,70.376C117.928,69.708 118.414,69.343 120.933,67.073C123.241,64.994 127.488,61.6 127.782,61.6C128.455,61.6 127.965,63.169 127.267,63.249C126.691,63.315 126.515,63.491 126.449,64.064C126.365,64.794 126.569,64.967 128.06,65.434C128.497,65.571 128.497,65.621 128.06,66.386C127.456,67.446 127.984,68.527 129.289,68.902C130.24,69.174 133.463,72.831 134.441,74.748C134.814,75.478 135.288,75.904 136.128,76.265C136.908,76.599 137.634,77.217 138.31,78.122C139.544,79.774 141.036,80.553 143.439,80.799C144.408,80.898 145.853,81.246 146.651,81.572C150.877,83.301 161.231,84.993 163.257,84.287C163.709,84.129 164.995,84 166.114,84C167.43,84 168.337,83.868 168.683,83.625C168.978,83.419 170.294,83.055 171.609,82.816C172.924,82.578 174.6,82.251 175.333,82.091C176.989,81.729 182.257,79.737 186.667,77.805C188.5,77.001 190.204,76.273 190.453,76.186C190.702,76.099 192.442,75.081 194.32,73.925C199.356,70.824 199.465,70.765 201.171,70.278C202.066,70.023 203.327,69.381 204.104,68.785C204.853,68.21 206.187,67.192 207.067,66.523C208.485,65.445 212.643,63.483 213.533,63.471C213.717,63.469 213.867,63.765 213.867,64.13C213.867,64.635 214.088,64.885 214.797,65.182C215.468,65.462 215.682,65.689 215.565,65.995C215.335,66.596 216.217,67.467 217.055,67.467C217.444,67.467 218.235,67.814 218.814,68.238C219.393,68.662 220.407,69.169 221.067,69.364C222.646,69.831 224.886,71.033 227.122,72.614C232.408,76.353 233.321,77.02 234.487,78C236.079,79.338 243.053,83.2 243.875,83.2C244.051,83.2 245.321,83.73 246.698,84.379C250.433,86.138 256.287,88.012 258.735,88.233C260.417,88.385 260.878,88.526 261.201,88.988C261.591,89.545 264.041,90.263 268,90.981C268.807,91.128 270.067,91.357 270.8,91.491C276.217,92.479 289.977,92.897 295.949,92.256C315.298,90.176 320.086,88.846 331.463,82.394C332.466,81.825 333.333,81.704 333.333,82.134C333.333,83.08 344.418,94.875 347.972,97.711C348.988,98.522 350.073,99.541 350.383,99.976C350.693,100.411 351.604,101.089 352.409,101.483C353.241,101.89 354.703,103.017 355.802,104.099C357.19,105.465 358.333,106.295 359.867,107.049C361.04,107.626 362.347,108.383 362.771,108.731C363.873,109.633 365.855,110.591 367.081,110.814C367.66,110.919 368.486,111.184 368.918,111.402C370.348,112.127 372.769,112.694 375.642,112.978C377.326,113.144 379.339,112.367 379.692,111.416C381.142,107.51 381.218,106.359 380.135,104.707C379.348,103.505 378.766,103.349 374.4,103.167C372.127,103.073 369.367,102.844 368.267,102.657C367.167,102.471 365.859,102.33 365.361,102.343C364.735,102.36 363.996,102.062 362.961,101.376C359.611,99.152 356.435,97.795 355.31,98.106C354.522,98.323 354.163,98.306 353.742,98.03C352.71,97.354 348.278,92.664 346.782,90.667C345.959,89.567 344.921,88.285 344.475,87.818C343.853,87.168 343.696,86.801 343.803,86.246C344.085,84.769 340.986,79.176 339.532,78.537C338.363,78.023 339.257,77.115 344.533,73.46C345.78,72.596 347.82,70.981 349.067,69.87C350.313,68.76 352.092,67.374 353.02,66.792C353.947,66.21 355.265,65.283 355.948,64.733C357.356,63.6 357.6,63.526 357.6,64.234C357.6,65.055 358.288,65.418 359.535,65.253C363.854,64.684 364.253,64.478 366.229,61.794C368.046,59.326 364.748,58.658 361.559,60.847C360.33,61.691 359.86,61.481 360.653,60.441C361.81,58.925 361.626,58.665 359.4,58.676C357.025,58.688 354.925,59.171 352.682,60.22C351.389,60.826 350.94,60.935 350.838,60.67C350.729,60.386 348.28,60.33 337.952,60.375L325.2,60.432L323.467,59.644C321.443,58.724 317.354,58.456 314.003,59.023M378.8,59.342C376.101,60.681 376.201,64.8 378.932,64.8C381.279,64.8 383.707,60.811 382.248,59.352C381.715,58.82 379.865,58.814 378.8,59.342M72.661,61.848C70.32,62.409 68.485,65.6 70.503,65.6C70.671,65.6 71.226,65.824 71.737,66.098C72.468,66.489 72.809,66.536 73.333,66.317C73.7,66.164 75.205,66.072 76.678,66.113C80.297,66.213 81.325,64.93 78.572,63.75C77.96,63.488 77.29,63.069 77.082,62.819C76.178,61.73 74.6,61.383 72.661,61.848M87.139,62.564C84.819,63.743 84.984,65.563 87.38,65.235C88.076,65.14 88.749,65.197 89.036,65.376C90.205,66.106 92.626,64.298 92.479,62.804L92.4,62L90.396,61.963C88.763,61.934 88.16,62.045 87.139,62.564M346.133,63.733C345.767,64.02 345.329,64.257 345.16,64.261C344.992,64.264 344.229,64.687 343.467,65.2C342.318,65.973 340.533,66.474 340.533,66.024C340.533,65.875 343.244,64.533 343.545,64.533C343.676,64.533 344.103,64.307 344.492,64.031C345.138,63.573 345.833,63.303 346.533,63.237C346.68,63.223 346.5,63.447 346.133,63.733M323.766,64.892C324.848,65.529 326.324,66.399 327.046,66.825C327.768,67.251 329.148,68.02 330.113,68.533C332.369,69.734 332.394,70.038 330.334,71.239C327.951,72.628 323.019,74.933 322.43,74.933C322.156,74.933 321.279,75.232 320.482,75.597C319.685,75.962 318.653,76.336 318.188,76.429L317.342,76.598L317.479,73.566C317.764,67.242 318.346,64.8 319.569,64.8C320.112,64.8 320.636,64.595 320.933,64.267C321.565,63.569 321.492,63.552 323.766,64.892M309.867,65.133C309.867,65.463 310.161,66.813 310.521,68.133C311.212,70.673 311.733,74.199 311.733,76.341C311.733,77.965 311.039,78.33 306.125,79.289C304.296,79.646 301.72,80.158 300.4,80.425C297.74,80.965 290.078,81.008 287.105,80.5C286.246,80.353 283.366,80.268 280.705,80.311C277.137,80.368 275.707,80.299 275.257,80.046C274.921,79.858 273.301,79.596 271.657,79.465C268.303,79.197 262.449,77.738 261.694,76.983C261.593,76.882 260.961,76.8 260.288,76.8C259.615,76.8 258.226,76.56 257.2,76.267C256.174,75.973 255.061,75.733 254.726,75.733C253.539,75.733 250.801,74.609 249.814,73.717C248.611,72.631 247.861,72.412 246.123,72.643C245.179,72.768 244.584,72.702 244.017,72.409C243.582,72.184 243.034,72 242.798,72C242.563,72 241.267,71.472 239.918,70.827C238.57,70.181 237.077,69.507 236.6,69.328C236.123,69.148 235.733,68.924 235.733,68.828C235.733,68.733 235.283,68.422 234.733,68.137C233.184,67.335 231.467,66.135 231.467,65.854C231.467,65.696 237.951,65.6 248.651,65.6C259.819,65.6 265.893,65.507 266,65.333C266.107,65.16 272.901,65.057 285.416,65.038C296.004,65.022 305.387,64.919 306.267,64.81C309.398,64.422 309.867,64.464 309.867,65.133M133.183,65.572C133.264,65.703 133.135,65.886 132.896,65.977C132.343,66.19 130.667,65.884 130.667,65.57C130.667,65.26 132.991,65.262 133.183,65.572M145.813,65.966C146.399,66.264 150.498,66.356 167.816,66.462C181.343,66.545 189.195,66.688 189.363,66.856C189.729,67.222 188.611,67.917 187.306,68.134C185.847,68.377 184.871,68.785 183.342,69.792C181.993,70.68 181.716,70.786 178.667,71.596C177.713,71.849 176.273,72.28 175.467,72.554C174.66,72.827 172.62,73.175 170.933,73.326C169.247,73.477 167.387,73.735 166.8,73.9C164.706,74.488 158.956,73.974 156.906,73.015C155.94,72.563 154.41,72.099 153.508,71.985C150.896,71.656 146.703,70.264 144.77,69.086C144.273,68.783 143.633,68.535 143.347,68.534C142.616,68.533 138.933,66.379 138.933,65.952C138.933,65.445 144.811,65.456 145.813,65.966M50.667,73.86C50.667,75.602 55.698,80.644 56.955,80.162C58.095,79.724 56.641,76.684 55.381,76.87C54.236,77.038 53.415,76.617 53.094,75.697C52.38,73.648 50.667,72.351 50.667,73.86M68.561,92.837C67.688,93.167 62.904,97.341 61.67,98.851C61.118,99.526 59.197,101.697 57.4,103.675C55.603,105.652 54.133,107.368 54.133,107.488C54.133,107.607 53.503,108.129 52.733,108.648C51.085,109.758 47.689,112.995 45.511,115.533C44.661,116.523 43.755,117.333 43.497,117.333C43.239,117.333 42.557,117.69 41.981,118.126C41.405,118.562 40.745,118.922 40.515,118.926C40.124,118.933 37.842,120.688 37.644,121.133C37.596,121.243 37.453,121.333 37.328,121.333C37.202,121.333 35.982,122.087 34.617,123.009C29.595,126.397 27.781,127.358 27.154,126.966C26.89,126.802 25.93,126.667 25.021,126.667L23.368,126.667L21.015,129.046C19.334,130.747 18.435,131.907 17.866,133.113C17.428,134.041 16.829,135.227 16.535,135.749C15.812,137.032 15.355,139.559 15.721,140.243C15.874,140.53 16,141.887 16,143.259C16,147.087 17.379,149.304 18.789,147.745C19.088,147.415 19.615,147.2 20.125,147.2C20.748,147.2 21.118,146.995 21.55,146.411C21.913,145.92 22.562,145.5 23.267,145.299C23.89,145.122 24.76,144.716 25.2,144.396C25.64,144.077 26.439,143.609 26.975,143.356C27.979,142.883 28.271,142.392 28.813,140.278C29.16,138.921 30.15,137.39 31.633,135.917C32.783,134.774 33.07,135.004 32.43,136.557C32.193,137.13 31.808,138.066 31.574,138.635C30.855,140.38 31.962,141.489 33.268,140.333C33.559,140.077 35.724,137.81 38.08,135.295C43.065,129.975 43.403,129.342 42.4,127.2C41.375,125.012 42.401,121.594 43.723,122.791C44.412,123.414 45.183,123.218 45.272,122.397C45.553,119.799 45.923,119.229 48.829,116.91C50.724,115.398 51.263,115.229 52.118,115.875C52.402,116.09 52.786,116.267 52.97,116.267C53.783,116.267 63.254,107.152 64.672,105.006C65.086,104.379 65.868,103.207 66.41,102.4C69.946,97.138 71.131,91.868 68.561,92.837M30.281,96.1C29.271,97.171 28.945,98.818 29.523,99.932C29.716,100.304 29.867,101.492 29.867,102.646C29.867,104.872 30.253,105.816 31.04,105.514C32.109,105.104 32.339,103.697 32.178,98.568C32.066,95.023 31.72,94.574 30.281,96.1M383.56,133.314C382.388,134.029 381.185,135.883 380.616,137.853C380.188,139.331 379.938,139.692 378.418,141.027C377.474,141.856 376.094,143.113 375.351,143.821C374.608,144.529 373.1,145.849 372,146.754C368.151,149.921 364.54,154.027 364.531,155.245C364.529,155.44 364.209,156.26 363.818,157.067C362.55,159.688 362.408,160.306 362.404,163.245C362.398,167.646 363.683,168.871 366.312,166.967C366.894,166.545 367.659,166.108 368.012,165.996C368.364,165.884 369.496,164.939 370.526,163.895C374.632,159.737 379.579,156.116 382.61,155.05C384.505,154.384 385.067,153.818 385.067,152.576C385.067,151.679 385.266,151.384 386.933,149.807C389.027,147.828 389.375,146.73 388.232,145.708C387.168,144.756 386.4,143.255 386.4,142.126C386.4,141.293 386.235,140.888 385.688,140.381L384.975,139.721L385.555,138.689C386.762,136.543 386.93,136.106 386.932,135.121C386.935,133.168 385.266,132.274 383.56,133.314M10.453,157.653C9.619,158.488 10.069,160.373 11.595,162.43C13.325,164.762 13.547,165.867 12.286,165.867C10.395,165.867 10.241,167.193 11.733,170.634C12.32,171.987 12.8,173.336 12.8,173.633C12.8,173.93 13.435,174.854 14.211,175.686C14.987,176.519 16.024,177.68 16.515,178.267C17.007,178.853 17.82,179.589 18.322,179.9C18.824,180.212 19.437,180.87 19.684,181.361C19.987,181.964 20.413,182.334 20.994,182.498C21.504,182.641 21.925,182.97 22.029,183.303C22.125,183.613 22.917,184.587 23.788,185.467C27.31,189.025 27.941,189.849 27.586,190.423C27.326,190.843 27.699,192.461 28.163,192.925C29.327,194.089 30.984,192.628 32.238,189.333C32.712,188.087 33.346,186.804 33.648,186.483C34.782,185.274 35.218,181.88 34.438,180.323C34.154,179.756 33.812,178.157 33.637,176.58C33.313,173.666 33.113,173.068 32.106,172C30.016,169.785 27.368,167.467 26.928,167.467C26.789,167.467 25.303,166.805 23.628,165.996C21.952,165.188 20.004,164.418 19.298,164.287C18.254,164.091 17.795,163.807 16.828,162.757C11.65,157.136 11.273,156.834 10.453,157.653M364.362,230.081C362.796,231.617 361.272,233.475 360.771,234.457C360.487,235.014 360.012,235.619 359.715,235.802C356.285,237.913 357.201,243.214 361.296,244.951C361.789,245.16 362.809,245.927 363.563,246.655C364.871,247.92 365.888,248.671 369.929,251.359C372.825,253.286 374.828,255.303 375.739,257.212C377.128,260.122 380.064,263.467 381.229,263.467C382.6,263.467 383.467,262.152 383.467,260.071C383.467,259.061 383.721,257.227 384.033,255.996C384.537,254.002 384.564,253.563 384.283,251.987C383.72,248.84 383.761,248.639 385.226,247.35L386.533,246.2L386.533,244.477C386.533,241.176 381.592,236.528 376.267,234.821C375.02,234.421 373.16,233.64 372.133,233.086C371.107,232.531 369.935,231.997 369.53,231.899C369.125,231.802 368.288,231.184 367.67,230.528C366.321,229.094 365.482,228.981 364.362,230.081M306.8,306.4C305.92,306.67 304.411,306.9 303.448,306.912C301.116,306.94 299.358,307.575 298.084,308.849L297.044,309.889L295.54,309.611C294.712,309.458 293.367,309.334 292.551,309.336C291.735,309.337 289.927,309.202 288.533,309.035C285.922,308.722 282.361,308.964 274.487,309.991C272.417,310.26 268.755,310.384 262.487,310.396C257.526,310.405 243.387,310.549 231.067,310.717C218.747,310.884 204.587,310.988 199.6,310.948C181.021,310.798 168.758,310.833 162.8,311.051C156.42,311.284 150.633,311.047 142.933,310.237C140.045,309.933 136.773,309.851 130,309.915C119.198,310.016 89.785,310.001 83.676,309.891L79.351,309.813L78.609,310.644C77.325,312.082 77.885,314.326 79.384,313.751C79.609,313.664 80.175,313.83 80.642,314.118C81.895,314.892 92.845,315.317 105.725,315.091C120.067,314.839 154.389,314.353 161.067,314.307C164.22,314.286 169.02,314.448 171.733,314.667C175.038,314.935 178.516,315.023 182.267,314.933C188.446,314.786 267.295,314.747 272.4,314.889C274.16,314.938 277.76,314.896 280.4,314.797C285.787,314.594 287.454,314.817 289.2,315.974C291.678,317.617 293.042,317.918 294.759,317.2C295.285,316.98 296.47,316.798 297.391,316.796C300.432,316.788 301.926,316.26 303.939,314.483C305.772,312.865 310.048,309.579 312.348,308.022C313.053,307.545 313.584,307.018 313.528,306.851C313.241,305.991 309.05,305.71 306.8,306.4M372.617,306.247C371.857,306.432 370.931,306.781 370.56,307.025C370.189,307.268 369.752,307.467 369.589,307.467C368.68,307.467 364.62,309.543 363.512,310.574C362.828,311.212 362.14,311.733 361.984,311.733C361.106,311.733 359.885,313.866 360.533,314.267C360.68,314.357 360.8,314.902 360.8,315.476C360.8,318.095 365.611,317.357 370.595,313.976L371.549,313.328L372.037,314.131C372.306,314.572 372.633,314.933 372.765,314.933C372.897,314.933 373.216,315.255 373.474,315.648C374.078,316.571 373.015,317.596 371.453,317.599C369.886,317.601 369.397,319.093 370.144,321.602C370.558,322.995 370.968,331.606 370.659,332.42C370.191,333.651 370.954,334.622 372.466,334.719C373.647,334.794 373.753,334.862 374.029,335.713C375.024,338.793 377.129,337.815 376.356,334.632C375.946,332.943 375.951,332.808 376.498,331.115C376.984,329.612 377.067,328.718 377.067,324.981C377.067,318.981 377.198,318.133 378.127,318.133C379.001,318.133 383.687,319.094 384.711,319.484C387.329,320.479 387.877,317.551 385.298,316.342C383.5,315.5 381.668,314.934 380.724,314.929C379.803,314.925 378.993,314.559 379.378,314.321C379.507,314.242 381.35,314.031 383.473,313.854C386.77,313.579 387.472,313.44 388.281,312.9C388.802,312.551 389.354,312.267 389.506,312.267C390.02,312.267 390.71,311.249 390.621,310.622C390.536,310.019 390.448,309.999 387.733,309.956C385.666,309.923 384.521,309.766 383.358,309.356C382.492,309.05 381.569,308.8 381.306,308.8C381.044,308.8 380.671,308.47 380.478,308.067C380.079,307.234 378.907,306.754 376.372,306.384C375.477,306.253 374.577,306.094 374.372,306.029C374.168,305.965 373.378,306.063 372.617,306.247M338.225,307.464C337.227,307.674 335.794,308.193 333.457,309.191C332.724,309.504 332.656,309.636 332.741,310.569C332.832,311.562 332.789,311.624 331.551,312.267C328.641,313.777 327.291,315.841 329,316.166C332.971,316.924 339.754,315.433 343.067,313.076C345.13,311.608 345.397,311.54 346.648,312.164C347.753,312.715 348.049,312.402 347.65,311.104C347.375,310.21 347.123,309.977 345.733,309.331C341.327,307.284 340.301,307.029 338.225,307.464M12.384,308.118C11.658,308.657 12.151,309.385 13.492,309.752C14.065,309.908 14.893,310.188 15.333,310.373C15.773,310.558 17.086,310.878 18.25,311.085C21.823,311.717 21.749,312.292 18.078,312.42C13.907,312.566 12.442,312.732 11.409,313.175C10.863,313.409 9.956,313.6 9.393,313.6C8.83,313.6 8.136,313.773 7.851,313.984C6.598,314.913 8.87,315.673 13.024,315.714C14.687,315.73 15.05,315.819 15.442,316.303L15.903,316.872L18.614,316.396C23.364,315.562 28.618,310.966 25.248,310.594C24.635,310.527 23.353,310.137 22.4,309.728C18.318,307.979 13.595,307.219 12.384,308.118M61.437,310.128C59.149,311.053 59.227,315.056 61.517,314.251C63.061,313.708 63.81,311.314 62.763,310.268C62.312,309.817 62.228,309.808 61.437,310.128M36.731,311.314C32.38,312.867 34.164,316.474 38.739,315.374C40.333,314.991 41.665,312.375 40.798,311.33C40.381,310.828 38.118,310.819 36.731,311.314M46.191,311.616C45.394,312.174 44.734,313.505 44.937,314.145C45.251,315.133 51.541,314.626 51.871,313.585C52.442,311.788 48.096,310.282 46.191,311.616M27.067,317.6C26.801,317.893 26.436,318.133 26.256,318.133C25.053,318.133 24.759,321.611 25.707,324.632C26.511,327.196 26.707,328.479 26.44,329.447C26.294,329.974 26.243,331.302 26.326,332.398C26.432,333.812 26.355,334.798 26.058,335.795C25.125,338.928 25.255,339.791 26.71,340.142C27.235,340.268 27.569,340.164 27.991,339.742C28.469,339.265 28.751,339.2 29.724,339.346C31.595,339.626 31.666,339.372 31.718,332.2C31.742,328.863 31.69,326.133 31.601,326.133C31.513,326.133 31.094,326.312 30.671,326.531C29.769,326.997 29.461,326.514 29.569,324.8C29.653,323.459 29.057,318.086 28.763,317.533C28.432,316.912 27.662,316.942 27.067,317.6M11.89,339.868C10.694,340.977 9.772,343.306 9.967,344.727C10.08,345.55 9.988,346.337 9.679,347.208C9.075,348.907 9.402,349.6 11.251,350.55C12.03,350.949 13.01,351.454 13.43,351.672C14.481,352.219 16.926,351.958 17.716,351.216C18.121,350.836 18.665,350.664 19.484,350.658C20.809,350.649 21.121,350.458 22.3,348.933C25.877,344.312 24.409,340.55 19.178,340.932L16.89,341.1L15.753,340.15C14.323,338.955 12.981,338.857 11.89,339.868M32.6,345.09C30.789,345.773 33.555,348.801 35.634,348.411C36.439,348.26 36.567,348.32 36.809,348.956C36.958,349.348 37.325,350.013 37.624,350.433C38.3,351.383 38.183,351.575 36.678,351.997C35.651,352.284 35.383,352.273 34.847,351.922C34.501,351.695 33.749,351.382 33.176,351.224C32.043,350.914 30.864,349.878 29.508,348.001C28.279,346.301 26.667,346.558 26.667,348.454C26.667,349.336 25.237,350.171 23.867,350.089C21.673,349.957 21.178,350.255 20.689,351.996C19.308,356.92 22.274,360.072 30.221,362.124C33.189,362.891 33.945,362.684 33.852,361.129C33.741,359.288 33.843,358.991 34.784,358.41C35.288,358.098 35.918,357.399 36.184,356.855C36.768,355.659 38.118,355.46 41.818,356.021C44.537,356.434 45.733,356.194 49.2,354.535L51.6,353.387L69.467,353.21C79.293,353.113 97.233,352.933 109.333,352.81C121.433,352.688 133.973,352.43 137.2,352.237C144.539,351.799 163.16,351.812 195.067,352.277C221.446,352.661 240.587,352.685 294.246,352.401C332.554,352.199 333.185,352.215 337.183,353.52L339.299,354.21L348.516,354.034C358.208,353.848 361.956,354.048 363.123,354.813C363.942,355.349 364.087,355.225 365.339,352.902C366.332,351.059 366.282,350.627 364.991,349.865C364.502,349.577 363.894,348.903 363.639,348.368L363.175,347.396L360.054,347.631C358.338,347.761 350.753,347.807 343.2,347.733C335.647,347.66 321.277,347.619 311.267,347.643C291.05,347.69 247.217,347.696 194.733,347.659C175.703,347.646 147.128,347.735 131.232,347.857C108.211,348.034 101.641,348.009 98.944,347.734C95.782,347.412 95.354,347.426 92.512,347.951C89.258,348.552 57.354,348.919 56.491,348.366C55.162,347.513 54.623,347.368 52.639,347.325C51.251,347.295 50.164,347.121 49.598,346.839C48.01,346.047 46.353,346.368 44.923,347.747L44.113,348.529L42.714,348.017C41.945,347.736 40.903,347.144 40.398,346.701C39.612,346.011 38.052,345.34 37.221,345.335C37.086,345.334 36.75,345.537 36.474,345.787C36.009,346.208 35.913,346.209 35.12,345.806C33.365,344.914 33.194,344.865 32.6,345.09M388.267,346.977C384.107,347.821 379.743,348.303 375.456,348.392C370.089,348.504 368.665,349.725 370.935,352.269C371.371,352.757 371.894,353.407 372.097,353.712C372.454,354.25 372.644,354.264 378.226,354.189C383.24,354.122 384.074,354.169 384.665,354.556C385.53,355.124 389.454,354.873 390.2,354.203C391.204,353.301 390.52,351.651 389.381,352.229C388.287,352.783 375.197,352.239 374.465,351.609C373.351,350.65 373.858,350.488 378.592,350.289C385.621,349.993 390.933,348.886 390.933,347.717C390.933,347.301 389.814,346.498 389.516,346.7C389.489,346.718 388.927,346.843 388.267,346.977M372.626,358.932C372.311,359.059 371.831,359.5 371.56,359.912C371.288,360.324 370.262,361.446 369.278,362.405C367.238,364.393 366.527,365.73 366.935,366.805C367.081,367.188 367.2,367.835 367.2,368.243C367.2,370.598 370.288,370.415 373.604,367.863C375.374,366.502 375.757,365.683 375.097,364.675C374.709,364.084 374.706,363.859 375.063,362.344C375.785,359.285 374.882,358.022 372.626,358.932M26.731,366.722C25.963,367.648 27.534,372.267 28.617,372.267C29.584,372.267 30.096,368.215 29.267,367.134C28.802,366.529 27.119,366.255 26.731,366.722M371.89,379.8C371.676,380.13 371.356,381 371.178,381.733C370.678,383.792 369.909,385.238 368.911,385.999C367.824,386.828 367.673,387.994 368.558,388.733C371.841,391.477 373.153,393.986 370.267,392C367.762,390.276 366.291,391.895 367.653,394.875C368.014,395.663 368.137,396.983 368.253,401.305C368.429,407.808 368.334,407.636 371.868,407.898C374.394,408.085 375.422,407.526 375.05,406.17C374.885,405.57 374.699,403.278 374.614,400.8C374.601,400.433 374.786,399.293 375.024,398.267C375.526,396.106 375.585,394.125 375.188,392.798C374.807,391.527 374.563,387.213 374.648,383.258C374.727,379.586 374.586,379.2 373.173,379.2C372.539,379.2 372.166,379.374 371.89,379.8M26.303,380.067C25.878,380.744 25.508,385.101 25.528,389.2C25.591,402.461 25.597,402.626 26.022,403.05C27.563,404.592 29.579,402.171 29.595,398.761C29.615,394.238 29.36,381.704 29.237,381.2C29.166,380.907 29.098,380.536 29.087,380.376C29.024,379.478 26.825,379.233 26.303,380.067M373.2,416.343C372.629,416.689 371.098,418.006 369.674,419.373C368.786,420.227 368.538,421.307 369.047,422.111C369.187,422.332 369.188,422.747 369.05,423.11C368.446,424.7 368.633,439.122 369.268,439.797L369.863,440.43L369.733,516.4L297.291,516.467L224.848,516.534L223.694,515.184C223.059,514.441 221.998,513.477 221.336,513.04C220.675,512.603 219.564,511.84 218.867,511.343C212.144,506.552 191.412,505.868 184.59,510.212C183.899,510.653 182.264,511.553 180.958,512.214C179.311,513.046 177.989,513.978 176.65,515.251L174.717,517.087L165.558,516.942C160.521,516.862 154.84,516.8 152.933,516.804C123.016,516.865 104.594,516.826 71.467,516.632L31.867,516.4L31.794,511.379L31.721,506.357L30.526,505.179C28.173,502.859 26.002,504.722 27.337,507.916C27.862,509.173 27.621,511.791 26.768,514.088C26.369,515.163 26.077,516.69 25.964,518.29L25.788,520.803L95.894,520.689C134.452,520.626 166.48,520.552 167.067,520.525C167.653,520.498 169.779,520.565 171.79,520.675C176.022,520.906 175.415,521.141 179.296,517.772C180.742,516.516 182.362,515.346 182.896,515.171C183.43,514.996 184.527,514.525 185.333,514.126C187.394,513.105 188.891,512.63 191.2,512.265C192.3,512.092 193.8,511.847 194.533,511.723C204.996,509.944 217.785,513.412 221.999,519.171C223.604,521.364 223.436,521.275 225.491,521.013C226.504,520.884 228.173,520.806 229.2,520.84C230.227,520.874 263.497,520.879 303.133,520.851L375.2,520.8L375.201,480.867C375.203,453.621 375.293,440.611 375.485,439.918C375.719,439.076 375.644,438.373 375.046,435.803C374.391,432.986 374.344,432.436 374.528,429.752C374.639,428.128 374.825,424.94 374.941,422.667C375.058,420.393 375.235,418.215 375.336,417.826C375.663,416.564 374.344,415.648 373.2,416.343M28.782,470.511C27.234,474.012 27.499,479.018 29.284,479.974C30.075,480.397 30.133,480.01 30.133,474.378C30.133,468.817 29.868,468.057 28.782,470.511" style="fill:rgb(239,56,39);"/>
    </g>
</svg>
