<?xml version="1.0" encoding="UTF-8" standalone="no"?>
<!DOCTYPE svg PUBLIC "-//W3C//DTD SVG 1.1//EN" "http://www.w3.org/Graphics/SVG/1.1/DTD/svg11.dtd">
<svg width="1500" height="2100" viewBox="0 0 1500 2100" version="1.1" xmlns="http://www.w3.org/2000/svg" xmlns:xlink="http://www.w3.org/1999/xlink" xml:space="preserve" xmlns:serif="http://www.serif.com/" style="fill-rule:evenodd;clip-rule:evenodd;stroke-linejoin:round;stroke-miterlimit:2;">
    <path id="Textboxes--Front-" serif:id="Textboxes (Front)" d="M676.365,1319.87C712.039,1320.35 741.514,1321.15 741.866,1321.63C742.526,1322.54 745.493,1322.56 874.5,1322.69C983.921,1322.81 992.936,1322.76 983.501,1322.08C973.294,1321.34 1050.34,1321.66 1120.5,1322.64C1199.57,1323.75 1201.95,1323.76 1208.46,1323.19C1211.73,1322.91 1213.66,1322.41 1212.75,1322.09C1205.43,1319.52 1256.81,1322.89 1273.95,1326.1C1286.59,1328.47 1283.27,1331.03 1297.5,1330.58C1360.28,1328.6 1358,1328.61 1358,1330.29C1358,1331.16 1358.84,1332.13 1359.86,1332.46C1360.89,1332.78 1363.59,1335.26 1365.87,1337.96C1368.15,1340.66 1370.94,1343.16 1372.08,1343.52C1374.53,1344.3 1374.26,1345.26 1369.54,1352.37C1360.38,1366.18 1360.62,1390.69 1370.04,1402.55C1374.22,1407.81 1373.97,1411.37 1369.01,1417.36C1361.41,1426.56 1360.26,1444.44 1366.49,1456.38C1373.44,1469.68 1372.46,1477.34 1363.53,1479.58C1357.56,1481.08 1357.1,1485.75 1361.95,1495.71C1365.47,1502.94 1369.53,1521.5 1367.59,1521.5C1358.77,1521.5 1354.78,1535.66 1361.33,1543.71C1363.35,1546.18 1369,1557.73 1369,1559.37C1369,1559.72 1368.13,1560 1367.08,1560C1358.64,1560 1357.2,1569.08 1362.98,1585.79C1366.44,1595.76 1366.27,1603.72 1362.44,1611.11C1359.25,1617.29 1362.4,1630.47 1369.08,1638.86L1373.15,1643.98L1371.22,1646.74C1365.65,1654.68 1364.29,1663.14 1368.03,1666.52C1369.11,1667.51 1370,1669.49 1370,1670.93C1370,1672.38 1370.73,1674.59 1371.62,1675.86C1374.61,1680.13 1371.72,1691.81 1363.08,1710.42C1356.6,1724.37 1356.79,1728.99 1364.16,1736.72C1367.78,1740.52 1370.28,1744.18 1371.09,1746.9C1372.48,1751.54 1375.82,1754 1380.75,1754C1386.13,1754 1386,1752.67 1386,1806.09L1386,1855.77L1383.5,1857.41C1379.91,1859.76 1379.75,1873.14 1383.25,1877.59C1385.45,1880.38 1385.51,1881.12 1385.79,1909.04L1386.09,1937.63L1114.53,1937.84L842.974,1938.05L836.235,1931.73C793.065,1891.27 705.885,1893.48 659.389,1936.22L655.275,1940L621.578,1940C601.466,1940 588.109,1939.63 588.446,1939.08C589.639,1937.16 587.104,1937.09 565.999,1938.47C550.136,1939.51 418.965,1939.85 409.999,1938.87C403.83,1938.2 351.844,1937.9 261.75,1938.03L123,1938.21L123,1919.26C123,1904.06 123.311,1899.69 124.568,1897.17C130.594,1885.08 127.673,1848.27 120.356,1844.18C118.931,1843.38 118.886,1842.34 119.944,1834.89C121.009,1827.37 120.919,1825.52 119.066,1817.05C115.961,1802.84 115.946,1753.24 119.044,1748.16C121.68,1743.83 127.804,1725.71 128.606,1719.86C129.424,1713.9 127.294,1706.63 120.435,1691.99C114.555,1679.43 114.716,1681.1 118.196,1668.89C119.003,1666.07 118.845,1664.01 117.476,1659.39C114.911,1650.76 114.12,1614.99 116.415,1611.49C118.556,1608.22 118.425,1606.37 115.5,1598.6C112.099,1589.56 112.271,1587.64 116.966,1582.3C122.805,1575.67 124.999,1568.9 124.999,1557.54C124.999,1549.43 125.351,1547.46 127.609,1542.97C130.646,1536.92 132.285,1516.39 130.751,1503.6C129.735,1495.14 130.166,1479.11 131.974,1458.24C133.519,1440.43 132.446,1423.03 129.416,1416.72C127.834,1413.42 127.763,1412.4 128.854,1408.72C129.544,1406.4 131.047,1401.35 132.195,1397.5C135.034,1387.98 135.008,1373.78 132.135,1361.05C129.469,1349.24 129.293,1350.47 134.048,1347.47C136.275,1346.07 138.341,1344.15 138.638,1343.21C140.569,1337.14 141.128,1336.75 146.974,1337.42C169.264,1339.98 174.435,1339.29 190.001,1331.67L198.499,1327.5L244.001,1326.97C269.025,1326.68 296.269,1325.4 296.588,1325.08C296.903,1324.76 325.59,1324.2 360.334,1323.84C395.074,1323.48 428.674,1322.98 435,1322.73C444.75,1322.33 442.721,1323.62 460.999,1323.46C478.324,1323.31 500.824,1322.61 511.001,1321.9C521.175,1321.19 537.281,1320.6 546.791,1320.57C561.622,1320.54 563.831,1320.34 562.294,1319.17C560.768,1318.01 564.323,1317.89 586.001,1318.39C600.026,1318.71 640.688,1319.38 676.365,1319.87Z" style="fill:rgb(0,117,190);"/>
</svg>
