<?xml version="1.0" encoding="UTF-8" standalone="no"?>
<!DOCTYPE svg PUBLIC "-//W3C//DTD SVG 1.1//EN" "http://www.w3.org/Graphics/SVG/1.1/DTD/svg11.dtd">
<svg width="1500" height="2100" viewBox="0 0 1500 2100" version="1.1" xmlns="http://www.w3.org/2000/svg" xmlns:xlink="http://www.w3.org/1999/xlink" xml:space="preserve" xmlns:serif="http://www.serif.com/" style="fill-rule:evenodd;clip-rule:evenodd;stroke-linejoin:round;stroke-miterlimit:2;">
    <path id="Textboxes--Front-" serif:id="Textboxes (Front)" d="M1250.5,113.393C1260.95,113.411 1284.12,113.07 1302,112.628C1320.56,112.174 1343.62,112.226 1355.76,112.759L1377.02,113.685L1380.88,117.866C1385.12,122.464 1386.27,122.471 1393.59,117.949C1397.49,115.534 1398.18,116.209 1396.58,120.84C1394.11,127.958 1394.01,130.594 1396.05,134.595C1398.38,139.166 1398.56,142.845 1396.5,143.64C1394.58,144.375 1394.58,148.68 1396.51,152.363C1398.4,155.996 1398.39,160.166 1396.45,166.5C1393.99,174.607 1391.81,190.155 1392.49,194.753C1393.07,198.623 1392.9,199.088 1390.66,199.939C1385.64,201.848 1382.83,207.169 1383.09,214.271C1383.43,223.826 1380.86,224.97 1367,221.419C1356.45,218.719 1341.19,219.079 1329.8,222.296L1320.09,225.038L1270.3,224.707C1222.5,224.389 1220.14,224.284 1211.5,222.116C1200.7,219.405 1187.41,219.101 1177.38,221.336C1166.07,223.856 1145.06,224.933 1096,225.506C1032.74,226.241 987.641,227.115 986.812,227.621C982.031,230.535 816.863,226.913 798.611,223.493C784.275,220.808 762.765,222.33 756.39,226.489C750.15,230.554 743.55,231.289 723.585,230.134C703.148,228.949 629.089,229.106 586.999,230.426C571.568,230.91 548.749,230.801 529.2,230.149L496.901,229.076L490.699,226.024C477.679,219.619 452.46,219.761 438.188,226.324C433.965,228.262 431.445,228.514 412.841,228.825L392.179,229.174L384.9,225.585C376.665,221.528 363.683,220.474 358.155,223.41C349.789,227.858 348.221,228.199 344.441,226.406C338.741,223.703 322.729,224.902 316.598,228.495L312,231.191L304.841,227.486C286.594,218.044 272.355,216.949 258.829,223.943C238.819,234.289 206.456,237.964 196.001,231.075C183.848,223.069 164.003,220.406 151.451,225.105C146.974,226.777 144.69,227.066 140.261,226.515C131.854,225.461 131.231,225.116 118.751,214.489C116.67,212.719 116.52,208.365 118.114,195.964C119.246,187.121 118.729,182.302 115.897,175.313C114.765,172.515 114.9,171.203 116.985,164.554C119.216,157.429 119.287,156.461 118.177,148.129C115.924,131.194 116.4,128.816 122.434,126.795C124.564,126.083 126.619,124.826 127.001,124.001C127.384,123.176 128.411,121.151 129.285,119.501L130.871,116.501L157.973,116.235C180.84,116.01 253.432,115.924 364.751,115.519C455.363,115.189 538.95,114.923 550.5,114.926C603.289,114.953 649.706,114.863 674.501,114.69C689.351,114.589 715.901,115.125 733.5,115.883C796.028,118.579 830.91,118.496 967.999,115.32C1008.39,114.386 1081.91,114.334 1085.14,115.241C1087.59,115.928 1087.77,116.363 1087.64,121.241C1087.47,127.504 1089.96,128.584 1096.68,125.179C1098.78,124.114 1102.85,122.029 1105.71,120.548C1114.01,116.269 1155.88,113.726 1162.23,117.12C1166.82,119.58 1180.19,119.46 1185.04,116.918C1191.53,113.516 1204.08,111.968 1219,112.725C1225.88,113.074 1240.05,113.374 1250.5,113.393ZM772.999,115.001C774.071,115.695 772.987,115.973 769.193,115.984C765.904,115.995 764.119,115.62 764.501,115.001C765.289,113.726 771.03,113.726 772.999,115.001Z" style="fill:rgb(0,123,67);"/>
</svg>
