<?xml version="1.0" encoding="UTF-8" standalone="no"?>
<!DOCTYPE svg PUBLIC "-//W3C//DTD SVG 1.1//EN" "http://www.w3.org/Graphics/SVG/1.1/DTD/svg11.dtd">
<svg width="1500" height="2100" viewBox="0 0 1500 2100" version="1.1" xmlns="http://www.w3.org/2000/svg" xmlns:xlink="http://www.w3.org/1999/xlink" xml:space="preserve" xmlns:serif="http://www.serif.com/" style="fill-rule:evenodd;clip-rule:evenodd;stroke-linejoin:round;stroke-miterlimit:2;">
    <path id="Textboxes--Front-" serif:id="Textboxes (Front)" d="M1304.95,1176.1L1312.8,1180.19L1322.65,1179.62C1328.07,1179.3 1336.36,1178.77 1341.08,1178.43C1348.43,1177.9 1349.92,1178.06 1351.4,1179.54C1352.37,1180.52 1355.64,1181.61 1358.82,1182.04L1364.5,1182.8L1358.72,1182.73C1351.38,1182.64 1350.11,1183.78 1352.67,1188.18C1355.28,1192.63 1358.61,1193.67 1365.76,1192.25C1383.21,1188.78 1384.67,1189.77 1385.68,1205.72L1386.24,1214.5L1382.6,1219.5C1380.59,1222.25 1377.79,1226.97 1376.37,1230L1373.78,1235.5L1376.35,1243.5C1379.85,1254.37 1380.9,1268.37 1378.56,1272.89C1377.62,1274.7 1376.55,1279.85 1376.17,1284.34L1375.5,1292.49L1370.1,1295.22C1367.13,1296.72 1363.88,1298.82 1362.87,1299.91C1360.79,1302.14 1359.88,1302.28 1333,1304.45C1318.77,1305.6 1308.37,1305.83 1294.5,1305.32C1277.02,1304.68 1191.81,1304.52 970.5,1304.7C923.749,1304.74 842.524,1304.59 790.001,1304.36C669.131,1303.83 614.46,1303.86 571.001,1304.48C552.026,1304.75 494.651,1305.16 443.501,1305.4C365.873,1305.78 348.919,1306.1 340.931,1307.4C333.079,1308.67 324.116,1308.87 290.944,1308.54C228.896,1307.91 219.056,1307.36 208.781,1303.92C205.635,1302.86 201.06,1302 198.611,1302C196.166,1302 191.34,1301.28 187.89,1300.39C180.638,1298.54 176.168,1298.91 170.018,1301.88C163.976,1304.8 160.733,1304.58 156.649,1301C151.83,1296.77 146.528,1294.68 139.009,1294.05C131.209,1293.39 130.41,1291.9 134.61,1285.84C139.766,1278.4 137.648,1272.3 128.771,1269.03L124.5,1267.45L123.866,1260.98C120.54,1226.93 124.849,1207.9 139.215,1193.16C145.928,1186.28 145.909,1186.29 156.765,1188.55C158.974,1189.01 161.891,1188.58 165.765,1187.22C169.395,1185.94 176.64,1184.79 185.501,1184.09C206.149,1182.43 207.78,1182.55 212.899,1186.02C218.111,1189.55 218.959,1189.64 222.03,1186.97C226.47,1183.12 228.742,1183.22 235.999,1187.58C237.731,1188.62 239.88,1188.9 243,1188.49C255.84,1186.8 268.178,1185.77 273.784,1185.9C277.346,1185.99 282.105,1185.36 284.782,1184.44C288.941,1183.03 299.231,1182.81 371.85,1182.57C419.078,1182.41 454.474,1181.91 454.849,1181.4C455.212,1180.89 476.565,1180.39 503.501,1180.25C529.901,1180.12 567.926,1179.77 588,1179.48C615.454,1179.09 628.59,1179.32 640.999,1180.42C654.068,1181.57 666.754,1181.73 702,1181.19C743.325,1180.56 969.289,1180.25 1014.5,1180.75C1025.5,1180.88 1042.78,1180.95 1052.89,1180.91C1063.13,1180.87 1071.56,1181.25 1071.89,1181.77C1072.23,1182.27 1074.08,1182.94 1076.01,1183.25C1079.02,1183.72 1091.79,1189.01 1097.24,1192.04C1099.65,1193.37 1102.68,1193.23 1108.41,1191.49C1111.11,1190.67 1116.29,1190 1119.91,1190C1128.44,1189.99 1132.69,1188.75 1139.2,1184.37C1149.09,1177.71 1148.23,1177.88 1173.35,1177.47C1197.19,1177.08 1201.91,1177.61 1204.25,1180.93C1206.56,1184.22 1213.38,1186.97 1217.53,1186.3C1220.26,1185.86 1221.11,1186.01 1220.6,1186.85C1220.07,1187.7 1224.83,1188 1239.19,1187.99C1267.78,1187.98 1274.88,1186.45 1288.3,1177.42C1297.87,1170.98 1295.5,1171.16 1304.95,1176.1Z" style="fill:rgb(0,123,67);"/>
</svg>
