<?xml version="1.0" encoding="UTF-8" standalone="no"?>
<!DOCTYPE svg PUBLIC "-//W3C//DTD SVG 1.1//EN" "http://www.w3.org/Graphics/SVG/1.1/DTD/svg11.dtd">
<svg width="1500" height="2100" viewBox="0 0 1500 2100" version="1.1" xmlns="http://www.w3.org/2000/svg" xmlns:xlink="http://www.w3.org/1999/xlink" xml:space="preserve" xmlns:serif="http://www.serif.com/" style="fill-rule:evenodd;clip-rule:evenodd;stroke-linejoin:round;stroke-miterlimit:2;">
    <rect id="Card" x="0" y="0" width="1500" height="2100" style="fill:none;"/>
    <g id="Card1" serif:id="Card">
        <path id="Textbox--Regular-" serif:id="Textbox (Regular)" d="M100,1866L100,1308.21C88.362,1294.83 78.412,1270.28 78,1242C78.412,1213.72 88.362,1189.17 100,1175.79L100,220.78C93.09,216.876 86.663,212.31 80.813,207.473C58.421,188.959 44.663,166.816 44.663,166.816L41.065,161.041L44.747,155.047C46.086,152.884 60.141,131.166 82.217,113.366C97.62,100.946 116.844,90.571 138.212,89.036C138.805,88.994 139.403,89 140,89L1394,89C1408,99.984 1421.52,127.948 1422,161C1421.59,189.276 1411.64,213.828 1400,227.213L1400,1175.79C1411.64,1189.17 1421.59,1213.72 1422,1242C1421.59,1270.28 1411.64,1294.83 1400,1308.21L1400,1948L658.935,1948C661.428,1944.02 664.145,1940.36 667.079,1937L1389,1937L1389,1314L111,1314L111,1866L100,1866ZM1388.24,1181.01C1389.44,1181.08 1390.56,1181.69 1391.26,1182.68C1405.33,1202.45 1410.29,1222.23 1410.29,1242C1410.29,1261.77 1405.33,1281.55 1391.26,1301.32C1390.51,1302.37 1389.29,1303 1388,1303L112,1303C110.706,1303 109.492,1302.37 108.741,1301.32C94.667,1281.55 89.714,1261.77 89.714,1242C89.714,1222.23 94.667,1202.45 108.741,1182.68C109.492,1181.63 110.706,1181 112,1181L1388,1181L1388.24,1181.01ZM111,233L138.301,232.969C138.865,233.006 139.432,233 140,233L1389,233L1389,1170L111,1170L111,233ZM54.101,160.835C56.185,157.467 91.329,103.433 139,100.008C139.332,99.984 139.666,100 140,100C173.667,100 201,127.333 201,161L200.999,161.394C200.787,194.88 173.536,222 140,222C139.666,222 139.332,222.016 139,221.992C89.794,218.457 54,161 54,161L54.101,160.835ZM178.43,100.117C198.599,112.885 212,135.395 212,161.017C212,161.017 211.999,161.429 211.999,161.464C211.837,186.961 198.394,209.332 178.244,222L1388,222C1389.29,222 1390.51,221.374 1391.26,220.32C1405.33,200.547 1410.29,180.773 1410.29,161C1410.29,141.227 1405.33,121.453 1391.26,101.68C1390.51,100.626 1389.29,100 1388,100L178.243,100L178.43,100.117Z" style="fill:rgb(0,117,190);"/>
    </g>
</svg>
