<?xml version="1.0" encoding="UTF-8" standalone="no"?>
<!DOCTYPE svg PUBLIC "-//W3C//DTD SVG 1.1//EN" "http://www.w3.org/Graphics/SVG/1.1/DTD/svg11.dtd">
<svg width="1500" height="2100" viewBox="0 0 1500 2100" version="1.1" xmlns="http://www.w3.org/2000/svg" xmlns:xlink="http://www.w3.org/1999/xlink" xml:space="preserve" xmlns:serif="http://www.serif.com/" style="fill-rule:evenodd;clip-rule:evenodd;stroke-linejoin:round;stroke-miterlimit:2;">
    <rect id="Card" x="0" y="0" width="1500" height="2100" style="fill:none;"/>
    <g id="Card1" serif:id="Card">
        <path id="reminder" d="M652,1956C653.477,1956 654.834,1955.19 655.529,1953.88C665.77,1934.69 680.545,1921.86 699.411,1914.74C700.969,1914.15 702,1912.66 702,1911C702,1909.34 700.969,1907.85 699.411,1907.26C680.545,1900.14 665.77,1887.31 655.529,1868.12C654.834,1866.81 653.477,1866 652,1866L95,1866C93.523,1866 92.166,1866.81 91.471,1868.12C81.23,1887.31 66.455,1900.14 47.589,1907.26C46.031,1907.85 45,1909.34 45,1911C45,1912.66 46.031,1914.15 47.589,1914.74C66.455,1921.86 81.23,1934.69 91.471,1953.88C92.166,1955.19 93.523,1956 95,1956L652,1956Z" style="fill:rgb(0,123,67);"/>
    </g>
</svg>
