<?xml version="1.0" encoding="UTF-8" standalone="no"?>
<!DOCTYPE svg PUBLIC "-//W3C//DTD SVG 1.1//EN" "http://www.w3.org/Graphics/SVG/1.1/DTD/svg11.dtd">
<svg width="1500" height="2100" viewBox="0 0 1500 2100" version="1.1" xmlns="http://www.w3.org/2000/svg" xmlns:xlink="http://www.w3.org/1999/xlink" xml:space="preserve" xmlns:serif="http://www.serif.com/" style="fill-rule:evenodd;clip-rule:evenodd;stroke-linejoin:round;stroke-miterlimit:2;">
    <rect id="Card" x="0" y="0" width="1500" height="2100" style="fill:none;"/>
    <g id="Card1" serif:id="Card">
        <rect id="text" x="118" y="1294" width="1264" height="636" style="fill:rgb(235,231,219);fill-opacity:0.7;"/>
        <path id="type" d="M562.642,1173.82C573.466,1189.18 577.286,1204.54 577.286,1219.9C577.286,1235.38 573.406,1250.87 562.385,1266.35L116.615,1266.35C105.594,1250.87 101.714,1235.38 101.714,1219.9C101.714,1204.42 105.594,1188.94 116.615,1173.46L562.385,1173.46L562.642,1173.82Z" style="fill:rgb(235,231,219);fill-opacity:0.7;"/>
        <path id="Border" d="M750,2100L0,2100L0,1652C14.532,1736.13 37.65,1812.44 100,1853L100,1948L1400,1948L1400,1853C1462.35,1812.44 1485.47,1736.13 1500,1652L1500,2100L750,2100"/>
        <g id="Pinlines">
            <path id="outer" d="M1390.33,1938.33L1390.33,1285.67L109.667,1285.67L109.667,1938.33L1390.33,1938.33ZM1382,1294L118,1294L118,1930L1382,1930L1382,1294Z" style="fill:rgb(37,34,29);"/>
            <path id="typePinline" d="M566.683,1165.12L569.174,1168.62C572.111,1172.75 574.589,1176.88 576.656,1181L576.656,1181C583.156,1193.97 585.62,1206.94 585.62,1219.9C585.62,1237 581.341,1254.09 569.174,1271.18L566.683,1274.68L112.317,1274.68L109.826,1271.18C97.659,1254.09 93.38,1237 93.38,1219.9C93.38,1202.81 97.659,1185.72 109.826,1168.62L112.317,1165.12L566.683,1165.12ZM562.385,1173.46C562.385,1173.46 116.615,1173.46 116.615,1173.46C105.594,1188.94 101.714,1204.42 101.714,1219.9C101.714,1235.38 105.594,1250.87 116.615,1266.35L562.385,1266.35C573.406,1250.87 577.286,1235.38 577.286,1219.9C577.286,1204.83 573.608,1189.76 563.241,1174.69L563.232,1174.66C562.955,1174.26 562.672,1173.86 562.385,1173.46Z" style="fill:rgb(37,34,29);"/>
            <path id="inner" d="M1377,1299L1377,1925L123,1925L123,1299L1377,1299L1377,1299ZM1374,1302L1374,1922L126,1922L126,1302L1374,1302L1374,1302Z" style="fill:rgb(37,34,29);fill-opacity:0.5;"/>
            <path id="adjustableHorizontal" d="M363.8,114.8C363.8,84.445 339.155,59.8 308.8,59.8L114.8,59.8C84.445,59.8 59.8,84.445 59.8,114.8L59.8,219.8C59.8,250.155 84.445,274.8 114.8,274.8L308.8,274.8C339.155,274.8 363.8,250.155 363.8,219.8L363.8,114.8ZM354.133,114.8C354.133,89.78 333.82,69.467 308.8,69.467L114.8,69.467C89.78,69.467 69.467,89.78 69.467,114.8L69.467,219.8C69.467,244.82 89.78,265.133 114.8,265.133L308.8,265.133C333.82,265.133 354.133,244.82 354.133,219.8L354.133,114.8ZM345.8,114.8L345.8,219.8C345.8,240.221 329.221,256.8 308.8,256.8L114.8,256.8C94.379,256.8 77.8,240.221 77.8,219.8L77.8,114.8C77.8,94.379 94.379,77.8 114.8,77.8L308.8,77.8C329.221,77.8 345.8,94.379 345.8,114.8Z" style="fill:rgb(37,34,29);"/>
        </g>
    </g>
</svg>
