<?xml version="1.0" encoding="UTF-8" standalone="no"?>
<!DOCTYPE svg PUBLIC "-//W3C//DTD SVG 1.1//EN" "http://www.w3.org/Graphics/SVG/1.1/DTD/svg11.dtd">
<svg width="1500" height="2100" viewBox="0 0 1500 2100" version="1.1" xmlns="http://www.w3.org/2000/svg" xmlns:xlink="http://www.w3.org/1999/xlink" xml:space="preserve" xmlns:serif="http://www.serif.com/" style="fill-rule:evenodd;clip-rule:evenodd;stroke-linejoin:round;stroke-miterlimit:2;">
    <g id="Pitch-Value--Behind-" serif:id="Pitch Value (Behind)">
        <path id="Level" d="M249,121L212,84L1288,84L1251,121L249,121Z" style="fill:none;"/>
        <clipPath id="_clip1">
            <path id="Level1" serif:id="Level" d="M249,121L212,84L1288,84L1251,121L249,121Z"/>
        </clipPath>
        <g clip-path="url(#_clip1)">
            <rect x="0" y="0" width="1500" height="2096" style="fill:rgb(0,157,225);"/>
        </g>
        <path id="_3" serif:id="3" d="M217.5,179C232.678,179 245,191.322 245,206.5C245,221.678 232.678,234 217.5,234C202.322,234 190,221.678 190,206.5C190,191.322 202.322,179 217.5,179ZM143.5,179C158.678,179 171,191.322 171,206.5C171,221.678 158.678,234 143.5,234C128.322,234 116,221.678 116,206.5C116,191.322 128.322,179 143.5,179ZM180.5,115C195.678,115 208,127.322 208,142.5C208,157.678 195.678,170 180.5,170C165.322,170 153,157.678 153,142.5C153,127.322 165.322,115 180.5,115Z" style="fill:rgb(0,1,1);"/>
        <clipPath id="_clip2">
            <path id="_31" serif:id="3" d="M217.5,179C232.678,179 245,191.322 245,206.5C245,221.678 232.678,234 217.5,234C202.322,234 190,221.678 190,206.5C190,191.322 202.322,179 217.5,179ZM143.5,179C158.678,179 171,191.322 171,206.5C171,221.678 158.678,234 143.5,234C128.322,234 116,221.678 116,206.5C116,191.322 128.322,179 143.5,179ZM180.5,115C195.678,115 208,127.322 208,142.5C208,157.678 195.678,170 180.5,170C165.322,170 153,157.678 153,142.5C153,127.322 165.322,115 180.5,115Z"/>
        </clipPath>
        <g clip-path="url(#_clip2)">
            <g id="_32" serif:id="3" transform="matrix(1,0,0,1,3.66065,6.71119)">
                <path d="M217.5,179C232.678,179 245,191.322 245,206.5C245,221.678 232.678,234 217.5,234C202.322,234 190,221.678 190,206.5C190,191.322 202.322,179 217.5,179ZM143.5,179C158.678,179 171,191.322 171,206.5C171,221.678 158.678,234 143.5,234C128.322,234 116,221.678 116,206.5C116,191.322 128.322,179 143.5,179ZM180.5,115C195.678,115 208,127.322 208,142.5C208,157.678 195.678,170 180.5,170C165.322,170 153,157.678 153,142.5C153,127.322 165.322,115 180.5,115Z" style="fill:rgb(35,38,39);"/>
            </g>
        </g>
        <g id="_33" serif:id="3" transform="matrix(0.384615,0,0,0.384615,-293.462,132.462)">
            <circle cx="1328.5" cy="192.5" r="71.5" style="fill:rgb(196,32,37);"/>
            <clipPath id="_clip3">
                <circle cx="1328.5" cy="192.5" r="71.5"/>
            </clipPath>
            <g clip-path="url(#_clip3)">
                <g transform="matrix(0.866667,0,0,0.866667,184.933,33.9)">
                    <path d="M1386.63,214.1C1312.94,264.142 1281.26,204.44 1283.48,167.426C1269.22,181.183 1265.63,201.63 1277.51,222.01C1291.66,246.288 1344.19,272.129 1386.63,214.1ZM1259,225.588C1252.51,136.744 1320.05,139.165 1351,159.588C1346.21,140.366 1330.3,127.034 1306.71,127.129C1278.61,127.243 1229.97,159.818 1259,225.588ZM1312.87,109.311C1393.05,148.114 1357.19,205.395 1324.03,221.986C1343.07,227.45 1362.57,220.336 1374.28,199.861C1388.23,175.469 1384.34,117.053 1312.87,109.311Z" style="fill:rgb(8,7,10);"/>
                </g>
            </g>
        </g>
        <g id="_2" serif:id="2" transform="matrix(0.384615,0,0,0.384615,-367.462,132.462)">
            <circle cx="1328.5" cy="192.5" r="71.5" style="fill:rgb(196,32,37);"/>
            <clipPath id="_clip4">
                <circle cx="1328.5" cy="192.5" r="71.5"/>
            </clipPath>
            <g clip-path="url(#_clip4)">
                <g transform="matrix(0.866667,0,0,0.866667,184.933,33.9)">
                    <path d="M1386.63,214.1C1312.94,264.142 1281.26,204.44 1283.48,167.426C1269.22,181.183 1265.63,201.63 1277.51,222.01C1291.66,246.288 1344.19,272.129 1386.63,214.1ZM1259,225.588C1252.51,136.744 1320.05,139.165 1351,159.588C1346.21,140.366 1330.3,127.034 1306.71,127.129C1278.61,127.243 1229.97,159.818 1259,225.588ZM1312.87,109.311C1393.05,148.114 1357.19,205.395 1324.03,221.986C1343.07,227.45 1362.57,220.336 1374.28,199.861C1388.23,175.469 1384.34,117.053 1312.87,109.311Z" style="fill:rgb(8,7,10);"/>
                </g>
            </g>
        </g>
        <g id="_1" serif:id="1" transform="matrix(0.384615,0,0,0.384615,-330.462,68.4615)">
            <circle cx="1328.5" cy="192.5" r="71.5" style="fill:rgb(196,32,37);"/>
            <clipPath id="_clip5">
                <circle cx="1328.5" cy="192.5" r="71.5"/>
            </clipPath>
            <g clip-path="url(#_clip5)">
                <g transform="matrix(0.866667,0,0,0.866667,184.933,33.9)">
                    <path d="M1386.63,214.1C1312.94,264.142 1281.26,204.44 1283.48,167.426C1269.22,181.183 1265.63,201.63 1277.51,222.01C1291.66,246.288 1344.19,272.129 1386.63,214.1ZM1259,225.588C1252.51,136.744 1320.05,139.165 1351,159.588C1346.21,140.366 1330.3,127.034 1306.71,127.129C1278.61,127.243 1229.97,159.818 1259,225.588ZM1312.87,109.311C1393.05,148.114 1357.19,205.395 1324.03,221.986C1343.07,227.45 1362.57,220.336 1374.28,199.861C1388.23,175.469 1384.34,117.053 1312.87,109.311Z" style="fill:rgb(8,7,10);"/>
                </g>
            </g>
        </g>
    </g>
</svg>
