<?xml version="1.0" encoding="UTF-8" standalone="no"?>
<!DOCTYPE svg PUBLIC "-//W3C//DTD SVG 1.1//EN" "http://www.w3.org/Graphics/SVG/1.1/DTD/svg11.dtd">
<svg width="1500" height="2100" viewBox="0 0 1500 2100" version="1.1" xmlns="http://www.w3.org/2000/svg" xmlns:xlink="http://www.w3.org/1999/xlink" xml:space="preserve" xmlns:serif="http://www.serif.com/" style="fill-rule:evenodd;clip-rule:evenodd;stroke-linejoin:round;stroke-miterlimit:2;">
    <rect id="Card" x="0" y="0" width="1500" height="2100" style="fill:none;"/>
    <g id="Card1" serif:id="Card">
        <path id="bottom" d="M100,198.213C88.364,184.833 78.412,160.278 78,132C78.481,98.948 91.996,70.984 106,60L1394,60C1408,70.984 1421.52,98.948 1422,132C1421.59,160.276 1411.64,184.828 1400,198.213L1400,480.787C1411.64,494.167 1421.59,518.722 1422,547C1421.59,575.276 1411.64,599.828 1400,613.213L1400,1326.79C1411.64,1340.17 1421.59,1364.72 1422,1393C1421.59,1421.28 1411.64,1445.83 1400,1459.21L1400,1741.79C1411.64,1755.17 1421.59,1779.72 1422,1808C1421.59,1836.28 1411.64,1860.83 1400,1874.21L1400,1948L100,1948L100,1874.21C88.362,1860.83 78.412,1836.28 78,1808C78.412,1779.72 88.362,1755.17 100,1741.79L100,1459.21C88.364,1445.83 78.412,1421.28 78,1393C78.412,1364.72 88.362,1340.17 100,1326.79L100,613.213C88.362,599.828 78.412,575.276 78,547C78.412,518.724 88.362,494.172 100,480.787L100,198.213ZM1389,1880L1389,1937L111,1937L111,1880L1389,1880ZM1388,1869L112,1869C110.706,1869 109.492,1868.37 108.741,1867.32C94.667,1847.55 89.714,1827.77 89.714,1808C89.714,1788.23 94.667,1768.45 108.741,1748.68C109.492,1747.63 110.706,1747 112,1747L1388,1747C1389.29,1747 1390.51,1747.63 1391.26,1748.68C1405.33,1768.45 1410.29,1788.23 1410.29,1808C1410.29,1827.77 1405.33,1847.55 1391.26,1867.32C1390.51,1868.37 1389.29,1869 1388,1869ZM111,1465L111,1736L1389,1736L1389,1465L111,1465ZM111.758,1453.99C110.556,1453.92 109.445,1453.31 108.741,1452.32C94.667,1432.55 89.714,1412.77 89.714,1393C89.714,1373.23 94.667,1353.45 108.741,1333.68C109.492,1332.63 110.706,1332 112,1332L1388,1332C1389.29,1332 1390.51,1332.63 1391.26,1333.68C1405.33,1353.45 1410.29,1373.23 1410.29,1393C1410.29,1412.77 1405.33,1432.55 1391.26,1452.32C1390.51,1453.37 1389.29,1454 1388,1454L112,1454L111.758,1453.99ZM111,619L111,1321L1389,1321L1389,619L111,619ZM1388.24,486.007C1389.44,486.08 1390.56,486.692 1391.26,487.68C1405.33,507.453 1410.29,527.227 1410.29,547C1410.29,566.773 1405.33,586.547 1391.26,606.32C1390.51,607.374 1389.29,608 1388,608L112,608C110.706,608 109.492,607.374 108.741,606.32C94.667,586.547 89.714,566.773 89.714,547C89.714,527.227 94.667,507.453 108.741,487.68C109.492,486.626 110.706,486 112,486L1388,486L1388.24,486.007ZM111,204L111,475L1389,475L1389,204L111,204ZM112,71L1388,71C1389.29,71 1390.51,71.626 1391.26,72.68C1405.33,92.453 1410.29,112.227 1410.29,132C1410.29,151.773 1405.33,171.547 1391.26,191.32C1390.51,192.374 1389.29,193 1388,193L112,193C110.706,193 109.492,192.374 108.741,191.32C94.667,171.547 89.714,151.773 89.714,132C89.714,112.227 94.667,92.453 108.741,72.68C109.492,71.626 110.706,71 112,71Z" style="fill:rgb(239,56,39);"/>
    </g>
</svg>
