<?xml version="1.0" encoding="UTF-8" standalone="no"?>
<!DOCTYPE svg PUBLIC "-//W3C//DTD SVG 1.1//EN" "http://www.w3.org/Graphics/SVG/1.1/DTD/svg11.dtd">
<svg width="1500" height="2100" viewBox="0 0 1500 2100" version="1.1" xmlns="http://www.w3.org/2000/svg" xmlns:xlink="http://www.w3.org/1999/xlink" xml:space="preserve" xmlns:serif="http://www.serif.com/" style="fill-rule:evenodd;clip-rule:evenodd;stroke-linejoin:round;stroke-miterlimit:2;">
    <rect id="Card" x="0" y="0" width="1500" height="2100" style="fill:none;"/>
    <g id="Card1" serif:id="Card">
        <path id="Twins" d="M112,1865C98.476,1846 93.714,1827 93.714,1808C93.714,1789 98.476,1770 112,1751L1388,1751C1401.52,1770 1406.29,1789 1406.29,1808C1406.29,1827 1401.52,1846 1388,1865L112,1865ZM111.685,1449.81C98.402,1430.96 93.714,1412.11 93.714,1393.26C93.714,1374.26 98.476,1355.26 112,1336.26L1388,1336.26C1401.52,1355.26 1406.29,1374.26 1406.29,1393.26C1406.29,1412.26 1401.52,1431.26 1388,1450.26L112,1450.26L111.685,1449.81ZM1388.32,490.445C1401.6,509.296 1406.29,528.148 1406.29,547C1406.29,566 1401.52,585 1388,604L112,604C98.476,585 93.714,566 93.714,547C93.714,528 98.476,509 112,490L1388,490L1388.32,490.445ZM1388,75.258C1401.52,94.258 1406.29,113.258 1406.29,132.258C1406.29,151.258 1401.52,170.258 1388,189.258L112,189.258C98.476,170.258 93.714,151.258 93.714,132.258C93.714,113.258 98.476,94.258 112,75.258L1388,75.258Z" style="fill:rgb(0,117,190);"/>
    </g>
</svg>
