<?xml version="1.0" encoding="UTF-8" standalone="no"?>
<!DOCTYPE svg PUBLIC "-//W3C//DTD SVG 1.1//EN" "http://www.w3.org/Graphics/SVG/1.1/DTD/svg11.dtd">
<svg width="1500" height="2100" viewBox="0 0 1500 2100" version="1.1" xmlns="http://www.w3.org/2000/svg" xmlns:xlink="http://www.w3.org/1999/xlink" xml:space="preserve" xmlns:serif="http://www.serif.com/" style="fill-rule:evenodd;clip-rule:evenodd;stroke-linejoin:round;stroke-miterlimit:2;">
    <rect id="Card" x="0" y="0" width="1500" height="2100" style="fill:none;"/>
    <clipPath id="_clip1">
        <rect id="Card1" serif:id="Card" x="0" y="0" width="1500" height="2100"/>
    </clipPath>
    <g clip-path="url(#_clip1)">
        <g id="Regular">
            <path d="M1385,1948L1385,1659C1385,1659 1390,1659 1390,1659C1408.77,1659 1424,1643.77 1424,1625C1424,1606.24 1408.77,1591 1390,1591C1390,1591 1385,1591 1385,1591L1385,1320L1004.02,1320L1047.72,1303L1394.91,1303L1396.11,1301.33C1410.3,1281.56 1415.29,1261.78 1415.29,1242C1415.29,1222.38 1410.37,1202.75 1396.44,1183.13L1394.92,1181L1333,1181C1356.76,1170.4 1378.52,1157.85 1402.28,1144C1427.36,1167 1439.29,1225.61 1439.29,1242C1439.29,1264.89 1433.89,1287.79 1418.8,1310.69L1411.03,1319.32C1410.83,1319.54 1410.66,1319.77 1410.52,1320.03C1408.08,1324.33 1407.24,1328.22 1409,1331.81L1409,1570.21C1431.69,1578.07 1448,1599.64 1448,1625C1448,1650.36 1431.69,1671.93 1409,1679.79L1409,1948L1385,1948ZM1067.24,229C1067.24,229.251 1067.21,229.502 1067.17,229.753C1065.81,236.842 1064.26,243.925 1062.51,251L1245.95,251C1240.54,244.612 1233.4,235.621 1228.17,229L1067.24,229ZM1290.33,251L1409.29,251C1419.62,231.691 1426.03,212.78 1430,188L1463,161L1430,134C1426.03,109.22 1419.62,90.309 1409.29,71L1315,71C1297.46,76.401 1285.17,83.749 1276,93L1396.05,93L1397.23,94.847C1411.32,116.899 1414.29,138.948 1414.29,161L1414.28,162.034C1414.19,183.74 1411.1,205.445 1397.23,227.153L1396.05,229L1270.28,229C1276.23,236.521 1282.79,244.289 1290.33,251ZM1063.24,229C1061.83,236.34 1060.21,243.674 1058.38,251L1017.03,251C1019.06,243.678 1020.86,236.345 1022.43,229L1063.24,229ZM1018.34,229L949.89,229L937.153,251L1013.03,251C1013.03,250.642 1013.08,250.282 1013.18,249.93C1015.11,242.963 1016.83,235.987 1018.34,229ZM823.085,-43L966.094,86.654C974.491,93.999 983.023,96.101 1036.24,99L950.226,99C942.979,98.443 939.684,95.168 935.814,91.235L783.702,-43L823.085,-43ZM867.501,-195.05L873.45,-184.662C950.153,-99.51 999.011,-15.735 1019.39,67L1060.44,67C1039.93,-24.98 987.313,-118.381 901.835,-212.914C897.887,-217.279 892.446,-219.498 886.985,-219.496L886.955,-219.496C882.184,-219.487 877.4,-217.783 873.586,-214.335C868.032,-209.312 865.952,-201.872 867.501,-195.05Z" style="fill:rgb(0,117,190);"/>
            <path d="M1392.86,1299C1392.86,1299 1047.72,1299 1047.72,1299C1047.22,1299 1046.73,1299.09 1046.27,1299.27L1002.57,1316.27C1000.77,1316.97 999.73,1318.85 1000.09,1320.74C1000.44,1322.63 1002.09,1324 1004.02,1324L1381,1324C1381,1357.56 1381,1591 1381,1591C1381,1593.21 1382.79,1595 1385,1595C1385,1595 1390,1595 1390,1595C1406.56,1595 1420,1608.44 1420,1625C1420,1641.56 1406.56,1655 1390,1655C1390,1655 1385.95,1655 1385.14,1655C1380,1655 1385,1663 1385,1663C1382.79,1663 1381,1661.21 1381,1659L1381,1948C1381,1950.21 1382.79,1952 1385,1952L1409,1952C1411.21,1952 1413,1950.21 1413,1948C1413,1948 1413,1710.99 1413,1682.57C1435.85,1673.44 1452,1651.09 1452,1625C1452,1598.91 1435.85,1576.56 1413,1567.43C1413,1567.43 1413,1331.81 1413,1331.81C1413,1331.2 1412.86,1330.6 1412.59,1330.06C1411.38,1327.58 1412.32,1324.96 1414,1322C1414,1322 1421.77,1313.36 1421.77,1313.36C1421.91,1313.21 1422.03,1313.06 1422.14,1312.89C1437.72,1289.26 1443.29,1265.63 1443.29,1242C1443.29,1231.93 1438.95,1206.28 1429.88,1182.3C1423.74,1166.06 1415.41,1150.62 1404.98,1141.05C1403.69,1139.87 1401.78,1139.66 1400.26,1140.54C1376.63,1154.32 1355,1166.81 1331.37,1177.35C1329.65,1178.12 1328.69,1179.99 1329.09,1181.83C1329.48,1183.68 1331.11,1185 1333,1185L1392.86,1185C1392.86,1185 1393.18,1185.45 1393.18,1185.45C1406.56,1204.3 1411.29,1223.15 1411.29,1242C1411.29,1261 1406.49,1280 1392.86,1299ZM1385,1948L1385,1659C1385,1659 1390,1659 1390,1659C1408.77,1659 1424,1643.77 1424,1625C1424,1606.24 1408.77,1591 1390,1591C1390,1591 1385,1591 1385,1591L1385,1320L1004.02,1320L1047.72,1303L1394.91,1303L1396.11,1301.33C1410.3,1281.56 1415.29,1261.78 1415.29,1242C1415.29,1222.38 1410.37,1202.75 1396.44,1183.13L1394.92,1181L1333,1181C1356.76,1170.4 1378.52,1157.85 1402.28,1144C1427.36,1167 1439.29,1225.61 1439.29,1242C1439.29,1264.89 1433.89,1287.79 1418.8,1310.69L1411.03,1319.32C1410.83,1319.54 1410.66,1319.77 1410.52,1320.03C1408.08,1324.33 1407.24,1328.22 1409,1331.81L1409,1570.21C1431.69,1578.07 1448,1599.64 1448,1625C1448,1650.36 1431.69,1671.93 1409,1679.79L1409,1948L1385,1948ZM1065.24,225.537C1064.64,225.189 1063.95,225 1063.24,225L1022.43,225C1021.69,225 1020.99,225.204 1020.38,225.564C1019.77,225.199 1019.07,225 1018.34,225L949.89,225C948.463,225 947.143,225.761 946.428,226.996L933.691,248.996C932.975,250.233 932.974,251.759 933.688,252.998C934.402,254.237 935.723,255 937.153,255L1013.03,255C1013.74,255 1014.43,254.812 1015.03,254.463C1015.63,254.811 1016.32,255 1017.03,255L1058.38,255C1059.13,255 1059.84,254.793 1060.45,254.428C1061.06,254.798 1061.77,255 1062.51,255L1245.95,255C1247.51,255 1248.92,254.096 1249.58,252.683C1250.23,251.269 1250.01,249.604 1249,248.416C1243.62,242.059 1236.51,233.111 1231.31,226.522C1230.56,225.561 1229.4,225 1228.17,225L1067.24,225C1066.53,225 1065.84,225.188 1065.24,225.537ZM1393.86,97C1407.48,118.327 1410.29,139.67 1410.29,160.997C1410.29,160.997 1410.28,162.02 1410.28,162.02C1410.19,183.007 1407.27,204.011 1393.86,225L1270.28,225C1268.74,225 1267.34,225.877 1266.67,227.258C1266.01,228.639 1266.19,230.28 1267.14,231.482C1273.23,239.179 1279.95,247.121 1287.67,253.989C1288.4,254.64 1289.35,255 1290.33,255L1409.29,255C1410.76,255 1412.12,254.188 1412.81,252.888C1423.15,233.585 1429.63,214.677 1433.7,190.137C1433.7,190.138 1465.53,164.096 1465.53,164.096C1466.46,163.336 1467,162.2 1467,161C1467,159.8 1466.46,158.664 1465.53,157.904L1433.7,131.862C1429.63,107.323 1423.15,88.415 1412.81,69.112C1412.12,67.812 1410.76,67 1409.29,67L1315,67C1314.6,67 1314.2,67.06 1313.82,67.177C1295.53,72.812 1282.73,80.531 1273.16,90.184C1272.02,91.331 1271.69,93.048 1272.31,94.539C1272.93,96.029 1274.38,97 1276,97L1393.86,97ZM1067.24,229C1067.24,229.251 1067.21,229.502 1067.17,229.753C1065.81,236.842 1064.26,243.925 1062.51,251L1245.95,251C1240.54,244.612 1233.4,235.621 1228.17,229L1067.24,229ZM1290.33,251L1409.29,251C1419.62,231.691 1426.03,212.78 1430,188L1463,161L1430,134C1426.03,109.22 1419.62,90.309 1409.29,71L1315,71C1297.46,76.401 1285.17,83.749 1276,93L1396.05,93L1397.23,94.847C1411.32,116.899 1414.29,138.948 1414.29,161L1414.28,162.034C1414.19,183.74 1411.1,205.445 1397.23,227.153L1396.05,229L1270.28,229C1276.23,236.521 1282.79,244.289 1290.33,251ZM1063.24,229C1061.83,236.34 1060.21,243.674 1058.38,251L1017.03,251C1019.06,243.678 1020.86,236.345 1022.43,229L1063.24,229ZM1018.34,229L949.89,229L937.153,251L1013.03,251C1013.03,250.642 1013.08,250.282 1013.18,249.93C1015.11,242.963 1016.83,235.987 1018.34,229ZM825.772,-45.963C825.036,-46.631 824.079,-47 823.085,-47L783.702,-47C782.038,-47 780.549,-45.971 779.96,-44.415C779.372,-42.859 779.808,-41.101 781.055,-40.001L933.062,94.142C937.554,98.701 941.494,102.34 949.919,102.988C950.021,102.996 950.123,103 950.226,103L1036.24,103C1038.4,103 1040.18,101.275 1040.24,99.109C1040.3,96.943 1038.62,95.124 1036.45,95.006C1010.11,93.57 994.82,92.348 985.082,90.56C976.337,88.954 972.513,86.942 968.779,83.688C968.753,83.665 825.772,-45.963 825.772,-45.963ZM823.085,-43L966.094,86.654C974.491,93.999 983.023,96.101 1036.24,99L950.226,99C942.979,98.443 939.684,95.168 935.814,91.235L783.702,-43L823.085,-43ZM886.984,-219.496L886.985,-219.496C892.446,-219.498 897.887,-217.279 901.835,-212.914C987.313,-118.381 1039.93,-24.98 1060.44,67L1019.39,67C999.011,-15.735 950.153,-99.51 873.45,-184.662L867.501,-195.05C865.952,-201.872 868.032,-209.312 873.586,-214.335C876.335,-216.82 879.587,-218.399 882.975,-219.091C882.962,-219.223 882.955,-219.357 882.955,-219.492C882.953,-221.7 884.74,-223.492 886.947,-223.496C881.221,-223.485 875.48,-221.44 870.903,-217.302C864.239,-211.276 861.742,-202.349 863.6,-194.164C863.688,-193.778 863.833,-193.406 864.03,-193.062L869.979,-182.674C870.12,-182.428 870.288,-182.197 870.478,-181.985C946.667,-97.402 995.264,-14.224 1015.51,67.957C1015.95,69.744 1017.55,71 1019.39,71L1060.44,71C1061.65,71 1062.8,70.449 1063.56,69.502C1064.32,68.555 1064.61,67.314 1064.35,66.129C1043.7,-26.434 990.822,-120.465 904.802,-215.597C900.065,-220.835 893.536,-223.499 886.983,-223.496L886.984,-219.496ZM886.982,-219.496L886.967,-219.496L886.98,-223.496L886.982,-219.496Z"/>
        </g>
    </g>
</svg>
