<?xml version="1.0" encoding="UTF-8" standalone="no"?>
<!DOCTYPE svg PUBLIC "-//W3C//DTD SVG 1.1//EN" "http://www.w3.org/Graphics/SVG/1.1/DTD/svg11.dtd">
<svg width="1500" height="2100" viewBox="0 0 1500 2100" version="1.1" xmlns="http://www.w3.org/2000/svg" xmlns:xlink="http://www.w3.org/1999/xlink" xml:space="preserve" xmlns:serif="http://www.serif.com/" style="fill-rule:evenodd;clip-rule:evenodd;stroke-linejoin:round;stroke-miterlimit:2;">
    <path id="pinline" d="M100,1399.21C88.362,1385.83 78.412,1361.28 78,1333C78.481,1299.95 91.996,1271.98 106,1261L1394,1261L1394.33,1261.26C1408.21,1272.42 1421.52,1300.21 1422,1333C1421.59,1361.28 1411.64,1385.83 1400,1399.21L1400,1948L100,1948L100,1399.21ZM1389,1405L1389,1937L111,1937L111,1405L1389,1405ZM1388.24,1272.01C1389.44,1272.08 1390.56,1272.69 1391.26,1273.68C1405.33,1293.45 1410.29,1313.23 1410.29,1333C1410.29,1352.77 1405.33,1372.55 1391.26,1392.32C1390.51,1393.37 1389.29,1394 1388,1394L112,1394C110.706,1394 109.492,1393.37 108.741,1392.32C94.667,1372.55 89.714,1352.77 89.714,1333C89.714,1313.23 94.667,1293.45 108.741,1273.68C109.492,1272.63 110.706,1272 112,1272L1388,1272L1388.24,1272.01ZM105.672,232.739C91.785,221.58 78.477,193.794 78,161C78.481,127.948 91.996,99.984 106,89L1394,89C1408,99.984 1421.52,127.948 1422,161C1421.52,194.052 1408,222.016 1394,233L106,233L105.672,232.739ZM112,100L1388,100C1389.29,100 1390.51,100.626 1391.26,101.68C1405.33,121.453 1410.29,141.227 1410.29,161C1410.29,180.773 1405.33,200.547 1391.26,220.32C1390.51,221.374 1389.29,222 1388,222L112,222C110.706,222 109.492,221.374 108.741,220.32C94.667,200.547 89.714,180.773 89.714,161C89.714,141.227 94.667,121.453 108.741,101.68C109.492,100.626 110.706,100 112,100Z" style="fill:rgb(246,210,98);"/>
</svg>
