<?xml version="1.0" encoding="UTF-8" standalone="no"?>
<!DOCTYPE svg PUBLIC "-//W3C//DTD SVG 1.1//EN" "http://www.w3.org/Graphics/SVG/1.1/DTD/svg11.dtd">
<svg width="1500" height="2100" viewBox="0 0 1500 2100" version="1.1" xmlns="http://www.w3.org/2000/svg" xmlns:xlink="http://www.w3.org/1999/xlink" xml:space="preserve" xmlns:serif="http://www.serif.com/" style="fill-rule:evenodd;clip-rule:evenodd;stroke-linejoin:round;stroke-miterlimit:2;">
    <path id="outer" d="M1390.33,1938.33L1390.33,1285.67L109.667,1285.67L109.667,1938.33L1390.33,1938.33ZM1382,1294L118,1294L118,1930L1382,1930L1382,1294ZM1377,1299L1377,1925L123,1925L123,1299L1377,1299ZM1374,1302L1374,1922L126,1922L126,1302L1374,1302ZM566.683,1165.12L569.174,1168.62C572.111,1172.75 574.589,1176.88 576.656,1181C583.156,1193.97 585.62,1206.94 585.62,1219.9C585.62,1237 581.341,1254.09 569.174,1271.18L566.683,1274.68L112.317,1274.68L109.826,1271.18C97.659,1254.09 93.38,1237 93.38,1219.9C93.38,1202.81 97.659,1185.72 109.826,1168.62L112.317,1165.12L566.683,1165.12ZM562.385,1173.46L116.615,1173.46C105.594,1188.94 101.714,1204.42 101.714,1219.9C101.714,1235.38 105.594,1250.87 116.615,1266.35L562.385,1266.35C573.406,1250.87 577.286,1235.38 577.286,1219.9C577.286,1204.83 573.608,1189.76 563.241,1174.69L563.232,1174.66C562.955,1174.26 562.672,1173.86 562.385,1173.46Z"/>
</svg>
