<?xml version="1.0" encoding="utf-8"?>
<!-- Generator: Adobe Illustrator 26.1.0, SVG Export Plug-In . SVG Version: 6.00 Build 0)  -->
<svg version="1.1" id="Layer_1" xmlns:serif="http://www.serif.com/"
	 xmlns="http://www.w3.org/2000/svg" xmlns:xlink="http://www.w3.org/1999/xlink" x="0px" y="0px" viewBox="0 0 1920 1080"
	 enable-background="new 0 0 1920 1080" xml:space="preserve">
<g transform="matrix(1.04323,0,0,1.06296,-43,-34)">
	
		<radialGradient id="SVGID_1_" cx="41.2181" cy="1048.0168" r="1" gradientTransform="matrix(-1168.1569 -636.3703 -648.4056 1190.2495 728931.3125 -1220498.5)" gradientUnits="userSpaceOnUse">
		<stop  offset="0" style="stop-color:#5C799B"/>
		<stop  offset="1" style="stop-color:#2C4C69"/>
	</radialGradient>
	
		<rect x="0" y="0" fill-rule="evenodd" clip-rule="evenodd" fill="url(#SVGID_1_)" stroke="#000000" stroke-width="0.95" stroke-linecap="round" stroke-linejoin="round" stroke-miterlimit="1.5" stroke-opacity="0" width="1920" height="1080"/>
</g>
<path fill-rule="evenodd" clip-rule="evenodd" fill="#486686" d="M663,569l21-275l253,133L663,569z"/>
<path fill-rule="evenodd" clip-rule="evenodd" fill="#4B6989" d="M826,757L663,569l274-142L826,757z"/>
<g transform="matrix(1,0,0,1,0,-1)">
	<path fill-rule="evenodd" clip-rule="evenodd" fill="#527091" d="M937,427l77,189L826,757L937,427z"/>
</g>
<path fill-rule="evenodd" clip-rule="evenodd" fill="#506E8E" d="M1173,226L937,427l77,189L1173,226z"/>
<path fill-rule="evenodd" clip-rule="evenodd" fill="#567394" d="M1337,524l-323,92l159-390L1337,524z"/>
<path fill-rule="evenodd" clip-rule="evenodd" fill="#5B789A" d="M1213,816l-199-200l323-92L1213,816z"/>
<path fill-rule="evenodd" clip-rule="evenodd" fill="#547293" d="M1027,929l-13-313l199,200L1027,929z"/>
<path fill-rule="evenodd" clip-rule="evenodd" fill="#516F90" d="M826,757l201,172l-13-313L826,757z"/>
<path fill-rule="evenodd" clip-rule="evenodd" fill="#4F6C8D" d="M1448,179l-275,47l164,298L1448,179z"/>
<path fill-rule="evenodd" clip-rule="evenodd" fill="#4F6C8D" d="M1566,351.5L1337,524l111-345L1566,351.5z"/>
<path fill-rule="evenodd" clip-rule="evenodd" fill="#476585" d="M1643,0l-77,351.5L1448,179L1643,0z"/>
<path fill-rule="evenodd" clip-rule="evenodd" fill="#405E7D" d="M1920,0l-167,219L1643,0H1920z"/>
<path fill-rule="evenodd" clip-rule="evenodd" fill="#456383" d="M1741,515l12-296l167-27L1741,515z"/>
<path fill-rule="evenodd" clip-rule="evenodd" fill="#3F5E7D" d="M1920,0v192l-167,27L1920,0z"/>
<path fill-rule="evenodd" clip-rule="evenodd" fill="#456383" d="M1566,351.5L1753,219L1643,0L1566,351.5z"/>
<path fill-rule="evenodd" clip-rule="evenodd" fill="#496787" d="M1741,515l12-296l-187,132.5L1741,515z"/>
<path fill-rule="evenodd" clip-rule="evenodd" fill="#4E6C8D" d="M1528,642l38-290.5L1741,515L1528,642z"/>
<path fill-rule="evenodd" clip-rule="evenodd" fill="#527091" d="M1338,524l190,118l38-290.5L1338,524z"/>
<path fill-rule="evenodd" clip-rule="evenodd" fill="#456483" d="M1741,515l179,119V192L1741,515z"/>
<path fill-rule="evenodd" clip-rule="evenodd" fill="#486686" d="M1711,761l30-246l179,119L1711,761z"/>
<path fill-rule="evenodd" clip-rule="evenodd" fill="#466484" d="M1920,1080l-209-319l209-127V1080z"/>
<path fill-rule="evenodd" clip-rule="evenodd" fill="#486686" d="M1711,761l-94,222l303,97L1711,761z"/>
<path fill-rule="evenodd" clip-rule="evenodd" fill="#496787" d="M1617,983l-137,97h440L1617,983z"/>
<path fill-rule="evenodd" clip-rule="evenodd" fill="#4E6C8D" d="M1403,889l77,191l137-97L1403,889z"/>
<path fill-rule="evenodd" clip-rule="evenodd" fill="#4E6C8C" d="M1711,761l-308,128l214,94L1711,761z"/>
<path fill-rule="evenodd" clip-rule="evenodd" fill="#4E6B8C" d="M1528,642l183,119l30-246L1528,642z"/>
<path fill-rule="evenodd" clip-rule="evenodd" fill="#526F90" d="M1403,889l308-128l-183-119L1403,889z"/>
<path fill-rule="evenodd" clip-rule="evenodd" fill="#567395" d="M1338,523l65,366l125-247L1338,523z"/>
<path fill-rule="evenodd" clip-rule="evenodd" fill="#5A7799" d="M1213,815l190,74l-65-366L1213,815z"/>
<path fill-rule="evenodd" clip-rule="evenodd" fill="#506E8E" d="M1403,889l-238,191h315L1403,889z"/>
<path fill-rule="evenodd" clip-rule="evenodd" fill="#547293" d="M1213,815l-48,265l238-191L1213,815z"/>
<path fill-rule="evenodd" clip-rule="evenodd" fill="#526F90" d="M1027,929l138,151l48-265L1027,929z"/>
<path fill-rule="evenodd" clip-rule="evenodd" fill="#4C6A8A" d="M783,1080l244-151l138,151H783z"/>
<path fill-rule="evenodd" clip-rule="evenodd" fill="#4C6A8A" d="M826,758l201,171l-244,151L826,758z"/>
<path fill-rule="evenodd" clip-rule="evenodd" fill="#476585" d="M663,569L432,860l394-103L663,569z"/>
<path fill-rule="evenodd" clip-rule="evenodd" fill="#466484" d="M432,860l351,220l43-323L432,860z"/>
<path fill-rule="evenodd" clip-rule="evenodd" fill="#41607F" d="M469,1080h314L432,860L469,1080z"/>
<path fill-rule="evenodd" clip-rule="evenodd" fill="#3A5A78" d="M186,1080l246-220l37,220H186z"/>
<path fill-rule="evenodd" clip-rule="evenodd" fill="#2F4F6C" d="M0,1080V784l186,296H0z"/>
<path fill-rule="evenodd" clip-rule="evenodd" fill="#355472" d="M0,784l432,76l-246,220L0,784z"/>
<path fill-rule="evenodd" clip-rule="evenodd" fill="#375775" d="M274,645l158,215L0,784L274,645z"/>
<path fill-rule="evenodd" clip-rule="evenodd" fill="#405F7E" d="M432,860L274,645l389-76L432,860z"/>
<path fill-rule="evenodd" clip-rule="evenodd" fill="#426080" d="M684,294l-332,94l311,181L684,294z"/>
<path fill-rule="evenodd" clip-rule="evenodd" fill="#3E5D7B" d="M352,388l-78,257l389-76L352,388z"/>
<path fill-rule="evenodd" clip-rule="evenodd" fill="#375674" d="M0,488l274,157l78-257L0,488z"/>
<path fill-rule="evenodd" clip-rule="evenodd" fill="#32526F" d="M0,784l274-139L0,489V784z"/>
<path fill-rule="evenodd" clip-rule="evenodd" fill="#3D5C7A" d="M352,388l80-196l252,102L352,388z"/>
<path fill-rule="evenodd" clip-rule="evenodd" fill="#355472" d="M0,489l137-128l215,27L0,489z"/>
<path fill-rule="evenodd" clip-rule="evenodd" fill="#2F4F6C" d="M137,361L0,192v297L137,361z"/>
<path fill-rule="evenodd" clip-rule="evenodd" fill="#31516E" d="M0,192l247-35L137,361L0,192z"/>
<path fill-rule="evenodd" clip-rule="evenodd" fill="#355573" d="M247,157l105,231l-215-27L247,157z"/>
<path fill-rule="evenodd" clip-rule="evenodd" fill="#385775" d="M432,192l-80,196L247,157L432,192z"/>
<path fill-rule="evenodd" clip-rule="evenodd" fill="#365573" d="M247,157L339.5,0L432,192L247,157z"/>
<path fill-rule="evenodd" clip-rule="evenodd" fill="#304F6D" d="M339.5,0H0l247,157L339.5,0z"/>
<path fill-rule="evenodd" clip-rule="evenodd" fill="#2E4D6B" d="M0,0v192l244.5-35L0,0z"/>
<path fill-rule="evenodd" clip-rule="evenodd" fill="#385776" d="M339.5,0L432,192L661,0H339.5z"/>
<path fill-rule="evenodd" clip-rule="evenodd" fill="#3D5C7B" d="M685,294L661,0L432,192L685,294z"/>
<path fill-rule="evenodd" clip-rule="evenodd" fill="#486787" d="M937,428l-81-236L685,294L937,428z"/>
<path fill-rule="evenodd" clip-rule="evenodd" fill="#426180" d="M856,192L661,0l24,294L856,192z"/>
<path fill-rule="evenodd" clip-rule="evenodd" fill="#436181" d="M661,0h512L856,192L661,0z"/>
<path fill-rule="evenodd" clip-rule="evenodd" fill="#476585" d="M1173,0v226l-317-34L1173,0z"/>
<path fill-rule="evenodd" clip-rule="evenodd" fill="#4B698A" d="M1173,226l-317-34l81,236L1173,226z"/>
<path fill-rule="evenodd" clip-rule="evenodd" fill="#486787" d="M1173,0v226l275-48L1173,0z"/>
<path fill-rule="evenodd" clip-rule="evenodd" fill="#466484" d="M1643,0l-195,178L1173,0H1643z"/>
</svg>
