<?xml version="1.0" encoding="UTF-8" standalone="no"?><!DOCTYPE svg PUBLIC "-//W3C//DTD SVG 1.1//EN" "http://www.w3.org/Graphics/SVG/1.1/DTD/svg11.dtd"><svg width="1500" height="2100" viewBox="0 0 1500 2100" version="1.1" xmlns="http://www.w3.org/2000/svg" xmlns:xlink="http://www.w3.org/1999/xlink" xml:space="preserve" xmlns:serif="http://www.serif.com/" style="fill-rule:evenodd;clip-rule:evenodd;stroke-linejoin:round;stroke-miterlimit:2;"><path id="frame-mask" serif:id="frame mask" d="M210.583,1168.85c-6.838,0.3 -12.937,0.631 -18.583,0.998c-8.88,0.577 -11.801,0.453 -12.821,-0.548c-0.172,-0.168 -0.358,-0.329 -0.548,-0.476l-0.131,-0l-8.501,-4.159c-15.218,-7.447 -32.91,-5.419 -48.263,5.531l-3.236,2.31c0,0 -18.176,10.519 -27.701,9.799c-8.535,-0.645 -13.268,0.54 -17.981,4.508c-2.734,2.298 -3.9,2.602 -9.225,2.385c-1.256,-0.052 -2.455,-0.008 -3.593,0.123c-10.049,1.157 -15.206,9.134 -11.359,18.743c1.583,3.956 5.348,6.682 7.444,5.389c0.503,-0.312 0.915,0.39 0.915,1.56c0,1.758 -0.39,1.998 -2.25,1.387c-6.075,-1.999 -9.746,1.729 -9.75,9.904c0,8.212 2.7,10.657 8.501,7.702c5.475,-2.793 6.522,-2.587 6.383,1.249c-0.064,1.789 -0.323,2.464 -0.574,1.5c-0.574,-2.205 -2.28,-2.209 -6.874,-0.019c-10.657,5.085 -9.667,23.04 1.478,26.742c2.952,0.979 4.866,1.814 6.086,2.894l0,9.556c0.622,2.013 1.528,4.33 2.445,6.153c3.356,6.683 2.839,11.592 -1.642,15.672c-0.273,0.248 -0.541,0.493 -0.803,0.737l0,3.457l-2.951,2.181c-9.845,7.277 -7.945,22.115 2.951,29.141l0,2.485c-0.428,-0.101 -0.88,-0.209 -1.357,-0.325c-3.657,-0.893 -4.609,0.566 -4.624,7.076c-0.013,5.893 1.553,9.646 5.981,11.925l0,8.274c-4.21,16.417 -5.484,85.867 -2.974,162.801c0.781,23.946 1.301,33.997 2.974,41.423l0,14.356c0.121,0.035 0.25,0.069 0.386,0.104c3.99,1 3.893,3.329 -0.386,9l0,2.817c-6.07,8.741 -7.818,20.628 -3.469,27.224c1.579,2.396 1.669,3.007 0.507,3.397c-10.534,3.51 -13.099,24.544 -4.388,35.967c1.937,2.538 4.596,4.721 7.35,6.354l0,2.345c1.436,0.852 3.014,1.686 4.751,2.521c4.703,2.261 5.265,4.125 2.727,9.033c-0.837,1.617 -1.257,3.99 -0.934,5.273c0.326,1.309 -0.319,4.706 -1.481,7.759c-1.133,2.985 -2.063,6.637 -2.063,8.111c0,1.477 -0.487,3.952 -1.084,5.501c-0.556,1.445 -1.387,4.906 -1.916,7.938l0,50.377c0.111,4.453 0.616,9.408 1.529,14.678c-0.619,24.965 -0.832,57.621 -0.91,103.055l-0.12,67.233l2.76,1.14c7.811,3.237 10.264,1.039 14.246,-12.757c3.982,-13.811 4.342,-13.485 3.746,3.416c-0.626,17.663 -1.53,16.418 12.345,17.036l10.23,0.454l0.626,3.338c1.215,6.491 4.819,5.347 4.819,-1.53c0,-2.235 0.278,-4.065 0.615,-4.069c0.338,-0 1.845,-1.013 3.349,-2.25l2.734,-2.243l-0.328,-4.501l1.807,0c-0.121,-0.849 -0.301,-1.862 -0.531,-3.115c-0.813,-4.432 -1.41,-38.959 -1.942,-112.886c-0.476,-65.449 -1.2,-110.355 -1.875,-116.498c-3.743,-33.896 -4.249,-56.906 -1.361,-61.578c5.096,-8.247 4.849,-23.014 -0.492,-29.138c-1.027,-1.177 -1.263,-2.587 -0.757,-4.5c2.224,-8.422 1.395,-20.764 -1.669,-24.889c-0.45,-0.603 -0.326,-2.516 0.278,-4.245c0.618,-1.777 0.825,-5.43 0.476,-8.396c-1.384,-11.753 -1.703,-33.578 -0.675,-46.028c0.6,-7.275 1.432,-36.401 1.845,-64.728c0.949,-64.647 0.945,-66.563 -0.143,-94.905c-0.772,-20.082 -0.69,-23.558 0.563,-24.499c0.802,-0.604 1.755,-1.882 2.115,-2.846c0.36,-0.96 1.316,-1.748 2.123,-1.748c2.216,0 2.879,-3.555 1.252,-6.701c-0.799,-1.541 -1.766,-5.347 -2.156,-8.46c-0.994,-7.954 0.72,-8.764 9.506,-4.492c15.203,7.383 47.873,3.221 58.834,-7.493l3.135,-3.067l185.261,0.116c194.34,0.123 211.346,0.484 238.766,5.104c3.023,0.509 9.773,1.631 15,2.497c5.224,0.862 10.399,1.946 11.498,2.408c1.102,0.461 5.827,1.86 10.5,3.108c4.676,1.249 8.928,2.655 9.45,3.124c3.101,2.79 7.511,0.638 16.687,-8.145c7.073,-6.773 19.875,-9.345 25.32,-5.085c0.574,0.446 2.843,1.102 5.044,1.451c2.201,0.353 6.701,1.099 10.001,1.665c11.678,1.995 23.16,2.914 36.499,2.914c13.339,0 24.821,-0.919 36.499,-2.914c3.3,-0.566 7.8,-1.312 10.001,-1.665c2.201,-0.349 4.47,-1.005 5.044,-1.451c5.445,-4.26 18.247,-1.688 25.32,5.085c9.176,8.783 13.586,10.935 16.687,8.145c0.521,-0.469 4.774,-1.875 9.45,-3.124c4.673,-1.248 9.398,-2.647 10.5,-3.108c1.099,-0.462 6.274,-1.546 11.498,-2.408c5.227,-0.866 11.977,-1.988 15,-2.497c27.247,-4.591 44.595,-4.962 238.683,-5.134l185.183,-0.162l3.004,3.004c11.107,11.104 43.136,15.409 58.237,7.827c9.559,-4.804 11.468,-2.997 9.694,9.183l-1.159,7.939l2.835,3.713l2.832,3.716l0.288,83.704c0.158,46.035 0.75,89.553 1.316,96.701c1.245,15.75 1.418,59.846 0.244,62.265c-0.465,0.956 -1.365,2.741 -1.999,3.971c-1.473,2.85 -1.481,10.328 -0.015,17.614c0.942,4.695 0.889,5.981 -0.296,7.417c-4.867,5.877 -5.632,20.307 -1.481,27.923c0.84,1.545 1.931,3.712 2.423,4.811c1.376,3.094 -1.14,45.191 -3.863,64.53c-0.81,5.771 -1.451,41.918 -2.014,113.471c-0.454,57.75 -1.11,107.573 -1.459,110.719c-0.072,0.654 -0.131,1.243 -0.173,1.78l3.463,0l-0.241,5.499l5.427,2.752c6.161,3.12 26.021,4.193 27.764,1.5c0.443,-0.69 0.709,-7.102 0.593,-14.25c-0.225,-13.56 0.233,-14.066 3.184,-3.502c3.187,11.411 8.629,15.124 15.307,10.444l2.224,-1.557l-0.007,-45.191c-0.01,-51.849 -0.457,-92.041 -1.538,-123.924c0.922,-5.302 1.434,-10.291 1.545,-14.771l0,-0.943c-0.387,-5.824 -0.6,-12.89 -0.472,-16.317c0.135,-3.72 -0.154,-7.009 -0.642,-7.309c-0.487,-0.303 -0.881,-2.658 -0.877,-5.238c0.007,-2.58 -0.533,-9.075 -1.196,-14.43c-1.159,-9.364 -1.122,-9.855 0.93,-12.63l2.137,-2.888l-3.439,-7.091c-1.893,-3.9 -3.442,-7.485 -3.442,-7.969c-0,-0.484 -0.649,-2.182 -1.448,-3.78c-2.67,-5.359 -2.482,-13.845 0.315,-14.239c2.695,-0.381 5.476,-1.592 8.134,-3.377l0,-2.562c7.926,-4.825 13.657,-15.271 12.795,-25.666c-0.589,-7.117 -6.566,-16.863 -10.47,-17.07c-0.097,-0.007 0.728,-2.692 1.838,-5.973c3.012,-8.922 1.435,-17.622 -4.163,-24.61l0,-2.689l-0.011,-0.013c-4.826,-5.194 -4.804,-4.222 -0.341,-15.495l0.352,-0.89l0,-4.512c1.101,-4.936 1.869,-10.969 2.197,-17.81c4.005,-83.216 2.795,-166.092 -2.197,-188.144l0,-8.897c6.149,-3.766 8.622,-13.807 4.68,-19.822c-1.47,-2.242 -1.444,-2.539 0.364,-4.177c5.673,-5.134 5.235,-19.392 -0.795,-25.71c-1.848,-1.937 -3.068,-2.798 -4.249,-2.485l0,-3.63c-5.984,-6.419 -6.295,-10.533 -2.036,-17.21c0.932,-1.462 1.598,-2.655 2.036,-3.702l0,-11.525c1.138,-1.042 2.858,-1.733 5.509,-2.567c8.7,-2.745 11.899,-11.726 7.571,-21.259c-1.916,-4.222 -9.39,-8.531 -12.004,-6.919c-0.592,0.368 -1.076,-0.033 -1.076,-0.892c0,-1.965 3.615,-1.995 7.001,-0.06c3.795,2.171 4.969,1.819 6.552,-1.969c3.397,-8.134 0.078,-18.307 -5.607,-17.171c-3.562,0.712 -3.851,-0.536 -0.536,-2.314c10.886,-5.823 4.76,-22.076 -7.41,-23.693c-0.964,-0.128 -1.966,-0.165 -3,-0.097c-5.932,0.39 -6.814,0.18 -10.099,-2.377c-5.568,-4.343 -11.073,-5.412 -21.412,-4.159l-8.775,1.065l-6.03,-4.44c-3.319,-2.441 -6.518,-5.029 -7.11,-5.745c-9.855,-11.977 -37.819,-16.864 -52.575,-9.191l-7.5,3.9l-1.374,0.005c-0.427,0.238 -0.904,0.589 -1.304,0.981c-1.02,1.001 -3.948,1.125 -12.821,0.555c-8.578,-0.552 -17.857,-1.021 -28.863,-1.425c-29.826,-0.306 -112.964,-2.286 -194.978,-1.466c-74.515,0.745 -132.358,1.734 -169.402,-1.07c-61.458,-4.651 -74.427,-14.485 -75.721,-14.534c-3.176,-0.12 -3.946,0.726 -9.328,6.674c-6.443,7.12 -10.133,11.427 -13.391,11.618c-3.826,0.224 -8.115,-2.204 -14.453,-3.72c-23.27,-5.562 -59.565,-7.073 -81.363,-3.757c-17.538,2.668 -32.718,6.827 -37.177,7.045c-4.544,0.223 -13.33,-11.89 -21.651,-18.408l-4.087,1.537c-3.348,1.3 -7.786,3.428 -11.086,4.512c-3.3,1.088 -23.557,7.092 -60.987,10.164c-9.159,0.752 -42.378,0.909 -181.314,0.991c-102.148,0.061 -159.969,0.864 -184.925,0.841l-8.691,-0.007Zm1229.42,456.99l0,1.727c0.624,-1.021 0.894,-2.003 0.604,-2.293c-0.334,-0.33 -0.604,-0.079 -0.604,0.566Zm-1345.53,-1528.84l-3.467,-0c-9.866,7.07 -19.301,19.21 -33,40l0,-34c-1.646,-28.436 5.599,-46.053 27,-46.444l1330,0c21.401,0.391 28.646,18.008 27,46.444l0,34c-13.699,-20.79 -23.134,-32.93 -33,-40l-5.747,-0c-6.563,5.669 -21.472,21.838 -21.003,23.262c0.266,0.807 3.116,1.339 8.149,1.53c7.47,0.285 7.845,0.417 10.871,3.863c3.454,3.934 10.729,14.809 10.729,16.035c-0,0.427 1.091,3.034 2.426,5.794c1.335,2.76 3.184,7.042 4.11,9.517c0.926,2.475 2.074,5.513 2.554,6.75c0.855,2.216 9.874,-3.494 13.612,-6.846c11.738,-10.523 14.328,-11.751 19.083,-3.595c2.974,5.1 2.321,9.079 -9.525,17.306c-5.366,3.724 -18.614,12.384 -19.064,12.384c-0.45,-0 -0.806,3.712 -0.791,8.25c0.052,16.031 -5.321,39.787 -10.965,48.465c-0.791,1.219 -1.44,2.85 -1.44,3.626c-0,0.78 -0.675,1.973 -1.5,2.659c-2.963,2.46 19.724,2.391 36.519,18.725c7.942,7.725 7.661,11.064 5.086,18.325c-1.737,4.896 -2.931,5.939 -6.603,0.524c-1.65,-2.434 -17.531,-15.925 -22.001,-17.583c-1.099,-0.409 -23.19,-4.444 -24.034,-3.6c-0.573,0.574 -1.206,0.944 -1.794,1.182c-0.887,0.152 -2.051,0.294 -3.597,0.427l-1289.14,-0c-6.574,-0.496 -8.849,-0.813 -9.789,-0.909c-1.785,-0.182 -12.437,-1.448 -20.93,2.963c-9.791,5.087 -18.474,15.708 -19.82,17.673c-1.655,2.419 -3.011,4.29 -4.156,4.028c-1.328,-0.302 -2.366,-3.131 -3.263,-5.833c-6.606,-19.897 30.578,-30.933 34.333,-30.945c1.755,-0.005 4.245,0.172 5.527,-0.818l2.336,-1.797l-2.085,-3.708c-6.937,-12.357 -11.838,-30.81 -12.731,-47.97c-0.802,-15.368 -0.337,-12.603 -14.985,-22.619c-5.977,-4.088 -14.899,-10.681 -16.159,-12.208c0,0 -1.838,-1.772 -2.291,-2.771c-0.792,-1.744 7.453,-10.843 11.017,-10.441c0.984,0.613 5.198,3.147 7.806,5.011c0.358,0.773 0.908,1.343 1.341,1.343c0.525,-0 2.475,1.571 4.339,3.491c5.347,5.505 12.577,7.47 12.577,3.412c0,-1.151 0.638,-3.288 1.414,-4.747c0.78,-1.459 2.4,-5.224 3.6,-8.366c1.204,-3.139 2.816,-6.233 3.585,-6.874c0.772,-0.638 1.402,-1.894 1.406,-2.786c0.004,-0.897 2.606,-5.003 5.783,-9.128l5.775,-7.5l8.46,-0.502c10.77,-0.634 11.366,-2.003 4.095,-9.364c-2.79,-2.824 -8.549,-6.721 -11.572,-9.886c-2.005,-2.095 -4.54,-4.336 -6.079,-5.749Zm26.634,-0c6.732,6.585 19.997,19.31 21.305,20.27c1.703,1.249 4.219,2.831 5.595,3.517c1.988,0.99 124.995,1.193 602.577,0.979l600.075,-0.266l8.922,-6.731c12.049,-8.168 19.418,-16.083 19.758,-17.599l0.056,-0.17l-66.389,-0c-7.168,6.638 -16.611,9.804 -28,10l-1070,-0c-11.389,-0.196 -20.832,-3.362 -28,-10l-65.899,-0Z" style="fill:#fc0404;"/></svg>